<?xml version="1.0" encoding="UTF-8" standalone="no"?>
<!-- Created with Inkscape (http://www.inkscape.org/) -->

<svg
   xmlns:dc="http://purl.org/dc/elements/1.1/"
   xmlns:cc="http://creativecommons.org/ns#"
   xmlns:rdf="http://www.w3.org/1999/02/22-rdf-syntax-ns#"
   xmlns:svg="http://www.w3.org/2000/svg"
   xmlns="http://www.w3.org/2000/svg"
   xmlns:xlink="http://www.w3.org/1999/xlink"
   xmlns:sodipodi="http://sodipodi.sourceforge.net/DTD/sodipodi-0.dtd"
   xmlns:inkscape="http://www.inkscape.org/namespaces/inkscape"
   id="svg2"
   version="1.1"
   inkscape:version="0.91 r"
   width="512"
   height="513"
   sodipodi:docname="folder-public.svg">
  <metadata
     id="metadata8">
    <rdf:RDF>
      <cc:Work
         rdf:about="">
        <dc:format>image/svg+xml</dc:format>
        <dc:type
           rdf:resource="http://purl.org/dc/dcmitype/StillImage" />
        <dc:title />
      </cc:Work>
    </rdf:RDF>
  </metadata>
  <defs
     id="defs6">
    <linearGradient
       inkscape:collect="always"
       id="linearGradient3345">
      <stop
         style="stop-color:#ef7e2c;stop-opacity:1;"
         offset="0"
         id="stop3347" />
      <stop
         id="stop3353"
         offset="0"
         style="stop-color:#9ffe72;stop-opacity:1" />
      <stop
         style="stop-color:#51c626;stop-opacity:1"
         offset="0.5096553"
         id="stop3361" />
      <stop
         style="stop-color:#2aaf00;stop-opacity:1"
         offset="0.72282487"
         id="stop3357" />
      <stop
         id="stop3359"
         offset="0.88750315"
         style="stop-color:#009800;stop-opacity:1" />
      <stop
         style="stop-color:#ef7e2c;stop-opacity:0;"
         offset="1"
         id="stop3349" />
    </linearGradient>
    <linearGradient
       gradientUnits="userSpaceOnUse"
       y2="496.69702"
       x2="268.45551"
       y1="56.516945"
       x1="265.19492"
       id="linearGradient3594"
       xlink:href="#linearGradient3345"
       inkscape:collect="always" />
    <linearGradient
       id="linearGradient3388"
       inkscape:collect="always">
      <stop
         style="stop-color:#a43933;stop-opacity:0.59215689"
         offset="0"
         id="stop3400" />
      <stop
         id="stop3426"
         offset="0.25648037"
         style="stop-color:#a6ab91;stop-opacity:1" />
      <stop
         style="stop-color:#89906e;stop-opacity:1"
         offset="0.5472427"
         id="stop3428" />
      <stop
         id="stop3430"
         offset="0.83389211"
         style="stop-color:#4c4f3d;stop-opacity:1" />
      <stop
         id="stop3392"
         offset="1"
         style="stop-color:#000000;stop-opacity:0;" />
    </linearGradient>
    <linearGradient
       id="linearGradient4233">
      <stop
         style="stop-color:#716134;stop-opacity:1;"
         offset="0"
         id="stop4235" />
      <stop
         style="stop-color:#716134;stop-opacity:0;"
         offset="1"
         id="stop4237" />
    </linearGradient>
    <linearGradient
       id="linearGradient4232">
      <stop
         id="stop4234"
         offset="0"
         style="stop-color:#847b3d;stop-opacity:1;" />
      <stop
         id="stop4236"
         offset="1"
         style="stop-color:#a38c4a;stop-opacity:1;" />
    </linearGradient>
    <linearGradient
       id="linearGradient4172">
      <stop
         style="stop-color:#cd9e49;stop-opacity:1;"
         offset="0"
         id="stop4174" />
      <stop
         style="stop-color:#e1ca8a;stop-opacity:1;"
         offset="1"
         id="stop4176" />
    </linearGradient>
    <linearGradient
       gradientTransform="matrix(2.4142136,0,0,2.4142136,533.6426,128.50088)"
       y2="147.18167"
       x2="59.899494"
       y1="-32.654762"
       x1="58.142136"
       gradientUnits="userSpaceOnUse"
       id="linearGradient3402"
       xlink:href="#linearGradient3388"
       inkscape:collect="always" />
    <linearGradient
       gradientUnits="userSpaceOnUse"
       y2="496.69702"
       x2="268.45551"
       y1="56.516945"
       x1="265.19492"
       id="linearGradient3466"
       xlink:href="#linearGradient3345"
       inkscape:collect="always" />
    <linearGradient
       inkscape:collect="always"
       xlink:href="#linearGradient3345"
       id="linearGradient3468"
       x1="265.19492"
       y1="56.516945"
       x2="268.45551"
       y2="496.69702"
       gradientUnits="userSpaceOnUse" />
    <linearGradient
       inkscape:collect="always"
       xlink:href="#linearGradient3345"
       id="linearGradient3435"
       x1="265.19492"
       y1="56.516945"
       x2="268.45551"
       y2="496.69702"
       gradientUnits="userSpaceOnUse" />
    <linearGradient
       gradientUnits="userSpaceOnUse"
       y2="496.69702"
       x2="268.45551"
       y1="56.516945"
       x1="265.19492"
       id="linearGradient3437"
       xlink:href="#linearGradient3345"
       inkscape:collect="always" />
    <linearGradient
       inkscape:collect="always"
       xlink:href="#linearGradient3345-4"
       id="linearGradient3351"
       x1="265.19492"
       y1="56.516945"
       x2="268.45551"
       y2="496.69702"
       gradientUnits="userSpaceOnUse" />
    <linearGradient
       inkscape:collect="always"
       id="linearGradient3345-4">
      <stop
         style="stop-color:#ef7e2c;stop-opacity:1;"
         offset="0"
         id="stop3347-2" />
      <stop
         style="stop-color:#00ccff;stop-opacity:1"
         offset="0"
         id="stop3361-2" />
      <stop
         id="stop3352"
         offset="0.63911438"
         style="stop-color:#2c89a0;stop-opacity:1" />
      <stop
         style="stop-color:#216778;stop-opacity:1"
         offset="0.88033241"
         id="stop3354" />
      <stop
         id="stop3359-0"
         offset="0.99193281"
         style="stop-color:#174e8c;stop-opacity:1" />
      <stop
         style="stop-color:#ef7e2c;stop-opacity:0;"
         offset="1"
         id="stop3349-2" />
    </linearGradient>
  </defs>
  <sodipodi:namedview
     pagecolor="#ffffff"
     bordercolor="#666666"
     borderopacity="1"
     objecttolerance="10"
     gridtolerance="10"
     guidetolerance="10"
     inkscape:pageopacity="0"
     inkscape:pageshadow="2"
     inkscape:window-width="1366"
     inkscape:window-height="744"
     id="namedview4"
     showgrid="false"
     inkscape:zoom="0.70710678"
     inkscape:cx="465.38047"
     inkscape:cy="167.27381"
     inkscape:window-x="0"
     inkscape:window-y="24"
     inkscape:window-maximized="1"
     inkscape:current-layer="svg2"
     showguides="true"
     inkscape:guide-bbox="true">
    <sodipodi:guide
       position="71.992188,441.26953"
       orientation="0,1"
       id="guide3343" />
    <sodipodi:guide
       position="20.125,71.75"
       orientation="0,1"
       id="guide3345" />
    <sodipodi:guide
       position="8.6620581,301.80201"
       orientation="1,0"
       id="guide3347" />
    <sodipodi:guide
       position="502.125,310.82813"
       orientation="1,0"
       id="guide3349" />
  </sodipodi:namedview>
  <rect
     style="opacity:0;fill:url(#linearGradient3402);fill-opacity:1;stroke-width:0.96399999"
     id="rect3872"
     height="309.01935"
     width="309.01935"
     y="128.50089"
     x="533.64258" />
  <g
     transform="translate(0.086854,1.7999802e-5)"
     id="g3368">
    <rect
       ry="25"
       y="71.733047"
       x="33.692795"
       height="70.691429"
       width="183.68008"
       id="rect2984"
       style="fill:#bdcdd4;fill-opacity:1;fill-rule:evenodd;stroke:#000000;stroke-width:0;stroke-linecap:butt;stroke-linejoin:miter;stroke-miterlimit:4;stroke-dasharray:none;stroke-opacity:0" />
    <rect
       ry="25"
       y="115.20763"
       x="8.6949148"
       height="326.0593"
       width="493.43646"
       id="rect2982"
       style="fill:url(#linearGradient3351);fill-opacity:1;fill-rule:evenodd;stroke:none;stroke-width:0;stroke-linecap:butt;stroke-linejoin:miter;stroke-miterlimit:4;stroke-dasharray:none;stroke-opacity:1" />
  </g>
  <g
     id="g4530"
     transform="matrix(1.6893974,0,0,1.6893974,-1297.2433,-211.97952)"
     style="fill:#b3b3b3">
    <g
       id="g3373"
       style="fill:#b3b3b3;fill-opacity:1">
      <g
         id="g3441"
         style="fill:#b3b3b3">
        <path
           style="fill:#b3b3b3;fill-opacity:1"
           d="m 874.89081,363.98702 c -14.95902,-0.60506 -25.08306,-1.75033 -32.9075,-3.72371 -8.95738,-2.25906 -15.34803,-5.68116 -17.98569,-9.63115 -1.82326,-2.73029 -2.12911,-4.14217 -2.01417,-9.29913 0.0968,-4.34249 0.10414,-4.38567 1.13523,-6.52982 2.52013,-5.24167 7.17427,-9.6852 15.7981,-15.08325 4.26401,-2.66905 13.02406,-6.97829 19.28208,-9.48535 6.22514,-2.49381 7.61411,-3.48474 8.98251,-6.40898 0.68979,-1.47488 0.83439,-2.15978 0.83439,-3.96149 0,-3.44265 -0.63084,-5.18385 -2.73888,-7.55803 -8.87496,-9.99629 -14.56062,-24.81331 -14.56062,-37.94567 0,-14.53016 6.23187,-25.88722 17.19893,-31.34376 4.63314,-2.30528 8.70413,-3.30846 14.31438,-3.52746 15.36773,-0.59953 28.03851,7.99143 32.36349,21.94368 2.28173,7.36048 2.33716,17.20916 0.14554,25.88299 -2.12809,8.42352 -6.93527,18.00879 -11.88614,23.70044 -2.58662,2.97372 -2.83169,3.40609 -3.36196,5.93295 -0.63452,3.02454 -0.46691,6.07754 0.43929,8.00644 1.0098,2.14836 2.33365,3.111 6.20084,4.50908 20.28506,7.33348 34.61344,17.03583 38.17037,25.84697 0.60782,1.50591 0.66584,2.08941 0.66676,6.68626 2.7e-4,4.8888 -0.0189,5.08568 -0.78833,6.71979 -3.28423,7.01072 -13.58987,11.52109 -31.63698,13.84635 -7.95079,1.02446 -28.39557,1.79702 -37.65179,1.42285 z"
           id="path3146"
           inkscape:connector-curvature="0" />
        <path
           style="fill:#b3b3b3;fill-opacity:1"
           d="m 807.10868,361.99358 c -12.69252,-0.51338 -21.28262,-1.48513 -27.92155,-3.15944 -2.25557,-0.47224 -6.16814,-1.82647 -6.16814,-1.82647 l -0.0239,-29.89981 c 0,0 2.30915,-1.81456 3.59009,-2.67426 3.61796,-2.26465 11.05073,-5.92098 16.36058,-8.04811 5.28195,-2.11596 6.46038,-2.95682 7.62147,-5.43801 0.58605,-1.25141 0.70795,-1.83254 0.70795,-3.36127 0,-2.92103 -0.53526,-4.39842 -2.32389,-6.41288 -7.53028,-8.48171 -12.35449,-21.05374 -12.35449,-32.19636 0,-12.32855 5.28766,-21.96494 14.59297,-26.59474 3.93123,-1.95592 7.38541,-2.8071 12.14554,-2.99292 13.03931,-0.50869 23.79037,6.78061 27.46006,18.61883 1.936,6.24534 1.98304,14.6018 0.12346,21.96142 -1.80573,7.14724 -5.88449,15.28021 -10.08522,20.1095 -2.19472,2.52307 -2.40265,2.89001 -2.85258,5.03402 -0.53839,2.5662 -0.39617,5.15662 0.37273,6.79334 0.8568,1.82285 1.98007,2.63965 5.26124,3.82582 17.21168,6.22237 29.36903,14.45474 32.38711,21.93079 0.51572,1.27774 0.56495,1.77284 0.56573,5.6732 2.4e-4,4.14807 -0.0234,4.31513 -0.66888,5.70172 -2.78663,5.94842 -11.53081,9.77548 -26.84353,11.74844 -6.74615,0.86915 -24.09324,1.52467 -31.94702,1.20719 z"
           id="path3146-1"
           inkscape:connector-curvature="0"
           sodipodi:nodetypes="ccsscscscsscscsccscccscc" />
      </g>
    </g>
  </g>
</svg>
