<?xml version="1.0" encoding="UTF-8" standalone="no"?>
<svg
   xmlns:dc="http://purl.org/dc/elements/1.1/"
   xmlns:cc="http://creativecommons.org/ns#"
   xmlns:rdf="http://www.w3.org/1999/02/22-rdf-syntax-ns#"
   xmlns:svg="http://www.w3.org/2000/svg"
   xmlns="http://www.w3.org/2000/svg"
   xmlns:xlink="http://www.w3.org/1999/xlink"
   xmlns:sodipodi="http://sodipodi.sourceforge.net/DTD/sodipodi-0.dtd"
   xmlns:inkscape="http://www.inkscape.org/namespaces/inkscape"
   viewBox="0 0 128 128"
   id="svg2"
   version="1.1"
   inkscape:version="0.91 r"
   sodipodi:docname="0ad.svg"
   width="128"
   height="128">
  <metadata
     id="metadata50">
    <rdf:RDF>
      <cc:Work
         rdf:about="">
        <dc:format>image/svg+xml</dc:format>
        <dc:type
           rdf:resource="http://purl.org/dc/dcmitype/StillImage" />
        <dc:title></dc:title>
      </cc:Work>
    </rdf:RDF>
  </metadata>
  <sodipodi:namedview
     pagecolor="#ffffff"
     bordercolor="#666666"
     borderopacity="1"
     objecttolerance="10"
     gridtolerance="10"
     guidetolerance="10"
     inkscape:pageopacity="0"
     inkscape:pageshadow="2"
     inkscape:window-width="1366"
     inkscape:window-height="744"
     id="namedview48"
     showgrid="false"
     inkscape:zoom="3.4766083"
     inkscape:cx="42.603368"
     inkscape:cy="67.879345"
     inkscape:window-x="0"
     inkscape:window-y="24"
     inkscape:window-maximized="1"
     inkscape:current-layer="svg2" />
  <defs
     id="defs4">
    <linearGradient
       xlink:href="#5"
       id="4"
       y1="537.20001"
       x2="0"
       y2="512.03003"
       gradientUnits="userSpaceOnUse" />
    <linearGradient
       xlink:href="#1"
       id="3"
       x1="409.95001"
       y1="540.20001"
       x2="407.38"
       y2="505.67001"
       gradientUnits="userSpaceOnUse" />
    <linearGradient
       id="5">
      <stop
         stop-color="#d3d3d3"
         id="stop9" />
      <stop
         offset="1"
         stop-color="#fcf9f9"
         id="stop11" />
    </linearGradient>
    <linearGradient
       xlink:href="#5"
       id="2"
       x1="407.70999"
       y1="544.53998"
       x2="408.57999"
       y2="502.78"
       gradientUnits="userSpaceOnUse" />
    <linearGradient
       id="1">
      <stop
         stop-color="#c61423"
         id="stop15" />
      <stop
         offset="1"
         stop-color="#ff4c63"
         id="stop17" />
    </linearGradient>
    <linearGradient
       y1="545.79999"
       x2="0"
       y2="517.79999"
       gradientUnits="userSpaceOnUse"
       id="linearGradient19">
      <stop
         stop-color="#3889e9"
         id="stop21" />
      <stop
         offset="1"
         stop-color="#5ea5fb"
         id="stop23" />
    </linearGradient>
    <linearGradient
       x1="193.28"
       y1="478.60999"
       x2="167.67999"
       y2="723.22998"
       gradientUnits="userSpaceOnUse"
       id="linearGradient25">
      <stop
         stop-color="#ff9300"
         id="stop27" />
      <stop
         offset="1"
         stop-color="#ffff02"
         id="stop29" />
    </linearGradient>
    <linearGradient
       xlink:href="#1"
       id="0"
       gradientUnits="userSpaceOnUse"
       y1="545.14001"
       x2="0"
       y2="518.14001" />
  </defs>
  <g
     transform="matrix(2.4861277,0,0,2.4861277,-952.00023,-1238.1917)"
     id="g32">
    <g
       transform="matrix(1.71428,0,0,1.71428,-278.04,-387.75)"
       id="g34">
      <circle
         cx="400.57001"
         cy="531.79999"
         r="14"
         id="circle36"
         style="fill:url(#0)" />
      <circle
         r="14"
         cy="531.79999"
         cx="400.57001"
         id="circle38"
         style="fill:#5ea5fb;fill-opacity:0" />
    </g>
    <g
       id="g40"
       style="fill-rule:evenodd">
      <circle
         cx="408.57001"
         cy="523.79999"
         r="21.6"
         id="circle42"
         style="fill:url(#2)" />
      <circle
         cx="408.57001"
         cy="523.79999"
         r="19"
         id="circle44"
         style="fill:url(#3)" />
    </g>
    <path
       d="m 418.52,531.38 -0.217,0 -8.364,-18.11 c -0.246,-0.534 -0.781,-0.875 -1.368,-0.875 -0.588,0 -1.122,0.342 -1.368,0.875 l -8.364,18.11 -0.217,0 c -0.832,0 -1.507,0.675 -1.507,1.507 0,0.832 0.675,1.507 1.507,1.507 l 3.467,0 c 0.832,0 1.507,-0.675 1.507,-1.507 0,-0.809 -0.638,-1.467 -1.438,-1.504 l 6.414,-13.887 6.414,13.887 c -0.8,0.036 -1.438,0.695 -1.438,1.504 0,0.832 0.675,1.507 1.507,1.507 l 3.467,0 c 0.832,0 1.507,-0.675 1.507,-1.507 0,-0.832 -0.675,-1.507 -1.507,-1.507"
       id="path46"
       inkscape:connector-curvature="0"
       style="fill:url(#4)" />
  </g>
</svg>
