<?xml version="1.0" encoding="UTF-8" standalone="no"?>
<svg
   xmlns:dc="http://purl.org/dc/elements/1.1/"
   xmlns:cc="http://creativecommons.org/ns#"
   xmlns:rdf="http://www.w3.org/1999/02/22-rdf-syntax-ns#"
   xmlns:svg="http://www.w3.org/2000/svg"
   xmlns="http://www.w3.org/2000/svg"
   xmlns:sodipodi="http://sodipodi.sourceforge.net/DTD/sodipodi-0.dtd"
   xmlns:inkscape="http://www.inkscape.org/namespaces/inkscape"
   viewBox="0 0 128 128"
   id="svg2"
   version="1.1"
   inkscape:version="0.91 r"
   sodipodi:docname="1password.svg"
   width="128"
   height="128">
  <metadata
     id="metadata21">
    <rdf:RDF>
      <cc:Work
         rdf:about="">
        <dc:format>image/svg+xml</dc:format>
        <dc:type
           rdf:resource="http://purl.org/dc/dcmitype/StillImage" />
        <dc:title></dc:title>
      </cc:Work>
    </rdf:RDF>
  </metadata>
  <sodipodi:namedview
     pagecolor="#ffffff"
     bordercolor="#666666"
     borderopacity="1"
     objecttolerance="10"
     gridtolerance="10"
     guidetolerance="10"
     inkscape:pageopacity="0"
     inkscape:pageshadow="2"
     inkscape:window-width="1366"
     inkscape:window-height="744"
     id="namedview19"
     showgrid="false"
     inkscape:zoom="2.4583333"
     inkscape:cx="61.950679"
     inkscape:cy="38.930148"
     inkscape:window-x="0"
     inkscape:window-y="24"
     inkscape:window-maximized="1"
     inkscape:current-layer="svg2" />
  <defs
     id="defs4">
    <linearGradient
       id="0"
       gradientUnits="userSpaceOnUse"
       x1="487.73999"
       y1="985.34998"
       x2="493.51001"
       y2="11.611">
      <stop
         stop-color="#197cf1"
         id="stop7" />
      <stop
         offset="1"
         stop-color="#20bcfa"
         id="stop9" />
    </linearGradient>
  </defs>
  <g
     transform="matrix(0.07875595,0,0,0.07875595,43.325169,43.415674)"
     id="g11"
     style="fill:#1d9df6;enable-background:new">
    <path
       d="m 946.23,206.65 c -0.3,-23 -18,-42 -40.899,-44.1 -190.3,-17.8 -345.6,-119.5 -396.8,-156.7 -10.7,-7.8 -25.2,-7.8 -35.9,0 -51.1,37.2 -206.4,138.9 -396.7,156.7 -22.9,2.101 -40.5,21.1 -40.9,44.1 -2.3,150.1 21.8,659.7 444.1,773.1 7.5,2 15.4,2 22.9,0 422.3,-113.3 446.4,-623 444.2,-773.1"
       transform="matrix(1.57872,0,0,1.57872,-516.38,-516.38)"
       id="path13"
       inkscape:connector-curvature="0"
       style="fill:url(#0)" />
    <path
       d="m 946.23,206.65 c -0.3,-23 -18,-42 -40.899,-44.1 -190.3,-17.8 -345.6,-119.5 -396.8,-156.7 -10.7,-7.8 -25.2,-7.8 -35.9,0 -51.1,37.2 -206.4,138.9 -396.7,156.7 -22.9,2.101 -40.5,21.1 -40.9,44.1 -2.3,150.1 21.8,659.7 444.1,773.1 7.5,2 15.4,2 22.9,0 422.3,-113.3 446.4,-623 444.2,-773.1"
       transform="matrix(1.21334,0,0,1.22497,-337.98,-329.35)"
       id="path15"
       inkscape:connector-curvature="0"
       style="opacity:0.675;fill:#ffffff" />
    <path
       d="m 353.81,0 c -89.89,0 -162.56,72.67 -162.56,162.56 0,19.12 3.825,38.25 9.562,57.37 l -200.81,200.81 0,95.62 95.62,0 0,-57.37 57.37,0 0,-57.37 57.37,0 86.06,-86.06 c 17.213,5.737 36.34,9.562 57.37,9.562 89.89,0 162.56,-72.68 162.56,-162.56 0,-89.89 -72.67,-162.56 -162.56,-162.56 m 47.813,172.12 c -32.513,0 -57.37,-24.862 -57.37,-57.37 0,-32.513 24.862,-57.37 57.37,-57.37 32.513,0 57.37,24.862 57.37,57.37 0,32.513 -24.862,57.37 -57.37,57.37 z"
       id="path17"
       inkscape:connector-curvature="0" />
  </g>
</svg>
