<?xml version="1.0" encoding="UTF-8" standalone="no"?>
<svg
   xmlns:dc="http://purl.org/dc/elements/1.1/"
   xmlns:cc="http://creativecommons.org/ns#"
   xmlns:rdf="http://www.w3.org/1999/02/22-rdf-syntax-ns#"
   xmlns:svg="http://www.w3.org/2000/svg"
   xmlns="http://www.w3.org/2000/svg"
   xmlns:sodipodi="http://sodipodi.sourceforge.net/DTD/sodipodi-0.dtd"
   xmlns:inkscape="http://www.inkscape.org/namespaces/inkscape"
   viewBox="0 0 128 128"
   id="svg2"
   version="1.1"
   inkscape:version="0.91 r"
   sodipodi:docname="akregator.svg"
   width="128"
   height="128">
  <metadata
     id="metadata29">
    <rdf:RDF>
      <cc:Work
         rdf:about="">
        <dc:format>image/svg+xml</dc:format>
        <dc:type
           rdf:resource="http://purl.org/dc/dcmitype/StillImage" />
        <dc:title></dc:title>
      </cc:Work>
    </rdf:RDF>
  </metadata>
  <sodipodi:namedview
     pagecolor="#ffffff"
     bordercolor="#666666"
     borderopacity="1"
     objecttolerance="10"
     gridtolerance="10"
     guidetolerance="10"
     inkscape:pageopacity="0"
     inkscape:pageshadow="2"
     inkscape:window-width="1366"
     inkscape:window-height="744"
     id="namedview27"
     showgrid="false"
     inkscape:zoom="2.4583333"
     inkscape:cx="77.712877"
     inkscape:cy="37.087842"
     inkscape:window-x="0"
     inkscape:window-y="24"
     inkscape:window-maximized="1"
     inkscape:current-layer="svg2" />
  <defs
     id="defs4">
    <linearGradient
       y1="545.79999"
       x2="0"
       y2="517.79999"
       gradientUnits="userSpaceOnUse"
       id="linearGradient6">
      <stop
         stop-color="#3889e9"
         id="stop8" />
      <stop
         offset="1"
         stop-color="#5ea5fb"
         id="stop10" />
    </linearGradient>
    <linearGradient
       id="0"
       gradientUnits="userSpaceOnUse"
       y1="545.14001"
       x2="0"
       y2="518.14001">
      <stop
         stop-color="#f15f19"
         id="stop13" />
      <stop
         offset="1"
         stop-color="#fbb521"
         id="stop15" />
    </linearGradient>
  </defs>
  <g
     id="g19"
     transform="matrix(4.3147675,0,0,4.3147675,-1663.8966,-2230.6615)">
    <circle
       style="fill:url(#0)"
       id="circle21"
       cx="400.57001"
       cy="531.79999"
       r="14" />
    <circle
       style="fill:#5ea5fb;fill-opacity:0"
       id="circle23"
       r="14"
       cy="531.79999"
       cx="400.57001" />
  </g>
  <path
     style="fill:#692c0b"
     inkscape:connector-curvature="0"
     id="path25"
     d="m 35.122521,27.2339 c 6.144113,0 12.059171,0.795226 17.744642,2.384358 5.685472,1.590452 11.007675,3.840071 15.966611,6.750176 4.958539,2.910106 9.472703,6.400118 13.541303,10.468718 4.068994,4.069127 7.558611,8.582895 10.468716,13.541302 2.910106,4.958804 5.159721,10.281139 6.750181,15.96661 1.590446,5.685472 2.384346,11.600793 2.384346,17.744642 0,1.940246 -0.68704,3.597013 -2.061376,4.971749 -1.37434,1.374735 -3.0315,2.061245 -4.971745,2.061245 -1.940379,0 -3.597012,-0.68677 -4.972277,-2.061245 -1.374077,-1.374341 -2.061248,-3.031503 -2.061248,-4.971749 0,-4.851012 -0.633408,-9.526863 -1.899957,-14.027421 -1.26655,-4.499236 -3.046165,-8.704028 -5.335413,-12.611337 -2.290568,-3.907572 -5.038195,-7.464823 -8.245519,-10.670826 -3.206927,-3.206797 -6.763386,-5.95495 -10.670826,-8.245518 -3.907441,-2.29057 -8.110779,-4.069128 -12.611337,-5.335415 -4.500558,-1.266549 -9.175484,-1.899824 -14.026101,-1.899824 -1.940246,0 -3.597011,-0.68717 -4.97188,-2.061512 -1.374342,-1.374341 -2.061512,-3.031635 -2.061512,-4.971881 0,-1.940246 0.68717,-3.597012 2.061512,-4.971882 1.374208,-1.374208 3.031502,-2.061379 4.971748,-2.061379 m 0,26.597808 c 5.550732,0 10.765937,1.064705 15.642972,3.192793 4.877564,2.12941 9.135856,5.012304 12.773817,8.649737 3.638095,3.638094 6.521649,7.895593 8.649737,12.772496 2.12941,4.878093 3.192794,10.09224 3.192794,15.644293 0,1.940246 -0.687039,3.597013 -2.061248,4.971749 -1.374341,1.374343 -3.031503,2.061243 -4.972278,2.061243 -1.940246,0 -3.597011,-0.68677 -4.971749,-2.061243 -1.37434,-1.374341 -2.061511,-3.031503 -2.061511,-4.971749 0,-3.611278 -0.687171,-7.006444 -2.061512,-10.186029 -1.374341,-3.179584 -3.247217,-5.95495 -5.61863,-8.327418 -2.371412,-2.371545 -5.147042,-4.24429 -8.327419,-5.618763 -3.179584,-1.374077 -6.57528,-2.061247 -10.18603,-2.061247 -1.940246,0 -3.597011,-0.687039 -4.97188,-2.06138 -1.374342,-1.374473 -2.061512,-3.031767 -2.061512,-4.972014 0,-1.940246 0.68717,-3.597012 2.061512,-4.97188 1.37434,-1.374606 3.031634,-2.061777 4.97188,-2.061777 m 12.934976,36.944996 c 0,1.401422 -0.256004,2.694787 -0.768013,3.880625 -0.512011,1.186102 -1.212654,2.223199 -2.101935,3.11261 -0.889279,0.888883 -1.940246,1.589132 -3.1529,2.101934 -1.212653,0.511875 -2.492677,0.767615 -3.840071,0.767615 -1.401289,0 -2.694787,-0.256 -3.880492,-0.767615 -1.185706,-0.511877 -2.223199,-1.213182 -3.112478,-2.101934 -0.889281,-0.889279 -1.590453,-1.926772 -2.101935,-3.11261 -0.512009,-1.185838 -0.768013,-2.479203 -0.768013,-3.880625 0,-1.346997 0.256004,-2.627285 0.768013,-3.84007 0.51201,-1.213183 1.212654,-2.26415 2.101935,-3.153034 0.889279,-0.889279 1.926772,-1.590451 3.112478,-2.101933 1.185705,-0.511877 2.479203,-0.768014 3.880492,-0.768014 1.347394,0 2.627418,0.256137 3.840071,0.768014 1.212654,0.512142 2.264149,1.212654 3.1529,2.101933 0.889281,0.889017 1.590453,1.940248 2.101935,3.153034 0.512009,1.212389 0.768013,2.49228 0.768013,3.84007 z" />
</svg>
