<?xml version="1.0" encoding="UTF-8" standalone="no"?>
<svg
   xmlns:dc="http://purl.org/dc/elements/1.1/"
   xmlns:cc="http://creativecommons.org/ns#"
   xmlns:rdf="http://www.w3.org/1999/02/22-rdf-syntax-ns#"
   xmlns:svg="http://www.w3.org/2000/svg"
   xmlns="http://www.w3.org/2000/svg"
   xmlns:sodipodi="http://sodipodi.sourceforge.net/DTD/sodipodi-0.dtd"
   xmlns:inkscape="http://www.inkscape.org/namespaces/inkscape"
   viewBox="0 0 128 128"
   id="svg2"
   version="1.1"
   inkscape:version="0.91 r"
   sodipodi:docname="alienarena.svg"
   width="128"
   height="128">
  <metadata
     id="metadata23">
    <rdf:RDF>
      <cc:Work
         rdf:about="">
        <dc:format>image/svg+xml</dc:format>
        <dc:type
           rdf:resource="http://purl.org/dc/dcmitype/StillImage" />
        <dc:title></dc:title>
      </cc:Work>
    </rdf:RDF>
  </metadata>
  <sodipodi:namedview
     pagecolor="#ffffff"
     bordercolor="#666666"
     borderopacity="1"
     objecttolerance="10"
     gridtolerance="10"
     guidetolerance="10"
     inkscape:pageopacity="0"
     inkscape:pageshadow="2"
     inkscape:window-width="1366"
     inkscape:window-height="744"
     id="namedview21"
     showgrid="false"
     inkscape:zoom="2.4583333"
     inkscape:cx="71.262822"
     inkscape:cy="28.715166"
     inkscape:window-x="0"
     inkscape:window-y="24"
     inkscape:window-maximized="1"
     inkscape:current-layer="svg2" />
  <defs
     id="defs4">
    <linearGradient
       y1="545.79999"
       x2="0"
       y2="517.79999"
       gradientUnits="userSpaceOnUse"
       id="linearGradient6">
      <stop
         stop-color="#3889e9"
         id="stop8" />
      <stop
         offset="1"
         stop-color="#5ea5fb"
         id="stop10" />
    </linearGradient>
    <linearGradient
       id="0"
       gradientUnits="userSpaceOnUse"
       y1="545.14001"
       x2="0"
       y2="518.14001"
       gradientTransform="matrix(4.2276073,0,0,4.2276073,-1629.3817,-2184.2999)">
      <stop
         stop-color="#30cf41"
         id="stop13" />
      <stop
         offset="1"
         stop-color="#47f383"
         id="stop15" />
    </linearGradient>
  </defs>
  <circle
     r="59.186501"
     cy="63.941605"
     cx="64.070953"
     id="circle17"
     style="fill:url(#0)" />
  <path
     d="m 32.738625,57.94139 c 0,20.300944 16.530391,48.3803 31.129078,48.3803 13.743732,0 31.129078,-28.078073 31.129078,-48.3803 0,-20.300961 -13.937161,-30.538481 -31.129078,-30.538481 -17.191917,0 -31.129078,10.23752 -31.129078,30.538481 M 71.95559,72.954009 c 3.800868,-3.800874 9.10403,-5.182604 13.997767,-4.148396 1.034198,4.894243 -0.347912,10.197537 -4.148393,13.99777 -3.800869,3.800873 -9.104031,5.182604 -13.997768,4.148396 -1.034198,-4.894391 0.347912,-10.197538 4.148394,-13.99777 z M 41.782049,68.805613 c 4.894252,-1.034208 10.197545,0.347917 13.997767,4.148396 3.800869,3.800874 5.182592,9.10402 4.148396,13.99777 -4.894255,1.034208 -10.197547,-0.347917 -13.99777,-4.148396 -3.800868,-3.800997 -5.182591,-9.104021 -4.148393,-13.99777"
     id="path19"
     inkscape:connector-curvature="0"
     style="fill:#195c28" />
</svg>
