<?xml version="1.0" encoding="UTF-8" standalone="no"?>
<svg
   xmlns:dc="http://purl.org/dc/elements/1.1/"
   xmlns:cc="http://creativecommons.org/ns#"
   xmlns:rdf="http://www.w3.org/1999/02/22-rdf-syntax-ns#"
   xmlns:svg="http://www.w3.org/2000/svg"
   xmlns="http://www.w3.org/2000/svg"
   xmlns:xlink="http://www.w3.org/1999/xlink"
   xmlns:sodipodi="http://sodipodi.sourceforge.net/DTD/sodipodi-0.dtd"
   xmlns:inkscape="http://www.inkscape.org/namespaces/inkscape"
   viewBox="0 0 128 128"
   id="svg2"
   version="1.1"
   inkscape:version="0.91 r"
   sodipodi:docname="amarok.svg"
   width="128"
   height="128">
  <metadata
     id="metadata39">
    <rdf:RDF>
      <cc:Work
         rdf:about="">
        <dc:format>image/svg+xml</dc:format>
        <dc:type
           rdf:resource="http://purl.org/dc/dcmitype/StillImage" />
        <dc:title></dc:title>
      </cc:Work>
    </rdf:RDF>
  </metadata>
  <sodipodi:namedview
     pagecolor="#ffffff"
     bordercolor="#666666"
     borderopacity="1"
     objecttolerance="10"
     gridtolerance="10"
     guidetolerance="10"
     inkscape:pageopacity="0"
     inkscape:pageshadow="2"
     inkscape:window-width="1366"
     inkscape:window-height="744"
     id="namedview37"
     showgrid="false"
     inkscape:zoom="2.4583333"
     inkscape:cx="74.717969"
     inkscape:cy="17.924558"
     inkscape:window-x="0"
     inkscape:window-y="24"
     inkscape:window-maximized="1"
     inkscape:current-layer="svg2" />
  <defs
     id="defs4">
    <linearGradient
       xlink:href="#2"
       id="0"
       x1="317.89999"
       y1="569.02002"
       x2="317.98001"
       y2="473.20001"
       gradientUnits="userSpaceOnUse" />
    <linearGradient
       xlink:href="#2"
       id="1"
       x1="311.89001"
       y1="571.39001"
       x2="310.84"
       y2="473.56"
       gradientUnits="userSpaceOnUse" />
    <linearGradient
       id="2">
      <stop
         stop-color="#cecece"
         id="stop9" />
      <stop
         offset="1"
         stop-color="#fcfcfc"
         id="stop11" />
    </linearGradient>
  </defs>
  <g
     transform="matrix(1.169733,0,0,1.169733,-306.93114,-544.4541)"
     id="g13">
    <path
       d="m 317.89,471.99 c -27.16,0 -49.18,22.02 -49.18,49.18 0,27.16 22.02,49.18 49.18,49.18 27.16,0 49.18,-22.02 49.18,-49.18 0,-27.16 -22.02,-49.18 -49.18,-49.18"
       id="path15"
       inkscape:connector-curvature="0"
       style="color:#000000;fill:url(#0)" />
    <g
       id="g17"
       style="fill-rule:evenodd">
      <path
         d="m 324.01,536.31 c 15.355,6.957 15.383,19.509 9.285,32.11 10.196,-5.275 20.16,-9.32 24.04,-18.46 l -14.17,-18.218 z"
         id="path19"
         inkscape:connector-curvature="0"
         style="fill:#315978" />
      <g
         transform="matrix(1.22092,0,0,1.22092,50.577,-112.97)"
         id="g21">
        <g
           id="g23"
           style="fill:#1f94e8">
          <path
             d="m 255.39,537.13 c 10.204,-24.19 0.592,-30.375 -26.942,-38.992 -1.795,-5.225 -3.439,-7.235 -7.527,-11.08 0.79,6.392 -7.803,13.599 5.602,16.511 -3.679,0.711 -4.463,2 -5.952,3.151 19.436,0.596 33.575,7.43 34.82,30.415"
             id="path25"
             inkscape:connector-curvature="0" />
          <path
             d="m 217.07,502.17 3.851,-1.225 -0.875,-6.652 c -4.143,-3.145 -5.473,-5.664 -5.427,-7.877 0.074,5.252 -1.108,10.503 2.451,15.755"
             id="path27"
             inkscape:connector-curvature="0" />
        </g>
        <path
           d="m 188.83,525.14 c 7.319,13.626 14.923,7 35.27,-3.256 6.895,-3.476 9.327,0.723 14.998,0.356 l -4.35,1.45 c 14.611,2.433 21.958,6.708 13.183,24.05 19.568,-18.61 3.169,-38.632 -21.723,-42.26 0.529,-0.967 1.226,-1.933 3.867,-2.9 -6.874,-2.578 -9.882,-8.08 -9.02,-15.818 -2.563,4.78 -3.826,9.91 -3.384,14.69 -3.164,3.209 -6.476,3.639 -8.548,6.923 -3.143,4.98 3.493,9.412 -20.356,16.807 z"
           id="path29"
           inkscape:connector-curvature="0"
           style="fill:#267fbb" />
        <path
           d="m 211.81,514.77 c 0.026,-4.738 3.722,-5.556 8.584,-5.238 -2.23,2.863 -3.776,5.536 -8.584,5.238"
           id="path31"
           inkscape:connector-curvature="0"
           style="fill:#315978" />
        <path
           d="m 194.49,531.75 c 6.744,3.327 14.268,1.537 18.553,0.944 24.713,-3.423 40.19,1.128 31.949,17.573 6.896,-5.399 19.507,-20.913 -6.213,-29.19 -0.557,-1.796 2.086,-1.991 4.201,-2.451 -12,-4.176 -23.29,3.44 -36.39,9.853 -3.336,1.634 -8.253,2.6 -12.1,3.276"
           id="path33"
           inkscape:connector-curvature="0"
           style="fill:#256592" />
      </g>
    </g>
    <path
       d="m 317.46,471.13 c -27.16,0 -49.18,22.02 -49.18,49.18 0,27.16 22.02,49.18 49.18,49.18 27.16,0 49.18,-22.02 49.18,-49.18 0,-27.16 -22.02,-49.18 -49.18,-49.18 z"
       id="path35"
       inkscape:connector-curvature="0"
       style="color:#000000;fill:none;stroke:url(#1);stroke-width:3.17400002" />
  </g>
</svg>
