<?xml version="1.0" encoding="UTF-8" standalone="no"?>
<!-- Created with Inkscape (http://www.inkscape.org/) -->

<svg
   xmlns:dc="http://purl.org/dc/elements/1.1/"
   xmlns:cc="http://creativecommons.org/ns#"
   xmlns:rdf="http://www.w3.org/1999/02/22-rdf-syntax-ns#"
   xmlns:svg="http://www.w3.org/2000/svg"
   xmlns="http://www.w3.org/2000/svg"
   xmlns:xlink="http://www.w3.org/1999/xlink"
   xmlns:sodipodi="http://sodipodi.sourceforge.net/DTD/sodipodi-0.dtd"
   xmlns:inkscape="http://www.inkscape.org/namespaces/inkscape"
   id="svg2"
   version="1.1"
   inkscape:version="0.91 r"
   width="128"
   height="128"
   sodipodi:docname="aptana.svg">
  <metadata
     id="metadata8">
    <rdf:RDF>
      <cc:Work
         rdf:about="">
        <dc:format>image/svg+xml</dc:format>
        <dc:type
           rdf:resource="http://purl.org/dc/dcmitype/StillImage" />
        <dc:title />
      </cc:Work>
    </rdf:RDF>
  </metadata>
  <defs
     id="defs6">
    <linearGradient
       gradientUnits="userSpaceOnUse"
       y2="-27.299"
       x2="62.18"
       y1="22.532"
       x1="62.990002"
       id="0">
      <stop
         stop-color="#feb600"
         offset="0"
         id="stop9" />
      <stop
         stop-color="#f16419"
         id="stop7"
         offset="1" />
    </linearGradient>
    <linearGradient
       inkscape:collect="always"
       xlink:href="#0"
       id="linearGradient4182"
       x1="64.245766"
       y1="120.95551"
       x2="63.118637"
       y2="10.497877"
       gradientUnits="userSpaceOnUse"
       gradientTransform="matrix(1.0414508,0,0,1.0414508,-2.0877975,-3.2412619)" />
  </defs>
  <sodipodi:namedview
     pagecolor="#ffffff"
     bordercolor="#666666"
     borderopacity="1"
     objecttolerance="10"
     gridtolerance="10"
     guidetolerance="10"
     inkscape:pageopacity="0"
     inkscape:pageshadow="2"
     inkscape:window-width="1366"
     inkscape:window-height="744"
     id="namedview4"
     showgrid="false"
     inkscape:zoom="1.7744361"
     inkscape:cx="-45.048476"
     inkscape:cy="86.392566"
     inkscape:window-x="0"
     inkscape:window-y="24"
     inkscape:window-maximized="1"
     inkscape:current-layer="svg2" />
  <path
     style="fill:#ffffff;fill-opacity:1;fill-rule:evenodd;stroke:none"
     d="m 42.354963,-69.736276 c -0.35252,-0.237202 -0.35746,-0.48139 -0.0352,-1.738956 0.57805,-2.255406 10.135672,-28.197226 12.274697,-33.316628 0.279477,-0.66889 0.728019,-1.17086 1.210855,-1.35511 0.461679,-0.17616 2.75389,-0.2563 5.759032,-0.20133 3.986028,0.0729 5.072336,0.1765 5.390234,0.51398 0.969413,1.02916 13.146269,33.760129 13.146269,35.336729 0,0.514479 -0.194802,0.699588 -0.880561,0.836739 -1.605102,0.32102 -7.953487,0.189172 -8.679769,-0.180266 -0.418448,-0.212854 -0.894193,-0.895392 -1.224648,-1.756969 -1.308688,-3.412065 -1.368711,-3.50594 -2.43028,-3.800822 -1.128491,-0.313474 -8.577462,-0.38415 -11.233096,-0.10658 l -1.706871,0.178403 -0.886005,2.476885 c -0.487302,1.362287 -1.088685,2.645114 -1.336407,2.850728 -0.554717,0.460426 -8.73366,0.690208 -9.36829,0.263197 l 0,0 z M 64.73914,-83.569773 c 0.460564,-0.382235 0.163292,-1.994504 -1.274058,-6.909919 -2.234496,-7.641477 -2.695384,-7.748419 -4.657408,-1.080673 -1.323707,4.498486 -1.907704,7.440806 -1.548216,7.800294 0.719211,0.719211 6.660253,0.870363 7.479682,0.190298 l 0,0 z"
     id="path2987"
     inkscape:connector-curvature="0" />
  <rect
     style="opacity:1;fill:url(#linearGradient4182);fill-opacity:1;fill-rule:nonzero;stroke:none;stroke-width:10.89999962;stroke-miterlimit:4;stroke-dasharray:none;stroke-opacity:0.50273222"
     id="rect3374"
     width="113.27541"
     height="113.27541"
     x="7.8898301"
     y="7.3983054"
     rx="15.621761" />
  <path
     style="opacity:1;fill:#ffffff;fill-opacity:0.84699452;fill-rule:nonzero;stroke:none;stroke-width:10.89999962;stroke-miterlimit:4;stroke-dasharray:none;stroke-opacity:0.50273222"
     d="m 63.861013,107.80679 c -0.645612,-0.14627 -1.722815,-0.38138 -2.393786,-0.52247 -1.475854,-0.31035 -2.360828,-2.10946 -2.917269,-5.93066 -0.229408,-1.575401 -0.771776,-3.563619 -1.20526,-4.41828 -0.920766,-1.81537 -5.116396,-4.021811 -7.647637,-4.021811 -1.678871,0 -6.654419,2.209575 -9.56292,4.246772 -0.992253,0.695001 -1.739015,0.808052 -2.763823,0.418421 -1.789202,-0.680252 -5.243028,-4.116084 -5.753068,-5.723097 -0.398126,-1.254388 0.709686,-4.006634 2.221092,-5.518034 1.386702,-1.386703 2.731569,-4.434839 2.71803,-6.16041 -0.01864,-2.376853 -1.999138,-6.385007 -3.708294,-7.504886 -0.80953,-0.530423 -3.096702,-1.194074 -5.082602,-1.47478 -1.985901,-0.280706 -4.250942,-0.929856 -5.033426,-1.442556 -1.28062,-0.839098 -1.422684,-1.341083 -1.422684,-5.027086 0,-4.733893 1.098533,-6.442582 4.141995,-6.442582 3.200483,0 6.862359,-1.24833 8.340459,-2.843255 1.803355,-1.945882 2.929705,-6.317751 2.243837,-8.70926 -0.27737,-0.967121 -1.459291,-3.009496 -2.626487,-4.538609 -2.824341,-3.70009 -2.744483,-5.185622 0.445408,-8.285911 3.357564,-3.26325 4.728051,-3.676093 6.892071,-2.076161 4.754348,3.515044 6.037832,4.150263 8.385711,4.150263 4.785167,0 9.151991,-3.891257 9.153832,-8.156936 5.02e-4,-1.162783 0.4627,-3.031792 1.027108,-4.153351 1.172955,-2.330828 3.167943,-2.994021 7.528107,-2.502568 3.271543,0.368751 4.012706,1.350179 5.162695,6.836308 1.001357,4.777068 2.412389,6.432357 6.377083,7.480991 3.374128,0.892433 5.727123,0.211059 9.673392,-2.801198 1.430645,-1.092036 3.120485,-1.98552 3.755204,-1.98552 1.370638,0 6.719361,4.836173 7.143801,6.459238 0.19011,0.726985 -0.62765,2.456753 -2.278945,4.820526 -3.220126,4.609506 -3.643096,6.57873 -2.134133,9.93597 1.814778,4.037623 3.474352,5.187518 8.639416,5.986122 5.42824,0.839295 6.17278,1.591554 6.15428,6.217991 -0.0185,4.631813 -0.95545,5.564287 -6.73652,6.704548 -3.828878,0.755211 -4.987881,1.249919 -6.280565,2.680806 -3.375701,3.736597 -3.339253,8.608301 0.09398,12.562282 3.606935,4.154039 3.522476,5.726313 -0.50299,9.363082 -2.677156,2.418648 -4.111986,2.675596 -6.428016,1.151125 -3.160983,-2.08064 -3.944333,-2.536917 -5.871348,-3.419867 -2.324176,-1.064924 -4.687982,-0.692505 -7.708942,1.214542 -2.974925,1.877989 -3.3502,2.520308 -3.802743,6.508801 -0.494905,4.36185 -2.061019,6.52435 -5.007985,6.91508 -1.12982,0.14981 -2.582445,0.1527 -3.228056,0.006 l 0,-3e-5 z m 9.230571,-26.276021 c 3.897079,-1.828255 7.672798,-5.476432 9.359892,-9.043724 1.841371,-3.893501 1.864501,-12.145095 0.04474,-15.962472 -1.837322,-3.854227 -5.236194,-7.219663 -9.244495,-9.153556 -2.997424,-1.446173 -4.220307,-1.696651 -8.216871,-1.68303 -3.953539,0.01348 -5.205352,0.2743 -7.923411,1.650909 -4.12375,2.088545 -7.332733,5.178181 -9.228855,8.88562 -1.271756,2.48664 -1.50125,3.730806 -1.522454,8.253852 -0.02322,4.949597 0.108967,5.559953 1.870938,8.639552 5.222519,9.12801 15.745498,12.689007 24.860515,8.412849 z"
     id="path4186"
     inkscape:connector-curvature="0" />
</svg>
