<?xml version="1.0" encoding="UTF-8" standalone="no"?>
<svg
   xmlns:dc="http://purl.org/dc/elements/1.1/"
   xmlns:cc="http://creativecommons.org/ns#"
   xmlns:rdf="http://www.w3.org/1999/02/22-rdf-syntax-ns#"
   xmlns:svg="http://www.w3.org/2000/svg"
   xmlns="http://www.w3.org/2000/svg"
   xmlns:sodipodi="http://sodipodi.sourceforge.net/DTD/sodipodi-0.dtd"
   xmlns:inkscape="http://www.inkscape.org/namespaces/inkscape"
   viewBox="0 0 128 128"
   id="svg2"
   version="1.1"
   inkscape:version="0.91 r"
   sodipodi:docname="artikulate.svg"
   width="128"
   height="128">
  <metadata
     id="metadata32">
    <rdf:RDF>
      <cc:Work
         rdf:about="">
        <dc:format>image/svg+xml</dc:format>
        <dc:type
           rdf:resource="http://purl.org/dc/dcmitype/StillImage" />
        <dc:title></dc:title>
      </cc:Work>
    </rdf:RDF>
  </metadata>
  <sodipodi:namedview
     pagecolor="#ffffff"
     bordercolor="#666666"
     borderopacity="1"
     objecttolerance="10"
     gridtolerance="10"
     guidetolerance="10"
     inkscape:pageopacity="0"
     inkscape:pageshadow="2"
     inkscape:window-width="1111"
     inkscape:window-height="678"
     id="namedview30"
     showgrid="false"
     inkscape:zoom="1.7383042"
     inkscape:cx="93.198635"
     inkscape:cy="48.455881"
     inkscape:window-x="10"
     inkscape:window-y="34"
     inkscape:window-maximized="0"
     inkscape:current-layer="svg2" />
  <defs
     id="defs4">
    <linearGradient
       gradientTransform="matrix(-0.55335,0,0,0.60252,250.6,-269.13)"
       gradientUnits="userSpaceOnUse"
       y2="508.47"
       x2="373.97"
       y1="543.13"
       x1="374.26001"
       id="0">
      <stop
         stop-color="#ff9300"
         id="stop7" />
      <stop
         offset="1"
         stop-color="#ffd702"
         id="stop9" />
    </linearGradient>
    <linearGradient
       gradientUnits="userSpaceOnUse"
       y2="16.622999"
       x2="32.695"
       y1="57.240002"
       x1="32.737999"
       id="1">
      <stop
         stop-color="#197ff1"
         id="stop12" />
      <stop
         offset="1"
         stop-color="#21c6fb"
         id="stop14" />
    </linearGradient>
  </defs>
  <g
     transform="matrix(2.5101768,0,0,2.5101768,-17.573215,-31.340003)"
     id="g16"
     style="enable-background:new">
    <path
       d="m 49.3,22.16 c -4.526,-3.683 -10.535,-5.712 -16.921,-5.712 -6.386,0 -12.395,2.028 -16.921,5.712 -4.565,3.715 -7.079,8.667 -7.079,13.942 0,5.04 2.292,9.774 6.469,13.426 -0.075,0.169 -0.135,0.348 -0.173,0.535 l -1.373,6.752 c -0.163,0.802 0.056,1.281 0.269,1.541 0.246,0.301 0.61,0.466 1.026,0.466 0.314,0 0.651,-0.093 1,-0.275 l 7.984,-4.148 c 2.764,0.89 5.736,1.356 8.795,1.356 6.386,0 12.395,-2.028 16.921,-5.712 4.565,-3.715 7.079,-8.666 7.079,-13.942 0,-5.276 -2.514,-10.227 -7.079,-13.942"
       id="path18"
       inkscape:connector-curvature="0"
       style="fill:url(#1)" />
    <path
       d="m 28.639,23.998 2.265,0.539 Q 30.58,25.4 30.149,26.155 l 10.892,0 0,8.52 -16.176,0 0,1.402 19.09,0 0,1.725 -19.09,0 0,1.402 19.304,0 q -0.324,7.01 -1.078,8.412 -0.647,1.51 -2.48,1.51 -0.863,0 -2.696,-0.324 l -0.431,-2.157 q 2.049,0.324 2.912,0.324 0.647,0 0.863,-0.647 0.324,-0.755 0.539,-5.284 l -19.09,0 0,-14.882 5.069,0 q 0.539,-1.078 0.863,-2.157 m -3.775,3.882 0,1.725 14.02,0 0,-1.725 -14.02,0 m 0,3.343 0,1.725 14.02,0 0,-1.725 -14.02,0 m 4.637,10.461 2.157,0 0,2.912 5.284,0 0,-2.696 2.049,0 0,4.422 -14.667,0 0,1.833 -2.157,0 0,-6.147 2.157,0 0,2.588 5.176,0 0,-2.912"
       id="path20"
       inkscape:connector-curvature="0"
       style="opacity:0.8;fill:#ffffff" />
    <path
       d="m 35.582,39.845 c 2.263,-2.01 5.268,-3.11 8.46,-3.11 3.193,0 6.198,1.104 8.46,3.11 2.283,2.023 3.54,4.718 3.54,7.591 0,2.741 -1.146,5.321 -3.235,7.309 0.038,0.092 0.068,0.189 0.087,0.291 l 0.686,3.676 c 0.082,0.437 -0.028,0.697 -0.134,0.839 -0.123,0.164 -0.305,0.254 -0.513,0.254 -0.157,0 -0.326,-0.05 -0.501,-0.15 L 48.44,57.397 c -1.382,0.484 -2.868,0.738 -4.398,0.738 -3.193,0 -6.198,-1.104 -8.46,-3.11 -2.283,-2.023 -3.54,-4.718 -3.54,-7.59 0,-2.872 1.257,-5.568 3.54,-7.591"
       id="path22"
       inkscape:connector-curvature="0"
       style="fill:url(#0)" />
    <g
       id="g24"
       style="fill:#ffffff;fill-opacity:0.847">
      <path
         d="m 37.37,45.38 4.968,0 c -0.14,0.897 -0.616,1.853 -1.415,2.843 -0.51,-0.816 -0.837,-1.608 -1.024,-2.135 -0.047,-0.133 -0.173,-0.222 -0.314,-0.222 l -0.818,0 c -0.106,0 -0.206,0.051 -0.269,0.136 -0.063,0.086 -0.081,0.196 -0.049,0.298 0.194,0.61 0.64,1.807 1.465,3.02 -0.974,0.947 -1.945,1.63 -2.32,1.881 -0.149,0.1 -0.192,0.301 -0.097,0.453 l 0.41,0.656 c 0.047,0.076 0.124,0.13 0.211,0.149 0.024,0.005 0.047,0.008 0.071,0.008 0.065,0 0.128,-0.019 0.183,-0.055 0.387,-0.254 1.39,-0.948 2.44,-1.954 0.389,0.405 1.302,1.115 1.844,1.509 0.083,0.06 0.188,0.079 0.287,0.051 0.098,-0.028 0.178,-0.1 0.217,-0.194 l 0.306,-0.748 c 0.062,-0.15 0.005,-0.324 -0.133,-0.409 -0.353,-0.219 -1.017,-0.668 -1.559,-1.252 1.19,-1.393 1.869,-2.751 2.02,-4.04 l 0.262,0 c 0.184,0 0.333,-0.149 0.333,-0.333 l 0,-0.888 c 0,-0.184 -0.149,-0.333 -0.333,-0.333 l -2.594,0 0,-0.456 c 0,-0.184 -0.149,-0.333 -0.333,-0.333 l -0.831,0 c -0.184,0 -0.333,0.149 -0.333,0.333 l 0,0.456 -2.594,0 c -0.184,0 -0.333,0.149 -0.333,0.333 l 0,0.888 c 0,0.184 0.149,0.333 0.333,0.333"
         id="path26"
         inkscape:connector-curvature="0" />
      <path
         d="m 48.776,44.32 c -0.043,-0.139 -0.172,-0.235 -0.318,-0.235 l -1.851,0 c -0.146,0 -0.276,0.096 -0.319,0.236 l -2.212,7.231 c -0.031,0.101 -0.012,0.211 0.051,0.296 0.063,0.085 0.162,0.135 0.268,0.135 l 1.148,0 c 0.15,0 0.281,-0.1 0.321,-0.244 l 0.496,-1.784 2.262,0 0.537,1.791 c 0.042,0.141 0.172,0.237 0.319,0.237 l 1.22,0 c 0.106,0 0.205,-0.05 0.268,-0.135 0.063,-0.085 0.081,-0.195 0.05,-0.296 L 48.775,44.32 m -2.159,4.301 0.833,-3.199 0.023,0 0.891,3.199 -1.747,0"
         id="path28"
         inkscape:connector-curvature="0" />
    </g>
  </g>
</svg>
