<?xml version="1.0" encoding="UTF-8" standalone="no"?>
<!-- Created with Inkscape (http://www.inkscape.org/) -->

<svg
   xmlns:dc="http://purl.org/dc/elements/1.1/"
   xmlns:cc="http://creativecommons.org/ns#"
   xmlns:rdf="http://www.w3.org/1999/02/22-rdf-syntax-ns#"
   xmlns:svg="http://www.w3.org/2000/svg"
   xmlns="http://www.w3.org/2000/svg"
   xmlns:xlink="http://www.w3.org/1999/xlink"
   xmlns:sodipodi="http://sodipodi.sourceforge.net/DTD/sodipodi-0.dtd"
   xmlns:inkscape="http://www.inkscape.org/namespaces/inkscape"
   width="512"
   height="512"
   id="svg2"
   version="1.1"
   inkscape:version="0.91 r"
   sodipodi:docname="audacious.svg">
  <defs
     id="defs4">
    <linearGradient
       inkscape:collect="always"
       xlink:href="#0"
       id="linearGradient3356"
       x1="11.018539"
       y1="1015.5833"
       x2="36.164001"
       y2="1041.827"
       gradientUnits="userSpaceOnUse" />
    <clipPath
       id="clipPath232"
       clipPathUnits="userSpaceOnUse">
      <path
         inkscape:connector-curvature="0"
         id="path234"
         d="M 0,512 512,512 512,0 0,0 0,512 Z" />
    </clipPath>
    <linearGradient
       inkscape:collect="always"
       xlink:href="#0-1"
       id="linearGradient3391"
       x1="5.775403"
       y1="1028.4716"
       x2="43.499966"
       y2="1028.4716"
       gradientUnits="userSpaceOnUse" />
    <clipPath
       id="clipPath6">
      <path
         d="m 69.63,12.145 -0.052,0 c -22.727,-0.292 -46.47,4.077 -46.709,4.122 -2.424,0.451 -4.946,2.974 -5.397,5.397 -0.044,0.237 -4.414,23.983 -4.122,46.71 -0.292,22.777 4.078,46.523 4.122,46.761 0.451,2.423 2.974,4.945 5.398,5.398 0.237,0.044 23.982,4.413 46.709,4.121 22.779,0.292 46.524,-4.077 46.761,-4.121 2.423,-0.452 4.946,-2.976 5.398,-5.399 0.044,-0.236 4.413,-23.981 4.121,-46.709 0.292,-22.777 -4.077,-46.523 -4.121,-46.761 -0.453,-2.423 -2.976,-4.946 -5.398,-5.397 -0.238,-0.045 -23.984,-4.414 -46.71,-4.122"
         id="path8"
         inkscape:connector-curvature="0" />
    </clipPath>
    <linearGradient
       gradientTransform="matrix(3.9865643,0,0,3.9981502,160.48509,-581.34732)"
       id="0"
       gradientUnits="userSpaceOnUse"
       x1="18.6"
       y1="261.26001"
       x2="20.030001"
       y2="155.59">
      <stop
         id="stop13"
         stop-color="#fcf9f9"
         offset="0" />
      <stop
         id="stop11"
         stop-color="#d3d3d3"
         offset="1" />
    </linearGradient>
    <linearGradient
       x2="459"
       x1="0"
       gradientUnits="userSpaceOnUse"
       id="linearGradient15">
      <stop
         stop-color="#e3203a"
         id="stop17" />
      <stop
         offset="1"
         stop-color="#fd5420"
         id="stop19" />
    </linearGradient>
    <linearGradient
       x1="0"
       x2="47"
       gradientUnits="userSpaceOnUse"
       id="linearGradient21">
      <stop
         stop-color="#a9a3d4"
         id="stop23" />
      <stop
         offset=".47"
         stop-color="#87baff"
         id="stop25" />
      <stop
         offset="1"
         stop-color="#89ec85"
         id="stop27" />
    </linearGradient>
    <linearGradient
       inkscape:collect="always"
       xlink:href="#0-1"
       id="linearGradient4216"
       x1="93.244141"
       y1="284.0336"
       x2="426.24414"
       y2="284.03311"
       gradientUnits="userSpaceOnUse" />
    <linearGradient
       id="0-1"
       gradientUnits="userSpaceOnUse"
       y1="545.14001"
       x2="0"
       y2="518.14001">
      <stop
         offset="0"
         stop-color="#21c6fb"
         id="stop9"
         style="stop-color:#21c6fb;stop-opacity:1" />
      <stop
         stop-color="#197ff1"
         id="stop7"
         offset="1"
         style="stop-color:#1b8ef3;stop-opacity:1" />
    </linearGradient>
  </defs>
  <sodipodi:namedview
     id="base"
     pagecolor="#ffffff"
     bordercolor="#666666"
     borderopacity="1.0"
     inkscape:pageopacity="0.0"
     inkscape:pageshadow="2"
     inkscape:zoom="0.71263109"
     inkscape:cx="383.52455"
     inkscape:cy="148.63834"
     inkscape:document-units="px"
     inkscape:current-layer="layer1"
     showgrid="false"
     inkscape:window-width="1366"
     inkscape:window-height="744"
     inkscape:window-x="0"
     inkscape:window-y="24"
     inkscape:window-maximized="1"
     showguides="false">
    <sodipodi:guide
       position="4,44.000017"
       orientation="40,0"
       id="guide4083" />
    <sodipodi:guide
       position="4,4.0000174"
       orientation="0,40"
       id="guide4085" />
    <sodipodi:guide
       position="44,4.0000174"
       orientation="-40,0"
       id="guide4087" />
    <sodipodi:guide
       position="44,44.000017"
       orientation="0,-40"
       id="guide4089" />
    <sodipodi:guide
       position="9,39.000017"
       orientation="30,0"
       id="guide4115" />
    <sodipodi:guide
       position="9,9.0000174"
       orientation="0,30"
       id="guide4117" />
    <sodipodi:guide
       position="39,9.0000174"
       orientation="-30,0"
       id="guide4119" />
    <sodipodi:guide
       position="39,39.000017"
       orientation="0,-30"
       id="guide4121" />
    <sodipodi:guide
       position="14,34.000017"
       orientation="20,0"
       id="guide4125" />
    <sodipodi:guide
       position="14,14.000017"
       orientation="0,20"
       id="guide4127" />
    <sodipodi:guide
       position="34,14.000017"
       orientation="-20,0"
       id="guide4129" />
    <sodipodi:guide
       position="34,34.000017"
       orientation="0,-20"
       id="guide4131" />
    <inkscape:grid
       type="xygrid"
       id="grid2998"
       empspacing="5"
       visible="true"
       enabled="true"
       snapvisiblegridlinesonly="true" />
  </sodipodi:namedview>
  <metadata
     id="metadata7">
    <rdf:RDF>
      <cc:Work
         rdf:about="">
        <dc:format>image/svg+xml</dc:format>
        <dc:type
           rdf:resource="http://purl.org/dc/dcmitype/StillImage" />
        <dc:title />
      </cc:Work>
    </rdf:RDF>
  </metadata>
  <g
     inkscape:label="Capa 1"
     inkscape:groupmode="layer"
     id="layer1"
     transform="translate(0,-540.3622)">
    <circle
       style="fill:url(#linearGradient3391);fill-opacity:1;stroke:none"
       id="path4139"
       cx="24"
       cy="1028.3622"
       r="20"
       sodipodi:cx="24"
       sodipodi:cy="1028.3622"
       sodipodi:rx="20"
       sodipodi:ry="20"
       transform="matrix(11.77787,0,0,11.77787,-26.119837,-11314.985)" />
    <circle
       r="15"
       cy="1028.3622"
       cx="24"
       id="circle4141"
       style="fill:url(#linearGradient3356);fill-opacity:1;stroke:none"
       sodipodi:cx="24"
       sodipodi:cy="1028.3622"
       sodipodi:rx="15"
       sodipodi:ry="15"
       transform="matrix(13.732791,0,0,13.732791,-72.393486,-13323.929)" />
    <g
       id="g228"
       transform="matrix(1.3342793,0,0,-1.25,-82.51162,1153.2613)"
       style="fill:url(#linearGradient4216);fill-opacity:1">
      <g
         id="g230"
         clip-path="url(#clipPath232)"
         style="fill:url(#linearGradient4216);fill-opacity:1.0">
        <g
           id="g236"
           transform="translate(348.904,258.189)"
           style="fill:url(#linearGradient4216);fill-opacity:1.0">
          <path
             inkscape:connector-curvature="0"
             d="m 3.7441408,28.439338 -5.937,34.829723 -5.868,-34.425443 -11.5999998,0.397166 c -0.412,0.695931 -0.945,1.29583 -1.587,1.735677 l -12.37,8.467352 -16.939,97.566607 -13.341,-76.840444 -62.146001,42.538304 -2.616,12.05371 -1.94,-8.93565 -23.472,16.06686 c -1.547,1.0599 -3.453,1.0599 -5,0 -1.547,-1.05871 -2.5,-3.01609 -2.5,-5.13352 l 0,-87.619669 -9.579,-0.327218 -5.873,34.456268 -5.942,-34.860548 -72.694,-2.484958 85.509,-2.92362 8.579,-49.41225 0,-38.660305 c 0,-2.117431 0.953,-4.074809 2.5,-5.133525 0.773,-0.528765 1.637,-0.794333 2.5,-0.794333 0.863,0 1.727,0.265568 2.5,0.794333 l 55.671001,38.106643 9.241,-53.222681 11.733,67.579949 48.031,32.875901 9.482,-54.614538 10.8429995,62.449981 86.4110005,2.954445 -73.5960002,2.515783 z"
             style="fill:url(#linearGradient4216);fill-opacity:1.0;fill-rule:nonzero;stroke:none"
             id="path238" />
        </g>
      </g>
    </g>
  </g>
</svg>
