<?xml version="1.0" encoding="UTF-8" standalone="no"?>
<!-- Created with Inkscape (http://www.inkscape.org/) -->

<svg
   xmlns:dc="http://purl.org/dc/elements/1.1/"
   xmlns:cc="http://creativecommons.org/ns#"
   xmlns:rdf="http://www.w3.org/1999/02/22-rdf-syntax-ns#"
   xmlns:svg="http://www.w3.org/2000/svg"
   xmlns="http://www.w3.org/2000/svg"
   xmlns:xlink="http://www.w3.org/1999/xlink"
   xmlns:sodipodi="http://sodipodi.sourceforge.net/DTD/sodipodi-0.dtd"
   xmlns:inkscape="http://www.inkscape.org/namespaces/inkscape"
   id="svg2"
   version="1.1"
   inkscape:version="0.91 r"
   width="512"
   height="512"
   sodipodi:docname="background.svg">
  <metadata
     id="metadata8">
    <rdf:RDF>
      <cc:Work
         rdf:about="">
        <dc:format>image/svg+xml</dc:format>
        <dc:type
           rdf:resource="http://purl.org/dc/dcmitype/StillImage" />
        <dc:title />
      </cc:Work>
    </rdf:RDF>
  </metadata>
  <defs
     id="defs6">
    <linearGradient
       inkscape:collect="always"
       xlink:href="#2"
       id="linearGradient3348"
       x1="-79.276764"
       y1="62.370594"
       x2="686.27649"
       y2="448.10529"
       gradientUnits="userSpaceOnUse" />
    <linearGradient
       inkscape:collect="always"
       xlink:href="#0-612"
       id="linearGradient3360"
       x1="-132.52235"
       y1="198.44266"
       x2="615.28235"
       y2="450.47177"
       gradientUnits="userSpaceOnUse" />
    <linearGradient
       gradientTransform="matrix(2.4955507,0,0,2.4955507,240.71244,33.087543)"
       id="0"
       y1="17.279"
       x2="0"
       y2="-30.721"
       gradientUnits="userSpaceOnUse">
      <stop
         stop-color="#dc3c30"
         id="stop3341" />
      <stop
         offset="1"
         stop-color="#ff786d"
         id="stop3343" />
    </linearGradient>
    <linearGradient
       gradientUnits="userSpaceOnUse"
       y2="-30.891"
       x2="-49.554"
       y1="-5.178"
       x1="-48.953"
       id="0-9">
      <stop
         stop-color="#566069"
         id="stop3394" />
      <stop
         offset="1"
         stop-color="#6c7884"
         id="stop3396" />
    </linearGradient>
    <linearGradient
       gradientUnits="userSpaceOnUse"
       y2="-4.937"
       x2="42.36"
       y1="15.429"
       x1="43.691"
       id="1">
      <stop
         stop-color="#d5dbff"
         id="stop3399" />
      <stop
         offset="1"
         stop-color="#f9ffff"
         id="stop3401" />
    </linearGradient>
    <linearGradient
       gradientUnits="userSpaceOnUse"
       y2="-26.783"
       x2="-56.38"
       y1="3.509"
       x1="-56.27"
       id="2">
      <stop
         stop-color="#197ff1"
         id="stop3404" />
      <stop
         offset="1"
         stop-color="#21c6fb"
         id="stop3406" />
    </linearGradient>
    <linearGradient
       id="0-7"
       x1="23.2"
       y1="48.821"
       x2="22.382"
       y2="-1.823"
       gradientUnits="userSpaceOnUse">
      <stop
         stop-color="#7737c5"
         id="stop3457" />
      <stop
         stop-color="#9371ff"
         offset="1"
         id="stop3459" />
    </linearGradient>
    <linearGradient
       id="0-3"
       y1="546.29"
       x2="0"
       y2="501.51"
       gradientUnits="userSpaceOnUse">
      <stop
         stop-color="#197cf1"
         id="stop3484" />
      <stop
         offset="1"
         stop-color="#20bcfa"
         id="stop3486" />
    </linearGradient>
    <linearGradient
       id="0-5"
       gradientUnits="userSpaceOnUse"
       y1="36.965"
       x2="0"
       y2="9.965">
      <stop
         stop-color="#2b65bd"
         id="stop3509" />
      <stop
         offset="1"
         stop-color="#64a3dc"
         id="stop3511" />
    </linearGradient>
    <linearGradient
       gradientUnits="userSpaceOnUse"
       y2="517.8"
       x2="0"
       y1="545.8"
       id="linearGradient3579">
      <stop
         stop-color="#3889e9"
         id="stop3581" />
      <stop
         offset="1"
         stop-color="#5ea5fb"
         id="stop3583" />
    </linearGradient>
    <linearGradient
       y2="518.14"
       x2="0"
       y1="545.14"
       gradientUnits="userSpaceOnUse"
       id="0-8">
      <stop
         stop-color="#00a661"
         id="stop3586" />
      <stop
         offset="1"
         stop-color="#37ce97"
         id="stop3588" />
    </linearGradient>
    <linearGradient
       id="0-6"
       gradientUnits="userSpaceOnUse"
       y1="-2.471"
       x2="0"
       y2="-51.27">
      <stop
         stop-color="#0a80fd"
         id="stop3639" />
      <stop
         offset="1"
         stop-color="#56c5fa"
         id="stop3641" />
    </linearGradient>
    <linearGradient
       gradientUnits="userSpaceOnUse"
       y2="517.8"
       x2="0"
       y1="545.8"
       id="linearGradient3663">
      <stop
         stop-color="#3889e9"
         id="stop3665" />
      <stop
         offset="1"
         stop-color="#5ea5fb"
         id="stop3667" />
    </linearGradient>
    <linearGradient
       y2="517.7"
       x2="387.16"
       y1="545.87"
       x1="414.43"
       gradientUnits="userSpaceOnUse"
       id="0-0">
      <stop
         stop-color="#80256c"
         id="stop3670" />
      <stop
         offset="1"
         stop-color="#4567bd"
         id="stop3672" />
    </linearGradient>
    <linearGradient
       gradientTransform="matrix(0.53361,0,0,0.53476,-221.94,-216.11)"
       xlink:href="#1-6"
       id="8"
       x1="543.95"
       y1="484.81"
       x2="543.74"
       y2="427.54"
       gradientUnits="userSpaceOnUse" />
    <linearGradient
       gradientUnits="userSpaceOnUse"
       y2="25.17"
       x2="0"
       y1="28.442"
       id="5"
       xlink:href="#3" />
    <linearGradient
       y2="21.988"
       x2="69.26"
       y1="24.14"
       x1="69.39"
       gradientUnits="userSpaceOnUse"
       id="7"
       xlink:href="#3" />
    <linearGradient
       y2="507.67"
       x2="390.88"
       y1="531.8"
       x1="391.57"
       gradientTransform="matrix(0.68488,0,0,0.84437,-199.89,-405.47)"
       gradientUnits="userSpaceOnUse"
       id="6">
      <stop
         stop-color="#d3d3d3"
         id="stop3726" />
      <stop
         offset="1"
         stop-color="#fcf9f9"
         id="stop3728" />
    </linearGradient>
    <linearGradient
       y2="40.747"
       x2="88.18"
       y1="26.87"
       x1="74.3"
       gradientUnits="userSpaceOnUse"
       id="4"
       xlink:href="#3" />
    <linearGradient
       id="3">
      <stop
         stop-color="#222c35"
         id="stop3732" />
      <stop
         offset="1"
         stop-color="#545e67"
         id="stop3734" />
    </linearGradient>
    <linearGradient
       y2="25.427"
       x2="80.06"
       y1="43.46"
       x1="80.34"
       gradientUnits="userSpaceOnUse"
       id="0-61"
       xlink:href="#1-6" />
    <linearGradient
       y2="22.484"
       x2="80.37"
       y1="44.46"
       x1="80.978"
       gradientUnits="userSpaceOnUse"
       id="2-0"
       xlink:href="#3" />
    <linearGradient
       id="1-6">
      <stop
         stop-color="#197ff1"
         id="stop3739" />
      <stop
         offset="1"
         stop-color="#21c6fb"
         id="stop3741" />
    </linearGradient>
    <linearGradient
       id="0-2"
       x1="-1092.91"
       y1="203.1"
       x2="-1060.26"
       y2="104.85"
       gradientUnits="userSpaceOnUse"
       gradientTransform="matrix(0.35533,0,0,0.34923,314.86,-49.68)">
      <stop
         stop-color="#f2b333"
         id="stop3816" />
      <stop
         offset="1"
         stop-color="#fcde3f"
         id="stop3818" />
    </linearGradient>
    <linearGradient
       id="1-3"
       x1="-50.952"
       y1="41.34"
       x2="-55.927"
       y2=".059"
       gradientUnits="userSpaceOnUse">
      <stop
         stop-color="#1584d8"
         id="stop3821" />
      <stop
         offset="1"
         stop-color="#1cb2ff"
         id="stop3823" />
    </linearGradient>
    <linearGradient
       gradientUnits="userSpaceOnUse"
       y2="25.17"
       x2="0"
       y1="28.442"
       id="5-1"
       xlink:href="#3" />
    <filter
       color-interpolation-filters="sRGB"
       id="filter4020">
      <feGaussianBlur
         stdDeviation="1.71"
         id="feGaussianBlur4022" />
    </filter>
    <linearGradient
       gradientTransform="scale(1.0059.99417)"
       gradientUnits="userSpaceOnUse"
       y2="7.02"
       x2="0"
       y1="92.54"
       id="linearGradient4024">
      <stop
         id="stop4026" />
      <stop
         offset="1"
         stop-opacity=".588"
         id="stop4028" />
    </linearGradient>
    <linearGradient
       gradientUnits="userSpaceOnUse"
       y2="-26.05"
       x2="-125.19"
       y1="73.5"
       x1="-123.97"
       id="0-52"
       gradientTransform="matrix(1.03458,0,0,1,4.382,0)">
      <stop
         stop-color="#c52828"
         id="stop4031" />
      <stop
         offset="1"
         stop-color="#ff5454"
         id="stop4033" />
    </linearGradient>
    <linearGradient
       id="3-7">
      <stop
         stop-color="#2e3436"
         id="stop4085" />
      <stop
         offset="1"
         stop-color="#555753"
         id="stop4087" />
    </linearGradient>
    <linearGradient
       id="4-7"
       x1="70.03"
       y1="569.24"
       x2="66.53"
       y2="491.06"
       gradientUnits="userSpaceOnUse">
      <stop
         stop-color="#0a80fd"
         id="stop4090" />
      <stop
         offset="1"
         stop-color="#56c5fa"
         id="stop4092" />
    </linearGradient>
    <linearGradient
       xlink:href="#3-7"
       id="2-4"
       x1="72.85"
       y1="491.15"
       x2="72.29"
       y2="462.68"
       gradientUnits="userSpaceOnUse"
       gradientTransform="matrix(1.0021,0,0,1,-0.15,0.002)" />
    <linearGradient
       xlink:href="#3-7"
       id="0-67"
       x1="96.68"
       y1="490.36"
       x2="96.33"
       y2="462.83"
       gradientUnits="userSpaceOnUse" />
    <linearGradient
       xlink:href="#3-7"
       id="1-5"
       x1="44.16"
       y1="490.59"
       x2="44.26"
       y2="461.93"
       gradientUnits="userSpaceOnUse" />
    <filter
       color-interpolation-filters="sRGB"
       id="filter4157">
      <feGaussianBlur
         stdDeviation="1.71"
         id="feGaussianBlur4159" />
    </filter>
    <linearGradient
       gradientTransform="scale(1.0059.99417)"
       gradientUnits="userSpaceOnUse"
       y2="7.02"
       x2="0"
       y1="92.54"
       id="linearGradient4161">
      <stop
         id="stop4163" />
      <stop
         offset="1"
         stop-opacity=".588"
         id="stop4165" />
    </linearGradient>
    <linearGradient
       gradientUnits="userSpaceOnUse"
       y2="517.8"
       x2="0"
       y1="545.8"
       id="linearGradient4215">
      <stop
         stop-color="#3889e9"
         id="stop4217" />
      <stop
         offset="1"
         stop-color="#5ea5fb"
         id="stop4219" />
    </linearGradient>
    <linearGradient
       y2="518.14"
       x2="0"
       y1="545.14"
       gradientUnits="userSpaceOnUse"
       id="0-33">
      <stop
         stop-color="#7e19bf"
         id="stop4222" />
      <stop
         offset="1"
         stop-color="#bd30fa"
         id="stop4224" />
    </linearGradient>
    <linearGradient
       gradientUnits="userSpaceOnUse"
       y2="503.8"
       x2="409.57"
       y1="552.8"
       x1="408.57"
       id="linearGradient4255">
      <stop
         stop-color="#197cf1"
         id="stop4257" />
      <stop
         offset="1"
         stop-color="#59d0ff"
         id="stop4259" />
    </linearGradient>
    <linearGradient
       id="0-4"
       x1="511.29"
       y1="549.43"
       x2="462.18"
       y2="501.03"
       gradientUnits="userSpaceOnUse">
      <stop
         stop-color="#80256c"
         id="stop4262" />
      <stop
         offset="1"
         stop-color="#4567bd"
         id="stop4264" />
    </linearGradient>
    <linearGradient
       id="0-612"
       y1="546.8"
       x2="0"
       y2="507.87"
       gradientUnits="userSpaceOnUse"
       gradientTransform="matrix(-0.32279,0,0,0.35147,161.26,-143.94)">
      <stop
         stop-color="#4fd127"
         id="stop4309" />
      <stop
         offset="1"
         stop-color="#c6f61a"
         id="stop4311" />
    </linearGradient>
    <linearGradient
       id="1-69"
       x1="34.17"
       y1="46.44"
       x2="34.15"
       y2="22.749"
       gradientUnits="userSpaceOnUse">
      <stop
         stop-color="#1074f5"
         id="stop4314" />
      <stop
         offset="1"
         stop-color="#02befd"
         id="stop4316" />
    </linearGradient>
    <linearGradient
       xlink:href="#4-8"
       id="3-6"
       gradientUnits="userSpaceOnUse"
       x1="400.51"
       y1="546.07"
       x2="400.7"
       y2="517.77" />
    <linearGradient
       id="4-8">
      <stop
         stop-color="#566069"
         id="stop4343" />
      <stop
         offset="1"
         stop-color="#6c7884"
         id="stop4345" />
    </linearGradient>
    <linearGradient
       gradientTransform="matrix(1.31487,0,0,1.21841,-245.58,-140.56)"
       gradientUnits="userSpaceOnUse"
       y2="507.8"
       x2="0"
       y1="542.8"
       id="2-5">
      <stop
         stop-color="#2fae61"
         id="stop4348" />
      <stop
         offset="1"
         stop-color="#4bdf88"
         id="stop4350" />
    </linearGradient>
    <linearGradient
       id="0-81"
       gradientUnits="userSpaceOnUse"
       y1="542.2"
       x2="0"
       y2="526.2">
      <stop
         stop-color="#d0d0d0"
         id="stop4353" />
      <stop
         offset="1"
         stop-color="#f1eeee"
         id="stop4355" />
    </linearGradient>
    <linearGradient
       gradientTransform="matrix(1.31487,0,0,1.21841,-250.19,-160.77)"
       gradientUnits="userSpaceOnUse"
       y2="507.8"
       x2="0"
       y1="542.8"
       id="1-2"
       xlink:href="#4-8" />
    <linearGradient
       id="0-1"
       gradientUnits="userSpaceOnUse"
       y1="20.995"
       x2="0"
       y2="-25.291">
      <stop
         stop-color="#566069"
         id="stop4399" />
      <stop
         offset="1"
         stop-color="#6c7884"
         id="stop4401" />
    </linearGradient>
    <clipPath
       id="clipPath4429">
      <path
         d="m-24 13c0 1.105-.672 2-1.5 2-.828 0-1.5-.895-1.5-2 0-1.105.672-2 1.5-2 .828 0 1.5.895 1.5 2"
         transform="matrix(15.33333 0 0 11.5 415-125.5)"
         fill="#1890d0"
         id="path4431" />
    </clipPath>
    <clipPath
       id="clipPath4433">
      <path
         d="m-24 13c0 1.105-.672 2-1.5 2-.828 0-1.5-.895-1.5-2 0-1.105.672-2 1.5-2 .828 0 1.5.895 1.5 2"
         transform="matrix(15.33333 0 0 11.5 415-125.5)"
         fill="#1890d0"
         id="path4435" />
    </clipPath>
    <linearGradient
       gradientTransform="matrix(0.99978,0,0,0.98633,-0.833,5.996)"
       gradientUnits="userSpaceOnUse"
       y2="317.35"
       x2="-1003.64"
       y1="433.28"
       x1="-989.67"
       id="0-02">
      <stop
         stop-color="#1584d8"
         id="stop4438" />
      <stop
         offset="1"
         stop-color="#1cb2ff"
         id="stop4440" />
    </linearGradient>
    <linearGradient
       gradientTransform="matrix(0.99834,0,0,0.98513,-2.169,6.702)"
       gradientUnits="userSpaceOnUse"
       y2="104.85"
       x2="-1060.26"
       y1="203.1"
       x1="-1092.91"
       id="1-7">
      <stop
         stop-color="#f2b333"
         id="stop4443" />
      <stop
         offset="1"
         stop-color="#fcde3f"
         id="stop4445" />
    </linearGradient>
    <filter
       color-interpolation-filters="sRGB"
       id="filter4520">
      <feGaussianBlur
         stdDeviation="1.71"
         id="feGaussianBlur4522" />
    </filter>
    <linearGradient
       gradientTransform="scale(1.0059.99417)"
       gradientUnits="userSpaceOnUse"
       y2="7.02"
       x2="0"
       y1="92.54"
       id="linearGradient4524">
      <stop
         id="stop4526" />
      <stop
         offset="1"
         stop-opacity=".588"
         id="stop4528" />
    </linearGradient>
    <linearGradient
       gradientUnits="userSpaceOnUse"
       y2="-26.05"
       x2="-125.19"
       y1="73.5"
       x1="-123.97"
       id="0-339"
       gradientTransform="matrix(1.03458,0,0,1,4.382,0)">
      <stop
         stop-color="#1074f5"
         id="stop4531" />
      <stop
         offset="1"
         stop-color="#02befd"
         id="stop4533" />
    </linearGradient>
  </defs>
  <sodipodi:namedview
     pagecolor="#ffffff"
     bordercolor="#666666"
     borderopacity="1"
     objecttolerance="10"
     gridtolerance="10"
     guidetolerance="10"
     inkscape:pageopacity="0"
     inkscape:pageshadow="2"
     inkscape:window-width="1366"
     inkscape:window-height="744"
     id="namedview4"
     showgrid="false"
     inkscape:zoom="0.84514045"
     inkscape:cx="155.47052"
     inkscape:cy="282.10384"
     inkscape:window-x="0"
     inkscape:window-y="24"
     inkscape:window-maximized="1"
     inkscape:current-layer="svg2" />
  <rect
     style="fill:url(#linearGradient3348);fill-opacity:1.0;fill-rule:evenodd;stroke:none"
     id="rect3011"
     width="440.72778"
     height="328.20273"
     x="34.878155"
     y="97.405693"
     ry="14.052011" />
  <path
     style="fill:#ffffff;fill-opacity:1;fill-rule:nonzero;stroke:none"
     d="m 459.19237,332.86246 c -18.35559,-2.47788 -70.64709,-14.2641 -109.63311,-24.71071 -25.14597,-6.73807 -46.04463,-12.57571 -46.44148,-12.97255 -2.02947,-2.02948 5.84621,-9.55369 14.73423,-14.07669 l 10.05926,-5.11901 1.17184,-10.50808 c 0.64451,-5.77944 2.72867,-13.55973 4.63147,-17.28953 3.44673,-6.75612 16.3874,-17.90064 27.88067,-24.01082 8.35888,-4.44384 31.1827,-4.38344 39.7298,0.10516 9.44846,4.96196 18.4571,12.6415 22.49661,19.17757 3.18889,5.15972 4.61556,5.98009 10.39975,5.98009 10.66458,0 25.8204,6.55021 34.03973,14.71169 l 7.34138,7.28971 0,31.32017 0,31.32019 -5.614,-0.25882 c -3.08769,-0.14235 -7.94596,-0.57363 -10.79615,-0.95837 z"
     id="path3005"
     inkscape:connector-curvature="0" />
  <path
     style="fill:#cccccc;fill-opacity:1;fill-rule:nonzero;stroke:none"
     d="m 287.32486,298.25946 c -9.87205,-2.32863 -10.17096,-2.49994 -13.14326,-7.53208 -3.11249,-5.26951 -7.62536,-9.37078 -13.12151,-11.92475 -2.66441,-1.23813 -2.4989,-0.93053 -5.03597,-9.35899 -2.69369,-8.94862 -6.67916,-14.69647 -13.70969,-19.7726 -3.29832,-2.38136 -5.39733,-4.41741 -5.39733,-5.23522 0,-0.31564 0.85289,-2.1719 1.89533,-4.12501 7.12955,-13.35798 20.73739,-23.01609 36.06448,-25.59654 4.50725,-0.75884 14.33463,-0.75844 18.85286,7.4e-4 13.29322,2.23362 24.19556,8.75457 32.52822,19.45585 4.18327,5.37239 4.78596,5.8163 8.34985,6.14992 3.04519,0.28507 4.011,0.80454 4.011,2.15739 0,0.55622 -1.08488,3.35609 -2.41086,6.22191 -3.62365,7.83178 -4.76885,11.80478 -6.3326,21.96905 -0.54178,3.52173 -1.04499,6.44919 -1.11822,6.50545 -0.0732,0.0563 -3.0527,1.41486 -6.62102,3.01908 -9.24654,4.15697 -13.03353,6.81161 -19.02152,13.33387 -1.56473,1.70434 -3.56091,3.79051 -4.43591,4.63592 -1.5354,1.48344 -1.65878,1.53617 -3.53296,1.50994 -1.06812,-0.015 -4.58751,-0.65121 -7.82089,-1.41393 z"
     id="path3781"
     inkscape:connector-curvature="0" />
  <path
     style="fill:#ffffff;fill-opacity:1;fill-rule:nonzero;stroke:none"
     d="m 245.00842,282.16546 c -13.30088,-2.65188 -33.82016,-6.19315 -45.5985,-7.86949 l -21.4151,-3.0479 5.36038,-4.78956 c 2.94822,-2.63427 8.30984,-5.32749 11.9145,-5.98496 4.02512,-0.73414 9.32707,-3.72783 13.74043,-7.75846 10.37959,-9.47941 26.75566,-11.21569 37.76247,-4.00379 4.4082,2.8884 11.12326,15.16872 11.29668,20.65919 0.0589,1.85167 3.28806,5.6515 7.24411,8.52339 6.65168,4.82868 8.66725,8.18144 5.30346,8.82185 -0.7838,0.14923 -12.30756,-1.89839 -25.60843,-4.55027 z"
     id="path3009"
     inkscape:connector-curvature="0" />
  <path
     inkscape:connector-curvature="0"
     id="path2984"
     d="m 33.086397,358.76278 0,-68.03603 9.046884,-3.2386 c 19.058695,-6.82261 45.097588,-12.81707 69.732289,-16.05319 17.63583,-2.31672 48.45486,-3.12084 63.64939,-1.6607 33.4857,3.21784 85.79584,12.90098 126.25535,23.37111 109.79222,28.41211 122.81071,31.37914 158.60176,36.14673 7.46055,0.99379 14.1563,2.26287 14.87945,2.82018 1.03019,0.79392 1.25608,11.09663 1.04344,47.58944 l -0.27139,46.57615 -221.46859,0.26046 -221.468583,0.26046 0,-68.03601 z"
     style="fill:url(#linearGradient3360);fill-opacity:1.0" />
  <g
     id="g3809"
     transform="matrix(0.88660576,0,0,0.88660576,27.340571,38.009715)">
    <rect
       y="414.21872"
       x="9.8297844"
       height="25.328032"
       width="494.37854"
       id="rect3783"
       style="fill:#d2d3d3;fill-opacity:1;fill-rule:evenodd;stroke:none" />
    <rect
       y="63.905392"
       x="8.6707497"
       height="25.328032"
       width="495.55511"
       id="rect3783-1"
       style="fill:#d2d3d3;fill-opacity:1;fill-rule:evenodd;stroke:none" />
    <rect
       transform="matrix(0,1,-1,0,0,0)"
       y="-9.8933821"
       x="63.900352"
       height="25.328032"
       width="375.64035"
       id="rect3783-1-6"
       style="fill:#d2d3d3;fill-opacity:1;fill-rule:evenodd;stroke:none" />
    <rect
       transform="matrix(0,1,-1,0,0,0)"
       y="-529.0578"
       x="63.897408"
       height="25.328032"
       width="375.64932"
       id="rect3783-1-6-0"
       style="fill:#d2d3d3;fill-opacity:1;fill-rule:evenodd;stroke:none" />
  </g>
</svg>
