<?xml version="1.0" encoding="UTF-8" standalone="no"?>
<!-- Created with Inkscape (http://www.inkscape.org/) -->

<svg
   xmlns:dc="http://purl.org/dc/elements/1.1/"
   xmlns:cc="http://creativecommons.org/ns#"
   xmlns:rdf="http://www.w3.org/1999/02/22-rdf-syntax-ns#"
   xmlns:svg="http://www.w3.org/2000/svg"
   xmlns="http://www.w3.org/2000/svg"
   xmlns:xlink="http://www.w3.org/1999/xlink"
   xmlns:sodipodi="http://sodipodi.sourceforge.net/DTD/sodipodi-0.dtd"
   xmlns:inkscape="http://www.inkscape.org/namespaces/inkscape"
   id="svg3007"
   version="1.1"
   inkscape:version="0.91 r"
   width="1024"
   height="1024"
   sodipodi:docname="banshee.svg">
  <metadata
     id="metadata3013">
    <rdf:RDF>
      <cc:Work
         rdf:about="">
        <dc:format>image/svg+xml</dc:format>
        <dc:type
           rdf:resource="http://purl.org/dc/dcmitype/StillImage" />
        <dc:title />
      </cc:Work>
    </rdf:RDF>
  </metadata>
  <defs
     id="defs3011">
    <linearGradient
       inkscape:collect="always"
       id="linearGradient3342">
      <stop
         style="stop-color:#475ae6;stop-opacity:1;"
         offset="0"
         id="stop3344" />
      <stop
         id="stop3351"
         offset="0.08318339"
         style="stop-color:#80b3ff;stop-opacity:1" />
      <stop
         style="stop-color:#0066ff;stop-opacity:1"
         offset="0.41695648"
         id="stop3356" />
      <stop
         style="stop-color:#002255;stop-opacity:1"
         offset="0.71635383"
         id="stop3353" />
      <stop
         style="stop-color:#475ae6;stop-opacity:0;"
         offset="1"
         id="stop3346" />
    </linearGradient>
    <linearGradient
       inkscape:collect="always"
       xlink:href="#linearGradient3342"
       id="linearGradient3349"
       x1="184.40677"
       y1="73.762756"
       x2="865.62708"
       y2="1021.8305"
       gradientUnits="userSpaceOnUse"
       gradientTransform="matrix(1.1652733,0,0,1.1652733,-84.687166,-38.686163)" />
    <linearGradient
       id="0"
       y1="863.73999"
       x2="0"
       y2="841.19"
       gradientUnits="userSpaceOnUse"
       gradientTransform="matrix(2.65715,0,0,2.66061,-1587.51,-2270.95)">
      <stop
         offset="0"
         stop-color="#ffd702"
         id="stop9"
         style="stop-color:#ffdf34;stop-opacity:1" />
      <stop
         stop-color="#ff9300"
         id="stop7"
         offset="1" />
    </linearGradient>
    <linearGradient
       inkscape:collect="always"
       xlink:href="#0"
       id="linearGradient4181"
       x1="1173.6949"
       y1="247.32204"
       x2="1791.9999"
       y2="880.81354"
       gradientUnits="userSpaceOnUse"
       gradientTransform="matrix(1.0653266,0,0,1.0653266,-1072.1005,-77.20772)" />
  </defs>
  <sodipodi:namedview
     pagecolor="#ffffff"
     bordercolor="#666666"
     borderopacity="1"
     objecttolerance="10"
     gridtolerance="10"
     guidetolerance="10"
     inkscape:pageopacity="0"
     inkscape:pageshadow="2"
     inkscape:window-width="1206"
     inkscape:window-height="714"
     id="namedview3009"
     showgrid="false"
     inkscape:zoom="0.23046876"
     inkscape:cx="-416.8871"
     inkscape:cy="774.08218"
     inkscape:window-x="15"
     inkscape:window-y="24"
     inkscape:window-maximized="0"
     inkscape:current-layer="svg3007" />
  <circle
     style="opacity:1;fill:url(#linearGradient4181);fill-opacity:1;fill-rule:nonzero;stroke:none;stroke-width:2;stroke-miterlimit:4;stroke-dasharray:none;stroke-opacity:1"
     id="path4171"
     r="459.93219"
     cy="516.77509"
     cx="513.39435" />
  <circle
     style="opacity:1;fill:none;fill-opacity:1;fill-rule:nonzero;stroke:#ffffff;stroke-width:101.50061035;stroke-miterlimit:4;stroke-dasharray:none;stroke-opacity:1"
     id="path4183"
     cx="531.5592"
     cy="621.30536"
     r="182.03886" />
  <path
     inkscape:connector-curvature="0"
     id="path2984"
     d="m 516.89287,779.85799 c -15.72103,-1.94578 -37.21197,-8.07734 -50.74574,-14.47818 -27.37341,-12.94637 -57.22295,-42.05955 -71.44353,-69.68123 -6.34847,-12.33128 -12.2507,-29.89459 -14.72061,-43.80476 -1.02891,-5.7944 -2.33418,-12.62768 -2.90066,-15.18505 -0.61059,-2.7564 -1.03001,-77.60464 -1.03001,-183.81356 0,-173.01263 -0.0698,-179.16379 -2.03376,-179.16379 -1.18219,0 -12.4177,10.514 -26.83468,25.11136 -26.5247,26.8567 -29.23183,28.86139 -40.55143,30.02965 -19.95355,2.0594 -37.28249,-13.17493 -37.49319,-32.9614 -0.0422,-3.9646 0.60916,-9.70358 1.44755,-12.75327 1.43912,-5.23499 4.90946,-8.92995 62.08951,-66.10867 l 60.56519,-60.56374 6.85605,-1.85273 c 7.59641,-2.05279 16.14323,-1.32742 24.29057,2.06154 6.51515,2.71 14.52544,11.17278 17.10735,18.07384 2.16252,5.77976 2.20465,8.92962 2.20465,164.98937 0,139.3326 0.20272,159.09714 1.63232,159.09714 0.89784,0 6.26252,-3.04498 11.92154,-6.76662 13.18578,-8.67152 17.92125,-11.04381 31.4183,-15.73964 18.56245,-6.45819 26.92706,-7.94222 44.3008,-7.85972 78.26494,6.84684 139.21964,63.02082 153.0715,132.93896 2.38752,12.75697 2.37831,36.40524 -0.0187,49.91185 -2.33176,13.13482 -9.53879,34.52177 -15.13504,44.91373 -28.43733,43.28275 -59.8763,70.27799 -107.97458,81.06309 -9.73284,2.11788 -37.1941,3.63456 -46.02269,2.54183 z M 618.90268,625.32254 c -1.92482,-43.48915 -50.88445,-87.53349 -86.81601,-88.74631 -56.31697,6.60564 -105.77767,65.28494 -78.87359,119.78355 10.24876,19.88872 25.75531,35.02576 47.06537,45.944 55.67513,17.09383 117.98582,-22.21662 118.62423,-76.98124 z"
     style="fill:url(#linearGradient3349);fill-opacity:1"
     sodipodi:nodetypes="cssscssssssscsscsssscccccccccccc" />
</svg>
