<?xml version="1.0" encoding="UTF-8" standalone="no"?>
<!-- Created with Inkscape (http://www.inkscape.org/) -->

<svg
   xmlns:dc="http://purl.org/dc/elements/1.1/"
   xmlns:cc="http://creativecommons.org/ns#"
   xmlns:rdf="http://www.w3.org/1999/02/22-rdf-syntax-ns#"
   xmlns:svg="http://www.w3.org/2000/svg"
   xmlns="http://www.w3.org/2000/svg"
   xmlns:xlink="http://www.w3.org/1999/xlink"
   xmlns:sodipodi="http://sodipodi.sourceforge.net/DTD/sodipodi-0.dtd"
   xmlns:inkscape="http://www.inkscape.org/namespaces/inkscape"
   version="1.1"
   width="420"
   height="420"
   id="svg2"
   inkscape:version="0.91 r"
   sodipodi:docname="bitcoin-qt.svg">
  <sodipodi:namedview
     pagecolor="#ffffff"
     bordercolor="#666666"
     borderopacity="1"
     objecttolerance="10"
     gridtolerance="10"
     guidetolerance="10"
     inkscape:pageopacity="0"
     inkscape:pageshadow="2"
     inkscape:window-width="1366"
     inkscape:window-height="744"
     id="namedview6"
     showgrid="false"
     inkscape:zoom="0.79465333"
     inkscape:cx="59.999662"
     inkscape:cy="195.69389"
     inkscape:window-x="0"
     inkscape:window-y="24"
     inkscape:window-maximized="1"
     inkscape:current-layer="svg2" />
  <metadata
     id="metadata8">
    <rdf:RDF>
      <cc:Work
         rdf:about="">
        <dc:format>image/svg+xml</dc:format>
        <dc:type
           rdf:resource="http://purl.org/dc/dcmitype/StillImage" />
        <dc:title />
      </cc:Work>
    </rdf:RDF>
  </metadata>
  <defs
     id="defs6">
    <linearGradient
       inkscape:collect="always"
       id="linearGradient4158">
      <stop
         style="stop-color:#aa4400;stop-opacity:1;"
         offset="0"
         id="stop4160" />
      <stop
         id="stop4166"
         offset="0.04895546"
         style="stop-color:#f8f070;stop-opacity:1" />
      <stop
         style="stop-color:#e8cc48;stop-opacity:1"
         offset="0.43427879"
         id="stop4170" />
      <stop
         style="stop-color:#d09c10;stop-opacity:1"
         offset="0.8827228"
         id="stop4168" />
      <stop
         style="stop-color:#aa4400;stop-opacity:0;"
         offset="1"
         id="stop4162" />
    </linearGradient>
    <linearGradient
       inkscape:collect="always"
       xlink:href="#linearGradient4158"
       id="linearGradient4164"
       x1="-12.584104"
       y1="-17.926813"
       x2="474.42072"
       y2="471.59482"
       gradientUnits="userSpaceOnUse" />
  </defs>
  <path
     style="fill:#ffffff"
     d="m 201.74159,328.19908 0.5,-18 8.5,0 8.5,0 0.5,18 0.5,18 8.5,0 8.5,0 0.5,-18 0.5,-18 17.5,-0.61367 c 9.625,-0.33753 18.85414,-1.06254 20.50921,-1.61114 11.09209,-3.67669 24.58435,-14.91162 29.19088,-24.30709 7.13897,-14.56062 6.95124,-32.57724 -0.483,-46.35329 -3.39291,-6.28725 -12.20873,-15.33268 -18.47616,-18.95739 -2.6175,-1.5138 -7.92401,-3.55611 -11.79227,-4.53846 -3.86825,-0.98236 -7.0487,-2.12415 -7.06765,-2.53731 -0.019,-0.41317 2.7825,-3.30042 6.22544,-6.4161 7.53089,-6.81507 12.97181,-14.94236 16.05042,-23.97511 3.4488,-10.11891 3.25071,-25.07734 -0.46648,-35.22492 -7.55965,-20.6371 -25.20327,-33.75644 -48.69039,-36.20489 l -2.5,-0.26062 -0.5,-18.000004 -0.5,-18 -8.5,0 -8.5,0 -0.5,18 -0.5,18.000004 -8.5,0 -8.5,0 -0.5,-18.000004 -0.5,-18 -8.5,0 -8.5,0 -0.5,18 -0.5,18.000004 -36,0.5 -36,0.5 0,8 0,8 17.5,0.5 17.5,0.5 0,82.49999 0,82.5 -17.5,0.5 -17.5,0.5 0,8 0,8 36,0.5 36,0.5 0.25838,17 c 0.1421,9.35 0.47251,17.58081 0.73423,18.2907 0.34851,0.94528 2.6879,1.2129 8.74162,1 l 8.26577,-0.2907 0.5,-18 z"
     id="path2986"
     inkscape:connector-curvature="0" />
  <circle
     style="opacity:1;fill:none;fill-opacity:1;stroke:#ffffff;stroke-width:5.93133831;stroke-linecap:butt;stroke-linejoin:miter;stroke-miterlimit:0;stroke-dasharray:none;stroke-dashoffset:0;stroke-opacity:1"
     id="path3336-4"
     cx="210.78374"
     cy="210.47469"
     r="180.18703" />
  <circle
     style="opacity:1;fill:url(#linearGradient4164);fill-opacity:1;fill-rule:nonzero;stroke:none;stroke-width:9.44200039;stroke-miterlimit:4;stroke-dasharray:none;stroke-opacity:1"
     id="path4156"
     cx="210.15453"
     cy="209.84547"
     r="198.82884" />
  <path
     style="opacity:1;fill:#ffffff;fill-opacity:1;fill-rule:nonzero;stroke:none;stroke-width:9.44200039;stroke-miterlimit:4;stroke-dasharray:none;stroke-opacity:1"
     d="m 181.65831,339.89527 c -0.44466,-4.25428 -0.80847,-12.46541 -0.80847,-18.24695 l 0,-10.51189 -17.93235,-0.005 c -9.86279,-0.003 -26.0019,-0.37376 -35.86469,-0.82495 l -17.93235,-0.81992 0,-7.35471 0,-7.35472 6.09873,0 c 3.3543,0 11.28228,-0.36793 17.61774,-0.81764 l 11.51902,-0.81765 0,-82.07278 0,-82.07279 -4.71904,-0.78001 c -2.59547,-0.42901 -10.52346,-0.78624 -17.61775,-0.79386 l -12.8987,-0.0139 0,-8.17967 0,-8.17966 35.86469,0 35.8647,0 0.007,-5.97745 c 0.004,-3.2876 0.37213,-11.498729 0.81901,-18.246955 l 0.81245,-12.269501 7.98988,0 7.98987,0 0,6.727934 c 0,3.700364 0.36963,11.935393 0.82141,18.300062 l 0.82141,11.57214 8.30206,-0.36772 8.30207,-0.36772 0.34915,-17.932348 0.34915,-17.932348 8.73977,0 8.73978,0 0.34914,17.823522 0.34916,17.823524 8.17967,1.65739 c 11.86934,2.40502 25.21241,9.39109 31.55378,16.52072 2.91037,3.27214 7.05293,9.63019 9.20568,14.129 5.67996,15.38088 6.30675,32.03583 10e-4,45.30278 -2.1942,4.5866 -7.35303,11.90727 -11.74416,16.66561 l -7.83103,8.48592 3.33179,1.26676 c 1.83248,0.6967 4.00278,1.27917 4.82288,1.29437 3.89861,0.0722 13.00376,5.6063 19.64237,11.93845 19.7636,21.70219 18.51341,49.82649 1.37095,67.40563 -12.46533,12.5794 -17.86681,14.67467 -40.56708,15.73621 l -18.52801,0.86644 -0.34814,17.76477 -0.34813,17.76475 -8.17967,0 -8.17966,0 -0.34916,-17.93235 -0.34915,-17.93234 -8.5878,0 -8.58781,0 -0.80818,10.38188 c -0.4445,5.71004 -0.81157,13.92117 -0.81572,18.24695 l -0.008,7.86507 -8.0004,0 -8.0004,0 z m 80.38692,-47.47277 c 11.21584,-5.09498 19.45285,-17.9522 19.45285,-30.36408 0,-8.95214 -4.16042,-17.96184 -11.24261,-24.34668 -8.92842,-8.04929 -10.54715,-8.37199 -41.99555,-8.37199 l -28.17539,0 -0.80847,7.73506 c -1.03906,9.9412 -1.03479,31.47595 0.009,46.18327 l 0.81762,11.51901 28.4404,-0.0277 c 24.81975,-0.0242 29.08477,-0.32036 33.50196,-2.32696 l 0,5e-5 z m -19.46738,-95.435 c 6.81978,-3.03184 14.49717,-10.57535 17.66292,-17.35496 2.87853,-6.1645 3.23185,-21.38428 0.64041,-27.58647 -2.72462,-6.52094 -10.78713,-14.65682 -17.74003,-17.90148 -5.69284,-2.65664 -8.0597,-2.93743 -24.8536,-2.94856 l -18.56155,-0.0123 0,33.88481 c 0,31.18085 0.17573,33.93748 2.20221,34.54488 1.21122,0.36304 9.59358,0.48057 18.62746,0.26117 13.01641,-0.31611 17.5868,-0.91529 22.02218,-2.88709 z"
     id="path4154"
     inkscape:connector-curvature="0"
     sodipodi:nodetypes="ssccccccsscccssccccccscccsscccccccccssccscscccscccccccccsccccscssscsscscccssssscssss" />
  <circle
     style="opacity:1;fill:none;fill-opacity:1;fill-rule:nonzero;stroke:#ffffff;stroke-width:8.77729034;stroke-miterlimit:4;stroke-dasharray:none;stroke-opacity:1"
     id="path4172"
     cx="210.78374"
     cy="209.21626"
     r="178.39742" />
</svg>
