<?xml version="1.0" encoding="UTF-8" standalone="no"?>
<svg
   xmlns:dc="http://purl.org/dc/elements/1.1/"
   xmlns:cc="http://creativecommons.org/ns#"
   xmlns:rdf="http://www.w3.org/1999/02/22-rdf-syntax-ns#"
   xmlns:svg="http://www.w3.org/2000/svg"
   xmlns="http://www.w3.org/2000/svg"
   xmlns:sodipodi="http://sodipodi.sourceforge.net/DTD/sodipodi-0.dtd"
   xmlns:inkscape="http://www.inkscape.org/namespaces/inkscape"
   viewBox="0 0 128 128"
   id="svg2"
   version="1.1"
   inkscape:version="0.91 r"
   sodipodi:docname="braindump.svg"
   width="128"
   height="128">
  <metadata
     id="metadata35">
    <rdf:RDF>
      <cc:Work
         rdf:about="">
        <dc:format>image/svg+xml</dc:format>
        <dc:type
           rdf:resource="http://purl.org/dc/dcmitype/StillImage" />
        <dc:title></dc:title>
      </cc:Work>
    </rdf:RDF>
  </metadata>
  <sodipodi:namedview
     pagecolor="#ffffff"
     bordercolor="#666666"
     borderopacity="1"
     objecttolerance="10"
     gridtolerance="10"
     guidetolerance="10"
     inkscape:pageopacity="0"
     inkscape:pageshadow="2"
     inkscape:window-width="1366"
     inkscape:window-height="744"
     id="namedview33"
     showgrid="false"
     inkscape:zoom="1.7383042"
     inkscape:cx="155.70978"
     inkscape:cy="16.514785"
     inkscape:window-x="0"
     inkscape:window-y="24"
     inkscape:window-maximized="1"
     inkscape:current-layer="svg2" />
  <defs
     id="defs4">
    <linearGradient
       id="0"
       x1="68.690002"
       y1="27.344"
       x2="68.099998"
       y2="-20.219999"
       gradientUnits="userSpaceOnUse">
      <stop
         stop-color="#f2b333"
         id="stop7" />
      <stop
         offset="1"
         stop-color="#fcde3f"
         id="stop9" />
    </linearGradient>
  </defs>
  <g
     style="fill-rule:evenodd"
     id="g13"
     transform="matrix(2.3542792,0,0,2.3542792,-93.99813,56.668351)">
    <rect
       style="fill:url(#0)"
       id="rect15"
       rx="5.882"
       width="46.400002"
       height="48"
       x="44.18"
       y="-20.875" />
    <g
       style="fill:#fcfcfc;fill-opacity:0.85"
       id="g17">
      <circle
         id="circle19"
         cx="49.547001"
         cy="-16.252001"
         r="1.6720001" />
      <circle
         id="circle21"
         cx="53.964001"
         cy="-16.252001"
         r="1.6720001" />
      <circle
         id="circle23"
         cx="58.419998"
         cy="-16.252001"
         r="1.6720001" />
    </g>
  </g>
  <g
     style="fill:#ffffff;fill-opacity:0.85100002"
     id="g25"
     transform="matrix(2.3542792,0,0,2.3542792,-93.99813,56.668351)">
    <path
       inkscape:connector-curvature="0"
       id="path27"
       d="m 71.08,13.16 -7.418,0 c -0.552,0 -1,0.448 -1,1 0,0.552 0.448,1 1,1 l 7.418,0 c 0.552,0 1,-0.448 1,-1 0,-0.552 -0.448,-1 -1,-1" />
    <path
       inkscape:connector-curvature="0"
       id="path29"
       d="m 65.43,19.07 0,0.545 c 0,0.615 0.498,1.113 1.113,1.113 l 1.662,0 c 0.614,0 1.113,-0.498 1.113,-1.113 l 0,-0.545 c 1.26,-0.09 2.257,-1.129 2.257,-2.411 l -8.404,0 c 0,1.282 0.998,2.322 2.258,2.411" />
    <path
       inkscape:connector-curvature="0"
       id="path31"
       d="m 67.38,-9.275 c -5.535,0 -10.02,4.487 -10.02,10.02 0,2.336 0.803,4.48 2.145,6.182 1.187,1.504 2.312,3.149 3.281,4.803 l 9.191,0 c 0.98,-1.669 2.084,-3.283 3.282,-4.804 1.341,-1.701 2.145,-3.846 2.145,-6.181 0,-5.535 -4.487,-10.02 -10.02,-10.02" />
  </g>
</svg>
