<?xml version="1.0" encoding="UTF-8" standalone="no"?>
<!-- Created with Inkscape (http://www.inkscape.org/) -->

<svg
   xmlns:dc="http://purl.org/dc/elements/1.1/"
   xmlns:cc="http://creativecommons.org/ns#"
   xmlns:rdf="http://www.w3.org/1999/02/22-rdf-syntax-ns#"
   xmlns:svg="http://www.w3.org/2000/svg"
   xmlns="http://www.w3.org/2000/svg"
   xmlns:xlink="http://www.w3.org/1999/xlink"
   xmlns:sodipodi="http://sodipodi.sourceforge.net/DTD/sodipodi-0.dtd"
   xmlns:inkscape="http://www.inkscape.org/namespaces/inkscape"
   id="svg2"
   version="1.1"
   inkscape:version="0.91 r"
   width="512"
   height="512"
   sodipodi:docname="ccsm.svg">
  <metadata
     id="metadata8">
    <rdf:RDF>
      <cc:Work
         rdf:about="">
        <dc:format>image/svg+xml</dc:format>
        <dc:type
           rdf:resource="http://purl.org/dc/dcmitype/StillImage" />
        <dc:title />
      </cc:Work>
    </rdf:RDF>
  </metadata>
  <defs
     id="defs6">
    <linearGradient
       inkscape:collect="always"
       id="linearGradient3334">
      <stop
         style="stop-color:#27b6e6;stop-opacity:1;"
         offset="0"
         id="stop3336" />
      <stop
         id="stop3342"
         offset="0.04643128"
         style="stop-color:#80ffe6;stop-opacity:1" />
      <stop
         style="stop-color:#bdcdd4;stop-opacity:1"
         offset="0.19893226"
         id="stop4157" />
      <stop
         style="stop-color:#19aeff;stop-opacity:1"
         offset="0.49709836"
         id="stop4153" />
      <stop
         id="stop4155"
         offset="0.81221163"
         style="stop-color:#005c94;stop-opacity:1" />
      <stop
         style="stop-color:#00aa88;stop-opacity:1"
         offset="0.88267916"
         id="stop3344" />
      <stop
         style="stop-color:#27b6e6;stop-opacity:0;"
         offset="1"
         id="stop3338" />
    </linearGradient>
    <linearGradient
       inkscape:collect="always"
       xlink:href="#linearGradient3334"
       id="linearGradient3340"
       x1="-57.491524"
       y1="-45.559322"
       x2="556.47455"
       y2="551.05084"
       gradientUnits="userSpaceOnUse"
       gradientTransform="matrix(1.022703,0,0,1.022703,-3.4161733,1.2031399)" />
  </defs>
  <sodipodi:namedview
     pagecolor="#ffffff"
     bordercolor="#666666"
     borderopacity="1"
     objecttolerance="10"
     gridtolerance="10"
     guidetolerance="10"
     inkscape:pageopacity="0"
     inkscape:pageshadow="2"
     inkscape:window-width="1260"
     inkscape:window-height="714"
     id="namedview4"
     showgrid="false"
     inkscape:zoom="0.65186406"
     inkscape:cx="646.75224"
     inkscape:cy="258.33578"
     inkscape:window-x="26"
     inkscape:window-y="24"
     inkscape:window-maximized="0"
     inkscape:current-layer="svg2" />
  <ellipse
     style="fill:#ffffff;fill-opacity:1;fill-rule:nonzero;stroke:#ffffff;stroke-width:50.41925812;stroke-linecap:round;stroke-linejoin:miter;stroke-miterlimit:4;stroke-dasharray:none;stroke-opacity:1"
     id="path2996"
     cx="250.63019"
     cy="255.8042"
     rx="124.24975"
     ry="118.14819" />
  <path
     style="opacity:1;fill:#0e8ad0;fill-opacity:1;fill-rule:nonzero;stroke:none;stroke-width:25.99621582;stroke-miterlimit:4;stroke-dasharray:none;stroke-opacity:1"
     d="m 309.44153,399.98562 c 0,-2.00918 -6.41031,-17.25028 -17.28869,-41.1055 -2.88819,-6.33349 -10.55188,-24.03846 -17.03044,-39.34438 -14.94572,-35.31005 -14.66717,-34.89399 -19.27359,-28.78859 -2.99837,3.97408 -35.36113,43.28484 -37.78885,45.9018 -0.40803,0.43981 -0.74187,-36.87379 -0.74187,-82.91913 l 0,-83.71881 19.67219,14.86151 c 10.8197,8.17383 33.92254,25.5826 51.33962,38.68614 17.41709,13.10354 38.98038,29.47912 47.91842,36.39017 l 16.25099,12.56556 -34.87041,0.95964 -34.87041,0.95961 12.08439,18.23276 c 39.01572,58.86638 68.79022,104.50518 69.66385,106.78183 0.81863,2.13329 -4.15857,2.61475 -27.03091,2.61475 -18.8326,0 -28.03429,-0.68186 -28.03429,-2.07736 z"
     id="path3351"
     inkscape:connector-curvature="0" />
  <path
     inkscape:connector-curvature="0"
     id="path2984"
     d="m 221.23697,497.54269 c -5.7455,-4.84108 -5.96803,-6.25788 -5.96803,-37.9965 l 0,-29.15452 -7.4146,-2.14988 c -15.17952,-4.40133 -20.34508,-6.38578 -33.37142,-12.8202 -7.34137,-3.62631 -13.67359,-6.5933 -14.07161,-6.5933 -0.398,0 -10.22831,9.43444 -21.8451,20.96541 -22.16854,22.00478 -21.73087,21.69968 -30.16974,21.0306 -4.99366,-0.39593 -8.29406,-3.09505 -27.193843,-22.23951 -26.873383,-27.22133 -26.93182,-25.77114 2.217936,-55.04889 11.205563,-11.25476 20.373747,-20.77959 20.373747,-21.1663 0,-0.3867 -1.65033,-3.51894 -3.66738,-6.96054 -5.522066,-9.42195 -12.481315,-25.72555 -15.444228,-36.18152 -1.452106,-5.12442 -3.094884,-9.89239 -3.65061,-10.5955 -0.76443,-0.96717 -7.851138,-1.27838 -29.110628,-1.27838 -31.109255,0 -32.958885,-0.32254 -37.378138,-6.51798 -2.233502,-3.1312 -2.280935,-3.81447 -2.280935,-32.85608 0,-33.3763 0.0092,-33.42025 7.785746,-37.38758 3.575083,-1.82387 6.189286,-1.98649 31.933697,-1.98649 21.198967,0 28.291954,-0.31188 29.073187,-1.27838 0.568336,-0.70311 2.023816,-4.91754 3.2344,-9.36542 2.67893,-9.8428 10.019473,-27.27102 15.476964,-36.74605 2.215355,-3.8462 4.027925,-7.29371 4.027925,-7.66114 0,-0.36743 -9.168184,-9.87649 -20.373747,-21.13125 -24.158178,-24.26425 -25.010897,-25.9027 -19.197168,-36.88619 2.182213,-4.12271 35.20771,-36.674913 39.264455,-38.701754 1.80015,-0.899395 5.67688,-1.635262 8.61496,-1.635262 l 5.34196,0 21.12144,20.965412 c 11.61679,11.530972 21.47671,20.965404 21.91093,20.965404 0.43422,0 7.30236,-3.20834 15.26253,-7.12965 9.25515,-4.559235 18.89756,-8.394217 26.74548,-10.637214 l 12.27244,-3.507561 0.51135,-30.015229 c 0.4373,-25.668387 0.76298,-30.474589 2.24881,-33.187142 3.56845,-6.514578 3.73514,-6.543765 37.37306,-6.543765 33.56891,0 32.89962,-0.117804 36.99696,6.511846 2.02658,3.279073 2.12929,4.848292 2.12929,32.531789 0,21.762621 0.3219,29.475934 1.27838,30.633029 0.70311,0.850575 4.96011,2.64531 9.46,3.988298 11.10098,3.313076 20.49774,7.209274 32.03226,13.281589 5.32471,2.8032 10.18639,5.09671 10.80371,5.09671 0.61733,0 10.64867,-9.518142 22.29187,-21.151438 l 21.16945,-21.151449 6.13955,-0.444094 c 4.94109,-0.357406 6.79953,-0.03325 9.52056,1.660625 1.85956,1.157595 11.5081,10.30032 21.44119,20.317164 27.11809,27.346712 27.199,25.680832 -2.6972,55.531742 -12.48675,12.46783 -20.98784,21.73791 -20.98784,22.88633 0,1.06165 1.39463,4.36782 3.09916,7.34706 4.88726,8.54202 11.62684,24.71417 14.25511,34.20626 1.32386,4.78113 2.84936,9.26824 3.38998,9.97135 0.74738,0.972 8.26993,1.27838 31.38759,1.27838 29.87782,0 30.46484,0.0401 33.87966,2.31458 1.91126,1.27301 4.39545,4.14936 5.52043,6.3919 1.88841,3.76436 2.0454,6.11821 2.0454,30.66759 0,24.54937 -0.15699,26.90322 -2.0454,30.66759 -1.12498,2.24253 -3.60917,5.11888 -5.52043,6.39189 -3.41102,2.27195 -4.02439,2.31458 -33.29806,2.31458 -22.32178,0 -30.2262,0.32155 -31.42589,1.27838 -0.88157,0.70311 -2.59238,5.03622 -3.80178,9.62915 -2.32227,8.81919 -9.3999,25.86811 -14.46458,34.84294 -1.66165,2.94453 -3.02119,6.1523 -3.02119,7.12838 0,0.97609 9.61675,11.45298 21.37055,23.28199 29.78871,29.97931 29.78939,28.0222 -0.0198,57.44109 -20.29123,20.02551 -22.28361,21.31606 -30.56924,19.80093 -3.91902,-0.71665 -6.4089,-2.85734 -25.44041,-21.87267 -11.60293,-11.59304 -21.47858,-21.07826 -21.94591,-21.07826 -0.46732,0 -7.82677,3.42187 -16.35433,7.60416 -8.52755,4.1823 -19.87669,8.85875 -25.22031,10.39213 -5.34363,1.53337 -10.29095,3.49195 -10.99406,4.35238 -0.95606,1.17 -1.27838,8.89791 -1.27838,30.65097 0,27.6835 -0.10271,29.25271 -2.12929,32.53178 -4.10002,6.63399 -3.40437,6.51236 -37.21666,6.50677 -30.33187,-0.005 -30.74268,-0.0332 -33.43414,-2.30109 z m 53.05297,-124.00238 c 8.14866,-1.54577 19.49101,-5.31557 29.95415,-9.95568 20.49326,-9.0882 45.33929,-33.69105 54.38537,-53.85308 9.90756,-22.08207 11.60448,-29.94823 11.49507,-53.28601 -0.0743,-15.85949 -0.38497,-19.02123 -2.72809,-27.76838 -5.61737,-20.97036 -18.31514,-42.26529 -33.8562,-56.77894 -15.13159,-14.13123 -35.54538,-24.96383 -54.86372,-29.1135 -15.08049,-3.23936 -36.0676,-3.23796 -51.13515,0.003 -27.16629,5.84408 -54.9522,24.55468 -71.30251,48.014 -6.90977,9.9141 -14.98034,28.04595 -17.83794,40.07584 -3.33683,14.04737 -3.32224,40.2984 0.03,53.8769 2.86508,11.60544 10.05496,28.16217 16.35196,37.65502 10.42362,15.71383 31.66682,34.30254 46.93569,41.07076 10.00845,4.43642 22.07276,8.52901 29.47626,9.99925 9.76862,1.93994 33.01533,1.97252 43.09516,0.0605 z"
     style="fill:url(#linearGradient3340);fill-opacity:1" />
</svg>
