<?xml version="1.0" encoding="UTF-8" standalone="no"?>
<!-- Created with Inkscape (http://www.inkscape.org/) -->

<svg
   xmlns:dc="http://purl.org/dc/elements/1.1/"
   xmlns:cc="http://creativecommons.org/ns#"
   xmlns:rdf="http://www.w3.org/1999/02/22-rdf-syntax-ns#"
   xmlns:svg="http://www.w3.org/2000/svg"
   xmlns="http://www.w3.org/2000/svg"
   xmlns:xlink="http://www.w3.org/1999/xlink"
   xmlns:sodipodi="http://sodipodi.sourceforge.net/DTD/sodipodi-0.dtd"
   xmlns:inkscape="http://www.inkscape.org/namespaces/inkscape"
   id="svg2"
   version="1.1"
   inkscape:version="0.91 r"
   width="1024"
   height="1024"
   sodipodi:docname="checkbox.svg">
  <metadata
     id="metadata8">
    <rdf:RDF>
      <cc:Work
         rdf:about="">
        <dc:format>image/svg+xml</dc:format>
        <dc:type
           rdf:resource="http://purl.org/dc/dcmitype/StillImage" />
        <dc:title />
      </cc:Work>
    </rdf:RDF>
  </metadata>
  <defs
     id="defs6">
    <linearGradient
       inkscape:collect="always"
       xlink:href="#0-3"
       id="linearGradient3344"
       x1="56.07143"
       y1="37.026001"
       x2="976.7179"
       y2="982.10059"
       gradientUnits="userSpaceOnUse"
       gradientTransform="matrix(0.9633105,0,0,0.9633105,23.435715,14.534872)" />
    <linearGradient
       id="linearGradient6"
       gradientUnits="userSpaceOnUse"
       y2="517.79999"
       x2="0"
       y1="545.79999">
      <stop
         id="stop8"
         stop-color="#3889e9" />
      <stop
         id="stop10"
         stop-color="#5ea5fb"
         offset="1" />
    </linearGradient>
    <linearGradient
       y2="518.14001"
       x2="0"
       y1="545.14001"
       gradientUnits="userSpaceOnUse"
       id="0">
      <stop
         offset="0"
         stop-color="#9be058"
         id="stop15"
         style="stop-color:#a5e369;stop-opacity:1" />
      <stop
         stop-color="#5dae33"
         id="stop13"
         offset="1"
         style="stop-color:#3b6e20;stop-opacity:1" />
    </linearGradient>
    <clipPath
       id="clipPath-717834183">
      <g
         transform="translate(0,-1004.3622)"
         id="g17">
        <path
           d="m -24 13 c 0 1.105 -0.672 2 -1.5 2 -0.828 0 -1.5 -0.895 -1.5 -2 0 -1.105 0.672 -2 1.5 -2 0.828 0 1.5 0.895 1.5 2 z"
           transform="matrix(15.333333,0,0,11.5,414.99999,878.8622)"
           fill="#1890d0"
           id="path19" />
      </g>
    </clipPath>
    <clipPath
       id="clipPath-699552035">
      <g
         transform="translate(0,-1004.3622)"
         id="g12">
        <path
           d="m -24 13 c 0 1.105 -0.672 2 -1.5 2 -0.828 0 -1.5 -0.895 -1.5 -2 0 -1.105 0.672 -2 1.5 -2 0.828 0 1.5 0.895 1.5 2 z"
           transform="matrix(15.333333,0,0,11.5,414.99999,878.8622)"
           fill="#1890d0"
           id="path14" />
      </g>
    </clipPath>
    <linearGradient
       id="linearGradient3764"
       y1="47"
       x2="0"
       y2="1"
       gradientUnits="userSpaceOnUse">
      <stop
         stop-color="#3fc58b"
         stop-opacity="1"
         id="stop7" />
      <stop
         offset="1"
         stop-color="#4eca95"
         stop-opacity="1"
         id="stop9" />
    </linearGradient>
    <clipPath
       id="clipPath4153"
       clipPathUnits="userSpaceOnUse">
      <path
         d="M 496.81354,255.45761 A 240.27118,240.27118 0 0 1 256.54545,495.72879 240.27118,240.27118 0 0 1 16.271179,255.4638 240.27118,240.27118 0 0 1 256.53308,15.186432 240.27118,240.27118 0 0 1 496.81354,255.44524"
         sodipodi:open="true"
         sodipodi:end="6.2831338"
         sodipodi:start="0"
         sodipodi:ry="240.27118"
         sodipodi:rx="240.27118"
         sodipodi:cy="255.45761"
         sodipodi:cx="256.54236"
         sodipodi:type="arc"
         id="path4155"
         style="opacity:1;fill:none;fill-opacity:1;stroke:#000000;stroke-width:11.60000038;stroke-miterlimit:4;stroke-dasharray:none;stroke-dashoffset:0;stroke-opacity:1" />
    </clipPath>
    <clipPath
       id="clipPath4164"
       clipPathUnits="userSpaceOnUse">
      <circle
         r="240.42513"
         cy="255.43602"
         cx="255.17685"
         id="circle4166"
         style="opacity:1;fill:none;fill-opacity:1;stroke:#000000;stroke-width:0.98726904;stroke-miterlimit:4;stroke-dasharray:none;stroke-dashoffset:0;stroke-opacity:1" />
    </clipPath>
    <clipPath
       id="clipPath3357"
       clipPathUnits="userSpaceOnUse">
      <circle
         r="233.76271"
         cy="254.37288"
         cx="255.45761"
         id="circle3359"
         style="opacity:1;fill:#808080;fill-opacity:1;stroke:none;stroke-width:0.89999998;stroke-miterlimit:4;stroke-dasharray:none;stroke-dashoffset:0;stroke-opacity:1" />
    </clipPath>
    <linearGradient
       id="0-3"
       x1="411.60001"
       y1="562.54999"
       x2="412.13"
       y2="524.27002"
       gradientUnits="userSpaceOnUse">
      <stop
         id="stop9-9"
         stop-color="#65ff5d"
         offset="0" />
      <stop
         id="stop7-2"
         stop-color="#11aa43"
         offset="1" />
    </linearGradient>
    <linearGradient
       id="1"
       x1="429.04999"
       y1="563.25"
       x2="429.51001"
       y2="550.78003"
       gradientUnits="userSpaceOnUse">
      <stop
         stop-color="#276ad6"
         id="stop12" />
      <stop
         offset="1"
         stop-color="#41aaff"
         id="stop14" />
    </linearGradient>
    <linearGradient
       id="2"
       x1="413.17001"
       y1="539.22998"
       x2="412.85999"
       y2="530.62"
       gradientUnits="userSpaceOnUse">
      <stop
         stop-color="#ffcc06"
         id="stop17" />
      <stop
         offset="1"
         stop-color="#fff834"
         id="stop19" />
    </linearGradient>
  </defs>
  <sodipodi:namedview
     pagecolor="#ffffff"
     bordercolor="#666666"
     borderopacity="1"
     objecttolerance="10"
     gridtolerance="10"
     guidetolerance="10"
     inkscape:pageopacity="0"
     inkscape:pageshadow="2"
     inkscape:window-width="1366"
     inkscape:window-height="744"
     id="namedview4"
     showgrid="false"
     inkscape:zoom="0.32593203"
     inkscape:cx="448.69528"
     inkscape:cy="414.26312"
     inkscape:window-x="0"
     inkscape:window-y="24"
     inkscape:window-maximized="1"
     inkscape:current-layer="svg2" />
  <rect
     style="fill:url(#linearGradient3344);fill-opacity:1.0;fill-rule:evenodd;stroke:none"
     id="rect2982"
     width="886.11505"
     height="882.03156"
     x="74.866661"
     y="73.935226"
     ry="113.02032" />
  <g
     id="g2986"
     transform="matrix(0.9633105,0,0,0.9633105,2.2428845,14.534872)">
    <path
       id="path3304"
       d="m 510.32191,174.49036 c -92.5013,0.01 -184.39103,38.1026 -249.75113,103.5071 -65.3597,65.404 -103.4148,157.3094 -103.4148,249.797 0,92.4872 38.0551,184.3926 103.4148,249.797 65.3601,65.4041 157.24983,103.5012 249.75113,103.5067 92.5013,0.01 184.4456,-38.0563 249.8889,-103.4608 65.4433,-65.4048 103.5531,-157.3455 103.5531,-249.8429 l -94.2145,0 c 0,67.8313 -27.9593,135.2668 -75.951,183.2302 -47.9916,47.9634 -115.4421,75.8634 -183.2765,75.8591 -67.8344,0 -135.2079,-27.9416 -183.13833,-75.905 -47.9308,-47.963 -75.8132,-115.3605 -75.8132,-183.1843 0,-67.8242 27.8824,-135.2213 75.8132,-183.1847 47.93043,-47.963 115.30393,-75.9011 183.13833,-75.905 0.039,0 0.079,0 0.1571,0 l 0,-94.2144 c -0.039,0 -0.079,0 -0.1571,0 z"
       style="fill:#ecf0f1;fill-opacity:1;fill-rule:evenodd;stroke:none"
       inkscape:connector-curvature="0" />
    <g
       transform="translate(16,-2)"
       id="g2988">
      <rect
         style="fill:#ecf0f1;fill-opacity:1;fill-rule:evenodd;stroke:none"
         id="rect3284"
         width="94.214409"
         height="205.57584"
         x="-89.285309"
         y="607.58337"
         transform="matrix(0.70710678,-0.70710678,0.70710678,0.70710678,0,0)" />
      <path
         inkscape:connector-curvature="0"
         style="fill:#ecf0f1;fill-opacity:1;fill-rule:evenodd;stroke:none"
         d="m 849.06083,174.4905 -400.4109,400.4113 66.6123,66.6124 400.411,-400.4114 -66.6124,-66.6123 z"
         id="path4149" />
    </g>
  </g>
</svg>
