<?xml version="1.0" encoding="UTF-8" standalone="no"?>
<svg
   xmlns:dc="http://purl.org/dc/elements/1.1/"
   xmlns:cc="http://creativecommons.org/ns#"
   xmlns:rdf="http://www.w3.org/1999/02/22-rdf-syntax-ns#"
   xmlns:svg="http://www.w3.org/2000/svg"
   xmlns="http://www.w3.org/2000/svg"
   xmlns:xlink="http://www.w3.org/1999/xlink"
   xmlns:sodipodi="http://sodipodi.sourceforge.net/DTD/sodipodi-0.dtd"
   xmlns:inkscape="http://www.inkscape.org/namespaces/inkscape"
   viewBox="0 0 128 128"
   id="svg2"
   version="1.1"
   inkscape:version="0.91 r"
   sodipodi:docname="chess.svg"
   width="128"
   height="128">
  <metadata
     id="metadata32">
    <rdf:RDF>
      <cc:Work
         rdf:about="">
        <dc:format>image/svg+xml</dc:format>
        <dc:type
           rdf:resource="http://purl.org/dc/dcmitype/StillImage" />
        <dc:title />
      </cc:Work>
    </rdf:RDF>
  </metadata>
  <sodipodi:namedview
     pagecolor="#ffffff"
     bordercolor="#666666"
     borderopacity="1"
     objecttolerance="10"
     gridtolerance="10"
     guidetolerance="10"
     inkscape:pageopacity="0"
     inkscape:pageshadow="2"
     inkscape:window-width="1366"
     inkscape:window-height="744"
     id="namedview30"
     showgrid="false"
     inkscape:zoom="3.4766083"
     inkscape:cx="88.499074"
     inkscape:cy="61.813574"
     inkscape:window-x="0"
     inkscape:window-y="24"
     inkscape:window-maximized="1"
     inkscape:current-layer="svg2" />
  <defs
     id="defs4">
    <linearGradient
       xlink:href="#1"
       id="4"
       x1="-61.630001"
       y1="71.709999"
       x2="-60.806999"
       y2="47.310001"
       gradientUnits="userSpaceOnUse" />
    <linearGradient
       xlink:href="#3"
       id="5"
       x1="-62.130001"
       y1="47.27"
       x2="-62.529999"
       y2="24.287001"
       gradientUnits="userSpaceOnUse" />
    <linearGradient
       id="3"
       gradientUnits="userSpaceOnUse"
       x1="26.403999"
       y1="0.69999999"
       x2="26.73"
       y2="-47.814999">
      <stop
         stop-color="#2f3f47"
         id="stop9" />
      <stop
         offset="1"
         stop-color="#425963"
         id="stop11" />
    </linearGradient>
    <linearGradient
       gradientTransform="matrix(0.43368,-3.1e-4,3.3e-4,0.41341,31.937,-92.88)"
       id="1"
       gradientUnits="userSpaceOnUse"
       x1="22.642"
       y1="221.25"
       x2="24.302999"
       y2="154.71001">
      <stop
         stop-color="#0a80fd"
         id="stop14" />
      <stop
         offset="1"
         stop-color="#56c5fa"
         id="stop16" />
    </linearGradient>
    <linearGradient
       y2="154.71001"
       x2="24.302999"
       y1="221.25"
       x1="22.642"
       gradientTransform="matrix(0.43368,-3.1e-4,3.3e-4,0.41341,-61.08,-37.801)"
       gradientUnits="userSpaceOnUse"
       id="0"
       xlink:href="#1" />
    <linearGradient
       xlink:href="#3"
       id="2"
       x1="-38.34"
       y1="71.510002"
       x2="-38.438"
       y2="47.917"
       gradientUnits="userSpaceOnUse" />
    <linearGradient
       id="linearGradient3346"
       inkscape:collect="always">
      <stop
         id="stop3348"
         offset="0"
         style="stop-color:#d8b028;stop-opacity:1;" />
      <stop
         style="stop-color:#fce94f;stop-opacity:1"
         offset="0.08798715"
         id="stop3399" />
      <stop
         style="stop-color:#f8ec70;stop-opacity:1"
         offset="0.11914246"
         id="stop3354" />
      <stop
         id="stop3401"
         offset="0.91422564"
         style="stop-color:#c4a000;stop-opacity:1" />
      <stop
         id="stop3356"
         offset="0.95033759"
         style="stop-color:#ac7000;stop-opacity:1" />
      <stop
         id="stop3350"
         offset="1"
         style="stop-color:#d8b028;stop-opacity:0;" />
    </linearGradient>
    <linearGradient
       gradientTransform="matrix(0,-1,1,0,-1.5e-6,47.999998)"
       gradientUnits="userSpaceOnUse"
       x2="47"
       x1="1"
       id="linearGradient3764">
      <stop
         id="stop7"
         stop-opacity="1"
         stop-color="#3d3d3d" />
      <stop
         id="stop9-4"
         stop-opacity="1"
         stop-color="#474747"
         offset="1" />
    </linearGradient>
    <clipPath
       id="clipPath-500255282">
      <g
         id="g12"
         transform="translate(0,-1004.3622)">
        <path
           style="fill:#1890d0"
           inkscape:connector-curvature="0"
           id="path14"
           transform="matrix(15.333333,0,0,11.5,414.99999,878.8622)"
           d="m -24,13 c 0,1.105 -0.672,2 -1.5,2 -0.828,0 -1.5,-0.895 -1.5,-2 0,-1.105 0.672,-2 1.5,-2 0.828,0 1.5,0.895 1.5,2 z" />
      </g>
    </clipPath>
    <clipPath
       id="clipPath-511573401">
      <g
         id="g17"
         transform="translate(0,-1004.3622)">
        <path
           style="fill:#1890d0"
           inkscape:connector-curvature="0"
           id="path19"
           transform="matrix(15.333333,0,0,11.5,414.99999,878.8622)"
           d="m -24,13 c 0,1.105 -0.672,2 -1.5,2 -0.828,0 -1.5,-0.895 -1.5,-2 0,-1.105 0.672,-2 1.5,-2 0.828,0 1.5,0.895 1.5,2 z" />
      </g>
    </clipPath>
    <linearGradient
       gradientUnits="userSpaceOnUse"
       y2="37.372471"
       x2="38.660969"
       y1="7.9591861"
       x1="7.1214218"
       id="linearGradient3352"
       xlink:href="#linearGradient3346"
       inkscape:collect="always" />
    <linearGradient
       inkscape:collect="always"
       xlink:href="#linearGradient3346"
       id="linearGradient3393"
       gradientUnits="userSpaceOnUse"
       x1="7.1214218"
       y1="7.9591861"
       x2="38.660969"
       y2="37.372471" />
    <linearGradient
       inkscape:collect="always"
       xlink:href="#linearGradient3346"
       id="linearGradient3395"
       gradientUnits="userSpaceOnUse"
       x1="7.1214218"
       y1="7.9591861"
       x2="38.660969"
       y2="37.372471" />
    <linearGradient
       inkscape:collect="always"
       xlink:href="#linearGradient3346"
       id="linearGradient3397"
       gradientUnits="userSpaceOnUse"
       x1="7.1214218"
       y1="7.9591861"
       x2="38.660969"
       y2="37.372471" />
  </defs>
  <g
     transform="matrix(2.4021492,0,0,2.4021492,185.34802,-51.627578)"
     id="g20">
    <path
       d="m -71.24,24.309 20.712,0 0,23.96 -24.01,0 0,-20.87 c 0,-3.317 3.12,-3.09 3.295,-3.09"
       id="path22"
       inkscape:connector-curvature="0"
       style="fill:url(#5)" />
    <path
       d="m -71.35,72.1 20.712,0 0,-23.96 -24.01,0 0,20.87 c 0,3.317 3.12,3.09 3.295,3.09"
       id="path24"
       inkscape:connector-curvature="0"
       style="fill:url(#4)" />
    <path
       d="m -29.989,24.309 -20.712,0 0,23.96 24.01,0 0,-20.87 c 0,-3.317 -3.12,-3.09 -3.295,-3.09"
       id="path26"
       inkscape:connector-curvature="0"
       style="fill:url(#0)" />
    <path
       d="m -29.949,72.1 -20.802,0 0,-23.96 24.11,0 0,20.87 c 0,3.317 -3.134,3.09 -3.309,3.09"
       id="path28"
       inkscape:connector-curvature="0"
       style="fill:url(#2)" />
  </g>
  <g
     id="g3386"
     transform="matrix(0.41908345,0,0,0.41908345,65.801933,66.336279)">
    <g
       transform="translate(0,80)"
       id="g33" />
    <g
       transform="matrix(4.5914917,0,0,4.5914917,-46.528457,-47.256402)"
       style="fill:url(#linearGradient3352);fill-opacity:1"
       id="g47">
      <g
         style="fill:url(#linearGradient3397);fill-opacity:1"
         id="g49"
         clip-path="url(#clipPath-511573401)">
        <!-- color: #474747 -->
        <g
           style="fill:url(#linearGradient3395);fill-opacity:1"
           id="g51">
          <path
             inkscape:connector-curvature="0"
             style="fill:url(#linearGradient3393);fill-opacity:1;fill-rule:nonzero;stroke:none"
             id="path53"
             d="m 20.1,35.973 c -1.137,-0.078 -2.191,-0.297 -3.039,-0.625 -0.516,-0.199 -1.152,-0.523 -1.211,-0.613 -0.016,-0.027 0.203,-0.582 0.492,-1.234 0.289,-0.652 0.52,-1.215 0.52,-1.25 0,-0.066 -0.871,-2.047 -1.043,-2.371 -0.055,-0.109 -0.551,-0.727 -1.09,-1.379 L 13.741,27.317 13.678,26.794 C 13.643,26.509 13.373,24.392 13.084,22.091 L 12.553,17.907 12.24,17.868 c -0.902,-0.113 -1.441,-0.902 -1.168,-1.715 0.113,-0.344 0.293,-0.555 0.621,-0.746 0.219,-0.125 0.316,-0.148 0.668,-0.148 0.352,0 0.449,0.02 0.664,0.148 0.332,0.191 0.512,0.402 0.625,0.746 0.199,0.59 -0.063,1.25 -0.609,1.551 -0.063,0.035 0.344,0.898 2.01,4.281 1.152,2.328 2.098,4.238 2.102,4.246 0.012,0.016 0.59,-10.145 0.586,-10.309 -0.004,-0.117 -0.035,-0.148 -0.238,-0.199 -0.328,-0.082 -0.664,-0.336 -0.844,-0.641 -0.133,-0.227 -0.156,-0.316 -0.156,-0.672 0,-0.359 0.023,-0.438 0.168,-0.676 0.551,-0.883 1.805,-0.883 2.355,0 0.148,0.234 0.168,0.313 0.168,0.68 0,0.363 -0.02,0.441 -0.168,0.68 -0.098,0.16 -0.277,0.336 -0.441,0.445 l -0.277,0.184 1.73,4.938 c 0.953,2.719 1.746,4.941 1.762,4.941 0.02,0 1.82,-10.08 1.941,-10.875 0.004,-0.023 -0.082,-0.074 -0.199,-0.117 -0.301,-0.105 -0.566,-0.328 -0.738,-0.613 -0.133,-0.215 -0.152,-0.316 -0.152,-0.664 0,-0.359 0.02,-0.438 0.168,-0.676 0.551,-0.883 1.805,-0.883 2.355,0 0.145,0.234 0.164,0.316 0.164,0.676 0,0.352 -0.02,0.449 -0.152,0.664 -0.172,0.285 -0.434,0.508 -0.738,0.613 -0.113,0.039 -0.203,0.094 -0.199,0.117 0.125,0.797 1.926,10.875 1.941,10.875 0.016,0 0.809,-2.223 1.762,-4.941 l 1.73,-4.938 -0.273,-0.184 c -0.168,-0.105 -0.344,-0.285 -0.445,-0.445 -0.145,-0.234 -0.164,-0.316 -0.164,-0.68 0,-0.363 0.016,-0.441 0.164,-0.68 0.555,-0.883 1.809,-0.883 2.359,0 0.145,0.234 0.164,0.316 0.164,0.676 0,0.352 -0.02,0.445 -0.156,0.672 -0.184,0.305 -0.516,0.559 -0.844,0.641 -0.199,0.047 -0.234,0.078 -0.234,0.199 -0.004,0.164 0.574,10.324 0.582,10.309 0.004,-0.008 0.949,-1.918 2.102,-4.246 1.672,-3.387 2.078,-4.25 2.01,-4.281 -0.547,-0.301 -0.805,-0.961 -0.609,-1.551 0.117,-0.344 0.297,-0.555 0.625,-0.746 0.215,-0.125 0.316,-0.148 0.668,-0.148 0.348,0 0.449,0.02 0.664,0.148 0.328,0.191 0.512,0.402 0.625,0.746 0.273,0.813 -0.266,1.602 -1.172,1.715 l -0.309,0.039 -0.531,4.184 c -0.297,2.301 -0.563,4.418 -0.598,4.703 l -0.063,0.523 -0.984,1.184 c -0.543,0.648 -1.031,1.266 -1.094,1.379 -0.172,0.32 -1.039,2.301 -1.039,2.371 0,0.035 0.23,0.598 0.523,1.25 0.285,0.652 0.508,1.207 0.492,1.234 -0.129,0.203 -1.445,0.746 -2.297,0.945 -1.23,0.293 -1.473,0.305 -5.469,0.32 -2.039,0.008 -3.969,-0.008 -4.289,-0.027 m 0,0" />
        </g>
      </g>
    </g>
  </g>
</svg>
