<?xml version="1.0" encoding="UTF-8" standalone="no"?>
<svg
   xmlns:dc="http://purl.org/dc/elements/1.1/"
   xmlns:cc="http://creativecommons.org/ns#"
   xmlns:rdf="http://www.w3.org/1999/02/22-rdf-syntax-ns#"
   xmlns:svg="http://www.w3.org/2000/svg"
   xmlns="http://www.w3.org/2000/svg"
   xmlns:xlink="http://www.w3.org/1999/xlink"
   xmlns:sodipodi="http://sodipodi.sourceforge.net/DTD/sodipodi-0.dtd"
   xmlns:inkscape="http://www.inkscape.org/namespaces/inkscape"
   enable-background="new 0 0 128 128"
   height="128px"
   id="Layer_1"
   version="1.1"
   viewBox="0 0 128 128"
   width="128px"
   xml:space="preserve"
   inkscape:version="0.91 r"
   sodipodi:docname="1463099980_stealth-fighter-jet.svg"><metadata
     id="metadata23"><rdf:RDF><cc:Work
         rdf:about=""><dc:format>image/svg+xml</dc:format><dc:type
           rdf:resource="http://purl.org/dc/dcmitype/StillImage" /></cc:Work></rdf:RDF></metadata><defs
     id="defs21"><linearGradient
       inkscape:collect="always"
       id="linearGradient3384"><stop
         style="stop-color:#828282;stop-opacity:1;"
         offset="0"
         id="stop3386" /><stop
         id="stop3392"
         offset="0.15689854"
         style="stop-color:#b3b3b3;stop-opacity:1" /><stop
         style="stop-color:#333333;stop-opacity:1"
         offset="0.88720214"
         id="stop3394" /><stop
         style="stop-color:#828282;stop-opacity:0;"
         offset="1"
         id="stop3388" /></linearGradient><linearGradient
       inkscape:collect="always"
       id="linearGradient3372"><stop
         style="stop-color:#828282;stop-opacity:1;"
         offset="0"
         id="stop3374" /><stop
         id="stop3380"
         offset="0.37299585"
         style="stop-color:#e6e6e6;stop-opacity:1" /><stop
         style="stop-color:#4d4d4d;stop-opacity:1"
         offset="0.8535381"
         id="stop3382" /><stop
         style="stop-color:#828282;stop-opacity:0;"
         offset="1"
         id="stop3376" /></linearGradient><linearGradient
       inkscape:collect="always"
       id="linearGradient3360"><stop
         style="stop-color:#545454;stop-opacity:1;"
         offset="0"
         id="stop3362" /><stop
         id="stop3368"
         offset="0.1089421"
         style="stop-color:#808080;stop-opacity:1" /><stop
         style="stop-color:#1a1a1a;stop-opacity:1"
         offset="0.9119665"
         id="stop3370" /><stop
         style="stop-color:#545454;stop-opacity:0;"
         offset="1"
         id="stop3364" /></linearGradient><linearGradient
       inkscape:collect="always"
       id="linearGradient3347"><stop
         style="stop-color:#686868;stop-opacity:1;"
         offset="0"
         id="stop3349" /><stop
         id="stop3356"
         offset="0.07737991"
         style="stop-color:#999999;stop-opacity:1" /><stop
         style="stop-color:#1a1a1a;stop-opacity:1"
         offset="0.94995636"
         id="stop3358" /><stop
         style="stop-color:#686868;stop-opacity:0;"
         offset="1"
         id="stop3351" /></linearGradient><linearGradient
       inkscape:collect="always"
       id="linearGradient3351"><stop
         style="stop-color:#29d682;stop-opacity:1;"
         offset="0"
         id="stop3353" /><stop
         id="stop3359"
         offset="0.04571801"
         style="stop-color:#aaffaa;stop-opacity:1" /><stop
         style="stop-color:#00d400;stop-opacity:1"
         offset="0.47613809"
         id="stop3363" /><stop
         style="stop-color:#005500;stop-opacity:1"
         offset="0.95783746"
         id="stop3361" /><stop
         style="stop-color:#29d682;stop-opacity:0;"
         offset="1"
         id="stop3355" /></linearGradient><linearGradient
       inkscape:collect="always"
       xlink:href="#linearGradient3351"
       id="linearGradient3357"
       x1="-10.305085"
       y1="-12.474576"
       x2="136.67796"
       y2="136.67796"
       gradientUnits="userSpaceOnUse" /><linearGradient
       inkscape:collect="always"
       xlink:href="#linearGradient3347"
       id="linearGradient3353"
       x1="17.268198"
       y1="41.215137"
       x2="49.288342"
       y2="98.332153"
       gradientUnits="userSpaceOnUse" /><linearGradient
       inkscape:collect="always"
       xlink:href="#linearGradient3360"
       id="linearGradient3366"
       x1="112.24687"
       y1="38.835262"
       x2="77.846848"
       y2="100.27933"
       gradientUnits="userSpaceOnUse" /><linearGradient
       inkscape:collect="always"
       xlink:href="#linearGradient3372"
       id="linearGradient3378"
       x1="64.433006"
       y1="11.791221"
       x2="65.082062"
       y2="106.33719"
       gradientUnits="userSpaceOnUse" /><linearGradient
       inkscape:collect="always"
       xlink:href="#linearGradient3384"
       id="linearGradient3390"
       x1="63.351246"
       y1="11.574868"
       x2="64.216652"
       y2="55.710743"
       gradientUnits="userSpaceOnUse" /></defs><sodipodi:namedview
     pagecolor="#ffffff"
     bordercolor="#666666"
     borderopacity="1"
     objecttolerance="10"
     gridtolerance="10"
     guidetolerance="10"
     inkscape:pageopacity="0"
     inkscape:pageshadow="2"
     inkscape:window-width="1306"
     inkscape:window-height="714"
     id="namedview19"
     showgrid="false"
     inkscape:zoom="3.6875"
     inkscape:cx="27.48095"
     inkscape:cy="53.778384"
     inkscape:window-x="10"
     inkscape:window-y="24"
     inkscape:window-maximized="0"
     inkscape:current-layer="Layer_1" /><path
     d="M 125.28813,64 C 125.28813,97.852116 97.852118,125.28814 64,125.28814 30.147881,125.28814 2.7118644,97.852116 2.7118644,64 c 0,-32.779576 25.7314406,-59.5452542 58.0992366,-61.2115254 1.05339,-0.047881 2.116356,-0.07661 3.188899,-0.07661 0.919322,0 1.829067,0.019153 2.737856,0.057458 C 99.317288,4.2057633 125.28813,31.067204 125.28813,64 Z"
     id="path3"
     inkscape:connector-curvature="0"
     style="fill:url(#linearGradient3357);fill-opacity:1" /><polygon
     points="80.512,45.999 80.512,45.956 72.17,34.149 64.042,22.555 64.042,22.545 63.997,22.489 56.091,33.871 47.49,45.944 47.49,46.082 46.213,47.902 20.639,84.111 28.112,95.338 47.49,80.969 47.49,81.022 47.49,81.048 48.27,81.506 64.007,90.581 64.042,90.571 64.042,90.562 79.721,81.506 80.512,81.048 80.512,81.022 80.512,80.977 99.891,95.338 107.364,84.111 82.049,48.183 "
     id="polygon5"
     transform="matrix(1.2534482,0,0,1.2534482,-16.492249,-18.305108)"
     style="fill:#545454" /><polygon
     points="80.407,45.67 80.407,81.014 100.311,95.764 107.871,84.406 82.26,48.057 80.58,45.67 "
     id="polygon7"
     transform="matrix(1.2534482,0,0,1.2534482,-16.492249,-18.305108)"
     style="fill:url(#linearGradient3366);fill-opacity:1" /><polygon
     points="46.005,47.773 20.132,84.406 27.693,95.764 48.043,80.673 48.043,45.493 47.605,45.493 "
     id="polygon9"
     transform="matrix(1.2534482,0,0,1.2534482,-16.492249,-18.305108)"
     style="fill:url(#linearGradient3353);fill-opacity:1" /><polygon
     points="47.297,45.793 47.297,81.281 64.072,49.743 55.999,33.578 "
     id="polygon11"
     transform="matrix(1.2534482,0,0,1.2534482,-16.492249,-18.305108)"
     style="fill:#9c9c9c" /><polygon
     points="72.266,33.86 63.977,49.793 80.705,81.281 80.705,45.804 "
     id="polygon13"
     transform="matrix(1.2534482,0,0,1.2534482,-16.492249,-18.305108)"
     style="fill:#686868" /><polygon
     points="47.297,81.307 48.086,81.77 64.007,90.951 64.042,90.941 64.042,90.932 79.904,81.77 80.705,81.307 80.705,81.281 64.042,49.698 47.297,81.281 "
     id="polygon15"
     transform="matrix(1.2534482,0,0,1.2534482,-16.492249,-18.305108)"
     style="fill:url(#linearGradient3378);fill-opacity:1" /><polygon
     points="63.997,22.063 55.999,33.578 64.042,49.794 72.266,33.86 64.042,22.13 64.042,22.12 "
     id="polygon17"
     transform="matrix(1.2534482,0,0,1.2534482,-16.492249,-18.305108)"
     style="fill:url(#linearGradient3390);fill-opacity:1" /></svg>