<?xml version="1.0" encoding="UTF-8" standalone="no"?>
<svg
   xmlns:dc="http://purl.org/dc/elements/1.1/"
   xmlns:cc="http://creativecommons.org/ns#"
   xmlns:rdf="http://www.w3.org/1999/02/22-rdf-syntax-ns#"
   xmlns:svg="http://www.w3.org/2000/svg"
   xmlns="http://www.w3.org/2000/svg"
   xmlns:sodipodi="http://sodipodi.sourceforge.net/DTD/sodipodi-0.dtd"
   xmlns:inkscape="http://www.inkscape.org/namespaces/inkscape"
   viewBox="0 0 128 128"
   id="svg2"
   version="1.1"
   inkscape:version="0.91 r"
   sodipodi:docname="chromium.svg"
   width="128"
   height="128">
  <metadata
     id="metadata56">
    <rdf:RDF>
      <cc:Work
         rdf:about="">
        <dc:format>image/svg+xml</dc:format>
        <dc:type
           rdf:resource="http://purl.org/dc/dcmitype/StillImage" />
        <dc:title></dc:title>
      </cc:Work>
    </rdf:RDF>
  </metadata>
  <sodipodi:namedview
     pagecolor="#ffffff"
     bordercolor="#666666"
     borderopacity="1"
     objecttolerance="10"
     gridtolerance="10"
     guidetolerance="10"
     inkscape:pageopacity="0"
     inkscape:pageshadow="2"
     inkscape:window-width="1366"
     inkscape:window-height="744"
     id="namedview54"
     showgrid="false"
     inkscape:zoom="3.4766083"
     inkscape:cx="31.559168"
     inkscape:cy="54.719481"
     inkscape:window-x="0"
     inkscape:window-y="24"
     inkscape:window-maximized="1"
     inkscape:current-layer="svg2" />
  <defs
     id="defs4">
    <linearGradient
       id="4"
       y1="542.79999"
       x2="0"
       y2="503.85001"
       gradientUnits="userSpaceOnUse">
      <stop
         stop-color="#79a8ca"
         id="stop7" />
      <stop
         offset="1"
         stop-color="#9ecbda"
         id="stop9" />
    </linearGradient>
    <linearGradient
       id="5"
       y1="532.79999"
       x2="0"
       y2="514.79999"
       gradientUnits="userSpaceOnUse">
      <stop
         stop-color="#dfe3e4"
         id="stop12" />
      <stop
         offset="1"
         stop-color="#f5f9fa"
         id="stop14" />
    </linearGradient>
    <linearGradient
       id="3"
       x1="408.53"
       y1="530.59003"
       x2="408.57001"
       y2="514.79999"
       gradientUnits="userSpaceOnUse">
      <stop
         stop-color="#51a3e4"
         id="stop17" />
      <stop
         offset="1"
         stop-color="#abdcec"
         id="stop19" />
    </linearGradient>
    <linearGradient
       id="1"
       x1="393.57001"
       y1="537.79999"
       x2="393.10001"
       y2="513.45001"
       gradientUnits="userSpaceOnUse">
      <stop
         stop-color="#51a3e4"
         id="stop22" />
      <stop
         offset="1"
         stop-color="#acddee"
         id="stop24" />
    </linearGradient>
    <linearGradient
       id="0"
       y1="34.220001"
       x2="0"
       y2="15.367"
       gradientUnits="userSpaceOnUse">
      <stop
         stop-color="#3d88e1"
         id="stop27" />
      <stop
         offset="1"
         stop-color="#7abbe5"
         id="stop29" />
    </linearGradient>
    <linearGradient
       id="2"
       x1="407.57001"
       y1="517.79999"
       x2="407.67001"
       y2="503.17001"
       gradientUnits="userSpaceOnUse">
      <stop
         stop-color="#337ed4"
         id="stop32" />
      <stop
         offset="1"
         stop-color="#5ab8f2"
         id="stop34" />
    </linearGradient>
  </defs>
  <g
     transform="matrix(2.9903592,0,0,2.9903592,-1157.5533,-1502.1642)"
     id="g36">
    <rect
       y="504.79999"
       x="389.57001"
       height="38"
       width="38"
       rx="19"
       id="rect38"
       style="fill:url(#4)" />
    <path
       transform="translate(384.57,499.8)"
       d="m 24.473,14.699 c -0.262,0 -0.473,0.211 -0.473,0.473 0,0.262 0.211,0.473 0.473,0.473 l 17.05,0 c 0.034,0 0.065,-0.013 0.098,-0.02 L 41.853,15 40.996,14.699"
       id="path40"
       inkscape:connector-curvature="0"
       style="opacity:0.8;fill:#649cc1" />
    <g
       id="g42"
       style="fill-rule:evenodd">
      <path
         d="m 392.58,511.8 c -2.504,3.34 -4,7.548 -4,12.06 0,11.08 8.92,19.938 20,19.938 l 7,-14.337 -13,-2.663 z"
         id="path44"
         inkscape:connector-curvature="0"
         style="fill:url(#1)" />
      <path
         transform="translate(384.57,499.8)"
         d="M 25,15 31,29.6 24,44 c 11.08,0 20,-8.92 20,-20 0,-3.245 -0.782,-6.295 -2.143,-9 z"
         id="path46"
         inkscape:connector-curvature="0"
         style="fill:url(#0)" />
      <path
         d="m 408.57,503.8 c -6.565,0 -12.354,3.146 -15.996,8 l 9.996,14.996 13,2.6 -6,-14.6 16.857,0 c -3.285,-6.53 -10.02,-11 -17.857,-11"
         id="path48"
         inkscape:connector-curvature="0"
         style="fill:url(#2)" />
    </g>
    <rect
       width="18"
       height="18"
       x="399.57001"
       y="514.79999"
       rx="9"
       id="rect50"
       style="fill:url(#5)" />
    <rect
       y="516.79999"
       x="401.57001"
       height="14"
       width="14"
       rx="7"
       id="rect52"
       style="fill:url(#3)" />
  </g>
</svg>
