<?xml version="1.0" encoding="UTF-8" standalone="no"?>
<!-- Created with Inkscape (http://www.inkscape.org/) -->

<svg
   xmlns:dc="http://purl.org/dc/elements/1.1/"
   xmlns:cc="http://creativecommons.org/ns#"
   xmlns:rdf="http://www.w3.org/1999/02/22-rdf-syntax-ns#"
   xmlns:svg="http://www.w3.org/2000/svg"
   xmlns="http://www.w3.org/2000/svg"
   xmlns:xlink="http://www.w3.org/1999/xlink"
   xmlns:sodipodi="http://sodipodi.sourceforge.net/DTD/sodipodi-0.dtd"
   xmlns:inkscape="http://www.inkscape.org/namespaces/inkscape"
   id="svg2"
   version="1.1"
   inkscape:version="0.91 r"
   width="512"
   height="512"
   sodipodi:docname="clementine.svg">
  <metadata
     id="metadata8">
    <rdf:RDF>
      <cc:Work
         rdf:about="">
        <dc:format>image/svg+xml</dc:format>
        <dc:type
           rdf:resource="http://purl.org/dc/dcmitype/StillImage" />
        <dc:title />
      </cc:Work>
    </rdf:RDF>
  </metadata>
  <defs
     id="defs6">
    <linearGradient
       inkscape:collect="always"
       id="linearGradient3347">
      <stop
         style="stop-color:#000000;stop-opacity:1;"
         offset="0"
         id="stop3349" />
      <stop
         id="stop3355"
         offset="0.1625818"
         style="stop-color:#fdb102;stop-opacity:1" />
      <stop
         style="stop-color:#f6860f;stop-opacity:1"
         offset="0.5913974"
         id="stop3357" />
      <stop
         id="stop3343"
         offset="0.80561316"
         style="stop-color:#f14d19;stop-opacity:1" />
      <stop
         style="stop-color:#000000;stop-opacity:0;"
         offset="1"
         id="stop3351" />
    </linearGradient>
    <linearGradient
       inkscape:collect="always"
       xlink:href="#linearGradient3347"
       id="linearGradient3353"
       x1="-46.021866"
       y1="-34.126137"
       x2="576.80737"
       y2="565.6922"
       gradientUnits="userSpaceOnUse" />
    <linearGradient
       gradientUnits="userSpaceOnUse"
       y2="-20.09"
       x2="66.709999"
       y1="24.832001"
       x1="67.400002"
       id="0">
      <stop
         id="stop7"
         stop-color="#f16419" />
      <stop
         id="stop9"
         stop-color="#feb600"
         offset="1" />
    </linearGradient>
  </defs>
  <sodipodi:namedview
     pagecolor="#ffffff"
     bordercolor="#666666"
     borderopacity="1"
     objecttolerance="10"
     gridtolerance="10"
     guidetolerance="10"
     inkscape:pageopacity="0"
     inkscape:pageshadow="2"
     inkscape:window-width="1366"
     inkscape:window-height="744"
     id="namedview4"
     showgrid="false"
     inkscape:zoom="0.65186406"
     inkscape:cx="286.81711"
     inkscape:cy="237.12437"
     inkscape:window-x="0"
     inkscape:window-y="24"
     inkscape:window-maximized="1"
     inkscape:current-layer="svg2" />
  <circle
     style="opacity:1;fill:#ffffff;fill-opacity:1;fill-rule:evenodd;stroke:none;stroke-width:0.71600002;stroke-miterlimit:0;stroke-dasharray:none;stroke-opacity:1"
     id="path3405"
     cx="255.63045"
     cy="258.48615"
     r="240.40556" />
  <g
     id="g3343"
     style="fill-opacity:1;fill:url(#linearGradient3353)">
    <path
       style="fill:url(#linearGradient3353);fill-opacity:1"
       d="M 234.08156,500.97105 C 174.28845,494.84217 119.49425,468.33294 78.061499,425.48907 13.337484,358.56071 -8.9675808,260.73207 20.39588,172.57113 c 5.613678,-16.85456 4.271325,-15.72511 13.811051,-11.62038 4.453572,1.91631 8.233604,3.60146 8.400074,3.7449 0.166462,0.14338 -1.295401,5.0538 -3.248595,10.91205 -8.735683,26.20114 -12.416419,49.03603 -12.389943,76.86602 0.04919,51.71744 15.49369,97.43629 47.053786,139.28877 31.819137,42.196 79.862197,73.43388 131.121067,85.25569 16.08198,3.709 27.26825,5.10136 45.65777,5.68304 27.00194,0.85412 49.69329,-1.97564 73.45796,-9.16065 38.2446,-11.5629 68.79947,-29.86402 97.21122,-58.22555 18.34305,-18.31061 31.85028,-36.57384 42.63282,-57.64416 2.55688,-4.99644 4.94608,-9.26809 5.30927,-9.49258 0.56762,-0.35081 15.49553,5.68922 16.47046,6.66418 1.22163,1.22159 -10.75964,23.28652 -20.41064,37.58869 -15.054,22.30909 -38.66898,46.51582 -61.19447,62.72796 -33.95506,24.43826 -74.14527,39.9487 -116.73398,45.05063 -10.61229,1.2713 -43.86677,1.74486 -53.46217,0.76131 z m 30.77123,-38.00499 c -9.60312,-2.19964 -15.06591,-5.93532 -16.33527,-11.17073 -0.52559,-2.16767 6.83162,-144.10058 7.5182,-145.03893 0.0645,-0.0883 3.57394,-0.64053 7.7986,-1.22729 4.22465,-0.58675 8.63899,-1.29075 9.80959,-1.56446 1.93513,-0.45249 5.14132,5.25692 35.31397,62.88495 18.25215,34.86045 33.425,64.8575 33.71751,66.66014 0.72356,4.45874 -0.19284,7.5492 -3.35165,11.30326 -5.64737,6.71153 -19.02461,13.19484 -34.43166,16.68735 -11.33504,2.56948 -31.92931,3.32336 -40.03929,1.46571 z m -69.9343,-6.52737 c -21.40847,-3.78082 -50.6827,-18.88149 -63.81148,-32.91618 -6.88654,-7.36175 -8.85463,-11.16819 -8.85463,-17.12566 0,-4.70202 -4.91163,0.63832 63.48697,-69.02841 l 40.43449,-41.18414 6.161,3.12336 c 3.38853,1.71784 7.39552,3.57779 8.90439,4.13319 2.42501,0.89266 2.68003,1.38062 2.19721,4.20485 -0.3004,1.75725 -1.65091,12.46504 -3.00112,23.7951 -7.05661,59.21478 -14.91087,113.95621 -16.96004,118.20541 -2.26804,4.70311 -7.52547,7.11042 -16.2857,7.45701 -3.82306,0.15125 -9.34506,-0.14778 -12.27109,-0.66453 z m 170.12093,-33.62013 c -3.93998,-1.81017 -4.28016,-2.26162 -17.85308,-23.69168 -11.71923,-18.50331 -58.8936,-96.77118 -59.88674,-99.35915 -0.45247,-1.17925 7.20677,-8.92871 11.13271,-11.26375 0.77708,-0.46223 26.33722,10.09967 65.81989,27.19798 52.10707,22.56537 65.09247,28.55419 67.36652,31.06925 2.67193,2.9551 2.79247,3.47427 2.33964,10.0784 -0.56956,8.30685 -3.41363,15.17138 -10.97929,26.50017 -17.18924,25.739 -45.63995,45.11977 -57.9397,39.46878 z M 100.07911,383.54298 C 81.699142,377.64795 60.55365,345.2165 60.289342,322.51625 c -0.102755,-8.82556 1.358298,-13.25187 5.604989,-16.98051 3.881297,-3.40782 3.834959,-3.39395 36.248419,-10.84378 44.28287,-10.17785 105.75412,-22.1861 106.23209,-20.75216 0.23385,0.70148 2.37815,4.18787 4.76516,7.74751 l 4.34,6.47207 -2.24454,2.12283 c -35.4366,33.5157 -95.82315,87.9415 -102.30217,92.20397 -3.07689,2.02426 -8.45835,2.46669 -12.85418,1.0568 z m 152.57356,-99.6872 c -10.07991,-1.7067 -20.49693,-9.882 -24.50447,-19.23115 -1.88457,-4.39655 -2.49447,-8.22709 -1.30991,-8.22709 0.95156,0 48.83432,20.83328 49.7864,21.66152 1.31296,1.14217 -6.1317,4.52212 -12.58996,5.71601 -3.18425,0.58865 -6.03956,1.01833 -6.34509,0.95487 -0.30559,-0.0635 -2.57221,-0.45682 -5.03697,-0.87416 z M 58.116686,279.90744 c -6.546375,-1.96163 -10.558867,-9.21681 -12.353741,-22.33733 -3.705919,-27.09026 9.651995,-67.87768 22.229995,-67.87768 2.028897,0 27.661065,10.4182 69.33426,28.18095 l 66.11539,28.18097 0.49017,7.37876 c 0.26963,4.0583 0.34615,7.53772 0.1701,7.73203 -0.66179,0.73042 -46.11471,8.12623 -73.02186,11.88166 -40.466824,5.64795 -68.282915,8.26343 -72.964314,6.86064 z"
       id="path3354"
       inkscape:connector-curvature="0" />
    <path
       sodipodi:nodetypes="sssscssssssssccsssssscssscssssssscssssscscsccssssccsssscscsssssssssssssscscss"
       style="fill:url(#linearGradient3353);fill-opacity:1"
       d="m 277.07844,13.080318 c 59.79312,6.128879 114.58729,32.638093 156.02006,75.481966 64.72404,66.928336 87.02911,164.756986 57.66565,252.917896 -5.61369,16.85456 -4.46645,18.7497 -14.00618,14.64497 -4.45361,-1.91631 -8.03849,-6.62605 -8.20497,-6.76948 -0.16648,-0.14339 1.29542,-5.0538 3.24861,-10.91202 8.73566,-26.20115 12.41641,-49.03602 12.38995,-76.86603 -0.0493,-51.71744 -15.4937,-97.43627 -47.05382,-139.28878 -31.8191,-42.19596 -79.86219,-73.43385 -131.12105,-85.255666 -16.08199,-3.70898 -27.26826,-5.10132 -45.65777,-5.683037 -27.00194,-0.854079 -49.69329,1.975684 -73.45797,9.160662 -38.2446,11.562888 -68.79947,29.86402 -97.211209,58.225539 -18.343057,18.310592 -31.850293,36.573812 -42.632805,57.644182 -2.55689,4.99641 -5.726622,12.78046 -6.089809,13.00496 -0.567617,0.3508 -15.885798,-6.46978 -16.860724,-7.4447 C 22.884766,160.7192 36.036849,135.92236 45.687846,121.62022 60.741822,99.311138 84.356811,75.104412 106.8823,58.892271 140.83735,34.453993 181.02756,18.943533 223.61627,13.841589 c 10.61228,-1.271291 43.86678,-1.744823 53.46217,-0.761271 z m -30.77122,38.004965 c 9.60312,2.199665 15.0659,5.935358 16.33527,11.17075 0.52559,2.16771 -6.83162,144.100547 -7.5182,145.038907 -0.0645,0.0883 -3.57395,0.64053 -7.7986,1.22729 -4.22465,0.58674 -8.63899,1.29076 -9.80959,1.56446 -1.93514,0.45249 -5.14133,-5.25692 -35.31399,-62.88497 -18.25213,-34.86042 -33.42498,-64.857427 -33.71749,-66.660075 -0.72357,-4.458754 0.19283,-7.549227 3.35165,-11.303295 5.64737,-6.711537 19.0246,-13.194824 34.43166,-16.687308 11.33503,-2.569507 31.92929,-3.323407 40.03929,-1.465759 z m 69.93429,6.5274 c 21.40847,3.78082 50.68269,18.881478 63.81147,32.916181 6.88656,7.36174 8.85463,11.168146 8.85463,17.125636 0,4.70202 4.91164,-0.63834 -63.48696,69.02839 l -40.43448,41.18415 -6.16101,-3.12337 c -3.38853,-1.71784 -7.39552,-3.57777 -8.90438,-4.13318 -2.42501,-0.89265 -2.68003,-1.38062 -2.19723,-4.20486 0.30041,-1.75724 1.65092,-12.46503 3.00114,-23.7951 7.05661,-59.21475 14.91088,-113.95618 16.96002,-118.205359 2.26805,-4.703138 7.52548,-7.110438 16.28571,-7.457038 3.82306,-0.151218 9.34506,0.147811 12.27109,0.66455 z M 146.12058,91.232804 c 3.93998,1.81017 4.28016,2.26163 17.85307,23.691646 11.71925,18.50334 58.89361,96.77118 59.88674,99.35917 0.45249,1.17925 -7.20676,8.9287 -11.13268,11.26375 -0.7771,0.46222 -26.33725,-10.09968 -65.81991,-27.19798 -52.107065,-22.56538 -65.092467,-28.55421 -67.366516,-31.06926 -2.671935,-2.95509 -2.792475,-3.47428 -2.339638,-10.07841 0.569559,-8.30685 3.413619,-15.17138 10.979288,-26.50016 17.189236,-25.73898 45.639956,-45.119746 57.939696,-39.468756 z m 264.96033,39.275566 c 18.37994,5.89501 39.52544,38.32647 39.78977,61.02672 0.10271,8.82556 -1.35831,13.25186 -5.60499,16.9805 -3.88131,3.40784 -3.83496,3.39398 -36.24845,10.84378 -44.28288,10.17786 -105.7541,22.18611 -106.23206,20.75217 -0.23385,-0.70149 -2.37816,-4.18788 -4.76517,-7.74751 l -4.34001,-6.47208 2.24455,-2.12283 c 35.4366,-33.5157 95.82316,-87.94146 102.30217,-92.20397 3.07689,-2.02422 8.45836,-2.46667 12.85419,-1.05678 z m -152.57358,99.68719 c 10.07993,1.70669 20.49693,9.882 24.50447,19.23115 1.88456,4.39654 2.49447,8.22708 1.30992,8.22708 -0.95156,0 -48.83433,-20.83328 -49.7864,-21.6615 -1.31297,-1.14219 6.13169,-4.52214 12.58995,-5.71602 3.18426,-0.58864 6.03956,-1.01833 6.3451,-0.95488 0.30559,0.0635 2.57221,0.45683 5.03696,0.87417 z m 194.536,3.94835 c 6.54637,1.96161 10.55886,9.21679 12.35371,22.33733 3.70593,27.09024 -9.65197,67.87768 -22.22997,67.87768 -2.02891,0 -27.66105,-10.41823 -69.33427,-28.18099 l -66.11538,-28.18095 -0.49019,-7.37874 c -0.26962,-4.05831 -0.34614,-7.53774 -0.17009,-7.73205 0.66181,-0.73041 46.11471,-8.12623 73.02185,-11.88165 40.46684,-5.64794 68.28292,-8.26343 72.96434,-6.86063 z"
       id="path3354-1"
       inkscape:connector-curvature="0" />
  </g>
  <ellipse
     style="opacity:1;fill:#f8930b;fill-opacity:1;fill-rule:evenodd;stroke:none;stroke-width:0.71600002;stroke-miterlimit:0;stroke-dasharray:none;stroke-opacity:1"
     id="path3403"
     cx="309.87177"
     cy="176.38618"
     rx="33.696671"
     ry="27.941492"
     transform="matrix(0.96135009,0.2753289,-0.24846567,0.9686407,0,0)"
     inkscape:transform-center-x="212.30624"
     inkscape:transform-center-y="-209.48881" />
</svg>
