<?xml version="1.0" encoding="UTF-8" standalone="no"?>
<!-- Created with Inkscape (http://www.inkscape.org/) -->

<svg
   xmlns:dc="http://purl.org/dc/elements/1.1/"
   xmlns:cc="http://creativecommons.org/ns#"
   xmlns:rdf="http://www.w3.org/1999/02/22-rdf-syntax-ns#"
   xmlns:svg="http://www.w3.org/2000/svg"
   xmlns="http://www.w3.org/2000/svg"
   xmlns:xlink="http://www.w3.org/1999/xlink"
   xmlns:sodipodi="http://sodipodi.sourceforge.net/DTD/sodipodi-0.dtd"
   xmlns:inkscape="http://www.inkscape.org/namespaces/inkscape"
   id="svg2"
   version="1.1"
   inkscape:version="0.91 r"
   width="256"
   height="256"
   viewBox="0 0 256 256"
   sodipodi:docname="converseen.svg">
  <metadata
     id="metadata8">
    <rdf:RDF>
      <cc:Work
         rdf:about="">
        <dc:format>image/svg+xml</dc:format>
        <dc:type
           rdf:resource="http://purl.org/dc/dcmitype/StillImage" />
        <dc:title />
      </cc:Work>
    </rdf:RDF>
  </metadata>
  <defs
     id="defs6">
    <linearGradient
       inkscape:collect="always"
       id="linearGradient3344">
      <stop
         style="stop-color:#b3b3b3;stop-opacity:1;"
         offset="0"
         id="stop3346" />
      <stop
         id="stop3352"
         offset="0.05043218"
         style="stop-color:#e18f31;stop-opacity:1" />
      <stop
         style="stop-color:#e17a42;stop-opacity:1"
         offset="0.22465244"
         id="stop3354" />
      <stop
         id="stop3356"
         offset="0.38991353"
         style="stop-color:#e16d4d;stop-opacity:1" />
      <stop
         style="stop-color:#e15d5a;stop-opacity:1"
         offset="0.55954903"
         id="stop3358" />
      <stop
         id="stop3360"
         offset="0.73845923"
         style="stop-color:#e1496a;stop-opacity:1" />
      <stop
         style="stop-color:#c02a6a;stop-opacity:0.96862745"
         offset="0.95863205"
         id="stop3362" />
      <stop
         style="stop-color:#b3b3b3;stop-opacity:0;"
         offset="1"
         id="stop3348" />
    </linearGradient>
    <linearGradient
       inkscape:collect="always"
       xlink:href="#linearGradient3344"
       id="linearGradient3350"
       x1="131.25423"
       y1="11.932203"
       x2="136.67798"
       y2="248.4068"
       gradientUnits="userSpaceOnUse" />
  </defs>
  <sodipodi:namedview
     pagecolor="#ffffff"
     bordercolor="#666666"
     borderopacity="1"
     objecttolerance="10"
     gridtolerance="10"
     guidetolerance="10"
     inkscape:pageopacity="0"
     inkscape:pageshadow="2"
     inkscape:window-width="1366"
     inkscape:window-height="744"
     id="namedview4"
     showgrid="false"
     inkscape:zoom="1.84375"
     inkscape:cx="138.04888"
     inkscape:cy="102.36465"
     inkscape:window-x="0"
     inkscape:window-y="24"
     inkscape:window-maximized="1"
     inkscape:current-layer="svg2" />
  <rect
     style="opacity:1;fill:url(#linearGradient3350);fill-opacity:1;fill-rule:nonzero;stroke:none;stroke-width:13.80000019;stroke-miterlimit:4;stroke-dasharray:none;stroke-opacity:1"
     id="rect3342"
     width="222.37288"
     height="222.37288"
     x="17.355932"
     y="17.355932"
     rx="30" />
  <path
     style="opacity:1;fill:#e18f31;fill-opacity:1;fill-rule:nonzero;stroke:none;stroke-width:13.80000019;stroke-miterlimit:4;stroke-dasharray:none;stroke-opacity:1"
     d=""
     id="path3364"
     inkscape:connector-curvature="0" />
  <g
     id="g3374"
     transform="translate(297.22034,-1.0847458)"
     style="fill:#ffffff">
    <path
       inkscape:connector-curvature="0"
       id="path3370"
       d="m -248.88122,128 6.48656,0 6.48656,0 c 1.72572,-12.31673 4.96073,-26.60835 11.14878,-36.063542 1.13895,-1.664471 8.97408,-11.765923 15.04998,-16.349683 12.40378,-9.357627 25.12837,-13.680054 40.27205,-13.680054 13.7469,0 28.07068,4.377375 37.69492,11.519632 5.7331,4.254602 4.54253,11.305975 -2.32251,13.755471 -1.32703,0.473497 -4.58255,-0.575858 -9.22033,-2.971995 -17.91418,-9.255472 -33.11678,-9.613167 -49.91781,-1.174492 -11.69855,5.875849 -23.83474,22.080023 -25.55222,34.117203 -0.38307,2.68475 -0.9479,6.19957 -1.25519,7.81072 -0.55283,2.89858 -0.48891,2.93277 6.08376,3.25423 l 6.64246,0.32488 -20.90978,29.83051 z"
       style="opacity:1;fill:#ffffff;fill-opacity:1;fill-rule:nonzero;stroke:none;stroke-width:13.80000019;stroke-miterlimit:4;stroke-dasharray:none;stroke-opacity:1"
       sodipodi:nodetypes="ccccsssssssssccc" />
    <path
       inkscape:connector-curvature="0"
       id="path3372"
       d="m -183.75243,192.46894 c -7.94998,-1.58395 -19.23622,-6.84472 -23.92215,-11.15064 -3.66548,-4.46583 -0.4141,-10.91216 4.14021,-12.22392 0.77382,0 5.22324,0.93552 9.88761,3.25079 13.17023,6.53736 24.38849,8.16298 35.5993,5.15865 19.614,-5.25626 33.53782,-19.06627 37.90485,-37.59501 2.75567,-11.69192 2.67777,-11.90881 -4.27773,-11.90881 -3.28135,0 -5.9661,-0.43484 -5.9661,-0.9663 l 20.75217,-29.86119 c 3.6194,5.77007 7.05191,11.38826 10.163084,16.02651 5.071186,7.54579 9.220339,13.96293 9.220339,14.2603 0,0.29737 -2.861983,0.54068 -6.359962,0.54068 l -6.359961,0 -0.56539,6.77966 c -0.72353,8.67574 -5.20288,21.39074 -10.22235,29.01695 -15.53242,23.59881 -41.68606,34.3124 -69.99392,28.67233 z"
       style="opacity:1;fill:#ffffff;fill-opacity:1;fill-rule:nonzero;stroke:none;stroke-width:13.80000019;stroke-miterlimit:4;stroke-dasharray:none;stroke-opacity:1"
       sodipodi:nodetypes="sccsssscccsscsss" />
  </g>
</svg>
