<?xml version="1.0" encoding="UTF-8" standalone="no"?>
<svg
   xmlns:dc="http://purl.org/dc/elements/1.1/"
   xmlns:cc="http://creativecommons.org/ns#"
   xmlns:rdf="http://www.w3.org/1999/02/22-rdf-syntax-ns#"
   xmlns:svg="http://www.w3.org/2000/svg"
   xmlns="http://www.w3.org/2000/svg"
   xmlns:xlink="http://www.w3.org/1999/xlink"
   xmlns:sodipodi="http://sodipodi.sourceforge.net/DTD/sodipodi-0.dtd"
   xmlns:inkscape="http://www.inkscape.org/namespaces/inkscape"
   viewBox="0 0 128 128"
   id="svg2"
   version="1.1"
   inkscape:version="0.91 r"
   sodipodi:docname="cs-notifications.svg"
   width="128"
   height="128">
  <metadata
     id="metadata61">
    <rdf:RDF>
      <cc:Work
         rdf:about="">
        <dc:format>image/svg+xml</dc:format>
        <dc:type
           rdf:resource="http://purl.org/dc/dcmitype/StillImage" />
        <dc:title></dc:title>
      </cc:Work>
    </rdf:RDF>
  </metadata>
  <sodipodi:namedview
     pagecolor="#ffffff"
     bordercolor="#666666"
     borderopacity="1"
     objecttolerance="10"
     gridtolerance="10"
     guidetolerance="10"
     inkscape:pageopacity="0"
     inkscape:pageshadow="2"
     inkscape:window-width="1366"
     inkscape:window-height="744"
     id="namedview59"
     showgrid="false"
     inkscape:zoom="1.7383042"
     inkscape:cx="148.25372"
     inkscape:cy="-22.070261"
     inkscape:window-x="0"
     inkscape:window-y="24"
     inkscape:window-maximized="1"
     inkscape:current-layer="svg2" />
  <defs
     id="defs4">
    <linearGradient
       inkscape:collect="always"
       id="linearGradient3389">
      <stop
         style="stop-color:#000000;stop-opacity:1;"
         offset="0"
         id="stop3391" />
      <stop
         id="stop3397"
         offset="0.15669034"
         style="stop-color:#5fd3bc;stop-opacity:1" />
      <stop
         style="stop-color:#37c8ab;stop-opacity:1"
         offset="0.48175284"
         id="stop3366" />
      <stop
         style="stop-color:#217867;stop-opacity:1"
         offset="0.86235636"
         id="stop3399" />
      <stop
         style="stop-color:#000000;stop-opacity:0;"
         offset="1"
         id="stop3393" />
    </linearGradient>
    <linearGradient
       id="linearGradient3764"
       x1="1"
       x2="47"
       gradientUnits="userSpaceOnUse"
       gradientTransform="matrix(0,-1,1,0,-1.5e-6,47.999998)">
      <stop
         stop-color="#2cadc8"
         stop-opacity="1"
         id="stop7" />
      <stop
         offset="1"
         stop-color="#35b6d3"
         stop-opacity="1"
         id="stop9" />
    </linearGradient>
    <clipPath
       id="clipPath-247352994">
      <g
         transform="translate(0,-1004.3622)"
         id="g12">
        <path
           d="m -24,13 c 0,1.105 -0.672,2 -1.5,2 -0.828,0 -1.5,-0.895 -1.5,-2 0,-1.105 0.672,-2 1.5,-2 0.828,0 1.5,0.895 1.5,2 z"
           transform="matrix(15.333333,0,0,11.5,414.99999,878.8622)"
           id="path14"
           inkscape:connector-curvature="0"
           style="fill:#1890d0" />
      </g>
    </clipPath>
    <clipPath
       id="clipPath-252752283">
      <g
         transform="translate(0,-1004.3622)"
         id="g17">
        <path
           d="m -24,13 c 0,1.105 -0.672,2 -1.5,2 -0.828,0 -1.5,-0.895 -1.5,-2 0,-1.105 0.672,-2 1.5,-2 0.828,0 1.5,0.895 1.5,2 z"
           transform="matrix(15.333333,0,0,11.5,414.99999,878.8622)"
           id="path19"
           inkscape:connector-curvature="0"
           style="fill:#1890d0" />
      </g>
    </clipPath>
    <linearGradient
       inkscape:collect="always"
       xlink:href="#linearGradient3389"
       id="linearGradient3395"
       x1="-11.389831"
       y1="-10.169492"
       x2="58.779659"
       y2="58.576271"
       gradientUnits="userSpaceOnUse" />
    <linearGradient
       inkscape:collect="always"
       xlink:href="#linearGradient3389"
       id="linearGradient3368"
       gradientUnits="userSpaceOnUse"
       x1="-11.389831"
       y1="-10.169492"
       x2="58.779659"
       y2="58.576271" />
  </defs>
  <g
     id="g21"
     transform="matrix(2.6279011,0,0,2.6279011,-0.47735447,-0.44034495)">
    <path
       d="m 36.31,5 c 5.859,4.062 9.688,10.831 9.688,18.5 0,12.426 -10.07,22.5 -22.5,22.5 -7.669,0 -14.438,-3.828 -18.5,-9.688 1.037,1.822 2.306,3.499 3.781,4.969 4.085,3.712 9.514,5.969 15.469,5.969 12.703,0 23,-10.298 23,-23 0,-5.954 -2.256,-11.384 -5.969,-15.469 C 39.81,7.306 38.132,6.037 36.31,5 Z m 4.969,3.781 c 3.854,4.113 6.219,9.637 6.219,15.719 0,12.703 -10.297,23 -23,23 -6.081,0 -11.606,-2.364 -15.719,-6.219 4.16,4.144 9.883,6.719 16.219,6.719 12.703,0 23,-10.298 23,-23 0,-6.335 -2.575,-12.06 -6.719,-16.219 z"
       id="path23"
       inkscape:connector-curvature="0"
       style="opacity:0.05" />
    <path
       d="m 41.28,8.781 c 3.712,4.085 5.969,9.514 5.969,15.469 0,12.703 -10.297,23 -23,23 -5.954,0 -11.384,-2.256 -15.469,-5.969 4.113,3.854 9.637,6.219 15.719,6.219 12.703,0 23,-10.298 23,-23 0,-6.081 -2.364,-11.606 -6.219,-15.719 z"
       id="path25"
       inkscape:connector-curvature="0"
       style="opacity:0.1" />
    <path
       d="M 31.25,2.375 C 39.865,5.529 46,13.792 46,23.505 c 0,12.426 -10.07,22.5 -22.5,22.5 -9.708,0 -17.971,-6.135 -21.12,-14.75 a 23,23 0 0 0 44.875,-7 23,23 0 0 0 -16,-21.875 z"
       id="path27"
       inkscape:connector-curvature="0"
       style="opacity:0.2" />
  </g>
  <g
     id="g29"
     style="fill:url(#linearGradient3395);fill-opacity:1"
     transform="matrix(2.6279011,0,0,2.6279011,-0.47735447,-0.44034495)">
    <path
       d="M 24,1 C 36.703,1 47,11.297 47,24 47,36.703 36.703,47 24,47 11.297,47 1,36.703 1,24 1,11.297 11.297,1 24,1 Z"
       id="path31"
       style="fill:url(#linearGradient3368);fill-opacity:1"
       inkscape:connector-curvature="0" />
  </g>
  <g
     id="g33"
     transform="translate(0,80)" />
  <g
     id="g35"
     transform="matrix(2.6279011,0,0,2.6279011,-0.47735447,-0.44034495)">
    <g
       clip-path="url(#clipPath-247352994)"
       id="g37">
      <g
         transform="translate(1,1)"
         id="g39">
        <g
           id="g41"
           style="opacity:0.1">
          <!-- color: #35b6d3 -->
          <g
             id="g43">
            <path
               d="M 13.438,13 C 12.629,13 12,13.629 12,14.438 l 0,15.875 c 0,0.809 0.629,1.438 1.438,1.438 l 4.563,0 0,5.25 6,-5.25 10.563,0 c 0.809,0 1.441,-0.629 1.441,-1.438 l 0,-15.875 C 36.005,13.629 35.345,13 34.532,13 m -21.09,0"
               id="path45"
               inkscape:connector-curvature="0"
               style="fill:#000000;fill-opacity:1;fill-rule:nonzero;stroke:none" />
          </g>
        </g>
      </g>
    </g>
  </g>
  <g
     id="g47"
     transform="matrix(2.6279011,0,0,2.6279011,-0.47735447,-0.44034495)">
    <g
       clip-path="url(#clipPath-252752283)"
       id="g49">
      <!-- color: #35b6d3 -->
      <g
         id="g51">
        <path
           d="M 13.438,13 C 12.629,13 12,13.629 12,14.438 l 0,15.875 c 0,0.809 0.629,1.438 1.438,1.438 l 4.563,0 0,5.25 6,-5.25 10.563,0 c 0.809,0 1.441,-0.629 1.441,-1.438 l 0,-15.875 C 36.005,13.629 35.345,13 34.532,13 m -21.09,0"
           id="path53"
           inkscape:connector-curvature="0"
           style="fill:#f9f9f9;fill-opacity:1;fill-rule:nonzero;stroke:none" />
      </g>
    </g>
  </g>
  <g
     id="g55"
     transform="matrix(2.6279011,0,0,2.6279011,-0.47735447,-0.44034495)">
    <path
       d="m 40.03,7.531 c 3.712,4.084 5.969,9.514 5.969,15.469 0,12.703 -10.297,23 -23,23 C 17.045,46 11.615,43.744 7.53,40.031 11.708,44.322 17.54,47 23.999,47 c 12.703,0 23,-10.298 23,-23 0,-6.462 -2.677,-12.291 -6.969,-16.469 z"
       id="path57"
       inkscape:connector-curvature="0"
       style="opacity:0.1" />
  </g>
</svg>
