<?xml version="1.0" encoding="UTF-8" standalone="no"?>
<!-- Created with Inkscape (http://www.inkscape.org/) -->

<svg
   xmlns:dc="http://purl.org/dc/elements/1.1/"
   xmlns:cc="http://creativecommons.org/ns#"
   xmlns:rdf="http://www.w3.org/1999/02/22-rdf-syntax-ns#"
   xmlns:svg="http://www.w3.org/2000/svg"
   xmlns="http://www.w3.org/2000/svg"
   xmlns:sodipodi="http://sodipodi.sourceforge.net/DTD/sodipodi-0.dtd"
   xmlns:inkscape="http://www.inkscape.org/namespaces/inkscape"
   width="128"
   height="128"
   viewBox="0 0 128 128"
   id="svg2"
   version="1.1"
   inkscape:version="0.91 r"
   sodipodi:docname="cutegram.svg">
  <defs
     id="defs4">
    <linearGradient
       gradientUnits="userSpaceOnUse"
       y2="-30.721"
       x2="0"
       y1="17.279"
       id="0"
       gradientTransform="matrix(2.4955507,0,0,2.4955507,240.71244,33.087543)">
      <stop
         id="stop3341"
         stop-color="#dc3c30" />
      <stop
         id="stop3343"
         stop-color="#ff786d"
         offset="1" />
    </linearGradient>
  </defs>
  <sodipodi:namedview
     id="base"
     pagecolor="#ffffff"
     bordercolor="#666666"
     borderopacity="1.0"
     inkscape:pageopacity="0.0"
     inkscape:pageshadow="2"
     inkscape:zoom="2.8"
     inkscape:cx="41.425506"
     inkscape:cy="86.554731"
     inkscape:document-units="px"
     inkscape:current-layer="g3345"
     showgrid="false"
     units="px"
     inkscape:window-width="1366"
     inkscape:window-height="744"
     inkscape:window-x="0"
     inkscape:window-y="24"
     inkscape:window-maximized="1" />
  <metadata
     id="metadata7">
    <rdf:RDF>
      <cc:Work
         rdf:about="">
        <dc:format>image/svg+xml</dc:format>
        <dc:type
           rdf:resource="http://purl.org/dc/dcmitype/StillImage" />
        <dc:title></dc:title>
      </cc:Work>
    </rdf:RDF>
  </metadata>
  <g
     inkscape:label="Calque 1"
     inkscape:groupmode="layer"
     id="layer1"
     transform="translate(0,-924.3622)">
    <g
       id="g3345"
       transform="matrix(0.99999,0,0,0.99999,161.142,972.29742)"
       style="enable-background:new">
      <rect
         id="rect3347"
         rx="59.893215"
         transform="scale(-1,1)"
         y="-43.578274"
         x="37.499763"
         height="119.78643"
         width="119.78643"
         style="fill:url(#0)" />
      <g
         id="g3349"
         style="fill-rule:evenodd"
         transform="matrix(2.4955507,0,0,2.4955507,-240.71244,33.087543)">
        <path
           id="path3351"
           d="M 67.14,4.16 45.13,0.995 c 0,0 -3.233,-0.127 -1.267,-2.521 l 14.932,-18.19 c 0.635,-0.694 1.361,-0.576 1.679,0.318 l 8.06,21.86 c 0.931,2.202 -1.401,1.696 -1.401,1.696"
           inkscape:connector-curvature="0"
           style="fill:#f1f9ff" />
        <path
           id="path3353"
           d="m 59.17,3.02 -2.682,2.682 c -1.07,1.063 -1.486,0.294 -1.974,-0.275 l -1.671,-3.342 5.914,-20.11 c 0.297,-0.948 1.06,-0.508 0.963,0.206 z"
           inkscape:connector-curvature="0"
           style="fill:#ccd3d8" />
        <path
           id="path3355"
           d="M 56.4,2.324 55.661,5.932 C 54.844,7.266 52.932,2.143 52.932,2.143 l 5.914,-20.226 c 0.297,-0.948 0.743,-0.689 0.645,0.025 z"
           inkscape:connector-curvature="0"
           style="fill:#dde4ea" />
      </g>
    </g>
  </g>
</svg>
