<?xml version="1.0" encoding="UTF-8" standalone="no"?>
<svg
   xmlns:dc="http://purl.org/dc/elements/1.1/"
   xmlns:cc="http://creativecommons.org/ns#"
   xmlns:rdf="http://www.w3.org/1999/02/22-rdf-syntax-ns#"
   xmlns:svg="http://www.w3.org/2000/svg"
   xmlns="http://www.w3.org/2000/svg"
   xmlns:xlink="http://www.w3.org/1999/xlink"
   xmlns:sodipodi="http://sodipodi.sourceforge.net/DTD/sodipodi-0.dtd"
   xmlns:inkscape="http://www.inkscape.org/namespaces/inkscape"
   viewBox="0 0 128 128"
   id="svg2"
   version="1.1"
   inkscape:version="0.91 r"
   width="100%"
   height="100%"
   sodipodi:docname="filezilla.svg">
  <metadata
     id="metadata61">
    <rdf:RDF>
      <cc:Work
         rdf:about="">
        <dc:format>image/svg+xml</dc:format>
        <dc:type
           rdf:resource="http://purl.org/dc/dcmitype/StillImage" />
        <dc:title />
      </cc:Work>
    </rdf:RDF>
  </metadata>
  <sodipodi:namedview
     pagecolor="#ffffff"
     bordercolor="#666666"
     borderopacity="1"
     objecttolerance="10"
     gridtolerance="10"
     guidetolerance="10"
     inkscape:pageopacity="0"
     inkscape:pageshadow="2"
     inkscape:window-width="1366"
     inkscape:window-height="744"
     id="namedview59"
     showgrid="false"
     inkscape:zoom="2.4583333"
     inkscape:cx="61.950851"
     inkscape:cy="75.622437"
     inkscape:window-x="0"
     inkscape:window-y="24"
     inkscape:window-maximized="1"
     inkscape:current-layer="svg2" />
  <defs
     id="defs4">
    <linearGradient
       inkscape:collect="always"
       id="linearGradient3353">
      <stop
         style="stop-color:#d41a1a;stop-opacity:1;"
         offset="0"
         id="stop3355" />
      <stop
         id="stop3361"
         offset="0.1534473"
         style="stop-color:#fe6075;stop-opacity:1" />
      <stop
         style="stop-color:#f0384a;stop-opacity:1"
         offset="0.48122236"
         id="stop3359" />
      <stop
         id="stop3362"
         offset="0.85036284"
         style="stop-color:#bf1829;stop-opacity:1" />
      <stop
         style="stop-color:#d41a1a;stop-opacity:0;"
         offset="1"
         id="stop3357" />
    </linearGradient>
    <linearGradient
       id="linearGradient3764"
       x1="1"
       x2="47"
       gradientUnits="userSpaceOnUse"
       gradientTransform="matrix(0,-1,1,0,-1.5e-6,47.999998)">
      <stop
         stop-color="#a80000"
         stop-opacity="1"
         id="stop7" />
      <stop
         offset="1"
         stop-color="#b00"
         stop-opacity="1"
         id="stop9" />
    </linearGradient>
    <clipPath
       id="clipPath-400042892">
      <g
         transform="translate(0,-1004.3622)"
         id="g12">
        <path
           d="m -24,13 c 0,1.105 -0.672,2 -1.5,2 -0.828,0 -1.5,-0.895 -1.5,-2 0,-1.105 0.672,-2 1.5,-2 0.828,0 1.5,0.895 1.5,2 z"
           transform="matrix(15.333333,0,0,11.5,414.99999,878.8622)"
           id="path14"
           inkscape:connector-curvature="0"
           style="fill:#1890d0" />
      </g>
    </clipPath>
    <clipPath
       id="clipPath-411038796">
      <g
         transform="translate(0,-1004.3622)"
         id="g17">
        <path
           d="m -24,13 c 0,1.105 -0.672,2 -1.5,2 -0.828,0 -1.5,-0.895 -1.5,-2 0,-1.105 0.672,-2 1.5,-2 0.828,0 1.5,0.895 1.5,2 z"
           transform="matrix(15.333333,0,0,11.5,414.99999,878.8622)"
           id="path19"
           inkscape:connector-curvature="0"
           style="fill:#1890d0" />
      </g>
    </clipPath>
    <linearGradient
       inkscape:collect="always"
       xlink:href="#linearGradient3353"
       id="linearGradient3359"
       x1="-9.7627115"
       y1="-11.525426"
       x2="141.96611"
       y2="144.27118"
       gradientUnits="userSpaceOnUse"
       gradientTransform="matrix(0.93650794,0,0,0.93650794,4.0979281,4.0807095)" />
    <linearGradient
       id="0"
       x1="-123.97"
       y1="73.5"
       x2="-125.19"
       y2="-26.05"
       gradientUnits="userSpaceOnUse"
       gradientTransform="matrix(.49433 0 0 .4778 86.64 13.1)">
      <stop
         id="stop3365"
         stop-color="#c52828" />
      <stop
         id="stop3367"
         stop-color="#ff5454"
         offset="1" />
    </linearGradient>
    <linearGradient
       id="0-3"
       x1="-423.09"
       y1="519.48"
       x2="-424.98"
       y2="227.95"
       gradientUnits="userSpaceOnUse">
      <stop
         id="stop3389"
         stop-color="#e01728" />
      <stop
         id="stop3391"
         stop-color="#ff566a"
         offset="1" />
    </linearGradient>
    <linearGradient
       id="1"
       gradientUnits="userSpaceOnUse"
       gradientTransform="matrix(0.99785,0,0,1,-218.94,203)"
       x1="-206.67"
       y1="315.36"
       x2="-208.33"
       y2="23.362">
      <stop
         id="stop3394"
         stop-color="#c71625" />
      <stop
         id="stop3396"
         stop-color="#ff6d7b"
         offset="1" />
    </linearGradient>
    <linearGradient
       gradientUnits="userSpaceOnUse"
       y2="304.47"
       x2="0"
       y1="446.04"
       id="2">
      <stop
         id="stop3399"
         stop-color="#f7abb2" />
      <stop
         id="stop3401"
         stop-color="#f9dce0"
         offset="1" />
    </linearGradient>
  </defs>
  <rect
     style="fill:url(#linearGradient3359);fill-opacity:1;fill-rule:evenodd;stroke:#000000;stroke-width:0;stroke-linecap:butt;stroke-linejoin:miter;stroke-miterlimit:4;stroke-dasharray:none;stroke-opacity:1"
     id="rect3038"
     width="108"
     height="108"
     x="10.542373"
     y="10.27118"
     rx="13.615384" />
  <g
     id="g33"
     transform="translate(0,80)" />
  <g
     id="g35"
     transform="matrix(2.7230768,0,0,2.7230768,-2.7499346,-2.4672705)">
    <g
       clip-path="url(#clipPath-400042892)"
       id="g37">
      <g
         transform="translate(1,1)"
         id="g39">
        <g
           id="g41"
           style="opacity:0.1">
          <!-- color: #bb0000 -->
          <g
             id="g43">
            <path
               d="M 16.867,12 12,33.578 l 3.953,0 2.293,-9.656 10.793,0 -10.11,9.04 2.633,3.03 1.348,-0.695 c 2.551,-1.309 3.621,-0.543 5.555,-0.008 1.883,0.52 3.656,1.078 7.328,-1.035 l -0.73,-3.734 c -4,2.848 -5.273,0.309 -8.129,0.203 l 8.172,-6.914 0.887,-3.695 -17.12,0 1.105,-4.426 11.223,0 0.773,-3.695 -15.11,0 m 0.008,0.004"
               id="path45"
               inkscape:connector-curvature="0"
               style="fill:#000000;fill-opacity:1;fill-rule:nonzero;stroke:none" />
          </g>
        </g>
      </g>
    </g>
  </g>
  <g
     id="g47"
     transform="matrix(2.7230768,0,0,2.7230768,-2.7499346,-2.4672705)">
    <g
       clip-path="url(#clipPath-411038796)"
       id="g49">
      <!-- color: #bb0000 -->
      <g
         id="g51">
        <path
           d="M 16.867,12 12,33.578 l 3.953,0 2.293,-9.656 10.793,0 -10.11,9.04 2.633,3.03 1.348,-0.695 c 2.551,-1.309 3.621,-0.543 5.555,-0.008 1.883,0.52 3.656,1.078 7.328,-1.035 l -0.73,-3.734 c -4,2.848 -5.273,0.309 -8.129,0.203 l 8.172,-6.914 0.887,-3.695 -17.12,0 1.105,-4.426 11.223,0 0.773,-3.695 -15.11,0 m 0.008,0.004"
           id="path53"
           inkscape:connector-curvature="0"
           style="fill:#ffffff;fill-opacity:1;fill-rule:nonzero;stroke:none" />
      </g>
    </g>
  </g>
</svg>
