<?xml version="1.0" encoding="UTF-8" standalone="no"?>
<svg
   xmlns:dc="http://purl.org/dc/elements/1.1/"
   xmlns:cc="http://creativecommons.org/ns#"
   xmlns:rdf="http://www.w3.org/1999/02/22-rdf-syntax-ns#"
   xmlns:svg="http://www.w3.org/2000/svg"
   xmlns="http://www.w3.org/2000/svg"
   xmlns:xlink="http://www.w3.org/1999/xlink"
   xmlns:sodipodi="http://sodipodi.sourceforge.net/DTD/sodipodi-0.dtd"
   xmlns:inkscape="http://www.inkscape.org/namespaces/inkscape"
   viewBox="0 0 128 128"
   id="svg2"
   version="1.1"
   inkscape:version="0.91 r"
   sodipodi:docname="flacon.svg"
   width="128"
   height="128">
  <metadata
     id="metadata23">
    <rdf:RDF>
      <cc:Work
         rdf:about="">
        <dc:format>image/svg+xml</dc:format>
        <dc:type
           rdf:resource="http://purl.org/dc/dcmitype/StillImage" />
        <dc:title></dc:title>
      </cc:Work>
    </rdf:RDF>
  </metadata>
  <sodipodi:namedview
     pagecolor="#ffffff"
     bordercolor="#666666"
     borderopacity="1"
     objecttolerance="10"
     gridtolerance="10"
     guidetolerance="10"
     inkscape:pageopacity="0"
     inkscape:pageshadow="2"
     inkscape:window-width="1366"
     inkscape:window-height="744"
     id="namedview21"
     showgrid="false"
     inkscape:zoom="2.4583333"
     inkscape:cx="107.00572"
     inkscape:cy="44.152351"
     inkscape:window-x="0"
     inkscape:window-y="24"
     inkscape:window-maximized="1"
     inkscape:current-layer="svg2" />
  <defs
     id="defs4">
    <linearGradient
       xlink:href="#2"
       id="0"
       y1="546.28998"
       x2="0"
       y2="501.51001"
       gradientUnits="userSpaceOnUse" />
    <linearGradient
       xlink:href="#2"
       id="1"
       x1="408.82001"
       y1="546.28998"
       x2="407.82001"
       y2="501.51001"
       gradientUnits="userSpaceOnUse" />
    <linearGradient
       id="2">
      <stop
         stop-color="#97a9b1"
         id="stop9" />
      <stop
         offset="1"
         stop-color="#cfdce1"
         id="stop11" />
    </linearGradient>
  </defs>
  <g
     transform="matrix(2.643555,0,0,2.643555,-1013.6232,-1321.0265)"
     id="g13">
    <circle
       r="22.389"
       cy="523.90002"
       cx="407.82001"
       id="circle15"
       style="fill:url(#0)" />
    <path
       d="m 22.463,1.557 -3.51,0.201 C 18.572,1.78 17.712,2.143 17.285,2.192 L 16.213,2.846 C 12.466,3.745 13.251,1.618 10.965,5.01 L 8.18,5.979 c -2.541,3.77 -5.27,7.161 -4.832,9.568 0.04,0.217 0.21,0.387 0.428,0.426 0.218,0.039 0.435,-0.063 0.547,-0.254 0.455,-0.776 1.228,-1.948 2.33,-3.127 2.673,-2.861 5.997,-4.373 9.611,-4.373 0.301,0 0.608,0.011 0.916,0.031 l 0,21.383 c 0,3.962 2.976,7.215 7.08,7.732 0.372,0.047 0.748,0.07 1.119,0.07 3.955,0 7.275,-2.675 7.723,-6.223 0.241,-1.911 -0.358,-3.811 -1.688,-5.352 -1.329,-1.54 -3.229,-2.537 -5.35,-2.805 -1.217,-0.154 -2.449,-0.053 -3.598,0.293 l 0,-21.793 m 2.684,23.887 c 0.188,0 0.374,0.012 0.561,0.033 0.147,0.017 0.254,0.146 0.246,0.293 -0.027,0.468 0.245,0.903 0.676,1.084 0.414,0.173 0.948,0.051 1.246,-0.279 0.099,-0.109 0.267,-0.123 0.381,-0.031 0.291,0.233 0.557,0.503 0.791,0.801 0.09,0.114 0.078,0.279 -0.029,0.377 -0.342,0.313 -0.455,0.81 -0.281,1.236 0.171,0.416 0.579,0.686 1.037,0.686 0.142,0 0.304,0.106 0.32,0.246 0.043,0.379 0.042,0.763 -0.002,1.139 -0.017,0.146 -0.15,0.256 -0.293,0.244 l -0.061,-0.002 c -0.442,0 -0.853,0.272 -1.023,0.678 -0.181,0.431 -0.069,0.933 0.279,1.248 0.109,0.099 0.123,0.264 0.031,0.379 -0.238,0.296 -0.511,0.566 -0.811,0.801 -0.115,0.089 -0.278,0.076 -0.377,-0.031 -0.297,-0.327 -0.827,-0.451 -1.238,-0.283 -0.426,0.174 -0.7,0.603 -0.684,1.066 0.005,0.145 -0.103,0.271 -0.248,0.287 -0.183,0.02 -0.366,0.029 -0.549,0.029 -0.193,0 -0.385,-0.011 -0.576,-0.033 -0.146,-0.017 -0.252,-0.144 -0.244,-0.291 0.027,-0.468 -0.246,-0.905 -0.678,-1.086 -0.412,-0.173 -0.947,-0.05 -1.246,0.281 -0.099,0.109 -0.266,0.122 -0.381,0.029 -0.292,-0.235 -0.559,-0.505 -0.791,-0.801 -0.09,-0.114 -0.076,-0.279 0.031,-0.377 0.342,-0.313 0.454,-0.81 0.279,-1.236 -0.175,-0.427 -0.594,-0.695 -1.029,-0.684 -0.143,0 -0.311,-0.105 -0.326,-0.246 -0.042,-0.379 -0.042,-0.761 0.002,-1.137 0.017,-0.144 0.129,-0.251 0.287,-0.246 0.489,0 0.917,-0.265 1.09,-0.676 0.181,-0.431 0.067,-0.933 -0.281,-1.248 -0.109,-0.099 -0.122,-0.264 -0.029,-0.379 0.237,-0.295 0.509,-0.566 0.809,-0.801 0.115,-0.089 0.279,-0.076 0.377,0.031 0.297,0.327 0.83,0.45 1.238,0.283 0.426,-0.175 0.702,-0.605 0.686,-1.068 -0.005,-0.145 0.101,-0.269 0.246,-0.285 0.187,-0.021 0.377,-0.032 0.564,-0.031 m -0.014,3.342 c -0.92,0 -1.666,0.748 -1.666,1.668 0,0.92 0.746,1.668 1.666,1.668 0.92,0 1.668,-0.748 1.668,-1.668 0,-0.92 -0.748,-1.668 -1.668,-1.668"
       transform="matrix(0.93287,0,0,0.93287,385.43,501.51)"
       id="path17"
       inkscape:connector-curvature="0"
       style="fill:#50575b;stroke-width:1.31700003" />
    <circle
       r="21.431999"
       cy="523.90002"
       cx="407.82001"
       id="circle19"
       style="fill:none;stroke:url(#1);stroke-width:1.91400003;stroke-linecap:round;stroke-linejoin:round" />
  </g>
</svg>
