<?xml version="1.0" encoding="UTF-8" standalone="no"?>
<svg
   xmlns:dc="http://purl.org/dc/elements/1.1/"
   xmlns:cc="http://creativecommons.org/ns#"
   xmlns:rdf="http://www.w3.org/1999/02/22-rdf-syntax-ns#"
   xmlns:svg="http://www.w3.org/2000/svg"
   xmlns="http://www.w3.org/2000/svg"
   xmlns:sodipodi="http://sodipodi.sourceforge.net/DTD/sodipodi-0.dtd"
   xmlns:inkscape="http://www.inkscape.org/namespaces/inkscape"
   viewBox="0 0 128 128"
   id="svg2"
   version="1.1"
   inkscape:version="0.91 r"
   sodipodi:docname="fontforge.svg"
   width="128"
   height="128">
  <metadata
     id="metadata28">
    <rdf:RDF>
      <cc:Work
         rdf:about="">
        <dc:format>image/svg+xml</dc:format>
        <dc:type
           rdf:resource="http://purl.org/dc/dcmitype/StillImage" />
        <dc:title />
      </cc:Work>
    </rdf:RDF>
  </metadata>
  <sodipodi:namedview
     pagecolor="#ffffff"
     bordercolor="#666666"
     borderopacity="1"
     objecttolerance="10"
     gridtolerance="10"
     guidetolerance="10"
     inkscape:pageopacity="0"
     inkscape:pageshadow="2"
     inkscape:window-width="1366"
     inkscape:window-height="744"
     id="namedview26"
     showgrid="false"
     inkscape:zoom="2.4583333"
     inkscape:cx="35.907286"
     inkscape:cy="35.812341"
     inkscape:window-x="0"
     inkscape:window-y="24"
     inkscape:window-maximized="1"
     inkscape:current-layer="svg2" />
  <defs
     id="defs4">
    <linearGradient
       id="0"
       x1="56.875999"
       y1="16.999001"
       x2="56.419998"
       y2="-4.5359998"
       gradientUnits="userSpaceOnUse"
       gradientTransform="matrix(1.03003,0,0,1.03003,-29.531,26.662)">
      <stop
         stop-color="#d3d3d3"
         id="stop7" />
      <stop
         offset="1"
         stop-color="#fcf9f9"
         id="stop9" />
    </linearGradient>
    <linearGradient
       gradientUnits="userSpaceOnUse"
       y2="-25.26"
       x2="51.490002"
       y1="19.326"
       x1="52.040001"
       id="1"
       gradientTransform="matrix(2.4945995,0,0,2.4945995,-62.532067,73.167906)">
      <stop
         stop-color="#1f1f1f"
         id="stop12" />
      <stop
         offset="1"
         stop-color="#656565"
         id="stop14" />
    </linearGradient>
  </defs>
  <rect
     style="fill:url(#1);fill-rule:evenodd"
     id="rect18"
     rx="6.9724059"
     y="8.6201439"
     x="9.9609938"
     height="112.24451"
     width="108.49264" />
  <path
     style="fill:#ffffff;fill-opacity:0.947"
     inkscape:connector-curvature="0"
     id="path20"
     d="m 19.455441,91.665355 21.510934,-57.044005 8.287057,0 21.510934,57.044005 -8.127407,0 -5.498097,-15.456524 -23.980585,0 -5.577925,15.456524 -8.127406,0 m 16.172488,-22.309208 18.961452,0 -9.322318,-25.734281 -0.319307,0 -9.322321,25.734281" />
  <path
     style="fill:#f5f5f5"
     inkscape:connector-curvature="0"
     id="path22"
     d="m 88.515934,92.940108 q -6.214046,0 -10.437403,-3.584757 -4.14353,-3.584732 -4.14353,-9.481963 0,-6.37371 4.939309,-9.958442 4.939305,-3.664557 12.188611,-3.664557 6.453531,0 10.597059,2.389805 l 0,-1.115077 q 0,-4.303181 -2.948616,-6.85266 -2.948616,-2.629304 -7.249305,-2.629304 -3.188099,0 -5.814913,1.514226 -2.549482,1.514202 -3.504912,4.143506 l -6.693011,-2.868778 q 1.354568,-3.504907 5.338444,-6.453528 3.983874,-3.028443 10.517231,-3.028443 7.483802,0 12.428102,4.383013 4.93931,4.383005 4.93931,12.348271 l 0,23.583935 -7.01233,0 0,-5.418257 -0.31931,0 q -4.38301,6.69301 -12.82723,6.69301 m 1.194914,-6.69301 q 4.54017,0 8.207231,-3.345257 3.744395,-3.425083 3.744395,-8.047586 -3.108274,-2.549479 -9.322319,-2.549479 -5.338443,0 -8.047577,2.310003 -2.709135,2.309981 -2.709135,5.418259 0,2.868803 2.469654,4.540184 2.469654,1.673876 5.657751,1.673876" />
</svg>
