<?xml version="1.0" encoding="UTF-8" standalone="no"?>
<svg
   xmlns:dc="http://purl.org/dc/elements/1.1/"
   xmlns:cc="http://creativecommons.org/ns#"
   xmlns:rdf="http://www.w3.org/1999/02/22-rdf-syntax-ns#"
   xmlns:svg="http://www.w3.org/2000/svg"
   xmlns="http://www.w3.org/2000/svg"
   xmlns:sodipodi="http://sodipodi.sourceforge.net/DTD/sodipodi-0.dtd"
   xmlns:inkscape="http://www.inkscape.org/namespaces/inkscape"
   width="128"
   height="128"
   version="1.1"
   id="svg2"
   inkscape:version="0.91 r"
   sodipodi:docname="geany.svg">
  <sodipodi:namedview
     pagecolor="#ffffff"
     bordercolor="#666666"
     borderopacity="1"
     objecttolerance="10"
     gridtolerance="10"
     guidetolerance="10"
     inkscape:pageopacity="0"
     inkscape:pageshadow="2"
     inkscape:window-width="1366"
     inkscape:window-height="744"
     id="namedview17"
     showgrid="false"
     inkscape:zoom="1.84375"
     inkscape:cx="54.508475"
     inkscape:cy="64"
     inkscape:window-x="0"
     inkscape:window-y="24"
     inkscape:window-maximized="1"
     inkscape:current-layer="svg2" />
  <title
     id="title4">Geany Icon</title>
  <desc
     id="desc6">This icon is a part of Clarity icon theme for gtk</desc>
  <metadata
     id="metadata8">
    <rdf:RDF>
      <cc:Work
         rdf:about="">
        <dc:title>Geany Icon</dc:title>
        <dc:description>This icon is a part of Clarity icon theme for gtk</dc:description>
        <dc:creator>
          <cc:Agent>
            <dc:title>Jakub Jankiewicz</dc:title>
          </cc:Agent>
        </dc:creator>
        <dc:rights>
          <cc:Agent>
            <dc:title>Jakub Jankiewicz</dc:title>
          </cc:Agent>
        </dc:rights>
        <dc:date>2010</dc:date>
        <dc:format>image/svg+xml</dc:format>
        <dc:type
           rdf:resource="http://purl.org/dc/dcmitype/StillImage" />
        <cc:license
           rdf:resource="http://www.gnu.org/copyleft/gpl.html" />
      </cc:Work>
    </rdf:RDF>
  </metadata>
  <defs
     id="defs10">
    <linearGradient
       x1="0"
       y1="128"
       x2="128"
       y2="0"
       id="gradient"
       gradientUnits="userSpaceOnUse">
      <stop
         id="start"
         style="stop-color:#dbdbdb;stop-opacity:1"
         offset="0" />
      <stop
         id="stop"
         style="stop-color:#757575;stop-opacity:1"
         offset="1" />
    </linearGradient>
    <linearGradient
       id="0"
       x1="-48.953"
       y1="-5.178"
       x2="-49.554"
       y2="-30.891"
       gradientUnits="userSpaceOnUse">
      <stop
         id="stop3352"
         stop-color="#566069" />
      <stop
         id="stop3354"
         stop-color="#6c7884"
         offset="1" />
    </linearGradient>
    <linearGradient
       id="1"
       x1="43.691"
       y1="15.429"
       x2="42.36"
       y2="-4.937"
       gradientUnits="userSpaceOnUse">
      <stop
         id="stop3357"
         stop-color="#d5dbff" />
      <stop
         id="stop3359"
         stop-color="#f9ffff"
         offset="1" />
    </linearGradient>
    <linearGradient
       id="2"
       x1="-56.27"
       y1="3.509"
       x2="-56.38"
       y2="-26.783"
       gradientUnits="userSpaceOnUse">
      <stop
         id="stop3362"
         stop-color="#ff9300" />
      <stop
         id="stop3364"
         stop-color="#ffd702"
         offset="1" />
    </linearGradient>
  </defs>
  <g
     id="g3366"
     transform="matrix(2.4238513,0,0,2.4238513,-73.38333,77.525453)"
     style="enable-background:new">
    <rect
       id="rect3368"
       rx="1.217"
       width="40.626999"
       height="31.200001"
       x="-76.550003"
       y="-28.459999"
       transform="matrix(-0.99998,-0.00628,-0.00628,0.99998,0,0)"
       style="fill:url(#0)" />
    <rect
       id="rect3370"
       rx="1.217"
       transform="matrix(-0.98432,-0.17638,-0.17638,0.98432,0,0)"
       width="40.626999"
       height="31.200001"
       x="-77.260002"
       y="-27.351"
       style="fill:url(#2)" />
    <path
       id="path3372"
       d="m 67.797,-4.321 -1.083,-1.124 c -0.135,-0.14 -0.535,0.014 -1.01,0.351 L 65.24,-5.576 c 0.354,-0.457 0.524,-0.851 0.389,-0.991 l -2.652,-2.754 c -1.598,-0.743 -3.349,-1.1 -5.11,-1.044 l -0.889,0.029 c -0.148,0.005 -0.279,0.096 -0.336,0.233 -0.056,0.137 -0.025,0.295 0.077,0.401 0.042,0.044 0.094,0.076 0.151,0.095 l 1,0.336 c 1.137,0.381 2.055,1.231 2.522,2.335 l 0.03,0.071 0.646,0.671 -4.637,4.466 c -0.156,-0.124 -0.392,-0.119 -0.569,0.027 l -6.03,4.458 c -0.531,0.436 -0.879,1.054 -0.959,1.701 -0.081,0.648 0.113,1.265 0.535,1.703 0.422,0.438 1.032,0.655 1.682,0.599 0.65,-0.056 1.279,-0.381 1.736,-0.895 l 4.683,-5.853 c 0.152,-0.172 0.166,-0.407 0.048,-0.568 l 4.637,-4.466 0.877,0.91 c 0.135,0.14 0.535,-0.014 1.01,-0.351 l 0.464,0.482 c -0.354,0.457 -0.524,0.851 -0.389,0.991 l 1.083,1.124 c 0.192,0.199 0.919,-0.189 1.624,-0.868 0.705,-0.679 1.12,-1.39 0.928,-1.59"
       inkscape:connector-curvature="0"
       style="fill-opacity:0.73699999" />
    <path
       id="path3374"
       d="M 43.005,-5.0361 A 10.466615,10.466615 0 0 0 32.683,5.57425 10.466615,10.466615 0 0 0 43.29335,15.893999 10.466615,10.466615 0 0 0 53.61535,5.2859 10.466615,10.466615 0 0 0 43.005,-5.0361 m -3.082,6.091 7.709,4.244 -7.529,4.555 -0.18,-8.799 z"
       inkscape:connector-curvature="0"
       style="fill:url(#1)" />
  </g>
</svg>
