<?xml version="1.0" encoding="UTF-8" standalone="no"?>
<!-- Created with Inkscape (http://www.inkscape.org/) -->

<svg
   xmlns:dc="http://purl.org/dc/elements/1.1/"
   xmlns:cc="http://creativecommons.org/ns#"
   xmlns:rdf="http://www.w3.org/1999/02/22-rdf-syntax-ns#"
   xmlns:svg="http://www.w3.org/2000/svg"
   xmlns="http://www.w3.org/2000/svg"
   xmlns:xlink="http://www.w3.org/1999/xlink"
   xmlns:sodipodi="http://sodipodi.sourceforge.net/DTD/sodipodi-0.dtd"
   xmlns:inkscape="http://www.inkscape.org/namespaces/inkscape"
   version="1.1"
   width="100%"
   height="100%"
   viewBox="0 0 512 512"
   id="svg2"
   inkscape:version="0.91 r"
   sodipodi:docname="emerillon.svg">
  <sodipodi:namedview
     pagecolor="#ffffff"
     bordercolor="#666666"
     borderopacity="1"
     objecttolerance="10"
     gridtolerance="10"
     guidetolerance="10"
     inkscape:pageopacity="0"
     inkscape:pageshadow="2"
     inkscape:window-width="1366"
     inkscape:window-height="744"
     id="namedview42"
     showgrid="false"
     inkscape:zoom="0.4609375"
     inkscape:cx="256"
     inkscape:cy="256"
     inkscape:window-x="0"
     inkscape:window-y="24"
     inkscape:window-maximized="1"
     inkscape:current-layer="svg2" />
  <metadata
     id="metadata82">
    <rdf:RDF>
      <cc:Work
         rdf:about="">
        <dc:format>image/svg+xml</dc:format>
        <dc:type
           rdf:resource="http://purl.org/dc/dcmitype/StillImage" />
        <dc:title />
      </cc:Work>
    </rdf:RDF>
  </metadata>
  <defs
     id="defs80">
    <linearGradient
       inkscape:collect="always"
       id="linearGradient3386">
      <stop
         style="stop-color:#e9b96e;stop-opacity:1;"
         offset="0"
         id="stop3388" />
      <stop
         id="stop3394"
         offset="0.30604443"
         style="stop-color:#ffccaa;stop-opacity:1" />
      <stop
         style="stop-color:#d45500;stop-opacity:1"
         offset="0.73251188"
         id="stop3396" />
      <stop
         style="stop-color:#e9b96e;stop-opacity:0;"
         offset="1"
         id="stop3390" />
    </linearGradient>
    <linearGradient
       inkscape:collect="always"
       id="linearGradient3374">
      <stop
         style="stop-color:#3465a4;stop-opacity:1;"
         offset="0"
         id="stop3376" />
      <stop
         id="stop3382"
         offset="0.16684265"
         style="stop-color:#80b3ff;stop-opacity:1" />
      <stop
         style="stop-color:#003380;stop-opacity:1"
         offset="0.6259371"
         id="stop3384" />
      <stop
         style="stop-color:#3465a4;stop-opacity:0;"
         offset="1"
         id="stop3378" />
    </linearGradient>
    <linearGradient
       inkscape:collect="always"
       id="linearGradient3362">
      <stop
         style="stop-color:#4e9a06;stop-opacity:1;"
         offset="0"
         id="stop3364" />
      <stop
         id="stop3370"
         offset="0.13673241"
         style="stop-color:#b3ff80;stop-opacity:1" />
      <stop
         style="stop-color:#338000;stop-opacity:1"
         offset="0.84502757"
         id="stop3372" />
      <stop
         style="stop-color:#4e9a06;stop-opacity:0;"
         offset="1"
         id="stop3366" />
    </linearGradient>
    <linearGradient
       inkscape:collect="always"
       xlink:href="#linearGradient3362"
       id="linearGradient3368"
       x1="-73.762711"
       y1="-84.610168"
       x2="574.91528"
       y2="583.5932"
       gradientUnits="userSpaceOnUse" />
    <linearGradient
       inkscape:collect="always"
       xlink:href="#linearGradient3374"
       id="linearGradient3380"
       x1="-164.88136"
       y1="208.27118"
       x2="496.81357"
       y2="297.22034"
       gradientUnits="userSpaceOnUse" />
    <linearGradient
       inkscape:collect="always"
       xlink:href="#linearGradient3386"
       id="linearGradient3392"
       x1="-56.40678"
       y1="225.62712"
       x2="748.47455"
       y2="323.25424"
       gradientUnits="userSpaceOnUse" />
  </defs>
  <path
     d="m 497.9839,259.55848 c 0,134.08048 -108.69501,242.76441 -242.7644,242.76441 -134.08048,0 -242.764415,-108.69502 -242.764415,-242.76441 0,-134.08048 108.695025,-242.764412 242.764415,-242.764412 134.08048,0 242.7644,108.695022 242.7644,242.764412"
     inkscape:connector-curvature="0"
     id="path4"
     style="fill:url(#linearGradient3368);fill-rule:evenodd;fill-opacity:1" />
  <path
     d="m 459.84472,128.8827 -209.638,120.11792 188.2561,169.77981 c 37.06566,-42.62294 59.50555,-98.29241 59.50555,-159.21085 0,-48.10928 -13.98251,-92.96912 -38.12254,-130.68688"
     inkscape:connector-curvature="0"
     id="path6"
     style="fill:url(#linearGradient3392);fill-opacity:1" />
  <path
     d="m 64.135402,109.85191 c -32.361194,41.24444 -51.673663,93.2242 -51.673663,149.71767 0,38.9044 9.168266,75.63514 25.438693,108.22922 L 224.67044,264.31618 228.06736,240.50663 64.143165,109.85302"
     inkscape:connector-curvature="0"
     id="path8"
     style="fill:url(#linearGradient3380);fill-opacity:1" />
  <path
     d="M 85.273313,86.218699 C 75.742402,95.565517 66.96562,105.70529 59.072727,116.50935 L 211.59621,246.91898 28.086717,345.41102 c 4.993916,13.2051 11.112378,25.85458 18.230066,37.85085 L 240.81666,272.14919 424.45922,433.54482 c 9.92018,-9.6518 19.04187,-20.10653 27.20537,-31.32981 L 275.19738,253.78382 470.38484,147.04067 c -5.72809,-10.9316 -12.27685,-21.35417 -19.54647,-31.22999 L 245.39247,227.99911 85.283303,86.222026"
     inkscape:connector-curvature="0"
     id="path10"
     style="color:#000000;fill:#fae597" />
  <text
     x="-1188.17"
     y="289.39001"
     id="text14"
     style="font-size:200px;line-height:125%;letter-spacing:0;word-spacing:0;font-family:Gentium Book Basic">
    <tspan
       x="-1188.17"
       y="289.39001"
       id="tspan16" />
  </text>
  <text
     x="729.64001"
     y="231.36"
     id="text30"
     style="font-size:129.22999573px;line-height:125%;letter-spacing:0;word-spacing:0;font-family:Gentium Book Basic">
    <tspan
       x="729.64001"
       y="231.36"
       id="tspan32" />
  </text>
  <text
     x="378.91"
     y="579.26001"
     transform="scale(4.0128,0.2492)"
     id="text34"
     style="font-size:46.95399857px;text-anchor:middle;font-family:Arial" />
  <text
     x="1310.91"
     y="151.36"
     id="text36"
     style="font-size:129.22999573px;line-height:125%;letter-spacing:0;word-spacing:0;font-family:Gentium Book Basic">
    <tspan
       x="1310.91"
       y="151.36"
       id="tspan38" />
  </text>
  <text
     x="523.76001"
     y="258.22"
     transform="scale(4.0128,0.2492)"
     id="text40"
     style="font-size:46.95399857px;text-anchor:middle;font-family:Arial" />
  <text
     x="239.33"
     y="-29.9"
     id="text42"
     style="font-size:129.22999573px;line-height:125%;letter-spacing:0;word-spacing:0;font-family:Gentium Book Basic">
    <tspan
       x="239.33"
       y="-29.9"
       id="tspan44" />
  </text>
  <text
     x="256.72"
     y="-469.13"
     transform="scale(4.0128,0.2492)"
     id="text46"
     style="font-size:46.95399857px;text-anchor:middle;font-family:Arial" />
  <text
     x="1337.38"
     y="-246.37"
     id="text48"
     style="font-size:129.22999573px;line-height:125%;letter-spacing:0;word-spacing:0;font-family:Gentium Book Basic">
    <tspan
       x="1337.38"
       y="-246.37"
       id="tspan50" />
  </text>
  <text
     x="530.35999"
     y="-1337.8"
     transform="scale(4.0128,0.2492)"
     id="text52"
     style="font-size:46.95399857px;text-anchor:middle;font-family:Arial" />
  <text
     x="1918.65"
     y="-326.37"
     id="text54"
     style="font-size:129.22999573px;line-height:125%;letter-spacing:0;word-spacing:0;font-family:Gentium Book Basic">
    <tspan
       x="1918.65"
       y="-326.37"
       id="tspan56" />
  </text>
  <text
     x="675.21002"
     y="-1658.83"
     transform="scale(4.0128,0.2492)"
     id="text58"
     style="font-size:46.95399857px;text-anchor:middle;font-family:Arial" />
  <text
     x="1529.53"
     y="-798.77002"
     id="text60"
     style="font-size:129.22999573px;line-height:125%;letter-spacing:0;word-spacing:0;font-family:Gentium Book Basic">
    <tspan
       x="1529.53"
       y="-798.77002"
       id="tspan62" />
  </text>
  <text
     x="578.23999"
     y="-3554.48"
     transform="scale(4.0128,0.2492)"
     id="text64"
     style="font-size:46.95399857px;text-anchor:middle;font-family:Arial" />
  <text
     x="2110.79"
     y="-878.78003"
     id="text66"
     style="font-size:129.22999573px;line-height:125%;letter-spacing:0;word-spacing:0;font-family:Gentium Book Basic">
    <tspan
       x="2110.79"
       y="-878.78003"
       id="tspan68" />
  </text>
  <text
     x="723.09003"
     y="-3875.52"
     transform="scale(4.0128,0.2492)"
     id="text70"
     style="font-size:46.95399857px;text-anchor:middle;font-family:Arial" />
  <text
     x="277.98999"
     y="535.94"
     id="text72"
     style="font-size:208.33000183px;line-height:125%;letter-spacing:0;word-spacing:0;font-family:Gentium Book Basic">
    <tspan
       x="277.98999"
       y="535.94"
       id="tspan74" />
  </text>
  <path
     d="m 256.50848,86.031933 c -76.40591,0 -138.31693,61.944297 -138.31693,138.350207 0,76.40591 138.31693,233.17138 138.31693,233.17138 0,0 138.3502,-156.77102 138.3502,-233.17138 0,-76.40591 -61.94429,-138.350207 -138.3502,-138.350207 m 0,42.870257 c 52.74941,0 95.55313,42.75827 95.55313,95.51988 0,52.75606 -42.80039,95.51986 -95.55313,95.51986 -52.74941,0 -95.50877,-42.75825 -95.50877,-95.50877 0,-52.75607 42.76491,-95.50879 95.51986,-95.50879 m -2.39105,30.53243 c -34.52377,0 -62.51543,27.99166 -62.51543,62.52653 0,34.52378 27.99166,62.52653 62.52652,62.52653 34.52379,0 62.52654,-27.99165 62.52654,-62.51544 0,-34.52378 -27.99166,-62.51543 -62.51544,-62.51543"
     inkscape:connector-curvature="0"
     id="path76"
     style="fill:#ffffff" />
</svg>
