<?xml version="1.0" encoding="UTF-8" standalone="no"?>
<svg
   xmlns:dc="http://purl.org/dc/elements/1.1/"
   xmlns:cc="http://creativecommons.org/ns#"
   xmlns:rdf="http://www.w3.org/1999/02/22-rdf-syntax-ns#"
   xmlns:svg="http://www.w3.org/2000/svg"
   xmlns="http://www.w3.org/2000/svg"
   xmlns:sodipodi="http://sodipodi.sourceforge.net/DTD/sodipodi-0.dtd"
   xmlns:inkscape="http://www.inkscape.org/namespaces/inkscape"
   viewBox="0 0 128 128"
   id="svg2"
   version="1.1"
   inkscape:version="0.91 r"
   sodipodi:docname="gnome-sudoku.svg"
   width="128"
   height="128">
  <metadata
     id="metadata29">
    <rdf:RDF>
      <cc:Work
         rdf:about="">
        <dc:format>image/svg+xml</dc:format>
        <dc:type
           rdf:resource="http://purl.org/dc/dcmitype/StillImage" />
        <dc:title />
      </cc:Work>
    </rdf:RDF>
  </metadata>
  <sodipodi:namedview
     pagecolor="#ffffff"
     bordercolor="#666666"
     borderopacity="1"
     objecttolerance="10"
     gridtolerance="10"
     guidetolerance="10"
     inkscape:pageopacity="0"
     inkscape:pageshadow="2"
     inkscape:window-width="1366"
     inkscape:window-height="744"
     id="namedview27"
     showgrid="false"
     inkscape:zoom="1.7383042"
     inkscape:cx="35.784636"
     inkscape:cy="-7.147026"
     inkscape:window-x="0"
     inkscape:window-y="24"
     inkscape:window-maximized="1"
     inkscape:current-layer="svg2" />
  <defs
     id="defs4">
    <linearGradient
       gradientUnits="userSpaceOnUse"
       y2="-29.389"
       x2="-127.3"
       y1="69.300003"
       x1="-126.09"
       id="0">
      <stop
         stop-color="#197cf1"
         id="stop7" />
      <stop
         offset="1"
         stop-color="#20bcfa"
         id="stop9" />
    </linearGradient>
  </defs>
  <g
     transform="matrix(1.143996,0,0,1.1057503,212.19716,42.957922)"
     id="g11">
    <rect
       y="-30.750999"
       x="-176.95"
       height="99.599998"
       width="96.269997"
       rx="2.789"
       id="rect13"
       style="fill:url(#0);fill-rule:evenodd" />
    <path
       d="m 437.53,16.516 0,170.01 c 0,4.971 -4.03,9 -9,9 -4.971,0 -9,-4.03 -9,-9 l 0,-23.673 -119.34,0 0,119.34 25.329,0 c 4.971,0 9,4.03 9,9 0,4.971 -4.03,9 -9,9 l -25.329,0 0,119.34 25.329,0 c 4.971,0 9,4.03 9,9 0,4.971 -4.03,9 -9,9 l -34.14,0 c -0.063,10e-5 -0.127,0.002 -0.191,0.002 -0.063,0 -0.127,-1e-4 -0.191,-0.002 l -136.95,0 c -0.125,0.003 -0.254,0.003 -0.382,0 l -137.12,0 c -4.97,0 -9,-4.03 -9,-8.999 L 7.544,291.794 c -0.013,-0.2 -0.02,-0.4 -0.02,-0.604 0,-0.202 0.007,-0.402 0.02,-0.602 L 7.543,154.278 c -0.006,-0.142 -0.001,-0.283 -0.001,-0.427 0,-0.143 0.003,-0.284 0.001,-0.426 L 7.542,16.515 c 0,-2.388 0.948,-4.677 2.636,-6.364 1.688,-1.689 3.977,-2.637 6.364,-2.637 l 412.02,0 c 4.97,0 9,4.03 9,9 m -292.68,283.68 -119.32,0 0.009,119.34 119.31,0 0,-119.34 z m 0,-137.34 -119.33,0 0.008,119.34 119.32,0 z m 0,-137.34 -119.34,0 0.009,119.34 119.33,0 0,-119.34 m 137.34,274.68 -119.34,0 0,119.34 119.34,0 z m 0,-137.34 -119.34,0 0,119.34 119.34,0 z m 0,-137.34 -119.34,0 0,119.34 119.34,0 z m 137.34,0 -119.34,0 0,119.34 119.34,0 0,-119.34 z"
       transform="matrix(0.2163,0,0,0.22379,-176.95,-30.751)"
       id="path15"
       inkscape:connector-curvature="0"
       style="fill-opacity:0.44800002" />
    <path
       d="m 437.53,16.516 0,170.01 c 0,4.971 -4.03,9 -9,9 -4.971,0 -9,-4.03 -9,-9 l 0,-23.673 -119.34,0 0,119.34 25.329,0 c 4.971,0 9,4.03 9,9 0,4.971 -4.03,9 -9,9 l -25.329,0 0,119.34 25.329,0 c 4.971,0 9,4.03 9,9 0,4.971 -4.03,9 -9,9 l -34.14,0 c -0.063,10e-5 -0.127,0.002 -0.191,0.002 -0.063,0 -0.127,-1e-4 -0.191,-0.002 l -136.95,0 c -0.125,0.003 -0.254,0.003 -0.382,0 l -137.12,0 c -4.97,0 -9,-4.03 -9,-8.999 L 7.544,291.794 c -0.013,-0.2 -0.02,-0.4 -0.02,-0.604 0,-0.202 0.007,-0.402 0.02,-0.602 L 7.543,154.278 c -0.006,-0.142 -0.001,-0.283 -0.001,-0.427 0,-0.143 0.003,-0.284 0.001,-0.426 L 7.542,16.515 c 0,-2.388 0.948,-4.677 2.636,-6.364 1.688,-1.689 3.977,-2.637 6.364,-2.637 l 412.02,0 c 4.97,0 9,4.03 9,9 m -292.68,283.68 -119.32,0 0.009,119.34 119.31,0 0,-119.34 z m 0,-137.34 -119.33,0 0.008,119.34 119.32,0 z m 0,-137.34 -119.34,0 0.009,119.34 119.33,0 0,-119.34 m 137.34,274.68 -119.34,0 0,119.34 119.34,0 z m 0,-137.34 -119.34,0 0,119.34 119.34,0 z m 0,-137.34 -119.34,0 0,119.34 119.34,0 z m 137.34,0 -119.34,0 0,119.34 119.34,0 0,-119.34 z"
       transform="matrix(-0.2163,0,0,-0.22379,-80.68,68.844)"
       id="path17"
       inkscape:connector-curvature="0"
       style="fill:#115c89" />
    <g
       transform="matrix(0.34328,0,0,0.35515,-93.38,-7.43)"
       id="g19">
      <path
         d="m -183.23,17.241 -7.507,0 0,-46.51 -10.852,4.733 -2.856,-6.365 16.401,-7.67 4.814,0 0,55.812"
         id="path21"
         inkscape:connector-curvature="0"
         style="fill:#ffffff;fill-opacity:0.88899997" />
      <path
         d="m -106.01,82.24 q -6.528,0 -11.995,-5.304 -5.467,-5.385 -5.467,-12.974 0,-7.425 5.63,-13.06 5.712,-5.63 13.463,-5.63 8.323,0 13.708,5.712 5.467,5.63 5.467,12.974 0,7.589 -6.528,17.14 l -15.177,22.602 -6.04,-4.161 13.3,-18.441 -0.163,-0.163 q -2.04,1.306 -6.201,1.306 m 1.632,-29.701 q -4.733,0 -8.16,3.264 -3.345,3.264 -3.345,8.08 0,4.733 3.345,8.08 3.427,3.264 8.16,3.264 4.733,0 8.16,-3.264 3.427,-3.345 3.427,-8.08 0,-4.814 -3.427,-8.08 -3.345,-3.264 -8.16,-3.264"
         id="path23"
         inkscape:connector-curvature="0"
         style="fill:#e6f6fe" />
    </g>
    <path
       d="m -156.28,60.5 -2.577,0 0,-16.518 -3.725,1.681 -0.98,-2.26 5.63,-2.724 1.653,0 0,19.822"
       id="path25"
       inkscape:connector-curvature="0"
       style="fill:#e6f6fe" />
  </g>
</svg>
