<?xml version="1.0" encoding="UTF-8" standalone="no"?>
<svg
   xmlns:dc="http://purl.org/dc/elements/1.1/"
   xmlns:cc="http://creativecommons.org/ns#"
   xmlns:rdf="http://www.w3.org/1999/02/22-rdf-syntax-ns#"
   xmlns:svg="http://www.w3.org/2000/svg"
   xmlns="http://www.w3.org/2000/svg"
   xmlns:sodipodi="http://sodipodi.sourceforge.net/DTD/sodipodi-0.dtd"
   xmlns:inkscape="http://www.inkscape.org/namespaces/inkscape"
   viewBox="0 0 128 128"
   id="svg2"
   version="1.1"
   inkscape:version="0.91 r"
   width="100%"
   height="100%"
   sodipodi:docname="gnome-subtitles.svg">
  <metadata
     id="metadata65">
    <rdf:RDF>
      <cc:Work
         rdf:about="">
        <dc:format>image/svg+xml</dc:format>
        <dc:type
           rdf:resource="http://purl.org/dc/dcmitype/StillImage" />
        <dc:title />
      </cc:Work>
    </rdf:RDF>
  </metadata>
  <sodipodi:namedview
     pagecolor="#ffffff"
     bordercolor="#666666"
     borderopacity="1"
     objecttolerance="10"
     gridtolerance="10"
     guidetolerance="10"
     inkscape:pageopacity="0"
     inkscape:pageshadow="2"
     inkscape:window-width="1366"
     inkscape:window-height="744"
     id="namedview63"
     showgrid="false"
     inkscape:zoom="1.7383042"
     inkscape:cx="155.49125"
     inkscape:cy="-1.9112116"
     inkscape:window-x="0"
     inkscape:window-y="24"
     inkscape:window-maximized="1"
     inkscape:current-layer="svg2"
     showguides="true"
     inkscape:guide-bbox="true" />
  <defs
     id="defs4">
    <linearGradient
       id="linearGradient3764"
       x1="1"
       x2="47"
       gradientUnits="userSpaceOnUse"
       gradientTransform="matrix(0,-1,1,0,-1.5e-6,47.999998)">
      <stop
         stop-color="#3d3d3d"
         stop-opacity="1"
         id="stop7" />
      <stop
         offset="1"
         stop-color="#474747"
         stop-opacity="1"
         id="stop9" />
    </linearGradient>
    <clipPath
       id="clipPath-156864852">
      <g
         transform="translate(0,-1004.3622)"
         id="g12">
        <path
           d="m -24,13 c 0,1.105 -0.672,2 -1.5,2 -0.828,0 -1.5,-0.895 -1.5,-2 0,-1.105 0.672,-2 1.5,-2 0.828,0 1.5,0.895 1.5,2 z"
           transform="matrix(15.333333,0,0,11.5,414.99999,878.8622)"
           id="path14"
           inkscape:connector-curvature="0"
           style="fill:#1890d0" />
      </g>
    </clipPath>
    <clipPath
       id="clipPath-165128749">
      <g
         transform="translate(0,-1004.3622)"
         id="g17">
        <path
           d="m -24,13 c 0,1.105 -0.672,2 -1.5,2 -0.828,0 -1.5,-0.895 -1.5,-2 0,-1.105 0.672,-2 1.5,-2 0.828,0 1.5,0.895 1.5,2 z"
           transform="matrix(15.333333,0,0,11.5,414.99999,878.8622)"
           id="path19"
           inkscape:connector-curvature="0"
           style="fill:#1890d0" />
      </g>
    </clipPath>
    <linearGradient
       gradientTransform="matrix(2.6762505,0,0,2.9140363,-934.425,-1471.0572)"
       gradientUnits="userSpaceOnUse"
       y2="507.87"
       x2="0"
       y1="546.8"
       id="0">
      <stop
         id="stop3359"
         stop-color="#4fd127" />
      <stop
         id="stop3361"
         stop-color="#c6f61a"
         offset="1" />
    </linearGradient>
    <linearGradient
       gradientUnits="userSpaceOnUse"
       y2="22.749"
       x2="34.15"
       y1="46.44"
       x1="34.17"
       id="1"
       gradientTransform="matrix(1.71427,0,0,1.71427,266.81366,-145.346)">
      <stop
         id="stop3364"
         stop-color="#1074f5" />
      <stop
         id="stop3366"
         stop-color="#02befd"
         offset="1" />
    </linearGradient>
  </defs>
  <g
     id="g33"
     transform="translate(0,80)" />
  <path
     style="fill:url(#0)"
     inkscape:connector-curvature="0"
     d="M 105.52286,23.228953 C 94.578736,13.528487 80.044646,8.1890895 64.606819,8.1890895 49.160667,8.1890895 34.634851,13.528487 23.690766,23.228953 12.655421,33.01233 6.5698505,46.045774 6.5698505,59.941484 c 0,13.257304 5.5383725,25.735251 15.6451165,35.352805 -0.182335,0.447711 -0.323555,0.912011 -0.4227,1.40947 l -3.316411,17.775891 c -0.398041,2.11421 0.132517,3.37444 0.646681,4.0543 0.596965,0.78765 1.475799,1.22707 2.479029,1.22707 0.762752,0 1.575281,-0.24042 2.420988,-0.72132 l 19.309557,-10.91923 c 6.682537,2.34634 13.87082,3.57341 21.266393,3.57341 15.446142,0 29.971968,-5.33941 40.916086,-15.039869 11.0353,-9.783372 17.12087,-22.81682 17.12087,-36.712527 0,-13.887416 -6.07729,-26.929154 -17.12087,-36.712531"
     id="path3372" />
  <g
     id="g3352"
     style="fill:#009136;fill-opacity:0.38797814">
    <rect
       ry="2.8763666"
       y="58.391933"
       x="25.327971"
       height="5.7527332"
       width="78.237167"
       id="rect3410"
       style="opacity:1;fill:#009136;fill-opacity:0.38797814;fill-rule:nonzero;stroke:none;stroke-width:2;stroke-miterlimit:4;stroke-dasharray:none;stroke-opacity:1" />
    <rect
       ry="2.8763666"
       y="75.650131"
       x="25.315254"
       height="5.7527332"
       width="78.237167"
       id="rect3410-1"
       style="opacity:1;fill:#009136;fill-opacity:0.38797814;fill-rule:nonzero;stroke:none;stroke-width:2;stroke-miterlimit:4;stroke-dasharray:none;stroke-opacity:1" />
    <rect
       ry="2.8763666"
       y="41.709003"
       x="25.312031"
       height="5.7527332"
       width="78.237167"
       id="rect3410-3"
       style="opacity:1;fill:#009136;fill-opacity:0.38797814;fill-rule:nonzero;stroke:none;stroke-width:2;stroke-miterlimit:4;stroke-dasharray:none;stroke-opacity:1" />
  </g>
</svg>
