<?xml version="1.0" encoding="UTF-8" standalone="no"?>
<svg
   xmlns:dc="http://purl.org/dc/elements/1.1/"
   xmlns:cc="http://creativecommons.org/ns#"
   xmlns:rdf="http://www.w3.org/1999/02/22-rdf-syntax-ns#"
   xmlns:svg="http://www.w3.org/2000/svg"
   xmlns="http://www.w3.org/2000/svg"
   xmlns:xlink="http://www.w3.org/1999/xlink"
   xmlns:sodipodi="http://sodipodi.sourceforge.net/DTD/sodipodi-0.dtd"
   xmlns:inkscape="http://www.inkscape.org/namespaces/inkscape"
   viewBox="0 0 128 128"
   id="svg2"
   version="1.1"
   inkscape:version="0.91 r"
   width="100%"
   height="100%"
   sodipodi:docname="grub-customizer.svg">
  <metadata
     id="metadata126">
    <rdf:RDF>
      <cc:Work
         rdf:about="">
        <dc:format>image/svg+xml</dc:format>
        <dc:type
           rdf:resource="http://purl.org/dc/dcmitype/StillImage" />
        <dc:title />
      </cc:Work>
    </rdf:RDF>
  </metadata>
  <sodipodi:namedview
     pagecolor="#ffffff"
     bordercolor="#666666"
     borderopacity="1"
     objecttolerance="10"
     gridtolerance="10"
     guidetolerance="10"
     inkscape:pageopacity="0"
     inkscape:pageshadow="2"
     inkscape:window-width="1366"
     inkscape:window-height="744"
     id="namedview124"
     showgrid="false"
     inkscape:zoom="3.1979167"
     inkscape:cx="57.758612"
     inkscape:cy="59.200992"
     inkscape:window-x="0"
     inkscape:window-y="24"
     inkscape:window-maximized="1"
     inkscape:current-layer="svg2">
    <inkscape:grid
       type="xygrid"
       id="grid3103"
       empspacing="5"
       visible="true"
       enabled="true"
       snapvisiblegridlinesonly="true" />
  </sodipodi:namedview>
  <defs
     id="defs4">
    <linearGradient
       id="linearGradient3764"
       x1="1"
       x2="47"
       gradientUnits="userSpaceOnUse"
       gradientTransform="matrix(0,-1,1,0,-1.5e-6,47.999998)">
      <stop
         stop-color="#e4e4e4"
         stop-opacity="1"
         id="stop7" />
      <stop
         offset="1"
         stop-color="#eee"
         stop-opacity="1"
         id="stop9" />
    </linearGradient>
    <clipPath
       id="clipPath-417599645">
      <g
         transform="translate(0,-1004.3622)"
         id="g17">
        <path
           d="m -24,13 c 0,1.105 -0.672,2 -1.5,2 -0.828,0 -1.5,-0.895 -1.5,-2 0,-1.105 0.672,-2 1.5,-2 0.828,0 1.5,0.895 1.5,2 z"
           transform="matrix(15.333333,0,0,11.5,414.99999,878.8622)"
           id="path19"
           inkscape:connector-curvature="0"
           style="fill:#1890d0" />
      </g>
    </clipPath>
    <linearGradient
       gradientUnits="userSpaceOnUse"
       y2="501.51001"
       x2="0"
       y1="546.28998"
       id="0"
       xlink:href="#2" />
    <linearGradient
       gradientUnits="userSpaceOnUse"
       y2="501.51001"
       x2="407.82001"
       y1="546.28998"
       x1="408.82001"
       id="1"
       xlink:href="#2" />
    <linearGradient
       id="2">
      <stop
         id="stop9-1"
         stop-color="#97a9b1" />
      <stop
         id="stop11"
         stop-color="#cfdce1"
         offset="1" />
    </linearGradient>
    <linearGradient
       inkscape:collect="always"
       xlink:href="#2"
       id="linearGradient4192"
       x1="7.7912693"
       y1="63.867645"
       x2="120.42215"
       y2="63.867645"
       gradientUnits="userSpaceOnUse" />
  </defs>
  <g
     id="g33"
     transform="translate(0,80)" />
  <ellipse
     ry="36.930107"
     rx="37.823578"
     cy="33.469658"
     cx="84.28373"
     style="fill:#ffffff;fill-opacity:1;fill-rule:nonzero;stroke:#4169e1;stroke-width:0;stroke-linecap:round;stroke-linejoin:miter;stroke-miterlimit:4;stroke-dasharray:none;stroke-opacity:1"
     id="path3012"
     transform="matrix(0.92068285,0.39031154,-0.39031154,0.92068285,0,0)" />
  <path
     inkscape:connector-curvature="0"
     id="path2986"
     d="m 34.46326,113.87105 c -0.759022,-0.81475 -1.301462,-2.30621 -1.294465,-3.55919 0.0036,-0.64577 0.669196,-2.85176 1.9024,-6.30519 1.043275,-2.92155 1.91072,-5.57428 1.927657,-5.894953 0.02247,-0.425348 -0.484247,-1.050431 -1.873495,-2.31114 -1.047362,-0.950456 -2.569552,-2.511622 -3.382642,-3.469259 -0.813094,-0.957633 -1.703478,-1.836595 -1.978638,-1.953245 -0.308614,-0.130833 -2.578612,0.526243 -5.924917,1.715032 -2.983542,1.05992 -5.84739,1.958 -6.364105,1.995736 C 16.411446,94.16652 14.414878,93.406128 13.560063,92.59782 12.880378,91.955117 7.9093042,79.921851 7.8003414,78.655515 7.692267,77.399516 8.5638269,75.505231 9.6658387,74.60097 10.167487,74.189342 12.882579,72.810284 15.69938,71.536398 c 3.032176,-1.371285 5.204766,-2.512666 5.325672,-2.797863 0.112318,-0.26494 0.137546,-1.507393 0.05607,-2.761006 -0.08149,-1.253612 -0.07334,-3.428516 0.01811,-4.833122 0.09144,-1.404606 0.02987,-2.718538 -0.136832,-2.919851 -0.166701,-0.20131 -2.58151,-1.483652 -5.366246,-2.849644 C 12.357501,53.786267 10.22444,52.606834 9.6767424,52.101897 8.6329953,51.139638 7.85495,49.029817 8.1134427,47.862703 8.2182832,47.389329 9.5636245,44.12333 11.103089,40.60493 l 2.799026,-6.397092 1.131498,-0.612878 c 1.999588,-1.08308 2.68307,-0.987273 9.082416,1.273096 3.622031,1.279366 5.865376,1.959175 6.120006,1.854563 0.221089,-0.09083 1.264333,-1.079665 2.31832,-2.197416 1.053987,-1.117748 2.591927,-2.606739 3.417642,-3.308867 0.825716,-0.702129 1.584405,-1.472626 1.685976,-1.712216 0.101571,-0.23959 -0.605224,-2.681099 -1.570656,-5.425573 -0.965433,-2.744473 -1.865011,-5.425979 -1.99906,-5.958906 -0.377029,-1.498882 -0.07138,-3.027461 0.851904,-4.260484 0.697142,-0.931011 1.405694,-1.295552 7.013024,-3.608094 3.430643,-1.4148467 6.728039,-2.6091705 7.327547,-2.654052 1.391206,-0.1041523 3.210253,0.6574023 4.098948,1.7160481 0.37421,0.4457718 1.721094,3.0969359 2.993076,5.8914759 1.271983,2.79454 2.419825,5.220922 2.550765,5.391968 0.137989,0.180254 1.42679,0.261719 3.065844,0.193788 1.555276,-0.06445 3.831476,-0.04087 5.058224,0.05241 1.663346,0.126484 2.360926,0.05246 2.743645,-0.29114 0.282261,-0.25341 1.635128,-2.737347 3.00637,-5.519857 2.637143,-5.3512515 3.192338,-6.1385063 4.82357,-6.8396731 1.814512,-0.7799494 2.583561,-0.5810109 9.580558,2.4783101 l 6.373054,2.786511 0.720545,1.088069 c 1.239693,1.872024 1.147498,2.670077 -1.033211,8.943588 -1.055577,3.036705 -1.9631,5.774057 -2.016714,6.083 -0.07545,0.434795 0.329237,0.948949 1.791086,2.275543 1.038713,0.942605 2.640189,2.598261 3.558837,3.679239 0.91865,1.080979 1.763791,2.005061 1.87809,2.053517 0.114299,0.04846 2.681051,-0.791324 5.703891,-1.866172 3.02284,-1.074852 5.98787,-1.994043 6.58896,-2.042648 1.42089,-0.114895 3.14981,0.624595 4.16079,1.779647 0.48003,0.548422 1.7402,3.28564 3.21382,6.980691 2.52954,6.34276 2.66146,7.001669 1.80717,9.026353 -0.60421,1.432019 -1.63922,2.100673 -7.20961,4.657673 -3.0288,1.390321 -5.54766,2.623979 -5.59747,2.741458 -0.0498,0.11748 -0.0278,1.567391 0.049,3.222027 0.0767,1.654634 0.0471,3.913784 -0.0659,5.020332 -0.14036,1.374675 -0.0802,2.141542 0.18999,2.421198 0.21749,0.225111 2.77961,1.600479 5.69362,3.056377 5.78289,2.889248 6.63611,3.539298 7.03821,5.362308 0.38013,1.723369 0.0689,2.762246 -2.75549,9.197623 l -2.70174,6.155941 -1.16481,0.725269 c -2.07993,1.295071 -2.44774,1.250668 -9.22007,-1.113058 -3.30911,-1.154969 -6.096987,-2.067407 -6.195289,-2.027637 -0.0983,0.03977 -0.934357,0.899472 -1.857897,1.910448 -0.923543,1.010979 -2.567617,2.593245 -3.6535,3.516154 -1.085888,0.922903 -2.002473,1.836712 -2.036865,2.030683 -0.03439,0.193971 0.783661,2.735022 1.817893,5.646772 1.034229,2.91175 1.920445,5.87908 1.969366,6.59406 0.103917,1.5187 -0.398409,2.8672 -1.451539,3.89669 -0.929379,0.90852 -12.133896,5.54812 -13.685795,5.66706 -1.297607,0.0995 -3.261191,-0.6632 -4.169839,-1.61954 -0.348128,-0.3664 -1.72889,-3.06334 -3.06836,-5.9932 -1.339469,-2.92986 -2.609227,-5.4013 -2.821685,-5.49208 -0.21244,-0.0908 -1.654621,-0.11916 -3.204805,-0.063 -1.550187,0.0561 -3.797037,0.0209 -4.992999,-0.0782 -1.653016,-0.13703 -2.253639,-0.0716 -2.504575,0.27265 -0.181551,0.2491 -1.515266,2.80118 -2.963809,5.6713 -3.186017,6.31271 -3.732832,6.91164 -6.480447,7.09813 -0.796719,0.0541 -1.906395,-0.34886 -7.395593,-2.68539 -4.858151,-2.06792 -6.60354,-2.905 -7.044735,-3.37858 z M 56.215289,89.066524 c 6.088473,1.860375 11.944578,1.600224 17.850924,-0.793006 4.501634,-1.824047 8.04584,-4.509555 11.171067,-8.464518 1.959233,-2.479398 4.581193,-8.676814 5.011243,-11.844893 1.305108,-9.614188 -2.174368,-18.575224 -9.613208,-24.75782 -1.73332,-1.440601 -2.248791,-1.726053 -6.105143,-3.380812 -3.693694,-1.584948 -4.493375,-1.84543 -6.498796,-2.116734 -10.013197,-1.354647 -19.934132,2.946713 -25.603578,11.100785 -5.09367,7.325962 -6.108931,16.577175 -2.739741,24.964892 1.76408,4.391741 4.791214,8.348713 8.639707,11.293546 1.097411,0.83973 2.742012,1.825574 5.145824,3.08462 0.19204,0.100595 1.425805,0.511858 2.741692,0.913936 z M 54.521362,76.422228 c -5.441613,-4.274119 -7.526305,-11.331093 -5.248047,-17.765367 1.592928,-4.498769 4.577456,-7.611172 9.007092,-9.393014 8.067057,-3.245011 17.146511,0.541639 20.379514,8.499422 2.662877,6.554461 0.996682,13.564594 -4.300263,18.092365 -4.511626,3.856487 -10.22726,4.837955 -15.828575,2.718025 -1.906909,-0.721706 -2.798561,-1.200126 -4.009721,-2.151431 z m 9.456601,-3.164348 c 1.967601,0.08455 4.791417,-0.939498 6.378858,-2.31328 1.120184,-0.969413 1.36554,-1.346188 2.277712,-3.497735 0.970359,-2.288795 1.013135,-2.506513 0.842057,-4.285797 -0.345338,-3.591661 -2.067367,-6.067482 -5.315136,-7.641755 -2.608962,-1.26463 -4.444061,-1.376413 -7.11431,-0.433363 -3.385543,1.195671 -5.670787,3.884389 -6.183954,7.275769 -0.444172,2.93542 0.230775,5.34257 2.128845,7.592371 1.770722,2.098856 4.05198,3.177709 6.985928,3.30379 z"
     style="fill:url(#linearGradient4192);fill-opacity:1.0" />
  <g
     id="g85"
     transform="matrix(3.5198667,0,0,3.5198667,-22.974783,-16.68914)">
    <path
       d="m 33.04,27.34 c -0.316,1.219 -1.91,3.762 -2.762,4.883 -0.848,1.125 -0.746,2.137 -2.313,1.742 -1.563,-0.391 -2,-0.32 -3.621,-0.234 -1.602,0.09 -1.258,-0.043 -2.262,0.383 -1,0.422 -4.363,-5.16 -4.637,-6.203 -0.266,-1.039 -0.395,-0.914 0.305,-2.035 0.691,-1.125 0.797,-2.238 1.715,-3.598 0.918,-1.367 1.984,-2.063 1.906,-3.105 -0.305,-3.871 -0.539,-5.809 1.293,-6.703 1.742,-0.852 3.203,-0.344 3.777,-0.055 0.25,0.125 0.758,0.371 1.133,0.797 0.375,0.418 0.715,1.047 0.906,1.844 0.391,1.598 -0.164,1.07 0.281,2.902 0.438,1.828 1.328,2.727 2.414,4.172 1.09,1.445 2.223,3.832 1.863,5.211 m 0,0"
       id="SVGCleanerId_0"
       inkscape:connector-curvature="0"
       style="fill:#000000;fill-opacity:1;fill-rule:nonzero;stroke:none" />
    <path
       d="m 22.695,17.859 c 0.285,-0.105 0.238,-0.121 0.43,-0.512 0.152,-0.301 0.285,-0.43 0.281,-0.887 0,-0.445 -0.148,-0.598 -0.371,-0.891 -0.215,-0.277 -0.555,-0.293 -0.773,-0.258 -0.125,0.02 -0.285,0.168 -0.395,0.387 -0.074,0.148 -0.129,0.336 -0.137,0.531 -0.012,0.531 0.031,0.73 0.164,1.09 0.152,0.422 0.523,0.641 0.801,0.539 m 0,0"
       id="path88"
       inkscape:connector-curvature="0"
       style="fill:#f9f9f9;fill-opacity:1;fill-rule:nonzero;stroke:none" />
    <path
       d="m 22.43,16.03 c 0.141,0 0.32,0.086 0.41,0.207 0.094,0.121 0.156,0.293 0.156,0.488 0,0.285 -0.031,0.602 -0.215,0.699 -0.059,0.023 -0.184,0.059 -0.254,0.059 -0.16,0 -0.176,-0.102 -0.328,-0.25 -0.055,-0.051 -0.211,-0.313 -0.211,-0.527 0,-0.133 -0.031,-0.324 0.094,-0.496 0.086,-0.125 0.195,-0.184 0.348,-0.184 m 0,0.004"
       id="SVGCleanerId_1"
       inkscape:connector-curvature="0"
       style="fill:#000000;fill-opacity:1;fill-rule:nonzero;stroke:none" />
    <path
       d="m 25.652,17.895 c 0.719,-0.07 0.969,-0.332 1.098,-0.785 0.113,-0.402 0.117,-0.848 -0.199,-1.375 -0.301,-0.5 -0.473,-0.578 -0.906,-0.613 -0.668,-0.051 -0.984,0.387 -1.133,0.699 -0.156,0.34 -0.125,0.293 -0.113,0.723 0.012,0.453 0.281,0.578 0.445,0.863 0.168,0.273 0.727,0.496 0.805,0.492 m 0.004,-0.004"
       id="path91"
       inkscape:connector-curvature="0"
       style="fill:#f9f9f9;fill-opacity:1;fill-rule:nonzero;stroke:none" />
    <path
       d="m 25.594,16.01 c 0.359,0 0.566,0.301 0.637,0.684 0.027,0.176 -0.012,0.375 -0.125,0.516 -0.129,0.164 -0.359,0.258 -0.543,0.258 -0.18,0 -0.375,0.027 -0.484,-0.105 -0.105,-0.141 -0.125,-0.445 -0.125,-0.668 0,-0.246 0.078,-0.422 0.207,-0.559 0.102,-0.102 0.281,-0.125 0.434,-0.125 m 0,0"
       id="SVGCleanerId_2"
       inkscape:connector-curvature="0"
       style="fill:#000000;fill-opacity:1;fill-rule:nonzero;stroke:none" />
    <path
       d="m 25.672,16.223 c 0.039,-0.035 0.121,0 0.207,0.09 0.098,0.102 0.102,0.18 0.023,0.234 -0.07,0.059 -0.105,-0.086 -0.152,-0.137 -0.086,-0.082 -0.156,-0.121 -0.082,-0.188 m 0.004,0"
       id="path94"
       inkscape:connector-curvature="0"
       style="fill:#676767;fill-opacity:1;fill-rule:nonzero;stroke:none" />
    <path
       d="m 22.465,16.34 c 0.043,-0.063 0.207,-0.035 0.27,0.09 0.059,0.125 0.051,0.398 0.008,0.41 -0.109,0.035 -0.074,-0.117 -0.172,-0.25 -0.094,-0.129 -0.148,-0.188 -0.105,-0.25 m 0,0"
       id="path96"
       inkscape:connector-curvature="0"
       style="fill:#676767;fill-opacity:1;fill-rule:nonzero;stroke:none" />
    <path
       d="m 23.875,16.445 c 0.086,-0.023 0.168,-0.02 0.313,0.055 0.129,0.07 0.07,0.152 -0.07,0.121 -0.133,-0.027 -0.105,-0.023 -0.207,-0.043 -0.172,-0.027 -0.199,-0.094 -0.035,-0.133 m 0,0"
       id="path98"
       inkscape:connector-curvature="0"
       style="fill:#676767;fill-opacity:1;fill-rule:nonzero;stroke:none" />
    <path
       d="M 23.461,19.977 C 22.84,20 21.859,18.368 21.832,19.047 c -0.016,0.574 0.016,0.563 0.016,1.117 0,0.371 -0.18,0.402 -0.57,0.961 -0.203,0.293 -0.359,0.613 -0.48,0.938 -0.078,0.191 -0.148,0.391 -0.207,0.59 -0.023,0.098 -0.066,0.203 -0.094,0.301 -0.191,0.676 -0.891,1.512 -1.051,2.188 -0.164,0.672 -0.355,1.102 -0.328,2 0.023,0.902 0.031,0.641 0.32,0.867 0.289,0.223 0.582,0.434 1.035,0.809 0.48,0.398 1.469,1.07 1.602,1.285 0.141,0.215 0.141,0.695 0.055,0.852 -0.086,0.152 -0.832,0.238 -0.832,0.238 0,0 0.652,0.855 0.785,0.973 0.125,0.117 0.66,0.684 2.832,0.301 1.227,-0.223 2.172,-0.863 2.859,-1.48 0.887,-0.816 0.438,-1.047 0.551,-1.453 0.168,-0.59 0.711,-0.809 0.832,-1.473 0.016,-0.094 0.047,-0.164 0.141,-0.313 0.137,-0.188 0.105,-0.586 0.105,-0.938 0,-0.938 -0.113,-1.879 -0.344,-2.578 -0.211,-0.656 -0.543,-1.113 -0.828,-1.703 -0.57,-1.176 -0.543,-1.707 -1.055,-2.457 -0.578,-0.867 -0.293,-1.445 -1.066,-1.41 -0.961,0.051 -1.738,1.289 -2.648,1.324 m 0,0"
       id="path100"
       inkscape:connector-curvature="0"
       style="fill:#f9f9f9;fill-opacity:1;fill-rule:nonzero;stroke:none" />
    <path
       d="m 23.789,16.906 c 0.348,-0.039 0.828,0.039 1.047,0.191 0.203,0.141 0.348,0.219 0.535,0.273 0.621,0.191 1.445,0.285 1.406,0.813 -0.043,0.633 -0.238,0.914 -0.797,1.082 -0.449,0.129 -1.25,0.859 -1.867,0.859 -0.277,0 -0.664,0.016 -0.887,-0.063 -0.215,-0.07 -0.516,-0.41 -0.867,-0.684 -0.355,-0.273 -0.68,-0.566 -0.691,-0.941 -0.016,-0.395 0.262,-0.527 0.652,-0.848 0.203,-0.168 0.578,-0.453 0.832,-0.574 0.238,-0.113 0.391,-0.09 0.637,-0.117 m 0,0"
       id="path102"
       inkscape:connector-curvature="0"
       style="fill:#ffcf33;fill-opacity:1;fill-rule:nonzero;stroke:none" />
    <path
       d="m 22.988,17.371 c -0.02,0.047 0.129,0.145 0.207,0.078 0.082,-0.066 0.176,-0.125 0.207,-0.145 0.145,-0.09 0.094,-0.156 -0.152,-0.117 -0.238,0.039 -0.238,0.133 -0.266,0.184 m 0.004,0"
       id="path104"
       inkscape:connector-curvature="0"
       style="fill:#995900;fill-opacity:1;fill-rule:nonzero;stroke:none" />
    <path
       d="m 32.969,28.332 c 0.297,0.402 -0.008,0.93 0.207,1.25 0.355,0.527 1.063,1.063 1.336,1.211 0.195,0.113 0.473,0.219 0.461,0.543 -0.016,0.375 -0.211,0.473 -0.32,0.574 -0.219,0.207 -1.324,0.723 -2.059,1.191 -0.922,0.594 -1.242,0.859 -1.543,1.141 -0.469,0.441 -0.91,0.59 -1.621,0.59 -0.707,0 -1.031,-0.141 -1.246,-0.324 -0.219,-0.18 -0.465,-0.637 -0.441,-1.316 0.02,-0.68 0.25,-1.293 0.359,-2.348 0.047,-0.453 0.043,-1.012 0.043,-1.508 0,-0.629 0.012,-1.16 0.152,-1.242 0.258,-0.152 0.316,-0.16 0.621,-0.16 0.305,0 0.441,0.016 0.543,0.113 0.094,0.086 0.055,0.293 0.023,0.586 -0.027,0.293 0.121,0.387 0.266,0.508 0.148,0.117 0.281,0.266 0.746,0.301 0.469,0.031 0.641,-0.039 0.859,-0.172 0.219,-0.129 0.527,-0.359 0.645,-0.496 0.109,-0.129 0.383,-0.574 0.434,-0.574 0.043,0 0.359,-0.105 0.535,0.137 m 0,-0.004"
       id="path106"
       inkscape:connector-curvature="0"
       style="fill:#ffcf33;fill-opacity:1;fill-rule:nonzero;stroke:none" />
    <path
       d="m 16.34,29.02 c -0.426,0.289 -1.516,0.266 -1.793,0.605 -0.27,0.34 0.012,0.832 0.004,1.746 0,0.391 -0.07,0.684 -0.117,0.922 -0.07,0.301 -0.113,0.512 0.023,0.727 0.246,0.379 0.633,0.477 2.871,0.914 1.195,0.234 2.328,0.836 3.082,0.898 0.758,0.051 0.922,-0.188 1.383,-0.57 0.457,-0.387 0.605,-0.27 0.59,-1.113 -0.016,-0.844 -0.59,-1.094 -1.242,-2.066 -0.652,-0.973 -0.758,-1.152 -1.191,-1.797 -0.434,-0.637 -1.293,-1.793 -1.781,-1.805 -0.391,-0.008 -0.609,0.188 -0.855,0.422 -0.246,0.234 -0.543,0.828 -0.973,1.117 m 0,0"
       id="path108"
       inkscape:connector-curvature="0"
       style="fill:#ffcf33;fill-opacity:1;fill-rule:nonzero;stroke:none" />
    <path
       d="m 29.03,22.656 c -0.082,-0.004 -0.117,0.023 -0.094,0.094 0,0 0.656,0.359 1.25,1.031 0.016,0.035 0.664,0.906 0.531,2.063 -0.023,0.02 -0.066,0.512 -0.125,0.719 -0.156,0.492 -0.355,0.777 -0.191,0.813 0.148,0.035 0.543,-0.953 0.531,-1.344 0.141,-0.367 0.137,-1.301 -0.219,-1.906 -0.121,-0.219 -0.238,-0.484 -0.316,-0.5 -0.508,-0.652 -1.133,-0.965 -1.375,-0.969 m 0.004,0"
       id="path110"
       inkscape:connector-curvature="0"
       style="fill:#676767;fill-opacity:1;fill-rule:nonzero;stroke:none" />
    <path
       d="m 29.465,27.973 c 0.102,0.094 0.188,-0.141 0.289,-0.219 0.098,-0.074 0.262,-0.238 0.582,-0.238 0.324,0 0.305,-0.012 0.289,-0.125 -0.012,-0.113 -0.105,-0.105 -0.391,-0.066 -0.285,0.039 -0.477,0.176 -0.59,0.305 -0.109,0.117 -0.234,0.289 -0.18,0.344 m 0,0"
       id="path112"
       inkscape:connector-curvature="0"
       style="fill:#676767;fill-opacity:1;fill-rule:nonzero;stroke:none" />
    <path
       d="m 30.758,27.383 c 0,0.141 0.305,0.191 0.605,0.234 0.289,0.039 0.523,0.094 0.539,0.379 0.012,0.281 -0.063,0.484 0.07,0.461 0.285,-0.051 0.387,-0.34 0.387,-0.477 0,-0.133 -0.211,-0.375 -0.586,-0.508 -0.277,-0.102 -0.48,-0.145 -0.719,-0.152 -0.328,-0.016 -0.297,0.063 -0.297,0.063 m 0,0"
       id="path114"
       inkscape:connector-curvature="0"
       style="fill:#676767;fill-opacity:1;fill-rule:nonzero;stroke:none" />
    <path
       d="m 21.988,18.797 c 0.133,0.086 0.137,0.098 0.328,0.219 0.309,0.234 0.852,0.289 1.117,0.297 0.613,0.09 1.707,-0.449 2.137,-0.691 0.219,-0.152 0.621,-0.473 0.773,-0.477 0.094,0.094 -0.043,0.109 -0.238,0.234 -0.258,0.176 -0.477,0.324 -0.871,0.531 -0.418,0.207 -1.063,0.547 -1.887,0.5 -0.434,-0.059 -0.438,-0.063 -0.703,-0.191 -0.16,-0.105 -0.523,-0.285 -0.656,-0.422 m 0,0"
       id="path116"
       inkscape:connector-curvature="0"
       style="fill:#995900;fill-opacity:1;fill-rule:nonzero;stroke:none" />
    <path
       d="m 24.691,17.395 c 0.02,0.051 -0.129,0.145 -0.207,0.082 -0.082,-0.066 -0.176,-0.129 -0.211,-0.145 -0.145,-0.094 -0.09,-0.156 0.152,-0.117 0.242,0.039 0.242,0.129 0.266,0.18 m 0,0"
       id="path118"
       inkscape:connector-curvature="0"
       style="fill:#995900;fill-opacity:1;fill-rule:nonzero;stroke:none" />
  </g>
</svg>
