<?xml version="1.0" encoding="UTF-8" standalone="no"?>
<!-- Created with Inkscape (http://www.inkscape.org/) -->

<svg
   xmlns:dc="http://purl.org/dc/elements/1.1/"
   xmlns:cc="http://creativecommons.org/ns#"
   xmlns:rdf="http://www.w3.org/1999/02/22-rdf-syntax-ns#"
   xmlns:svg="http://www.w3.org/2000/svg"
   xmlns="http://www.w3.org/2000/svg"
   xmlns:xlink="http://www.w3.org/1999/xlink"
   xmlns:sodipodi="http://sodipodi.sourceforge.net/DTD/sodipodi-0.dtd"
   xmlns:inkscape="http://www.inkscape.org/namespaces/inkscape"
   version="1.1"
   width="360"
   height="360"
   id="svg2"
   inkscape:version="0.91 r"
   sodipodi:docname="kate.svg">
  <sodipodi:namedview
     pagecolor="#ffffff"
     bordercolor="#666666"
     borderopacity="1"
     objecttolerance="10"
     gridtolerance="10"
     guidetolerance="10"
     inkscape:pageopacity="0"
     inkscape:pageshadow="2"
     inkscape:window-width="1366"
     inkscape:window-height="744"
     id="namedview6"
     showgrid="false"
     inkscape:zoom="0.5"
     inkscape:cx="-182.82983"
     inkscape:cy="284.44571"
     inkscape:window-x="0"
     inkscape:window-y="24"
     inkscape:window-maximized="1"
     inkscape:current-layer="svg2"
     showguides="true"
     inkscape:guide-bbox="true">
    <sodipodi:guide
       orientation="1,0"
       position="487,251"
       id="guide3913" />
  </sodipodi:namedview>
  <metadata
     id="metadata8">
    <rdf:RDF>
      <cc:Work
         rdf:about="">
        <dc:format>image/svg+xml</dc:format>
        <dc:type
           rdf:resource="http://purl.org/dc/dcmitype/StillImage" />
        <dc:title></dc:title>
      </cc:Work>
    </rdf:RDF>
  </metadata>
  <defs
     id="defs6">
    <linearGradient
       inkscape:collect="always"
       id="linearGradient3360">
      <stop
         style="stop-color:#2185f8;stop-opacity:1;"
         offset="0"
         id="stop3362" />
      <stop
         id="stop3368"
         offset="0.07705001"
         style="stop-color:#80e5ff;stop-opacity:1" />
      <stop
         style="stop-color:#0088aa;stop-opacity:1"
         offset="0.90891063"
         id="stop3370" />
      <stop
         style="stop-color:#2185f8;stop-opacity:0;"
         offset="1"
         id="stop3364" />
    </linearGradient>
    <linearGradient
       inkscape:collect="always"
       xlink:href="#linearGradient3360"
       id="linearGradient3366"
       x1="-6"
       y1="-42"
       x2="344"
       y2="380"
       gradientUnits="userSpaceOnUse" />
    <linearGradient
       id="linearGradient3764"
       x1="1"
       x2="47"
       gradientUnits="userSpaceOnUse"
       gradientTransform="matrix(0,-1,1,0,-1.5e-6,47.999998)">
      <stop
         stop-color="#e4e4e4"
         stop-opacity="1"
         id="stop7" />
      <stop
         offset="1"
         stop-color="#eee"
         stop-opacity="1"
         id="stop9" />
    </linearGradient>
    <clipPath
       id="clipPath-365326813">
      <g
         transform="translate(0,-1004.3622)"
         id="g12">
        <path
           d="m -24,13 c 0,1.105 -0.672,2 -1.5,2 -0.828,0 -1.5,-0.895 -1.5,-2 0,-1.105 0.672,-2 1.5,-2 0.828,0 1.5,0.895 1.5,2 z"
           transform="matrix(15.333333,0,0,11.5,414.99999,878.8622)"
           id="path14"
           inkscape:connector-curvature="0"
           style="fill:#1890d0" />
      </g>
    </clipPath>
    <clipPath
       id="clipPath-370729992">
      <g
         transform="translate(0,-1004.3622)"
         id="g17">
        <path
           d="m -24,13 c 0,1.105 -0.672,2 -1.5,2 -0.828,0 -1.5,-0.895 -1.5,-2 0,-1.105 0.672,-2 1.5,-2 0.828,0 1.5,0.895 1.5,2 z"
           transform="matrix(15.333333,0,0,11.5,414.99999,878.8622)"
           id="path19"
           inkscape:connector-curvature="0"
           style="fill:#1890d0" />
      </g>
    </clipPath>
    <inkscape:perspective
       id="perspective3018"
       inkscape:persp3d-origin="256 : 170.66667 : 1"
       inkscape:vp_z="512 : 256 : 1"
       inkscape:vp_y="0 : 1000 : 0"
       inkscape:vp_x="0 : 256 : 1"
       sodipodi:type="inkscape:persp3d" />
    <defs
       id="defs5">
      <rect
         height="1024"
         width="1024"
         id="SVGID_1_" />
    </defs>
    <clipPath
       id="SVGID_2_">
      <use
         id="use9"
         overflow="visible"
         xlink:href="#SVGID_1_" />
    </clipPath>
    <defs
       id="defs38">
      <rect
         id="SVGID_8_"
         width="1024"
         height="1024"
         x="0"
         y="0" />
    </defs>
    <clipPath
       id="SVGID_9_">
      <use
         xlink:href="#SVGID_8_"
         overflow="visible"
         id="use42"
         style="overflow:visible"
         x="0"
         y="0"
         width="100%"
         height="100%" />
    </clipPath>
    <defs
       id="defs44">
      <filter
         id="Adobe_OpacityMaskFilter"
         filterUnits="userSpaceOnUse"
         x="305.03299"
         y="293.44199"
         width="413.93399"
         height="413.96701">
        <feFlood
           result="back"
           id="feFlood47" />
        <feBlend
           in="SourceGraphic"
           in2="back"
           mode="normal"
           id="feBlend49" />
      </filter>
    </defs>
    <mask
       maskUnits="userSpaceOnUse"
       x="305.033"
       y="293.442"
       width="413.934"
       height="413.967"
       id="SVGID_10_">
      <g
         id="g52"
         style="filter:url(#Adobe_OpacityMaskFilter)">
        <g
           enable-background="new    "
           id="g54">
          <g
             id="g56">
            <defs
               id="defs58">
              <path
                 id="SVGID_11_"
                 d="m 513.458,309.257 c 91.063,0 164.903,76.897 164.903,171.722 0,94.833 -73.84,171.727 -164.903,171.727 -91.047,0 -164.89,-76.894 -164.89,-171.727 0,-94.825 73.843,-171.722 164.89,-171.722"
                 inkscape:connector-curvature="0" />
            </defs>
            <clipPath
               id="SVGID_12_"
               clip-path="url(#SVGID_9_)">
              <use
                 xlink:href="#SVGID_11_"
                 overflow="visible"
                 id="use62"
                 style="overflow:visible"
                 x="0"
                 y="0"
                 width="100%"
                 height="100%" />
            </clipPath>
            <linearGradient
               id="SVGID_13_"
               gradientUnits="userSpaceOnUse"
               x1="0"
               y1="1024"
               x2="1"
               y2="1024"
               gradientTransform="matrix(-10.9559,383.4525,383.4525,10.9559,-392132.59,-11061.132)">
              <stop
                 offset="0"
                 style="stop-color:#1C1B18"
                 id="stop65" />
              <stop
                 offset="0.1871"
                 style="stop-color:#4B4846"
                 id="stop67" />
              <stop
                 offset="0.3677"
                 style="stop-color:#7F7B79"
                 id="stop69" />
              <stop
                 offset="0.5336"
                 style="stop-color:#B0ADAD"
                 id="stop71" />
              <stop
                 offset="0.6817"
                 style="stop-color:#D9D8D8"
                 id="stop73" />
              <stop
                 offset="0.8068"
                 style="stop-color:#F5F5F5"
                 id="stop75" />
              <stop
                 offset="0.8938"
                 style="stop-color:#FFFFFF"
                 id="stop77" />
              <stop
                 offset="1"
                 style="stop-color:#FFFFFF"
                 id="stop79" />
            </linearGradient>
            <polygon
               clip-path="url(#SVGID_12_)"
               points="338.763,652.426 348.837,299.842 688.166,309.537 678.092,662.121 "
               id="polygon81"
               style="fill:url(#SVGID_13_)" />
          </g>
        </g>
      </g>
    </mask>
    <clipPath
       id="clipPath3430"
       clipPathUnits="userSpaceOnUse">
      <g
         transform="matrix(0.54321148,0,0,0.54321148,237.09607,175.79506)"
         style="fill:#9ade00;image-rendering:optimizeSpeed"
         id="g3432">
        <g
           style="fill:#9ade00"
           id="g3434">
          <path
             inkscape:connector-curvature="0"
             style="fill:#9ade00;fill-opacity:1"
             d="m 969.75,392.05 c -1.1,-4.35 -2.35,-9 -3.65,-13.6 -1,-3.4 -2,-6.85 -3.15,-10.5 -1.6,-5.15 -3.4,-10.5 -5.3,-15.85 -6.45,-18.25 -14.15,-36.05 -23.15,-53.65 -3.8,-7.4 -7.95,-14.95 -12.3,-22.4 -20.3,-34.5 -45.8,-67.2 -76.35,-97.75 C 773.25,105.7 688.7,61.65 592.2,46.25 c -16.25,-2.6 -32.8,-4.4 -50.05,-5.35 -9.7,-0.55 -19.85,-0.85 -30.1,-0.85 -9.35,0 -18.6,0.25 -27.9,0.75 C 365.8,46.9 263.85,92.75 178.3,178.3 Q 40.05,316.55 40.05,512.05 c 0,130.35 46.1,241.65 138.25,333.8 56.7,56.65 120.55,95.9 191.1,117.55 36.75,11.25 74.8,17.85 114.75,19.95 0.15,0 0.25,0 0.4,0 8.5,0.45 16.6,0.7 24.5,0.7 1.2,0 2.1,0 3,0 10.3,0 20.5,-0.3 30.1,-0.8 2.5,-0.15 4.75,-0.3 6.95,-0.45 20.2,-1.45 39.9,-4.05 58.7,-7.7 7.95,-1.55 15.8,-3.3 23.4,-5.15 80.8,-20.3 152.15,-61.6 214.65,-124.1 48.6,-48.6 84.4,-102.5 107.35,-161.8 18.45,-47.65 28.65,-98.8 30.55,-153.5 0.2,-6.05 0.3,-12.25 0.3,-18.5 0,-0.65 0,-1.35 0,-2 0,-0.35 0,-0.65 0,-1 -0.2,-40.65 -4.95,-79.5 -14.3,-117 z"
             id="path3436" />
        </g>
      </g>
    </clipPath>
    <clipPath
       id="clipPath3438"
       clipPathUnits="userSpaceOnUse">
      <g
         transform="matrix(0.54321148,0,0,0.54321148,237.09607,175.79506)"
         style="fill:#9ade00;image-rendering:optimizeSpeed"
         id="g3440">
        <g
           style="fill:#9ade00"
           id="g3442">
          <path
             inkscape:connector-curvature="0"
             style="fill:#9ade00;fill-opacity:1"
             d="m 969.75,392.05 c -1.1,-4.35 -2.35,-9 -3.65,-13.6 -1,-3.4 -2,-6.85 -3.15,-10.5 -1.6,-5.15 -3.4,-10.5 -5.3,-15.85 -6.45,-18.25 -14.15,-36.05 -23.15,-53.65 -3.8,-7.4 -7.95,-14.95 -12.3,-22.4 -20.3,-34.5 -45.8,-67.2 -76.35,-97.75 C 773.25,105.7 688.7,61.65 592.2,46.25 c -16.25,-2.6 -32.8,-4.4 -50.05,-5.35 -9.7,-0.55 -19.85,-0.85 -30.1,-0.85 -9.35,0 -18.6,0.25 -27.9,0.75 C 365.8,46.9 263.85,92.75 178.3,178.3 Q 40.05,316.55 40.05,512.05 c 0,130.35 46.1,241.65 138.25,333.8 56.7,56.65 120.55,95.9 191.1,117.55 36.75,11.25 74.8,17.85 114.75,19.95 0.15,0 0.25,0 0.4,0 8.5,0.45 16.6,0.7 24.5,0.7 1.2,0 2.1,0 3,0 10.3,0 20.5,-0.3 30.1,-0.8 2.5,-0.15 4.75,-0.3 6.95,-0.45 20.2,-1.45 39.9,-4.05 58.7,-7.7 7.95,-1.55 15.8,-3.3 23.4,-5.15 80.8,-20.3 152.15,-61.6 214.65,-124.1 48.6,-48.6 84.4,-102.5 107.35,-161.8 18.45,-47.65 28.65,-98.8 30.55,-153.5 0.2,-6.05 0.3,-12.25 0.3,-18.5 0,-0.65 0,-1.35 0,-2 0,-0.35 0,-0.65 0,-1 -0.2,-40.65 -4.95,-79.5 -14.3,-117 z"
             id="path3444" />
        </g>
      </g>
    </clipPath>
  </defs>
  <path
     inkscape:connector-curvature="0"
     style="fill:url(#linearGradient3366);fill-opacity:1;fill-rule:evenodd;stroke:none"
     d="m 63.46875,20.09375 c -7.78481,0 -14.03125,6.277686 -14.03125,14.0625 l 0,289.1875 c 0,7.78481 6.24644,14.03125 14.03125,14.03125 l 235.8125,0 c 7.78481,0 14.03125,-6.24644 14.03125,-14.03125 l 0,-226.375 -8.28125,-8.1875 -44.75,-44.375 -24.5,-24.28125 -0.0312,-0.03125 -172.28125,0 z"
     id="rect3017" />
  <path
     id="path3800"
     inkscape:label="Triangle"
     style="fill:#9bc5ff;fill-opacity:1;stroke:none"
     d="m 235.69845,96.807047 77.63081,0.132387 -77.57553,-76.844438 z"
     inkscape:connector-curvature="0"
     sodipodi:nodetypes="cccc" />
  <rect
     style="fill:#ffffff;fill-opacity:1;stroke:none"
     id="rect3852"
     width="179.60512"
     height="16.970562"
     x="91.025604"
     y="124.58875" />
  <rect
     style="fill:#ffffff;fill-opacity:1;stroke:none"
     id="rect3852-6"
     width="179.60512"
     height="16.970562"
     x="91.040314"
     y="165.98572" />
  <rect
     style="fill:#ffffff;fill-opacity:1;stroke:none"
     id="rect3852-7"
     width="179.60512"
     height="16.970562"
     x="91.040314"
     y="207.44156" />
  <rect
     style="fill:#ffffff;fill-opacity:1;stroke:none"
     id="rect3852-5"
     width="97.580734"
     height="16.970562"
     x="91.040314"
     y="249.45375" />
  <path
     id="path3800-6"
     inkscape:label="Triangle"
     style="opacity:0.79032258;fill:#1c6bbf;fill-opacity:1;stroke:none"
     d="m 313.32503,96.936654 -0.0278,77.503756 -77.60354,-77.635631 z"
     inkscape:connector-curvature="0"
     sodipodi:nodetypes="cccc" />
  <g
     id="g3413"
     transform="matrix(0.78451664,0,0,0.78451664,30.600167,-21.442425)"
     style="fill:#333333">
    <polygon
       transform="matrix(1.2424078,0,0,1.2424078,-102.35808,-118.58824)"
       id="polygon5"
       points="231.664,396.858 370.152,156.75 399.164,173.5 260.676,413.608 "
       style="fill:#333333" />
    <polygon
       transform="matrix(1.2424078,0,0,1.2424078,-102.35808,-118.58824)"
       id="polygon7"
       points="219.871,448.7 221.678,449.743 260.676,413.61 231.664,396.86 "
       style="fill:#333333" />
  </g>
</svg>
