<?xml version="1.0" encoding="UTF-8" standalone="no"?>
<svg
   xmlns:dc="http://purl.org/dc/elements/1.1/"
   xmlns:cc="http://creativecommons.org/ns#"
   xmlns:rdf="http://www.w3.org/1999/02/22-rdf-syntax-ns#"
   xmlns:svg="http://www.w3.org/2000/svg"
   xmlns="http://www.w3.org/2000/svg"
   xmlns:sodipodi="http://sodipodi.sourceforge.net/DTD/sodipodi-0.dtd"
   xmlns:inkscape="http://www.inkscape.org/namespaces/inkscape"
   viewBox="0 0 128 128"
   id="svg2"
   version="1.1"
   inkscape:version="0.91 r"
   sodipodi:docname="atomix.svg"
   width="128"
   height="128">
  <metadata
     id="metadata24">
    <rdf:RDF>
      <cc:Work
         rdf:about="">
        <dc:format>image/svg+xml</dc:format>
        <dc:type
           rdf:resource="http://purl.org/dc/dcmitype/StillImage" />
        <dc:title></dc:title>
      </cc:Work>
    </rdf:RDF>
  </metadata>
  <sodipodi:namedview
     pagecolor="#ffffff"
     bordercolor="#666666"
     borderopacity="1"
     objecttolerance="10"
     gridtolerance="10"
     guidetolerance="10"
     inkscape:pageopacity="0"
     inkscape:pageshadow="2"
     inkscape:window-width="1366"
     inkscape:window-height="744"
     id="namedview22"
     showgrid="false"
     inkscape:zoom="3.4766083"
     inkscape:cx="70.043033"
     inkscape:cy="66.399252"
     inkscape:window-x="0"
     inkscape:window-y="24"
     inkscape:window-maximized="1"
     inkscape:current-layer="svg2" />
  <defs
     id="defs4">
    <linearGradient
       id="0"
       gradientUnits="userSpaceOnUse"
       y1="46.601002"
       x2="0"
       y2="28.27">
      <stop
         stop-color="#981fe7"
         id="stop7" />
      <stop
         offset="1"
         stop-color="#db50c8"
         id="stop9" />
    </linearGradient>
    <linearGradient
       gradientTransform="matrix(0.77564,0,0,0.77048,-234.97,-435.41)"
       gradientUnits="userSpaceOnUse"
       y2="544.98999"
       x2="0"
       y1="518.34003"
       id="1">
      <stop
         stop-color="#db50c8"
         id="stop12" />
      <stop
         offset="1"
         stop-color="#981fe7"
         id="stop14" />
    </linearGradient>
  </defs>
  <g
     transform="matrix(4.220759,0,0,4.220759,-251.69299,-47.708282)"
     id="g16"
     style="enable-background:new">
    <ellipse
       ry="10.787"
       rx="10.859"
       cx="75.730003"
       cy="-25.674999"
       transform="scale(1,-1)"
       id="ellipse18"
       style="fill:#ffffff;stroke:url(#1);stroke-width:1.15999997" />
    <path
       d="M 74.79167,13.201345 A 13.34025,13.34025 0 0 0 61.45134,26.541677 13.34025,13.34025 0 0 0 74.79167,39.882009 13.34025,13.34025 0 0 0 88.132,26.541677 13.34025,13.34025 0 0 0 74.79167,13.201345 m 6.61,4.524 c 0.384,-0.027 0.78,0.056 1.138,0.262 0.956,0.551 1.283,1.772 0.731,2.729 -0.462,0.801 -1.394,1.153 -2.247,0.923 l -3,3.836 c 0.503,0.611 0.806,1.392 0.806,2.246 0,0.794 -0.265,1.526 -0.708,2.116 l 1.285,1.495 c 0.792,-0.256 1.69,-0.003 2.214,0.702 0.657,0.885 0.474,2.136 -0.411,2.794 -0.885,0.658 -2.136,0.472 -2.794,-0.412 -0.467,-0.629 -0.502,-1.438 -0.171,-2.092 l -1.279,-1.488 c -0.498,0.268 -1.065,0.419 -1.669,0.419 -1.276,0 -2.39,-0.679 -3.01,-1.692 l -2.332,0.801 c -0.043,0.712 -0.458,1.379 -1.152,1.698 -1,0.46 -2.188,0.02 -2.648,-0.982 -0.46,-1 -0.019,-2.188 0.983,-2.648 0.815,-0.374 1.745,-0.145 2.313,0.49 l 2.338,-0.803 c -0.015,-0.131 -0.024,-0.262 -0.024,-0.396 0,-1.307 0.711,-2.445 1.766,-3.057 l -0.689,-2.182 c -0.808,-0.073 -1.524,-0.63 -1.749,-1.458 -0.289,-1.064 0.339,-2.162 1.404,-2.451 1.064,-0.29 2.162,0.338 2.451,1.403 0.211,0.776 -0.069,1.565 -0.647,2.051 l 0.688,2.176 c 0.102,-0.009 0.205,-0.016 0.31,-0.016 0.545,0 1.06,0.127 1.521,0.349 l 2.999,-3.83 c -0.34,-0.596 -0.371,-1.348 -0.003,-1.985 0.344,-0.597 0.95,-0.949 1.589,-0.995 z"
       id="path20"
       inkscape:connector-curvature="0"
       style="fill:url(#0);stroke:url(#0);stroke-width:1.32000005" />
  </g>
</svg>
