<?xml version="1.0" encoding="UTF-8" standalone="no"?>
<!-- Created with Inkscape (http://www.inkscape.org/) -->

<svg
   xmlns:dc="http://purl.org/dc/elements/1.1/"
   xmlns:cc="http://creativecommons.org/ns#"
   xmlns:rdf="http://www.w3.org/1999/02/22-rdf-syntax-ns#"
   xmlns:svg="http://www.w3.org/2000/svg"
   xmlns="http://www.w3.org/2000/svg"
   xmlns:xlink="http://www.w3.org/1999/xlink"
   xmlns:sodipodi="http://sodipodi.sourceforge.net/DTD/sodipodi-0.dtd"
   xmlns:inkscape="http://www.inkscape.org/namespaces/inkscape"
   id="svg2"
   version="1.1"
   inkscape:version="0.91 r"
   width="512"
   height="512"
   sodipodi:docname="kile.svg">
  <metadata
     id="metadata8">
    <rdf:RDF>
      <cc:Work
         rdf:about="">
        <dc:format>image/svg+xml</dc:format>
        <dc:type
           rdf:resource="http://purl.org/dc/dcmitype/StillImage" />
        <dc:title></dc:title>
      </cc:Work>
    </rdf:RDF>
  </metadata>
  <defs
     id="defs6">
    <linearGradient
       inkscape:collect="always"
       id="linearGradient4235">
      <stop
         style="stop-color:#a7ac93;stop-opacity:1;"
         offset="0"
         id="stop4237" />
      <stop
         id="stop3405"
         offset="0.20789893"
         style="stop-color:#aaccff;stop-opacity:1" />
      <stop
         style="stop-color:#2a7fff;stop-opacity:1"
         offset="0.50698566"
         id="stop3407" />
      <stop
         id="stop3409"
         offset="0.80367744"
         style="stop-color:#003380;stop-opacity:1" />
      <stop
         style="stop-color:#a7ac93;stop-opacity:0;"
         offset="1"
         id="stop4239" />
    </linearGradient>
    <linearGradient
       gradientTransform="matrix(0,-1,1,0,-1.5e-6,47.999998)"
       gradientUnits="userSpaceOnUse"
       x2="47"
       x1="1"
       id="linearGradient3764">
      <stop
         id="stop7"
         stop-opacity="1"
         stop-color="#e4e4e4" />
      <stop
         id="stop9"
         stop-opacity="1"
         stop-color="#eee"
         offset="1" />
    </linearGradient>
    <clipPath
       id="clipPath-365326813">
      <g
         id="g12"
         transform="translate(0,-1004.3622)">
        <path
           style="fill:#1890d0"
           inkscape:connector-curvature="0"
           id="path14"
           transform="matrix(15.333333,0,0,11.5,414.99999,878.8622)"
           d="m -24,13 c 0,1.105 -0.672,2 -1.5,2 -0.828,0 -1.5,-0.895 -1.5,-2 0,-1.105 0.672,-2 1.5,-2 0.828,0 1.5,0.895 1.5,2 z" />
      </g>
    </clipPath>
    <clipPath
       id="clipPath-370729992">
      <g
         id="g17"
         transform="translate(0,-1004.3622)">
        <path
           style="fill:#1890d0"
           inkscape:connector-curvature="0"
           id="path19"
           transform="matrix(15.333333,0,0,11.5,414.99999,878.8622)"
           d="m -24,13 c 0,1.105 -0.672,2 -1.5,2 -0.828,0 -1.5,-0.895 -1.5,-2 0,-1.105 0.672,-2 1.5,-2 0.828,0 1.5,0.895 1.5,2 z" />
      </g>
    </clipPath>
    <inkscape:perspective
       sodipodi:type="inkscape:persp3d"
       inkscape:vp_x="0 : 256 : 1"
       inkscape:vp_y="0 : 1000 : 0"
       inkscape:vp_z="512 : 256 : 1"
       inkscape:persp3d-origin="256 : 170.66667 : 1"
       id="perspective3018" />
    <defs
       id="defs5">
      <rect
         id="SVGID_1_"
         width="1024"
         height="1024" />
    </defs>
    <clipPath
       id="SVGID_2_">
      <use
         xlink:href="#SVGID_1_"
         overflow="visible"
         id="use9" />
    </clipPath>
    <defs
       id="defs38">
      <rect
         y="0"
         x="0"
         height="1024"
         width="1024"
         id="SVGID_8_" />
    </defs>
    <clipPath
       id="SVGID_9_">
      <use
         height="100%"
         width="100%"
         y="0"
         x="0"
         style="overflow:visible"
         id="use42"
         overflow="visible"
         xlink:href="#SVGID_8_" />
    </clipPath>
    <defs
       id="defs44">
      <filter
         height="413.96701"
         width="413.93399"
         y="293.44199"
         x="305.03299"
         filterUnits="userSpaceOnUse"
         id="Adobe_OpacityMaskFilter">
        <feFlood
           id="feFlood47"
           result="back" />
        <feBlend
           id="feBlend49"
           mode="normal"
           in2="back"
           in="SourceGraphic" />
      </filter>
    </defs>
    <mask
       id="SVGID_10_"
       height="413.967"
       width="413.934"
       y="293.442"
       x="305.033"
       maskUnits="userSpaceOnUse">
      <g
         style="filter:url(#Adobe_OpacityMaskFilter)"
         id="g52">
        <g
           id="g54"
           enable-background="new    ">
          <g
             id="g56">
            <defs
               id="defs58">
              <path
                 inkscape:connector-curvature="0"
                 d="m 513.458,309.257 c 91.063,0 164.903,76.897 164.903,171.722 0,94.833 -73.84,171.727 -164.903,171.727 -91.047,0 -164.89,-76.894 -164.89,-171.727 0,-94.825 73.843,-171.722 164.89,-171.722"
                 id="SVGID_11_" />
            </defs>
            <clipPath
               clip-path="url(#SVGID_9_)"
               id="SVGID_12_">
              <use
                 height="100%"
                 width="100%"
                 y="0"
                 x="0"
                 style="overflow:visible"
                 id="use62"
                 overflow="visible"
                 xlink:href="#SVGID_11_" />
            </clipPath>
            <linearGradient
               gradientTransform="matrix(-10.9559,383.4525,383.4525,10.9559,-392132.59,-11061.132)"
               y2="1024"
               x2="1"
               y1="1024"
               x1="0"
               gradientUnits="userSpaceOnUse"
               id="SVGID_13_">
              <stop
                 id="stop65"
                 style="stop-color:#1C1B18"
                 offset="0" />
              <stop
                 id="stop67"
                 style="stop-color:#4B4846"
                 offset="0.1871" />
              <stop
                 id="stop69"
                 style="stop-color:#7F7B79"
                 offset="0.3677" />
              <stop
                 id="stop71"
                 style="stop-color:#B0ADAD"
                 offset="0.5336" />
              <stop
                 id="stop73"
                 style="stop-color:#D9D8D8"
                 offset="0.6817" />
              <stop
                 id="stop75"
                 style="stop-color:#F5F5F5"
                 offset="0.8068" />
              <stop
                 id="stop77"
                 style="stop-color:#FFFFFF"
                 offset="0.8938" />
              <stop
                 id="stop79"
                 style="stop-color:#FFFFFF"
                 offset="1" />
            </linearGradient>
            <polygon
               style="fill:url(#SVGID_13_)"
               id="polygon81"
               points="338.763,652.426 348.837,299.842 688.166,309.537 678.092,662.121 "
               clip-path="url(#SVGID_12_)" />
          </g>
        </g>
      </g>
    </mask>
    <clipPath
       clipPathUnits="userSpaceOnUse"
       id="clipPath3430">
      <g
         id="g3432"
         style="fill:#9ade00;image-rendering:optimizeSpeed"
         transform="matrix(0.54321148,0,0,0.54321148,237.09607,175.79506)">
        <g
           id="g3434"
           style="fill:#9ade00">
          <path
             id="path3436"
             d="m 969.75,392.05 c -1.1,-4.35 -2.35,-9 -3.65,-13.6 -1,-3.4 -2,-6.85 -3.15,-10.5 -1.6,-5.15 -3.4,-10.5 -5.3,-15.85 -6.45,-18.25 -14.15,-36.05 -23.15,-53.65 -3.8,-7.4 -7.95,-14.95 -12.3,-22.4 -20.3,-34.5 -45.8,-67.2 -76.35,-97.75 C 773.25,105.7 688.7,61.65 592.2,46.25 c -16.25,-2.6 -32.8,-4.4 -50.05,-5.35 -9.7,-0.55 -19.85,-0.85 -30.1,-0.85 -9.35,0 -18.6,0.25 -27.9,0.75 C 365.8,46.9 263.85,92.75 178.3,178.3 Q 40.05,316.55 40.05,512.05 c 0,130.35 46.1,241.65 138.25,333.8 56.7,56.65 120.55,95.9 191.1,117.55 36.75,11.25 74.8,17.85 114.75,19.95 0.15,0 0.25,0 0.4,0 8.5,0.45 16.6,0.7 24.5,0.7 1.2,0 2.1,0 3,0 10.3,0 20.5,-0.3 30.1,-0.8 2.5,-0.15 4.75,-0.3 6.95,-0.45 20.2,-1.45 39.9,-4.05 58.7,-7.7 7.95,-1.55 15.8,-3.3 23.4,-5.15 80.8,-20.3 152.15,-61.6 214.65,-124.1 48.6,-48.6 84.4,-102.5 107.35,-161.8 18.45,-47.65 28.65,-98.8 30.55,-153.5 0.2,-6.05 0.3,-12.25 0.3,-18.5 0,-0.65 0,-1.35 0,-2 0,-0.35 0,-0.65 0,-1 -0.2,-40.65 -4.95,-79.5 -14.3,-117 z"
             style="fill:#9ade00;fill-opacity:1"
             inkscape:connector-curvature="0" />
        </g>
      </g>
    </clipPath>
    <clipPath
       clipPathUnits="userSpaceOnUse"
       id="clipPath3438">
      <g
         id="g3440"
         style="fill:#9ade00;image-rendering:optimizeSpeed"
         transform="matrix(0.54321148,0,0,0.54321148,237.09607,175.79506)">
        <g
           id="g3442"
           style="fill:#9ade00">
          <path
             id="path3444"
             d="m 969.75,392.05 c -1.1,-4.35 -2.35,-9 -3.65,-13.6 -1,-3.4 -2,-6.85 -3.15,-10.5 -1.6,-5.15 -3.4,-10.5 -5.3,-15.85 -6.45,-18.25 -14.15,-36.05 -23.15,-53.65 -3.8,-7.4 -7.95,-14.95 -12.3,-22.4 -20.3,-34.5 -45.8,-67.2 -76.35,-97.75 C 773.25,105.7 688.7,61.65 592.2,46.25 c -16.25,-2.6 -32.8,-4.4 -50.05,-5.35 -9.7,-0.55 -19.85,-0.85 -30.1,-0.85 -9.35,0 -18.6,0.25 -27.9,0.75 C 365.8,46.9 263.85,92.75 178.3,178.3 Q 40.05,316.55 40.05,512.05 c 0,130.35 46.1,241.65 138.25,333.8 56.7,56.65 120.55,95.9 191.1,117.55 36.75,11.25 74.8,17.85 114.75,19.95 0.15,0 0.25,0 0.4,0 8.5,0.45 16.6,0.7 24.5,0.7 1.2,0 2.1,0 3,0 10.3,0 20.5,-0.3 30.1,-0.8 2.5,-0.15 4.75,-0.3 6.95,-0.45 20.2,-1.45 39.9,-4.05 58.7,-7.7 7.95,-1.55 15.8,-3.3 23.4,-5.15 80.8,-20.3 152.15,-61.6 214.65,-124.1 48.6,-48.6 84.4,-102.5 107.35,-161.8 18.45,-47.65 28.65,-98.8 30.55,-153.5 0.2,-6.05 0.3,-12.25 0.3,-18.5 0,-0.65 0,-1.35 0,-2 0,-0.35 0,-0.65 0,-1 -0.2,-40.65 -4.95,-79.5 -14.3,-117 z"
             style="fill:#9ade00;fill-opacity:1"
             inkscape:connector-curvature="0" />
        </g>
      </g>
    </clipPath>
    <linearGradient
       inkscape:collect="always"
       xlink:href="#linearGradient4235"
       id="linearGradient4241"
       x1="-456"
       y1="-136"
       x2="166"
       y2="492.47458"
       gradientUnits="userSpaceOnUse"
       gradientTransform="translate(396,62)" />
  </defs>
  <sodipodi:namedview
     pagecolor="#ffffff"
     bordercolor="#666666"
     borderopacity="1"
     objecttolerance="10"
     gridtolerance="10"
     guidetolerance="10"
     inkscape:pageopacity="0"
     inkscape:pageshadow="2"
     inkscape:window-width="1366"
     inkscape:window-height="744"
     id="namedview4"
     showgrid="false"
     inkscape:zoom="1"
     inkscape:cx="353.18395"
     inkscape:cy="253.90979"
     inkscape:window-x="0"
     inkscape:window-y="24"
     inkscape:window-maximized="1"
     inkscape:current-layer="svg2"
     showguides="true"
     inkscape:guide-bbox="true">
    <sodipodi:guide
       position="21.694915,381.83051"
       orientation="1,0"
       id="guide3351" />
    <sodipodi:guide
       position="254.71187,488.20339"
       orientation="0,1"
       id="guide3353" />
    <sodipodi:guide
       position="490.30508,236.47458"
       orientation="1,0"
       id="guide3355" />
    <sodipodi:guide
       position="290.71186,19.525424"
       orientation="0,1"
       id="guide3357" />
    <sodipodi:guide
       position="253.12026,217.83683"
       orientation="1,0"
       id="guide3379" />
    <sodipodi:guide
       position="532.31958,254.65432"
       orientation="0,1"
       id="guide3381" />
    <sodipodi:guide
       position="225.50714,459.69132"
       orientation="0,1"
       id="guide3405" />
    <sodipodi:guide
       position="254.125,51.054688"
       orientation="0,1"
       id="guide3407" />
    <sodipodi:guide
       position="63.75,328.5625"
       orientation="1,0"
       id="guide3409" />
    <sodipodi:guide
       position="444.15145,331.94244"
       orientation="1,0"
       id="guide3411" />
  </sodipodi:namedview>
  <path
     inkscape:connector-curvature="0"
     style="fill:#b1b1aa"
     d="m -911.5758,-286.51482 c -1.2375,-0.49742 -2.25,-1.44389 -2.25,-2.10328 0,-0.65939 -0.28913,-0.90977 -0.6425,-0.55639 -0.97488,0.97488 1.66522,3.69948 3.51494,3.62744 1.1014,-0.0429 0.90018,-0.35576 -0.62244,-0.96777 z"
     id="path3045" />
  <circle
     style="opacity:1;fill:url(#linearGradient4241);fill-opacity:1;fill-rule:nonzero;stroke:none;stroke-width:4.9000001;stroke-miterlimit:4;stroke-dasharray:none;stroke-opacity:1"
     id="path4233"
     cx="256"
     cy="256"
     r="240" />
  <rect
     style="opacity:1;fill:#f4eed7;fill-opacity:1;fill-rule:nonzero;stroke:none;stroke-width:4.9000001;stroke-miterlimit:4;stroke-dasharray:none;stroke-opacity:1"
     id="rect4231"
     width="240.51602"
     height="324.20209"
     x="52.77737"
     y="157.69853"
     transform="matrix(0.95841262,-0.28538613,0.28538613,0.95841262,0,0)" />
  <g
     id="g3805"
     transform="matrix(7.0974347,-2.2657661,2.2657661,7.0974347,-2.632448,75.35888)"
     style="fill:#6f8a91;fill-opacity:1">
    <path
       d="m 26.58797,35.195693 -3.66441,0 -8.093565,-11.818999 8.093565,-10.481001 3.66441,0 -8.093565,10.481001 8.093565,11.818999 m -11.62237,0 -3.37763,0 0,-22.3 3.37763,0 0,22.3"
       style="font-style:normal;font-variant:normal;font-weight:500;font-stretch:normal;font-size:35.7142868px;line-height:125%;font-family:Cabin;-inkscape-font-specification:'Cabin Medium';letter-spacing:0px;word-spacing:0px;fill:#6f8a91;fill-opacity:1;stroke:none"
       id="path3764"
       inkscape:connector-curvature="0"
       sodipodi:nodetypes="cccccccccccc" />
    <g
       transform="matrix(0,-0.29250563,0.29238579,0,29.352429,43.542011)"
       style="font-style:normal;font-variant:normal;font-weight:normal;font-stretch:normal;font-size:40px;line-height:125%;font-family:'Open Sans';-inkscape-font-specification:'Open Sans';letter-spacing:0px;word-spacing:0px;fill:#6f8a91;fill-opacity:1;stroke:none"
       id="text3787">
      <path
         d="m 28.294825,-3.1245384 c -3e-6,-1.9400748 1.080725,-2.9101259 3.242187,-2.9101563 2.16145,3.04e-5 3.242178,0.9700815 3.242188,2.9101563 -1e-5,0.9245057 -0.273447,1.6471612 -0.820313,2.16796873 -0.533862,0.5078373 -1.341153,0.7617433 -2.421875,0.76171875 -2.161462,2.455e-5 -3.24219,-0.97653698 -3.242187,-2.92968748 m 6.210937,27.4804684 -5.957031,0 0,-21.8359372 5.957031,0 0,21.8359372"
         style="font-weight:bold;-inkscape-font-specification:'Open Sans Bold';fill:#6f8a91;fill-opacity:1"
         id="path3792"
         inkscape:connector-curvature="0" />
      <path
         d="m 46.693262,24.35593 -5.957031,0 0,-30.3906247 5.957031,0 0,30.3906247"
         style="font-weight:bold;-inkscape-font-specification:'Open Sans Bold';fill:#6f8a91;fill-opacity:1"
         id="path3794"
         inkscape:connector-curvature="0" />
      <path
         d="m 61.9667,6.3481178 c -1.263032,1.8e-5 -2.252614,0.4036635 -2.96875,1.2109375 -0.716155,0.7942869 -1.126311,1.9270982 -1.230469,3.3984377 l 8.359375,0 C 66.100798,9.4861535 65.716684,8.3533422 64.974512,7.5590553 64.23231,6.7517813 63.229707,6.3481358 61.9667,6.3481178 m 0.839843,18.3984372 c -3.515634,0 -6.263027,-0.970051 -8.242187,-2.910156 -1.97917,-1.9401 -2.968752,-4.687493 -2.96875,-8.242187 -2e-6,-3.6588402 0.911455,-6.4843582 2.734375,-8.4765629 1.835931,-2.0051871 4.368481,-3.0077903 7.597656,-3.0078125 3.085922,2.22e-5 5.488264,0.8789276 7.207031,2.6367187 1.718729,1.7578304 2.578103,4.1862134 2.578125,7.2851567 l 0,2.890625 -14.082031,0 c 0.0651,1.692716 0.566398,3.014329 1.503906,3.964843 0.93749,0.950526 2.252593,1.425786 3.945313,1.425782 1.315089,4e-6 2.558578,-0.136715 3.730469,-0.410157 1.171856,-0.273432 2.395814,-0.70963 3.671875,-1.308593 l 0,4.609375 c -1.041687,0.520834 -2.154967,0.904948 -3.339844,1.152343 -1.184912,0.260417 -2.630223,0.390625 -4.335938,0.390625"
         style="font-weight:bold;-inkscape-font-specification:'Open Sans Bold';fill:#6f8a91;fill-opacity:1"
         id="path3796"
         inkscape:connector-curvature="0" />
    </g>
  </g>
  <g
     id="g3413"
     transform="translate(60,-4)"
     style="fill:#5d6c53">
    <polygon
       transform="matrix(1.2424078,0,0,1.2424078,-102.35808,-118.58824)"
       id="polygon5"
       points="260.676,413.608 231.664,396.858 370.152,156.75 399.164,173.5 "
       style="fill:#5d6c53" />
    <polygon
       transform="matrix(1.2424078,0,0,1.2424078,-102.35808,-118.58824)"
       id="polygon7"
       points="231.664,396.86 219.871,448.7 221.678,449.743 260.676,413.61 "
       style="fill:#5d6c53" />
  </g>
</svg>
