<?xml version="1.0" encoding="UTF-8" standalone="no"?>
<!-- Created with Inkscape (http://www.inkscape.org/) -->

<svg
   xmlns:dc="http://purl.org/dc/elements/1.1/"
   xmlns:cc="http://creativecommons.org/ns#"
   xmlns:rdf="http://www.w3.org/1999/02/22-rdf-syntax-ns#"
   xmlns:svg="http://www.w3.org/2000/svg"
   xmlns="http://www.w3.org/2000/svg"
   xmlns:xlink="http://www.w3.org/1999/xlink"
   xmlns:sodipodi="http://sodipodi.sourceforge.net/DTD/sodipodi-0.dtd"
   xmlns:inkscape="http://www.inkscape.org/namespaces/inkscape"
   width="128"
   height="128"
   viewBox="0 0 128 128"
   id="svg2"
   version="1.1"
   inkscape:version="0.91 r"
   sodipodi:docname="diodon.svg">
  <defs
     id="defs4">
    <linearGradient
       gradientUnits="userSpaceOnUse"
       y2="-30.721"
       x2="0"
       y1="17.279"
       id="0"
       gradientTransform="matrix(2.4955507,0,0,2.4955507,240.71244,33.087543)">
      <stop
         id="stop3341"
         stop-color="#dc3c30" />
      <stop
         id="stop3343"
         stop-color="#ff786d"
         offset="1" />
    </linearGradient>
    <linearGradient
       id="0-9"
       x1="-48.953"
       y1="-5.178"
       x2="-49.554"
       y2="-30.891"
       gradientUnits="userSpaceOnUse">
      <stop
         id="stop3394"
         stop-color="#566069" />
      <stop
         id="stop3396"
         stop-color="#6c7884"
         offset="1" />
    </linearGradient>
    <linearGradient
       id="1"
       x1="43.691"
       y1="15.429"
       x2="42.36"
       y2="-4.937"
       gradientUnits="userSpaceOnUse">
      <stop
         id="stop3399"
         stop-color="#d5dbff" />
      <stop
         id="stop3401"
         stop-color="#f9ffff"
         offset="1" />
    </linearGradient>
    <linearGradient
       id="2"
       x1="-56.27"
       y1="3.509"
       x2="-56.38"
       y2="-26.783"
       gradientUnits="userSpaceOnUse">
      <stop
         id="stop3404"
         stop-color="#197ff1" />
      <stop
         id="stop3406"
         stop-color="#21c6fb"
         offset="1" />
    </linearGradient>
    <linearGradient
       gradientUnits="userSpaceOnUse"
       y2="-1.823"
       x2="22.382"
       y1="48.821"
       x1="23.2"
       id="0-7">
      <stop
         id="stop3457"
         stop-color="#7737c5" />
      <stop
         id="stop3459"
         offset="1"
         stop-color="#9371ff" />
    </linearGradient>
    <linearGradient
       gradientUnits="userSpaceOnUse"
       y2="501.51"
       x2="0"
       y1="546.29"
       id="0-3">
      <stop
         id="stop3484"
         stop-color="#197cf1" />
      <stop
         id="stop3486"
         stop-color="#20bcfa"
         offset="1" />
    </linearGradient>
    <linearGradient
       y2="9.965"
       x2="0"
       y1="36.965"
       gradientUnits="userSpaceOnUse"
       id="0-5">
      <stop
         id="stop3509"
         stop-color="#2b65bd" />
      <stop
         id="stop3511"
         stop-color="#64a3dc"
         offset="1" />
    </linearGradient>
    <linearGradient
       id="linearGradient3579"
       y1="545.8"
       x2="0"
       y2="517.8"
       gradientUnits="userSpaceOnUse">
      <stop
         id="stop3581"
         stop-color="#3889e9" />
      <stop
         id="stop3583"
         stop-color="#5ea5fb"
         offset="1" />
    </linearGradient>
    <linearGradient
       id="0-8"
       gradientUnits="userSpaceOnUse"
       y1="545.14"
       x2="0"
       y2="518.14">
      <stop
         id="stop3586"
         stop-color="#00a661" />
      <stop
         id="stop3588"
         stop-color="#37ce97"
         offset="1" />
    </linearGradient>
    <linearGradient
       y2="-51.27"
       x2="0"
       y1="-2.471"
       gradientUnits="userSpaceOnUse"
       id="0-6">
      <stop
         id="stop3639"
         stop-color="#0a80fd" />
      <stop
         id="stop3641"
         stop-color="#56c5fa"
         offset="1" />
    </linearGradient>
    <linearGradient
       id="linearGradient3663"
       y1="545.8"
       x2="0"
       y2="517.8"
       gradientUnits="userSpaceOnUse">
      <stop
         id="stop3665"
         stop-color="#3889e9" />
      <stop
         id="stop3667"
         stop-color="#5ea5fb"
         offset="1" />
    </linearGradient>
    <linearGradient
       id="0-0"
       gradientUnits="userSpaceOnUse"
       x1="414.43"
       y1="545.87"
       x2="387.16"
       y2="517.7">
      <stop
         id="stop3670"
         stop-color="#80256c" />
      <stop
         id="stop3672"
         stop-color="#4567bd"
         offset="1" />
    </linearGradient>
    <linearGradient
       gradientUnits="userSpaceOnUse"
       y2="427.54"
       x2="543.74"
       y1="484.81"
       x1="543.95"
       id="8"
       xlink:href="#1-6"
       gradientTransform="matrix(0.53361,0,0,0.53476,-221.94,-216.11)" />
    <linearGradient
       xlink:href="#3"
       id="5"
       y1="28.442"
       x2="0"
       y2="25.17"
       gradientUnits="userSpaceOnUse" />
    <linearGradient
       xlink:href="#3"
       id="7"
       gradientUnits="userSpaceOnUse"
       x1="69.39"
       y1="24.14"
       x2="69.26"
       y2="21.988" />
    <linearGradient
       id="6"
       gradientUnits="userSpaceOnUse"
       gradientTransform="matrix(0.68488,0,0,0.84437,-199.89,-405.47)"
       x1="391.57"
       y1="531.8"
       x2="390.88"
       y2="507.67">
      <stop
         id="stop3726"
         stop-color="#d3d3d3" />
      <stop
         id="stop3728"
         stop-color="#fcf9f9"
         offset="1" />
    </linearGradient>
    <linearGradient
       xlink:href="#3"
       id="4"
       gradientUnits="userSpaceOnUse"
       x1="74.3"
       y1="26.87"
       x2="88.18"
       y2="40.747" />
    <linearGradient
       id="3">
      <stop
         id="stop3732"
         stop-color="#222c35" />
      <stop
         id="stop3734"
         stop-color="#545e67"
         offset="1" />
    </linearGradient>
    <linearGradient
       xlink:href="#1-6"
       id="0-61"
       gradientUnits="userSpaceOnUse"
       x1="80.34"
       y1="43.46"
       x2="80.06"
       y2="25.427" />
    <linearGradient
       xlink:href="#3"
       id="2-0"
       gradientUnits="userSpaceOnUse"
       x1="80.978"
       y1="44.46"
       x2="80.37"
       y2="22.484" />
    <linearGradient
       id="1-6">
      <stop
         id="stop3739"
         stop-color="#197ff1" />
      <stop
         id="stop3741"
         stop-color="#21c6fb"
         offset="1" />
    </linearGradient>
    <linearGradient
       gradientTransform="matrix(0.35533,0,0,0.34923,314.86,-49.68)"
       gradientUnits="userSpaceOnUse"
       y2="104.85"
       x2="-1060.26"
       y1="203.1"
       x1="-1092.91"
       id="0-2">
      <stop
         id="stop3816"
         stop-color="#f2b333" />
      <stop
         id="stop3818"
         stop-color="#fcde3f"
         offset="1" />
    </linearGradient>
    <linearGradient
       gradientUnits="userSpaceOnUse"
       y2=".059"
       x2="-55.927"
       y1="41.34"
       x1="-50.952"
       id="1-3">
      <stop
         id="stop3821"
         stop-color="#1584d8" />
      <stop
         id="stop3823"
         stop-color="#1cb2ff"
         offset="1" />
    </linearGradient>
  </defs>
  <sodipodi:namedview
     id="base"
     pagecolor="#ffffff"
     bordercolor="#666666"
     borderopacity="1.0"
     inkscape:pageopacity="0.0"
     inkscape:pageshadow="2"
     inkscape:zoom="2.8"
     inkscape:cx="41.425506"
     inkscape:cy="86.606718"
     inkscape:document-units="px"
     inkscape:current-layer="layer1"
     showgrid="false"
     units="px"
     inkscape:window-width="1366"
     inkscape:window-height="744"
     inkscape:window-x="0"
     inkscape:window-y="24"
     inkscape:window-maximized="1" />
  <metadata
     id="metadata7">
    <rdf:RDF>
      <cc:Work
         rdf:about="">
        <dc:format>image/svg+xml</dc:format>
        <dc:type
           rdf:resource="http://purl.org/dc/dcmitype/StillImage" />
        <dc:title></dc:title>
      </cc:Work>
    </rdf:RDF>
  </metadata>
  <g
     inkscape:label="Calque 1"
     inkscape:groupmode="layer"
     id="layer1"
     transform="translate(0,-924.3622)">
    <g
       id="g3825"
       transform="matrix(2.4829892,0,0,2.4829892,192.89143,919.01534)"
       style="enable-background:new">
      <rect
         style="fill:url(#0-2)"
         id="rect3827"
         rx="0.977"
         transform="matrix(0.94958,-0.31353,0.30858,0.9512,0,0)"
         y="-10.375"
         x="-76.190002"
         height="40.040001"
         width="31.896" />
      <rect
         style="fill:url(#1-3)"
         id="rect3829"
         rx="1.068"
         transform="matrix(0.99188,-0.12716,0.13593,0.99072,0,0)"
         y="-0.317"
         x="-70.904999"
         height="43.77"
         width="35.547001" />
      <path
         id="path3831"
         d="m -43.18,23.74 c -0.461,-0.081 -0.896,0.212 -0.977,0.673 l -2.115,12.1 c -0.216,1.236 -0.839,2.17 -1.854,2.882 -1.014,0.713 -2.119,0.979 -3.37,0.761 -1.221,-0.213 -2.187,-0.827 -2.9,-1.841 -0.712,-1.014 -0.962,-2.132 -0.749,-3.352 l 0.799,-4.57 0.427,-2.441 1.051,-6.01 0.505,-2.887 0.005,-0.03 0.005,-0.03 c 0.143,-0.819 0.569,-1.477 1.248,-1.96 0.688,-0.489 1.453,-0.682 2.302,-0.533 0.849,0.148 1.504,0.589 1.984,1.282 0.475,0.685 0.652,1.449 0.509,2.267 l -0.005,0.03 -0.001,0.059 -2.36,13.501 c -0.148,0.848 -0.918,1.389 -1.766,1.241 -0.819,-0.143 -1.369,-0.945 -1.226,-1.763 l 1.236,-7.07 c 0.081,-0.461 -0.214,-0.881 -0.676,-0.962 -0.461,-0.081 -0.881,0.214 -0.962,0.676 l -1.236,7.07 c -0.153,0.878 0.014,1.674 0.518,2.391 0.504,0.717 1.181,1.142 2.059,1.296 0.878,0.153 1.668,-0.023 2.391,-0.518 0.706,-0.483 1.139,-1.166 1.298,-2.074 l 2.37,-13.56 0.005,-0.03 c 0.224,-1.28 -0.05,-2.459 -0.794,-3.529 -0.751,-1.079 -1.768,-1.735 -3.048,-1.959 -1.28,-0.224 -2.459,0.049 -3.532,0.809 -1.063,0.754 -1.72,1.77 -1.944,3.05 l -0.005,0.03 -0.51,2.917 -1.051,6.01 -0.427,2.441 -0.799,4.57 c -0.294,1.682 0.052,3.215 1.022,4.597 0.97,1.381 2.295,2.227 3.977,2.521 1.682,0.294 3.239,-0.017 4.638,-0.999 1.399,-0.983 2.234,-2.34 2.523,-3.992 l 2.115,-12.1 c 0.081,-0.462 -0.214,-0.881 -0.675,-0.962"
         inkscape:connector-curvature="0"
         style="fill:#ffffff;fill-opacity:0.85" />
    </g>
  </g>
</svg>
