<?xml version="1.0" encoding="UTF-8" standalone="no"?>
<svg
   xmlns:dc="http://purl.org/dc/elements/1.1/"
   xmlns:cc="http://creativecommons.org/ns#"
   xmlns:rdf="http://www.w3.org/1999/02/22-rdf-syntax-ns#"
   xmlns:svg="http://www.w3.org/2000/svg"
   xmlns="http://www.w3.org/2000/svg"
   xmlns:xlink="http://www.w3.org/1999/xlink"
   xmlns:sodipodi="http://sodipodi.sourceforge.net/DTD/sodipodi-0.dtd"
   xmlns:inkscape="http://www.inkscape.org/namespaces/inkscape"
   viewBox="0 0 128 128"
   id="svg2"
   version="1.1"
   inkscape:version="0.91 r"
   width="100%"
   height="100%"
   sodipodi:docname="maya.svg">
  <metadata
     id="metadata97">
    <rdf:RDF>
      <cc:Work
         rdf:about="">
        <dc:format>image/svg+xml</dc:format>
        <dc:type
           rdf:resource="http://purl.org/dc/dcmitype/StillImage" />
        <dc:title />
      </cc:Work>
    </rdf:RDF>
  </metadata>
  <sodipodi:namedview
     pagecolor="#ffffff"
     bordercolor="#666666"
     borderopacity="1"
     objecttolerance="10"
     gridtolerance="10"
     guidetolerance="10"
     inkscape:pageopacity="0"
     inkscape:pageshadow="2"
     inkscape:window-width="1366"
     inkscape:window-height="744"
     id="namedview95"
     showgrid="false"
     inkscape:zoom="2.4583333"
     inkscape:cx="115.57259"
     inkscape:cy="78.190622"
     inkscape:window-x="0"
     inkscape:window-y="24"
     inkscape:window-maximized="1"
     inkscape:current-layer="svg2" />
  <defs
     id="defs4">
    <linearGradient
       id="linearGradient3764"
       x1="53.751759"
       x2="-8.2375479"
       gradientUnits="userSpaceOnUse"
       gradientTransform="matrix(0,-1,1,0,-1.5e-6,47.999998)"
       y1="-3.8615241"
       y2="56.418804">
      <stop
         stop-color="#53cbcd"
         stop-opacity="1"
         id="stop7" />
      <stop
         id="stop3372"
         stop-opacity="1"
         stop-color="#53cbcd"
         offset="0.15248351"
         style="stop-color:#20c3fa;stop-opacity:1" />
      <stop
         style="stop-color:#196af1;stop-opacity:1"
         offset="0.78424513"
         stop-color="#53cbcd"
         stop-opacity="1"
         id="stop3374" />
      <stop
         offset="1"
         stop-color="#63d1d1"
         stop-opacity="1"
         id="stop9" />
    </linearGradient>
    <clipPath
       id="clipPath-632402728">
      <g
         transform="translate(0,-1004.3622)"
         id="g12">
        <path
           d="m -24,13 c 0,1.105 -0.672,2 -1.5,2 -0.828,0 -1.5,-0.895 -1.5,-2 0,-1.105 0.672,-2 1.5,-2 0.828,0 1.5,0.895 1.5,2 z"
           transform="matrix(15.333333,0,0,11.5,414.99999,878.8622)"
           id="path14"
           inkscape:connector-curvature="0"
           style="fill:#1890d0" />
      </g>
    </clipPath>
    <clipPath
       id="clipPath-646364100">
      <g
         transform="translate(0,-1004.3622)"
         id="g17">
        <path
           d="m -24,13 c 0,1.105 -0.672,2 -1.5,2 -0.828,0 -1.5,-0.895 -1.5,-2 0,-1.105 0.672,-2 1.5,-2 0.828,0 1.5,0.895 1.5,2 z"
           transform="matrix(15.333333,0,0,11.5,414.99999,878.8622)"
           id="path19"
           inkscape:connector-curvature="0"
           style="fill:#1890d0" />
      </g>
    </clipPath>
    <linearGradient
       gradientTransform="matrix(2.4021018,0,0,2.4021018,-85.862242,69.094932)"
       gradientUnits="userSpaceOnUse"
       y2="-27.705999"
       x2="60.752998"
       y1="22.938999"
       x1="61.57"
       id="0">
      <stop
         id="stop7-6"
         stop-color="#197cf1" />
      <stop
         id="stop9-0"
         stop-color="#21c9fb"
         offset="1" />
    </linearGradient>
    <linearGradient
       id="linearGradient3345"
       inkscape:collect="always">
      <stop
         id="stop3347"
         offset="0"
         style="stop-color:#216778;stop-opacity:1;" />
      <stop
         style="stop-color:#21c6fb;stop-opacity:1"
         offset="0.0510117"
         id="stop3355" />
      <stop
         style="stop-color:#1da0f6;stop-opacity:1"
         offset="0.50780702"
         id="stop3353" />
      <stop
         id="stop4174"
         offset="0.93687087"
         style="stop-color:#197ff1;stop-opacity:1" />
      <stop
         id="stop3349"
         offset="1"
         style="stop-color:#216778;stop-opacity:0;" />
    </linearGradient>
    <linearGradient
       gradientUnits="userSpaceOnUse"
       y2="539.6131"
       x2="268.46088"
       y1="-18.785515"
       x1="251.5862"
       id="linearGradient3351"
       xlink:href="#linearGradient3345"
       inkscape:collect="always"
       gradientTransform="matrix(0.24108969,0,0,0.24108969,2.5842743,2.3029416)" />
    <linearGradient
       gradientTransform="matrix(17.582245,0,0,17.582245,-7375.8113,-9074.483)"
       y2="518.14001"
       x2="0"
       y1="545.14001"
       gradientUnits="userSpaceOnUse"
       id="0-1">
      <stop
         stop-color="#197ff1"
         id="stop7-1" />
      <stop
         offset="1"
         stop-color="#21c6fb"
         id="stop9-8" />
    </linearGradient>
  </defs>
  <g
     id="g33"
     transform="translate(0,80)" />
  <g
     id="g35"
     transform="matrix(2.6182756,0,0,2.6182756,1.1613853,1.5003683)">
    <g
       clip-path="url(#clipPath-632402728)"
       id="g37">
      <g
         transform="translate(1,1)"
         id="g39">
        <g
           id="g41"
           style="opacity:0.1">
          <!-- color: #63d1d1 -->
          <g
             id="g43">
            <path
               d="m 31,34 5,0 0,-16 -5,6 m 0,10"
               id="path45"
               inkscape:connector-curvature="0"
               style="fill:#000000;fill-opacity:1;fill-rule:nonzero;stroke:none" />
            <path
               d="m 17,34 -5,0 0,-16 5,6 m 0,10"
               id="path47"
               inkscape:connector-curvature="0"
               style="fill:#000000;fill-opacity:1;fill-rule:nonzero;stroke:none" />
            <path
               d="M 24,33.434 12,18 24,10 36,18 M 24,33.434"
               id="path49"
               inkscape:connector-curvature="0"
               style="fill:#000000;fill-opacity:1;fill-rule:nonzero;stroke:none" />
            <path
               d="m 17,20 7,-10 7,10 m -14,0"
               id="path51"
               inkscape:connector-curvature="0"
               style="fill:#000000;fill-opacity:1;fill-rule:nonzero;stroke:none" />
            <path
               d="m 17,34 0,-14 4,0 m -4,14"
               id="path53"
               inkscape:connector-curvature="0"
               style="fill:#000000;fill-opacity:1;fill-rule:nonzero;stroke:none" />
            <path
               d="m 31,20 -4,0 4,14 m 0,-14"
               id="path55"
               inkscape:connector-curvature="0"
               style="fill:#000000;fill-opacity:1;fill-rule:nonzero;stroke:none" />
            <path
               d="m 21,20 3,-10 3,10 m -6,0"
               id="path57"
               inkscape:connector-curvature="0"
               style="fill:#000000;fill-opacity:1;fill-rule:nonzero;stroke:none" />
            <path
               d="M 24,33.457 19,27 l 2,-7 6,0 2,7 m -5,6.457"
               id="path59"
               inkscape:connector-curvature="0"
               style="fill:#000000;fill-opacity:1;fill-rule:nonzero;stroke:none" />
            <path
               d="M 19,27 17,24.434 17,34 m 2,-7"
               id="path61"
               inkscape:connector-curvature="0"
               style="fill:#000000;fill-opacity:1;fill-rule:nonzero;stroke:none" />
            <path
               d="m 31,34 -2,-7 2,-2.582 M 31,34"
               id="path63"
               inkscape:connector-curvature="0"
               style="fill:#000000;fill-opacity:1;fill-rule:nonzero;stroke:none" />
          </g>
        </g>
      </g>
    </g>
  </g>
  <circle
     style="opacity:1;fill:url(#linearGradient3351);fill-opacity:1;fill-rule:nonzero;stroke:none;stroke-width:0.71600002;stroke-miterlimit:0;stroke-dasharray:none;stroke-opacity:1"
     id="path3343"
     cx="63.978806"
     cy="63.976479"
     r="59.915146" />
  <g
     id="g65"
     transform="matrix(2.6182756,0,0,2.6182756,1.1613853,1.5003683)">
    <g
       clip-path="url(#clipPath-646364100)"
       id="g67">
      <!-- color: #63d1d1 -->
      <g
         id="g69">
        <path
           d="m 31,34 5,0 0,-16 -5,6 m 0,10"
           id="path71"
           inkscape:connector-curvature="0"
           style="fill:#007878;fill-opacity:1;fill-rule:nonzero;stroke:none" />
        <path
           d="m 17,34 -5,0 0,-16 5,6 m 0,10"
           id="path73"
           inkscape:connector-curvature="0"
           style="fill:#007878;fill-opacity:1;fill-rule:nonzero;stroke:none" />
        <path
           d="M 24,33.434 12,18 24,10 36,18 M 24,33.434"
           id="path75"
           inkscape:connector-curvature="0"
           style="fill:#004c4c;fill-opacity:1;fill-rule:nonzero;stroke:none" />
        <path
           d="m 17,20 7,-10 7,10 m -14,0"
           id="path77"
           inkscape:connector-curvature="0"
           style="fill:#001919;fill-opacity:1;fill-rule:nonzero;stroke:none" />
        <path
           d="m 17,34 0,-14 4,0 m -4,14"
           id="path79"
           inkscape:connector-curvature="0"
           style="fill:#003434;fill-opacity:1;fill-rule:nonzero;stroke:none" />
        <path
           d="m 31,20 -4,0 4,14 m 0,-14"
           id="path81"
           inkscape:connector-curvature="0"
           style="fill:#003434;fill-opacity:1;fill-rule:nonzero;stroke:none" />
        <path
           d="m 21,20 3,-10 3,10 m -6,0"
           id="path83"
           inkscape:connector-curvature="0"
           style="fill:#004c4c;fill-opacity:1;fill-rule:nonzero;stroke:none" />
        <path
           d="M 24,33.457 19,27 l 2,-7 6,0 2,7 m -5,6.457"
           id="path85"
           inkscape:connector-curvature="0"
           style="fill:#007878;fill-opacity:1;fill-rule:nonzero;stroke:none" />
        <path
           d="M 19,27 17,24.434 17,34 m 2,-7"
           id="path87"
           inkscape:connector-curvature="0"
           style="fill:#004c4c;fill-opacity:1;fill-rule:nonzero;stroke:none" />
        <path
           d="m 31,34 -2,-7 2,-2.582 M 31,34"
           id="path89"
           inkscape:connector-curvature="0"
           style="fill:#004c4c;fill-opacity:1;fill-rule:nonzero;stroke:none" />
      </g>
    </g>
  </g>
  <text
     xml:space="preserve"
     style="font-style:normal;font-weight:bold;font-size:315.86001587px;line-height:125%;font-family:Sans;-inkscape-font-specification:'Helvetica Neue Bold';letter-spacing:0px;word-spacing:0px;fill:#ffffff;fill-opacity:1;stroke:none"
     x="449.09308"
     y="179.16643"
     id="text2987"
     sodipodi:linespacing="125%"
     transform="scale(1.0164597,0.98380683)"><tspan
       sodipodi:role="line"
       id="tspan2989"
       x="449.09308"
       y="179.16643"
       style="font-style:normal;font-variant:normal;font-weight:bold;font-stretch:normal;font-family:'Helvetica Neue';-inkscape-font-specification:'Helvetica Neue Bold';fill:#ffffff">?</tspan></text>
  <circle
     style="fill:#5ea5fb;fill-opacity:0"
     id="circle17"
     r="246.15143"
     cy="83.426025"
     cx="-42.345955" />
</svg>
