<?xml version="1.0" encoding="UTF-8" standalone="no"?>
<!-- Created with Inkscape (http://www.inkscape.org/) -->

<svg
   xmlns:dc="http://purl.org/dc/elements/1.1/"
   xmlns:cc="http://creativecommons.org/ns#"
   xmlns:rdf="http://www.w3.org/1999/02/22-rdf-syntax-ns#"
   xmlns:svg="http://www.w3.org/2000/svg"
   xmlns="http://www.w3.org/2000/svg"
   xmlns:xlink="http://www.w3.org/1999/xlink"
   xmlns:sodipodi="http://sodipodi.sourceforge.net/DTD/sodipodi-0.dtd"
   xmlns:inkscape="http://www.inkscape.org/namespaces/inkscape"
   version="1.1"
   width="100%"
   height="100%"
   viewBox="0 0 512 512"
   id="svg2"
   inkscape:version="0.91 r"
   sodipodi:docname="meld.svg">
  <sodipodi:namedview
     pagecolor="#ffffff"
     bordercolor="#666666"
     borderopacity="1"
     objecttolerance="10"
     gridtolerance="10"
     guidetolerance="10"
     inkscape:pageopacity="0"
     inkscape:pageshadow="2"
     inkscape:window-width="1366"
     inkscape:window-height="744"
     id="namedview37"
     showgrid="false"
     inkscape:zoom="0.4609375"
     inkscape:cx="180.0678"
     inkscape:cy="256"
     inkscape:window-x="0"
     inkscape:window-y="24"
     inkscape:window-maximized="1"
     inkscape:current-layer="svg2" />
  <metadata
     id="metadata82">
    <rdf:RDF>
      <cc:Work
         rdf:about="">
        <dc:format>image/svg+xml</dc:format>
        <dc:type
           rdf:resource="http://purl.org/dc/dcmitype/StillImage" />
      </cc:Work>
    </rdf:RDF>
  </metadata>
  <defs
     id="defs4">
    <linearGradient
       inkscape:collect="always"
       id="linearGradient3357">
      <stop
         style="stop-color:#ff5600;stop-opacity:1;"
         offset="0"
         id="stop3359" />
      <stop
         style="stop-color:#ffb036;stop-opacity:1"
         offset="0.2093256"
         id="stop3363" />
      <stop
         id="stop3365"
         offset="0.4779554"
         style="stop-color:#ff6840;stop-opacity:1" />
      <stop
         style="stop-color:#ff443a;stop-opacity:1"
         offset="0.80272031"
         id="stop3367" />
      <stop
         style="stop-color:#ff5600;stop-opacity:0;"
         offset="1"
         id="stop3361" />
    </linearGradient>
    <linearGradient
       inkscape:collect="always"
       xlink:href="#linearGradient3357"
       id="linearGradient3363"
       x1="-65.084747"
       y1="-49.898304"
       x2="583.5932"
       y2="577.08472"
       gradientUnits="userSpaceOnUse" />
    <clipPath
       id="1">
      <path
         style="fill:#1890d0"
         inkscape:connector-curvature="0"
         id="path7"
         d="m -24,13 c 0,1.105 -0.672,2 -1.5,2 -0.828,0 -1.5,-0.895 -1.5,-2 0,-1.105 0.672,-2 1.5,-2 0.828,0 1.5,0.895 1.5,2"
         transform="matrix(15.33333,0,0,11.5,415,-125.5)" />
    </clipPath>
    <linearGradient
       gradientTransform="matrix(2.4067797,0,0,2.4067797,6.5084747,6.3728816)"
       y2="-0.20299999"
       x2="23.593"
       y1="47.592999"
       x1="24.610001"
       gradientUnits="userSpaceOnUse"
       id="0">
      <stop
         id="stop10"
         stop-color="#ff433a" />
      <stop
         id="stop12"
         offset="1"
         stop-color="#ff9436" />
    </linearGradient>
  </defs>
  <path
     d="m 495.30461,253.55951 c 0,131.68318 -106.75159,238.43476 -238.43476,238.43476 -131.68317,0 -238.434765,-106.75158 -238.434765,-238.43476 0,-131.68317 106.751595,-238.434764 238.434765,-238.434764 131.68317,0 238.43476,106.751594 238.43476,238.434764"
     inkscape:connector-curvature="0"
     id="path16"
     style="fill:url(#linearGradient3363);fill-rule:evenodd;fill-opacity:1" />
  <path
     d="m 257.02468,15.312252 c -103.49492,0 -191.577775,65.939614 -224.547579,158.106948 -0.345279,7.42066 -0.358342,14.93062 -0.03373,22.56694 4.197734,98.68068 84.673689,197.72081 194.355209,185.84863 62.66115,-6.78348 112.76392,-66.36876 80.77439,-117.21871 -10.16433,-16.15488 -34.85194,-17.54686 -46.46052,-9.80273 55.77746,-1.57387 28.54768,64.87221 -20.4561,75.01802 C 173.70375,343.68694 122.31573,278.99555 117.67578,218.79924 109.00909,106.30761 217.7942,26.633304 321.83371,27.003628 c 3.27847,0.01198 6.53515,0.103473 9.76895,0.238533 -23.46117,-7.719096 -48.52999,-11.91357 -74.5769,-11.91357 m 56.73596,115.693849 c -3.20659,-0.0414 -6.53514,0.0511 -9.80272,0.20477 -3.36887,0.15793 -6.81834,0.48033 -10.24492,0.85065 -62.66116,6.78349 -112.76393,66.36876 -80.77441,117.22961 10.16434,16.15488 34.85193,17.54687 46.46053,9.80273 -55.77746,1.57388 -28.5477,-64.87221 20.4561,-75.01802 66.95255,-13.8556 118.34058,50.8358 122.98053,111.03211 8.45104,109.69242 -94.81406,188.1795 -196.42468,191.66491 16.31172,3.52571 33.24647,5.41219 50.6147,5.41219 110.93409,0 204.17972,-75.7859 230.81043,-178.38768 C 482.01229,222.58309 411.69087,132.28917 313.7737,131.0366"
     inkscape:connector-curvature="0"
     id="path20"
     style="fill:#ffffff" />
  <text
     x="729.64001"
     y="231.36"
     id="text34"
     style="font-size:129.22999573px;line-height:125%;letter-spacing:0;word-spacing:0;font-family:Gentium Book Basic">
    <tspan
       x="729.64001"
       y="231.36"
       id="tspan36" />
  </text>
  <text
     x="378.91"
     y="579.26001"
     transform="scale(4.0128,0.2492)"
     id="text38"
     style="font-size:46.95399857px;text-anchor:middle;font-family:Arial" />
  <text
     x="1310.91"
     y="151.36"
     id="text40"
     style="font-size:129.22999573px;line-height:125%;letter-spacing:0;word-spacing:0;font-family:Gentium Book Basic">
    <tspan
       x="1310.91"
       y="151.36"
       id="tspan42" />
  </text>
  <text
     x="523.76001"
     y="258.22"
     transform="scale(4.0128,0.2492)"
     id="text44"
     style="font-size:46.95399857px;text-anchor:middle;font-family:Arial" />
  <text
     x="239.33"
     y="-29.9"
     id="text46"
     style="font-size:129.22999573px;line-height:125%;letter-spacing:0;word-spacing:0;font-family:Gentium Book Basic">
    <tspan
       x="239.33"
       y="-29.9"
       id="tspan48" />
  </text>
  <text
     x="256.72"
     y="-469.13"
     transform="scale(4.0128,0.2492)"
     id="text50"
     style="font-size:46.95399857px;text-anchor:middle;font-family:Arial" />
  <text
     x="1337.38"
     y="-246.37"
     id="text52"
     style="font-size:129.22999573px;line-height:125%;letter-spacing:0;word-spacing:0;font-family:Gentium Book Basic">
    <tspan
       x="1337.38"
       y="-246.37"
       id="tspan54" />
  </text>
  <text
     x="530.35999"
     y="-1337.8"
     transform="scale(4.0128,0.2492)"
     id="text56"
     style="font-size:46.95399857px;text-anchor:middle;font-family:Arial" />
  <text
     x="1918.65"
     y="-326.37"
     id="text58"
     style="font-size:129.22999573px;line-height:125%;letter-spacing:0;word-spacing:0;font-family:Gentium Book Basic">
    <tspan
       x="1918.65"
       y="-326.37"
       id="tspan60" />
  </text>
  <text
     x="675.21002"
     y="-1658.83"
     transform="scale(4.0128,0.2492)"
     id="text62"
     style="font-size:46.95399857px;text-anchor:middle;font-family:Arial" />
  <text
     x="1529.53"
     y="-798.77002"
     id="text64"
     style="font-size:129.22999573px;line-height:125%;letter-spacing:0;word-spacing:0;font-family:Gentium Book Basic">
    <tspan
       x="1529.53"
       y="-798.77002"
       id="tspan66" />
  </text>
  <text
     x="578.23999"
     y="-3554.48"
     transform="scale(4.0128,0.2492)"
     id="text68"
     style="font-size:46.95399857px;text-anchor:middle;font-family:Arial" />
  <text
     x="2110.79"
     y="-878.78003"
     id="text70"
     style="font-size:129.22999573px;line-height:125%;letter-spacing:0;word-spacing:0;font-family:Gentium Book Basic">
    <tspan
       x="2110.79"
       y="-878.78003"
       id="tspan72" />
  </text>
  <text
     x="723.09003"
     y="-3875.52"
     transform="scale(4.0128,0.2492)"
     id="text74"
     style="font-size:46.95399857px;text-anchor:middle;font-family:Arial" />
  <text
     x="277.98999"
     y="535.94"
     id="text76"
     style="font-size:208.33000183px;line-height:125%;letter-spacing:0;word-spacing:0;font-family:Gentium Book Basic">
    <tspan
       x="277.98999"
       y="535.94"
       id="tspan78" />
  </text>
</svg>
