<?xml version="1.0" encoding="UTF-8" standalone="no"?>
<!-- Created with Inkscape (http://www.inkscape.org/) -->

<svg
   xmlns:dc="http://purl.org/dc/elements/1.1/"
   xmlns:cc="http://creativecommons.org/ns#"
   xmlns:rdf="http://www.w3.org/1999/02/22-rdf-syntax-ns#"
   xmlns:svg="http://www.w3.org/2000/svg"
   xmlns="http://www.w3.org/2000/svg"
   xmlns:sodipodi="http://sodipodi.sourceforge.net/DTD/sodipodi-0.dtd"
   xmlns:inkscape="http://www.inkscape.org/namespaces/inkscape"
   width="512"
   height="512"
   id="svg2"
   version="1.1"
   inkscape:version="0.91 r"
   sodipodi:docname="minecraft.svg">
  <defs
     id="defs4" />
  <sodipodi:namedview
     id="base"
     pagecolor="#ffffff"
     bordercolor="#666666"
     borderopacity="1.0"
     inkscape:pageopacity="0.0"
     inkscape:pageshadow="2"
     inkscape:zoom="0.98994949"
     inkscape:cx="-12.040787"
     inkscape:cy="257.92376"
     inkscape:document-units="px"
     inkscape:current-layer="layer1"
     showgrid="false"
     inkscape:window-width="1366"
     inkscape:window-height="744"
     inkscape:window-x="0"
     inkscape:window-y="24"
     inkscape:window-maximized="1" />
  <metadata
     id="metadata7">
    <rdf:RDF>
      <cc:Work
         rdf:about="">
        <dc:format>image/svg+xml</dc:format>
        <dc:type
           rdf:resource="http://purl.org/dc/dcmitype/StillImage" />
        <dc:title />
      </cc:Work>
    </rdf:RDF>
  </metadata>
  <g
     inkscape:label="Layer 1"
     inkscape:groupmode="layer"
     id="layer1"
     transform="translate(0,-540.36218)">
    <rect
       style="fill:#97be6f;fill-opacity:1;fill-rule:evenodd;stroke:none"
       id="rect4226"
       width="69.823059"
       height="69.823059"
       x="222.60381"
       y="622.31" />
    <circle
       style="fill:#80734a;fill-opacity:1;fill-rule:evenodd;stroke:none"
       id="path2985"
       cx="257.51523"
       cy="796.86731"
       r="239.3934" />
    <rect
       style="fill:#62a138;fill-opacity:1;fill-rule:evenodd;stroke:none"
       id="rect4242"
       width="69.823059"
       height="69.823059"
       x="292.42685"
       y="692.133" />
    <path
       style="fill:#67a63d;fill-opacity:1;fill-rule:evenodd;stroke:none"
       d="m 152.78062,581.79286 a 239.3934,239.3934 0 0 0 -58.83467,40.51733 l 58.83467,0 0,-40.51733 z"
       id="rect4170"
       inkscape:connector-curvature="0" />
    <path
       style="fill:#90bf5f;fill-opacity:1;fill-rule:evenodd;stroke:none"
       d="m 82.958166,633.47752 a 239.3934,239.3934 0 0 0 -40.378933,58.65512 l 40.378933,0 0,-58.65512 z"
       id="rect4172"
       inkscape:connector-curvature="0" />
    <path
       style="fill:#6baa41;fill-opacity:1;fill-rule:evenodd;stroke:none"
       d="m 93.94595,622.31019 a 239.3934,239.3934 0 0 0 -10.987784,11.16733 l 0,58.65512 69.822454,0 0,-69.82245 -58.83467,0 z"
       id="rect4174"
       inkscape:connector-curvature="0" />
    <path
       style="fill:#6baa41;fill-opacity:1;fill-rule:evenodd;stroke:none"
       d="M 42.579233,692.13264 A 239.3934,239.3934 0 0 0 20.981459,761.9551 l 61.976707,0 0,-69.82246 -40.378933,0 z"
       id="rect4176"
       inkscape:connector-curvature="0" />
    <rect
       y="692.133"
       x="82.957695"
       height="69.823059"
       width="69.823059"
       id="rect4178"
       style="fill:#593d28;fill-opacity:1;fill-rule:evenodd;stroke:none" />
    <path
       style="fill:#593d28;fill-opacity:1;fill-rule:evenodd;stroke:none"
       d="m 20.981459,761.9551 a 239.3934,239.3934 0 0 0 -2.859628,34.91215 239.3934,239.3934 0 0 0 2.781078,34.91216 l 62.055257,0 0,-69.82431 -61.976707,0 z"
       id="rect4180"
       inkscape:connector-curvature="0" />
    <rect
       style="fill:#c49976;fill-opacity:1;fill-rule:evenodd;stroke:none"
       id="rect4182"
       width="69.823059"
       height="69.823059"
       x="82.957695"
       y="761.95612" />
    <path
       style="fill:#5a3e28;fill-opacity:1;fill-rule:evenodd;stroke:none"
       d="m 20.902909,831.77941 a 239.3934,239.3934 0 0 0 21.537924,69.82246 l 40.517333,0 0,-69.82246 -62.055257,0 z"
       id="rect4184"
       inkscape:connector-curvature="0" />
    <rect
       y="831.77917"
       x="82.957695"
       height="69.823059"
       width="69.823059"
       id="rect4186"
       style="fill:#7c7c7c;fill-opacity:1;fill-rule:evenodd;stroke:none" />
    <path
       style="fill:#b3815a;fill-opacity:1;fill-rule:evenodd;stroke:none"
       d="m 42.440833,901.60187 a 239.3934,239.3934 0 0 0 40.517333,58.83467 l 0,-58.83467 -40.517333,0 z"
       id="rect4188"
       inkscape:connector-curvature="0" />
    <path
       style="fill:#936a49;fill-opacity:1;fill-rule:evenodd;stroke:none"
       d="m 82.958166,901.60187 0,58.83467 a 239.3934,239.3934 0 0 0 11.167329,10.98778 l 58.655125,0 0,-69.82245 -69.822454,0 z"
       id="rect4190"
       inkscape:connector-curvature="0" />
    <path
       style="fill:#77563e;fill-opacity:1;fill-rule:evenodd;stroke:none"
       d="m 94.125495,971.42432 a 239.3934,239.3934 0 0 0 58.655125,40.37898 l 0,-40.37898 -58.655125,0 z"
       id="rect4208"
       inkscape:connector-curvature="0" />
    <path
       style="fill:#87bc64;fill-opacity:1;fill-rule:evenodd;stroke:none"
       d="m 222.60307,560.25493 a 239.3934,239.3934 0 0 0 -69.82245,21.53793 l 0,40.51733 69.82245,0 0,-62.05526 z"
       id="rect4210"
       inkscape:connector-curvature="0" />
    <rect
       y="622.31"
       x="152.78076"
       height="69.823059"
       width="69.823059"
       id="rect4212"
       style="fill:#6dac43;fill-opacity:1;fill-rule:evenodd;stroke:none" />
    <rect
       style="fill:#90bf5f;fill-opacity:1;fill-rule:evenodd;stroke:none"
       id="rect4214"
       width="69.823059"
       height="69.823059"
       x="152.78076"
       y="692.133" />
    <rect
       y="761.95612"
       x="152.78076"
       height="69.823059"
       width="69.823059"
       id="rect4216"
       style="fill:#79563a;fill-opacity:1;fill-rule:evenodd;stroke:none" />
    <rect
       style="fill:#79563a;fill-opacity:1;fill-rule:evenodd;stroke:none"
       id="rect4218"
       width="69.823059"
       height="69.823059"
       x="152.78076"
       y="831.77917" />
    <rect
       y="901.60162"
       x="152.78076"
       height="69.823059"
       width="69.823059"
       id="rect4220"
       style="fill:#7c5a3e;fill-opacity:1;fill-rule:evenodd;stroke:none" />
    <path
       style="fill:#90694c;fill-opacity:1;fill-rule:evenodd;stroke:none"
       d="m 152.78062,971.42432 0,40.37898 a 239.3934,239.3934 0 0 0 69.82245,21.5978 l 0,-61.97678 -69.82245,0 z"
       id="rect4222"
       inkscape:connector-curvature="0" />
    <path
       style="fill:#7bb058;fill-opacity:1;fill-rule:evenodd;stroke:none"
       d="m 257.51523,557.47386 a 239.3934,239.3934 0 0 0 -34.91216,2.78107 l 0,62.05526 69.82431,0 0,-61.97671 a 239.3934,239.3934 0 0 0 -34.91215,-2.85962 z"
       id="rect4224"
       inkscape:connector-curvature="0" />
    <rect
       y="692.133"
       x="222.60381"
       height="69.823059"
       width="69.823059"
       id="rect4228"
       style="fill:#6dac43;fill-opacity:1;fill-rule:evenodd;stroke:none" />
    <rect
       style="fill:#593d28;fill-opacity:1;fill-rule:evenodd;stroke:none"
       id="rect4230"
       width="69.823059"
       height="69.823059"
       x="222.60381"
       y="761.95612" />
    <rect
       y="831.77917"
       x="222.60381"
       height="69.823059"
       width="69.823059"
       id="rect4232"
       style="fill:#c49976;fill-opacity:1;fill-rule:evenodd;stroke:none" />
    <rect
       style="fill:#916849;fill-opacity:1;fill-rule:evenodd;stroke:none"
       id="rect4234"
       width="69.823059"
       height="69.823059"
       x="222.60381"
       y="901.60162" />
    <path
       style="fill:#876347;fill-opacity:1;fill-rule:evenodd;stroke:none"
       d="m 222.60307,971.42432 0,61.97678 a 239.3934,239.3934 0 0 0 34.91216,2.8596 239.3934,239.3934 0 0 0 34.91215,-2.7811 l 0,-62.05528 -69.82431,0 z"
       id="rect4236"
       inkscape:connector-curvature="0" />
    <path
       style="fill:#79ae54;fill-opacity:1;fill-rule:evenodd;stroke:none"
       d="m 292.42738,560.33348 0,61.97671 69.82246,0 0,-40.37893 a 239.3934,239.3934 0 0 0 -69.82246,-21.59778 z"
       id="rect4238"
       inkscape:connector-curvature="0" />
    <rect
       y="622.31"
       x="292.42685"
       height="69.823059"
       width="69.823059"
       id="rect4240"
       style="fill:#81b560;fill-opacity:1;fill-rule:evenodd;stroke:none" />
    <rect
       y="761.95612"
       x="292.42685"
       height="69.823059"
       width="69.823059"
       id="rect4244"
       style="fill:#593d28;fill-opacity:1;fill-rule:evenodd;stroke:none" />
    <rect
       style="fill:#593d28;fill-opacity:1;fill-rule:evenodd;stroke:none"
       id="rect4246"
       width="69.823059"
       height="69.823059"
       x="292.42685"
       y="831.77917" />
    <rect
       y="901.60162"
       x="292.42685"
       height="69.823059"
       width="69.823059"
       id="rect4248"
       style="fill:#a17553;fill-opacity:1;fill-rule:evenodd;stroke:none" />
    <path
       style="fill:#866247;fill-opacity:1;fill-rule:evenodd;stroke:none"
       d="m 292.42738,971.42432 0,62.05528 a 239.3934,239.3934 0 0 0 69.82246,-21.5379 l 0,-40.51738 -69.82246,0 z"
       id="rect4250"
       inkscape:connector-curvature="0" />
    <path
       style="fill:#7bb753;fill-opacity:1;fill-rule:evenodd;stroke:none"
       d="m 362.24984,581.93126 0,40.37893 58.65513,0 a 239.3934,239.3934 0 0 0 -58.65513,-40.37893 z"
       id="rect4252"
       inkscape:connector-curvature="0" />
    <path
       style="fill:#62a138;fill-opacity:1;fill-rule:evenodd;stroke:none"
       d="m 362.24984,622.31019 0,69.82245 69.82246,0 0,-58.83467 a 239.3934,239.3934 0 0 0 -11.16733,-10.98778 l -58.65513,0 z"
       id="rect4254"
       inkscape:connector-curvature="0" />
    <rect
       y="692.133"
       x="362.24994"
       height="69.823059"
       width="69.823059"
       id="rect4256"
       style="fill:#694f3e;fill-opacity:1;fill-rule:evenodd;stroke:none" />
    <rect
       style="fill:#7c7c7c;fill-opacity:1;fill-rule:evenodd;stroke:none"
       id="rect4258"
       width="69.823059"
       height="69.823059"
       x="362.24994"
       y="761.95612" />
    <rect
       y="831.77917"
       x="362.24994"
       height="69.823059"
       width="69.823059"
       id="rect4260"
       style="fill:#694f3e;fill-opacity:1;fill-rule:evenodd;stroke:none" />
    <path
       style="fill:#7f5c42;fill-opacity:1;fill-rule:evenodd;stroke:none"
       d="m 362.24984,901.60187 0,69.82245 58.83467,0 a 239.3934,239.3934 0 0 0 10.98779,-11.16733 l 0,-58.65512 -69.82246,0 z"
       id="rect4262"
       inkscape:connector-curvature="0" />
    <path
       style="fill:#876347;fill-opacity:1;fill-rule:evenodd;stroke:none"
       d="m 362.24984,971.42432 0,40.51738 a 239.3934,239.3934 0 0 0 58.83467,-40.51738 l -58.83467,0 z"
       id="rect4264"
       inkscape:connector-curvature="0" />
    <path
       style="fill:#74b04c;fill-opacity:1;fill-rule:evenodd;stroke:none"
       d="m 432.0723,633.29797 0,58.83467 40.51733,0 A 239.3934,239.3934 0 0 0 432.0723,633.29797 Z"
       id="rect4268"
       inkscape:connector-curvature="0" />
    <path
       style="fill:#519027;fill-opacity:1;fill-rule:evenodd;stroke:none"
       d="m 432.0723,692.13264 0,69.82246 62.05525,0 a 239.3934,239.3934 0 0 0 -21.53792,-69.82246 l -40.51733,0 z"
       id="rect4270"
       inkscape:connector-curvature="0" />
    <path
       style="fill:#c49976;fill-opacity:1;fill-rule:evenodd;stroke:none"
       d="m 432.0723,761.9551 0,69.82431 61.9767,0 a 239.3934,239.3934 0 0 0 2.85963,-34.91216 239.3934,239.3934 0 0 0 -2.78108,-34.91215 l -62.05525,0 z"
       id="rect4272"
       inkscape:connector-curvature="0" />
    <path
       style="fill:#79563a;fill-opacity:1;fill-rule:evenodd;stroke:none"
       d="m 432.0723,831.77941 0,69.82246 40.37892,0 A 239.3934,239.3934 0 0 0 494.049,831.77941 l -61.9767,0 z"
       id="rect4274"
       inkscape:connector-curvature="0" />
    <path
       style="fill:#7f5d42;fill-opacity:1;fill-rule:evenodd;stroke:none"
       d="m 432.0723,901.60187 0,58.65512 a 239.3934,239.3934 0 0 0 40.37892,-58.65512 l -40.37892,0 z"
       id="rect4276"
       inkscape:connector-curvature="0" />
  </g>
</svg>
