<?xml version="1.0" encoding="UTF-8" standalone="no"?>
<svg
   xmlns:dc="http://purl.org/dc/elements/1.1/"
   xmlns:cc="http://creativecommons.org/ns#"
   xmlns:rdf="http://www.w3.org/1999/02/22-rdf-syntax-ns#"
   xmlns:svg="http://www.w3.org/2000/svg"
   xmlns="http://www.w3.org/2000/svg"
   xmlns:sodipodi="http://sodipodi.sourceforge.net/DTD/sodipodi-0.dtd"
   xmlns:inkscape="http://www.inkscape.org/namespaces/inkscape"
   viewBox="0 0 128 128"
   id="svg2"
   version="1.1"
   inkscape:version="0.91 r"
   sodipodi:docname="mixxx-icon.svg"
   width="128"
   height="128">
  <metadata
     id="metadata24">
    <rdf:RDF>
      <cc:Work
         rdf:about="">
        <dc:format>image/svg+xml</dc:format>
        <dc:type
           rdf:resource="http://purl.org/dc/dcmitype/StillImage" />
        <dc:title></dc:title>
      </cc:Work>
    </rdf:RDF>
  </metadata>
  <sodipodi:namedview
     pagecolor="#ffffff"
     bordercolor="#666666"
     borderopacity="1"
     objecttolerance="10"
     gridtolerance="10"
     guidetolerance="10"
     inkscape:pageopacity="0"
     inkscape:pageshadow="2"
     inkscape:window-width="1366"
     inkscape:window-height="744"
     id="namedview22"
     showgrid="false"
     inkscape:zoom="2.4583333"
     inkscape:cx="72.484188"
     inkscape:cy="49.871216"
     inkscape:window-x="0"
     inkscape:window-y="24"
     inkscape:window-maximized="1"
     inkscape:current-layer="svg2" />
  <defs
     id="defs4">
    <linearGradient
       gradientUnits="userSpaceOnUse"
       y2="545.15002"
       x2="0"
       y1="518.08002"
       id="0">
      <stop
         stop-color="#db50c8"
         id="stop7" />
      <stop
         offset="1"
         stop-color="#981fe7"
         id="stop9" />
    </linearGradient>
    <linearGradient
       gradientUnits="userSpaceOnUse"
       y2="518.08002"
       x2="402.47"
       y1="545.15002"
       x1="403.44"
       id="1">
      <stop
         stop-color="#981fe7"
         id="stop12" />
      <stop
         offset="1"
         stop-color="#db50c8"
         id="stop14" />
    </linearGradient>
  </defs>
  <g
     transform="matrix(2.4660743,0,0,2.4660743,-89.32434,68.969531)"
     id="g16"
     style="enable-background:new">
    <circle
       r="14.226"
       cy="531.73999"
       cx="400.51999"
       transform="matrix(1.6013,0,0,1.6013,-578.99,-853.35)"
       id="circle18"
       style="fill:url(#1);stroke:url(#0);stroke-width:1.52400005" />
    <path
       d="m 44.37,-9.589 1.071,1.58 9.375,13.848 2.893,0 1.749,0 2.526,-3.73 -2.317,-3.422 -2.53,3.738 -8.134,-12.02 -2.893,0 -1.741,0 m 10.446,0 -2.52,3.723 2.315,3.42 2.531,-3.738 8.14,12.02 2.893,0 1.748,0 2.52,-3.721 -2.315,-3.422 -2.525,3.728 -8.133,-12.01 -0.02,0 -1.741,0 -2.873,0 -0.02,0 m 10.455,0 -2.515,3.715 2.317,3.42 2.525,-3.728 8.138,12.02 2.893,0 1.741,0 -1.071,-1.58 -9.375,-13.848 -1.759,0 -2.893,0 m 10.465,0 -2.52,3.723 2.315,3.42 3.767,-5.563 1.071,-1.58 -1.741,0 -2.893,0 m -26.528,8.285 -3.767,5.563 -1.071,1.58 1.741,0 2.893,0 2.52,-3.721 -2.315,-3.422"
       id="path20"
       inkscape:connector-curvature="0"
       style="fill:#ffffff;fill-opacity:0.84299999" />
  </g>
</svg>
