<?xml version="1.0" encoding="UTF-8" standalone="no"?>
<!-- Generator: flash2svg, http://dissentgraphics.com/tools/flash2svg -->

<svg
   xmlns:dc="http://purl.org/dc/elements/1.1/"
   xmlns:cc="http://creativecommons.org/ns#"
   xmlns:rdf="http://www.w3.org/1999/02/22-rdf-syntax-ns#"
   xmlns:svg="http://www.w3.org/2000/svg"
   xmlns="http://www.w3.org/2000/svg"
   xmlns:xlink="http://www.w3.org/1999/xlink"
   xmlns:sodipodi="http://sodipodi.sourceforge.net/DTD/sodipodi-0.dtd"
   xmlns:inkscape="http://www.inkscape.org/namespaces/inkscape"
   id="Mplayer"
   image-rendering="optimizeSpeed"
   version="1.1"
   style="background-color:#ffffff"
   x="0px"
   y="0px"
   width="1024px"
   height="1024px"
   viewBox="0 0 1024 1024"
   enable-background="new 0 0 1024 1024"
   inkscape:version="0.91 r"
   sodipodi:docname="mplayer.svg">
  <metadata
     id="metadata26">
    <rdf:RDF>
      <cc:Work
         rdf:about="">
        <dc:format>image/svg+xml</dc:format>
        <dc:type
           rdf:resource="http://purl.org/dc/dcmitype/StillImage" />
      </cc:Work>
    </rdf:RDF>
  </metadata>
  <sodipodi:namedview
     pagecolor="#ffffff"
     bordercolor="#666666"
     borderopacity="1"
     objecttolerance="10"
     gridtolerance="10"
     guidetolerance="10"
     inkscape:pageopacity="0"
     inkscape:pageshadow="2"
     inkscape:window-width="1366"
     inkscape:window-height="744"
     id="namedview24"
     showgrid="false"
     inkscape:zoom="0.23046875"
     inkscape:cx="-60.614917"
     inkscape:cy="311.35442"
     inkscape:window-x="0"
     inkscape:window-y="24"
     inkscape:window-maximized="1"
     inkscape:current-layer="Mplayer" />
  <defs
     transform="matrix(1 0 0 1 0 0) "
     id="defs3">
    <linearGradient
       inkscape:collect="always"
       xlink:href="#2"
       id="linearGradient3366"
       x1="-147.52542"
       y1="472.94916"
       x2="1310.3729"
       y2="494.64407"
       gradientUnits="userSpaceOnUse"
       gradientTransform="matrix(1.1099018,0,0,1.1099018,-60.489498,-52.049963)" />
    <linearGradient
       gradientTransform="matrix(2.4955507,0,0,2.4955507,240.71244,33.087543)"
       id="0"
       y1="17.279"
       x2="0"
       y2="-30.721"
       gradientUnits="userSpaceOnUse">
      <stop
         stop-color="#dc3c30"
         id="stop3341" />
      <stop
         offset="1"
         stop-color="#ff786d"
         id="stop3343" />
    </linearGradient>
    <linearGradient
       gradientUnits="userSpaceOnUse"
       y2="-30.891"
       x2="-49.554"
       y1="-5.178"
       x1="-48.953"
       id="0-9">
      <stop
         stop-color="#566069"
         id="stop3394" />
      <stop
         offset="1"
         stop-color="#6c7884"
         id="stop3396" />
    </linearGradient>
    <linearGradient
       gradientUnits="userSpaceOnUse"
       y2="-4.937"
       x2="42.36"
       y1="15.429"
       x1="43.691"
       id="1">
      <stop
         stop-color="#d5dbff"
         id="stop3399" />
      <stop
         offset="1"
         stop-color="#f9ffff"
         id="stop3401" />
    </linearGradient>
    <linearGradient
       gradientUnits="userSpaceOnUse"
       y2="-26.783"
       x2="-56.38"
       y1="3.509"
       x1="-56.27"
       id="2">
      <stop
         stop-color="#197ff1"
         id="stop3404"
         style="stop-color:#0b5db8;stop-opacity:1" />
      <stop
         offset="1"
         stop-color="#21c6fb"
         id="stop3406"
         style="stop-color:#3accfb;stop-opacity:1" />
    </linearGradient>
    <linearGradient
       gradientTransform="matrix(2.4955507,0,0,2.4955507,240.71244,33.087543)"
       id="0-6"
       y1="17.279"
       x2="0"
       y2="-30.721"
       gradientUnits="userSpaceOnUse">
      <stop
         stop-color="#dc3c30"
         id="stop3341-8" />
      <stop
         offset="1"
         stop-color="#ff786d"
         id="stop3343-1" />
    </linearGradient>
    <linearGradient
       inkscape:collect="always"
       xlink:href="#2"
       id="linearGradient4210"
       x1="475.50864"
       y1="1241.5261"
       x2="20.354696"
       y2="92.965683"
       gradientUnits="userSpaceOnUse"
       gradientTransform="matrix(1.1099018,0,0,1.1099018,-32.84178,-72.729604)" />
  </defs>
  <rect
     style="opacity:1;fill:url(#linearGradient4210);fill-opacity:1;fill-rule:nonzero;stroke:none;stroke-width:2;stroke-miterlimit:4;stroke-dasharray:none;stroke-opacity:1"
     id="rect3371"
     width="770.95959"
     height="770.95959"
     x="-144.87941"
     y="297.49768"
     rx="92.119698"
     transform="matrix(0.90640621,-0.42240712,0.42240712,0.90640621,0,0)" />
  <path
     id="path2"
     d="m 737.30794,118.87491 q -14.42873,-8.26877 -30.41131,-3.94015 L 257.16441,235.4146 789.91728,269.98804 755.89879,143.07077 c -2.83025,-10.59956 -9.0457,-18.64635 -18.59085,-24.19586 z M 259.77268,889.36876 c 2.83025,10.65505 9.0457,18.75734 18.59086,24.36234 9.60065,5.49401 19.75625,6.7704 30.35581,3.94015 L 765.49944,795.33232 225.97617,763.20067 259.77268,889.36876 Z"
     inkscape:connector-curvature="0"
     style="fill:#404f86;fill-opacity:1" />
  <path
     id="path3"
     d="m 880.98473,764.39381 c 10.59956,-2.83025 18.70185,-9.0457 24.25135,-18.64635 5.49402,-9.60065 6.8814,-19.75625 4.05115,-30.41131 L 789.91728,269.98804 257.16441,235.4146 134.68674,268.2122 c -10.59956,2.83025 -18.70184,9.0457 -24.19586,18.64635 -5.605,9.60065 -6.93688,19.70076 -4.05114,30.30032 l 119.53643,446.0418 539.52327,32.13165 115.48529,-30.93851 z"
     style="fill:url(#linearGradient3366);fill-opacity:1;fill-rule:nonzero"
     inkscape:connector-curvature="0" />
  <g
     id="Calque.__207"
     transform="matrix(1.1099018,0,0,1.1099018,-60.489498,-52.049963)">
    <g
       id="shape10">
      <path
         id="path6"
         d="m 764.05,290.05 q 0,-12.4 -8.8,-21.2 c -5.85,-5.85 -12.95,-8.8 -21.2,-8.8 l -444,0 c -8.25,0 -15.35,2.95 -21.2,8.8 -5.85,5.85 -8.8,12.95 -8.8,21.2 l 0,444 c 0,8.25 2.95,15.35 8.8,21.2 5.85,5.85 12.95,8.8 21.2,8.8 l 444,0 c 8.25,0 15.35,-2.95 21.2,-8.8 5.85,-5.85 8.8,-12.95 8.8,-21.2 l 0,-444 z"
         inkscape:connector-curvature="0"
         style="fill:#ffffff;fill-opacity:1" />
    </g>
  </g>
  <g
     id="Calque.__209"
     transform="matrix(1.1099018,0,0,1.1099018,-60.489498,-52.049963)">
    <g
       id="shape14">
      <path
         id="path8"
         d="m 455.9,395.95 q -7.55,-5.25 -16.6,-4.1 c -6.05,0.75 -11.05,3.4 -15.1,7.95 -4.05,4.55 -6.1,9.9 -6.1,16 l 0,192.5 c 0,6.1 2.05,11.45 6.1,16 4.05,4.55 9.05,7.2 15.1,7.95 6.05,0.75 11.55,-0.65 16.6,-4.1 L 595.55,531.9 c 4.45,-3.05 7.5,-7.15 9.2,-12.2 1.7,-5.1 1.7,-10.2 0,-15.25 -1.7,-5.05 -4.75,-9.15 -9.15,-12.25 L 455.9,395.95 Z"
         inkscape:connector-curvature="0"
         style="fill:#425384;fill-opacity:1" />
    </g>
  </g>
</svg>
