<?xml version="1.0" encoding="UTF-8" standalone="no"?>
<svg
   xmlns:dc="http://purl.org/dc/elements/1.1/"
   xmlns:cc="http://creativecommons.org/ns#"
   xmlns:rdf="http://www.w3.org/1999/02/22-rdf-syntax-ns#"
   xmlns:svg="http://www.w3.org/2000/svg"
   xmlns="http://www.w3.org/2000/svg"
   xmlns:sodipodi="http://sodipodi.sourceforge.net/DTD/sodipodi-0.dtd"
   xmlns:inkscape="http://www.inkscape.org/namespaces/inkscape"
   viewBox="0 0 128 128"
   id="svg2"
   version="1.1"
   inkscape:version="0.91 r"
   sodipodi:docname="musescore.svg"
   width="128"
   height="128">
  <metadata
     id="metadata19">
    <rdf:RDF>
      <cc:Work
         rdf:about="">
        <dc:format>image/svg+xml</dc:format>
        <dc:type
           rdf:resource="http://purl.org/dc/dcmitype/StillImage" />
        <dc:title></dc:title>
      </cc:Work>
    </rdf:RDF>
  </metadata>
  <sodipodi:namedview
     pagecolor="#ffffff"
     bordercolor="#666666"
     borderopacity="1"
     objecttolerance="10"
     gridtolerance="10"
     guidetolerance="10"
     inkscape:pageopacity="0"
     inkscape:pageshadow="2"
     inkscape:window-width="1366"
     inkscape:window-height="744"
     id="namedview17"
     showgrid="false"
     inkscape:zoom="2.4583333"
     inkscape:cx="84.487695"
     inkscape:cy="26.09402"
     inkscape:window-x="0"
     inkscape:window-y="24"
     inkscape:window-maximized="1"
     inkscape:current-layer="svg2" />
  <defs
     id="defs4">
    <linearGradient
       gradientUnits="userSpaceOnUse"
       y2="1.017"
       x2="26.441999"
       y1="47.389999"
       x1="26.881001"
       id="0">
      <stop
         stop-color="#841ac8"
         id="stop7" />
      <stop
         offset="1"
         stop-color="#b92ff5"
         id="stop9" />
    </linearGradient>
  </defs>
  <g
     transform="matrix(4.1403566,0,0,4.1403566,44.235357,2.7794424)"
     id="g11"
     style="enable-background:new">
    <path
       d="m 2.98,-0.002 42.04,0 c 1.652,0 2.982,1.33 2.982,2.982 l 0,42.04 c 0,1.652 -1.33,2.982 -2.982,2.982 l -42.04,0 c -1.652,0 -2.982,-1.33 -2.982,-2.982 l 0,-42.04 c 0,-1.652 1.33,-2.982 2.982,-2.982"
       transform="matrix(0.5833,0,0,0.5833,-9.209,0.869)"
       id="path13"
       inkscape:connector-curvature="0"
       style="fill:url(#0);fill-rule:evenodd" />
    <path
       d="m 10.325,7.681 c -1.982,0 -3.989,1.177 -3.989,3.423 l 0.34,0 c 0,-2.039 1.836,-3.106 3.649,-3.106 0.921,0 1.77,0.272 2.39,0.765 0.699,0.556 1.067,1.366 1.067,2.342 l 0.341,0 C 14.123,10.034 13.711,9.14 12.935,8.522 12.254,7.98 11.327,7.681 10.325,7.681 Z m 0.02,2.865 c -0.226,0 -0.409,0.17 -0.409,0.38 0,0.209 0.182,0.378 0.409,0.378 0.226,0 0.408,-0.169 0.408,-0.378 0,-0.209 -0.182,-0.38 -0.408,-0.38 z m -11.567,2.622 c -0.357,0 -0.696,0.06 -1.018,0.182 -0.31,0.11 -0.595,0.271 -0.857,0.481 -0.262,0.21 -0.483,0.452 -0.661,0.728 -0.179,0.276 -0.309,0.579 -0.393,0.91 l -0.037,0 0,-2.102 -0.356,0 0,8.506 0.356,0 0,-4.815 c 0,-0.475 0.066,-0.927 0.197,-1.357 0.143,-0.43 0.34,-0.805 0.59,-1.125 0.262,-0.331 0.577,-0.592 0.946,-0.779 0.369,-0.199 0.779,-0.297 1.231,-0.297 0.512,0 0.93,0.077 1.251,0.231 0.322,0.154 0.57,0.365 0.749,0.629 0.178,0.265 0.298,0.573 0.358,0.926 0.072,0.353 0.108,0.729 0.108,1.126 l 0,5.461 0.356,0 0,-5.395 c 0,-0.397 0.066,-0.772 0.197,-1.125 0.131,-0.364 0.32,-0.685 0.57,-0.961 0.25,-0.276 0.554,-0.491 0.911,-0.646 0.357,-0.166 0.756,-0.248 1.196,-0.248 0.5,0 0.912,0.066 1.233,0.198 0.333,0.132 0.595,0.32 0.786,0.563 0.202,0.243 0.339,0.535 0.411,0.877 0.083,0.342 0.124,0.724 0.124,1.143 l 0.012,3.128 c 0.02,0.34 0.049,0.643 0.162,0.926 0.167,0.375 0.392,0.696 0.678,0.961 0.298,0.254 0.643,0.446 1.036,0.578 0.405,0.121 0.846,0.182 1.322,0.182 0.905,0 1.636,-0.214 2.196,-0.644 0.571,-0.43 0.941,-0.977 1.107,-1.64 l 0.037,0 0,2.102 0.353,0 0.003,0 0,-8.506 -0.356,0 0,4.815 c 0,0.475 -0.071,0.927 -0.214,1.357 -0.143,0.431 -0.357,0.812 -0.643,1.143 -0.274,0.32 -0.619,0.579 -1.036,0.778 -0.417,0.188 -0.899,0.281 -1.447,0.281 -0.393,0 -0.768,-0.049 -1.125,-0.149 C 8.766,21.481 8.455,21.315 8.181,21.094 7.919,20.862 7.711,20.576 7.556,20.234 7.401,19.881 7.387,19.444 7.387,18.948 L 7.384,16.279 C 7.384,15.816 7.335,15.396 7.24,15.021 7.145,14.635 6.984,14.31 6.758,14.045 6.532,13.769 6.236,13.554 5.866,13.399 5.497,13.244 5.032,13.168 4.472,13.168 c -0.715,0 -1.334,0.181 -1.858,0.545 -0.524,0.364 -0.875,0.846 -1.054,1.442 l -0.035,0 C 1.37,14.526 1.049,14.033 0.561,13.68 0.085,13.316 -0.511,13.146 -1.225,13.168 Z"
       id="path15"
       inkscape:connector-curvature="0"
       style="fill:#e4cbf1;stroke:#e5ccf2" />
  </g>
</svg>
