<?xml version="1.0" encoding="UTF-8" standalone="no"?>
<!-- Generator: flash2svg, http://dissentgraphics.com/tools/flash2svg -->

<svg
   xmlns:dc="http://purl.org/dc/elements/1.1/"
   xmlns:cc="http://creativecommons.org/ns#"
   xmlns:rdf="http://www.w3.org/1999/02/22-rdf-syntax-ns#"
   xmlns:svg="http://www.w3.org/2000/svg"
   xmlns="http://www.w3.org/2000/svg"
   xmlns:xlink="http://www.w3.org/1999/xlink"
   xmlns:sodipodi="http://sodipodi.sourceforge.net/DTD/sodipodi-0.dtd"
   xmlns:inkscape="http://www.inkscape.org/namespaces/inkscape"
   id="Netbeans"
   image-rendering="optimizeSpeed"
   version="1.1"
   style="background-color:#ffffff"
   x="0px"
   y="0px"
   width="1024px"
   height="1024px"
   viewBox="0 0 1024 1024"
   enable-background="new 0 0 1024 1024"
   inkscape:version="0.91 r"
   sodipodi:docname="netbeans.svg">
  <metadata
     id="metadata27">
    <rdf:RDF>
      <cc:Work
         rdf:about="">
        <dc:format>image/svg+xml</dc:format>
        <dc:type
           rdf:resource="http://purl.org/dc/dcmitype/StillImage" />
      </cc:Work>
    </rdf:RDF>
  </metadata>
  <sodipodi:namedview
     pagecolor="#ffffff"
     bordercolor="#666666"
     borderopacity="1"
     objecttolerance="10"
     gridtolerance="10"
     guidetolerance="10"
     inkscape:pageopacity="0"
     inkscape:pageshadow="2"
     inkscape:window-width="1366"
     inkscape:window-height="744"
     id="namedview25"
     showgrid="false"
     inkscape:zoom="0.4609375"
     inkscape:cx="630.087"
     inkscape:cy="472.24802"
     inkscape:window-x="0"
     inkscape:window-y="24"
     inkscape:window-maximized="1"
     inkscape:current-layer="Netbeans" />
  <defs
     transform="matrix(1 0 0 1 0 0) "
     id="defs3">
    <linearGradient
       inkscape:collect="always"
       id="linearGradient3373">
      <stop
         style="stop-color:#90c4c1;stop-opacity:1;"
         offset="0"
         id="stop3375" />
      <stop
         id="stop3381"
         offset="0.12325247"
         style="stop-color:#afe9dd;stop-opacity:1" />
      <stop
         style="stop-color:#5fd3bc;stop-opacity:1"
         offset="0.57414156"
         id="stop3395" />
      <stop
         style="stop-color:#217867;stop-opacity:1"
         offset="0.89214087"
         id="stop3383" />
      <stop
         style="stop-color:#90c4c1;stop-opacity:0;"
         offset="1"
         id="stop3377" />
    </linearGradient>
    <linearGradient
       inkscape:collect="always"
       id="linearGradient3349">
      <stop
         style="stop-color:#000000;stop-opacity:1;"
         offset="0"
         id="stop3351" />
      <stop
         id="stop3389"
         offset="0.1200019"
         style="stop-color:#aaeeff;stop-opacity:1" />
      <stop
         id="stop3357"
         offset="0.17535511"
         style="stop-color:#b7c8c4;stop-opacity:1" />
      <stop
         style="stop-color:#00ccff;stop-opacity:1"
         offset="0.5443061"
         id="stop3393" />
      <stop
         style="stop-color:#006680;stop-opacity:1"
         offset="0.92746842"
         id="stop3391" />
      <stop
         style="stop-color:#000000;stop-opacity:0;"
         offset="1"
         id="stop3353" />
    </linearGradient>
    <linearGradient
       inkscape:collect="always"
       xlink:href="#linearGradient3373"
       id="linearGradient3379"
       x1="69.423729"
       y1="253.83051"
       x2="561.89832"
       y2="849.35596"
       gradientUnits="userSpaceOnUse" />
    <linearGradient
       inkscape:collect="always"
       xlink:href="#linearGradient3349"
       id="linearGradient3387"
       x1="461.75272"
       y1="859.85535"
       x2="892.82416"
       y2="304.52484"
       gradientUnits="userSpaceOnUse" />
  </defs>
  <g
     id="shape59"
     transform="matrix(1.2932515,0,0,1.2932515,-146.90519,-149.47558)">
    <path
       style="fill:#ffffff;fill-opacity:1;stroke:#006680"
       inkscape:connector-curvature="0"
       d="m 854.113,328.893 q -1.472,-0.414 -2.943,-0.506 L 516.232,212.754 c -3.082,-1.058 -6.164,-1.058 -9.291,0 L 170.163,328.847 c -1.702,0.414 -3.22,1.103 -4.646,2.115 l -0.414,0.322 c -0.414,0.276 -0.828,0.644 -1.196,0.966 l -0.322,0.368 c -0.598,0.552 -1.104,1.15 -1.563,1.794 -1.15,1.564 -1.886,3.312 -2.3,5.243 l -0.184,1.058 c -0.046,0.506 -0.092,1.012 -0.138,1.518 l 0,0.736 c 0,0.23 0,0.46 0.046,0.69 l 0,337.33 c 0,2.99 0.874,5.749 2.622,8.233 1.747,2.484 4.093,4.232 6.991,5.243 l 337.192,116.461 c 1.103,0.46 2.253,0.828 3.495,1.012 0.782,0.092 1.61,0.184 2.392,0.184 0.828,-0.046 1.656,-0.138 2.484,-0.276 l 0.138,-0.046 c 1.012,-0.184 1.978,-0.46 2.897,-0.874 L 854.941,694.463 c 2.898,-1.011 5.244,-2.759 6.991,-5.243 1.748,-2.484 2.622,-5.243 2.668,-8.233 l 0,-338.296 c -0.046,-3.173 -1.012,-6.071 -2.943,-8.601 -1.932,-2.576 -4.462,-4.324 -7.544,-5.197 z M 512,444.341 217.538,342.737 511.586,241.363 805.726,342.967 512,444.341 Z m 324.037,-81.596 0,308.031 -309.732,106.939 0,-308.031 309.732,-106.939 z m -338.296,106.893 0,308.077 -309.732,-106.939 0,-308.031 309.732,106.893 z"
       id="path52" />
    <path
       style="fill:#afe9dd;fill-opacity:1"
       inkscape:connector-curvature="0"
       d="M 512,444.341 805.726,342.967 511.586,241.363 217.538,342.737 512,444.341 Z"
       id="path53" />
    <path
       style="fill:url(#linearGradient3387);fill-opacity:1"
       inkscape:connector-curvature="0"
       d="m 836.037,362.745 -309.732,106.939 0,308.031 309.732,-106.939 0,-308.031 z"
       id="path54" />
    <path
       style="fill:url(#linearGradient3379);fill-opacity:1"
       inkscape:connector-curvature="0"
       d="m 497.741,469.638 -309.732,-106.893 0,308.031 309.732,106.939 0,-308.077 z"
       id="path55" />
  </g>
</svg>
