<?xml version="1.0" encoding="UTF-8" standalone="no"?>
<!-- Created with Inkscape (http://www.inkscape.org/) -->

<svg
   xmlns:dc="http://purl.org/dc/elements/1.1/"
   xmlns:cc="http://creativecommons.org/ns#"
   xmlns:rdf="http://www.w3.org/1999/02/22-rdf-syntax-ns#"
   xmlns:svg="http://www.w3.org/2000/svg"
   xmlns="http://www.w3.org/2000/svg"
   xmlns:xlink="http://www.w3.org/1999/xlink"
   xmlns:sodipodi="http://sodipodi.sourceforge.net/DTD/sodipodi-0.dtd"
   xmlns:inkscape="http://www.inkscape.org/namespaces/inkscape"
   inkscape:export-ydpi="100"
   inkscape:export-xdpi="100"
   inkscape:export-filename="/home/alecive/Scrivania/firefoxTest1.png"
   sodipodi:docname="nuvolaplayer.svg"
   inkscape:version="0.91 r"
   version="1.1"
   id="svg2"
   height="512"
   width="512">
  <sodipodi:namedview
     id="base"
     pagecolor="#ffffff"
     bordercolor="#666666"
     borderopacity="1.0"
     inkscape:pageopacity="0.0"
     inkscape:pageshadow="2"
     inkscape:zoom="0.623793"
     inkscape:cx="274.8187"
     inkscape:cy="215.53844"
     inkscape:document-units="px"
     inkscape:current-layer="svg2"
     showgrid="false"
     inkscape:window-width="1366"
     inkscape:window-height="744"
     inkscape:window-x="0"
     inkscape:window-y="24"
     inkscape:window-maximized="1"
     inkscape:object-paths="false"
     inkscape:snap-intersection-paths="false"
     inkscape:object-nodes="true"
     inkscape:snap-smooth-nodes="true"
     inkscape:snap-nodes="true" />
  <defs
     id="defs4">
    <linearGradient
       inkscape:collect="always"
       id="linearGradient3402">
      <stop
         style="stop-color:#afdde9;stop-opacity:1;"
         offset="0"
         id="stop3404" />
      <stop
         id="stop3410"
         offset="0.10206415"
         style="stop-color:#d5e5ff;stop-opacity:1" />
      <stop
         style="stop-color:#80b3ff;stop-opacity:1"
         offset="0.51187742"
         id="stop3418" />
      <stop
         style="stop-color:#0055d4;stop-opacity:1"
         offset="0.91747797"
         id="stop3412" />
      <stop
         style="stop-color:#afdde9;stop-opacity:0;"
         offset="1"
         id="stop3406" />
    </linearGradient>
    <linearGradient
       x1="19.244999"
       y1="21.030804"
       x2="19.360001"
       gradientUnits="userSpaceOnUse"
       y2="44.984001"
       id="linearGradient2460">
      <stop
         offset="0"
         style="stop-color:#fafafa;stop-opacity:1;"
         id="stop3602" />
      <stop
         offset="1"
         style="stop-color:#f0f0f0;stop-opacity:1;"
         id="stop3604" />
    </linearGradient>
    <linearGradient
       x1="45.447727"
       y1="92.539597"
       x2="45.447727"
       y2="7.0165396"
       id="ButtonShadow-0-1-1-5-9"
       gradientUnits="userSpaceOnUse"
       gradientTransform="matrix(1.0058652,0,0,0.994169,100,0)">
      <stop
         id="stop3750-8-9-3-6-4"
         style="stop-color:#000000;stop-opacity:1"
         offset="0" />
      <stop
         id="stop3752-5-6-4-2-9"
         style="stop-color:#000000;stop-opacity:0.58823532"
         offset="1" />
    </linearGradient>
    <linearGradient
       id="linearGradient3737-9">
      <stop
         id="stop3739-7"
         style="stop-color:#ffffff;stop-opacity:1"
         offset="0" />
      <stop
         id="stop3741-4"
         style="stop-color:#ffffff;stop-opacity:0"
         offset="1" />
    </linearGradient>
    <linearGradient
       id="linearGradient4046-3">
      <stop
         id="stop4048-7"
         style="stop-color:#000000;stop-opacity:1;"
         offset="0" />
      <stop
         id="stop4050-73"
         style="stop-color:#ffffff;stop-opacity:0.2"
         offset="1" />
    </linearGradient>
    <linearGradient
       x1="48"
       y1="90"
       x2="48"
       gradientUnits="userSpaceOnUse"
       y2="5.9877"
       id="linearGradient3617">
      <stop
         offset="0"
         stop-color="#4999ab"
         id="stop3933" />
      <stop
         offset="1"
         stop-color="#8dd0df"
         id="stop3935" />
    </linearGradient>
    <filter
       x="-0.035769001"
       y="-0.186"
       width="1.0714999"
       height="1.372"
       id="filter4040"
       color-interpolation-filters="sRGB">
      <feGaussianBlur
         stdDeviation="0.775"
         id="feGaussianBlur4042" />
    </filter>
    <linearGradient
       x1="6"
       y1="90"
       x2="7"
       gradientUnits="userSpaceOnUse"
       spreadMethod="reflect"
       y2="89"
       id="linearGradient3941">
      <stop
         offset="0"
         stop-opacity=".066667"
         id="stop3945" />
      <stop
         offset="1"
         stop-opacity="0"
         id="stop3947" />
    </linearGradient>
    <clipPath
       clipPathUnits="userSpaceOnUse"
       id="clipPath4034">
      <path
         d="M 48,22 C 40.271,22 33.752,27.157 31.688,34.219 30.814,34.08 29.912,34 29,34 c -9.3888,0 -17,7.6112 -17,17 0,9.3888 7.6112,17 17,17 h 38 c 9.3888,0 17,-7.6112 17,-17 0,-9.3888 -7.6112,-17 -17,-17 -0.9121,0 -1.8143,0.08044 -2.6875,0.21875 -2.064,-7.062 -8.583,-12.219 -16.312,-12.219 z"
         style="color:#000000;fill:#ffffff"
         id="path4036"
         inkscape:connector-curvature="0" />
    </clipPath>
    <filter
       x="-0.60000002"
       y="-0.60000002"
       width="2.2"
       height="2.2"
       id="filter4011"
       color-interpolation-filters="sRGB">
      <feGaussianBlur
         stdDeviation="2.5"
         id="feGaussianBlur4013" />
    </filter>
    <filter
       x="-0.60000002"
       y="-0.60000002"
       width="2.2"
       height="2.2"
       id="filter4019"
       color-interpolation-filters="sRGB">
      <feGaussianBlur
         stdDeviation="2.5"
         id="feGaussianBlur4021" />
    </filter>
    <filter
       x="-0.60000002"
       y="-0.60000002"
       width="2.2"
       height="2.2"
       id="filter4015"
       color-interpolation-filters="sRGB">
      <feGaussianBlur
         stdDeviation="2.5"
         id="feGaussianBlur4017" />
    </filter>
    <linearGradient
       x1="6"
       y1="90"
       x2="7"
       gradientUnits="userSpaceOnUse"
       spreadMethod="reflect"
       y2="89"
       id="linearGradient3290">
      <stop
         offset="0"
         stop-opacity=".066667"
         id="stop3292" />
      <stop
         offset="1"
         stop-opacity="0"
         id="stop3294" />
    </linearGradient>
    <linearGradient
       y2="89"
       x2="7"
       y1="90"
       x1="6"
       spreadMethod="reflect"
       gradientTransform="matrix(5.6190476,0,0,5.6190476,-13.714301,-13.714249)"
       gradientUnits="userSpaceOnUse"
       id="linearGradient3694"
       xlink:href="#linearGradient3941"
       inkscape:collect="always" />
    <linearGradient
       x1="48"
       y1="90"
       x2="48"
       gradientUnits="userSpaceOnUse"
       y2="5.9877"
       id="linearGradient3617-2">
      <stop
         offset="0"
         stop-color="#4999ab"
         id="stop3933-9" />
      <stop
         offset="1"
         stop-color="#8dd0df"
         id="stop3935-7" />
    </linearGradient>
    <linearGradient
       inkscape:collect="always"
       xlink:href="#linearGradient3617-2"
       id="linearGradient3713"
       gradientUnits="userSpaceOnUse"
       gradientTransform="matrix(5.6190476,0,0,5.6190476,-33.714292,-33.714242)"
       x1="48"
       y1="90"
       x2="48"
       y2="5.9877" />
    <linearGradient
       inkscape:collect="always"
       xlink:href="#linearGradient3402"
       id="linearGradient3408"
       x1="-618.79504"
       y1="-33.052605"
       x2="-52.902164"
       y2="547.26813"
       gradientUnits="userSpaceOnUse"
       gradientTransform="translate(597.95477,1.6030959)" />
  </defs>
  <metadata
     id="metadata7">
    <rdf:RDF>
      <cc:Work
         rdf:about="">
        <dc:format>image/svg+xml</dc:format>
        <dc:type
           rdf:resource="http://purl.org/dc/dcmitype/StillImage" />
        <dc:title />
      </cc:Work>
    </rdf:RDF>
  </metadata>
  <g
     id="layer1"
     inkscape:groupmode="layer"
     inkscape:label="Livello 1"
     transform="translate(0,-540.36218)" />
  <g
     id="g2036"
     transform="matrix(1.1,0,0,0.44444,95.081063,256.39254)">
    <g
       id="g3712"
       style="opacity:0.4"
       transform="matrix(1.0526,0,0,1.2857,-1.2632,-13.429)" />
  </g>
  <g
     transform="translate(97.481063,231.28154)"
     id="g3541" />
  <g
     transform="translate(97.481063,231.28154)"
     id="g3536" />
  <g
     id="g4076"
     transform="translate(-605.51932,-353.96833)">
    <g
       transform="translate(-926.66758,684.38448)"
       id="g4038" />
  </g>
  <g
     id="layer3"
     transform="matrix(5.6190476,0,0,5.6190476,-604.7348,-4.4136092)" />
  <rect
     style="opacity:1;fill:url(#linearGradient3408);fill-opacity:1;fill-rule:nonzero;stroke:none;stroke-width:9.44200039;stroke-miterlimit:4;stroke-dasharray:none;stroke-opacity:1"
     id="rect3400"
     width="456.88232"
     height="456.88232"
     x="28.855709"
     y="29.468132"
     ry="59" />
  <path
     sodipodi:nodetypes="sssssssssssssssscssssssscsscccsscc"
     inkscape:connector-curvature="0"
     id="path3550"
     d="m 151.88129,384.30012 c -5.72957,-0.97637 -15.40335,-4.3436 -21.27118,-7.40404 -22.61666,-11.79598 -37.85836,-37.0906 -39.29738,-65.21663 -0.24977,-4.88187 -0.10513,-11.56206 0.33344,-15.3932 3.09576,-27.04648 20.63653,-52.14671 43.25298,-61.89346 6.65545,-2.86824 6.68114,-2.90441 5.574,-7.85063 -0.57111,-2.55145 -0.93353,-8.92725 -0.93993,-16.53547 -0.009,-10.38433 0.25983,-13.63899 1.66404,-20.16629 3.85504,-17.91973 10.28884,-31.12846 21.64508,-44.43792 17.05214,-19.98501 40.85199,-29.49047 67.23615,-26.85355 25.9998,2.59849 49.48462,20.22705 62.68892,47.05653 1.29286,2.62693 2.63751,4.77624 2.98812,4.77624 0.35059,0 2.86954,-1.4839 5.59766,-3.29754 6.27704,-4.17297 13.23196,-7.01048 20.85375,-8.50804 20.85011,-4.09668 44.64792,9.68432 55.52331,32.15282 4.91378,10.15186 6.42321,17.08155 6.58787,30.24387 l 0.14158,11.3199 6.30066,3.19742 c 14.59085,7.40452 24.16156,16.72254 32.04226,31.19614 3.55288,6.52527 5.74216,12.79503 7.84872,22.47801 1.41547,6.50616 1.55203,8.68132 1.24324,19.79845 -0.31042,11.17247 -0.58087,13.34293 -2.5648,20.58579 -3.45849,12.62588 -10.46065,25.08446 -19.36941,34.46307 -8.12688,8.55551 -18.37135,14.69932 -30.94295,18.55711 l -6.01451,1.84565 -109.67631,0.0936 c -60.32199,0.0516 -110.47238,-0.0421 -111.44531,-0.20784 z M 314.44992,290.8629 c 1.20158,-1.58821 1.11501,-5.20775 -0.16837,-7.04003 l -76.42817,-44.91122 c -9.19299,-5.22923 -12.0356,-5.90173 -14.50557,-3.43174 -1.38867,1.38867 -1.41518,2.35862 -1.41518,51.7752 0,56.64564 -0.36559,52.95155 5.23968,52.94423 z"
     style="color:#000000;display:inline;overflow:visible;visibility:visible;opacity:0.82700004;fill:#ffffff;fill-opacity:1;fill-rule:nonzero;stroke-width:1;stroke-linecap:butt;stroke-linejoin:miter;stroke-miterlimit:4;stroke-dasharray:none;stroke-dashoffset:0;stroke-opacity:1;marker:none;enable-background:accumulate" />
  <path
     id="path3751"
     d="m 314.44992,290.8629 c 1.20158,-1.58821 1.11501,-5.20775 -0.16837,-7.04003 l -76.42817,-44.91122 c -9.19299,-5.22923 -12.0356,-5.90173 -14.50557,-3.43174 -1.38867,1.38867 -1.41518,2.35862 -1.41518,51.7752 0,56.64564 -0.36559,52.95155 5.23968,52.94423 z"
     style="color:#000000;display:inline;overflow:visible;visibility:visible;fill:#f17b27;fill-opacity:1;fill-rule:nonzero;stroke:none;stroke-width:5.61904764px;stroke-linecap:butt;stroke-linejoin:miter;stroke-miterlimit:4;stroke-dasharray:none;stroke-dashoffset:0;stroke-opacity:1;marker:none;enable-background:accumulate"
     inkscape:connector-curvature="0" />
</svg>
