<?xml version="1.0" encoding="UTF-8" standalone="no"?>
<svg
   xmlns:dc="http://purl.org/dc/elements/1.1/"
   xmlns:cc="http://creativecommons.org/ns#"
   xmlns:rdf="http://www.w3.org/1999/02/22-rdf-syntax-ns#"
   xmlns:svg="http://www.w3.org/2000/svg"
   xmlns="http://www.w3.org/2000/svg"
   xmlns:sodipodi="http://sodipodi.sourceforge.net/DTD/sodipodi-0.dtd"
   xmlns:inkscape="http://www.inkscape.org/namespaces/inkscape"
   viewBox="0 0 128 128"
   id="svg2"
   version="1.1"
   inkscape:version="0.91 r"
   sodipodi:docname="okular.svg"
   width="128"
   height="128">
  <metadata
     id="metadata26">
    <rdf:RDF>
      <cc:Work
         rdf:about="">
        <dc:format>image/svg+xml</dc:format>
        <dc:type
           rdf:resource="http://purl.org/dc/dcmitype/StillImage" />
        <dc:title />
      </cc:Work>
    </rdf:RDF>
  </metadata>
  <sodipodi:namedview
     pagecolor="#ffffff"
     bordercolor="#666666"
     borderopacity="1"
     objecttolerance="10"
     gridtolerance="10"
     guidetolerance="10"
     inkscape:pageopacity="0"
     inkscape:pageshadow="2"
     inkscape:window-width="1366"
     inkscape:window-height="744"
     id="namedview24"
     showgrid="false"
     inkscape:zoom="1.7383042"
     inkscape:cx="82.138193"
     inkscape:cy="14.362551"
     inkscape:window-x="0"
     inkscape:window-y="24"
     inkscape:window-maximized="1"
     inkscape:current-layer="svg2" />
  <defs
     id="defs4">
    <linearGradient
       gradientTransform="matrix(0.8838524,0,0,0.87216147,969.93525,-68.617522)"
       gradientUnits="userSpaceOnUse"
       y2="104.85"
       x2="-1060.26"
       y1="203.10001"
       x1="-1092.91"
       id="0">
      <stop
         stop-color="#6c7482"
         id="stop7" />
      <stop
         offset="1"
         stop-color="#868d97"
         id="stop9" />
    </linearGradient>
    <linearGradient
       gradientTransform="matrix(0.88511168,0,0,0.87320826,942.19924,-255.93673)"
       gradientUnits="userSpaceOnUse"
       y2="317.35001"
       x2="-1003.64"
       y1="433.28"
       x1="-989.66998"
       id="1">
      <stop
         stop-color="#1584d8"
         id="stop12" />
      <stop
         offset="1"
         stop-color="#1cb2ff"
         id="stop14" />
    </linearGradient>
  </defs>
  <rect
     style="fill:url(#0)"
     id="rect18"
     rx="2.4389851"
     transform="matrix(0.94911541,-0.31492847,0.30721051,0.95164158,0,0)"
     y="29.53545"
     x="-2.7996366"
     height="99.97039"
     width="79.337875" />
  <rect
     style="fill:url(#1)"
     id="rect20"
     rx="2.6204538"
     transform="matrix(0.99210492,-0.12541062,0.13780982,0.99045871,0,0)"
     y="20.256836"
     x="16.632124"
     height="107.32987"
     width="88.357025" />
  <path
     style="opacity:1;fill:#ffffff;fill-opacity:0.77049178;fill-rule:nonzero;stroke:none;stroke-width:6.69999981;stroke-miterlimit:4;stroke-dasharray:none;stroke-opacity:1"
     d=""
     id="path4157"
     inkscape:connector-curvature="0" />
  <g
     id="g4164"
     transform="matrix(0.81729457,-0.16582398,0.16582398,0.81729457,0.97989272,22.949451)">
    <path
       inkscape:connector-curvature="0"
       id="path3353"
       d="m 49.439459,95.402081 c -1.26505,-0.0582 -2.42351,-0.22917 -2.57435,-0.38002 -0.15084,-0.15084 -0.63844,-0.27426 -1.08355,-0.27426 -0.4451,0 -1.0664,-0.12943 -1.38065,-0.28764 l -1.14274,-0.57527 c -0.31426,-0.1582 -0.82209,-0.28764 -1.12852,-0.28764 -0.61962,0 -3.04373,-1.75058 -3.85922,-2.78695 -0.289,-0.36728 -0.72106,-0.86339 -0.96013,-1.10246 -0.74783,-0.74783 -1.82223,-3.00865 -1.82223,-3.83447 0,-0.43459 -0.12003,-0.91312 -0.26673,-1.06342 -0.14671,-0.15029 -0.33495,-1.30874 -0.41832,-2.57434 -0.31803,-4.82818 -0.4072,-5.15753 -1.78599,-6.59651 -1.11978,-1.16868 -1.26823,-1.47692 -1.26823,-2.63346 0,-0.72043 0.17529,-1.48515 0.38953,-1.6994 0.57823,-0.57823 2.44255,-1.29519 3.3679,-1.29519 0.44594,0 0.8908,-0.12944 0.98857,-0.28764 0.0978,-0.1582 0.85615,-0.28763 1.68527,-0.28763 0.82913,0 1.66594,-0.15845 1.85959,-0.3521 0.51337,-0.51337 19.4269,-0.52043 19.94035,-0.008 0.19793,0.19775 1.04589,0.35955 1.88435,0.35955 0.83846,0 1.52447,0.12943 1.52447,0.28764 0,0.1582 0.58422,0.28763 1.29827,0.28763 0.71405,0 1.52302,0.11656 1.79773,0.25902 1.06565,0.55265 5.90358,0.83331 8.60321,0.4991 1.45126,-0.17967 2.73484,-0.42374 2.8524,-0.54239 0.11756,-0.11865 0.83171,-0.21573 1.58701,-0.21573 0.75529,0 1.45326,-0.12943 1.55104,-0.28763 0.0978,-0.15821 0.80652,-0.28764 1.575,-0.28764 0.86205,0 1.4432,-0.13772 1.51721,-0.35955 0.17275,-0.51769 19.592361,-0.51332 20.110211,0.005 0.19526,0.19526 1.03339,0.35502 1.86252,0.35502 0.82912,0 1.58749,0.12944 1.68526,0.28764 0.0978,0.1582 0.68024,0.28764 1.29437,0.28764 0.61413,0 1.19659,0.12943 1.29436,0.28763 0.0978,0.1582 0.40024,0.28764 0.67215,0.28764 0.64515,0 1.42279,0.92349 1.49317,1.77323 0.13395,1.61712 -0.0691,2.1745 -1.27801,3.50767 -1.38541,1.52784 -1.31311,1.24328 -1.86833,7.35336 -0.16423,1.80734 -0.43136,3.41883 -0.59361,3.58108 -0.16225,0.16225 -0.295,0.52799 -0.295,0.81275 0,0.28476 -0.12944,0.51775 -0.28764,0.51775 -0.1582,0 -0.28764,0.16443 -0.28764,0.36541 0,0.20097 -0.80897,1.22628 -1.79773,2.27846 -1.7313,1.84238 -4.2159,3.3965 -5.43004,3.3965 -0.27746,0 -0.58446,0.12943 -0.68223,0.28763 -0.0978,0.1582 -0.680241,0.28764 -1.294371,0.28764 -0.61413,0 -1.19659,0.12944 -1.29436,0.28764 -0.24001,0.38833 -11.5531,0.38833 -11.79311,0 -0.0978,-0.1582 -0.47078,-0.28764 -0.82891,-0.28764 -1.20831,0 -4.14744,-1.67993 -5.69904,-3.25743 -1.13152,-1.15039 -1.66911,-1.98926 -2.08007,-3.24577 -0.30481,-0.93195 -0.66076,-1.81741 -0.791,-1.9677 -0.13024,-0.15029 -0.23681,-0.88691 -0.23681,-1.63694 0,-0.75002 -0.12943,-1.44367 -0.28763,-1.54145 -0.1582,-0.0978 -0.28764,-0.83829 -0.28764,-1.6456 0,-2.24713 -0.82236,-4.52208 -1.86437,-5.15753 -0.4775,-0.2912 -1.10707,-0.52993 -1.39905,-0.53052 -0.70899,-0.001 -2.20168,1.08367 -2.20168,1.60051 0,0.22653 -0.12943,0.41187 -0.28763,0.41187 -0.1582,0 -0.28764,0.2977 -0.28764,0.66156 0,0.36386 -0.11586,0.78453 -0.25747,0.93482 -0.14161,0.15029 -0.32323,1.11459 -0.40361,2.14289 -0.20189,2.58303 -0.77847,5.84102 -1.09189,6.16981 -0.14327,0.15029 -0.26049,0.50624 -0.26049,0.791 0,0.28476 -0.12943,0.51775 -0.28763,0.51775 -0.1582,0 -0.28764,0.18015 -0.28764,0.40034 0,1.10311 -4.3416,4.77712 -5.64514,4.77712 -0.21738,0 -0.39523,0.12943 -0.39523,0.28763 0,0.1582 -0.44224,0.28764 -0.98276,0.28764 -0.54051,0 -1.0259,0.11105 -1.07864,0.24678 -0.11474,0.29535 -6.06631,0.55616 -9.29924,0.4075 z m 8.48427,-3.5812 c 0,-0.13039 0.23307,-0.23708 0.51793,-0.23708 0.64278,0 2.06552,-0.64297 2.06856,-0.93482 10e-4,-0.11865 0.1914,-0.21573 0.42259,-0.21573 1.0752,0 3.52709,-3.39135 4.05514,-5.60891 0.37751,-1.58536 0.4683,-6.59819 0.14596,-8.05945 -0.28476,-1.29092 -1.34968,-3.01456 -1.86248,-3.01456 -0.10686,0 -0.47216,-0.25888 -0.81177,-0.57528 -0.33962,-0.3164 -0.8951,-0.57527 -1.2344,-0.57527 -0.33931,0 -0.71367,-0.0971 -0.83192,-0.21573 -0.33389,-0.335 -5.76161,-0.8954 -8.79761,-0.90834 -4.93917,-0.021 -10.9302,0.78716 -10.9302,1.4745 0,0.12366 -0.17081,0.22484 -0.37958,0.22484 -0.39393,0 -1.22712,0.88251 -1.8496,1.95909 -0.44488,0.76943 -0.50859,8.84504 -0.0719,9.11492 0.1582,0.0978 0.28764,0.42216 0.28764,0.72085 0,0.86329 1.32712,3.12704 2.41591,4.12095 1.89125,1.72645 5.32386,3.05681 7.95943,3.08479 0.85887,0.009 2.06229,0.10619 2.67426,0.21573 1.29313,0.23144 6.22205,-0.22048 6.22205,-0.5705 z m 39.53566,0.035 c 0.15029,-0.14961 0.7004,-0.27203 1.22246,-0.27203 0.52206,0 0.9492,-0.12944 0.9492,-0.28764 0,-0.1582 0.25887,-0.28763 0.575271,-0.28763 0.3164,0 0.57528,-0.12944 0.57528,-0.28764 0,-0.1582 0.25582,-0.28764 0.56849,-0.28764 0.6228,0 3.45842,-2.54504 3.45842,-3.10401 0,-0.1912 0.12944,-0.34763 0.28764,-0.34763 0.1582,0 0.28763,-0.23298 0.28763,-0.51774 0,-0.28476 0.1618,-0.67947 0.35955,-0.87714 0.24925,-0.24915 0.39047,-1.80095 0.46034,-5.05873 0.0832,-3.87825 0.0198,-4.86833 -0.3627,-5.66659 -0.50138,-1.04631 -2.12311,-2.26163 -3.01791,-2.26163 -0.30544,0 -0.59933,-0.13197 -0.6531,-0.29328 -0.0549,-0.16483 -2.175501,-0.43826 -4.841881,-0.62431 -4.01162,-0.27992 -5.38811,-0.26027 -8.91486,0.12729 -4.28025,0.47036 -5.78847,0.73572 -6.04037,1.06275 -0.0791,0.1027 -0.53953,0.46276 -1.02318,0.80014 -0.48365,0.33739 -1.16839,1.1754 -1.52166,1.86225 -0.56966,1.10762 -0.64304,1.68649 -0.64888,5.1194 -0.004,2.48359 0.10298,3.9071 0.2992,3.97251 0.16818,0.0561 0.30579,0.39485 0.30579,0.75286 0,1.70657 2.31882,4.43921 4.74658,5.59367 2.2031,1.04763 2.51199,1.15887 3.59488,1.29462 1.65522,0.20749 9.03895,-0.11831 9.33381,-0.41185 z"
       style="opacity:1;fill:#ffffff;fill-opacity:0.77049178;fill-rule:nonzero;stroke:none;stroke-width:1.92716563;stroke-miterlimit:4;stroke-dasharray:none;stroke-opacity:1" />
    <path
       inkscape:connector-curvature="0"
       id="path4155"
       d="m 34.337529,66.388081 c 0,-0.19538 1.17073,-1.91179 1.45268,-2.12976 0.10231,-0.0791 0.54388,-0.79101 0.98126,-1.58201 0.43739,-0.791 0.8867,-1.5029 0.99849,-1.581998 0.11179,-0.0791 1.03127,-1.438183 2.0433,-3.020185 1.01203,-1.582002 1.91726,-2.941085 2.01161,-3.020185 0.22407,-0.187845 4.7023,-6.955467 4.85225,-7.332858 0.0633,-0.159233 0.19345,-0.354232 0.28928,-0.433332 0.43111,-0.355856 1.75296,-2.293453 1.75296,-2.569538 0,-0.168756 0.0971,-0.30706 0.21573,-0.307343 0.11865,-2.83e-4 0.56868,-0.559221 1.00006,-1.242085 0.43139,-0.682864 1.25724,-1.671897 1.83522,-2.197852 0.91907,-0.83633 1.24638,-0.95628 2.60944,-0.95628 0.8572,0 1.90638,0.180286 2.33151,0.400637 1.75552,0.909904 4.58912,3.748533 5.30055,5.309956 0.17531,0.384777 0.42741,0.699595 0.56022,0.699595 0.13281,0 0.24147,0.183369 0.24147,0.407486 0,0.224116 0.10704,0.45063 0.23787,0.503364 0.41322,0.16655 2.35092,4.00383 2.34943,4.652618 -0.002,0.844487 -1.12636,2.139475 -2.0458,2.356156 -0.99425,0.23431 -1.88931,-0.626579 -3.00053,-2.885982 -0.46684,-0.949201 -0.94587,-1.768966 -1.06452,-1.821699 -0.11865,-0.05273 -0.21573,-0.343966 -0.21573,-0.647183 0,-0.303217 -0.12944,-0.551303 -0.28764,-0.551303 -0.1582,0 -0.28763,-0.17795 -0.28763,-0.395444 0,-0.217494 -0.57361,-0.994113 -1.27469,-1.72582 -1.15763,-1.208218 -1.39737,-1.330376 -2.61085,-1.330376 -1.47989,0 -1.97376,0.38843 -3.88065,3.052102 -0.5537,0.773446 -1.16853,1.577307 -1.36628,1.786358 -0.19775,0.20905 -0.3597,0.467923 -0.35989,0.575273 -2e-4,0.10735 -0.30952,0.554663 -0.6874,0.99403 -0.37787,0.439366 -0.99253,1.24746 -1.36592,1.795763 -0.37338,0.548304 -0.77596,0.997801 -0.89461,0.998882 -0.11865,0.0011 -0.21573,0.185333 -0.21573,0.40945 0,0.224117 -0.10939,0.450631 -0.24309,0.503365 -0.1337,0.05273 -0.87141,1.001934 -1.63935,2.109335 -0.76793,1.107401 -1.5646,2.184498 -1.77036,2.393548 -0.20576,0.20905 -0.37411,0.536426 -0.37411,0.727502 0,0.191076 -0.25887,0.533996 -0.57527,0.762045 -0.3164,0.228048 -0.57528,0.569428 -0.57528,0.758618 0,0.1892 -0.11009,0.38713 -0.24464,0.43987 -0.24001,0.0941 -1.63708,2.10143 -2.19656,3.1561 -0.18644,0.35144 -0.6004,0.53524 -1.20548,0.53524 -0.50686,0 -1.00155,0.12943 -1.09932,0.28763 -0.18846,0.30494 -1.582,0.4074 -1.582,0.11631 z"
       style="opacity:1;fill:#ffffff;fill-opacity:0.77049178;fill-rule:nonzero;stroke:none;stroke-width:6.69999981;stroke-miterlimit:4;stroke-dasharray:none;stroke-opacity:1" />
    <path
       inkscape:connector-curvature="0"
       id="path4159"
       d="m 107.82869,66.271771 c -0.0978,-0.1582 -0.49372,-0.28763 -0.87988,-0.28763 -0.3969,0 -0.70212,-0.16843 -0.70212,-0.38745 0,-0.21309 -0.25585,-0.68245 -0.56857,-1.04301 -0.31271,-0.36057 -0.98954,-1.31878 -1.50406,-2.12938 -0.51452,-0.81059 -1.06764,-1.621158 -1.22916,-1.801255 -0.69359,-0.773381 -1.21547,-1.487365 -2.09749,-2.86959 -0.51634,-0.80917 -1.259971,-1.844662 -1.652501,-2.301093 -0.39254,-0.456431 -0.71386,-0.921069 -0.71406,-1.032528 -1.9e-4,-0.111459 -0.32394,-0.526244 -0.71944,-0.921745 -0.3955,-0.3955 -0.71909,-0.795156 -0.71909,-0.888124 0,-0.162097 -0.30421,-0.564997 -1.07864,-1.428554 -0.19775,-0.220511 -0.35954,-0.492069 -0.35954,-0.603462 0,-0.111394 -0.22985,-0.411872 -0.51078,-0.667729 -0.28093,-0.255856 -0.74254,-0.829686 -1.0258,-1.275177 -0.28326,-0.445491 -0.69161,-1.027955 -0.90745,-1.294365 -1.96313,-2.423093 -1.86804,-2.354019 -3.24065,-2.354019 -1.20666,0 -1.43359,0.120804 -2.66492,1.418621 -0.74026,0.780241 -1.56777,1.912811 -1.8389,2.51682 -0.82096,1.828895 -1.16514,2.529329 -1.31697,2.680202 -0.0796,0.0791 -0.31356,0.46741 -0.5199,0.86291 -0.79424,1.52235 -1.18362,1.840464 -2.21692,1.811175 -1.91539,-0.05429 -2.63926,-1.817534 -1.64964,-4.018318 0.55237,-1.228393 2.29201,-4.043476 2.87034,-4.644773 0.20107,-0.20905 0.36557,-0.486599 0.36557,-0.616775 0,-0.435076 3.96171,-4.324412 4.40489,-4.324412 0.24035,0 0.48332,-0.138953 0.53993,-0.308784 0.059,-0.177131 0.91864,-0.313489 2.01614,-0.319821 1.85517,-0.0107 1.94877,0.02416 3.08505,1.149138 0.6445,0.638096 1.17182,1.237818 1.17182,1.332716 0,0.20118 1.49152,2.536709 1.75553,2.748938 0.0984,0.0791 0.79693,1.114592 1.5523,2.301093 0.75536,1.186501 1.45389,2.221993 1.55229,2.301093 0.34832,0.279998 1.755531,2.580718 1.755531,2.8702 0,0.161592 0.10905,0.293803 0.24234,0.293803 0.13329,0 0.48631,0.453028 0.7845,1.006729 0.29819,0.5537 0.64216,1.006728 0.76439,1.006728 0.12222,0 0.22222,0.174094 0.22222,0.386875 0,0.212781 0.25888,0.621152 0.57528,0.90749 0.3164,0.286338 0.57527,0.638627 0.57527,0.782863 0,0.301774 1.47443,2.33333 1.79773,2.477019 0.11865,0.05273 0.21573,0.217304 0.21573,0.365713 0,0.3317 1.49947,2.665728 1.79773,2.798288 0.11865,0.0527 0.21572,0.23171 0.21572,0.39772 0,0.16601 0.22951,0.51117 0.51001,0.76703 0.28051,0.25586 0.69702,0.8535 0.92559,1.3281 0.22857,0.4746 0.46288,0.95999 0.52069,1.07864 0.15987,0.32812 -1.89639,0.25771 -2.10011,-0.0719 z"
       style="opacity:1;fill:#ffffff;fill-opacity:0.77049178;fill-rule:nonzero;stroke:none;stroke-width:6.69999981;stroke-miterlimit:4;stroke-dasharray:none;stroke-opacity:1" />
  </g>
</svg>
