<?xml version="1.0" encoding="UTF-8" standalone="no"?>
<svg
   xmlns:dc="http://purl.org/dc/elements/1.1/"
   xmlns:cc="http://creativecommons.org/ns#"
   xmlns:rdf="http://www.w3.org/1999/02/22-rdf-syntax-ns#"
   xmlns:svg="http://www.w3.org/2000/svg"
   xmlns="http://www.w3.org/2000/svg"
   xmlns:sodipodi="http://sodipodi.sourceforge.net/DTD/sodipodi-0.dtd"
   xmlns:inkscape="http://www.inkscape.org/namespaces/inkscape"
   viewBox="0 0 128 128"
   id="svg2"
   version="1.1"
   inkscape:version="0.91 r"
   sodipodi:docname="palemoon.svg"
   width="128"
   height="128">
  <metadata
     id="metadata24">
    <rdf:RDF>
      <cc:Work
         rdf:about="">
        <dc:format>image/svg+xml</dc:format>
        <dc:type
           rdf:resource="http://purl.org/dc/dcmitype/StillImage" />
        <dc:title></dc:title>
      </cc:Work>
    </rdf:RDF>
  </metadata>
  <sodipodi:namedview
     pagecolor="#ffffff"
     bordercolor="#666666"
     borderopacity="1"
     objecttolerance="10"
     gridtolerance="10"
     guidetolerance="10"
     inkscape:pageopacity="0"
     inkscape:pageshadow="2"
     inkscape:window-width="1366"
     inkscape:window-height="744"
     id="namedview22"
     showgrid="false"
     inkscape:zoom="1.7383042"
     inkscape:cx="58.657436"
     inkscape:cy="-7.4344116"
     inkscape:window-x="0"
     inkscape:window-y="24"
     inkscape:window-maximized="1"
     inkscape:current-layer="svg2" />
  <defs
     id="defs4">
    <linearGradient
       id="0"
       gradientUnits="userSpaceOnUse"
       x1="62.599998"
       y1="11.846"
       x2="62.150002"
       y2="-35.476002">
      <stop
         stop-color="#92ccff"
         id="stop7" />
      <stop
         offset="1"
         stop-color="#e5f9fd"
         id="stop9" />
    </linearGradient>
    <linearGradient
       id="1"
       x1="142.33"
       y1="307.82999"
       x2="191.98"
       y2="15.446"
       gradientUnits="userSpaceOnUse">
      <stop
         stop-color="#4469b9"
         id="stop12" />
      <stop
         offset="1"
         stop-color="#5d91ff"
         id="stop14" />
    </linearGradient>
  </defs>
  <g
     transform="matrix(0.56594909,0,0,0.56594909,-124.80227,45.857185)"
     id="g16"
     style="enable-background:new">
    <circle
       cx="62.470001"
       cy="-11.815"
       r="24"
       transform="matrix(4.414,0,0,4.414,58.843,83.23)"
       id="circle18"
       style="fill:url(#0)" />
    <path
       d="m 158.88,26.48 c -3.452,0 -6.249,2.798 -6.249,6.249 0,3.452 2.797,6.249 6.249,6.249 66.11,0 119.9,53.787 119.9,119.9 0,59.24 -43.19,108.58 -99.74,118.2 1.153,-3.921 1.745,-8 1.745,-12.12 0,-23.837 -19.391,-43.23 -43.23,-43.23 -12.282,0 -24.03,5.246 -32.23,14.406 -2.302,2.572 -2.077,6.523 0.496,8.824 2.572,2.302 6.522,2.088 8.824,-0.485 5.827,-6.512 14.176,-10.247 22.907,-10.247 16.944,0 30.729,13.785 30.729,30.729 0,4.751 -1.127,9.412 -3.254,13.662 -2.037,0.103 -4.091,0.162 -6.152,0.162 -66.11,1e-4 -119.9,-53.788 -119.9,-119.9 0,-33.07 13.176,-63.865 37.1,-86.71 2.496,-2.384 2.589,-6.339 0.205,-8.835 -2.384,-2.497 -6.339,-2.59 -8.835,-0.205 -26.414,25.23 -40.965,59.24 -40.965,95.75 0,73 59.39,132.4 132.4,132.4 73,0 132.4,-59.39 132.4,-132.4 0,-73 -59.39,-132.4 -132.4,-132.4 m -29.13,32.992 c -1.65,0 -3.261,0.665 -4.428,1.832 -1.158,1.167 -1.821,2.776 -1.821,4.418 0,1.65 0.663,3.262 1.821,4.428 1.168,1.158 2.778,1.821 4.428,1.821 1.642,0 3.25,-0.663 4.418,-1.821 1.167,-1.167 1.832,-2.778 1.832,-4.428 0,-1.642 -0.665,-3.251 -1.832,-4.418 -1.167,-1.167 -2.776,-1.832 -4.418,-1.832 m 61.07,6 c -24.912,0 -45.18,20.267 -45.18,45.18 0,24.911 20.266,45.18 45.18,45.18 24.912,0 45.18,-20.267 45.18,-45.18 0,-24.911 -20.266,-45.18 -45.18,-45.18 m 0,12.499 c 18.02,0 32.679,14.661 32.679,32.679 0,18.02 -14.661,32.679 -32.679,32.679 -18.02,0 -32.679,-14.661 -32.679,-32.679 0,-18.02 14.661,-32.679 32.679,-32.679 m -82.44,26.43 c -1.649,0 -3.261,0.665 -4.428,1.832 -1.158,1.158 -1.821,2.776 -1.821,4.418 0,1.642 0.663,3.259 1.821,4.418 1.168,1.167 2.779,1.832 4.428,1.832 1.642,0 3.25,-0.665 4.418,-1.832 1.166,-1.158 1.832,-2.776 1.832,-4.418 0,-1.642 -0.666,-3.259 -1.832,-4.418 -1.167,-1.167 -2.775,-1.832 -4.418,-1.832 m -19.276,32.949 c -14.07,0 -25.514,11.453 -25.514,25.525 0,14.07 11.442,25.514 25.514,25.514 14.07,0 25.525,-11.442 25.525,-25.514 0,-14.07 -11.453,-25.525 -25.525,-25.525 m 0,12.499 c 7.179,0 13.03,5.846 13.03,13.03 0,7.18 -5.847,13.02 -13.03,13.02 -7.179,0 -13.02,-5.836 -13.02,-13.02 0,-7.18 5.837,-13.03 13.02,-13.03 m 140.64,14.966 c -12.854,0 -23.316,10.45 -23.316,23.305 0,12.855 10.462,23.316 23.316,23.316 12.854,0 23.316,-10.461 23.316,-23.316 0,-3.452 -2.808,-6.249 -6.26,-6.249 -3.452,0 -6.249,2.798 -6.249,6.249 0,5.962 -4.844,10.818 -10.807,10.818 -5.963,0 -10.818,-4.855 -10.818,-10.818 0,-5.963 4.856,-10.807 10.818,-10.807 3.452,0 6.249,-2.798 6.249,-6.249 0,-3.452 -2.797,-6.249 -6.249,-6.249 m -77.857,11.08 c -1.642,0 -3.258,0.673 -4.418,1.832 -1.166,1.167 -1.832,2.768 -1.832,4.418 0,1.642 0.666,3.251 1.832,4.418 1.159,1.167 2.777,1.832 4.418,1.832 1.65,0 3.258,-0.665 4.418,-1.832 1.166,-1.167 1.832,-2.776 1.832,-4.418 0,-1.65 -0.666,-3.251 -1.832,-4.418 -1.159,-1.158 -2.767,-1.832 -4.418,-1.832 m -75.26,38.541 c -1.65,0 -3.261,0.673 -4.428,1.832 -1.158,1.167 -1.832,2.768 -1.832,4.418 0,1.642 0.674,3.251 1.832,4.418 1.167,1.167 2.778,1.842 4.428,1.842 1.642,0 3.239,-0.676 4.407,-1.842 1.158,-1.167 1.842,-2.776 1.842,-4.418 0,-1.65 -0.685,-3.251 -1.842,-4.418 -1.167,-1.158 -2.765,-1.832 -4.407,-1.832 m 121.87,7.294 c -1.65,0 -3.261,0.673 -4.428,1.832 -1.158,1.167 -1.821,2.768 -1.821,4.418 0,1.642 0.663,3.251 1.821,4.418 1.167,1.167 2.778,1.832 4.428,1.832 1.642,0 3.25,-0.665 4.418,-1.832 1.158,-1.167 1.821,-2.776 1.821,-4.418 0,-1.65 -0.663,-3.251 -1.821,-4.418 -1.167,-1.158 -2.776,-1.832 -4.418,-1.832"
       transform="matrix(0.73345,0,0,0.73345,218.07,-85.45)"
       id="path20"
       inkscape:connector-curvature="0"
       style="fill:url(#1)" />
  </g>
</svg>
