<?xml version="1.0" encoding="UTF-8" standalone="no"?>
<svg
   xmlns:dc="http://purl.org/dc/elements/1.1/"
   xmlns:cc="http://creativecommons.org/ns#"
   xmlns:rdf="http://www.w3.org/1999/02/22-rdf-syntax-ns#"
   xmlns:svg="http://www.w3.org/2000/svg"
   xmlns="http://www.w3.org/2000/svg"
   xmlns:sodipodi="http://sodipodi.sourceforge.net/DTD/sodipodi-0.dtd"
   xmlns:inkscape="http://www.inkscape.org/namespaces/inkscape"
   viewBox="0 0 128 128"
   id="svg2"
   version="1.1"
   inkscape:version="0.91 r"
   sodipodi:docname="phatch-inspector.svg"
   width="128"
   height="128">
  <metadata
     id="metadata24">
    <rdf:RDF>
      <cc:Work
         rdf:about="">
        <dc:format>image/svg+xml</dc:format>
        <dc:type
           rdf:resource="http://purl.org/dc/dcmitype/StillImage" />
        <dc:title />
      </cc:Work>
    </rdf:RDF>
  </metadata>
  <sodipodi:namedview
     pagecolor="#ffffff"
     bordercolor="#666666"
     borderopacity="1"
     objecttolerance="10"
     gridtolerance="10"
     guidetolerance="10"
     inkscape:pageopacity="0"
     inkscape:pageshadow="2"
     inkscape:window-width="1366"
     inkscape:window-height="744"
     id="namedview22"
     showgrid="false"
     inkscape:zoom="1.7383042"
     inkscape:cx="102.14803"
     inkscape:cy="40.705172"
     inkscape:window-x="0"
     inkscape:window-y="24"
     inkscape:window-maximized="1"
     inkscape:current-layer="svg2" />
  <defs
     id="defs4">
    <linearGradient
       gradientTransform="matrix(4.0698364,0,0,3.9331611,107.20069,99.584297)"
       gradientUnits="userSpaceOnUse"
       y2="-22.851"
       x2="-11.233"
       y1="4.6750002"
       x1="-10.767"
       id="0">
      <stop
         stop-color="#2e3436"
         id="stop7" />
      <stop
         stop-color="#555753"
         offset="1"
         id="stop9" />
    </linearGradient>
    <linearGradient
       id="1"
       x1="24.264999"
       y1="36.512001"
       x2="24.02"
       y2="12.06"
       gradientUnits="userSpaceOnUse"
       gradientTransform="matrix(2.294365,0,0,2.294365,9.7796497,9.2413829)">
      <stop
         stop-color="#5dae33"
         id="stop12" />
      <stop
         stop-color="#9be058"
         offset="1"
         id="stop14" />
    </linearGradient>
  </defs>
  <rect
     style="fill:url(#0)"
     id="rect18"
     rx="15.078"
     width="110.12952"
     height="110.12952"
     x="9.7796469"
     y="9.2413845" />
  <path
     style="fill:url(#1)"
     inkscape:connector-curvature="0"
     id="path20"
     d="m 64.84441,37.319819 c -18.217258,0 -33.919892,10.739923 -41.133376,26.238359 -0.222553,0.470344 -0.222553,1.018698 0,1.495925 7.213484,15.498436 22.913824,26.238359 41.133376,26.238359 18.217258,0 33.919892,-10.739923 41.13338,-26.238359 0.22256,-0.470344 0.22256,-1.018698 0,-1.495925 C 98.764302,48.059742 83.063962,37.319819 64.84441,37.319819 m 0,8.374433 c 10.287933,0 18.614183,8.335428 18.614183,18.614183 0,10.278755 -8.335428,18.614183 -18.614183,18.614183 -10.287933,0 -18.614183,-8.335428 -18.614183,-18.614183 0,-10.287933 8.335428,-18.614183 18.614183,-18.614183 m -2.154409,3.696222 c -0.376276,0 -0.608006,0.17896 -0.699781,0.54147 -0.167489,0.647011 -0.357921,1.851552 -0.564414,3.61133 -0.608007,0.195021 -1.195364,0.442813 -1.766661,0.738786 l -2.679818,-2.078695 c -0.167489,-0.128484 -0.337272,-0.192727 -0.507055,-0.192727 -0.284501,0 -0.894802,0.463462 -1.833198,1.388091 -0.938395,0.924629 -1.576228,1.617528 -1.9135,2.083284 -0.117013,0.167488 -0.174372,0.318916 -0.174372,0.447401 0,0.156017 0.06424,0.309739 0.192727,0.465756 0.86727,1.048525 1.562463,1.941033 2.078695,2.679818 -0.323506,0.596535 -0.575886,1.19307 -0.757141,1.787311 l -3.61133,0.54147 c -0.142251,0.02524 -0.263852,0.112424 -0.367099,0.254674 -0.103246,0.142251 -0.156017,0.28909 -0.156017,0.442813 l 0,4.311112 c 0,0.167488 0.05277,0.321211 0.156017,0.456578 0.103247,0.135368 0.238614,0.215671 0.408397,0.240909 l 3.553972,0.525409 c 0.181255,0.633245 0.442812,1.275667 0.79385,1.922678 -0.234025,0.323505 -0.582769,0.782378 -1.048525,1.37203 -0.465756,0.589652 -0.796144,1.018698 -0.991166,1.291728 -0.103246,0.14225 -0.151428,0.293678 -0.151428,0.447401 0,0.167489 0.04359,0.314328 0.135368,0.442812 0.50476,0.699782 1.57164,1.787311 3.202933,3.262587 0.142251,0.142251 0.302857,0.215671 0.484111,0.215671 0.195022,0 0.357921,-0.05736 0.4887,-0.174372 l 2.737178,-2.078695 c 0.529998,0.27303 1.112767,0.513938 1.748306,0.720431 l 0.54147,3.572326 c 0.01377,0.167489 0.08719,0.307445 0.224848,0.417575 0.135367,0.110129 0.293678,0.165194 0.474933,0.165194 l 4.311112,0 c 0.376276,0 0.612596,-0.178961 0.70437,-0.54147 0.167489,-0.647011 0.353332,-1.851553 0.559825,-3.611331 0.608007,-0.195021 1.197659,-0.442812 1.766661,-0.738785 l 2.679819,2.097049 c 0.181254,0.117013 0.351037,0.174372 0.507054,0.174372 0.284502,0 0.892508,-0.456579 1.82402,-1.376619 0.931513,-0.92004 1.573935,-1.617527 1.922678,-2.09705 0.117013,-0.128484 0.174372,-0.279912 0.174372,-0.447401 0,-0.167488 -0.06195,-0.328094 -0.192727,-0.484111 -0.931512,-1.140299 -1.626704,-2.032807 -2.078694,-2.679818 0.259263,-0.479522 0.511643,-1.071468 0.75714,-1.768955 l 3.592976,-0.541471 c 0.156017,-0.02524 0.282207,-0.112423 0.385453,-0.254674 0.103246,-0.142251 0.156017,-0.28909 0.156017,-0.442813 l 0,-4.311111 c 0,-0.167489 -0.05277,-0.321211 -0.156017,-0.456579 -0.103246,-0.133073 -0.23632,-0.21567 -0.403808,-0.240908 l -3.553972,-0.54147 c -0.195021,-0.621773 -0.461167,-1.257313 -0.798439,-1.904323 0.234026,-0.323506 0.582769,-0.782379 1.048525,-1.372031 0.465756,-0.589652 0.796145,-1.018698 0.991166,-1.291727 0.103246,-0.142251 0.156017,-0.28909 0.156017,-0.442813 0,-0.181254 -0.04818,-0.325799 -0.139957,-0.43134 -0.465756,-0.660777 -1.53493,-1.762073 -3.202933,-3.301592 -0.156017,-0.128484 -0.316622,-0.192726 -0.484111,-0.192726 -0.195021,0 -0.348744,0.05736 -0.465756,0.174372 l -2.755533,2.078694 c -0.529998,-0.273029 -1.112767,-0.513938 -1.748306,-0.72043 l -0.546059,-3.572327 c -0.01377,-0.167488 -0.0826,-0.307445 -0.220259,-0.417574 -0.135367,-0.11013 -0.298267,-0.165194 -0.479522,-0.165194 l -4.311112,0 m 2.154409,9.943778 c 1.37203,0 2.542156,0.486405 3.512673,1.456921 0.970516,0.970517 1.456922,2.140643 1.456922,3.512673 0,1.37203 -0.486406,2.542157 -1.456922,3.512673 -0.970517,0.970516 -2.140643,1.456922 -3.512673,1.456922 -1.37203,0 -2.542156,-0.486406 -3.512673,-1.456922 -0.970516,-0.970516 -1.456922,-2.140643 -1.456922,-3.512673 0,-1.37203 0.486406,-2.542156 1.456922,-3.512673 0.970517,-0.970516 2.140643,-1.456921 3.512673,-1.456921" />
</svg>
