<?xml version="1.0" encoding="UTF-8" standalone="no"?>
<!-- Created with Inkscape (http://www.inkscape.org/) -->

<svg
   xmlns:dc="http://purl.org/dc/elements/1.1/"
   xmlns:cc="http://creativecommons.org/ns#"
   xmlns:rdf="http://www.w3.org/1999/02/22-rdf-syntax-ns#"
   xmlns:svg="http://www.w3.org/2000/svg"
   xmlns="http://www.w3.org/2000/svg"
   xmlns:xlink="http://www.w3.org/1999/xlink"
   xmlns:sodipodi="http://sodipodi.sourceforge.net/DTD/sodipodi-0.dtd"
   xmlns:inkscape="http://www.inkscape.org/namespaces/inkscape"
   width="128"
   height="128"
   id="svg2"
   version="1.1"
   inkscape:version="0.91 r"
   viewBox="0 0 36.124443 36.124448"
   sodipodi:docname="plasma.svg">
  <defs
     id="defs4">
    <linearGradient
       inkscape:collect="always"
       id="linearGradient3361">
      <stop
         style="stop-color:#2c3e50;stop-opacity:1;"
         offset="0"
         id="stop3363" />
      <stop
         id="stop3369"
         offset="0.20710565"
         style="stop-color:#87aade;stop-opacity:1" />
      <stop
         style="stop-color:#002255;stop-opacity:1"
         offset="0.8283866"
         id="stop3373" />
      <stop
         style="stop-color:#214478;stop-opacity:1"
         offset="0.86613595"
         id="stop3371" />
      <stop
         style="stop-color:#2c3e50;stop-opacity:0;"
         offset="1"
         id="stop3365" />
    </linearGradient>
    <style
       id="style2464"
       type="text/css" />
    <style
       type="text/css"
       id="style2464-7" />
    <linearGradient
       inkscape:collect="always"
       xlink:href="#linearGradient3361"
       id="linearGradient3367"
       x1="-40.18198"
       y1="373.45355"
       x2="-0.89859021"
       y2="412.55756"
       gradientUnits="userSpaceOnUse" />
    <clipPath
       id="clipPath6">
      <path
         inkscape:connector-curvature="0"
         id="path8"
         d="m 69.63,12.145 -0.052,0 c -22.727,-0.292 -46.47,4.077 -46.709,4.122 -2.424,0.451 -4.946,2.974 -5.397,5.397 -0.044,0.237 -4.414,23.983 -4.122,46.71 -0.292,22.777 4.078,46.523 4.122,46.761 0.451,2.423 2.974,4.945 5.398,5.398 0.237,0.044 23.982,4.413 46.709,4.121 22.779,0.292 46.524,-4.077 46.761,-4.121 2.423,-0.452 4.946,-2.976 5.398,-5.399 0.044,-0.236 4.413,-23.981 4.121,-46.709 0.292,-22.777 -4.077,-46.523 -4.121,-46.761 -0.453,-2.423 -2.976,-4.946 -5.398,-5.397 -0.238,-0.045 -23.984,-4.414 -46.71,-4.122" />
    </clipPath>
    <linearGradient
       gradientTransform="matrix(0.25619326,0,0,0.25619326,-77.692107,373.39238)"
       id="0"
       x1="72.029999"
       y1="157.34"
       x2="68.07"
       y2="-8.868"
       gradientUnits="userSpaceOnUse">
      <stop
         id="stop11"
         stop-color="#ff9300" />
      <stop
         style="stop-color:#a40000;stop-opacity:1"
         offset="0.15656686"
         stop-color="#ff9300"
         id="stop3342" />
      <stop
         style="stop-color:#f57d7d;stop-opacity:1"
         offset="0.95979613"
         stop-color="#ff9300"
         id="stop3338" />
      <stop
         id="stop13"
         stop-color="#ffd702"
         offset="1" />
    </linearGradient>
    <linearGradient
       inkscape:collect="always"
       xlink:href="#1"
       id="linearGradient4194"
       x1="-32.705154"
       y1="395.12537"
       x2="-12.898152"
       y2="395.12537"
       gradientUnits="userSpaceOnUse" />
    <linearGradient
       gradientTransform="matrix(2.378259,0,0,2.378259,6.9032798,6.9402892)"
       y2="-0.20299999"
       x2="23.593"
       y1="47.592999"
       x1="24.610001"
       gradientUnits="userSpaceOnUse"
       id="0-3">
      <stop
         id="stop7"
         stop-color="#2e3e46" />
      <stop
         id="stop9"
         stop-color="#47606a"
         offset="1" />
    </linearGradient>
    <linearGradient
       gradientTransform="matrix(2.378259,0,0,2.378259,6.9032798,6.9402892)"
       gradientUnits="userSpaceOnUse"
       y2="8.8990002"
       x2="23.601999"
       y1="40.400002"
       x1="23.966999"
       id="1">
      <stop
         id="stop12"
         stop-color="#ff9300" />
      <stop
         id="stop14"
         stop-color="#ffd702"
         offset="1" />
    </linearGradient>
  </defs>
  <sodipodi:namedview
     id="base"
     pagecolor="#ffffff"
     bordercolor="#666666"
     borderopacity="1.0"
     inkscape:pageopacity="0"
     inkscape:pageshadow="2"
     inkscape:zoom="3.1467075"
     inkscape:cx="50.851008"
     inkscape:cy="39.475301"
     inkscape:document-units="px"
     inkscape:current-layer="layer1"
     showgrid="false"
     inkscape:showpageshadow="false"
     borderlayer="true"
     units="px"
     fit-margin-top="0"
     fit-margin-left="0"
     fit-margin-right="0"
     fit-margin-bottom="0"
     showguides="false"
     inkscape:window-width="1366"
     inkscape:window-height="744"
     inkscape:window-x="0"
     inkscape:window-y="24"
     inkscape:window-maximized="1">
    <sodipodi:guide
       position="-6.6748425e-06,47.999999"
       orientation="47.999977,0"
       id="guide4120" />
    <sodipodi:guide
       position="-6.6748425e-06,2.2810037e-05"
       orientation="0,48.000004"
       id="guide4122" />
    <sodipodi:guide
       position="47.999997,2.2810037e-05"
       orientation="-47.999977,0"
       id="guide4124" />
    <sodipodi:guide
       position="47.999997,47.999999"
       orientation="0,-48.000004"
       id="guide4126" />
    <sodipodi:guide
       position="3.9999733,44.000154"
       orientation="39.999962,0"
       id="guide4138" />
    <sodipodi:guide
       position="3.9999733,4.0001921"
       orientation="0,40.000003"
       id="guide4140" />
    <sodipodi:guide
       position="43.999976,4.0001921"
       orientation="-39.999962,0"
       id="guide4142" />
    <sodipodi:guide
       position="43.999976,44.000154"
       orientation="0,-40.000003"
       id="guide4144" />
    <sodipodi:guide
       position="6.9999922,47.999999"
       orientation="39.999962,0"
       id="guide4148" />
    <sodipodi:guide
       position="6.9999922,8.0000369"
       orientation="0,34.000006"
       id="guide4150" />
    <sodipodi:guide
       position="40.999998,8.0000369"
       orientation="-39.999962,0"
       id="guide4152" />
    <sodipodi:guide
       position="40.999998,47.999999"
       orientation="0,-34.000006"
       id="guide4154" />
    <sodipodi:guide
       position="14.999993,32.999986"
       orientation="17.999951,0"
       id="guide4158" />
    <sodipodi:guide
       position="14.999993,15.000036"
       orientation="0,17.999998"
       id="guide4160" />
    <sodipodi:guide
       position="32.999991,15.000036"
       orientation="-17.999951,0"
       id="guide4162" />
    <sodipodi:guide
       position="32.999991,32.999986"
       orientation="0,-17.999998"
       id="guide4164" />
    <sodipodi:guide
       position="1.9999969,44.000046"
       orientation="39.999962,0"
       id="guide3279" />
    <sodipodi:guide
       position="1.9999969,4.0000839"
       orientation="0,44.000003"
       id="guide3281" />
    <sodipodi:guide
       position="46,4.0000839"
       orientation="-39.999962,0"
       id="guide3283" />
    <sodipodi:guide
       position="46,44.000046"
       orientation="0,-44.000003"
       id="guide3285" />
  </sodipodi:namedview>
  <metadata
     id="metadata7">
    <rdf:RDF>
      <cc:Work
         rdf:about="">
        <dc:format>image/svg+xml</dc:format>
        <dc:type
           rdf:resource="http://purl.org/dc/dcmitype/StillImage" />
        <dc:title />
      </cc:Work>
    </rdf:RDF>
  </metadata>
  <g
     inkscape:label="Capa 1"
     inkscape:groupmode="layer"
     id="layer1"
     transform="translate(38.119153,-375.26716)">
    <rect
       style="fill:url(#linearGradient3367);fill-opacity:1;stroke:none"
       id="rect4125"
       width="32.831261"
       height="32.83131"
       x="-36.531837"
       y="377.00467"
       ry="16.415628" />
    <rect
       ry="1.4895349"
       y="382.13809"
       x="-15.577109"
       height="2.9790697"
       width="2.9790697"
       id="rect4266"
       style="fill:#e74c3c;fill-opacity:1;stroke:none" />
    <rect
       style="fill:#2ecc71;fill-opacity:1;stroke:none"
       id="rect4268"
       width="2.9790697"
       height="2.9790697"
       x="-11.851652"
       y="383.89737"
       ry="1.4895349" />
    <path
       style="fill:url(#linearGradient4194);fill-opacity:1.0;fill-rule:evenodd;stroke:none"
       d="m -28.126589,386.41901 c -3.728657,3.26223 -7.044777,9.76369 -2.03765,15.34832 4.826617,5.38298 11.866586,4.31517 14.250051,3.01379 3.198035,-1.74627 3.151636,-5.26942 2.925532,-6.11893 -0.818273,-3.07398 -3.037948,-3.93729 -4.454059,-3.76079 -1.71367,0.21335 -5.025451,1.35334 -6.973551,-1.40647 -1.650121,-2.33766 -0.163212,-5.71295 1.5072,-6.90022 0.695419,-0.49388 0.670774,-1.54546 -0.20042,-2.06792 -1.738744,-0.55073 -4.034425,1.05215 -5.017068,1.89222 z"
       id="path6657-2"
       inkscape:connector-curvature="0"
       sodipodi:nodetypes="cccccsccc" />
    <path
       style="fill:#000000;fill-opacity:0;stroke:none"
       d="m -21.870623,387.40044 c -2.694381,0 -5.565492,4.17564 -5.632611,6.66638 0,3.72274 3.017898,6.74064 6.740666,6.74064 1.611766,-0.003 3.169105,-0.58345 4.389661,-1.63612 0.01979,-0.0136 0.03916,-0.0333 0.05843,-0.0507 0.679168,-0.56416 1.072476,-1.401 1.073425,-2.28392 1.6e-4,-1.64201 -1.330804,-2.97333 -2.972847,-2.97357 -0.311282,10e-4 -0.620437,0.0515 -0.916165,0.14852 l -0.0043,-0.008 c -0.292174,0.10083 -0.599047,0.15341 -0.908229,0.15449 -1.550184,-8e-5 -2.806844,-1.25673 -2.806925,-2.80693 0.797493,-2.97628 1.782802,-2.04872 1.809967,-3.12072 0,-0.45899 -0.37207,-0.83104 -0.831041,-0.83104 z m 0.683155,9.43649 c -1.1e-5,0.16966 0.01464,0.33868 0.04331,0.50569 -0.02878,-0.16696 -0.04331,-0.33619 -0.04331,-0.50569 z m 0.840422,2.07183 c 0.138336,0.14257 0.290595,0.2705 0.454475,0.38235 0.245801,0.16831 0.515485,0.29857 0.800022,0.38666 0.177202,0.0542 0.359047,0.0916 0.543206,0.11166 -0.18414,-0.0217 -0.366017,-0.0575 -0.543206,-0.11166 -0.284545,-0.0881 -0.554221,-0.21873 -0.800022,-0.38666 -0.163894,-0.11194 -0.316126,-0.23986 -0.454475,-0.38235 z m 2.753545,0.83248 c -0.02168,0.005 -0.04372,0.0109 -0.06564,0.0136 0.02222,-0.005 0.04383,-0.0109 0.06564,-0.0136 z m -0.260409,0.0434 c -0.03835,0.005 -0.07684,0.0108 -0.115434,0.0136 0.03857,-0.003 0.07703,-0.008 0.115434,-0.0136 z"
       id="circle4229"
       inkscape:connector-curvature="0"
       sodipodi:nodetypes="ccccccccccccccccccccccccccccc" />
    <rect
       style="fill:#afdde9;fill-opacity:1;stroke:none"
       id="rect4270"
       width="2.9790697"
       height="2.9790697"
       x="-19.980801"
       y="382.36801"
       ry="1.4895349" />
  </g>
</svg>
