<?xml version="1.0" encoding="UTF-8" standalone="no"?>
<svg
   xmlns:dc="http://purl.org/dc/elements/1.1/"
   xmlns:cc="http://creativecommons.org/ns#"
   xmlns:rdf="http://www.w3.org/1999/02/22-rdf-syntax-ns#"
   xmlns:svg="http://www.w3.org/2000/svg"
   xmlns="http://www.w3.org/2000/svg"
   xmlns:xlink="http://www.w3.org/1999/xlink"
   xmlns:sodipodi="http://sodipodi.sourceforge.net/DTD/sodipodi-0.dtd"
   xmlns:inkscape="http://www.inkscape.org/namespaces/inkscape"
   viewBox="0 0 256 256"
   id="svg2"
   version="1.1"
   inkscape:version="0.91 r"
   sodipodi:docname="preferences-desktop-notification.svg"
   width="256"
   height="256">
  <metadata
     id="metadata61">
    <rdf:RDF>
      <cc:Work
         rdf:about="">
        <dc:format>image/svg+xml</dc:format>
        <dc:type
           rdf:resource="http://purl.org/dc/dcmitype/StillImage" />
        <dc:title />
      </cc:Work>
    </rdf:RDF>
  </metadata>
  <sodipodi:namedview
     pagecolor="#ffffff"
     bordercolor="#666666"
     borderopacity="1"
     objecttolerance="10"
     gridtolerance="10"
     guidetolerance="10"
     inkscape:pageopacity="0"
     inkscape:pageshadow="2"
     inkscape:window-width="1366"
     inkscape:window-height="744"
     id="namedview59"
     showgrid="false"
     inkscape:zoom="1.2291667"
     inkscape:cx="210.19887"
     inkscape:cy="181.86572"
     inkscape:window-x="0"
     inkscape:window-y="24"
     inkscape:window-maximized="1"
     inkscape:current-layer="svg2" />
  <defs
     id="defs4">
    <linearGradient
       inkscape:collect="always"
       id="linearGradient3389">
      <stop
         style="stop-color:#000000;stop-opacity:1;"
         offset="0"
         id="stop3391" />
      <stop
         id="stop3397"
         offset="0.17074679"
         style="stop-color:#80e5ff;stop-opacity:1" />
      <stop
         style="stop-color:#006680;stop-opacity:1"
         offset="0.77721483"
         id="stop3399" />
      <stop
         style="stop-color:#000000;stop-opacity:0;"
         offset="1"
         id="stop3393" />
    </linearGradient>
    <linearGradient
       id="linearGradient3764"
       x1="1"
       x2="47"
       gradientUnits="userSpaceOnUse"
       gradientTransform="matrix(0,-1,1,0,-1.5e-6,47.999998)">
      <stop
         stop-color="#2cadc8"
         stop-opacity="1"
         id="stop7" />
      <stop
         offset="1"
         stop-color="#35b6d3"
         stop-opacity="1"
         id="stop9" />
    </linearGradient>
    <clipPath
       id="clipPath-247352994">
      <g
         transform="translate(0,-1004.3622)"
         id="g12">
        <path
           d="m -24,13 c 0,1.105 -0.672,2 -1.5,2 -0.828,0 -1.5,-0.895 -1.5,-2 0,-1.105 0.672,-2 1.5,-2 0.828,0 1.5,0.895 1.5,2 z"
           transform="matrix(15.333333,0,0,11.5,414.99999,878.8622)"
           id="path14"
           inkscape:connector-curvature="0"
           style="fill:#1890d0" />
      </g>
    </clipPath>
    <clipPath
       id="clipPath-252752283">
      <g
         transform="translate(0,-1004.3622)"
         id="g17">
        <path
           d="m -24,13 c 0,1.105 -0.672,2 -1.5,2 -0.828,0 -1.5,-0.895 -1.5,-2 0,-1.105 0.672,-2 1.5,-2 0.828,0 1.5,0.895 1.5,2 z"
           transform="matrix(15.333333,0,0,11.5,414.99999,878.8622)"
           id="path19"
           inkscape:connector-curvature="0"
           style="fill:#1890d0" />
      </g>
    </clipPath>
    <linearGradient
       inkscape:collect="always"
       xlink:href="#linearGradient3389"
       id="linearGradient3395"
       x1="-9.9661016"
       y1="-6.3050847"
       x2="56.338982"
       y2="56.135593"
       gradientUnits="userSpaceOnUse" />
    <linearGradient
       inkscape:collect="always"
       xlink:href="#linearGradient3389"
       id="linearGradient3366"
       gradientUnits="userSpaceOnUse"
       x1="-9.9661016"
       y1="-6.3050847"
       x2="56.338982"
       y2="56.135593" />
  </defs>
  <g
     id="g29"
     style="fill:url(#linearGradient3395);fill-opacity:1"
     transform="matrix(5.1891433,0,0,5.1891433,3.1328905,2.8533261)">
    <path
       d="M 24,1 C 36.703,1 47,11.297 47,24 47,36.703 36.703,47 24,47 11.297,47 1,36.703 1,24 1,11.297 11.297,1 24,1 Z"
       id="path31"
       style="fill:url(#linearGradient3366);fill-opacity:1"
       inkscape:connector-curvature="0" />
  </g>
  <g
     id="g33"
     transform="translate(0,208)" />
  <g
     id="g35"
     transform="matrix(5.1891433,0,0,5.1891433,3.1328905,2.8533261)">
    <g
       clip-path="url(#clipPath-247352994)"
       id="g37">
      <g
         transform="translate(1,1)"
         id="g39">
        <g
           id="g41"
           style="opacity:0.1">
          <!-- color: #35b6d3 -->
          <g
             id="g43">
            <path
               d="M 13.438,13 C 12.629,13 12,13.629 12,14.438 l 0,15.875 c 0,0.809 0.629,1.438 1.438,1.438 l 4.563,0 0,5.25 6,-5.25 10.563,0 c 0.809,0 1.441,-0.629 1.441,-1.438 l 0,-15.875 C 36.005,13.629 35.345,13 34.532,13 m -21.09,0"
               id="path45"
               inkscape:connector-curvature="0"
               style="fill:#000000;fill-opacity:1;fill-rule:nonzero;stroke:none" />
          </g>
        </g>
      </g>
    </g>
  </g>
  <g
     id="g47"
     transform="matrix(5.1891433,0,0,5.1891433,3.1328905,2.8533261)">
    <g
       clip-path="url(#clipPath-252752283)"
       id="g49">
      <!-- color: #35b6d3 -->
      <g
         id="g51">
        <path
           d="M 13.438,13 C 12.629,13 12,13.629 12,14.438 l 0,15.875 c 0,0.809 0.629,1.438 1.438,1.438 l 4.563,0 0,5.25 6,-5.25 10.563,0 c 0.809,0 1.441,-0.629 1.441,-1.438 l 0,-15.875 C 36.005,13.629 35.345,13 34.532,13 m -21.09,0"
           id="path53"
           inkscape:connector-curvature="0"
           style="fill:#f9f9f9;fill-opacity:1;fill-rule:nonzero;stroke:none" />
      </g>
    </g>
  </g>
</svg>
