<?xml version="1.0" encoding="UTF-8" standalone="no"?>
<!-- Created with Inkscape (http://www.inkscape.org/) -->

<svg
   xmlns:dc="http://purl.org/dc/elements/1.1/"
   xmlns:cc="http://creativecommons.org/ns#"
   xmlns:rdf="http://www.w3.org/1999/02/22-rdf-syntax-ns#"
   xmlns:svg="http://www.w3.org/2000/svg"
   xmlns="http://www.w3.org/2000/svg"
   xmlns:xlink="http://www.w3.org/1999/xlink"
   xmlns:sodipodi="http://sodipodi.sourceforge.net/DTD/sodipodi-0.dtd"
   xmlns:inkscape="http://www.inkscape.org/namespaces/inkscape"
   id="svg2"
   version="1.1"
   inkscape:version="0.91 r"
   width="512"
   height="512"
   sodipodi:docname="qgis.svg">
  <metadata
     id="metadata8">
    <rdf:RDF>
      <cc:Work
         rdf:about="">
        <dc:format>image/svg+xml</dc:format>
        <dc:type
           rdf:resource="http://purl.org/dc/dcmitype/StillImage" />
        <dc:title />
      </cc:Work>
    </rdf:RDF>
  </metadata>
  <defs
     id="defs6">
    <linearGradient
       inkscape:collect="always"
       id="linearGradient3336">
      <stop
         style="stop-color:#2c3e50;stop-opacity:1;"
         offset="0"
         id="stop3338" />
      <stop
         id="stop3347"
         offset="0.12225828"
         style="stop-color:#76759b;stop-opacity:1" />
      <stop
         style="stop-color:#5e6973;stop-opacity:1"
         offset="0.47887772"
         id="stop3345" />
      <stop
         style="stop-color:#262b30;stop-opacity:1"
         offset="0.87799138"
         id="stop3346" />
      <stop
         style="stop-color:#2c3e50;stop-opacity:0;"
         offset="1"
         id="stop3340" />
    </linearGradient>
    <linearGradient
       inkscape:collect="always"
       xlink:href="#linearGradient3336"
       id="linearGradient3342"
       x1="-56.40678"
       y1="-43.389832"
       x2="566.2373"
       y2="561.89832"
       gradientUnits="userSpaceOnUse" />
    <clipPath
       id="clipPath3347">
      <path
         id="path3349"
         fill="#1890d0"
         d="m-24 13c0 1.105-.672 2-1.5 2-.828 0-1.5-.895-1.5-2 0-1.105.672-2 1.5-2 .828 0 1.5.895 1.5 2"
         transform="matrix(15.33333 0 0 11.5 415-125.5)" />
    </clipPath>
    <linearGradient
       id="linearGradient3351"
       gradientUnits="userSpaceOnUse"
       y2="517.8"
       x2="0"
       y1="545.8">
      <stop
         id="stop3353"
         stop-color="#3889e9" />
      <stop
         id="stop3355"
         stop-color="#5ea5fb"
         offset="1" />
    </linearGradient>
    <linearGradient
       y2="301.3"
       x2="0"
       y1="653.96"
       gradientUnits="userSpaceOnUse"
       id="1">
      <stop
         id="stop3358"
         stop-color="#566069" />
      <stop
         id="stop3360"
         stop-color="#6c7884"
         offset="1" />
    </linearGradient>
    <linearGradient
       gradientUnits="userSpaceOnUse"
       y2="301.3"
       x2="0"
       y1="653.96"
       id="0">
      <stop
         id="stop3363"
         stop-color="#0a80fd" />
      <stop
         id="stop3365"
         stop-color="#56c5fa"
         offset="1" />
    </linearGradient>
  </defs>
  <sodipodi:namedview
     pagecolor="#ffffff"
     bordercolor="#666666"
     borderopacity="1"
     objecttolerance="10"
     gridtolerance="10"
     guidetolerance="10"
     inkscape:pageopacity="0"
     inkscape:pageshadow="2"
     inkscape:window-width="1366"
     inkscape:window-height="744"
     id="namedview4"
     showgrid="false"
     inkscape:zoom="0.4609375"
     inkscape:cx="218.0339"
     inkscape:cy="256"
     inkscape:window-x="0"
     inkscape:window-y="24"
     inkscape:window-maximized="1"
     inkscape:current-layer="svg2" />
  <rect
     style="fill:url(#linearGradient3342);fill-rule:evenodd;stroke:none;fill-opacity:1"
     id="rect2982"
     width="457.7627"
     height="457.7627"
     x="30.372904"
     y="32.542385"
     ry="61.599998" />
  <g
     id="g3964"
     transform="matrix(30.145263,0,0,28.831052,1207.3342,-11405.571)">
    <path
       sodipodi:nodetypes="ccccc"
       transform="matrix(0.28222225,0,0,0.28222225,-38.119154,397.84494)"
       inkscape:connector-curvature="0"
       id="path3918"
       d="M 44.064528,5.0203944 1.9194775,19.625115 19.11132,27.136114 22.282631,45.412879 z"
       style="fill:#88c941;fill-opacity:1;stroke:none" />
    <path
       inkscape:connector-curvature="0"
       id="path3956"
       d="m -31.354639,398.40005 c -3.069802,0 -5.556251,2.44906 -5.556251,5.46805 0,2.1061 1.215759,3.92227 2.989792,4.83306 l -1.137708,0.74083 0.352777,0.35278 c 0,0 0.58028,-0.40642 0.917223,-0.47625 0.354382,-0.0735 1.084791,0.0706 1.084791,0.0706 0.519153,0.14179 -0.08538,-0.0613 0.917223,0.33513 0,0 2.072209,0.87938 3.175,1.05834 0.348733,0.0566 0.724406,0.0857 1.067153,0 0.64741,-0.16185 1.763889,-0.94368 1.763889,-0.94368 l 0,-0.42334 c 0,0 -0.790628,0.2303 -1.199445,0.25577 -0.267452,0.0167 -0.541621,-0.01 -0.802569,-0.0706 -0.561588,-0.13116 -1.532016,-0.57951 -1.631597,-0.62618 2.111585,-0.77389 3.624792,-2.76094 3.624792,-5.10646 0,-3.01899 -2.495269,-5.46805 -5.56507,-5.46805 z m 0.0088,1.56986 c 1.845933,0 3.34257,1.73184 3.34257,3.87173 0,2.1399 -1.496637,3.88056 -3.34257,3.88056 -1.845933,0 -3.34257,-1.74066 -3.34257,-3.88056 0,-2.13989 1.496637,-3.87173 3.34257,-3.87173 z"
       style="fill:#ecf0f1;fill-opacity:1;stroke:none" />
  </g>
</svg>
