<?xml version="1.0" encoding="UTF-8" standalone="no"?>
<svg
   xmlns:dc="http://purl.org/dc/elements/1.1/"
   xmlns:cc="http://creativecommons.org/ns#"
   xmlns:rdf="http://www.w3.org/1999/02/22-rdf-syntax-ns#"
   xmlns:svg="http://www.w3.org/2000/svg"
   xmlns="http://www.w3.org/2000/svg"
   xmlns:sodipodi="http://sodipodi.sourceforge.net/DTD/sodipodi-0.dtd"
   xmlns:inkscape="http://www.inkscape.org/namespaces/inkscape"
   viewBox="0 0 128 128"
   id="svg2"
   version="1.1"
   inkscape:version="0.91 r"
   sodipodi:docname="qgo.svg"
   width="128"
   height="128">
  <metadata
     id="metadata34">
    <rdf:RDF>
      <cc:Work
         rdf:about="">
        <dc:format>image/svg+xml</dc:format>
        <dc:type
           rdf:resource="http://purl.org/dc/dcmitype/StillImage" />
        <dc:title></dc:title>
      </cc:Work>
    </rdf:RDF>
  </metadata>
  <sodipodi:namedview
     pagecolor="#ffffff"
     bordercolor="#666666"
     borderopacity="1"
     objecttolerance="10"
     gridtolerance="10"
     guidetolerance="10"
     inkscape:pageopacity="0"
     inkscape:pageshadow="2"
     inkscape:window-width="1366"
     inkscape:window-height="744"
     id="namedview32"
     showgrid="false"
     inkscape:zoom="3.4766083"
     inkscape:cx="57.888392"
     inkscape:cy="47.564311"
     inkscape:window-x="0"
     inkscape:window-y="24"
     inkscape:window-maximized="1"
     inkscape:current-layer="svg2" />
  <defs
     id="defs4">
    <clipPath
       id="1">
      <path
         transform="matrix(15.33333,0,0,11.5,415,-125.5)"
         d="m -24,13 c 0,1.105 -0.672,2 -1.5,2 -0.828,0 -1.5,-0.895 -1.5,-2 0,-1.105 0.672,-2 1.5,-2 0.828,0 1.5,0.895 1.5,2"
         id="path7"
         inkscape:connector-curvature="0"
         style="fill:#1890d0" />
    </clipPath>
    <linearGradient
       id="0"
       x1="61.57"
       y1="22.938999"
       x2="60.752998"
       y2="-27.705999"
       gradientUnits="userSpaceOnUse"
       gradientTransform="matrix(2.3541664,0,0,2.3541664,-83.159666,68.717512)">
      <stop
         stop-color="#197cf1"
         id="stop10" />
      <stop
         offset="1"
         stop-color="#21c9fb"
         id="stop12" />
    </linearGradient>
  </defs>
  <path
     d="m 14.208657,7.8034566 98.969163,0 c 3.88908,0 7.02012,3.1310404 7.02012,7.0201244 l 0,98.969159 c 0,3.88907 -3.13104,7.02012 -7.02012,7.02012 l -98.969163,0 c -3.889083,0 -7.0201244,-3.13105 -7.0201244,-7.02012 l 0,-98.969159 c 0,-3.889084 3.1310414,-7.0201244 7.0201244,-7.0201244"
     id="path14"
     inkscape:connector-curvature="0"
     style="fill:url(#0);fill-rule:evenodd" />
  <g
     transform="matrix(3.5312849,0,0,3.5312849,-21.056135,-20.447432)"
     id="g16">
    <g
       clip-path="url(#1)"
       id="g18">
      <g
         id="g20">
        <path
           d="M 23,30.5 C 23,33.539 20.539,36 17.5,36 14.461,36 12,33.539 12,30.5 12,27.461 14.461,25 17.5,25 c 3.039,0 5.5,2.461 5.5,5.5"
           id="path22"
           inkscape:connector-curvature="0"
           style="fill-opacity:0.78800001" />
        <g
           id="g24"
           style="fill:#dcf0fe">
          <path
             d="M 36,30.5 C 36,33.539 33.539,36 30.5,36 27.461,36 25,33.539 25,30.5 25,27.461 27.461,25 30.5,25 c 3.039,0 5.5,2.461 5.5,5.5"
             id="path26"
             inkscape:connector-curvature="0" />
          <path
             d="M 23,17.5 C 23,20.539 20.539,23 17.5,23 14.461,23 12,20.539 12,17.5 12,14.461 14.461,12 17.5,12 c 3.039,0 5.5,2.461 5.5,5.5"
             id="path28"
             inkscape:connector-curvature="0" />
        </g>
        <path
           d="M 36,17.5 C 36,20.539 33.539,23 30.5,23 27.461,23 25,20.539 25,17.5 25,14.461 27.461,12 30.5,12 c 3.039,0 5.5,2.461 5.5,5.5"
           id="path30"
           inkscape:connector-curvature="0"
           style="fill-opacity:0.78800001" />
      </g>
    </g>
  </g>
</svg>
