<?xml version="1.0" encoding="UTF-8" standalone="no"?>
<!-- Created with Inkscape (http://www.inkscape.org/) -->

<svg
   xmlns:dc="http://purl.org/dc/elements/1.1/"
   xmlns:cc="http://creativecommons.org/ns#"
   xmlns:rdf="http://www.w3.org/1999/02/22-rdf-syntax-ns#"
   xmlns:svg="http://www.w3.org/2000/svg"
   xmlns="http://www.w3.org/2000/svg"
   xmlns:xlink="http://www.w3.org/1999/xlink"
   xmlns:sodipodi="http://sodipodi.sourceforge.net/DTD/sodipodi-0.dtd"
   xmlns:inkscape="http://www.inkscape.org/namespaces/inkscape"
   inkscape:export-ydpi="100"
   inkscape:export-xdpi="100"
   inkscape:export-filename="/home/alecive/Scrivania/firefoxTest1.png"
   sodipodi:docname="qnapi.svg"
   inkscape:version="0.91 r"
   version="1.1"
   id="svg2"
   height="512"
   width="512">
  <sodipodi:namedview
     id="base"
     pagecolor="#ffffff"
     bordercolor="#666666"
     borderopacity="1.0"
     inkscape:pageopacity="0.0"
     inkscape:pageshadow="2"
     inkscape:zoom="0.65605919"
     inkscape:cx="307.38536"
     inkscape:cy="177.92459"
     inkscape:document-units="px"
     inkscape:current-layer="svg2"
     showgrid="false"
     inkscape:window-width="1366"
     inkscape:window-height="744"
     inkscape:window-x="0"
     inkscape:window-y="24"
     inkscape:window-maximized="1"
     inkscape:object-paths="false"
     inkscape:snap-intersection-paths="false"
     inkscape:object-nodes="true"
     inkscape:snap-smooth-nodes="true"
     inkscape:snap-nodes="true" />
  <defs
     id="defs4">
    <linearGradient
       inkscape:collect="always"
       id="linearGradient3388">
      <stop
         style="stop-color:#ff4e00;stop-opacity:1;"
         offset="0"
         id="stop3390" />
      <stop
         id="stop3398"
         offset="0.1290838"
         style="stop-color:#ff8500;stop-opacity:1" />
      <stop
         id="stop3396"
         offset="0.51063728"
         style="stop-color:#ff5300;stop-opacity:1" />
      <stop
         style="stop-color:#c32600;stop-opacity:1"
         offset="0.88368815"
         id="stop3400" />
      <stop
         style="stop-color:#ff4e00;stop-opacity:0;"
         offset="1"
         id="stop3392" />
    </linearGradient>
    <linearGradient
       x1="19.244999"
       y1="21.030804"
       x2="19.360001"
       gradientUnits="userSpaceOnUse"
       y2="44.984001"
       id="linearGradient2460">
      <stop
         offset="0"
         style="stop-color:#fafafa;stop-opacity:1;"
         id="stop3602" />
      <stop
         offset="1"
         style="stop-color:#f0f0f0;stop-opacity:1;"
         id="stop3604" />
    </linearGradient>
    <linearGradient
       x1="45.447727"
       y1="92.539597"
       x2="45.447727"
       y2="7.0165396"
       id="ButtonShadow-0-1-1-5-9"
       gradientUnits="userSpaceOnUse"
       gradientTransform="matrix(1.0058652,0,0,0.994169,100,0)">
      <stop
         id="stop3750-8-9-3-6-4"
         style="stop-color:#000000;stop-opacity:1"
         offset="0" />
      <stop
         id="stop3752-5-6-4-2-9"
         style="stop-color:#000000;stop-opacity:0.58823532"
         offset="1" />
    </linearGradient>
    <linearGradient
       id="linearGradient3737-9">
      <stop
         id="stop3739-7"
         style="stop-color:#ffffff;stop-opacity:1"
         offset="0" />
      <stop
         id="stop3741-4"
         style="stop-color:#ffffff;stop-opacity:0"
         offset="1" />
    </linearGradient>
    <linearGradient
       id="linearGradient4046-3">
      <stop
         id="stop4048-7"
         style="stop-color:#000000;stop-opacity:1;"
         offset="0" />
      <stop
         id="stop4050-73"
         style="stop-color:#ffffff;stop-opacity:0.2"
         offset="1" />
    </linearGradient>
    <radialGradient
       gradientTransform="matrix(1.5728,-0.00734006,0.00587427,1.2587162,-147.52843,-37.390437)"
       gradientUnits="userSpaceOnUse"
       r="236"
       fy="222.80756"
       fx="255.73474"
       cy="222.80756"
       cx="255.73474"
       id="radialGradient6124-6"
       xlink:href="#linearGradient2460-90"
       inkscape:collect="always" />
    <linearGradient
       x1="19.244999"
       y1="21.030804"
       x2="19.360001"
       gradientUnits="userSpaceOnUse"
       y2="44.984001"
       id="linearGradient2460-90">
      <stop
         offset="0"
         style="stop-color:#ff8a00;stop-opacity:1;"
         id="stop3602-5" />
      <stop
         offset="1"
         style="stop-color:#ff2100;stop-opacity:1;"
         id="stop3604-58" />
    </linearGradient>
    <linearGradient
       inkscape:collect="always"
       xlink:href="#linearGradient3388"
       id="linearGradient3394"
       x1="565.49774"
       y1="-9.2944279"
       x2="1103.559"
       y2="527.24255"
       gradientUnits="userSpaceOnUse"
       gradientTransform="translate(-576.16753,-1.5242527)" />
  </defs>
  <metadata
     id="metadata7">
    <rdf:RDF>
      <cc:Work
         rdf:about="">
        <dc:format>image/svg+xml</dc:format>
        <dc:type
           rdf:resource="http://purl.org/dc/dcmitype/StillImage" />
        <dc:title />
      </cc:Work>
    </rdf:RDF>
  </metadata>
  <g
     id="layer1"
     inkscape:groupmode="layer"
     inkscape:label="Livello 1"
     transform="translate(0,-540.36218)" />
  <g
     id="g2036"
     transform="matrix(1.1,0,0,0.44444,95.081063,256.39254)">
    <g
       id="g3712"
       style="opacity:0.4"
       transform="matrix(1.0526,0,0,1.2857,-1.2632,-13.429)" />
  </g>
  <g
     transform="translate(97.481063,231.28154)"
     id="g3541" />
  <g
     transform="translate(97.481063,231.28154)"
     id="g3536" />
  <g
     id="g4076"
     transform="translate(-605.51932,-353.96833)">
    <g
       transform="translate(-926.66758,684.38448)"
       id="g4038" />
  </g>
  <rect
     style="opacity:1;fill:url(#linearGradient3394);fill-opacity:1;fill-rule:nonzero;stroke:none;stroke-width:9.44200039;stroke-miterlimit:4;stroke-dasharray:none;stroke-opacity:1"
     id="rect3376"
     width="467.94559"
     height="467.94559"
     x="22.863785"
     y="22.714878"
     rx="60.799999" />
  <path
     style="display:inline;fill:#ffffff;fill-opacity:1;stroke:none"
     d="m 255.84024,71.889456 c -102.12848,0 -184.898065,82.769544 -184.898065,184.898044 0,102.12855 82.769585,184.94887 184.898065,184.94887 29.08814,0 56.60491,-6.7285 81.09296,-18.6981 l 15.49712,20.12078 40.62984,-27.50244 -15.17399,-19.95423 c 38.55288,-33.89733 62.903,-83.55619 62.903,-138.91488 0,-102.1285 -82.82042,-184.898044 -184.94893,-184.898044 z m -0.76215,68.796884 c 65.49046,0 118.59085,53.10036 118.59085,118.59085 0,34.07954 -14.4256,64.75761 -37.44708,86.37726 -0.61055,-0.60593 -1.21643,-1.18524 -1.82914,-1.77835 -1.51198,-1.46361 -3.04894,-2.89048 -4.57296,-4.26816 -0.0526,-0.0468 -0.0996,-0.10479 -0.15239,-0.15213 -0.0456,-0.0407 -0.10688,-0.0604 -0.15237,-0.10109 -1.54217,-1.38754 -3.07099,-2.72626 -4.62372,-4.01407 -0.24428,-0.20255 -0.46681,-0.40979 -0.71138,-0.60963 -1.35065,-1.10486 -2.70737,-2.18086 -4.06477,-3.20103 0,0 -0.48405,-0.38599 -0.50811,-0.40658 -0.52197,-0.38772 -1.05211,-0.84485 -1.57511,-1.21939 l -0.0508,0.0505 c -1.60363,-1.31407 -5.8075,-4.66624 -12.65172,-8.73936 -1.36884,-0.81453 -2.83777,-1.67886 -4.42049,-2.54048 -3.16542,-1.72324 -6.74227,-3.49998 -10.77174,-5.28425 -18.58524,-8.22971 -45.92528,-16.05333 -81.44863,-16.05592 -28.45163,0 -49.02932,-4.67314 -63.96997,-9.6032 -1.8676,-0.61629 -3.5689,-1.22111 -5.18262,-1.82914 -0.017,-0.0123 -0.0355,0 -0.0508,0 -1.96762,-8.56442 -2.99812,-17.46195 -2.99812,-26.62454 0,-65.49051 53.10038,-118.59088 118.59085,-118.59088 z M 171.90188,343.7236 c 2.36142,0.31684 4.74694,0.60285 7.21507,0.86384 0.0512,0 0.10147,0 0.15239,0 1.28075,0.13462 2.60306,0.23732 3.91238,0.35567 0.5095,0.0456 1.01045,0.10849 1.52429,0.15213 1.56894,0.13278 3.11577,0.2478 4.72535,0.35567 2.7719,0.18653 5.59228,0.35037 8.4853,0.45738 0.79453,0.0296 1.58435,0.0789 2.38807,0.10109 1.12746,0.0321 2.25882,0.0308 3.40428,0.0505 1.6442,0.0271 3.29749,0.0505 4.97939,0.0505 28.40591,10e-4 48.66396,6.12442 61.68349,11.88959 13.01957,5.76518 17.22466,9.85716 17.22466,9.85716 l 0.9654,0.91451 1.06699,0.76213 c 0.39941,0.28614 0.80984,0.63922 1.27026,1.01622 0.32521,0.26173 0.61376,0.46046 0.96538,0.76213 0.16464,0.1419 0.28838,0.30907 0.45732,0.45738 -11.72225,3.87575 -24.22173,6.04638 -37.24384,6.04638 -32.42128,0 -61.76722,-13.018 -83.17618,-34.0936 z"
     id="path3201-1"
     inkscape:connector-curvature="0"
     sodipodi:nodetypes="sssccccsssscscccccccccssscsccssccccscccccsccccccscc" />
</svg>
