<?xml version="1.0" encoding="UTF-8" standalone="no"?>
<svg
   xmlns:dc="http://purl.org/dc/elements/1.1/"
   xmlns:cc="http://creativecommons.org/ns#"
   xmlns:rdf="http://www.w3.org/1999/02/22-rdf-syntax-ns#"
   xmlns:svg="http://www.w3.org/2000/svg"
   xmlns="http://www.w3.org/2000/svg"
   xmlns:xlink="http://www.w3.org/1999/xlink"
   xmlns:sodipodi="http://sodipodi.sourceforge.net/DTD/sodipodi-0.dtd"
   xmlns:inkscape="http://www.inkscape.org/namespaces/inkscape"
   viewBox="0 0 128 128"
   id="svg2"
   version="1.1"
   inkscape:version="0.91 r"
   width="100%"
   height="100%"
   sodipodi:docname="gnomeradio.svg">
  <metadata
     id="metadata69">
    <rdf:RDF>
      <cc:Work
         rdf:about="">
        <dc:format>image/svg+xml</dc:format>
        <dc:type
           rdf:resource="http://purl.org/dc/dcmitype/StillImage" />
        <dc:title />
      </cc:Work>
    </rdf:RDF>
  </metadata>
  <sodipodi:namedview
     pagecolor="#ffffff"
     bordercolor="#666666"
     borderopacity="1"
     objecttolerance="10"
     gridtolerance="10"
     guidetolerance="10"
     inkscape:pageopacity="0"
     inkscape:pageshadow="2"
     inkscape:window-width="1366"
     inkscape:window-height="744"
     id="namedview67"
     showgrid="false"
     inkscape:zoom="2.4583333"
     inkscape:cx="51.216861"
     inkscape:cy="70.396736"
     inkscape:window-x="0"
     inkscape:window-y="24"
     inkscape:window-maximized="1"
     inkscape:current-layer="svg2" />
  <defs
     id="defs4">
    <linearGradient
       inkscape:collect="always"
       id="linearGradient3358">
      <stop
         style="stop-color:#002b3d;stop-opacity:1;"
         offset="0"
         id="stop3360" />
      <stop
         id="stop3366"
         offset="0.17648047"
         style="stop-color:#b3b3b3;stop-opacity:1" />
      <stop
         style="stop-color:#1a1a1a;stop-opacity:1"
         offset="0.81591767"
         id="stop3368" />
      <stop
         style="stop-color:#002b3d;stop-opacity:0;"
         offset="1"
         id="stop3362" />
    </linearGradient>
    <linearGradient
       id="linearGradient3764"
       x1="1"
       x2="47"
       gradientUnits="userSpaceOnUse"
       gradientTransform="matrix(0,-1,1,0,-1.5e-6,47.999998)">
      <stop
         stop-color="#2c313c"
         stop-opacity="1"
         id="stop7" />
      <stop
         offset="1"
         stop-color="#353b47"
         stop-opacity="1"
         id="stop9" />
    </linearGradient>
    <clipPath
       id="clipPath-000143995">
      <g
         transform="translate(0,-1004.3622)"
         id="g12">
        <path
           d="m -24,13 c 0,1.105 -0.672,2 -1.5,2 -0.828,0 -1.5,-0.895 -1.5,-2 0,-1.105 0.672,-2 1.5,-2 0.828,0 1.5,0.895 1.5,2 z"
           transform="matrix(15.333333,0,0,11.5,414.99999,878.8622)"
           id="path14"
           inkscape:connector-curvature="0"
           style="fill:#1890d0" />
      </g>
    </clipPath>
    <clipPath
       id="clipPath-007409816">
      <g
         transform="translate(0,-1004.3622)"
         id="g17">
        <path
           d="m -24,13 c 0,1.105 -0.672,2 -1.5,2 -0.828,0 -1.5,-0.895 -1.5,-2 0,-1.105 0.672,-2 1.5,-2 0.828,0 1.5,0.895 1.5,2 z"
           transform="matrix(15.333333,0,0,11.5,414.99999,878.8622)"
           id="path19"
           inkscape:connector-curvature="0"
           style="fill:#1890d0" />
      </g>
    </clipPath>
    <linearGradient
       inkscape:collect="always"
       xlink:href="#linearGradient3358"
       id="linearGradient3364"
       x1="-3.1391487"
       y1="-3.1785073"
       x2="50.387718"
       y2="51.92268"
       gradientUnits="userSpaceOnUse" />
  </defs>
  <g
     id="g29"
     transform="matrix(2.5838442,0,0,2.5838442,2.4161558,1.9754779)"
     style="fill:url(#linearGradient3364);fill-opacity:1">
    <path
       d="M 24,1 C 36.703,1 47,11.297 47,24 47,36.703 36.703,47 24,47 11.297,47 1,36.703 1,24 1,11.297 11.297,1 24,1 z"
       id="path31"
       inkscape:connector-curvature="0"
       style="fill:url(#linearGradient3364);fill-opacity:1" />
  </g>
  <g
     id="g33"
     transform="translate(0,80)" />
  <g
     id="g35"
     transform="matrix(2.5838442,0,0,2.5838442,0.4161558,-0.0245221)">
    <g
       clip-path="url(#clipPath-000143995)"
       id="g37">
      <g
         transform="translate(1,1)"
         id="g39">
        <g
           id="g41"
           style="opacity:0.1">
          <!-- color: #353b47 -->
          <g
             id="g43">
            <path
               d="m 18.961,15.1 c -2.777,2.727 -2.789,7.18 -0.012,9.906 l 1.32,-1.309 c -2.059,-2.02 -2.051,-5.27 0.012,-7.305 m 7.434,-0.016 c 2.063,2.027 2.078,5.301 0.012,7.332 l 1.32,1.301 c 2.777,-2.73 2.766,-7.199 -0.008,-9.934 m -1.324,1.301"
               id="path45"
               inkscape:connector-curvature="0"
               style="fill:#000000;fill-opacity:1;fill-rule:nonzero;stroke:none" />
            <path
               d="M 14.813,11.02 C 9.743,15.973 9.727,24.03 14.79,28.977 l 2.41,-2.355 c -3.758,-3.676 -3.742,-9.566 0.02,-13.246 m 13.559,-0.02 c 3.758,3.672 3.789,9.609 0.023,13.289 L 33.212,29 c 5.066,-4.953 5.04,-13.05 -0.023,-18 l -2.41,2.359 m 0,-0.004"
               id="path47"
               inkscape:connector-curvature="0"
               style="fill:#000000;fill-opacity:1;fill-rule:nonzero;stroke:none" />
            <path
               d="m 23.969,20 c -0.547,0.008 -0.98,0.445 -0.969,0.977 l 0.016,16.01 c 0,0.531 0.441,0.961 0.992,0.961 0.547,0 0.988,-0.43 0.988,-0.961 L 24.98,20.977 C 24.984,20.715 24.878,20.465 24.691,20.282 24.5,20.094 24.238,19.993 23.968,20.001 m 0,0"
               id="path49"
               inkscape:connector-curvature="0"
               style="fill:#000000;fill-opacity:1;fill-rule:nonzero;stroke:none" />
          </g>
        </g>
      </g>
    </g>
  </g>
  <path
     style="fill:#00ffcc;fill-opacity:1;fill-rule:nonzero;stroke:none"
     inkscape:connector-curvature="0"
     id="path57"
     d="m 51.408426,40.991525 c -7.175336,7.046143 -7.206342,18.552002 -0.03101,25.595561 l 3.410674,-3.382252 C 49.467959,57.985469 49.488629,49.587975 54.8191,44.329852 m 19.208298,-0.04134 c 5.33047,5.237452 5.369228,13.696958 0.03101,18.944745 l 3.410674,3.361581 c 7.175336,-7.053894 7.146913,-18.601094 -0.02067,-25.667908 m -3.42101,3.361582" />
  <path
     style="fill:#2affd5;fill-opacity:1;fill-rule:nonzero;stroke:none"
     inkscape:connector-curvature="0"
     id="path59"
     d="m 40.69064,30.449441 c -13.10009,12.79778 -13.141432,33.615813 -0.05943,46.39809 l 6.227064,-6.084953 c -9.710086,-9.498211 -9.668745,-24.717053 0.05168,-34.2256 m 35.034343,-0.05168 c 9.710087,9.487876 9.790186,24.828159 0.05943,34.336706 l 6.227064,6.084953 C 101.32054,64.109179 101.25336,43.187793 88.171361,30.397764 l -6.227065,6.095289 m 0,-0.01034" />
  <path
     style="fill:#eaeaea;fill-opacity:1;fill-rule:nonzero;stroke:none"
     inkscape:connector-curvature="0"
     id="path61"
     d="m 64.348317,53.652362 c -1.413362,0.02067 -2.532167,1.149811 -2.503745,2.524416 l 0.04134,41.367345 c 0,1.372022 1.139475,2.483077 2.563173,2.483077 1.413363,0 2.552838,-1.111055 2.552838,-2.483077 l -0.04134,-41.367345 c 0.01033,-0.676967 -0.263552,-1.322929 -0.746731,-1.795772 -0.493514,-0.485763 -1.170481,-0.746731 -1.868119,-0.72606 m 0,0" />
</svg>
