<?xml version="1.0" encoding="UTF-8" standalone="no"?>
<svg
   xmlns:dc="http://purl.org/dc/elements/1.1/"
   xmlns:cc="http://creativecommons.org/ns#"
   xmlns:rdf="http://www.w3.org/1999/02/22-rdf-syntax-ns#"
   xmlns:svg="http://www.w3.org/2000/svg"
   xmlns="http://www.w3.org/2000/svg"
   xmlns:xlink="http://www.w3.org/1999/xlink"
   xmlns:sodipodi="http://sodipodi.sourceforge.net/DTD/sodipodi-0.dtd"
   xmlns:inkscape="http://www.inkscape.org/namespaces/inkscape"
   viewBox="0 0 512 512"
   id="svg2"
   version="1.1"
   inkscape:version="0.91 r"
   sodipodi:docname="rygel.svg">
  <metadata
     id="metadata72">
    <rdf:RDF>
      <cc:Work
         rdf:about="">
        <dc:format>image/svg+xml</dc:format>
        <dc:type
           rdf:resource="http://purl.org/dc/dcmitype/StillImage" />
      </cc:Work>
    </rdf:RDF>
  </metadata>
  <defs
     id="defs70">
    <linearGradient
       inkscape:collect="always"
       id="linearGradient3406">
      <stop
         style="stop-color:#d23638;stop-opacity:1;"
         offset="0"
         id="stop3408" />
      <stop
         id="stop3414"
         offset="0.12187023"
         style="stop-color:#ffaaaa;stop-opacity:1" />
      <stop
         style="stop-color:#ff0000;stop-opacity:1"
         offset="0.49217802"
         id="stop3418" />
      <stop
         style="stop-color:#550000;stop-opacity:1"
         offset="0.87809068"
         id="stop3416" />
      <stop
         style="stop-color:#d23638;stop-opacity:0;"
         offset="1"
         id="stop3410" />
    </linearGradient>
    <linearGradient
       inkscape:collect="always"
       xlink:href="#linearGradient3406"
       id="linearGradient3412"
       x1="-84.610168"
       y1="-95.457626"
       x2="605.28815"
       y2="603.11865"
       gradientUnits="userSpaceOnUse" />
  </defs>
  <sodipodi:namedview
     pagecolor="#ffffff"
     bordercolor="#666666"
     borderopacity="1"
     objecttolerance="10"
     gridtolerance="10"
     guidetolerance="10"
     inkscape:pageopacity="0"
     inkscape:pageshadow="2"
     inkscape:window-width="1366"
     inkscape:window-height="744"
     id="namedview68"
     showgrid="false"
     inkscape:zoom="0.4609375"
     inkscape:cx="218.0339"
     inkscape:cy="256"
     inkscape:window-x="0"
     inkscape:window-y="24"
     inkscape:window-maximized="1"
     inkscape:current-layer="svg2" />
  <path
     style="fill:url(#linearGradient3412);fill-rule:evenodd;fill-opacity:1"
     inkscape:connector-curvature="0"
     id="path6"
     d="m 493.64492,257.38899 c 0,131.68353 -106.75189,238.43542 -238.43543,238.43542 -131.68353,0 -238.435422,-106.75189 -238.435422,-238.43542 0,-131.68354 106.751892,-238.435431 238.435422,-238.435431 131.68354,0 238.43543,106.751891 238.43543,238.435431" />
  <text
     style="word-spacing:0;letter-spacing:0"
     font-size="129.23"
     y="231.36"
     x="729.64"
     font-family="'Gentium Book Basic'"
     line-height="125%"
     id="text18">
    <tspan
       y="231.36"
       x="729.64"
       id="tspan20" />
  </text>
  <text
     style="text-anchor:middle"
     transform="scale(4.0128.2492)"
     font-size="46.954"
     y="579.26"
     x="378.91"
     font-family="Arial"
     id="text22" />
  <text
     style="word-spacing:0;letter-spacing:0"
     font-size="129.23"
     y="151.36"
     x="1310.91"
     font-family="'Gentium Book Basic'"
     line-height="125%"
     id="text24">
    <tspan
       y="151.36"
       x="1310.91"
       id="tspan26" />
  </text>
  <text
     style="text-anchor:middle"
     transform="scale(4.0128.2492)"
     font-size="46.954"
     y="258.22"
     x="523.76"
     font-family="Arial"
     id="text28" />
  <text
     style="word-spacing:0;letter-spacing:0"
     font-size="129.23"
     y="-29.9"
     x="239.33"
     font-family="'Gentium Book Basic'"
     line-height="125%"
     id="text30">
    <tspan
       y="-29.9"
       x="239.33"
       id="tspan32" />
  </text>
  <text
     style="text-anchor:middle"
     transform="scale(4.0128.2492)"
     font-size="46.954"
     y="-469.13"
     x="256.72"
     font-family="Arial"
     id="text34" />
  <text
     style="word-spacing:0;letter-spacing:0"
     font-size="129.23"
     y="-246.37"
     x="1337.38"
     font-family="'Gentium Book Basic'"
     line-height="125%"
     id="text36">
    <tspan
       y="-246.37"
       x="1337.38"
       id="tspan38" />
  </text>
  <text
     style="text-anchor:middle"
     transform="scale(4.0128.2492)"
     font-size="46.954"
     y="-1337.8"
     x="530.36"
     font-family="Arial"
     id="text40" />
  <text
     style="word-spacing:0;letter-spacing:0"
     font-size="129.23"
     y="-326.37"
     x="1918.65"
     font-family="'Gentium Book Basic'"
     line-height="125%"
     id="text42">
    <tspan
       y="-326.37"
       x="1918.65"
       id="tspan44" />
  </text>
  <text
     style="text-anchor:middle"
     transform="scale(4.0128.2492)"
     font-size="46.954"
     y="-1658.83"
     x="675.21"
     font-family="Arial"
     id="text46" />
  <text
     style="word-spacing:0;letter-spacing:0"
     font-size="129.23"
     y="-798.77"
     x="1529.53"
     font-family="'Gentium Book Basic'"
     line-height="125%"
     id="text48">
    <tspan
       y="-798.77"
       x="1529.53"
       id="tspan50" />
  </text>
  <text
     style="text-anchor:middle"
     transform="scale(4.0128.2492)"
     font-size="46.954"
     y="-3554.48"
     x="578.24"
     font-family="Arial"
     id="text52" />
  <text
     style="word-spacing:0;letter-spacing:0"
     font-size="129.23"
     y="-878.78"
     x="2110.79"
     font-family="'Gentium Book Basic'"
     line-height="125%"
     id="text54">
    <tspan
       y="-878.78"
       x="2110.79"
       id="tspan56" />
  </text>
  <text
     style="text-anchor:middle"
     transform="scale(4.0128.2492)"
     font-size="46.954"
     y="-3875.52"
     x="723.09"
     font-family="Arial"
     id="text58" />
  <text
     style="word-spacing:0;letter-spacing:0"
     font-size="208.33"
     y="535.94"
     x="277.99"
     font-family="'Gentium Book Basic'"
     line-height="125%"
     id="text60">
    <tspan
       y="535.94"
       x="277.99"
       id="tspan62" />
  </text>
  <path
     d="m 192.06893,82.409993 -13.66067,6.138696 c 7.86071,10.779752 11.96806,32.001601 17.25501,70.405491 -6.00691,20.04988 -6.93708,23.39262 -4.58987,35.8933 4.7075,25.07324 25.58952,40.68139 48.44735,37.77433 3.57146,-0.4542 6.93489,-1.35605 10.06524,-2.70992 16.90755,-7.31176 27.14488,-26.88021 22.73038,-47.94631 -4.6661,-22.2751 -23.83809,-35.65476 -49.83062,-40.15204 -14.51786,-11.98113 -26.40205,-28.90067 -28.92463,-42.143092 -1.42684,-7.406519 -2.36682,-12.888431 -1.49328,-17.255009 m 237.15017,93.028051 c -10.77975,7.86071 -32.0016,11.96806 -70.40549,17.25501 -20.04988,-6.00691 -23.39261,-6.93708 -35.89329,-4.58987 -25.07324,4.7075 -40.68139,25.58952 -37.77433,48.44735 0.45528,3.57146 1.35604,6.93489 2.70991,10.06524 7.31176,16.90755 26.88022,27.14488 47.94631,22.73038 22.27511,-4.6661 35.65368,-23.83809 40.15205,-49.83062 11.98113,-14.51786 28.84512,-26.40205 42.08754,-28.92463 7.40651,-1.42684 12.88843,-2.36682 17.255,-1.49328 l -6.08314,-13.66067 m -240.3633,74.50086 c -2.56614,0.10892 -5.16387,0.4433 -7.79863,0.99552 -22.2751,4.66611 -35.59921,23.8381 -40.09649,49.83062 -11.98113,14.51786 -28.90067,26.45325 -42.143092,28.98018 -7.40652,1.42684 -12.88843,2.31127 -17.255008,1.43773 l 6.083148,13.66067 c 10.77975,-7.86071 32.001602,-11.96806 70.405492,-17.255 20.04988,6.0069 23.44816,6.93707 35.9434,4.58986 25.07324,-4.7075 40.62693,-25.58952 37.71878,-48.44734 -0.45528,-3.57147 -1.35605,-6.9349 -2.70992,-10.06524 -6.39792,-14.79343 -22.19014,-24.49053 -40.15204,-23.72591 m 103.25558,38.38319 c -1.40942,0.0392 -2.82973,0.15031 -4.25875,0.3322 -3.57147,0.4542 -6.9349,1.35605 -10.06524,2.70992 -16.90756,7.31175 -27.14489,26.88021 -22.73039,47.94631 4.66611,22.2751 23.8381,35.65476 49.83062,40.15204 14.51787,11.98113 26.45325,28.84512 28.98018,42.08754 1.42685,7.40652 2.31127,12.88843 1.43774,17.25501 l 13.66067,-6.08315 c -7.86071,-10.77975 -11.96806,-32.0016 -17.25501,-70.40549 6.0069,-20.04988 6.93708,-23.39262 4.59095,-35.89329 -4.41341,-23.50916 -23.04734,-38.69906 -44.18968,-38.10545"
     id="path66"
     inkscape:connector-curvature="0"
     style="fill:#ffffff" />
</svg>
