<?xml version="1.0" encoding="UTF-8" standalone="no"?>
<svg
   xmlns:dc="http://purl.org/dc/elements/1.1/"
   xmlns:cc="http://creativecommons.org/ns#"
   xmlns:rdf="http://www.w3.org/1999/02/22-rdf-syntax-ns#"
   xmlns:svg="http://www.w3.org/2000/svg"
   xmlns="http://www.w3.org/2000/svg"
   xmlns:xlink="http://www.w3.org/1999/xlink"
   xmlns:sodipodi="http://sodipodi.sourceforge.net/DTD/sodipodi-0.dtd"
   xmlns:inkscape="http://www.inkscape.org/namespaces/inkscape"
   viewBox="0 0 512 512"
   id="svg2"
   version="1.1"
   inkscape:version="0.91 r"
   sodipodi:docname="sayonara.svg">
  <metadata
     id="metadata72">
    <rdf:RDF>
      <cc:Work
         rdf:about="">
        <dc:format>image/svg+xml</dc:format>
        <dc:type
           rdf:resource="http://purl.org/dc/dcmitype/StillImage" />
      </cc:Work>
    </rdf:RDF>
  </metadata>
  <defs
     id="defs70">
    <linearGradient
       inkscape:collect="always"
       id="linearGradient3407">
      <stop
         style="stop-color:#f38725;stop-opacity:1;"
         offset="0"
         id="stop3409" />
      <stop
         id="stop3415"
         offset="0.07321111"
         style="stop-color:#ffff00;stop-opacity:1" />
      <stop
         style="stop-color:#ff6600;stop-opacity:1"
         offset="0.4409278"
         id="stop3419" />
      <stop
         style="stop-color:#d40000;stop-opacity:1"
         offset="0.87520558"
         id="stop3417" />
      <stop
         style="stop-color:#f38725;stop-opacity:0;"
         offset="1"
         id="stop3411" />
    </linearGradient>
    <linearGradient
       inkscape:collect="always"
       xlink:href="#linearGradient3407"
       id="linearGradient3413"
       x1="-47.728813"
       y1="-56.40678"
       x2="603.11865"
       y2="596.61017"
       gradientUnits="userSpaceOnUse" />
  </defs>
  <sodipodi:namedview
     pagecolor="#ffffff"
     bordercolor="#666666"
     borderopacity="1"
     objecttolerance="10"
     gridtolerance="10"
     guidetolerance="10"
     inkscape:pageopacity="0"
     inkscape:pageshadow="2"
     inkscape:window-width="1366"
     inkscape:window-height="744"
     id="namedview68"
     showgrid="false"
     inkscape:zoom="0.4609375"
     inkscape:cx="180.0678"
     inkscape:cy="256"
     inkscape:window-x="0"
     inkscape:window-y="24"
     inkscape:window-maximized="1"
     inkscape:current-layer="svg2" />
  <path
     style="fill:url(#linearGradient3413);fill-rule:evenodd;fill-opacity:1"
     inkscape:connector-curvature="0"
     id="path6"
     d="m 497.64491,255.21949 c 0,132.88226 -107.72365,240.59492 -240.59491,240.59492 -132.88226,0 -240.594915,-107.72365 -240.594915,-240.59492 0,-132.88225 107.723645,-240.594914 240.594915,-240.594914 132.88225,0 240.59491,107.723654 240.59491,240.594914" />
  <text
     style="word-spacing:0;letter-spacing:0"
     font-size="129.23"
     y="231.36"
     x="729.64"
     font-family="Gentium Book Basic"
     line-height="125%"
     id="text20">
    <tspan
       y="231.36"
       x="729.64"
       id="tspan22" />
  </text>
  <text
     style="text-anchor:middle"
     transform="scale(4.0128.2492)"
     font-size="46.954"
     y="579.25"
     x="378.91"
     font-family="Arial"
     id="text24" />
  <text
     style="word-spacing:0;letter-spacing:0"
     font-size="129.23"
     y="151.36"
     x="1310.91"
     font-family="Gentium Book Basic"
     line-height="125%"
     id="text26">
    <tspan
       y="151.36"
       x="1310.91"
       id="tspan28" />
  </text>
  <text
     style="text-anchor:middle"
     transform="scale(4.0128.2492)"
     font-size="46.954"
     y="258.22"
     x="523.76"
     font-family="Arial"
     id="text30" />
  <text
     style="word-spacing:0;letter-spacing:0"
     font-size="129.23"
     y="-29.901"
     x="239.33"
     font-family="Gentium Book Basic"
     line-height="125%"
     id="text32">
    <tspan
       y="-29.901"
       x="239.33"
       id="tspan34" />
  </text>
  <text
     style="text-anchor:middle"
     transform="scale(4.0128.2492)"
     font-size="46.954"
     y="-469.14"
     x="256.72"
     font-family="Arial"
     id="text36" />
  <text
     style="word-spacing:0;letter-spacing:0"
     font-size="129.23"
     y="-246.37"
     x="1337.38"
     font-family="Gentium Book Basic"
     line-height="125%"
     id="text38">
    <tspan
       y="-246.37"
       x="1337.38"
       id="tspan40" />
  </text>
  <text
     style="text-anchor:middle"
     transform="scale(4.0128.2492)"
     font-size="46.954"
     y="-1337.81"
     x="530.36"
     font-family="Arial"
     id="text42" />
  <text
     style="word-spacing:0;letter-spacing:0"
     font-size="129.23"
     y="-326.38"
     x="1918.65"
     font-family="Gentium Book Basic"
     line-height="125%"
     id="text44">
    <tspan
       y="-326.38"
       x="1918.65"
       id="tspan46" />
  </text>
  <text
     style="text-anchor:middle"
     transform="scale(4.0128.2492)"
     font-size="46.954"
     y="-1658.85"
     x="675.21"
     font-family="Arial"
     id="text48" />
  <text
     style="word-spacing:0;letter-spacing:0"
     font-size="129.23"
     y="-798.78"
     x="1529.53"
     font-family="Gentium Book Basic"
     line-height="125%"
     id="text50">
    <tspan
       y="-798.78"
       x="1529.53"
       id="tspan52" />
  </text>
  <text
     style="text-anchor:middle"
     transform="scale(4.0128.2492)"
     font-size="46.954"
     y="-3554.51"
     x="578.24"
     font-family="Arial"
     id="text54" />
  <text
     style="word-spacing:0;letter-spacing:0"
     font-size="129.23"
     y="-878.78"
     x="2110.79"
     font-family="Gentium Book Basic"
     line-height="125%"
     id="text56">
    <tspan
       y="-878.78"
       x="2110.79"
       id="tspan58" />
  </text>
  <text
     style="text-anchor:middle"
     transform="scale(4.0128.2492)"
     font-size="46.954"
     y="-3875.54"
     x="723.09"
     font-family="Arial"
     id="text60" />
  <text
     style="word-spacing:0;letter-spacing:0"
     font-size="208.33"
     y="535.94"
     x="277.99"
     font-family="Gentium Book Basic"
     line-height="125%"
     id="text62">
    <tspan
       y="535.94"
       x="277.99"
       id="tspan64" />
  </text>
  <path
     d="m 116.0783,156.60745 c -11.91324,0 -21.508455,9.59522 -21.508455,21.50846 0,11.91324 9.595215,21.50846 21.508455,21.50846 11.91324,0 21.47549,-9.59522 21.47549,-21.50846 0,-11.91324 -9.56225,-21.50846 -21.47549,-21.50846 m 72.35213,0 c -12.97607,0 -23.41541,9.68975 -23.41541,21.73818 0,12.04843 10.44044,21.77114 23.41541,21.77114 l 214.12838,0 c 12.97608,0 23.44839,-9.72271 23.44839,-21.77114 0,-12.04843 -10.47341,-21.73818 -23.44839,-21.73818 l -214.12838,0 m -72.35213,80.11404 c -11.91324,0 -21.508455,9.59522 -21.508455,21.50846 0,11.91324 9.595215,21.47549 21.508455,21.47549 11.91324,0 21.47549,-9.56225 21.47549,-21.47549 0,-11.91324 -9.56225,-21.50846 -21.47549,-21.50846 m 72.35213,0 c -12.97607,0 -23.41541,9.68975 -23.41541,21.73818 0,12.04843 10.44044,21.73817 23.41541,21.73817 l 214.12838,0 c 12.97608,0 23.44839,-9.69084 23.44839,-21.73817 0,-12.04843 -10.47341,-21.73818 -23.44839,-21.73818 l -214.12838,0 m -72.35213,80.08107 c -11.91324,0 -21.508455,9.59522 -21.508455,21.50846 0,11.91324 9.595215,21.50846 21.508455,21.50846 11.91324,0 21.47549,-9.59522 21.47549,-21.50846 0,-11.91324 -9.56225,-21.50846 -21.47549,-21.50846 m 72.35213,0 c -12.97607,0 -23.41541,9.72272 -23.41541,21.77115 0,12.04843 10.44044,21.73817 23.41541,21.73817 l 214.12838,0 c 12.97608,0 23.44839,-9.69084 23.44839,-21.73817 0,-12.04843 -10.47341,-21.77115 -23.44839,-21.77115 l -214.12838,0"
     id="path66"
     inkscape:connector-curvature="0"
     style="fill:#ffffff;fill-rule:evenodd;fill-opacity:0.90163934" />
</svg>
