<?xml version="1.0" encoding="UTF-8" standalone="no"?>
<!-- Created with Inkscape (http://www.inkscape.org/) -->

<svg
   xmlns:dc="http://purl.org/dc/elements/1.1/"
   xmlns:cc="http://creativecommons.org/ns#"
   xmlns:rdf="http://www.w3.org/1999/02/22-rdf-syntax-ns#"
   xmlns:svg="http://www.w3.org/2000/svg"
   xmlns="http://www.w3.org/2000/svg"
   xmlns:xlink="http://www.w3.org/1999/xlink"
   xmlns:sodipodi="http://sodipodi.sourceforge.net/DTD/sodipodi-0.dtd"
   xmlns:inkscape="http://www.inkscape.org/namespaces/inkscape"
   id="svg2"
   version="1.1"
   inkscape:version="0.91 r"
   width="512"
   height="512"
   sodipodi:docname="cinnamon-session-properties.svg">
  <metadata
     id="metadata8">
    <rdf:RDF>
      <cc:Work
         rdf:about="">
        <dc:format>image/svg+xml</dc:format>
        <dc:type
           rdf:resource="http://purl.org/dc/dcmitype/StillImage" />
        <dc:title />
      </cc:Work>
    </rdf:RDF>
  </metadata>
  <defs
     id="defs6">
    <linearGradient
       inkscape:collect="always"
       id="linearGradient3342">
      <stop
         style="stop-color:#004455;stop-opacity:1;"
         offset="0"
         id="stop3344" />
      <stop
         id="stop3350"
         offset="0.11158375"
         style="stop-color:#5599ff;stop-opacity:1" />
      <stop
         style="stop-color:#0088aa;stop-opacity:1"
         offset="0.1995295"
         id="stop3358" />
      <stop
         id="stop3356"
         offset="0.83259052"
         style="stop-color:#1c2422;stop-opacity:1" />
      <stop
         style="stop-color:#006680;stop-opacity:1"
         offset="0.9144519"
         id="stop3352" />
      <stop
         style="stop-color:#004455;stop-opacity:0;"
         offset="1"
         id="stop3346" />
    </linearGradient>
    <linearGradient
       inkscape:collect="always"
       xlink:href="#linearGradient3342"
       id="linearGradient3348"
       x1="-62.896549"
       y1="-77.07988"
       x2="576.80737"
       y2="574.89655"
       gradientUnits="userSpaceOnUse" />
  </defs>
  <sodipodi:namedview
     pagecolor="#ffffff"
     bordercolor="#666666"
     borderopacity="1"
     objecttolerance="10"
     gridtolerance="10"
     guidetolerance="10"
     inkscape:pageopacity="0"
     inkscape:pageshadow="2"
     inkscape:window-width="1366"
     inkscape:window-height="744"
     id="namedview4"
     showgrid="false"
     inkscape:zoom="0.65186406"
     inkscape:cx="360.52657"
     inkscape:cy="287.31677"
     inkscape:window-x="0"
     inkscape:window-y="24"
     inkscape:window-maximized="1"
     inkscape:current-layer="svg2" />
  <path
     style="fill:#ececec;fill-opacity:1;fill-rule:nonzero;stroke:none"
     d="m 101.47593,456.05413 c -3.500033,-32.68299 2.63356,-43.16321 12.05908,-20.60477 6.5419,15.65693 13.10564,17.80809 32.19373,10.55081 19.30001,-7.33785 14.64056,-1.03508 -9.01817,12.19874 -12.72567,7.1183 -25.22149,15.50453 -27.76853,18.6361 -3.6712,4.51381 -5.21848,0.20712 -7.46611,-20.78088 z"
     id="path3009"
     inkscape:connector-curvature="0" />
  <ellipse
     style="fill:url(#linearGradient3348);fill-opacity:1;fill-rule:nonzero;stroke:none"
     id="path2998"
     cx="256.15512"
     cy="255.11394"
     rx="245.19872"
     ry="245.05612" />
  <path
     style="fill:#d23a33"
     d="m 187.81984,480.27759 c -5.68998,-3.98541 -5.098,-7.56011 2.34283,-14.14774 12.75015,-11.28813 17.55711,-36.441 9.96248,-52.12943 -2.09804,-4.33394 -3.54375,-9.01185 -3.21272,-10.39539 0.76603,-3.20163 43.95389,-43.80108 54.26611,-51.01368 7.38778,-5.16731 8.02995,-5.29796 13.11485,-2.6684 14.58077,7.53996 23.99035,23.22894 24.05462,40.10679 0.0497,12.95549 -2.85126,20.25735 -13.48239,33.94275 -16.34117,21.03567 -38.25966,38.86657 -61.9162,50.36928 -18.00448,8.75451 -20.32334,9.30223 -25.12958,5.93582 z"
     id="path3023"
     inkscape:connector-curvature="0" />
  <path
     style="fill:#d23a33"
     d="m 73.897526,410.36833 c -6.292929,-6.29291 -2.719047,-44.93495 6.453599,-69.7782 4.552492,-12.33005 15.905152,-32.64347 22.868735,-40.9192 6.07128,-7.21532 21.56787,-14.72793 33.22861,-16.10898 12.4353,-1.47276 28.36106,3.27752 36.74401,10.95995 l 6.47342,5.93243 -3.15975,10.96247 c -1.73785,6.02934 -7.20164,22.52824 -12.1417,36.66419 l -8.98197,25.70173 -16.94217,0 c -15.35066,0 -17.86628,0.51186 -26.78004,5.44904 -11.27313,6.24399 -21.557391,17.3308 -23.257811,25.07283 -1.790837,8.15354 -9.283057,11.28564 -14.504933,6.06374 z"
     id="path3019"
     inkscape:connector-curvature="0" />
  <path
     style="fill:#d23a33"
     d="m 315.52167,212.80986 c -32.66153,-5.58449 -56.50175,-31.4278 -56.50539,-62.27341 -10e-4,-25.01939 17.17489,-48.91806 42.01363,-58.451301 17.59237,-6.751964 38.54123,-6.109735 55.21462,1.692719 24.68662,11.552252 38.35689,31.845762 38.35689,56.940482 0,29.33385 -23.17526,56.66582 -52.08215,61.42344 -15.1802,2.49846 -17.72067,2.25427 -26.9976,0.66807 z"
     id="path3017"
     inkscape:connector-curvature="0"
     sodipodi:nodetypes="scsssss" />
  <path
     style="fill:#d23a33"
     d="M 402.29705,87.03852 C 389.08161,84.167356 372.2097,75.674349 361.4853,66.494763 c -6.77681,-5.800688 -18.41732,-20.63941 -18.41732,-23.477408 0,-2.19577 23.95365,-12.019145 36.27653,-14.877023 30.11691,-6.98459 43.26353,5.362229 45.83185,43.044103 1.3756,20.182929 0.34203,20.899114 -22.87931,15.854085 z"
     id="path2986"
     inkscape:connector-curvature="0" />
  <path
     inkscape:connector-curvature="0"
     id="path2984"
     d="m 317.62983,197.65561 c -40.25753,-7.67985 -56.07602,-52.75264 -28.2717,-80.55683 25.73089,-25.730848 70.53122,-18.578866 85.81695,13.69995 16.74836,35.36715 -17.01124,74.58948 -57.54525,66.85688 z"
     style="fill:#3a3f5f" />
  <ellipse
     style="fill:#ffcc00;fill-opacity:1;fill-rule:nonzero;stroke:none"
     id="path3005"
     transform="matrix(0.53107071,-0.8473275,0.84732753,0.53107068,0,0)"
     cx="-276.9881"
     cy="347.81406"
     rx="78.504059"
     ry="35.203613" />
  <path
     style="fill:#f2f2f2;fill-opacity:1;fill-rule:nonzero;stroke:none"
     d="m 169.7753,389.74147 c -6.86229,-5.01781 -2.70001,-2.11982 18.58318,-33.37247 22.02215,-32.33774 29.82906,-38.20595 17.27125,-38.20595 -5.75722,0 -8.46663,10.76441 -35.27381,49.82907 -12.74524,18.57295 -8.65293,17.96845 -24.41463,7.10871 -7.94871,-5.47665 -9.70651,-2.84165 2.52118,-42.19995 14.91504,-48.00832 47.82145,-129.52834 62.69815,-155.32396 28.21768,-48.92834 67.99704,-94.109224 105.56727,-119.901883 12.47542,-8.564692 24.26096,-15.572154 26.18987,-15.572154 1.92892,0 7.82159,4.592521 13.09484,10.20563 14.31219,15.234702 33.01828,25.603299 52.27713,28.976572 l 17.18895,3.010742 -0.51605,19.727553 c -0.72552,27.7376 -21.17699,76.76617 -42.52906,111.12692 -9.96879,16.04213 -32.00522,47.10824 -52.01217,67.21034 -37.60584,37.78467 -102.06307,101.83452 -133.30379,120.68658 -1.72135,1.03874 -23.32567,-10.3687 -27.34231,-13.30575 z M 345.7321,209.62644 c 20.48152,-5.68614 41.45601,-31.13416 43.75494,-46.4498 6.82143,-45.44463 -18.82298,-73.279739 -61.5879,-73.279739 -58.9504,0 -88.52217,63.766509 -47.519,102.466969 11.25661,10.62432 30.84856,18.68772 42.48023,19.61955 3.2858,0.15438 14.15903,0.0618 22.87173,-2.35698 z"
     id="path3007"
     inkscape:connector-curvature="0"
     sodipodi:nodetypes="ssssssssssscssssssssscs" />
  <path
     style="fill:#d23a33"
     d="m 133.55558,424.92648 c 0,-2.30774 11.63863,-21.92826 25.86365,-43.60114 44.73331,-68.15475 42.46077,-65.04726 48.03926,-65.68892 6.07195,-0.69843 8.28693,3.36384 5.34942,9.81095 -1.10396,2.42293 -11.75292,17.86013 -23.66438,34.30489 -11.91145,16.44474 -24.63054,34.44327 -28.26462,39.99667 -16.55153,25.29311 -27.32333,35.21893 -27.32333,25.17755 z"
     id="path3021"
     inkscape:connector-curvature="0" />
</svg>
