<?xml version="1.0" encoding="UTF-8" standalone="no"?>
<!-- Created with Inkscape (http://www.inkscape.org/) -->

<svg
   xmlns:dc="http://purl.org/dc/elements/1.1/"
   xmlns:cc="http://creativecommons.org/ns#"
   xmlns:rdf="http://www.w3.org/1999/02/22-rdf-syntax-ns#"
   xmlns:svg="http://www.w3.org/2000/svg"
   xmlns="http://www.w3.org/2000/svg"
   xmlns:xlink="http://www.w3.org/1999/xlink"
   xmlns:sodipodi="http://sodipodi.sourceforge.net/DTD/sodipodi-0.dtd"
   xmlns:inkscape="http://www.inkscape.org/namespaces/inkscape"
   version="1.0"
   width="128"
   height="128"
   id="svg2408"
   inkscape:version="0.91 r"
   sodipodi:docname="shotwell.svg">
  <sodipodi:namedview
     pagecolor="#ffffff"
     bordercolor="#666666"
     borderopacity="1"
     objecttolerance="10"
     gridtolerance="10"
     guidetolerance="10"
     inkscape:pageopacity="0"
     inkscape:pageshadow="2"
     inkscape:window-width="1366"
     inkscape:window-height="744"
     id="namedview128"
     showgrid="false"
     inkscape:zoom="1.4142136"
     inkscape:cx="235.90963"
     inkscape:cy="16.237189"
     inkscape:window-x="0"
     inkscape:window-y="24"
     inkscape:window-maximized="1"
     inkscape:current-layer="g5602"
     showguides="true"
     inkscape:guide-bbox="true" />
  <defs
     id="defs2410">
    <linearGradient
       x1="45.447727"
       y1="92.539597"
       x2="45.447727"
       y2="7.0165396"
       id="ButtonShadow"
       gradientUnits="userSpaceOnUse"
       gradientTransform="scale(1.0058652,0.994169)">
      <stop
         id="stop3750"
         style="stop-color:#000000;stop-opacity:1"
         offset="0" />
      <stop
         id="stop3752"
         style="stop-color:#000000;stop-opacity:0.58823532"
         offset="1" />
    </linearGradient>
    <filter
       color-interpolation-filters="sRGB"
       id="filter3174">
      <feGaussianBlur
         id="feGaussianBlur3176"
         stdDeviation="1.71" />
    </filter>
    <linearGradient
       gradientTransform="matrix(2.4955507,0,0,2.4955507,240.71244,33.087543)"
       id="0"
       y1="17.279"
       x2="0"
       y2="-30.721"
       gradientUnits="userSpaceOnUse">
      <stop
         stop-color="#dc3c30"
         id="stop3341" />
      <stop
         offset="1"
         stop-color="#ff786d"
         id="stop3343" />
    </linearGradient>
    <linearGradient
       gradientUnits="userSpaceOnUse"
       y2="-30.891"
       x2="-49.554"
       y1="-5.178"
       x1="-48.953"
       id="0-9">
      <stop
         stop-color="#566069"
         id="stop3394" />
      <stop
         offset="1"
         stop-color="#6c7884"
         id="stop3396" />
    </linearGradient>
    <linearGradient
       gradientUnits="userSpaceOnUse"
       y2="-4.937"
       x2="42.36"
       y1="15.429"
       x1="43.691"
       id="1">
      <stop
         stop-color="#d5dbff"
         id="stop3399" />
      <stop
         offset="1"
         stop-color="#f9ffff"
         id="stop3401" />
    </linearGradient>
    <linearGradient
       gradientUnits="userSpaceOnUse"
       y2="-26.783"
       x2="-56.38"
       y1="3.509"
       x1="-56.27"
       id="2">
      <stop
         stop-color="#197ff1"
         id="stop3404" />
      <stop
         offset="1"
         stop-color="#21c6fb"
         id="stop3406" />
    </linearGradient>
    <linearGradient
       id="0-7"
       x1="23.2"
       y1="48.821"
       x2="22.382"
       y2="-1.823"
       gradientUnits="userSpaceOnUse">
      <stop
         stop-color="#7737c5"
         id="stop3457" />
      <stop
         stop-color="#9371ff"
         offset="1"
         id="stop3459" />
    </linearGradient>
    <linearGradient
       id="0-3"
       y1="546.29"
       x2="0"
       y2="501.51"
       gradientUnits="userSpaceOnUse">
      <stop
         stop-color="#197cf1"
         id="stop3484" />
      <stop
         offset="1"
         stop-color="#20bcfa"
         id="stop3486" />
    </linearGradient>
    <linearGradient
       id="0-5"
       gradientUnits="userSpaceOnUse"
       y1="36.965"
       x2="0"
       y2="9.965">
      <stop
         stop-color="#2b65bd"
         id="stop3509" />
      <stop
         offset="1"
         stop-color="#64a3dc"
         id="stop3511" />
    </linearGradient>
    <linearGradient
       gradientUnits="userSpaceOnUse"
       y2="517.8"
       x2="0"
       y1="545.8"
       id="linearGradient3579">
      <stop
         stop-color="#3889e9"
         id="stop3581" />
      <stop
         offset="1"
         stop-color="#5ea5fb"
         id="stop3583" />
    </linearGradient>
    <linearGradient
       y2="518.14"
       x2="0"
       y1="545.14"
       gradientUnits="userSpaceOnUse"
       id="0-8">
      <stop
         stop-color="#00a661"
         id="stop3586" />
      <stop
         offset="1"
         stop-color="#37ce97"
         id="stop3588" />
    </linearGradient>
    <linearGradient
       id="0-6"
       gradientUnits="userSpaceOnUse"
       y1="-2.471"
       x2="0"
       y2="-51.27">
      <stop
         stop-color="#0a80fd"
         id="stop3639" />
      <stop
         offset="1"
         stop-color="#56c5fa"
         id="stop3641" />
    </linearGradient>
    <linearGradient
       gradientUnits="userSpaceOnUse"
       y2="517.8"
       x2="0"
       y1="545.8"
       id="linearGradient3663">
      <stop
         stop-color="#3889e9"
         id="stop3665" />
      <stop
         offset="1"
         stop-color="#5ea5fb"
         id="stop3667" />
    </linearGradient>
    <linearGradient
       y2="517.7"
       x2="387.16"
       y1="545.87"
       x1="414.43"
       gradientUnits="userSpaceOnUse"
       id="0-0">
      <stop
         stop-color="#80256c"
         id="stop3670" />
      <stop
         offset="1"
         stop-color="#4567bd"
         id="stop3672" />
    </linearGradient>
    <linearGradient
       gradientTransform="matrix(0.53361,0,0,0.53476,-221.94,-216.11)"
       xlink:href="#1-6"
       id="8"
       x1="543.95"
       y1="484.81"
       x2="543.74"
       y2="427.54"
       gradientUnits="userSpaceOnUse" />
    <linearGradient
       gradientUnits="userSpaceOnUse"
       y2="25.17"
       x2="0"
       y1="28.442"
       id="5"
       xlink:href="#3" />
    <linearGradient
       y2="21.988"
       x2="69.26"
       y1="24.14"
       x1="69.39"
       gradientUnits="userSpaceOnUse"
       id="7"
       xlink:href="#3" />
    <linearGradient
       y2="507.67"
       x2="390.88"
       y1="531.8"
       x1="391.57"
       gradientTransform="matrix(0.68488,0,0,0.84437,-199.89,-405.47)"
       gradientUnits="userSpaceOnUse"
       id="6">
      <stop
         stop-color="#d3d3d3"
         id="stop3726" />
      <stop
         offset="1"
         stop-color="#fcf9f9"
         id="stop3728" />
    </linearGradient>
    <linearGradient
       y2="40.747"
       x2="88.18"
       y1="26.87"
       x1="74.3"
       gradientUnits="userSpaceOnUse"
       id="4"
       xlink:href="#3" />
    <linearGradient
       id="3">
      <stop
         stop-color="#222c35"
         id="stop3732" />
      <stop
         offset="1"
         stop-color="#545e67"
         id="stop3734" />
    </linearGradient>
    <linearGradient
       y2="25.427"
       x2="80.06"
       y1="43.46"
       x1="80.34"
       gradientUnits="userSpaceOnUse"
       id="0-61"
       xlink:href="#1-6" />
    <linearGradient
       y2="22.484"
       x2="80.37"
       y1="44.46"
       x1="80.978"
       gradientUnits="userSpaceOnUse"
       id="2-0"
       xlink:href="#3" />
    <linearGradient
       id="1-6">
      <stop
         stop-color="#197ff1"
         id="stop3739" />
      <stop
         offset="1"
         stop-color="#21c6fb"
         id="stop3741" />
    </linearGradient>
    <linearGradient
       id="0-2"
       x1="-1092.91"
       y1="203.1"
       x2="-1060.26"
       y2="104.85"
       gradientUnits="userSpaceOnUse"
       gradientTransform="matrix(0.35533,0,0,0.34923,314.86,-49.68)">
      <stop
         stop-color="#f2b333"
         id="stop3816" />
      <stop
         offset="1"
         stop-color="#fcde3f"
         id="stop3818" />
    </linearGradient>
    <linearGradient
       id="1-3"
       x1="-50.952"
       y1="41.34"
       x2="-55.927"
       y2=".059"
       gradientUnits="userSpaceOnUse">
      <stop
         stop-color="#1584d8"
         id="stop3821" />
      <stop
         offset="1"
         stop-color="#1cb2ff"
         id="stop3823" />
    </linearGradient>
    <linearGradient
       gradientUnits="userSpaceOnUse"
       y2="25.17"
       x2="0"
       y1="28.442"
       id="5-1"
       xlink:href="#3" />
    <filter
       color-interpolation-filters="sRGB"
       id="filter4020">
      <feGaussianBlur
         stdDeviation="1.71"
         id="feGaussianBlur4022" />
    </filter>
    <linearGradient
       gradientTransform="scale(1.0059.99417)"
       gradientUnits="userSpaceOnUse"
       y2="7.02"
       x2="0"
       y1="92.54"
       id="linearGradient4024">
      <stop
         id="stop4026" />
      <stop
         offset="1"
         stop-opacity=".588"
         id="stop4028" />
    </linearGradient>
    <linearGradient
       gradientUnits="userSpaceOnUse"
       y2="-26.05"
       x2="-125.19"
       y1="73.5"
       x1="-123.97"
       id="0-52"
       gradientTransform="matrix(1.03458,0,0,1,4.382,0)">
      <stop
         stop-color="#c52828"
         id="stop4031" />
      <stop
         offset="1"
         stop-color="#ff5454"
         id="stop4033" />
    </linearGradient>
    <linearGradient
       id="3-7">
      <stop
         stop-color="#2e3436"
         id="stop4085" />
      <stop
         offset="1"
         stop-color="#555753"
         id="stop4087" />
    </linearGradient>
    <linearGradient
       id="4-7"
       x1="70.03"
       y1="569.24"
       x2="66.53"
       y2="491.06"
       gradientUnits="userSpaceOnUse">
      <stop
         stop-color="#0a80fd"
         id="stop4090" />
      <stop
         offset="1"
         stop-color="#56c5fa"
         id="stop4092" />
    </linearGradient>
    <linearGradient
       xlink:href="#3-7"
       id="2-4"
       x1="72.85"
       y1="491.15"
       x2="72.29"
       y2="462.68"
       gradientUnits="userSpaceOnUse"
       gradientTransform="matrix(1.0021,0,0,1,-0.15,0.002)" />
    <linearGradient
       xlink:href="#3-7"
       id="0-67"
       x1="96.68"
       y1="490.36"
       x2="96.33"
       y2="462.83"
       gradientUnits="userSpaceOnUse" />
    <linearGradient
       xlink:href="#3-7"
       id="1-5"
       x1="44.16"
       y1="490.59"
       x2="44.26"
       y2="461.93"
       gradientUnits="userSpaceOnUse" />
    <filter
       color-interpolation-filters="sRGB"
       id="filter4157">
      <feGaussianBlur
         stdDeviation="1.71"
         id="feGaussianBlur4159" />
    </filter>
    <linearGradient
       gradientTransform="scale(1.0059.99417)"
       gradientUnits="userSpaceOnUse"
       y2="7.02"
       x2="0"
       y1="92.54"
       id="linearGradient4161">
      <stop
         id="stop4163" />
      <stop
         offset="1"
         stop-opacity=".588"
         id="stop4165" />
    </linearGradient>
    <linearGradient
       gradientUnits="userSpaceOnUse"
       y2="517.8"
       x2="0"
       y1="545.8"
       id="linearGradient4215">
      <stop
         stop-color="#3889e9"
         id="stop4217" />
      <stop
         offset="1"
         stop-color="#5ea5fb"
         id="stop4219" />
    </linearGradient>
    <linearGradient
       y2="518.14"
       x2="0"
       y1="545.14"
       gradientUnits="userSpaceOnUse"
       id="0-33">
      <stop
         stop-color="#7e19bf"
         id="stop4222" />
      <stop
         offset="1"
         stop-color="#bd30fa"
         id="stop4224" />
    </linearGradient>
    <linearGradient
       gradientUnits="userSpaceOnUse"
       y2="503.8"
       x2="409.57"
       y1="552.8"
       x1="408.57"
       id="linearGradient4255">
      <stop
         stop-color="#197cf1"
         id="stop4257" />
      <stop
         offset="1"
         stop-color="#59d0ff"
         id="stop4259" />
    </linearGradient>
    <linearGradient
       id="0-4"
       x1="511.29"
       y1="549.43"
       x2="462.18"
       y2="501.03"
       gradientUnits="userSpaceOnUse">
      <stop
         stop-color="#80256c"
         id="stop4262" />
      <stop
         offset="1"
         stop-color="#4567bd"
         id="stop4264" />
    </linearGradient>
    <linearGradient
       id="0-612"
       y1="546.8"
       x2="0"
       y2="507.87"
       gradientUnits="userSpaceOnUse"
       gradientTransform="matrix(-0.32279,0,0,0.35147,161.26,-143.94)">
      <stop
         stop-color="#4fd127"
         id="stop4309" />
      <stop
         offset="1"
         stop-color="#c6f61a"
         id="stop4311" />
    </linearGradient>
    <linearGradient
       id="1-69"
       x1="34.17"
       y1="46.44"
       x2="34.15"
       y2="22.749"
       gradientUnits="userSpaceOnUse">
      <stop
         stop-color="#1074f5"
         id="stop4314" />
      <stop
         offset="1"
         stop-color="#02befd"
         id="stop4316" />
    </linearGradient>
    <linearGradient
       xlink:href="#4-8"
       id="3-6"
       gradientUnits="userSpaceOnUse"
       x1="400.51"
       y1="546.07"
       x2="400.7"
       y2="517.77" />
    <linearGradient
       id="4-8">
      <stop
         stop-color="#566069"
         id="stop4343" />
      <stop
         offset="1"
         stop-color="#6c7884"
         id="stop4345" />
    </linearGradient>
    <linearGradient
       gradientTransform="matrix(1.31487,0,0,1.21841,-245.58,-140.56)"
       gradientUnits="userSpaceOnUse"
       y2="507.8"
       x2="0"
       y1="542.8"
       id="2-5">
      <stop
         stop-color="#2fae61"
         id="stop4348" />
      <stop
         offset="1"
         stop-color="#4bdf88"
         id="stop4350" />
    </linearGradient>
    <linearGradient
       id="0-81"
       gradientUnits="userSpaceOnUse"
       y1="542.2"
       x2="0"
       y2="526.2">
      <stop
         stop-color="#d0d0d0"
         id="stop4353" />
      <stop
         offset="1"
         stop-color="#f1eeee"
         id="stop4355" />
    </linearGradient>
    <linearGradient
       gradientTransform="matrix(1.31487,0,0,1.21841,-250.19,-160.77)"
       gradientUnits="userSpaceOnUse"
       y2="507.8"
       x2="0"
       y1="542.8"
       id="1-2"
       xlink:href="#4-8" />
    <linearGradient
       id="0-1"
       gradientUnits="userSpaceOnUse"
       y1="20.995"
       x2="0"
       y2="-25.291">
      <stop
         stop-color="#566069"
         id="stop4399" />
      <stop
         offset="1"
         stop-color="#6c7884"
         id="stop4401" />
    </linearGradient>
    <clipPath
       id="clipPath4429">
      <path
         d="m-24 13c0 1.105-.672 2-1.5 2-.828 0-1.5-.895-1.5-2 0-1.105.672-2 1.5-2 .828 0 1.5.895 1.5 2"
         transform="matrix(15.33333 0 0 11.5 415-125.5)"
         fill="#1890d0"
         id="path4431" />
    </clipPath>
    <clipPath
       id="clipPath4433">
      <path
         d="m-24 13c0 1.105-.672 2-1.5 2-.828 0-1.5-.895-1.5-2 0-1.105.672-2 1.5-2 .828 0 1.5.895 1.5 2"
         transform="matrix(15.33333 0 0 11.5 415-125.5)"
         fill="#1890d0"
         id="path4435" />
    </clipPath>
    <linearGradient
       gradientTransform="matrix(0.99978,0,0,0.98633,-0.833,5.996)"
       gradientUnits="userSpaceOnUse"
       y2="317.35"
       x2="-1003.64"
       y1="433.28"
       x1="-989.67"
       id="0-02">
      <stop
         stop-color="#1584d8"
         id="stop4438" />
      <stop
         offset="1"
         stop-color="#1cb2ff"
         id="stop4440" />
    </linearGradient>
    <linearGradient
       gradientTransform="matrix(0.99834,0,0,0.98513,-2.169,6.702)"
       gradientUnits="userSpaceOnUse"
       y2="104.85"
       x2="-1060.26"
       y1="203.1"
       x1="-1092.91"
       id="1-7">
      <stop
         stop-color="#f2b333"
         id="stop4443" />
      <stop
         offset="1"
         stop-color="#fcde3f"
         id="stop4445" />
    </linearGradient>
    <filter
       color-interpolation-filters="sRGB"
       id="filter4520">
      <feGaussianBlur
         stdDeviation="1.71"
         id="feGaussianBlur4522" />
    </filter>
    <linearGradient
       gradientTransform="scale(1.0059.99417)"
       gradientUnits="userSpaceOnUse"
       y2="7.02"
       x2="0"
       y1="92.54"
       id="linearGradient4524">
      <stop
         id="stop4526" />
      <stop
         offset="1"
         stop-opacity=".588"
         id="stop4528" />
    </linearGradient>
    <linearGradient
       gradientUnits="userSpaceOnUse"
       y2="-26.05"
       x2="-125.19"
       y1="73.5"
       x1="-123.97"
       id="0-339"
       gradientTransform="matrix(1.03458,0,0,1,4.382,0)">
      <stop
         stop-color="#1074f5"
         id="stop4531" />
      <stop
         offset="1"
         stop-color="#02befd"
         id="stop4533" />
    </linearGradient>
    <linearGradient
       id="8-8"
       x1="25.626"
       y1="48.41"
       x2="24.2"
       y2="0"
       gradientUnits="userSpaceOnUse">
      <stop
         stop-color="#141414"
         id="stop4580" />
      <stop
         offset="1"
         stop-color="#2d2d2f"
         id="stop4582" />
    </linearGradient>
    <linearGradient
       gradientUnits="userSpaceOnUse"
       y2="523.04"
       x2="405.25"
       y1="530.91"
       x1="405.3"
       id="5-5">
      <stop
         stop-color="#fc6e51"
         id="stop4585" />
      <stop
         offset="1"
         stop-color="#ff937d"
         id="stop4587" />
    </linearGradient>
    <linearGradient
       gradientUnits="userSpaceOnUse"
       y2="533.06"
       x2="0"
       y1="541.16"
       id="7-6">
      <stop
         stop-color="#0976da"
         id="stop4590" />
      <stop
         offset="1"
         stop-color="#5de5f0"
         id="stop4592" />
    </linearGradient>
    <linearGradient
       gradientUnits="userSpaceOnUse"
       y2="532.99"
       x2="404.17"
       y1="540.41"
       x1="405.15"
       id="6-5">
      <stop
         stop-color="#4fd127"
         id="stop4595" />
      <stop
         offset="1"
         stop-color="#c6f61a"
         id="stop4597" />
    </linearGradient>
    <linearGradient
       gradientUnits="userSpaceOnUse"
       y2="519.87"
       x2="400.45"
       y1="530.78"
       x1="400.62"
       id="4-1">
      <stop
         stop-color="#eb4646"
         id="stop4600" />
      <stop
         offset="1"
         stop-color="#ff8651"
         id="stop4602" />
    </linearGradient>
    <linearGradient
       gradientUnits="userSpaceOnUse"
       y2="528.59"
       x2="406.62"
       y1="534.79"
       x1="406.49"
       id="3-4">
      <stop
         stop-color="#ffbc00"
         id="stop4605" />
      <stop
         offset="1"
         stop-color="#ffec00"
         id="stop4607" />
    </linearGradient>
    <linearGradient
       gradientUnits="userSpaceOnUse"
       y2="532.99"
       x2="400.62"
       y1="543.89"
       x1="400.45"
       id="0-47">
      <stop
         stop-color="#41b99b"
         id="stop4610" />
      <stop
         offset="1"
         stop-color="#59ffd5"
         id="stop4612" />
    </linearGradient>
    <linearGradient
       gradientUnits="userSpaceOnUse"
       y2="523.38"
       x2="0"
       y1="530.78"
       id="2-3">
      <stop
         stop-color="#ec87c0"
         id="stop4615" />
      <stop
         offset="1"
         stop-color="#ffc1e4"
         id="stop4617" />
    </linearGradient>
    <linearGradient
       gradientUnits="userSpaceOnUse"
       y2="528.97"
       x2="394.27"
       y1="535.15"
       x1="394.52"
       id="1-52">
      <stop
         stop-color="#947ecb"
         id="stop4620" />
      <stop
         offset="1"
         stop-color="#cab5ff"
         id="stop4622" />
    </linearGradient>
    <linearGradient
       gradientTransform="matrix(.49433 0 0 .4778 86.64 13.1)"
       gradientUnits="userSpaceOnUse"
       y2="-26.05"
       x2="-125.19"
       y1="73.5"
       x1="-123.97"
       id="0-610">
      <stop
         stop-color="#2fae61"
         id="stop4692" />
      <stop
         offset="1"
         stop-color="#4bdf88"
         id="stop4694" />
    </linearGradient>
    <filter
       color-interpolation-filters="sRGB"
       id="filter4715">
      <feGaussianBlur
         stdDeviation="1.71"
         id="feGaussianBlur4717" />
    </filter>
    <linearGradient
       gradientTransform="scale(1.0059.99417)"
       gradientUnits="userSpaceOnUse"
       y2="7.02"
       x2="0"
       y1="92.54"
       id="linearGradient4719">
      <stop
         id="stop4721" />
      <stop
         offset="1"
         stop-opacity=".588"
         id="stop4723" />
    </linearGradient>
    <linearGradient
       gradientUnits="userSpaceOnUse"
       y2="-26.05"
       x2="-125.19"
       y1="73.5"
       x1="-123.97"
       id="0-03"
       gradientTransform="matrix(1.03458 0 0 1 4.382 0)">
      <stop
         stop-color="#4469b9"
         id="stop4726" />
      <stop
         offset="1"
         stop-color="#5d91ff"
         id="stop4728" />
    </linearGradient>
    <filter
       color-interpolation-filters="sRGB"
       id="filter4754">
      <feGaussianBlur
         stdDeviation="1.71"
         id="feGaussianBlur4756" />
    </filter>
    <linearGradient
       gradientTransform="scale(1.0059.99417)"
       gradientUnits="userSpaceOnUse"
       y2="7.02"
       x2="0"
       y1="92.54"
       id="linearGradient4758">
      <stop
         id="stop4760" />
      <stop
         offset="1"
         stop-opacity=".588"
         id="stop4762" />
    </linearGradient>
    <linearGradient
       gradientUnits="userSpaceOnUse"
       y2="-26.05"
       x2="-125.19"
       y1="73.5"
       x1="-123.97"
       id="0-619"
       gradientTransform="matrix(1.03458 0 0 1 4.382 0)">
      <stop
         stop-color="#566069"
         id="stop4765" />
      <stop
         offset="1"
         stop-color="#6c7884"
         id="stop4767" />
    </linearGradient>
    <filter
       color-interpolation-filters="sRGB"
       id="filter4837">
      <feGaussianBlur
         stdDeviation="1.71"
         id="feGaussianBlur4839" />
    </filter>
    <linearGradient
       gradientTransform="scale(1.0059.99417)"
       gradientUnits="userSpaceOnUse"
       y2="7.02"
       x2="0"
       y1="92.54"
       id="linearGradient4841">
      <stop
         id="stop4843" />
      <stop
         offset="1"
         stop-opacity=".588"
         id="stop4845" />
    </linearGradient>
    <linearGradient
       gradientUnits="userSpaceOnUse"
       y2="-33.3"
       x2="-72.48"
       y1="69.73"
       x1="-176.63"
       id="0-70"
       gradientTransform="matrix(1.03458 0 0 1 4.382 0)">
      <stop
         stop-color="#4fd127"
         id="stop4848" />
      <stop
         offset="1"
         stop-color="#c6f61a"
         id="stop4850" />
    </linearGradient>
    <linearGradient
       id="0-18"
       x1="-123.97"
       y1="73.5"
       x2="-125.19"
       y2="-26.05"
       gradientUnits="userSpaceOnUse"
       gradientTransform="matrix(1.03459 0 0 1 140.3 142.57)">
      <stop
         stop-color="#5dae33"
         id="stop4877" />
      <stop
         offset="1"
         stop-color="#9be058"
         id="stop4879" />
    </linearGradient>
    <linearGradient
       y2="145.15"
       x2="25.934"
       y1="265.58"
       x1="25.843"
       gradientUnits="userSpaceOnUse"
       id="0-05"
       gradientTransform="matrix(.43553-.00032.00033.41517 13.657-62.25)">
      <stop
         stop-color="#97a9b1"
         id="stop4904" />
      <stop
         offset="1"
         stop-color="#cfdce1"
         id="stop4906" />
    </linearGradient>
    <linearGradient
       xlink:href="#5-8"
       id="6-55"
       x1="-226.75"
       x2="-170.39"
       gradientUnits="userSpaceOnUse" />
    <linearGradient
       id="5-8">
      <stop
         stop-color="#007fe6"
         id="stop4930" />
      <stop
         offset="1"
         stop-color="#00aefc"
         id="stop4932" />
    </linearGradient>
    <linearGradient
       id="7-65"
       x1="-263.84"
       y1="247.6"
       x2="-148.44"
       y2="232.22"
       gradientUnits="userSpaceOnUse"
       gradientTransform="matrix(1 0 0 1.0085 2.747 1.166)">
      <stop
         stop-color="#007fe6"
         id="stop4935" />
      <stop
         offset="1"
         stop-color="#00abe5"
         id="stop4937" />
    </linearGradient>
    <linearGradient
       xlink:href="#5-8"
       id="4-5"
       x1="-335.91"
       y1="120.49"
       x2="-301.2"
       y2="85.6"
       gradientUnits="userSpaceOnUse" />
    <linearGradient
       id="3-42"
       gradientUnits="userSpaceOnUse"
       x1="253.92"
       y1="519.71"
       x2="263.68"
       y2="24.896">
      <stop
         stop-color="#08f"
         id="stop4941" />
      <stop
         offset="1"
         stop-color="#02c3ff"
         id="stop4943" />
    </linearGradient>
    <linearGradient
       id="0-79"
       gradientUnits="userSpaceOnUse"
       y1="542.2"
       x2="0"
       y2="526.2">
      <stop
         stop-color="#d0d0d0"
         id="stop4946" />
      <stop
         offset="1"
         stop-color="#f1eeee"
         id="stop4948" />
    </linearGradient>
    <linearGradient
       id="2-7"
       gradientUnits="userSpaceOnUse"
       x1="395.93"
       y1="539.09"
       x2="396.05"
       y2="513.03">
      <stop
         stop-color="#0c275c"
         id="stop4951" />
      <stop
         offset="1"
         stop-color="#1072c0"
         id="stop4953" />
    </linearGradient>
    <linearGradient
       id="1-64"
       gradientUnits="userSpaceOnUse"
       y1="537.65"
       x2="0"
       y2="494.02">
      <stop
         stop-color="#178aff"
         id="stop4956" />
      <stop
         offset="1"
         stop-color="#1bbded"
         id="stop4958" />
    </linearGradient>
    <linearGradient
       gradientTransform="matrix(.49433 0 0 .4778 86.64 13.1)"
       gradientUnits="userSpaceOnUse"
       y2="-26.05"
       x2="-125.19"
       y1="73.5"
       x1="-123.97"
       id="0-48">
      <stop
         stop-color="#c52828"
         id="stop5010" />
      <stop
         offset="1"
         stop-color="#ff5454"
         id="stop5012" />
    </linearGradient>
    <linearGradient
       id="0-25"
       x1="459"
       y1="573.28"
       x2="446.04"
       y2="526.72"
       gradientUnits="userSpaceOnUse">
      <stop
         stop-color="#1e56e6"
         id="stop5034" />
      <stop
         offset="1"
         stop-color="#1f9aed"
         id="stop5036" />
    </linearGradient>
    <linearGradient
       id="1-0"
       x1="-1092.91"
       y1="203.1"
       x2="-1060.26"
       y2="104.85"
       gradientUnits="userSpaceOnUse"
       gradientTransform="matrix(0.32822,0,0,0.32388,685.52,570.27)">
      <stop
         stop-color="#f2b333"
         id="stop5039" />
      <stop
         offset="1"
         stop-color="#fcde3f"
         id="stop5041" />
    </linearGradient>
    <linearGradient
       gradientTransform="matrix(2.51381 0 0 2.52731-1038.86-1347.67)"
       xlink:href="#0-86"
       id="2-2"
       gradientUnits="userSpaceOnUse"
       x1="395.09"
       y1="550.5"
       x2="394.69"
       y2="537.45" />
    <linearGradient
       xlink:href="#0-86"
       x1="12.613"
       y1="24.02"
       x2="11.598"
       y2="-.7"
       gradientUnits="userSpaceOnUse"
       id="linearGradient6190" />
    <linearGradient
       id="0-86">
      <stop
         stop-color="#00cafe"
         id="stop6193" />
      <stop
         offset="1"
         stop-color="#1460f3"
         id="stop6195" />
    </linearGradient>
    <linearGradient
       id="1-4"
       x1="401.49"
       y1="546.9"
       x2="401.62"
       y2="517.44"
       gradientUnits="userSpaceOnUse">
      <stop
         stop-color="#ececec"
         id="stop6198" />
      <stop
         offset="1"
         stop-color="#fcfcfc"
         id="stop6200" />
    </linearGradient>
    <linearGradient
       gradientUnits="userSpaceOnUse"
       y2="-32.798"
       x2="-35.09"
       y1="-8.02"
       x1="-34.507"
       id="9"
       xlink:href="#3"
       gradientTransform="matrix(2.4137886,0,0,2.4137886,-96.889959,26.736648)" />
    <linearGradient
       xlink:href="#3"
       id="6-0"
       y1="-.413"
       x2="0"
       y2="-3.765"
       gradientUnits="userSpaceOnUse"
       gradientTransform="matrix(3.5878122,0,0,3.5878122,-62.352529,16.653493)" />
    <linearGradient
       gradientUnits="userSpaceOnUse"
       y2="-27.631"
       x2="-42.45"
       y1="1.559"
       x1="-42.34"
       id="8-43"
       xlink:href="#1-6"
       gradientTransform="matrix(2.4137842,0,0,2.4137842,-100.02682,9.856349)" />
    <linearGradient
       xlink:href="#3"
       id="7-9"
       gradientUnits="userSpaceOnUse"
       x1="24.406"
       y1="-4.811"
       x2="24.27"
       y2="-7.02"
       gradientTransform="matrix(3.5878122,0,0,3.5878122,-62.352529,16.653493)" />
    <linearGradient
       id="5-4"
       gradientUnits="userSpaceOnUse"
       gradientTransform="matrix(2.5148412,0,0,3.1004797,-963.57508,-1578.1291)"
       x1="391.57"
       y1="531.8"
       x2="390.88"
       y2="507.67">
      <stop
         stop-color="#d3d3d3"
         id="stop6231" />
      <stop
         offset="1"
         stop-color="#fcf9f9"
         id="stop6233" />
    </linearGradient>
    <linearGradient
       xlink:href="#1-6"
       id="0-60"
       gradientUnits="userSpaceOnUse"
       x1="35.611"
       y1="14.953"
       x2="35.32"
       y2="-3.499"
       gradientTransform="matrix(3.5878122,0,0,3.5878122,-62.352529,16.653493)" />
    <linearGradient
       xlink:href="#3"
       id="4-51"
       gradientUnits="userSpaceOnUse"
       x1="36.26"
       y1="15.981"
       x2="35.638"
       y2="-6.51"
       gradientTransform="matrix(3.5878122,0,0,3.5878122,-62.352529,16.653493)" />
    <linearGradient
       xlink:href="#3"
       id="2-1"
       gradientUnits="userSpaceOnUse"
       x1="29.43"
       y1="-2.02"
       x2="43.633"
       y2="12.181"
       gradientTransform="matrix(3.5878122,0,0,3.5878122,-62.352529,16.653493)" />
    <linearGradient
       inkscape:collect="always"
       xlink:href="#0-86"
       id="linearGradient4731"
       x1="48.660236"
       y1="24.709969"
       x2="73.400269"
       y2="24.709969"
       gradientUnits="userSpaceOnUse" />
  </defs>
  <metadata
     id="metadata2413">
    <rdf:RDF>
      <cc:Work
         rdf:about="">
        <dc:format>image/svg+xml</dc:format>
        <dc:type
           rdf:resource="http://purl.org/dc/dcmitype/StillImage" />
        <dc:title />
      </cc:Work>
    </rdf:RDF>
  </metadata>
  <g
     id="layer2"
     style="display:none"
     transform="translate(0,32)">
    <path
       d="M 11,7 C 7.676,7 5,9.676 5,13 l 0,33.6875 c 2.2377507,0.124029 4.660506,0.235683 5.875,0.4375 0.66093,0.10983 -0.08406,0.240848 -1.125,0.34375 C 8.7090622,47.571654 7.3545491,47.665119 6.84375,47.75 6.2216014,47.853382 5.6264179,47.903999 5,48 l 0,1.0625 c 0.3803657,0.03607 0.7183843,0.03125 0.9375,0.03125 0.80883,10e-7 1.1599727,0.215701 1.3125,0.5625 0.1525272,0.346797 0.09375,0.839723 0.09375,1.40625 0,0.424828 -0.9420178,0.663014 -1.15625,1.375 C 6.110939,52.691968 5.5510552,52.945524 5,53.1875 l 0,2.21875 c 0.7355867,0.02497 1.4332639,0.05671 1.84375,0.3125 C 7.1254716,55.894306 6.0687957,56.124098 5,56.3125 l 0,7.5625 c 1.1379643,0.180337 3.3100715,0.925679 3.96875,1.0625 1.090152,0.226446 1.224723,0.33476 0.875,0.4375 -0.3497231,0.102744 -1.173581,0.175172 -2,0.3125 C 6.8656638,65.850029 5.90816,66.141998 5,66.34375 L 5,86 c 0,3.324 2.676,6 6,6 l 13,0 c 0.0954,-0.438237 0.150955,-0.931178 0.25,-1.4375 0.140364,-0.717512 0.25498,-1.34159 0.375,-1.59375 0.03001,-0.06304 0.05815,-0.114053 0.09375,-0.125 0.106804,-0.03285 0.238198,0.191956 0.46875,0.78125 0.304338,0.777871 0.540174,1.646782 0.6875,2.375 l 0.75,0 c 0.276152,-0.493694 0.578538,-1.138496 0.8125,-1.4375 0.09907,-0.126629 0.275237,0.131501 0.53125,0.375 0.256014,0.2435 0.588904,0.486378 0.9375,0.375 0.648614,-0.207227 1.602807,-0.726227 2.03125,-1 0.139883,-0.08938 0.300164,-0.157976 0.40625,-0.1875 0.106087,-0.02952 0.174331,-0.01774 0.25,0 0.151339,0.03548 0.232196,0.144559 0.34375,0.28125 0.223098,0.27338 0.466785,0.656251 1.0625,0.65625 0.478344,0 0.657185,-0.0325 0.78125,0.0625 0.124065,0.095 0.197087,0.314551 0.40625,0.875 l 8.875,0 c -0.04778,-0.593879 1.040547,-2.151517 1.21875,-3.0625 0.19092,-0.975995 0.214078,-1.242419 0.28125,-1.0625 0.06717,0.179919 0.192504,0.793906 0.46875,1.5 0.110448,0.282298 0.213887,0.358235 0.3125,0.28125 0.09861,-0.07699 0.168895,-0.293948 0.25,-0.5625 0.162213,-0.537107 0.285649,-1.296709 0.34375,-1.59375 0.131129,-0.670335 0.128655,-1.786501 0.125,-2.28125 -9.11e-4,-0.123687 -0.0059,-0.217815 0,-0.25 0.01779,-0.09656 0.08067,0.312079 0.28125,1.59375 0.163819,1.046767 0.54767,2.687946 0.71875,3.5625 0.169798,0.867992 0.298106,1.322124 0.40625,1.875 l 28.21875,0 c 0.03877,-0.494956 0.03519,-1.098589 0.0625,-1.5 0.02049,-0.301057 0.06649,-0.487005 0.15625,-0.46875 0.02992,0.0061 0.05077,0.03882 0.09375,0.09375 0.233449,0.298339 0.630596,1.164908 0.96875,1.875 L 85,92 c 3.324,0 6,-2.676 6,-6 l 0,-7.21875 c -0.16942,0.0045 -0.290112,-4e-6 -0.5,0 -1.330307,0 -2.638456,-4e-6 -3.96875,0 -1.226564,0 -2.05394,-9.64e-4 -2.25,-0.0625 -0.19606,-0.06154 0.232972,-0.183183 1.46875,-0.5 C 86.405034,78.050819 89.092469,77.290673 91,76.875 L 91,38.46875 C 90.34725,38.202412 89.792969,37.980093 89.25,37.5625 89.107486,37.452886 88.801155,37.170028 88.28125,37 87.761349,36.829972 87.007124,36.743855 86,36.9375 c -1.533473,0.294852 -1.685602,0.283469 -1.25,0.15625 0.4356,-0.127221 1.468635,-0.381012 2.25,-0.53125 1.152717,-0.221645 2.722214,-1.204246 4,-1.84375 l 0,-4.5625 c -0.69831,-0.257978 -1.422206,-0.558272 -1.75,-1.0625 -0.209707,-0.322576 -0.321618,-0.513018 -0.3125,-0.625 0.0091,-0.111981 0.13299,-0.149124 0.25,-0.1875 0.117011,-0.03837 0.261032,-0.05449 0.375,-0.15625 0.11397,-0.101759 0.187497,-0.291619 0.1875,-0.59375 0,-0.32292 0.08246,-0.887065 0.0625,-1.40625 -0.01,-0.259593 -0.03562,-0.49724 -0.125,-0.6875 -0.08939,-0.19026 -0.219089,-0.333004 -0.4375,-0.375 -0.574572,-0.110478 -0.848143,-0.233682 -0.90625,-0.34375 -0.05811,-0.110067 0.07208,-0.18937 0.28125,-0.28125 0.418339,-0.18376 1.132532,-0.339398 1.125,-0.34375 -0.668701,-0.385725 -5.247169,-0.921226 -5,-0.96875 0.332574,-0.06395 0.667437,-0.123553 1,-0.1875 1.047644,-0.201439 2.43278,-0.309227 3.75,-0.5625 0.573261,-0.110227 0.911769,-0.250569 1.125,-0.4375 0.213229,-0.18693 0.294201,-0.423258 0.375,-0.625 L 91,13 C 91,9.676 88.324,7 85,7 L 33.625,7 C 33.72158,8.3975706 33.82658,9.959362 33.53125,9.1875 33.320827,8.6375466 33.210422,8.0499534 33,7.5 32.946762,7.3608606 32.903941,7.1705291 32.84375,7 L 30.8125,7 C 30.571803,7.4923127 30.362863,7.9708281 30.03125,8.1875 29.524321,8.5187294 29.245447,8.6821159 29,8.59375 28.754552,8.5053839 28.523162,8.1669814 28.15625,7.6875 27.992502,7.4735174 27.721718,7.2560338 27.40625,7 l -6.8125,0 -1.3125,5.5625 L 17.53125,7 17.3125,7 15.5625,15.9375 14.15625,7 11,7 z"
       inkscape:connector-curvature="0"
       id="rect3745"
       style="opacity:0.9;fill:url(#ButtonShadow);fill-opacity:1;fill-rule:nonzero;stroke:none;filter:url(#filter3174)" />
  </g>
  <g
     id="g5602"
     transform="translate(0,32)">
    <rect
       width="13.927887"
       height="6.9639435"
       x="15.926365"
       y="-7.5714126"
       rx="2.3213146"
       id="rect6254"
       style="fill:url(#7-9)" />
    <rect
       width="120.71194"
       height="74.411224"
       x="3.5735161"
       y="-3.703752"
       rx="3.4837656"
       id="rect6256"
       style="fill:url(#5-4)" />
    <path
       inkscape:connector-curvature="0"
       d="M 25.312061,33.769687 A 42.295761,42.295761 0 0 1 67.607811,-8.5260639 42.295761,42.295761 0 0 1 109.90356,33.769687 42.295761,42.295761 0 0 1 67.607796,76.065465 42.295761,42.295761 0 0 1 25.312061,33.769687"
       id="path6258"
       style="fill:url(#4-51)" />
    <circle
       r="33.233902"
       cy="33.770947"
       cx="67.598045"
       id="circle6260"
       style="fill:url(#2-1)" />
    <circle
       cx="67.598045"
       cy="33.770947"
       r="30.212965"
       id="circle6262"
       style="fill:url(#0-60)" />
    <circle
       cx="17.081636"
       cy="9.158555"
       r="6.0131731"
       id="circle6264"
       style="fill:url(#6-0);fill-rule:evenodd" />
    <circle
       style="fill:#373737;fill-opacity:1;stroke:none"
       id="path4807"
       cx="67.738365"
       cy="33.772079"
       r="36.646015" />
    <circle
       style="fill:#292929;fill-opacity:1;stroke:none"
       id="path4815"
       cx="67.738365"
       cy="33.772083"
       r="30.704651" />
    <circle
       style="fill:#cdcdcd;fill-opacity:1;stroke:none"
       id="path4817"
       cx="67.738365"
       cy="33.772083"
       r="24.805143" />
    <circle
       id="path4819"
       style="fill:#373737;fill-opacity:1;stroke:none"
       cx="67.738365"
       cy="33.772083"
       r="23.394018" />
    <g
       transform="matrix(0.64876545,0,0,-0.64876545,36.59764,64.90189)"
       id="g4827"
       style="fill:#0e0e0e;fill-opacity:1">
      <circle
         transform="matrix(0.30534925,0,0,0.30534925,37.096312,39.522225)"
         id="path4829"
         style="fill:#0e0e0e;fill-opacity:1;stroke:none"
         cx="35.708893"
         cy="27.764196"
         r="33.941124" />
    </g>
    <path
       style="fill:url(#linearGradient4731);fill-opacity:1.0;stroke:none"
       d="m 67.738377,14.69395 c -5.359075,0 -10.195672,2.222762 -13.66242,5.784981 l 9.785252,7.231229 c 2.608437,-2.430625 5.891572,-4.127497 9.539063,-4.800307 l 0,-7.354311 C 71.611664,14.996393 69.716067,14.69395 67.738377,14.69395 Z m -15.354829,7.785108 c -2.32974,3.163364 -3.723312,7.066167 -3.723312,11.293025 0,0.321008 0.01486,0.637107 0.03077,0.953906 l 10.400658,0 c 0.7269,-1.850918 1.71796,-3.556697 2.954035,-5.077245 l -9.66215,-7.169686 z"
       id="path4233"
       inkscape:connector-curvature="0" />
    <ellipse
       style="fill:#cccccc;fill-opacity:1;stroke:none"
       id="path5020"
       transform="matrix(0.75289174,-0.65814438,0.65814438,0.75289174,0,0)"
       cx="31.139055"
       cy="85.146347"
       rx="4.6998386"
       ry="4.3517027" />
  </g>
</svg>
