<?xml version="1.0" encoding="UTF-8" standalone="no"?>
<!-- Created with Inkscape (http://www.inkscape.org/) -->

<svg
   xmlns:dc="http://purl.org/dc/elements/1.1/"
   xmlns:cc="http://creativecommons.org/ns#"
   xmlns:rdf="http://www.w3.org/1999/02/22-rdf-syntax-ns#"
   xmlns:svg="http://www.w3.org/2000/svg"
   xmlns="http://www.w3.org/2000/svg"
   xmlns:xlink="http://www.w3.org/1999/xlink"
   xmlns:sodipodi="http://sodipodi.sourceforge.net/DTD/sodipodi-0.dtd"
   xmlns:inkscape="http://www.inkscape.org/namespaces/inkscape"
   id="svg2"
   version="1.1"
   inkscape:version="0.91 r"
   width="512"
   height="512"
   sodipodi:docname="simple-ccsm.svg">
  <metadata
     id="metadata8">
    <rdf:RDF>
      <cc:Work
         rdf:about="">
        <dc:format>image/svg+xml</dc:format>
        <dc:type
           rdf:resource="http://purl.org/dc/dcmitype/StillImage" />
        <dc:title />
      </cc:Work>
    </rdf:RDF>
  </metadata>
  <defs
     id="defs6">
    <linearGradient
       inkscape:collect="always"
       id="linearGradient3334">
      <stop
         style="stop-color:#4acd35;stop-opacity:1;"
         offset="0"
         id="stop3336" />
      <stop
         id="stop3342"
         offset="0.19778939"
         style="stop-color:#2eff2e;stop-opacity:1" />
      <stop
         style="stop-color:#008000;stop-opacity:1"
         offset="0.84390008"
         id="stop3344" />
      <stop
         style="stop-color:#4acd35;stop-opacity:0;"
         offset="1"
         id="stop3338" />
    </linearGradient>
    <linearGradient
       inkscape:collect="always"
       xlink:href="#linearGradient3334"
       id="linearGradient3340"
       x1="-47.728813"
       y1="-54.237289"
       x2="544.54236"
       y2="548.88135"
       gradientUnits="userSpaceOnUse"
       gradientTransform="matrix(1.0274041,0,0,1.0274041,-2.5896106,-0.39944603)" />
  </defs>
  <sodipodi:namedview
     pagecolor="#ffffff"
     bordercolor="#666666"
     borderopacity="1"
     objecttolerance="10"
     gridtolerance="10"
     guidetolerance="10"
     inkscape:pageopacity="0"
     inkscape:pageshadow="2"
     inkscape:window-width="1260"
     inkscape:window-height="714"
     id="namedview4"
     showgrid="false"
     inkscape:zoom="0.4609375"
     inkscape:cx="433.00318"
     inkscape:cy="115.19623"
     inkscape:window-x="15"
     inkscape:window-y="24"
     inkscape:window-maximized="0"
     inkscape:current-layer="svg2" />
  <ellipse
     style="fill:#ffffff;fill-opacity:1;fill-rule:nonzero;stroke:#ffffff;stroke-width:50.65102005;stroke-linecap:round;stroke-linejoin:miter;stroke-miterlimit:4;stroke-dasharray:none;stroke-opacity:1"
     id="path2996"
     cx="252.62454"
     cy="255.37192"
     rx="124.82089"
     ry="118.69129" />
  <path
     style="opacity:1;fill:#25a525;fill-opacity:1;fill-rule:nonzero;stroke:none;stroke-width:25.99621582;stroke-miterlimit:4;stroke-dasharray:none;stroke-opacity:1"
     d="m 303.81784,398.59015 c 0,-2.01841 -6.43978,-17.32957 -17.36816,-41.29445 -2.90146,-6.3626 -10.60039,-24.14896 -17.10872,-39.52523 -15.01443,-35.47236 -14.73459,-35.05439 -19.36218,-28.92092 -3.01216,3.99234 -35.52368,43.4838 -37.96257,46.11279 -0.4099,0.44183 -0.74527,-37.04329 -0.74527,-83.30029 l 0,-84.10364 19.76262,14.92982 c 10.86943,8.21141 34.07847,25.7002 51.57561,38.86398 17.49715,13.16377 39.15952,29.61462 48.13872,36.55744 l 16.32566,12.62332 -35.03068,0.96405 -35.03072,0.96402 12.13994,18.31657 c 39.19507,59.13697 69.1064,104.98557 69.98411,107.27268 0.82233,2.1431 -4.17774,2.62677 -27.15522,2.62677 -18.91913,0 -28.16314,-0.68499 -28.16314,-2.08691 z"
     id="path3351"
     inkscape:connector-curvature="0" />
  <path
     inkscape:connector-curvature="0"
     id="path2984"
     d="m 223.09621,498.22165 c -5.77191,-4.86334 -5.99547,-6.28666 -5.99547,-38.17117 l 0,-29.28853 -7.44868,-2.15976 c -15.24929,-4.42157 -20.4386,-6.41513 -33.52482,-12.87914 -7.37512,-3.64298 -13.73644,-6.6236 -14.13629,-6.6236 -0.39983,0 -10.27532,9.4778 -21.94551,21.06178 -22.27045,22.10593 -21.83077,21.79943 -30.30842,21.12727 -5.01662,-0.39774 -8.3322,-3.10927 -27.31886,-22.34174 -26.996913,-27.34646 -27.055619,-25.8896 2.228131,-55.30193 11.257072,-11.3065 20.467409,-20.87511 20.467409,-21.26359 0,-0.38849 -1.65791,-3.53513 -3.68425,-6.99255 -5.547447,-9.46526 -12.538685,-25.84379 -15.515219,-36.34783 -1.45878,-5.14797 -3.10911,-9.93786 -3.667391,-10.6442 -0.767943,-0.97162 -7.887227,-1.28426 -29.244441,-1.28426 -31.252256,0 -33.110388,-0.32402 -37.549956,-6.54794 -2.243768,-3.1456 -2.291419,-3.832 -2.291419,-33.00712 0,-33.52971 0.0092,-33.57387 7.821535,-37.55943 3.591517,-1.83226 6.217737,-1.99562 32.080488,-1.99562 21.296412,0 28.422004,-0.31332 29.206828,-1.28426 0.570949,-0.70634 2.033119,-4.94015 3.249268,-9.40847 2.691244,-9.88805 10.065529,-27.39638 15.548117,-36.91496 2.22554,-3.86388 4.04644,-7.32724 4.04644,-7.69636 0,-0.36911 -9.210337,-9.92188 -20.467409,-21.22838 -24.269226,-24.37579 -25.125866,-26.02177 -19.285412,-37.05575 2.192244,-4.14166 35.369551,-36.843498 39.444951,-38.879656 1.80842,-0.903529 5.70297,-1.642779 8.65456,-1.642779 l 5.36651,0 21.21854,21.061784 c 11.67019,11.583977 21.57543,21.061781 22.01165,21.061781 0.43621,0 7.33592,-3.22309 15.33268,-7.162422 9.2977,-4.580198 18.98443,-8.432808 26.86842,-10.686116 l 12.32885,-3.523685 0.5137,-30.1532 c 0.43931,-25.786377 0.76649,-30.614672 2.25915,-33.339694 3.58485,-6.544524 3.75231,-6.573845 37.54485,-6.573845 33.72323,0 33.05085,-0.118346 37.16703,6.541779 2.0359,3.294146 2.13908,4.870578 2.13908,32.681329 0,21.862657 0.32338,29.611427 1.28426,30.773841 0.70634,0.854485 4.98291,2.657469 9.50348,4.00663 11.15201,3.328306 20.59197,7.242409 32.1795,13.342643 5.34919,2.81609 10.23321,5.12014 10.85338,5.12014 0.62017,0 10.69761,-9.561904 22.39433,-21.248669 l 21.26676,-21.248676 6.16778,-0.446136 c 4.9638,-0.359049 6.83079,-0.0334 9.56432,1.668259 1.86811,1.162916 11.561,10.347668 21.53975,20.410556 27.24274,27.472416 27.32403,25.798876 -2.7096,55.787006 -12.54414,12.52515 -21.08432,21.83784 -21.08432,22.99154 0,1.06653 1.40104,4.3879 3.11342,7.38083 4.90972,8.58128 11.68028,24.82777 14.32063,34.36349 1.32995,4.80312 2.86246,9.31085 3.40556,10.01719 0.75082,0.97647 8.30795,1.28426 31.53188,1.28426 30.01515,0 30.60487,0.0403 34.03539,2.32522 1.92004,1.27886 4.41566,4.16843 5.5458,6.42127 1.89709,3.78167 2.05481,6.14634 2.05481,30.80856 0,24.66222 -0.15772,27.0269 -2.05481,30.80857 -1.13014,2.25284 -3.62576,5.14241 -5.5458,6.42127 -3.4267,2.28239 -4.04289,2.32522 -33.45112,2.32522 -22.42439,0 -30.36514,0.32303 -31.57035,1.28426 -0.88562,0.70634 -2.6043,5.05937 -3.81925,9.67341 -2.33295,8.85972 -9.44311,25.98701 -14.53107,35.0031 -1.6693,2.95807 -3.03509,6.18059 -3.03509,7.16115 0,0.98058 9.66096,11.50562 21.46879,23.38901 29.92564,30.11712 29.92632,28.15102 -0.0199,57.70513 -20.38451,20.11757 -22.38604,21.41405 -30.70975,19.89195 -3.93705,-0.71995 -6.43837,-2.87048 -25.55736,-21.97321 -11.65627,-11.64633 -21.57731,-21.17515 -22.04679,-21.17515 -0.46947,0 -7.86275,3.4376 -16.4295,7.63911 -8.56676,4.20152 -19.96806,8.89947 -25.33625,10.4399 -5.36819,1.54042 -10.33825,3.508 -11.04459,4.37238 -0.96046,1.17539 -1.28426,8.93882 -1.28426,30.79187 0,27.81075 -0.10318,29.38718 -2.13908,32.68132 -4.11887,6.66449 -3.42002,6.5423 -37.38773,6.53668 -30.4713,-0.005 -30.884,-0.0334 -33.58783,-2.31166 z m 53.29684,-124.57239 c 8.18612,-1.55288 19.5806,-5.34 30.09184,-10.00145 20.58746,-9.12997 45.5477,-33.84592 54.63537,-54.10062 9.9531,-22.18358 11.65782,-30.0859 11.54791,-53.53095 -0.0747,-15.9324 -0.38675,-19.10867 -2.74063,-27.89603 -5.6432,-21.06675 -18.39933,-42.45957 -34.01184,-57.03993 -15.20114,-14.19619 -35.70876,-25.07859 -55.11591,-29.24733 -15.1498,-3.25425 -36.23339,-3.25284 -51.3702,0.003 -27.29117,5.87095 -55.2048,24.66755 -71.63027,48.23471 -6.94153,9.95967 -15.0492,28.17487 -17.91993,40.26006 -3.35218,14.11194 -3.33751,40.48364 0.0301,54.12456 2.87825,11.65879 10.10118,28.29162 16.42712,37.8281 10.47154,15.78607 31.81239,34.46023 47.15145,41.25956 10.05446,4.45681 22.17422,8.56821 29.61175,10.04521 9.81353,1.94886 33.16709,1.98159 43.29326,0.0607 z"
     style="fill:url(#linearGradient3340);fill-opacity:1" />
  <ellipse
     ry="115.52542"
     rx="121.49152"
     cy="219.16316"
     cx="941.47455"
     style="fill:#ffffff;fill-opacity:1;fill-rule:nonzero;stroke:#ffffff;stroke-width:49.29999924;stroke-linecap:round;stroke-linejoin:miter;stroke-miterlimit:4;stroke-dasharray:none;stroke-opacity:1"
     id="path2996-9" />
</svg>
