<?xml version="1.0" encoding="UTF-8" standalone="no"?>
<svg
   xmlns:dc="http://purl.org/dc/elements/1.1/"
   xmlns:cc="http://creativecommons.org/ns#"
   xmlns:rdf="http://www.w3.org/1999/02/22-rdf-syntax-ns#"
   xmlns:svg="http://www.w3.org/2000/svg"
   xmlns="http://www.w3.org/2000/svg"
   xmlns:xlink="http://www.w3.org/1999/xlink"
   xmlns:sodipodi="http://sodipodi.sourceforge.net/DTD/sodipodi-0.dtd"
   xmlns:inkscape="http://www.inkscape.org/namespaces/inkscape"
   viewBox="0 0 128 128"
   id="svg2"
   version="1.1"
   inkscape:version="0.91 r"
   width="100%"
   height="100%"
   sodipodi:docname="sonata.svg">
  <metadata
     id="metadata61">
    <rdf:RDF>
      <cc:Work
         rdf:about="">
        <dc:format>image/svg+xml</dc:format>
        <dc:type
           rdf:resource="http://purl.org/dc/dcmitype/StillImage" />
        <dc:title />
      </cc:Work>
    </rdf:RDF>
  </metadata>
  <sodipodi:namedview
     pagecolor="#ffffff"
     bordercolor="#666666"
     borderopacity="1"
     objecttolerance="10"
     gridtolerance="10"
     guidetolerance="10"
     inkscape:pageopacity="0"
     inkscape:pageshadow="2"
     inkscape:window-width="1095"
     inkscape:window-height="607"
     id="namedview59"
     showgrid="false"
     inkscape:zoom="1.7383041"
     inkscape:cx="36.749153"
     inkscape:cy="76.554993"
     inkscape:window-x="177"
     inkscape:window-y="73"
     inkscape:window-maximized="0"
     inkscape:current-layer="svg2" />
  <defs
     id="defs4">
    <linearGradient
       id="linearGradient3764"
       x1="1"
       x2="47"
       gradientUnits="userSpaceOnUse"
       gradientTransform="matrix(0,-1,1,0,-1.5e-6,47.999998)">
      <stop
         stop-color="#e4e4e4"
         stop-opacity="1"
         id="stop7" />
      <stop
         offset="1"
         stop-color="#eee"
         stop-opacity="1"
         id="stop9" />
    </linearGradient>
    <clipPath
       id="clipPath-725264839">
      <g
         transform="translate(0,-1004.3622)"
         id="g12">
        <path
           d="m -24,13 c 0,1.105 -0.672,2 -1.5,2 -0.828,0 -1.5,-0.895 -1.5,-2 0,-1.105 0.672,-2 1.5,-2 0.828,0 1.5,0.895 1.5,2 z"
           transform="matrix(15.333333,0,0,11.5,414.99999,878.8622)"
           id="path14"
           inkscape:connector-curvature="0"
           style="fill:#1890d0" />
      </g>
    </clipPath>
    <clipPath
       id="clipPath-730514797">
      <g
         transform="translate(0,-1004.3622)"
         id="g17">
        <path
           d="m -24,13 c 0,1.105 -0.672,2 -1.5,2 -0.828,0 -1.5,-0.895 -1.5,-2 0,-1.105 0.672,-2 1.5,-2 0.828,0 1.5,0.895 1.5,2 z"
           transform="matrix(15.333333,0,0,11.5,414.99999,878.8622)"
           id="path19"
           inkscape:connector-curvature="0"
           style="fill:#1890d0" />
      </g>
    </clipPath>
    <linearGradient
       gradientUnits="userSpaceOnUse"
       y2="643.6947"
       x2="445.42685"
       y1="649.03107"
       id="0"
       gradientTransform="matrix(16.579909,0,0,16.601595,-7509.9714,-10667.661)"
       x1="450.9437">
      <stop
         id="stop7-2"
         stop-color="#187ced" />
      <stop
         id="stop9-0"
         stop-color="#42d6fc"
         offset="1" />
    </linearGradient>
    <linearGradient
       gradientTransform="matrix(4.494338,0,0,4.4827302,135.10308,-6.456817)"
       gradientUnits="userSpaceOnUse"
       y2="2.3199999"
       x2="0"
       y1="29.504999"
       id="1">
      <stop
         id="stop12"
         stop-color="#0164c2" />
      <stop
         id="stop14"
         stop-color="#00a9f3"
         offset="1" />
    </linearGradient>
    <linearGradient
       inkscape:collect="always"
       xlink:href="#0"
       id="linearGradient4158"
       x1="-130.01178"
       y1="64.719933"
       x2="-10.354923"
       y2="64.719933"
       gradientUnits="userSpaceOnUse"
       gradientTransform="translate(-19.18163,-77.870915)" />
  </defs>
  <circle
     style="opacity:1;fill:url(#linearGradient4158);fill-opacity:1;fill-rule:nonzero;stroke:none;stroke-width:95.80000305;stroke-miterlimit:4;stroke-dasharray:none;stroke-opacity:1"
     id="path3350"
     cx="-89.365013"
     cy="-13.150978"
     r="59.828426"
     transform="matrix(-0.60039939,-0.7997003,-0.7997003,0.60039939,0,0)" />
  <g
     id="g33"
     transform="translate(0,80)" />
  <path
     inkscape:connector-curvature="0"
     id="path3338"
     d="m 50.792745,100.50251 c -7.26118,-1.421906 -11.84975,-5.02522 -13.24402,-10.400255 -1.66298,-6.410981 3.36402,-12.958634 11.4021,-14.851218 2.3398,-0.550916 7.97269,-0.411799 10.23377,0.252748 l 0.99752,0.293172 0.12282,-25.630507 0.12282,-25.630512 1.46351,-1.307458 c 1.63822,-1.463516 3.44873,-1.687038 5.4177,-0.668854 1.17061,0.605355 2.30568,2.344997 2.30568,3.533776 0,1.547595 3.50069,5.463555 8.37989,9.373964 10.36857,8.309871 13.66354,13.090393 14.53219,21.084043 0.9204,8.470253 -0.79426,14.460061 -5.39596,18.849319 -1.39883,1.334252 -3.42221,2.874291 -4.4964,3.422303 -2.86542,1.461829 -5.3437,2.260344 -5.6213,1.811208 -0.13374,-0.21646 0.78816,-1.768573 2.04876,-3.44912 7.86543,-10.485754 8.12149,-19.485769 0.76781,-26.986177 -2.44191,-2.49061 -8.50881,-6.767099 -9.60027,-6.767099 -0.51286,0 -0.61472,3.812381 -0.61472,23.012449 0,16.030158 -0.15507,23.474642 -0.51065,24.53578 -1.22952,3.667633 -5.03383,7.110651 -9.52229,8.617935 -2.34876,0.788743 -6.95788,1.263083 -8.78901,0.904503 z"
     style="opacity:1;fill:#ffffff;fill-opacity:0.84153003;fill-rule:nonzero;stroke:none;stroke-width:0.88501078;stroke-miterlimit:4;stroke-dasharray:none;stroke-opacity:1" />
</svg>
