<?xml version="1.0" encoding="UTF-8" standalone="no"?>
<svg
   xmlns:dc="http://purl.org/dc/elements/1.1/"
   xmlns:cc="http://creativecommons.org/ns#"
   xmlns:rdf="http://www.w3.org/1999/02/22-rdf-syntax-ns#"
   xmlns:svg="http://www.w3.org/2000/svg"
   xmlns="http://www.w3.org/2000/svg"
   xmlns:sodipodi="http://sodipodi.sourceforge.net/DTD/sodipodi-0.dtd"
   xmlns:inkscape="http://www.inkscape.org/namespaces/inkscape"
   viewBox="0 0 128 128"
   id="svg2"
   version="1.1"
   inkscape:version="0.91 r"
   sodipodi:docname="soundcloud.svg"
   width="128"
   height="128">
  <metadata
     id="metadata21">
    <rdf:RDF>
      <cc:Work
         rdf:about="">
        <dc:format>image/svg+xml</dc:format>
        <dc:type
           rdf:resource="http://purl.org/dc/dcmitype/StillImage" />
        <dc:title />
      </cc:Work>
    </rdf:RDF>
  </metadata>
  <sodipodi:namedview
     pagecolor="#ffffff"
     bordercolor="#666666"
     borderopacity="1"
     objecttolerance="10"
     gridtolerance="10"
     guidetolerance="10"
     inkscape:pageopacity="0"
     inkscape:pageshadow="2"
     inkscape:window-width="1366"
     inkscape:window-height="744"
     id="namedview19"
     showgrid="false"
     inkscape:zoom="2.4583333"
     inkscape:cx="70.131441"
     inkscape:cy="35.20129"
     inkscape:window-x="0"
     inkscape:window-y="24"
     inkscape:window-maximized="1"
     inkscape:current-layer="svg2" />
  <defs
     id="defs4">
    <clipPath
       id="clipPath6">
      <path
         transform="matrix(15.33333,0,0,11.5,415,-125.5)"
         d="m -24,13 c 0,1.105 -0.672,2 -1.5,2 -0.828,0 -1.5,-0.895 -1.5,-2 0,-1.105 0.672,-2 1.5,-2 0.828,0 1.5,0.895 1.5,2"
         id="path8"
         inkscape:connector-curvature="0"
         style="fill:#1890d0" />
    </clipPath>
    <linearGradient
       id="0"
       gradientUnits="userSpaceOnUse"
       x1="24.610001"
       y1="47.592999"
       x2="23.593"
       y2="-0.20299999"
       gradientTransform="matrix(2.3559322,0,0,2.3559322,8.1355933,7.5932205)">
      <stop
         stop-color="#ff433a"
         id="stop11" />
      <stop
         stop-color="#ff9436"
         offset="1"
         id="stop13" />
    </linearGradient>
  </defs>
  <rect
     height="113.08475"
     width="113.08475"
     rx="15.025"
     id="rect15"
     x="8.1355934"
     y="7.5932212"
     style="fill:url(#0);fill-rule:evenodd" />
  <path
     d="m 20.928306,67.949847 c -0.186119,0 -0.334543,0.143711 -0.358102,0.351034 l -0.654949,4.973373 0.654949,4.886203 c 0.0023,0.204966 0.171983,0.348678 0.358102,0.348678 0.181407,0 0.327475,-0.141356 0.358101,-0.348678 l 0.775102,-4.888559 -0.775102,-4.973373 c -0.02827,-0.204967 -0.176694,-0.348678 -0.358101,-0.348678 m 3.682322,-2.71639 c -0.03063,-0.21439 -0.183763,-0.360458 -0.372237,-0.360458 -0.188475,0 -0.346322,0.153136 -0.372238,0.360458 0,2.35e-4 -0.881118,8.040797 -0.881118,8.040797 l 0.881118,7.861745 c 0.02591,0.212034 0.181407,0.362814 0.372238,0.362814 0.188474,0 0.34161,-0.148424 0.372237,-0.360458 l 1.001271,-7.864101 z m 13.867017,-7.416474 c -0.360458,0 -0.659661,0.294491 -0.676153,0.67144 l -0.702067,14.792899 0.702067,9.560373 c 0.01885,0.374593 0.315695,0.669084 0.676153,0.669084 0.358102,0 0.657305,-0.294491 0.678508,-0.669084 l 0,2.35e-4 0.791594,-9.560373 -0.791594,-14.792899 c -0.02121,-0.374592 -0.31805,-0.67144 -0.678508,-0.67144 m -7.178526,5.140645 c -0.278,0 -0.504169,0.221457 -0.525372,0.515948 l -0.789238,9.800678 0.789238,9.470847 c 0.02121,0.294493 0.247372,0.51595 0.525372,0.51595 0.273288,0 0.501814,-0.221457 0.525373,-0.51595 l 0.897611,-9.470847 -0.897611,-9.803034 c -0.0023,-0.294491 -0.249729,-0.515948 -0.525373,-0.515948 m 14.472492,20.54844 c 0.447627,0 0.812796,-0.360458 0.829288,-0.82222 l 0.687932,-9.397814 -0.685576,-19.693237 c -0.01885,-0.461763 -0.381661,-0.822221 -0.829288,-0.822221 -0.452339,0 -0.817508,0.362814 -0.831644,0.824577 0,0 -0.610186,19.690881 -0.610186,19.690881 l 0.610186,9.402526 c 0.01413,0.459406 0.379305,0.819864 0.829288,0.819864 z m 14.931898,0.04476 c 0.617254,0 1.12378,-0.506525 1.13556,-1.130847 l 0,0.0071 0,-0.0071 0.48061,-9.129238 -0.48061,-22.74417 c -0.01178,-0.621966 -0.520662,-1.130847 -1.13556,-1.130847 -0.617254,0 -1.126135,0.506525 -1.135559,1.133203 L 59.13917,73.28391 c 0,0.01413 0.42878,9.143373 0.42878,9.143373 0.0094,0.617255 0.520661,1.126136 1.135559,1.126136 m -7.522491,-0.03534 c 0.537152,0 0.968288,-0.431136 0.982423,-0.980069 l 0,0.0071 0.584272,-9.256459 -0.584272,-19.836949 c -0.01413,-0.548932 -0.447626,-0.977711 -0.982423,-0.977711 -0.539509,0 -0.973,0.428779 -0.98478,0.977711 l -0.518306,19.836915 0.520662,9.254102 c 0.01178,0.541864 0.442915,0.973 0.98478,0.973 m -18.305593,-0.08717 c 0.31805,0 0.577203,-0.25444 0.600762,-0.591339 l 0.84578,-9.560373 -0.84578,-9.096254 c -0.0023,-0.336899 -0.280356,-0.588983 -0.600762,-0.588983 -0.322763,0 -0.581916,0.25444 -0.600763,0.593694 l -0.744475,9.091543 0.744475,9.560373 c 0.02121,0.336899 0.278,0.591339 0.600763,0.591339 m -7.114916,-0.523017 c 0.233238,0 0.421712,-0.183763 0.447627,-0.438204 l 0.949441,-9.192847 -0.949441,-9.539169 c -0.02828,-0.254441 -0.216745,-0.438203 -0.449983,-0.438203 -0.235593,0 -0.424068,0.183762 -0.447627,0.438203 0,0 -0.836356,9.539169 -0.836356,9.539169 l 0.836356,9.190491 c 0.0023,0.254441 0.212034,0.44056 0.447627,0.44056 M 56.934018,53.119489 c -0.581915,0 -1.04839,0.464119 -1.06017,1.055458 l -0.473542,19.111322 0.473542,9.19756 c 0.01178,0.58427 0.478255,1.048389 1.06017,1.048389 0.581914,0 1.046033,-0.461763 1.060169,-1.055457 l 0,0.0071 0.532441,-9.19756 -0.532441,-19.116034 c -0.01413,-0.591338 -0.478255,-1.053101 -1.060169,-1.053101 M 42.11756,83.522829 c 0.402865,0 0.735051,-0.327475 0.753899,-0.74683 l 0.739762,-9.494408 -0.739762,-18.176016 c -0.02121,-0.419356 -0.351034,-0.746831 -0.753899,-0.746831 -0.40522,0 -0.737407,0.327475 -0.753898,0.746831 0,0 -0.654949,18.176016 -0.654949,18.176016 l 0.654949,9.494408 c 0.01649,0.414644 0.348678,0.742119 0.753898,0.742119 m 8.257543,-0.895255 0,-0.0047 0.636101,-9.338916 -0.636101,-20.35761 c -0.01413,-0.506525 -0.414644,-0.902322 -0.907034,-0.902322 -0.494746,0 -0.892899,0.395797 -0.907034,0.902322 l -0.563068,20.355254 0.565424,9.343628 c 0.01413,0.501813 0.412288,0.895254 0.907034,0.895254 0.49239,0 0.890542,-0.395797 0.907034,-0.899966 z m 48.061016,-21.07856 c -1.507796,0 -2.947271,0.306271 -4.259525,0.855204 -0.876407,-9.925543 -9.197559,-17.709543 -19.349271,-17.709543 -2.483153,0 -4.905051,0.490034 -7.044238,1.316966 -0.831644,0.320406 -1.053101,0.652593 -1.060169,1.295762 l 0,34.950255 c 0.0094,0.673797 0.532441,1.234508 1.189746,1.30283 0.02827,2.36e-4 30.327915,0.01885 30.523457,0.01885 6.080661,0 11.011631,-4.930966 11.011631,-11.011627 0,-6.083017 -4.92862,-11.013984 -11.011631,-11.013984 M 64.470645,47.272066 c -0.662017,0 -1.203882,0.541864 -1.213305,1.210948 l -0.497102,24.805611 0.497102,9.002017 c 0.0094,0.657305 0.551288,1.199169 1.213305,1.199169 0.659661,0 1.201525,-0.541864 1.213305,-1.208593 l 0,0.01178 0.539509,-9.004373 -0.539509,-24.807967 c -0.0094,-0.664372 -0.553644,-1.208592 -1.213305,-1.208592"
     id="path17"
     inkscape:connector-curvature="0"
     style="fill:#ffe8e1" />
</svg>
