<?xml version="1.0" encoding="UTF-8" standalone="no"?>
<svg
   xmlns:dc="http://purl.org/dc/elements/1.1/"
   xmlns:cc="http://creativecommons.org/ns#"
   xmlns:rdf="http://www.w3.org/1999/02/22-rdf-syntax-ns#"
   xmlns:svg="http://www.w3.org/2000/svg"
   xmlns="http://www.w3.org/2000/svg"
   xmlns:xlink="http://www.w3.org/1999/xlink"
   xmlns:sodipodi="http://sodipodi.sourceforge.net/DTD/sodipodi-0.dtd"
   xmlns:inkscape="http://www.inkscape.org/namespaces/inkscape"
   viewBox="0 0 129 128"
   id="svg2"
   version="1.1"
   inkscape:version="0.91 r"
   sodipodi:docname="stellarium.svg"
   width="129"
   height="128">
  <metadata
     id="metadata24">
    <rdf:RDF>
      <cc:Work
         rdf:about="">
        <dc:format>image/svg+xml</dc:format>
        <dc:type
           rdf:resource="http://purl.org/dc/dcmitype/StillImage" />
        <dc:title></dc:title>
      </cc:Work>
    </rdf:RDF>
  </metadata>
  <sodipodi:namedview
     pagecolor="#ffffff"
     bordercolor="#666666"
     borderopacity="1"
     objecttolerance="10"
     gridtolerance="10"
     guidetolerance="10"
     inkscape:pageopacity="0"
     inkscape:pageshadow="2"
     inkscape:window-width="1366"
     inkscape:window-height="744"
     id="namedview22"
     showgrid="false"
     inkscape:zoom="2.4583333"
     inkscape:cx="128.00756"
     inkscape:cy="37.087842"
     inkscape:window-x="0"
     inkscape:window-y="24"
     inkscape:window-maximized="1"
     inkscape:current-layer="g3651" />
  <defs
     id="defs4">
    <linearGradient
       id="0"
       gradientUnits="userSpaceOnUse"
       x1="3.1470001"
       x2="18.771999">
      <stop
         stop-color="#e6f3ff"
         id="stop7" />
      <stop
         offset="1"
         stop-color="#dcffe7"
         id="stop9" />
    </linearGradient>
    <linearGradient
       id="1"
       x1="409.57001"
       y1="542.79999"
       x2="409.94"
       y2="501.23001"
       gradientUnits="userSpaceOnUse"
       gradientTransform="matrix(6.41335,0,0,6.2627,-2557.31,-3223.66)">
      <stop
         stop-color="#197cf1"
         id="stop12" />
      <stop
         offset="1"
         stop-color="#20bcfa"
         id="stop14" />
    </linearGradient>
    <linearGradient
       gradientUnits="userSpaceOnUse"
       y2="-27.875"
       x2="0"
       y1="22.12"
       id="0-0">
      <stop
         id="stop3357"
         stop-color="#f15f19" />
      <stop
         id="stop3359"
         stop-color="#fbb521"
         offset="1" />
    </linearGradient>
    <linearGradient
       gradientUnits="userSpaceOnUse"
       y2="-19.01"
       x2="66.58"
       y1="17.05"
       x1="66.957"
       id="1-7">
      <stop
         id="stop3362"
         stop-color="#e2e2e2" />
      <stop
         id="stop3364"
         stop-color="#fff"
         offset="1" />
    </linearGradient>
    <linearGradient
       y2="5.141"
       x2="0"
       y1="53.939"
       gradientUnits="userSpaceOnUse"
       id="0-6">
      <stop
         id="stop3409"
         stop-color="#5dae33" />
      <stop
         id="stop3411"
         stop-color="#9be058"
         offset="1" />
    </linearGradient>
    <linearGradient
       gradientUnits="userSpaceOnUse"
       y2="-11.08"
       x2="-22.23"
       y1="20.411"
       x1="-25.286"
       id="3">
      <stop
         id="stop3440"
         stop-color="#d3d3d3" />
      <stop
         id="stop3442"
         stop-color="#fcf9f9"
         offset="1" />
    </linearGradient>
    <linearGradient
       gradientUnits="userSpaceOnUse"
       y2="-10.81"
       x2="-10.279"
       y1="3.24"
       x1="-10.576"
       id="2">
      <stop
         id="stop3445"
         stop-color="#1764d6" />
      <stop
         id="stop3447"
         stop-color="#28c0ff"
         offset="1" />
    </linearGradient>
    <linearGradient
       gradientUnits="userSpaceOnUse"
       y2="-20.22"
       x2="-16.896"
       y1="27.344"
       x1="-16.312"
       id="0-3">
      <stop
         id="stop3450"
         stop-color="#141414" />
      <stop
         id="stop3452"
         stop-color="#2d2d2f"
         offset="1" />
    </linearGradient>
    <linearGradient
       gradientUnits="userSpaceOnUse"
       y2="10.298"
       x2="-13.376"
       y1="20.14"
       x1="-13.05"
       id="1-5">
      <stop
         id="stop3455"
         stop-color="#ff9300" />
      <stop
         id="stop3457"
         stop-color="#ffd702"
         offset="1" />
    </linearGradient>
    <linearGradient
       gradientUnits="userSpaceOnUse"
       y2="-7.344"
       x2="0"
       y1="19.371"
       id="3-7">
      <stop
         id="stop7-6"
         stop-color="#bfc1c1" />
      <stop
         id="stop9-9"
         stop-color="#f1f2f3"
         offset="1" />
    </linearGradient>
    <linearGradient
       gradientTransform="matrix(-0.55046,0,0,-0.55168,244.17,292.89)"
       gradientUnits="userSpaceOnUse"
       y2="533.2"
       x2="409.27"
       y1="506.48"
       x1="408.52"
       id="2-9">
      <stop
         id="stop12-6"
         stop-color="#222c35" />
      <stop
         id="stop14-2"
         stop-color="#545e67"
         offset="1" />
    </linearGradient>
    <linearGradient
       gradientTransform="matrix(.4325 0 0 .43346-157.44-219.19)"
       gradientUnits="userSpaceOnUse"
       y2="531"
       x2="419.77"
       y1="509.53"
       x1="398.3"
       id="0-2">
      <stop
         id="stop17"
         stop-color="#18222a" />
      <stop
         id="stop19"
         stop-color="#566069"
         offset="1" />
    </linearGradient>
    <linearGradient
       gradientUnits="userSpaceOnUse"
       y2="509.98"
       x2="407.51"
       y1="529.56"
       x1="407.38"
       id="1-2"
       gradientTransform="matrix(0.55046,0,0,0.55168,-205.63,-280.64)">
      <stop
         id="stop22"
         stop-color="#08f" />
      <stop
         id="stop24"
         stop-color="#02c3ff"
         offset="1" />
    </linearGradient>
    <linearGradient
       id="0-62"
       x1="-48.953"
       y1="-5.178"
       x2="-49.554"
       y2="-30.891"
       gradientUnits="userSpaceOnUse">
      <stop
         id="stop3572"
         stop-color="#566069" />
      <stop
         id="stop3574"
         stop-color="#6c7884"
         offset="1" />
    </linearGradient>
    <linearGradient
       id="1-8"
       x1="43.691"
       y1="15.429"
       x2="42.36"
       y2="-4.937"
       gradientUnits="userSpaceOnUse">
      <stop
         id="stop3577"
         stop-color="#d5dbff" />
      <stop
         id="stop3579"
         stop-color="#f9ffff"
         offset="1" />
    </linearGradient>
    <linearGradient
       id="2-7"
       x1="-56.27"
       y1="3.509"
       x2="-56.38"
       y2="-26.783"
       gradientUnits="userSpaceOnUse">
      <stop
         id="stop3582"
         stop-color="#ff9300" />
      <stop
         id="stop3584"
         stop-color="#ffd702"
         offset="1" />
    </linearGradient>
    <linearGradient
       gradientUnits="userSpaceOnUse"
       y2="500.74"
       x2="422.41"
       y1="544.89"
       x1="422.75"
       id="4"
       xlink:href="#1-0" />
    <linearGradient
       y2="506.42"
       x2="0"
       y1="544.86"
       gradientUnits="userSpaceOnUse"
       id="5"
       xlink:href="#0-4" />
    <linearGradient
       y2="506.42"
       x2="0"
       y1="544.86"
       gradientUnits="userSpaceOnUse"
       id="3-6"
       xlink:href="#0-4" />
    <linearGradient
       id="1-0">
      <stop
         id="stop3641"
         stop-color="#178b6f" />
      <stop
         id="stop3643"
         stop-color="#489acf"
         offset="1" />
    </linearGradient>
    <linearGradient
       id="0-4">
      <stop
         id="stop3646"
         stop-color="#178b6f" />
      <stop
         id="stop3648"
         stop-color="#3ec9d3"
         offset="1" />
    </linearGradient>
    <linearGradient
       gradientUnits="userSpaceOnUse"
       y2="498.77"
       x2="0"
       y1="544.31"
       id="2-4"
       xlink:href="#1-0" />
    <linearGradient
       id="0-9"
       x1="-123.97"
       y1="73.5"
       x2="-125.19"
       y2="-26.05"
       gradientUnits="userSpaceOnUse"
       gradientTransform="matrix(0.49433,0,0,0.4778,99.25,50.12)">
      <stop
         id="stop3679"
         stop-color="#132e51" />
      <stop
         id="stop3681"
         stop-color="#2763b9"
         offset="1" />
    </linearGradient>
    <linearGradient
       id="linearGradient3683"
       gradientUnits="userSpaceOnUse"
       y2="517.8"
       x2="0"
       y1="545.8">
      <stop
         id="stop3685"
         stop-color="#3889e9" />
      <stop
         id="stop3687"
         stop-color="#5ea5fb"
         offset="1" />
    </linearGradient>
  </defs>
  <g
     id="g3651"
     transform="matrix(1.06887,0,0,1.06887,297.1119,79.321805)">
    <g
       id="g3738"
       transform="matrix(2.1643861,0,0,2.1643861,-269.59417,-65.966981)">
      <g
         id="g3689"
         style="fill-rule:evenodd">
        <path
           style="fill:url(#0-9)"
           id="path3691"
           transform="translate(-12.61,-37.02)"
           d="m 15.592,37.02 42.04,0 c 1.652,0 2.982,1.33 2.982,2.982 l 0,42.04 c 0,1.652 -1.33,2.982 -2.982,2.982 l -42.04,0 c -1.652,0 -2.982,-1.33 -2.982,-2.982 l 0,-42.04 c 0,-1.652 1.33,-2.982 2.982,-2.982"
           inkscape:connector-curvature="0" />
        <g
           id="g3693"
           style="fill:#cfd9e7">
          <path
             id="path3695"
             d="M 18.805,37.429 C 32.71,37.506 38.965,42.345 44.005,48 L 21.534,48 C 18.915,47.96 18.81,46.087 18.81,46.087"
             inkscape:connector-curvature="0" />
          <path
             id="path3697"
             d="M 48,39.783 C 37.19,39.843 32.326,43.605 28.414,48 l 16.668,0 C 47.868,47.981 48,45.213 48,45.213"
             inkscape:connector-curvature="0" />
          <path
             id="path3699"
             d="m 0,32.899 c 14.864,0.111 25.829,7.02 31.21,15.1 l -28.3,0 C 0.111,47.941 -0.002,45.266 -0.002,45.266"
             inkscape:connector-curvature="0" />
        </g>
      </g>
      <g
         id="g3701"
         transform="matrix(-0.35714,0,0,0.35714,287.57,-54.58)"
         style="fill:#ffffff">
        <path
           id="path3703"
           transform="matrix(-0.15344,0,0,0.15344,791.5,173.11)"
           d="M 153.7,292.14 C 68.95,292.14 0,223.187 0,138.44 0,79.743 32.675,27 85.28,0.81 c 2.369,-1.174 5.215,-0.718 7.08,1.144 1.864,1.864 2.345,4.711 1.183,7.07 -9.599,19.502 -14.463,40.471 -14.463,62.3 0,77.972 63.43,141.41 141.4,141.41 22.08,0 43.25,-4.978 62.942,-14.777 2.366,-1.177 5.213,-0.721 7.07,1.141 1.873,1.867 2.342,4.714 1.177,7.07 -26.06,53.02 -78.927,85.964 -137.97,85.964"
           inkscape:connector-curvature="0"
           style="fill-opacity:0.78500001" />
        <g
           id="g3705"
           transform="matrix(-1.57949,0,0,1.57949,715.43,182.36)"
           style="fill-opacity:0.84600004">
          <path
             id="1-4"
             d="M 6.977,4.988 9.263,5.75 10.477,8.988 11.69,5.75 13.977,4.988 11.691,4.226 10.477,0.988 9.263,4.226 Z"
             inkscape:connector-curvature="0"
             style="fill:#ffffff;fill-opacity:0.84600004" />
          <path
             id="2-47"
             d="m 17.977,12.988 -2.286,-0.762 -1.214,-3.238 -1.214,3.238 -2.286,0.762 2.286,0.762 1.214,3.238 1.214,-3.238 z"
             inkscape:connector-curvature="0"
             style="fill:#ffffff;fill-opacity:0.84600004" />
          <path
             id="3-2"
             d="M 20.344,7.559 21.977,6.988 20.344,6.417 19.477,3.988 18.61,6.417 16.977,6.988 18.61,7.559 19.477,9.988 Z"
             inkscape:connector-curvature="0"
             style="fill:#ffffff;fill-opacity:0.84600004" />
        </g>
        <g
           id="g3710"
           style="fill-opacity:0.84600004">
          <g
             id="g3712"
             transform="matrix(-1.57949,0,0,1.57949,745.48,165.39)">
            <path
               id="path3714"
               d="M 10.477,0.988 9.263,4.226 6.977,4.988 9.263,5.75 10.477,8.988 11.69,5.75 13.977,4.988 11.691,4.226 Z"
               inkscape:connector-curvature="0" />
            <path
               id="path3716"
               d="m 14.477,16.988 1.214,-3.238 2.286,-0.762 -2.286,-0.762 -1.214,-3.238 -1.214,3.238 -2.286,0.762 2.286,0.762 z"
               inkscape:connector-curvature="0" />
            <path
               id="path3718"
               d="M 18.61,7.559 19.477,9.988 20.344,7.559 21.977,6.988 20.344,6.417 19.477,3.988 18.61,6.417 16.977,6.988 Z"
               inkscape:connector-curvature="0" />
          </g>
          <g
             id="g3720"
             transform="matrix(1.57949,0,0,1.57949,694.05,201.27)">
            <use
               id="use3722"
               xlink:href="#1-4"
               x="0"
               y="0"
               width="100%"
               height="100%" />
            <use
               id="use3724"
               xlink:href="#2-47"
               x="0"
               y="0"
               width="100%"
               height="100%" />
            <use
               id="use3726"
               xlink:href="#3-2"
               x="0"
               y="0"
               width="100%"
               height="100%" />
          </g>
        </g>
      </g>
    </g>
  </g>
</svg>
