<?xml version="1.0" encoding="UTF-8" standalone="no"?>
<svg
   xmlns:dc="http://purl.org/dc/elements/1.1/"
   xmlns:cc="http://creativecommons.org/ns#"
   xmlns:rdf="http://www.w3.org/1999/02/22-rdf-syntax-ns#"
   xmlns:svg="http://www.w3.org/2000/svg"
   xmlns="http://www.w3.org/2000/svg"
   xmlns:xlink="http://www.w3.org/1999/xlink"
   xmlns:sodipodi="http://sodipodi.sourceforge.net/DTD/sodipodi-0.dtd"
   xmlns:inkscape="http://www.inkscape.org/namespaces/inkscape"
   viewBox="0 0 128 128"
   id="svg2"
   version="1.1"
   inkscape:version="0.91 r"
   sodipodi:docname="thunderbird.svg"
   width="128"
   height="128">
  <metadata
     id="metadata37">
    <rdf:RDF>
      <cc:Work
         rdf:about="">
        <dc:format>image/svg+xml</dc:format>
        <dc:type
           rdf:resource="http://purl.org/dc/dcmitype/StillImage" />
        <dc:title></dc:title>
      </cc:Work>
    </rdf:RDF>
  </metadata>
  <sodipodi:namedview
     pagecolor="#ffffff"
     bordercolor="#666666"
     borderopacity="1"
     objecttolerance="10"
     gridtolerance="10"
     guidetolerance="10"
     inkscape:pageopacity="0"
     inkscape:pageshadow="2"
     inkscape:window-width="1366"
     inkscape:window-height="744"
     id="namedview35"
     showgrid="false"
     inkscape:zoom="1.7383042"
     inkscape:cx="150.14949"
     inkscape:cy="-5.2208962"
     inkscape:window-x="0"
     inkscape:window-y="24"
     inkscape:window-maximized="1"
     inkscape:current-layer="svg2" />
  <defs
     id="defs4">
    <linearGradient
       id="0">
      <stop
         stop-color="#124da4"
         id="stop7" />
      <stop
         offset="1"
         stop-color="#2896ff"
         id="stop9" />
    </linearGradient>
    <linearGradient
       xlink:href="#0"
       id="1"
       x1="317.89999"
       y1="569.02002"
       x2="317.98001"
       y2="473.20001"
       gradientUnits="userSpaceOnUse" />
    <linearGradient
       xlink:href="#0"
       id="2"
       x1="205.03"
       y1="573.23999"
       x2="204.7"
       y2="473.57999"
       gradientUnits="userSpaceOnUse" />
  </defs>
  <g
     transform="matrix(1.1291205,0,0,1.1291205,-167.6002,-525.23805)"
     id="g13">
    <g
       transform="matrix(1.0105,0,0,1.0105,-2.49,-5.618)"
       id="g15">
      <path
         d="m 317.89,471.99 c -27.16,0 -49.18,22.02 -49.18,49.18 0,27.16 22.02,49.18 49.18,49.18 27.16,0 49.18,-22.02 49.18,-49.18 0,-27.16 -22.02,-49.18 -49.18,-49.18"
         transform="translate(-111.71,1.997)"
         id="path17"
         inkscape:connector-curvature="0"
         style="color:#000000;fill:url(#1)" />
      <g
         transform="matrix(0.75147,-0.23143,0.23143,0.75147,71.74,462.4)"
         id="g19"
         style="fill-rule:evenodd">
        <path
           d="m 196.12,154.9 c 7.198,-20.298 7.779,-41.2 -17.641,-56.11 l 4.317,-3.19 c -33.407,-13.9 -50.552,-6.02 -60.17,9.209 l 5.185,-1.514 c 1.562,20.79 14.901,19.71 22.709,28.902 43.892,-14.307 39.511,8.194 45.605,22.709"
           id="path21"
           inkscape:connector-curvature="0"
           style="fill:#f1f1f1" />
        <path
           d="m 167.07,177.77 c 8.641,-2.653 22.366,-12.91 27.05,-27.05 0,0 0.927,0.564 1.815,4.556 7.521,-14.858 2.477,-26.25 -4.317,-37.16 -0.071,4.666 -3.941,6.756 -3.941,6.756 -5.01,-7.951 -12.58,-12.513 -21.488,-15.313 -11.407,-3.587 -30.632,8.1 -38.19,-5.518 1.189,11.766 6.298,18.567 13.325,19.33 10.954,15.719 36.456,24.24 25.751,54.4"
           id="path23"
           inkscape:connector-curvature="0"
           style="fill:#dedede" />
        <path
           d="m 124.85,181.31 c 27.86,9.665 66.27,-5.834 53.817,-42.36 -0.842,2.036 -4.504,4.129 -4.504,4.129 -14.14,-24.21 -34.683,-21.706 -54.613,-21.77 22.761,-0.355 30.356,37.04 5.301,59.997"
           id="path25"
           inkscape:connector-curvature="0"
           style="fill:#c1c1c1" />
        <path
           d="m 116.22,178.49 c 19.418,11.243 37.622,-5.289 41.927,-27.984 0,0 -4.263,4.02 -7.01,4.193 10.584,-27.769 -18.534,-34.05 -32.2,-32.475 26.757,9.961 28.85,40.995 -2.716,56.27"
           id="path27"
           inkscape:connector-curvature="0"
           style="fill:#999999" />
        <path
           d="m 105.47,135.01 c 4.911,-8.397 13.753,-13.694 31.03,-13.449 -5.117,-4.987 -7.896,-10.783 -8.509,-18.456 -21.688,2.823 -23.463,17.275 -22.521,31.905"
           id="path29"
           inkscape:connector-curvature="0"
           style="fill:#dedede" />
        <path
           d="m 148.7,110.36 c 0.424,12.609 16.17,6.077 13.761,-1.562 -4.295,0.131 -8.506,0.15 -13.761,1.562"
           id="path31"
           inkscape:connector-curvature="0"
           style="fill:#999999" />
      </g>
    </g>
    <path
       d="m 205.36,472.43 c -27.446,0 -49.695,22.249 -49.695,49.695 0,27.446 22.249,49.695 49.695,49.695 27.446,0 49.695,-22.249 49.695,-49.695 0,-27.446 -22.249,-49.695 -49.695,-49.695 z"
       id="path33"
       inkscape:connector-curvature="0"
       style="color:#000000;fill:none;stroke:url(#2);stroke-width:3.24099994" />
  </g>
</svg>
