<?xml version="1.0" encoding="UTF-8" standalone="no"?>
<!-- Created with Inkscape (http://www.inkscape.org/) -->

<svg
   xmlns:dc="http://purl.org/dc/elements/1.1/"
   xmlns:cc="http://creativecommons.org/ns#"
   xmlns:rdf="http://www.w3.org/1999/02/22-rdf-syntax-ns#"
   xmlns:svg="http://www.w3.org/2000/svg"
   xmlns="http://www.w3.org/2000/svg"
   xmlns:xlink="http://www.w3.org/1999/xlink"
   xmlns:sodipodi="http://sodipodi.sourceforge.net/DTD/sodipodi-0.dtd"
   xmlns:inkscape="http://www.inkscape.org/namespaces/inkscape"
   id="svg2"
   version="1.1"
   inkscape:version="0.91 r"
   width="512"
   height="512"
   sodipodi:docname="timekpr.svg">
  <metadata
     id="metadata8">
    <rdf:RDF>
      <cc:Work
         rdf:about="">
        <dc:format>image/svg+xml</dc:format>
        <dc:type
           rdf:resource="http://purl.org/dc/dcmitype/StillImage" />
        <dc:title />
      </cc:Work>
    </rdf:RDF>
  </metadata>
  <defs
     id="defs6">
    <linearGradient
       inkscape:collect="always"
       id="linearGradient4209">
      <stop
         style="stop-color:#fce94f;stop-opacity:1"
         offset="0"
         id="stop4211" />
      <stop
         id="stop4219"
         offset="0.19301008"
         style="stop-color:#edd400;stop-opacity:1" />
      <stop
         id="stop4217"
         offset="0.99598557"
         style="stop-color:#c4a000;stop-opacity:1" />
      <stop
         style="stop-color:#f1c40f;stop-opacity:0;"
         offset="1"
         id="stop4213" />
    </linearGradient>
    <clipPath
       id="1">
      <path
         transform="matrix(15.33333 0 0 11.5 415-125.5)"
         d="m-24 13c0 1.105-.672 2-1.5 2-.828 0-1.5-.895-1.5-2 0-1.105.672-2 1.5-2 .828 0 1.5.895 1.5 2"
         fill="#1890d0"
         id="path3368" />
    </clipPath>
    <clipPath
       id="clipPath3370">
      <path
         transform="matrix(15.33333 0 0 11.5 415-125.5)"
         d="m-24 13c0 1.105-.672 2-1.5 2-.828 0-1.5-.895-1.5-2 0-1.105.672-2 1.5-2 .828 0 1.5.895 1.5 2"
         fill="#1890d0"
         id="path3372" />
    </clipPath>
    <linearGradient
       id="0"
       x1="-10.767"
       y1="4.675"
       x2="-11.233"
       y2="-22.851"
       gradientUnits="userSpaceOnUse"
       gradientTransform="matrix(1.77384,0,0,1.71427,42.46,39.38)">
      <stop
         stop-color="#c52828"
         id="stop3375" />
      <stop
         stop-color="#ff5454"
         offset="1"
         id="stop3377" />
    </linearGradient>
    <linearGradient
       inkscape:collect="always"
       xlink:href="#linearGradient4209"
       id="linearGradient4215"
       x1="-62.316227"
       y1="-198.31815"
       x2="471.95331"
       y2="-503.59653"
       gradientUnits="userSpaceOnUse"
       gradientTransform="translate(0,15.340621)" />
  </defs>
  <sodipodi:namedview
     pagecolor="#ffffff"
     bordercolor="#666666"
     borderopacity="1"
     objecttolerance="10"
     gridtolerance="10"
     guidetolerance="10"
     inkscape:pageopacity="0"
     inkscape:pageshadow="2"
     inkscape:window-width="1366"
     inkscape:window-height="744"
     id="namedview4"
     showgrid="false"
     inkscape:zoom="0.65186406"
     inkscape:cx="296.23931"
     inkscape:cy="200.84836"
     inkscape:window-x="0"
     inkscape:window-y="24"
     inkscape:window-maximized="1"
     inkscape:current-layer="svg2" />
  <path
     style="fill:#bdc3c7;fill-opacity:1;stroke:none"
     d="m 254.6753,23.973453 c -93.56482,0 -168.889377,70.012659 -168.889377,156.981967 l 0,308.14778 37.530937,0 0,-308.14778 c 0,-67.64343 58.58537,-122.097372 131.35837,-122.097372 72.77295,0 131.35832,54.453942 131.35832,122.097372 l 0,308.14778 37.53105,0 0,-308.14778 c 0,-86.969308 -75.32453,-156.981967 -168.88937,-156.981967 z"
     id="rect4122"
     inkscape:connector-curvature="0" />
  <rect
     style="fill:url(#linearGradient4215);fill-opacity:1;stroke:none"
     id="rect4118"
     width="425.35114"
     height="250.20647"
     x="42"
     y="-489.10016"
     transform="scale(1,-1)" />
  <circle
     style="fill:#ffffff;fill-opacity:1;fill-rule:evenodd;stroke:none"
     id="path3003"
     cx="255.17453"
     cy="368.61865"
     r="104.23423" />
  <path
     inkscape:connector-curvature="0"
     id="path2984"
     d="m 249.43064,383.05487 c -5.61764,-2.55205 -8.22432,-7.7475 -7.22627,-14.40291 0.36951,-2.46408 1.08157,-3.67726 3.75378,-6.39559 l 3.29777,-3.35467 0.0902,-35.54088 0.0902,-35.54086 1.58198,-1.68464 c 0.87008,-0.92654 2.11166,-1.85275 2.75908,-2.05823 1.44717,-0.45932 4.8779,1.23274 5.43314,2.67966 0.22444,0.58488 0.40807,16.98735 0.40807,36.44996 l 0,35.38654 2.19699,1.67573 2.19701,1.67573 29.56649,0 29.56649,0 2.17173,1.47808 c 3.39954,2.3137 4.92023,4.80086 4.92023,8.04726 0,3.59557 -1.72542,6.06903 -5.62214,8.05955 -2.90494,1.4839 -3.04153,1.49017 -31.66065,1.45196 l -28.74312,-0.0384 -2.84692,1.66841 c -3.45943,2.02736 -8.07007,2.19862 -11.93401,0.44326 z"
     style="fill:#3b383a" />
</svg>
