<?xml version="1.0" encoding="UTF-8" standalone="no"?>
<svg
   xmlns:dc="http://purl.org/dc/elements/1.1/"
   xmlns:cc="http://creativecommons.org/ns#"
   xmlns:rdf="http://www.w3.org/1999/02/22-rdf-syntax-ns#"
   xmlns:svg="http://www.w3.org/2000/svg"
   xmlns="http://www.w3.org/2000/svg"
   xmlns:sodipodi="http://sodipodi.sourceforge.net/DTD/sodipodi-0.dtd"
   xmlns:inkscape="http://www.inkscape.org/namespaces/inkscape"
   viewBox="0 0 128 128"
   id="svg2"
   version="1.1"
   inkscape:version="0.91 r"
   sodipodi:docname="unity-mail.svg"
   width="128"
   height="128">
  <metadata
     id="metadata33">
    <rdf:RDF>
      <cc:Work
         rdf:about="">
        <dc:format>image/svg+xml</dc:format>
        <dc:type
           rdf:resource="http://purl.org/dc/dcmitype/StillImage" />
        <dc:title />
      </cc:Work>
    </rdf:RDF>
  </metadata>
  <sodipodi:namedview
     pagecolor="#ffffff"
     bordercolor="#666666"
     borderopacity="1"
     objecttolerance="10"
     gridtolerance="10"
     guidetolerance="10"
     inkscape:pageopacity="0"
     inkscape:pageshadow="2"
     inkscape:window-width="1366"
     inkscape:window-height="744"
     id="namedview31"
     showgrid="false"
     inkscape:zoom="1.7383042"
     inkscape:cx="21.505011"
     inkscape:cy="47.831506"
     inkscape:window-x="0"
     inkscape:window-y="24"
     inkscape:window-maximized="1"
     inkscape:current-layer="svg2" />
  <defs
     id="defs4">
    <linearGradient
       id="0"
       x1="0.152"
       y1="18.836"
       x2="0.021"
       y2="7.2690001"
       gradientUnits="userSpaceOnUse"
       gradientTransform="matrix(4.234635,0,0,4.234635,43.608789,38.380907)">
      <stop
         stop-color="#535e66"
         id="stop7" />
      <stop
         offset="1"
         stop-color="#7d8b98"
         id="stop9" />
    </linearGradient>
    <linearGradient
       id="1"
       x1="5.71"
       y1="18.226999"
       x2="4.7509999"
       y2="-6.4439998"
       gradientUnits="userSpaceOnUse"
       gradientTransform="matrix(4.234635,0,0,4.234635,43.608789,38.380907)">
      <stop
         stop-color="#566069"
         id="stop12" />
      <stop
         offset="1"
         stop-color="#6c7884"
         id="stop14" />
    </linearGradient>
    <linearGradient
       id="2"
       x1="4.1989999"
       y1="12.926"
       x2="4.0650001"
       y2="-6.9980001"
       gradientUnits="userSpaceOnUse"
       gradientTransform="matrix(4.234635,0,0,4.234635,43.608789,38.380907)">
      <stop
         stop-color="#197cf1"
         id="stop17" />
      <stop
         offset="1"
         stop-color="#59d0ff"
         id="stop19" />
    </linearGradient>
    <inkscape:perspective
       id="perspective53"
       inkscape:persp3d-origin="64 : 42.666667 : 1"
       inkscape:vp_z="128 : 64 : 1"
       inkscape:vp_y="0 : 1000 : 0"
       inkscape:vp_x="0 : 64 : 1"
       sodipodi:type="inkscape:persp3d" />
    <inkscape:perspective
       sodipodi:type="inkscape:persp3d"
       inkscape:vp_x="0 : 64 : 1"
       inkscape:vp_y="0 : 1000 : 0"
       inkscape:vp_z="128 : 64 : 1"
       inkscape:persp3d-origin="64 : 42.666667 : 1"
       id="perspective53-5" />
    <clipPath
       id="clipPath6">
      <path
         style="fill:#1890d0"
         inkscape:connector-curvature="0"
         id="path8"
         d="m -24,13 c 0,1.105 -0.672,2 -1.5,2 -0.828,0 -1.5,-0.895 -1.5,-2 0,-1.105 0.672,-2 1.5,-2 0.828,0 1.5,0.895 1.5,2"
         transform="matrix(15.33333,0,0,11.5,415,-125.5)" />
    </clipPath>
    <linearGradient
       gradientTransform="matrix(2.3559322,0,0,2.3559322,8.1355933,7.5932205)"
       y2="-0.20299999"
       x2="23.593"
       y1="47.592999"
       x1="24.610001"
       gradientUnits="userSpaceOnUse"
       id="0-6">
      <stop
         id="stop11"
         stop-color="#ff433a" />
      <stop
         id="stop13"
         offset="1"
         stop-color="#ff9436" />
    </linearGradient>
    <clipPath
       id="clipPath6-0">
      <path
         d="m 69.63,12.145 -0.052,0 c -22.727,-0.292 -46.47,4.077 -46.709,4.122 -2.424,0.451 -4.946,2.974 -5.397,5.397 -0.044,0.237 -4.414,23.983 -4.122,46.71 -0.292,22.777 4.078,46.523 4.122,46.761 0.451,2.423 2.974,4.945 5.398,5.398 0.237,0.044 23.982,4.413 46.709,4.121 22.779,0.292 46.524,-4.077 46.761,-4.121 2.423,-0.452 4.946,-2.976 5.398,-5.399 0.044,-0.236 4.413,-23.981 4.121,-46.709 0.292,-22.777 -4.077,-46.523 -4.121,-46.761 -0.453,-2.423 -2.976,-4.946 -5.398,-5.397 -0.238,-0.045 -23.984,-4.414 -46.71,-4.122"
         id="path8-6"
         inkscape:connector-curvature="0" />
    </clipPath>
    <linearGradient
       id="0-0"
       gradientUnits="userSpaceOnUse"
       x1="18.6"
       y1="261.26001"
       x2="20.030001"
       y2="155.59">
      <stop
         stop-color="#d3d3d3"
         id="stop11-6" />
      <stop
         offset="1"
         stop-color="#fcf9f9"
         id="stop13-5" />
    </linearGradient>
    <linearGradient
       x2="459"
       x1="0"
       gradientUnits="userSpaceOnUse"
       id="linearGradient15">
      <stop
         stop-color="#e3203a"
         id="stop17-4" />
      <stop
         offset="1"
         stop-color="#fd5420"
         id="stop19-9" />
    </linearGradient>
    <linearGradient
       x1="0"
       x2="47"
       gradientUnits="userSpaceOnUse"
       id="linearGradient21">
      <stop
         stop-color="#a9a3d4"
         id="stop23" />
      <stop
         offset=".47"
         stop-color="#87baff"
         id="stop25" />
      <stop
         offset="1"
         stop-color="#89ec85"
         id="stop27" />
    </linearGradient>
  </defs>
  <path
     style="fill:url(#1)"
     inkscape:connector-curvature="0"
     id="path23"
     d="M 123.18605,46.532579 63.477696,10.190942 4.5993314,46.574926 107.41203,118.44515 l 7.44873,0 c 0,0 8.28294,-0.0593 8.30835,-7.70703 z" />
  <path
     style="fill:url(#2)"
     inkscape:connector-curvature="0"
     id="path25"
     d="m 25.433736,15.170873 77.574274,0 c 4.07796,0 7.3598,3.281842 7.3598,7.359795 l 0,33.051326 -48.414582,33.368924 -43.883523,-31.086455 0,-35.333795 c 0,-4.077953 3.281842,-7.359795 7.359796,-7.359795" />
  <path
     style="fill:url(#0)"
     inkscape:connector-curvature="0"
     id="path27"
     d="M 4.6162699,46.532579 107.92019,118.4028 l -94.995566,0 c 0,0 -8.2829463,-0.0593 -8.3083541,-7.70703 z" />
  <g
     style="overflow:visible;opacity:0.87999998;fill:#ffffff"
     id="g4226"
     transform="matrix(0.33370003,0,0,0.33370003,39.695781,25.737641)">
    <g
       transform="matrix(1.0190823,0,0,1.0190823,-0.19637881,-0.88301024)"
       id="g3431"
       style="overflow:visible;fill:#ffffff">
      <g
         id="g3345"
         style="fill:#ffffff;fill-opacity:1">
        <path
           inkscape:connector-curvature="0"
           id="path10"
           d="m 41.573888,21.938 c -8.268,6.368 -14.483,15.328 -17.502,25.23 -0.118,0.387 0.012,0.807 0.331,1.059 4.155,3.291 6.635,8.357 6.635,13.553 0,5.196 -2.481,10.264 -6.637,13.555 -0.317,0.251 -0.449,0.67 -0.331,1.058 2.995,9.819 9.14,18.728 17.306,25.082 0.219,0.171 0.499,0.241 0.773,0.193 0.273,-0.047 0.514,-0.208 0.663,-0.441 l 10.209,-16.022 c 0.261,-0.409 0.185,-0.947 -0.18,-1.268 -6.409,-5.639 -10.084,-13.715 -10.084,-22.156 0,-8.504 3.714,-16.616 10.19,-22.257 0.365,-0.319 0.445,-0.856 0.186,-1.267 l -10.125,-16.065 c -0.148,-0.234 -0.388,-0.396 -0.661,-0.444 -0.273,-0.048 -0.556,0.021 -0.773,0.19 z"
           style="fill:#ffffff;fill-opacity:1" />
        <ellipse
           id="ellipse14"
           ry="12.794"
           rx="12.803"
           cy="62.015999"
           cx="13.774888"
           style="fill:#ffffff;fill-opacity:1;fill-rule:evenodd" />
        <path
           inkscape:connector-curvature="0"
           id="path18"
           d="m 50.025888,16.696 c -0.25,0.124 -0.436,0.348 -0.511,0.616 -0.076,0.268 -0.034,0.555 0.114,0.791 l 10.122,16.059 c 0.257,0.408 0.772,0.57 1.217,0.383 3.754,-1.587 7.654,-2.392 11.59,-2.392 14.478,0 27.106996,10.734 29.376992,24.969 0.076,0.478 0.488,0.829 0.971,0.829 l 19.08,0.029 c 0.278,0 0.543,-0.117 0.73,-0.323 0.187,-0.206 0.277,-0.479 0.251,-0.757 -1.028,-10.562 -5.524,-20.75 -12.659,-28.685 -0.322,-0.36 -0.859,-0.432 -1.266,-0.169 -2.877,1.858 -6.145,2.842 -9.446996,2.842 -9.632996,0 -17.468996,-7.79 -17.469996,-17.364 0.001,-0.005 0.019,-0.366 0.019,-0.382 0,-0.477 -0.343,-0.888 -0.816,-0.97 -3.012,-0.522 -5.962,-0.888 -8.77,-0.888 -7.711,10e-4 -15.502,1.938 -22.532,5.412 z"
           style="fill:#ffffff;fill-opacity:1" />
        <ellipse
           id="ellipse22"
           ry="12.5"
           rx="12.51"
           cy="14"
           cx="98.971893"
           style="clip-rule:evenodd;fill:#ffffff;fill-opacity:1;fill-rule:evenodd" />
        <path
           inkscape:connector-curvature="0"
           id="path26"
           d="m 121.96588,65.733 -19.078,0.062 c -0.481,0.001 -0.892,0.352 -0.969,0.826 -2.300996,14.129 -14.922992,24.784 -29.360992,24.784 -3.982,0 -7.926,-0.824 -11.722,-2.45 -0.444,-0.189 -0.958,-0.03 -1.219,0.375 l -10.203,16.015 c -0.149,0.235 -0.192,0.522 -0.118,0.791 0.074,0.268 0.259,0.493 0.508,0.617 7.085,3.547 14.954,5.421 22.754,5.421 2.893,0 5.906,-0.273 8.955,-0.814 0.428,-0.075 0.756,-0.424 0.807,-0.855 1.016,-8.775 8.443,-15.393 17.274996,-15.393 2.737996,0 5.523996,0.698 8.055996,2.018 0.385,0.201 0.854,0.127 1.159,-0.184 7.985,-8.143 13.008,-18.842 14.14,-30.129 0.028,-0.277 -0.063,-0.553 -0.251,-0.76 -0.188,-0.207 -0.455,-0.325 -0.733,-0.324 z"
           style="fill:#ffffff;fill-opacity:1" />
        <ellipse
           id="ellipse28"
           ry="12.728"
           rx="12.803"
           cy="112.272"
           cx="99.457893"
           style="fill:#ffffff;fill-opacity:1;fill-rule:evenodd" />
      </g>
    </g>
  </g>
</svg>
