<?xml version="1.0" encoding="UTF-8" standalone="no"?>
<!-- Created with Inkscape (http://www.inkscape.org/) -->

<svg
   xmlns:dc="http://purl.org/dc/elements/1.1/"
   xmlns:cc="http://creativecommons.org/ns#"
   xmlns:rdf="http://www.w3.org/1999/02/22-rdf-syntax-ns#"
   xmlns:svg="http://www.w3.org/2000/svg"
   xmlns="http://www.w3.org/2000/svg"
   xmlns:xlink="http://www.w3.org/1999/xlink"
   xmlns:sodipodi="http://sodipodi.sourceforge.net/DTD/sodipodi-0.dtd"
   xmlns:inkscape="http://www.inkscape.org/namespaces/inkscape"
   id="svg2"
   version="1.1"
   inkscape:version="0.91 r"
   width="1024"
   height="1024"
   sodipodi:docname="viewnior.svg">
  <metadata
     id="metadata8">
    <rdf:RDF>
      <cc:Work
         rdf:about="">
        <dc:format>image/svg+xml</dc:format>
        <dc:type
           rdf:resource="http://purl.org/dc/dcmitype/StillImage" />
        <dc:title />
      </cc:Work>
    </rdf:RDF>
  </metadata>
  <defs
     id="defs6">
    <linearGradient
       gradientTransform="matrix(0.34234642,0,0,0.34234642,175.83595,-99.571961)"
       y2="301.29999"
       x2="0"
       y1="653.96002"
       gradientUnits="userSpaceOnUse"
       id="0">
      <stop
         offset="0"
         stop-color="#ff5454"
         id="stop9" />
      <stop
         stop-color="#c52828"
         id="stop7"
         offset="1"
         style="stop-color:#992828;stop-opacity:1" />
    </linearGradient>
    <linearGradient
       gradientTransform="matrix(0.34234642,0,0,0.34234642,175.83595,-99.571961)"
       y2="301.29999"
       x2="0"
       y1="653.96002"
       gradientUnits="userSpaceOnUse"
       id="0-2">
      <stop
         offset="0"
         stop-color="#ff5454"
         id="stop9-2"
         style="stop-color:#ff6b6b;stop-opacity:1" />
      <stop
         id="stop3400"
         stop-color="#c52828"
         offset="0.57465577"
         style="stop-color:#ff0000;stop-opacity:1" />
      <stop
         stop-color="#c52828"
         id="stop7-0"
         offset="1" />
    </linearGradient>
    <linearGradient
       inkscape:collect="always"
       xlink:href="#0-2"
       id="linearGradient4216"
       x1="141.13373"
       y1="160.32298"
       x2="975.66357"
       y2="982.58032"
       gradientUnits="userSpaceOnUse"
       gradientTransform="translate(6.1362488,0)" />
  </defs>
  <sodipodi:namedview
     pagecolor="#ffffff"
     bordercolor="#666666"
     borderopacity="1"
     objecttolerance="10"
     gridtolerance="10"
     guidetolerance="10"
     inkscape:pageopacity="0"
     inkscape:pageshadow="2"
     inkscape:window-width="1366"
     inkscape:window-height="744"
     id="namedview4"
     showgrid="false"
     inkscape:zoom="0.32593203"
     inkscape:cx="428.11864"
     inkscape:cy="530.36653"
     inkscape:window-x="0"
     inkscape:window-y="24"
     inkscape:window-maximized="1"
     inkscape:current-layer="svg2" />
  <circle
     style="opacity:1;fill:url(#linearGradient4216);fill-opacity:1;fill-rule:nonzero;stroke:none;stroke-width:2;stroke-miterlimit:4;stroke-dasharray:none;stroke-opacity:1"
     id="path4200"
     cx="513.91083"
     cy="513.15729"
     r="470.95709" />
  <path
     style="opacity:1;fill:#ffffff;fill-opacity:0.85792351;fill-rule:nonzero;stroke:none;stroke-width:2;stroke-miterlimit:4;stroke-dasharray:none;stroke-opacity:1"
     d="m 393.04621,831.93474 c -1.67599,-2.7584 -140.99316,-494.70771 -175.54788,-619.88528 -2.92406,-10.59265 -4.31677,-20.25724 -3.09492,-21.47687 2.97135,-2.96593 174.01524,-1.46039 176.81112,1.55631 1.20422,1.29934 25.18746,96.20227 53.29606,210.89539 28.10861,114.69313 51.72662,209.15301 52.48446,209.91083 0.75784,0.75786 1.80821,0.80262 2.33414,0.0994 0.7717,-1.03157 99.69655,-370.00902 110.36292,-411.63991 l 2.94785,-11.50546 88.94385,0 88.94385,0 -2.11995,11.30036 c -1.16598,6.21519 -24.10045,84.94245 -50.9655,174.94945 -26.86505,90.00701 -48.84555,164.30957 -48.84555,165.11679 0,0.80722 -5.70481,1.4677 -12.6774,1.4677 -12.07402,0 -33.34447,9.70797 -33.34447,15.21863 0,1.34513 -4.16992,4.1729 -9.2665,6.28398 -12.2231,5.06296 -23.77204,19.14433 -26.16561,31.90309 -1.20461,6.42113 -5.38137,12.82532 -11.1426,17.08476 -16.82516,12.43938 -21.90009,34.07109 -12.81752,54.63415 2.7711,6.2738 5.18725,19.93385 5.36922,30.35563 0.39407,22.57069 6.78807,33.23205 25.43708,42.41378 l 12.46331,6.13625 -12.83878,42.95374 -12.83876,42.95374 -103.15282,0.80759 c -56.73404,0.44417 -103.79306,-0.24606 -104.5756,-1.53406 z"
     id="path4198"
     inkscape:connector-curvature="0" />
</svg>
