<?xml version="1.0" encoding="UTF-8" standalone="no"?>
<!-- Created with Inkscape (http://www.inkscape.org/) -->

<svg
   xmlns:dc="http://purl.org/dc/elements/1.1/"
   xmlns:cc="http://creativecommons.org/ns#"
   xmlns:rdf="http://www.w3.org/1999/02/22-rdf-syntax-ns#"
   xmlns:svg="http://www.w3.org/2000/svg"
   xmlns="http://www.w3.org/2000/svg"
   xmlns:xlink="http://www.w3.org/1999/xlink"
   xmlns:sodipodi="http://sodipodi.sourceforge.net/DTD/sodipodi-0.dtd"
   xmlns:inkscape="http://www.inkscape.org/namespaces/inkscape"
   id="svg2"
   version="1.1"
   inkscape:version="0.91 r"
   width="512"
   height="512"
   sodipodi:docname="wine-notepad.svg">
  <metadata
     id="metadata8">
    <rdf:RDF>
      <cc:Work
         rdf:about="">
        <dc:format>image/svg+xml</dc:format>
        <dc:type
           rdf:resource="http://purl.org/dc/dcmitype/StillImage" />
        <dc:title />
      </cc:Work>
    </rdf:RDF>
  </metadata>
  <defs
     id="defs6">
    <linearGradient
       gradientTransform="matrix(0,-1,1,0,-1.5e-6,47.999998)"
       gradientUnits="userSpaceOnUse"
       x2="47"
       x1="1"
       id="linearGradient3764">
      <stop
         id="stop7"
         stop-opacity="1"
         stop-color="#e4e4e4" />
      <stop
         id="stop9"
         stop-opacity="1"
         stop-color="#eee"
         offset="1" />
    </linearGradient>
    <clipPath
       id="clipPath-365326813">
      <g
         id="g12"
         transform="translate(0,-1004.3622)">
        <path
           style="fill:#1890d0"
           inkscape:connector-curvature="0"
           id="path14"
           transform="matrix(15.333333,0,0,11.5,414.99999,878.8622)"
           d="m -24,13 c 0,1.105 -0.672,2 -1.5,2 -0.828,0 -1.5,-0.895 -1.5,-2 0,-1.105 0.672,-2 1.5,-2 0.828,0 1.5,0.895 1.5,2 z" />
      </g>
    </clipPath>
    <clipPath
       id="clipPath-370729992">
      <g
         id="g17"
         transform="translate(0,-1004.3622)">
        <path
           style="fill:#1890d0"
           inkscape:connector-curvature="0"
           id="path19"
           transform="matrix(15.333333,0,0,11.5,414.99999,878.8622)"
           d="m -24,13 c 0,1.105 -0.672,2 -1.5,2 -0.828,0 -1.5,-0.895 -1.5,-2 0,-1.105 0.672,-2 1.5,-2 0.828,0 1.5,0.895 1.5,2 z" />
      </g>
    </clipPath>
    <inkscape:perspective
       sodipodi:type="inkscape:persp3d"
       inkscape:vp_x="0 : 256 : 1"
       inkscape:vp_y="0 : 1000 : 0"
       inkscape:vp_z="512 : 256 : 1"
       inkscape:persp3d-origin="256 : 170.66667 : 1"
       id="perspective3018" />
    <defs
       id="defs5">
      <rect
         id="SVGID_1_"
         width="1024"
         height="1024" />
    </defs>
    <clipPath
       id="SVGID_2_">
      <use
         xlink:href="#SVGID_1_"
         overflow="visible"
         id="use9" />
    </clipPath>
    <defs
       id="defs38">
      <rect
         y="0"
         x="0"
         height="1024"
         width="1024"
         id="SVGID_8_" />
    </defs>
    <clipPath
       id="SVGID_9_">
      <use
         height="100%"
         width="100%"
         y="0"
         x="0"
         style="overflow:visible"
         id="use42"
         overflow="visible"
         xlink:href="#SVGID_8_" />
    </clipPath>
    <defs
       id="defs44">
      <filter
         height="413.96701"
         width="413.93399"
         y="293.44199"
         x="305.03299"
         filterUnits="userSpaceOnUse"
         id="Adobe_OpacityMaskFilter">
        <feFlood
           id="feFlood47"
           result="back" />
        <feBlend
           id="feBlend49"
           mode="normal"
           in2="back"
           in="SourceGraphic" />
      </filter>
    </defs>
    <mask
       id="SVGID_10_"
       height="413.967"
       width="413.934"
       y="293.442"
       x="305.033"
       maskUnits="userSpaceOnUse">
      <g
         style="filter:url(#Adobe_OpacityMaskFilter)"
         id="g52">
        <g
           id="g54"
           enable-background="new    ">
          <g
             id="g56">
            <defs
               id="defs58">
              <path
                 inkscape:connector-curvature="0"
                 d="m 513.458,309.257 c 91.063,0 164.903,76.897 164.903,171.722 0,94.833 -73.84,171.727 -164.903,171.727 -91.047,0 -164.89,-76.894 -164.89,-171.727 0,-94.825 73.843,-171.722 164.89,-171.722"
                 id="SVGID_11_" />
            </defs>
            <clipPath
               clip-path="url(#SVGID_9_)"
               id="SVGID_12_">
              <use
                 height="100%"
                 width="100%"
                 y="0"
                 x="0"
                 style="overflow:visible"
                 id="use62"
                 overflow="visible"
                 xlink:href="#SVGID_11_" />
            </clipPath>
            <linearGradient
               gradientTransform="matrix(-10.9559,383.4525,383.4525,10.9559,-392132.59,-11061.132)"
               y2="1024"
               x2="1"
               y1="1024"
               x1="0"
               gradientUnits="userSpaceOnUse"
               id="SVGID_13_">
              <stop
                 id="stop65"
                 style="stop-color:#1C1B18"
                 offset="0" />
              <stop
                 id="stop67"
                 style="stop-color:#4B4846"
                 offset="0.1871" />
              <stop
                 id="stop69"
                 style="stop-color:#7F7B79"
                 offset="0.3677" />
              <stop
                 id="stop71"
                 style="stop-color:#B0ADAD"
                 offset="0.5336" />
              <stop
                 id="stop73"
                 style="stop-color:#D9D8D8"
                 offset="0.6817" />
              <stop
                 id="stop75"
                 style="stop-color:#F5F5F5"
                 offset="0.8068" />
              <stop
                 id="stop77"
                 style="stop-color:#FFFFFF"
                 offset="0.8938" />
              <stop
                 id="stop79"
                 style="stop-color:#FFFFFF"
                 offset="1" />
            </linearGradient>
            <polygon
               style="fill:url(#SVGID_13_)"
               id="polygon81"
               points="338.763,652.426 348.837,299.842 688.166,309.537 678.092,662.121 "
               clip-path="url(#SVGID_12_)" />
          </g>
        </g>
      </g>
    </mask>
    <clipPath
       clipPathUnits="userSpaceOnUse"
       id="clipPath3430">
      <g
         id="g3432"
         style="fill:#9ade00;image-rendering:optimizeSpeed"
         transform="matrix(0.54321148,0,0,0.54321148,237.09607,175.79506)">
        <g
           id="g3434"
           style="fill:#9ade00">
          <path
             id="path3436"
             d="m 969.75,392.05 c -1.1,-4.35 -2.35,-9 -3.65,-13.6 -1,-3.4 -2,-6.85 -3.15,-10.5 -1.6,-5.15 -3.4,-10.5 -5.3,-15.85 -6.45,-18.25 -14.15,-36.05 -23.15,-53.65 -3.8,-7.4 -7.95,-14.95 -12.3,-22.4 -20.3,-34.5 -45.8,-67.2 -76.35,-97.75 C 773.25,105.7 688.7,61.65 592.2,46.25 c -16.25,-2.6 -32.8,-4.4 -50.05,-5.35 -9.7,-0.55 -19.85,-0.85 -30.1,-0.85 -9.35,0 -18.6,0.25 -27.9,0.75 C 365.8,46.9 263.85,92.75 178.3,178.3 Q 40.05,316.55 40.05,512.05 c 0,130.35 46.1,241.65 138.25,333.8 56.7,56.65 120.55,95.9 191.1,117.55 36.75,11.25 74.8,17.85 114.75,19.95 0.15,0 0.25,0 0.4,0 8.5,0.45 16.6,0.7 24.5,0.7 1.2,0 2.1,0 3,0 10.3,0 20.5,-0.3 30.1,-0.8 2.5,-0.15 4.75,-0.3 6.95,-0.45 20.2,-1.45 39.9,-4.05 58.7,-7.7 7.95,-1.55 15.8,-3.3 23.4,-5.15 80.8,-20.3 152.15,-61.6 214.65,-124.1 48.6,-48.6 84.4,-102.5 107.35,-161.8 18.45,-47.65 28.65,-98.8 30.55,-153.5 0.2,-6.05 0.3,-12.25 0.3,-18.5 0,-0.65 0,-1.35 0,-2 0,-0.35 0,-0.65 0,-1 -0.2,-40.65 -4.95,-79.5 -14.3,-117 z"
             style="fill:#9ade00;fill-opacity:1"
             inkscape:connector-curvature="0" />
        </g>
      </g>
    </clipPath>
    <clipPath
       clipPathUnits="userSpaceOnUse"
       id="clipPath3438">
      <g
         id="g3440"
         style="fill:#9ade00;image-rendering:optimizeSpeed"
         transform="matrix(0.54321148,0,0,0.54321148,237.09607,175.79506)">
        <g
           id="g3442"
           style="fill:#9ade00">
          <path
             id="path3444"
             d="m 969.75,392.05 c -1.1,-4.35 -2.35,-9 -3.65,-13.6 -1,-3.4 -2,-6.85 -3.15,-10.5 -1.6,-5.15 -3.4,-10.5 -5.3,-15.85 -6.45,-18.25 -14.15,-36.05 -23.15,-53.65 -3.8,-7.4 -7.95,-14.95 -12.3,-22.4 -20.3,-34.5 -45.8,-67.2 -76.35,-97.75 C 773.25,105.7 688.7,61.65 592.2,46.25 c -16.25,-2.6 -32.8,-4.4 -50.05,-5.35 -9.7,-0.55 -19.85,-0.85 -30.1,-0.85 -9.35,0 -18.6,0.25 -27.9,0.75 C 365.8,46.9 263.85,92.75 178.3,178.3 Q 40.05,316.55 40.05,512.05 c 0,130.35 46.1,241.65 138.25,333.8 56.7,56.65 120.55,95.9 191.1,117.55 36.75,11.25 74.8,17.85 114.75,19.95 0.15,0 0.25,0 0.4,0 8.5,0.45 16.6,0.7 24.5,0.7 1.2,0 2.1,0 3,0 10.3,0 20.5,-0.3 30.1,-0.8 2.5,-0.15 4.75,-0.3 6.95,-0.45 20.2,-1.45 39.9,-4.05 58.7,-7.7 7.95,-1.55 15.8,-3.3 23.4,-5.15 80.8,-20.3 152.15,-61.6 214.65,-124.1 48.6,-48.6 84.4,-102.5 107.35,-161.8 18.45,-47.65 28.65,-98.8 30.55,-153.5 0.2,-6.05 0.3,-12.25 0.3,-18.5 0,-0.65 0,-1.35 0,-2 0,-0.35 0,-0.65 0,-1 -0.2,-40.65 -4.95,-79.5 -14.3,-117 z"
             style="fill:#9ade00;fill-opacity:1"
             inkscape:connector-curvature="0" />
        </g>
      </g>
    </clipPath>
    <linearGradient
       inkscape:collect="always"
       xlink:href="#0"
       id="linearGradient4241"
       x1="-332.25"
       y1="-9.6913204"
       x2="48.151451"
       y2="398.94531"
       gradientUnits="userSpaceOnUse"
       gradientTransform="translate(396,62)" />
    <clipPath
       id="1">
      <path
         style="fill:#1890d0"
         inkscape:connector-curvature="0"
         id="path7"
         d="m -24,13 c 0,1.105 -0.672,2 -1.5,2 -0.828,0 -1.5,-0.895 -1.5,-2 0,-1.105 0.672,-2 1.5,-2 0.828,0 1.5,0.895 1.5,2"
         transform="matrix(15.33333,0,0,11.5,415,-125.5)" />
    </clipPath>
    <linearGradient
       y2="-0.61000001"
       x2="23.120001"
       y1="47.592999"
       x1="24.07"
       gradientUnits="userSpaceOnUse"
       id="3">
      <stop
         id="stop10"
         stop-color="#e1e1e1" />
      <stop
         id="stop12"
         offset="1"
         stop-color="#f4f4ff" />
    </linearGradient>
    <linearGradient
       gradientUnits="userSpaceOnUse"
       x2="36"
       x1="12"
       id="2">
      <stop
         id="stop15" />
      <stop
         id="stop17"
         stop-opacity="0"
         offset="1" />
    </linearGradient>
    <linearGradient
       gradientTransform="matrix(0.49433,0,0,0.4778,86.65,13.11)"
       id="0"
       x1="-123.97"
       y1="73.5"
       x2="-125.19"
       y2="-26.049999"
       gradientUnits="userSpaceOnUse">
      <stop
         offset="0"
         stop-color="#ff5454"
         id="stop22" />
      <stop
         stop-color="#c52828"
         id="stop20"
         offset="1"
         style="stop-color:#941313;stop-opacity:1" />
    </linearGradient>
  </defs>
  <sodipodi:namedview
     pagecolor="#ffffff"
     bordercolor="#666666"
     borderopacity="1"
     objecttolerance="10"
     gridtolerance="10"
     guidetolerance="10"
     inkscape:pageopacity="0"
     inkscape:pageshadow="2"
     inkscape:window-width="1366"
     inkscape:window-height="744"
     id="namedview4"
     showgrid="false"
     inkscape:zoom="1"
     inkscape:cx="158.18395"
     inkscape:cy="333.90979"
     inkscape:window-x="0"
     inkscape:window-y="24"
     inkscape:window-maximized="1"
     inkscape:current-layer="svg2"
     showguides="true"
     inkscape:guide-bbox="true">
    <sodipodi:guide
       position="21.694915,381.83051"
       orientation="1,0"
       id="guide3351" />
    <sodipodi:guide
       position="254.71187,488.20339"
       orientation="0,1"
       id="guide3353" />
    <sodipodi:guide
       position="490.30508,236.47458"
       orientation="1,0"
       id="guide3355" />
    <sodipodi:guide
       position="290.71186,19.525424"
       orientation="0,1"
       id="guide3357" />
    <sodipodi:guide
       position="253.12026,217.83683"
       orientation="1,0"
       id="guide3379" />
    <sodipodi:guide
       position="532.31958,254.65432"
       orientation="0,1"
       id="guide3381" />
    <sodipodi:guide
       position="225.50714,459.69132"
       orientation="0,1"
       id="guide3405" />
    <sodipodi:guide
       position="254.125,51.054688"
       orientation="0,1"
       id="guide3407" />
    <sodipodi:guide
       position="63.75,328.5625"
       orientation="1,0"
       id="guide3409" />
    <sodipodi:guide
       position="444.15145,331.94244"
       orientation="1,0"
       id="guide3411" />
  </sodipodi:namedview>
  <path
     inkscape:connector-curvature="0"
     style="fill:#b1b1aa"
     d="m -911.5758,-286.51482 c -1.2375,-0.49742 -2.25,-1.44389 -2.25,-2.10328 0,-0.65939 -0.28913,-0.90977 -0.6425,-0.55639 -0.97488,0.97488 1.66522,3.69948 3.51494,3.62744 1.1014,-0.0429 0.90018,-0.35576 -0.62244,-0.96777 z"
     id="path3045" />
  <circle
     style="opacity:1;fill:url(#linearGradient4241);fill-opacity:1;fill-rule:nonzero;stroke:none;stroke-width:4.9000001;stroke-miterlimit:4;stroke-dasharray:none;stroke-opacity:1"
     id="path4233"
     cx="256"
     cy="256"
     r="240" />
  <rect
     style="opacity:1;fill:#f4eed7;fill-opacity:1;fill-rule:nonzero;stroke:none;stroke-width:4.9000001;stroke-miterlimit:4;stroke-dasharray:none;stroke-opacity:1"
     id="rect4231"
     width="240.51602"
     height="324.20209"
     x="52.77737"
     y="157.69853"
     transform="matrix(0.95841262,-0.28538613,0.28538613,0.95841262,0,0)" />
  <g
     id="g3413"
     transform="translate(60,-4)"
     style="fill:#5d6c53">
    <polygon
       transform="matrix(1.2424078,0,0,1.2424078,-102.35808,-118.58824)"
       id="polygon5"
       points="260.676,413.608 231.664,396.858 370.152,156.75 399.164,173.5 "
       style="fill:#5d6c53" />
    <polygon
       transform="matrix(1.2424078,0,0,1.2424078,-102.35808,-118.58824)"
       id="polygon7"
       points="231.664,396.86 219.871,448.7 221.678,449.743 260.676,413.61 "
       style="fill:#5d6c53" />
  </g>
</svg>
