<?xml version="1.0" encoding="UTF-8" standalone="no"?>
<!-- Generator: flash2svg, http://dissentgraphics.com/tools/flash2svg -->

<svg
   xmlns:dc="http://purl.org/dc/elements/1.1/"
   xmlns:cc="http://creativecommons.org/ns#"
   xmlns:rdf="http://www.w3.org/1999/02/22-rdf-syntax-ns#"
   xmlns:svg="http://www.w3.org/2000/svg"
   xmlns="http://www.w3.org/2000/svg"
   xmlns:xlink="http://www.w3.org/1999/xlink"
   xmlns:sodipodi="http://sodipodi.sourceforge.net/DTD/sodipodi-0.dtd"
   xmlns:inkscape="http://www.inkscape.org/namespaces/inkscape"
   id="Drive-Removable"
   image-rendering="optimizeSpeed"
   version="1.1"
   style="background-color:#ffffff"
   x="0px"
   y="0px"
   width="1024px"
   height="1024px"
   viewBox="0 0 1024 1024"
   enable-background="new 0 0 1024 1024"
   inkscape:version="0.91 r"
   sodipodi:docname="xfce4-fsguard-plugin-warning.svg">
  <metadata
     id="metadata26">
    <rdf:RDF>
      <cc:Work
         rdf:about="">
        <dc:format>image/svg+xml</dc:format>
        <dc:type
           rdf:resource="http://purl.org/dc/dcmitype/StillImage" />
        <dc:title />
      </cc:Work>
    </rdf:RDF>
  </metadata>
  <sodipodi:namedview
     pagecolor="#ffffff"
     bordercolor="#666666"
     borderopacity="1"
     objecttolerance="10"
     gridtolerance="10"
     guidetolerance="10"
     inkscape:pageopacity="0"
     inkscape:pageshadow="2"
     inkscape:window-width="1349"
     inkscape:window-height="701"
     id="namedview24"
     showgrid="false"
     inkscape:zoom="0.4609375"
     inkscape:cx="815.83009"
     inkscape:cy="487.72408"
     inkscape:window-x="-12"
     inkscape:window-y="24"
     inkscape:window-maximized="0"
     inkscape:current-layer="Drive-Removable" />
  <defs
     transform="matrix(1 0 0 1 0 0) "
     id="defs3">
    <linearGradient
       gradientUnits="userSpaceOnUse"
       id="gradient"
       y2="0"
       x2="128"
       y1="128"
       x1="0"
       gradientTransform="matrix(8.965644,0,0,8.965644,-465.59638,-174.91966)">
      <stop
         offset="0"
         style="stop-color:#dbdbdb;stop-opacity:1"
         id="start" />
      <stop
         offset="1"
         style="stop-color:#757575;stop-opacity:1"
         id="stop" />
    </linearGradient>
    <linearGradient
       id="linearGradient3358"
       inkscape:collect="always">
      <stop
         id="stop3360"
         offset="0"
         style="stop-color:#f49c35;stop-opacity:1;" />
      <stop
         style="stop-color:#ffdd55;stop-opacity:1"
         offset="0.07328384"
         id="stop3366" />
      <stop
         id="stop3368"
         offset="0.97065091"
         style="stop-color:#ff6600;stop-opacity:1" />
      <stop
         id="stop3362"
         offset="1"
         style="stop-color:#f49c35;stop-opacity:0;" />
    </linearGradient>
    <path
       id="path-main"
       d="m 38.650563,12.764798 -8.308794,0 0,8.310562 2.882358,0 c -0.257227,4.816849 -3.169536,5.132217 -5.755905,5.400015 -0.16209,0.01762 -0.29775,0.037 -0.45103,0.05286 l 0,-16.420277 4.154401,0 -5.792904,-8.107955 -5.838713,8.107954 4.154401,0 0,21.300551 c -0.186755,-0.02291 -0.366461,-0.04581 -0.569072,-0.06519 -2.491231,-0.257228 -5.280211,-0.560261 -5.717146,-4.882038 1.744213,-0.776966 2.961641,-2.522943 2.961641,-4.554335 0,-2.751982 -2.230481,-4.984224 -4.984224,-4.984224 -2.753745,0 -4.985984,2.232242 -4.985984,4.984224 0,2.607512 1.999678,4.742852 4.552574,4.964844 0.628973,5.415871 4.374629,6.485303 6.915191,6.832384 -1.89397,1.171619 -3.158965,3.261151 -3.158965,5.650197 0,3.67342 2.975735,6.64563 6.647392,6.64563 3.671658,0 6.645632,-2.973973 6.645632,-6.64563 0,-3.097301 -2.121246,-5.688957 -4.985986,-6.428928 l 0,-3.888362 c 0.218468,-0.03172 0.466885,-0.05462 0.706495,-0.07929 2.517658,-0.262512 7.655161,-0.819252 7.986386,-7.882437 l 2.938728,0 0,-8.310562 0.0035,0 0,0 z" />
    <linearGradient
       gradientUnits="userSpaceOnUse"
       y2="935.02441"
       x2="1000.2086"
       y1="-83.592896"
       x1="12.272497"
       id="linearGradient3364"
       xlink:href="#linearGradient3358"
       inkscape:collect="always" />
  </defs>
  <g
     style="image-rendering:optimizeSpeed"
     id="g3390"
     transform="translate(-1.9143959,4.2889793)">
    <g
       transform="matrix(1,0,0,0.96430243,-16.271186,15.196286)"
       id="Calque.__202-0">
      <g
         id="shape-0">
        <path
           style="fill:#000000;fill-opacity:0.09803922"
           inkscape:connector-curvature="0"
           d="M 919.15,109.8 Q 918.7,89.9 904.5,75.7 C 894.75,65.95 882.95,61.05 869.15,61.05 l -674.2,0 c -13.8,0 -25.6,4.9 -35.35,14.65 -9.45,9.45 -14.35,20.85 -14.65,34.1 l 0,843.25 c 0,13.8 4.9,25.6 14.65,35.35 9.75,9.75 21.55,14.65 35.35,14.65 l 674.2,0 c 13.8,0 25.6,-4.9 35.35,-14.65 9.75,-9.75 14.65,-21.55 14.65,-35.35 l 0,-843.25 z"
           id="path-8" />
      </g>
    </g>
    <path
       style="fill:url(#linearGradient3364);fill-opacity:1"
       inkscape:connector-curvature="0"
       d="m 888.83897,55.7 q -14.65,-14.65 -35.35,-14.65 l -674.2,0 c -13.8,0 -25.6,4.9 -35.35,14.65 -9.45,9.45 -14.35,20.85 -14.65,34.1 l 0,-0.025 0,724.575 c 0.3,13.25 5.2,24.6 14.65,34.05 9.75,9.75 21.55,14.65 35.35,14.65 l 674.2,0 c 13.8,0 25.6,-4.9 35.35,-14.65 9.45,-9.45 14.35,-20.8 14.65,-34.05 l 0,-724.575 0,0.025 c -0.3,-13.25 -5.2,-24.65 -14.65,-34.1 z"
       id="path1-3" />
    <path
       style="fill:#86837c;fill-opacity:0.98823529"
       inkscape:connector-curvature="0"
       d="m 143.93897,848.4 c -9.45,-9.45 -14.35,-20.8 -14.65,-34.05 l 0,118.7 c 0,13.8 4.9,25.6 14.65,35.35 9.75,9.75 21.55,14.65 35.35,14.65 l 674.2,0 c 13.8,0 25.6,-4.9 35.35,-14.65 9.75,-9.75 14.65,-21.55 14.65,-35.35 l 0,-118.7 c -0.3,13.25 -5.2,24.6 -14.65,34.05 -9.75,9.75 -21.55,14.65 -35.35,14.65 l -674.2,0 c -13.8,0 -25.6,-4.9 -35.35,-14.65 z"
       id="path2-3" />
    <g
       id="Calque.__204-4">
      <g
         overflow="visible"
         id="Symbole.__2026_1-4"
         style="overflow:visible">
        <g
           id="Calque.__208-6">
          <g
             id="shape17-3">
            <path
               d="m 518,918 q 0,-8.3 -5.85,-14.15 C 508.25,899.95 503.55,898 498,898 l -302,0 c -5.55,0 -10.25,1.95 -14.15,5.85 -3.9,3.9 -5.85,8.6 -5.85,14.15 l 0,8.2 c 0,5.55 1.95,10.25 5.85,14.15 3.9,3.9 8.6,5.85 14.15,5.85 l 302,0 c 5.55,0 10.25,-1.95 14.15,-5.85 3.9,-3.9 5.85,-8.6 5.85,-14.15 l 0,-8.2 z"
               id="path11-4"
               inkscape:connector-curvature="0"
               style="fill:#3b3a36;fill-opacity:1" />
          </g>
        </g>
      </g>
    </g>
    <g
       id="Calque.__205-3">
      <g
         id="shape6-9">
        <path
           d="M 849.65,912.15 Q 843.1,905.6 833.8,905.6 c -6.2,0 -11.5,2.2 -15.9,6.55 -4.35,4.4 -6.55,9.7 -6.55,15.9 0,6.2 2.2,11.5 6.55,15.85 4.4,4.4 9.7,6.6 15.9,6.6 6.2,0 11.5,-2.2 15.85,-6.6 4.4,-4.35 6.6,-9.65 6.6,-15.85 0,-6.2 -2.2,-11.5 -6.6,-15.9 z m -64.85,15.9 c 0,-6.2 -2.2,-11.5 -6.6,-15.9 -4.35,-4.35 -9.65,-6.55 -15.85,-6.55 -6.2,0 -11.5,2.2 -15.9,6.55 -4.35,4.4 -6.55,9.7 -6.55,15.9 0,6.2 2.2,11.5 6.55,15.85 4.4,4.4 9.7,6.6 15.9,6.6 6.2,0 11.5,-2.2 15.85,-6.6 4.4,-4.35 6.6,-9.65 6.6,-15.85 z"
           id="path3-3"
           inkscape:connector-curvature="0"
           style="fill:#000000;fill-opacity:0.2" />
      </g>
    </g>
    <g
       id="Calque.__206-0">
      <g
         id="shape10-0">
        <path
           d="m 703.4,642 q 79.25,-79.25 79.25,-191.35 c 0,-74.75 -26.4,-138.5 -79.25,-191.35 -52.85,-52.85 -116.6,-79.25 -191.35,-79.25 -74.75,0 -138.5,26.4 -191.35,79.25 -52.85,52.85 -79.25,116.6 -79.25,191.35 0,74.75 26.4,138.5 79.25,191.35 52.85,52.85 116.6,79.25 191.35,79.25 74.75,0 138.5,-26.4 191.35,-79.25 z"
           id="path6-5"
           inkscape:connector-curvature="0"
           style="fill:#ffffff;fill-opacity:0.09803922" />
        <path
           d="m 829.05,940.5 c 6.2,0 11.5,-2.2 15.85,-6.6 4.4,-4.35 6.6,-9.65 6.6,-15.85 0,-6.2 -2.2,-11.5 -6.6,-15.9 -4.35,-4.35 -9.65,-6.55 -15.85,-6.55 -6.2,0 -11.5,2.2 -15.9,6.55 -4.35,4.4 -6.55,9.7 -6.55,15.9 0,6.2 2.2,11.5 6.55,15.85 4.4,4.4 9.7,6.6 15.9,6.6 z m -49,-22.45 c 0,-6.2 -2.2,-11.5 -6.6,-15.9 -4.35,-4.35 -9.65,-6.55 -15.85,-6.55 -6.2,0 -11.5,2.2 -15.9,6.55 -4.35,4.4 -6.55,9.7 -6.55,15.9 0,6.2 2.2,11.5 6.55,15.85 4.4,4.4 9.7,6.6 15.9,6.6 6.2,0 11.5,-2.2 15.85,-6.6 4.4,-4.35 6.6,-9.65 6.6,-15.85 z"
           id="path7-9"
           inkscape:connector-curvature="0"
           style="fill:#cccc00;fill-opacity:1" />
      </g>
    </g>
  </g>
  <path
     inkscape:connector-curvature="0"
     d="m 510.24974,224.27797 c -6.0715,0.13239 -12.1003,4.21571 -16.548,11.92428 l -200.4009,347.386 c -9.0248,15.64129 -0.9418,28.95893 16.7913,28.95893 l 401.167,0 c 20.3353,0 25.1231,-14.32604 16.6696,-28.95893 l -200.6443,-347.386 c -4.7591,-8.23814 -10.9631,-12.05667 -17.0347,-11.92428 z m -2.1901,83.71333 c 10.273,2.4e-4 18.3765,3.18211 24.2136,9.36907 5.9537,6.18746 8.8822,14.43236 8.8823,24.82198 -10e-5,14.24247 -2.6656,33.64612 -8.1523,58.16132 -6.1873,28.25117 -9.7787,47.52815 -10.8292,57.91795 -0.2339,6.53747 -0.492,13.17909 -0.6086,19.83318 -0.7008,8.8723 -2.9664,14.32507 -6.9355,16.42635 -1.5177,0.93394 -3.3791,1.4602 -5.5971,1.46011 -5.3701,9e-5 -8.6835,-4.24901 -9.7341,-12.65438 -0.1166,-0.81709 -0.1222,-7.05911 -0.1214,-18.61648 -1e-4,-21.24652 -4.5221,-51.69212 -13.6277,-91.50058 -3.5023,-15.52619 -5.2322,-25.75916 -5.2322,-30.66244 0,-8.872 2.2659,-16.70745 6.9356,-23.36186 5.2532,-7.4711 12.1679,-11.19398 20.8066,-11.19422 z m 0.2435,206.3631 c 7.2378,0 13.4849,2.12952 18.7382,6.44879 5.6035,4.66965 8.3956,10.52202 8.3957,17.64311 -10e-5,7.82159 -2.5242,14.32677 -7.5439,19.34651 -4.9032,5.01982 -11.2818,7.4223 -19.1033,7.4223 -6.5375,0 -12.2533,-2.39755 -17.1564,-7.3006 -4.9031,-4.90304 -7.3005,-10.61889 -7.3005,-17.15636 0,-7.0044 2.261,-13.11977 6.8139,-18.37314 4.5528,-5.36998 10.2686,-8.03061 17.1563,-8.03061 z"
     style="fill:#f4d7d7;fill-opacity:1;stroke:none"
     id="path3366" />
</svg>
