<?xml version="1.0" encoding="UTF-8" standalone="no"?>
<svg
   xmlns:dc="http://purl.org/dc/elements/1.1/"
   xmlns:cc="http://creativecommons.org/ns#"
   xmlns:rdf="http://www.w3.org/1999/02/22-rdf-syntax-ns#"
   xmlns:svg="http://www.w3.org/2000/svg"
   xmlns="http://www.w3.org/2000/svg"
   xmlns:sodipodi="http://sodipodi.sourceforge.net/DTD/sodipodi-0.dtd"
   xmlns:inkscape="http://www.inkscape.org/namespaces/inkscape"
   viewBox="0 0 128 128"
   id="svg2"
   version="1.1"
   inkscape:version="0.91 r"
   sodipodi:docname="yast-hwinfo.svg"
   width="128"
   height="128">
  <metadata
     id="metadata64">
    <rdf:RDF>
      <cc:Work
         rdf:about="">
        <dc:format>image/svg+xml</dc:format>
        <dc:type
           rdf:resource="http://purl.org/dc/dcmitype/StillImage" />
        <dc:title></dc:title>
      </cc:Work>
    </rdf:RDF>
  </metadata>
  <sodipodi:namedview
     pagecolor="#ffffff"
     bordercolor="#666666"
     borderopacity="1"
     objecttolerance="10"
     gridtolerance="10"
     guidetolerance="10"
     inkscape:pageopacity="0"
     inkscape:pageshadow="2"
     inkscape:window-width="1366"
     inkscape:window-height="744"
     id="namedview62"
     showgrid="false"
     inkscape:zoom="1.7383042"
     inkscape:cx="144.5892"
     inkscape:cy="3.5407738"
     inkscape:window-x="0"
     inkscape:window-y="24"
     inkscape:window-maximized="1"
     inkscape:current-layer="svg2" />
  <defs
     id="defs4">
    <linearGradient
       id="0"
       x1="-22.705"
       x2="3.8789999"
       gradientUnits="userSpaceOnUse"
       gradientTransform="matrix(2.294355,0,0,2.294355,-42.714284,198.0473)">
      <stop
         stop-color="#d3d3d3"
         id="stop7" />
      <stop
         offset="1"
         stop-color="#fcf9f9"
         id="stop9" />
    </linearGradient>
    <linearGradient
       id="1"
       x1="115.93"
       y1="31.566999"
       x2="114.08"
       y2="-12.741"
       gradientUnits="userSpaceOnUse"
       gradientTransform="matrix(2.294355,0,0,2.294355,-198.0473,42.714284)">
      <stop
         stop-color="#4da70e"
         id="stop12" />
      <stop
         offset="1"
         stop-color="#9ded46"
         id="stop14" />
    </linearGradient>
  </defs>
  <rect
     style="fill:url(#1);fill-rule:evenodd"
     id="rect18"
     rx="15.078"
     y="9.2465277"
     x="8.6282024"
     height="110.12904"
     width="110.12904" />
  <rect
     style="fill:url(#0)"
     id="rect20"
     ry="3.8132179"
     rx="3.0491977"
     transform="matrix(0,-1,-1,0,0,0)"
     height="60.995426"
     width="60.995426"
     y="-94.1847"
     x="-94.807617" />
  <g
     style="fill:#6bc123"
     id="g22"
     transform="matrix(2.294355,0,0,2.294355,-198.0473,42.714284)">
    <path
       inkscape:connector-curvature="0"
       id="path24"
       d="M 122.13,7.18 C 121.365,3.593 114.149,3.366 109.499,6.099 l 0,0.302 c 4.645,-2.306 11.236,-2.292 11.836,1.013 0.202,1.095 -0.434,2.233 -1.576,2.888 l 0,0.857 c 1.374,-0.485 2.778,-2.054 2.371,-3.978 m -8.458,6.281 c -3.21,0.286 -6.554,-0.164 -7.02,-2.586 -0.233,-1.193 0.333,-2.459 1.08,-3.244 l 0,-0.421 c -1.346,1.14 -2.078,2.582 -1.655,4.285 0.539,2.185 3.409,3.422 7.791,3.01 1.735,-0.161 4.01,-0.7 5.581,-1.537 l 0,-1.189 c -1.432,0.825 -3.8,1.506 -5.774,1.682 z" />
    <path
       inkscape:connector-curvature="0"
       id="path26"
       d="m 119.82,6.593 -0.888,0 0,3.733 c 0,0.438 0.223,0.82 0.888,0.88" />
    <path
       inkscape:connector-curvature="0"
       id="path28"
       d="m 109.24,7.957 -0.888,0 0,2.438 c 0,0.439 0.223,0.82 0.888,0.88" />
    <path
       inkscape:connector-curvature="0"
       id="path30"
       d="m 108.35,6.707 0.888,0 0,0.794 -0.888,0 z" />
    <path
       inkscape:connector-curvature="0"
       id="path32"
       d="m 114.56,11.236 c -0.72,0 -1.024,-0.472 -1.024,-0.938 l 0,-3.238 0.878,0 0,0.897 0.665,0 0,0.671 -0.665,0 0,1.62 c 0,0.191 0.097,0.295 0.307,0.295 l 0.358,0 0,0.693 -0.52,0" />
    <path
       inkscape:connector-curvature="0"
       id="path34"
       d="m 116.89,8.588 c -0.3,0 -0.533,0.147 -0.63,0.345 -0.058,0.119 -0.078,0.21 -0.087,0.357 l 1.36,0 C 117.514,8.931 117.342,8.588 116.89,8.588 m -0.717,1.267 c 0,0.425 0.284,0.738 0.781,0.738 0.391,0 0.585,-0.103 0.811,-0.313 l 0.543,0.491 c -0.349,0.324 -0.714,0.52 -1.36,0.52 -0.843,0 -1.65,-0.434 -1.65,-1.699 0,-1.081 0.704,-1.692 1.631,-1.692 0.94,0 1.479,0.715 1.479,1.655 l 0,0.299 -2.235,0" />
    <path
       inkscape:connector-curvature="0"
       id="path36"
       d="m 111.63,8.629 c 0.258,0 0.365,0.12 0.365,0.315 l 0,2.297 0.882,0 0,-2.3 c 0,-0.467 -0.265,-0.983 -1.037,-0.983 l -1.818,0 0,3.283 0.878,0 0,-2.612" />
  </g>
  <g
     style="fill:#ffffff;fill-opacity:0.77600002"
     id="g38"
     transform="matrix(2.294355,0,0,2.294355,-198.0473,42.714284)">
    <path
       style="color:#000000"
       inkscape:connector-curvature="0"
       id="path40"
       d="m 131.16,29.628 0,0.923 -0.923,0 0,-0.923 0.923,0 m -0.923,0.923 0,0.923 -0.923,0 0,-0.923 0.923,0 m -0.923,0 -0.923,0 0,-0.923 0.923,0 0,0.923 m -0.923,0 0,0.923 -0.923,0 0,-0.923 0.923,0 m -0.923,0 -0.923,0 0,-0.923 0.923,0 0,0.923 m -0.923,0 0,0.923 -0.923,0 0,-0.923 0.923,0 m -0.923,0 -0.923,0 0,-0.923 0.923,0 0,0.923 m -0.923,0 0,0.923 -0.923,0 0,-0.923 0.923,0 m -0.923,0 -0.923,0 0,-0.923 0.923,0 0,0.923 m -0.923,0 0,0.923 -0.923,0 0,-0.923 0.923,0 m -0.923,0 -0.923,0 0,-0.923 0.923,0 0,0.923 m -0.923,0 0,0.923 -0.923,0 0,-0.923 0.923,0 m -0.923,0 -0.923,0 0,-0.923 0.923,0 0,0.923 m -0.923,0 0,0.923 -0.923,0 0,-0.923 0.923,0 m -0.923,0 -0.923,0 0,-0.923 0.923,0 0,0.923 m -0.923,0 0,0.923 -0.923,0 0,-0.923 0.923,0" />
    <path
       style="fill-rule:evenodd"
       inkscape:connector-curvature="0"
       id="path42"
       d="m 134.85,29.628 -1.846,1.846 1.846,0 0,-1.846" />
    <g
       style="color:#000000"
       id="g44">
      <path
         inkscape:connector-curvature="0"
         id="path46"
         d="m 94.24,29.628 0,0.923 0.923,0 0,-0.923 -0.923,0 m 0.923,0.923 0,0.923 0.923,0 0,-0.923 -0.923,0 m 0.923,0 0.923,0 0,-0.923 -0.923,0 0,0.923 m 0.923,0 0,0.923 0.923,0 0,-0.923 -0.923,0 m 0.923,0 0.923,0 0,-0.923 -0.923,0 0,0.923 m 0.923,0 0,0.923 0.923,0 0,-0.923 -0.923,0 m 0.923,0 0.923,0 0,-0.923 -0.923,0 0,0.923 m 0.923,0 0,0.923 0.923,0 0,-0.923 -0.923,0 m 0.923,0 0.923,0 0,-0.923 -0.923,0 0,0.923 m 0.923,0 0,0.923 0.923,0 0,-0.923 -0.923,0 m 0.923,0 0.923,0 0,-0.923 -0.923,0 0,0.923 m 0.923,0 0,0.923 0.923,0 0,-0.923 -0.923,0 m 0.923,0 0.923,0 0,-0.923 -0.923,0 0,0.923 m 0.923,0 0,0.923 0.923,0 0,-0.923 -0.923,0 m 0.923,0 0.923,0 0,-0.923 -0.923,0 0,0.923 m 0.923,0 0,0.923 0.923,0 0,-0.923 -0.923,0" />
      <path
         inkscape:connector-curvature="0"
         id="path48"
         d="m 135.77,9.321 -0.923,0 0,-0.923 0.923,0 0,0.923 m -0.923,-0.923 -0.923,0 0,-0.923 0.923,0 0,0.923 m 0,-0.923 0,-0.923 0.923,0 0,0.923 -0.923,0 m 0,-0.923 -0.923,0 0,-0.923 0.923,0 0,0.923 m 0,-0.923 0,-0.923 0.923,0 0,0.923 -0.923,0 m 0,-0.923 -0.923,0 0,-0.923 0.923,0 0,0.923 m 0,-0.923 0,-0.923 0.923,0 0,0.923 -0.923,0 m 0,-0.923 -0.923,0 0,-0.923 0.923,0 0,0.923 m 0,-0.923 0,-0.923 0.923,0 0,0.923 -0.923,0 m 0,-0.923 -0.923,0 0,-0.923 0.923,0 0,0.923 m 0,-0.923 0,-0.923 0.923,0 0,0.923 -0.923,0 m 0,-0.923 -0.923,0 0,-0.923 0.923,0 0,0.923 m 0,-0.923 0,-0.923 0.923,0 0,0.923 -0.923,0 m 0,-0.923 -0.923,0 0,-0.923 0.923,0 0,0.923 m 0,-0.923 0,-0.923 0.923,0 0,0.923 -0.923,0 m 0,-0.923 -0.923,0 0,-0.923 0.923,0 0,0.923" />
      <path
         inkscape:connector-curvature="0"
         id="path50"
         d="m 133.93,18.551 0,0.923 0.923,0 0,-0.923 z m 0.923,0.923 0,0.923 0.923,0 0,-0.923 z m 0,0.923 -0.923,0 0,0.923 0.923,0 z m 0,0.923 0,0.923 0.923,0 0,-0.923 z m 0,0.923 -0.923,0 0,0.923 0.923,0 z m 0,0.923 0,0.923 0.923,0 0,-0.923 z m 0,0.923 -0.923,0 0,0.923 0.923,0 z m 0,0.923 0,0.923 0.923,0 0,-0.923 z m 0,0.923 -0.923,0 0,0.923 0.923,0 z" />
    </g>
  </g>
  <g
     style="color:#000000;fill:#6bc123"
     id="g52"
     transform="matrix(2.294355,0,0,2.294355,-198.0473,42.714284)">
    <ellipse
       id="ellipse54"
       ry="0.67299998"
       rx="0.67500001"
       cy="18.853001"
       cx="121.23" />
    <ellipse
       id="ellipse56"
       ry="0.80800003"
       rx="0.81"
       cy="20.872"
       cx="122.45" />
    <ellipse
       id="ellipse58"
       ry="0.40400001"
       rx="0.405"
       cy="16.698999"
       cx="121.78" />
    <path
       inkscape:connector-curvature="0"
       id="path60"
       d="m 124.07,16.296 -0.768,0.766 1.181,1.178 -1.224,1.388 0.81,0.707 1.89,-2.154 -1.89,-1.884" />
  </g>
</svg>
