<?xml version="1.0" encoding="UTF-8" standalone="no"?>
<!-- Created with Inkscape (http://www.inkscape.org/) -->

<svg
   xmlns:dc="http://purl.org/dc/elements/1.1/"
   xmlns:cc="http://creativecommons.org/ns#"
   xmlns:rdf="http://www.w3.org/1999/02/22-rdf-syntax-ns#"
   xmlns:svg="http://www.w3.org/2000/svg"
   xmlns="http://www.w3.org/2000/svg"
   xmlns:xlink="http://www.w3.org/1999/xlink"
   xmlns:sodipodi="http://sodipodi.sourceforge.net/DTD/sodipodi-0.dtd"
   xmlns:inkscape="http://www.inkscape.org/namespaces/inkscape"
   id="svg2"
   height="100%"
   viewBox="0 0 512 512"
   width="100%"
   version="1.1"
   inkscape:version="0.91 r"
   sodipodi:docname="youtube-dl.svg">
  <defs
     id="defs38">
    <linearGradient
       inkscape:collect="always"
       id="linearGradient3366">
      <stop
         style="stop-color:#db291f;stop-opacity:1;"
         offset="0"
         id="stop3368" />
      <stop
         id="stop3374"
         offset="0.10595721"
         style="stop-color:#ff8080;stop-opacity:1" />
      <stop
         style="stop-color:#d40000;stop-opacity:1"
         offset="0.48262563"
         id="stop3378" />
      <stop
         style="stop-color:#800000;stop-opacity:1"
         offset="0.87203997"
         id="stop3376" />
      <stop
         style="stop-color:#db291f;stop-opacity:0;"
         offset="1"
         id="stop3370" />
    </linearGradient>
    <linearGradient
       inkscape:collect="always"
       xlink:href="#linearGradient3366"
       id="linearGradient3372"
       x1="-36.881355"
       y1="-47.728813"
       x2="551.05084"
       y2="551.05084"
       gradientUnits="userSpaceOnUse"
       gradientTransform="matrix(1.0941534,0,0,1.0941534,-22.740761,-22.740761)" />
  </defs>
  <sodipodi:namedview
     pagecolor="#ffffff"
     bordercolor="#666666"
     borderopacity="1"
     objecttolerance="10"
     gridtolerance="10"
     guidetolerance="10"
     inkscape:pageopacity="0"
     inkscape:pageshadow="2"
     inkscape:window-width="1366"
     inkscape:window-height="744"
     id="namedview36"
     showgrid="false"
     inkscape:zoom="0.4609375"
     inkscape:cx="218.0339"
     inkscape:cy="256"
     inkscape:window-x="0"
     inkscape:window-y="24"
     inkscape:window-maximized="1"
     inkscape:current-layer="svg2" />
  <metadata
     id="metadata72">
    <rdf:RDF>
      <cc:Work
         rdf:about="">
        <dc:format>image/svg+xml</dc:format>
        <dc:type
           rdf:resource="http://purl.org/dc/dcmitype/StillImage" />
      </cc:Work>
    </rdf:RDF>
  </metadata>
  <path
     id="path4"
     d="m 493.64492,254.13475 c 0,132.28314 -107.23797,239.51017 -239.51017,239.51017 -132.28314,0 -239.510174,-107.23797 -239.510174,-239.51017 0,-132.28314 107.237974,-239.510174 239.510174,-239.510174 132.28314,0 239.51017,107.237974 239.51017,239.510174"
     style="fill:url(#linearGradient3372);fill-opacity:1;fill-rule:evenodd"
     inkscape:connector-curvature="0" />
  <text
     id="text20"
     style="word-spacing:0;letter-spacing:0"
     font-size="129.23px"
     line-height="125%"
     y="231.36"
     x="729.64001"
     font-family="Gentium Book Basic">
    <tspan
       id="tspan22"
       y="231.36"
       x="729.64001" />
  </text>
  <text
     id="text24"
     style="text-anchor:middle"
     font-size="46.954px"
     transform="scale(4.0128 .2492)"
     y="579.25"
     x="378.91"
     font-family="Arial" />
  <text
     id="text26"
     style="word-spacing:0;letter-spacing:0"
     font-size="129.23px"
     line-height="125%"
     y="151.36"
     x="1310.91"
     font-family="Gentium Book Basic">
    <tspan
       id="tspan28"
       y="151.36"
       x="1310.91" />
  </text>
  <text
     id="text30"
     style="text-anchor:middle"
     font-size="46.954px"
     transform="scale(4.0128 .2492)"
     y="258.22"
     x="523.76001"
     font-family="Arial" />
  <text
     id="text32"
     style="word-spacing:0;letter-spacing:0"
     font-size="129.23px"
     line-height="125%"
     y="-29.900999"
     x="239.33"
     font-family="Gentium Book Basic">
    <tspan
       id="tspan34"
       y="-29.900999"
       x="239.33" />
  </text>
  <text
     id="text36"
     style="text-anchor:middle"
     font-size="46.954px"
     transform="scale(4.0128 .2492)"
     y="-469.14001"
     x="256.72"
     font-family="Arial" />
  <text
     id="text38"
     style="word-spacing:0;letter-spacing:0"
     font-size="129.23px"
     line-height="125%"
     y="-246.37"
     x="1337.38"
     font-family="Gentium Book Basic">
    <tspan
       id="tspan40"
       y="-246.37"
       x="1337.38" />
  </text>
  <text
     id="text42"
     style="text-anchor:middle"
     font-size="46.954px"
     transform="scale(4.0128 .2492)"
     y="-1337.8101"
     x="530.35999"
     font-family="Arial" />
  <text
     id="text44"
     style="word-spacing:0;letter-spacing:0"
     font-size="129.23px"
     line-height="125%"
     y="-326.38"
     x="1918.65"
     font-family="Gentium Book Basic">
    <tspan
       id="tspan46"
       y="-326.38"
       x="1918.65" />
  </text>
  <text
     id="text48"
     style="text-anchor:middle"
     font-size="46.954px"
     transform="scale(4.0128 .2492)"
     y="-1658.85"
     x="675.21002"
     font-family="Arial" />
  <text
     id="text50"
     style="word-spacing:0;letter-spacing:0"
     font-size="129.23px"
     line-height="125%"
     y="-798.78003"
     x="1529.53"
     font-family="Gentium Book Basic">
    <tspan
       id="tspan52"
       y="-798.78003"
       x="1529.53" />
  </text>
  <text
     id="text54"
     style="text-anchor:middle"
     font-size="46.954px"
     transform="scale(4.0128 .2492)"
     y="-3554.51"
     x="578.23999"
     font-family="Arial" />
  <text
     id="text56"
     style="word-spacing:0;letter-spacing:0"
     font-size="129.23px"
     line-height="125%"
     y="-878.78003"
     x="2110.79"
     font-family="Gentium Book Basic">
    <tspan
       id="tspan58"
       y="-878.78003"
       x="2110.79" />
  </text>
  <text
     id="text60"
     style="text-anchor:middle"
     font-size="46.954px"
     transform="scale(4.0128 .2492)"
     y="-3875.54"
     x="723.09003"
     font-family="Arial" />
  <text
     id="text62"
     style="word-spacing:0;letter-spacing:0"
     font-size="208.33px"
     line-height="125%"
     y="535.94"
     x="277.98999"
     font-family="Gentium Book Basic">
    <tspan
       id="tspan64"
       y="535.94"
       x="277.98999" />
  </text>
  <path
     id="path66"
     d="m 259.13503,155.22329 c -34.46255,0 -85.12513,1.98479 -100.36669,2.48263 -16.55454,1.45741 -22.85248,2.28678 -31.91645,9.93491 -13.81478,12.10134 -17.02393,35.97905 -17.02393,72.34542 l 0,34.75688 c 0,41.51437 5.67647,62.50898 14.8958,70.22276 10.64174,8.98957 17.73951,9.56181 24.82634,10.63955 2.7507,0.40155 22.12706,3.90175 108.52907,3.90175 53.87611,0 100.19163,-2.5822 104.97308,-3.19165 7.69189,-0.96395 18.6006,-2.21019 26.95337,-11.34855 12.35956,-13.8312 14.8958,-36.95503 14.8958,-70.22277 l 0,-40.07665 c 0,-21.53293 -1.29547,-52.16047 -14.8958,-64.90517 -10.30255,-8.58801 -14.14631,-11.00719 -35.46589,-12.05757 -6.02878,-0.27245 -58.65209,-2.48264 -95.39923,-2.48264 m -35.82039,34.05006 68.08916,0 0,79.44647 28.01799,0 -62.04944,63.83291 -62.06038,-63.83291 28.01799,0 0,-79.44647"
     inkscape:connector-curvature="0"
     style="fill:#ffffff" />
</svg>
