<?xml version="1.0" encoding="UTF-8" standalone="no"?>
<!-- Created with Inkscape (http://www.inkscape.org/) -->

<svg
   xmlns:dc="http://purl.org/dc/elements/1.1/"
   xmlns:cc="http://creativecommons.org/ns#"
   xmlns:rdf="http://www.w3.org/1999/02/22-rdf-syntax-ns#"
   xmlns:svg="http://www.w3.org/2000/svg"
   xmlns="http://www.w3.org/2000/svg"
   xmlns:xlink="http://www.w3.org/1999/xlink"
   xmlns:sodipodi="http://sodipodi.sourceforge.net/DTD/sodipodi-0.dtd"
   xmlns:inkscape="http://www.inkscape.org/namespaces/inkscape"
   width="128"
   height="128"
   id="svg2"
   version="1.1"
   inkscape:version="0.91 r"
   sodipodi:docname="zim.svg">
  <defs
     id="defs4">
    <linearGradient
       inkscape:collect="always"
       id="linearGradient3348">
      <stop
         style="stop-color:#420032;stop-opacity:1;"
         offset="0"
         id="stop3350" />
      <stop
         id="stop3356"
         offset="0.06106362"
         style="stop-color:#ccaaff;stop-opacity:1" />
      <stop
         style="stop-color:#aa00d4;stop-opacity:1"
         offset="0.50295877"
         id="stop3362" />
      <stop
         style="stop-color:#11002b;stop-opacity:1"
         offset="0.93887633"
         id="stop3358" />
      <stop
         style="stop-color:#420032;stop-opacity:0;"
         offset="1"
         id="stop3352" />
    </linearGradient>
    <linearGradient
       inkscape:collect="always"
       xlink:href="#linearGradient3348"
       id="linearGradient3354"
       x1="-5.0793653"
       y1="917.25104"
       x2="135.11111"
       y2="1059.8119"
       gradientUnits="userSpaceOnUse" />
  </defs>
  <sodipodi:namedview
     id="base"
     pagecolor="#ffffff"
     bordercolor="#666666"
     borderopacity="1.0"
     inkscape:pageopacity="0"
     inkscape:pageshadow="2"
     inkscape:zoom="4"
     inkscape:cx="116.62325"
     inkscape:cy="67.620078"
     inkscape:document-units="px"
     inkscape:current-layer="layer1"
     showgrid="false"
     inkscape:snap-page="true"
     inkscape:snap-global="true"
     inkscape:snap-center="true"
     inkscape:snap-object-midpoints="false"
     showguides="false"
     inkscape:guide-bbox="true"
     inkscape:snap-bbox="true"
     inkscape:object-paths="true"
     inkscape:object-nodes="true"
     inkscape:window-width="1366"
     inkscape:window-height="744"
     inkscape:window-x="0"
     inkscape:window-y="24"
     inkscape:window-maximized="1"
     inkscape:snap-midpoints="false"
     inkscape:snap-grids="true"
     inkscape:snap-to-guides="false">
    <inkscape:grid
       type="xygrid"
       id="grid3002"
       empspacing="5"
       visible="true"
       enabled="true"
       snapvisiblegridlinesonly="true" />
    <sodipodi:guide
       position="-94.137566,92.10582"
       orientation="1,0"
       id="guide3357" />
    <sodipodi:guide
       position="-7.4497354,80.253968"
       orientation="1,0"
       id="guide3359" />
    <sodipodi:guide
       position="-78.560847,97.862434"
       orientation="0,1"
       id="guide3361" />
  </sodipodi:namedview>
  <metadata
     id="metadata7">
    <rdf:RDF>
      <cc:Work
         rdf:about="">
        <dc:format>image/svg+xml</dc:format>
        <dc:type
           rdf:resource="http://purl.org/dc/dcmitype/StillImage" />
        <dc:title></dc:title>
      </cc:Work>
    </rdf:RDF>
  </metadata>
  <g
     inkscape:label="Layer 1"
     inkscape:groupmode="layer"
     id="layer1"
     transform="translate(0,-924.36218)">
    <rect
       style="opacity:1;fill:url(#linearGradient3354);fill-opacity:1;fill-rule:nonzero;stroke:none;stroke-width:17.54899979;stroke-miterlimit:4;stroke-dasharray:none;stroke-opacity:1"
       id="rect3363"
       width="115.33862"
       height="115.33862"
       x="6.3544974"
       y="931.34631"
       ry="8.3100004" />
    <g
       id="g3350"
       transform="translate(-120,0)">
      <g
         transform="matrix(0.99999994,0,0,1.0000428,120,-0.03185922)"
         id="g3342">
        <path
           style="color:#000000;display:inline;overflow:visible;visibility:visible;fill:#ffffff;fill-opacity:1;fill-rule:nonzero;stroke:none;stroke-width:2;marker:none;enable-background:accumulate"
           id="path4111"
           inkscape:connector-curvature="0"
           d="m 66.136762,991.11697 0,5.87712 0,4.37581 0,13.0844 c -0.0055,0.2723 -0.179566,0.5343 -0.429006,0.6436 -1.516007,0.7581 -3.899225,0.5913 -7.250212,-1.8877 -0.492858,-0.2601 -1.171085,-0.6612 -1.88763,-0.9866 -0.716542,-0.3255 -1.463456,-0.5507 -1.88763,-0.5574 -1.766448,0 -3.396743,1.0296 -4.633271,2.8309 -1.236526,1.8015 -2.016334,4.3401 -2.016334,7.1645 0,2.8242 0.78063,5.3738 2.016334,7.1644 1.215469,1.7605 2.812018,2.7553 4.547471,2.7884 0.02897,4e-4 0.05684,0 0.0858,0 1.303151,-0.1741 3.228219,-1.1037 3.689461,-1.4587 3.411003,-2.5582 5.815654,-2.6908 7.336011,-1.9307 0.249439,0.1112 0.424118,0.3714 0.429007,0.6437 l 0,17.8033 47.319427,0 c 4.56326,0 8.23694,-3.6736 8.23694,-8.2368 l 0,-47.31823 -24.410487,0 c -0.318893,1.00888 -0.2114,2.64953 1.887629,5.44819 0.646022,0.83926 1.645928,2.69636 1.844728,4.46144 0.001,0.028 0.001,0.058 0,0.084 0,2.3278 -1.392409,4.4051 -3.474951,5.8343 -2.082544,1.4297 -4.889935,2.274 -7.979524,2.274 -3.089589,0 -5.90729,-0.8436 -7.979525,-2.274 -2.072233,-1.4299 -3.43205,-3.509 -3.43205,-5.8343 0.01419,-0.8322 0.370369,-1.69755 0.729307,-2.48813 0.358941,-0.79054 0.744593,-1.51474 0.986717,-1.97337 0.02608,-0.0326 0.05476,-0.0584 0.0858,-0.0827 2.099031,-2.79879 2.206521,-4.43945 1.887628,-5.44819 l -6.821203,0 -4.375869,0 z" />
        <path
           style="color:#000000;display:inline;overflow:visible;visibility:visible;fill:#ffffff;fill-opacity:0.36986299;fill-rule:nonzero;stroke:none;stroke-width:2;marker:none;enable-background:accumulate"
           id="path4113"
           inkscape:connector-curvature="0"
           d="m 65.965159,931.35767 0,21.75018 c 1.048218,0.38767 2.77082,0.31353 5.705788,-1.88759 0.803854,-0.61886 2.701273,-1.56552 4.418769,-1.75895 0.01433,-5.5e-4 0.02855,-5.5e-4 0.04284,0 2.271635,0 4.295697,1.33464 5.705789,3.38913 1.410095,2.05436 2.230836,4.83044 2.230836,7.89353 0,3.06298 -0.820084,5.84947 -2.230836,7.89355 -1.410753,2.04392 -3.436159,3.34616 -5.705789,3.34616 -0.791567,-0.0152 -1.619201,-0.33086 -2.402436,-0.68638 -0.783236,-0.3557 -1.511299,-0.74282 -1.97343,-0.98679 -0.0298,-0.0152 -0.05847,-0.0259 -0.0858,-0.0427 -2.934968,-2.20125 -4.65757,-2.27538 -5.705789,-1.88757 l 0,9.65231 0,4.37579 0,7.42137 4.676173,0 4.375867,0 7.378913,0 c 0.208876,0 0.415375,0.11805 0.51481,0.30043 0.730107,1.46031 0.588558,3.78282 -1.887628,7.12141 -0.01112,0.0231 -0.03103,0.0638 -0.04284,0.0827 -0.257966,0.48564 -0.629699,1.1527 -0.943813,1.84473 -0.328657,0.72386 -0.592729,1.46552 -0.600611,1.93062 0,1.8223 1.087576,3.506 2.917246,4.7617 1.829669,1.2558 4.399398,2.0593 7.25021,2.0593 2.850817,0 5.431608,-0.8041 7.250213,-2.0593 1.804313,-1.2451 2.857872,-2.9109 2.874343,-4.7187 -0.0013,-0.019 0.0014,-0.033 0,-0.045 -0.164662,-1.34656 -1.156655,-3.27122 -1.544421,-3.77518 -2.540819,-3.38756 -2.61933,-5.74359 -1.887629,-7.20717 0.09939,-0.1836 0.305932,-0.30409 0.514805,-0.30002 l 24.882391,0 0,-50.23556 c 0,-4.56315 -3.67367,-8.23674 -8.23693,-8.23674 z" />
        <path
           style="color:#000000;display:inline;overflow:visible;visibility:visible;fill:#ffffff;fill-opacity:0.54794521;fill-rule:nonzero;stroke:none;stroke-width:2;marker:none;enable-background:accumulate"
           id="path4109"
           inkscape:connector-curvature="0"
           d="m 6.376138,991.11697 0,47.31823 c 0,4.5632 3.673669,8.2368 8.236926,8.2368 l 50.065076,0 0,-17.2456 c -1.008982,-0.3191 -2.649669,-0.2118 -5.448384,1.8875 -0.854666,0.6578 -2.709827,1.6044 -4.461668,1.8019 -0.02855,0 -0.05725,0 -0.0858,0 -2.325269,0 -4.404284,-1.3599 -5.834491,-3.4321 -1.430203,-2.0722 -2.273735,-4.8899 -2.273735,-7.9794 0,-3.0893 0.844356,-5.8968 2.273735,-7.979 1.429382,-2.0829 3.506723,-3.4748 5.834491,-3.4748 0.832384,0.019 1.697591,0.37 2.488241,0.729 0.790648,0.3592 1.514713,0.7448 1.973428,0.9867 0.0309,0.026 0.05973,0.054 0.0858,0.084 2.801516,2.1012 4.445854,2.2387 5.448384,1.9305 l 0,-12.6124 0,-4.37593 0,-5.87712 -5.877391,0 -4.375869,0 -20.292012,0 c -0.318894,1.0086 -0.211403,2.64953 1.887629,5.44819 0.646021,0.83912 1.645942,2.69647 1.844727,4.46166 0.0014,0.03 0.0014,0.057 0,0.084 0,2.3279 -1.392409,4.4053 -3.474951,5.8344 -2.082546,1.4295 -4.889937,2.2738 -7.979526,2.2738 -3.08959,0 -5.907292,-0.8438 -7.979523,-2.2738 -2.072232,-1.4302 -3.432055,-3.5092 -3.432055,-5.8344 0.01419,-0.8324 0.370375,-1.69785 0.729313,-2.48808 0.35894,-0.79055 0.744592,-1.51474 0.986714,-1.97366 0.02608,-0.0326 0.0549,-0.0584 0.0858,-0.0827 2.099029,-2.79893 2.206521,-4.43958 1.887628,-5.44833 z" />
        <path
           style="color:#000000;display:inline;overflow:visible;visibility:visible;fill:#ffffff;fill-opacity:0.72146116;fill-rule:nonzero;stroke:none;stroke-width:2;marker:none;enable-background:accumulate"
           d="m 14.601931,931.3463 c -4.563257,0 -8.2474336,3.68408 -8.2474336,8.24723 l 0,50.23803 12.8832466,0 c 0.208874,0 0.439616,0.14167 0.539049,0.32322 0.730109,1.46059 0.589515,3.77741 -1.886669,7.11558 -0.01112,0.0231 -0.04195,0.0339 -0.05391,0.053 -0.257968,0.4855 -0.656172,1.14091 -0.970286,1.83266 -0.328655,0.72407 -0.585072,1.47568 -0.592952,1.94078 0,1.8223 1.08119,3.5414 2.91086,4.7972 1.829666,1.2557 4.426331,2.0485 7.277146,2.0485 2.850815,0 5.404641,-0.7933 7.223245,-2.0485 1.804311,-1.2452 2.894383,-2.9356 2.910858,-4.7432 -0.0013,-0.019 0.0014,-0.043 0,-0.053 -0.164666,-1.34721 -1.175473,-3.2698 -1.563239,-3.77363 -2.540818,-3.38743 -2.618368,-5.70586 -1.88667,-7.16931 0.09939,-0.18346 0.330175,-0.32716 0.539051,-0.32322 l 19.35182,0 5.767815,0 6.037338,0 0,-7.43871 0,-4.36612 0,-10.02606 c -0.0039,-0.20893 0.139686,-0.43963 0.323429,-0.53904 1.450799,-0.72536 3.774455,-0.59057 7.115435,1.88664 0.02896,0.022 0.02467,-0.0221 0.0539,0 0.490565,0.26166 1.194177,0.69992 1.886668,1.02417 0.724232,0.33896 1.428187,0.58514 1.886667,0.59292 1.822572,0 3.541713,-1.08125 4.797525,-2.91077 1.25582,-1.82968 2.048385,-4.42624 2.048385,-7.27698 0,-2.85074 -0.793225,-5.40453 -2.048385,-7.22307 -1.245281,-1.80439 -2.93575,-2.89432 -4.743618,-2.9108 -0.01433,-1.2e-4 -0.03963,0 -0.05391,0 -1.346903,0.16449 -3.269578,1.17542 -3.773335,1.56323 -3.387752,2.54074 -5.705939,2.61832 -7.16934,1.88662 -0.183738,-0.0988 -0.327315,-0.3301 -0.323428,-0.53905 l 0,-22.20824 -50.239276,0 z m 0.323429,13.74539 c 0.873458,0 1.797695,0.0164 2.749145,0.10788 0.886184,0.0919 1.697623,0.16184 2.47962,0.16184 0.794729,0 1.721117,-0.07 2.803052,-0.16184 1.134376,-0.0935 2.145989,-0.10788 3.018669,-0.10788 0.209161,0 0.323427,0.21441 0.323427,0.64684 0,0.43244 -0.08534,0.64684 -0.21562,0.64684 -0.873483,0.0769 -1.546438,0.36118 -2.048382,0.80857 -0.501987,0.44753 -0.754695,0.99951 -0.754666,1.7249 -2.9e-5,0.37021 0.114347,0.84564 0.323428,1.40149 l 8.08572,21.6692 4.581908,-10.29556 -4.258478,-10.61899 c -0.76926,-1.89911 -1.391492,-3.11755 -1.88667,-3.66543 -0.495218,-0.54774 -1.260086,-0.90075 -2.264,-1.02419 -0.09061,0 -0.184848,-0.0844 -0.269525,-0.21559 -0.0847,-0.13175 -0.107807,-0.26172 -0.107807,-0.43126 0,-0.43242 0.08747,-0.64683 0.269523,-0.64683 0.873458,0 1.696228,0.0165 2.425715,0.10788 0.704012,0.0919 1.41536,0.16183 2.210099,0.16183 0.781959,0 1.606136,-0.07 2.479619,-0.16183 0.899707,-0.0935 1.82254,-0.10788 2.695242,-0.10788 0.209163,0 0.26951,0.21442 0.269524,0.64683 -1.4e-5,0.43244 -0.03118,0.64685 -0.161708,0.64685 -1.746973,0.1384 -2.641362,0.74443 -2.641335,1.77882 -2.7e-5,0.46359 0.188916,1.18395 0.592952,2.15614 l 2.856954,6.79184 2.80305,-6.25281 c 0.391391,-0.87885 0.592925,-1.60794 0.592952,-2.21005 -2.7e-5,-1.42056 -0.840516,-2.17164 -2.587429,-2.26394 -0.156023,0 -0.269524,-0.21441 -0.269524,-0.64685 -2.8e-5,-0.15457 0.02968,-0.29217 0.107808,-0.43122 0.07782,-0.13887 0.190832,-0.21561 0.269523,-0.21561 0.625236,0 1.405446,0.0165 2.317906,0.10788 0.873457,0.0919 1.542219,0.16183 2.102288,0.16183 0.404088,0 0.996859,-0.0295 1.778856,-0.10787 0.990383,-0.10855 1.814533,-0.16168 2.479623,-0.16168 0.155746,0 0.269523,0.16787 0.269523,0.53904 -5.4e-5,0.49366 -0.144911,0.75466 -0.431237,0.75466 -1.016698,0.12347 -1.86074,0.42992 -2.479622,0.97025 -0.618934,0.54034 -1.391966,1.80515 -2.317905,3.71936 l -3.719432,8.19331 5.067052,12.29 7.492765,-20.69892 c 0.260893,-0.75547 0.431184,-1.41522 0.43124,-2.04835 -5.6e-5,-1.51296 -0.894419,-2.3334 -2.641336,-2.42565 -0.156805,0 -0.215894,-0.21441 -0.215617,-0.64684 -3e-5,-0.43242 0.08865,-0.64686 0.323429,-0.64686 0.638758,0 1.390489,0.0165 2.263999,0.10788 0.808209,0.0919 1.501013,0.16184 2.048384,0.16184 0.573536,0 1.238683,-0.07 1.994478,-0.16184 0.781944,-0.0935 1.476966,-0.10788 2.102286,-0.10788 0.18286,0 0.269468,0.16787 0.269523,0.53904 -2.8e-5,0.18462 -0.0641,0.38447 -0.161705,0.53905 -0.09789,0.1544 -0.206519,0.21561 -0.32343,0.21561 -0.96501,0.10869 -1.705435,0.45303 -2.317908,1.07806 -0.612603,0.62518 -1.289072,1.85175 -1.940572,3.61155 l -9.972385,26.57442 c -0.06506,0.24683 -0.23906,0.37731 -0.53905,0.37731 -0.234697,0 -0.409397,-0.13053 -0.539047,-0.37731 l -5.606099,-13.8532 -6.414671,13.8532 c -0.129722,0.24683 -0.304406,0.37731 -0.539048,0.37731 -0.287206,0 -0.502278,-0.13053 -0.592954,-0.37731 l -9.756784,-26.57444 c -0.612565,-1.65245 -1.262796,-2.84795 -1.940572,-3.50374 -0.677789,-0.65563 -1.6446,-1.03142 -2.856954,-1.18587 -0.104212,0 -0.178467,-0.0844 -0.269523,-0.21561 -0.09117,-0.13175 -0.161724,-0.26153 -0.161724,-0.43123 0,-0.43243 0.114999,-0.64685 0.323429,-0.64685 z"
           id="path4115"
           inkscape:connector-curvature="0" />
      </g>
    </g>
  </g>
</svg>
