<?xml version="1.0" encoding="UTF-8" standalone="no"?>
<svg
   xmlns:dc="http://purl.org/dc/elements/1.1/"
   xmlns:cc="http://creativecommons.org/ns#"
   xmlns:rdf="http://www.w3.org/1999/02/22-rdf-syntax-ns#"
   xmlns:svg="http://www.w3.org/2000/svg"
   xmlns="http://www.w3.org/2000/svg"
   xmlns:xlink="http://www.w3.org/1999/xlink"
   xmlns:sodipodi="http://sodipodi.sourceforge.net/DTD/sodipodi-0.dtd"
   xmlns:inkscape="http://www.inkscape.org/namespaces/inkscape"
   width="48"
   height="48"
   viewBox="0 0 48 48"
   id="svg2"
   version="1.1"
   inkscape:version="0.91 r"
   sodipodi:docname="dialog-question.svg">
  <metadata
     id="metadata14">
    <rdf:RDF>
      <cc:Work
         rdf:about="">
        <dc:format>image/svg+xml</dc:format>
        <dc:type
           rdf:resource="http://purl.org/dc/dcmitype/StillImage" />
      </cc:Work>
    </rdf:RDF>
  </metadata>
  <defs
     id="defs12">
    <linearGradient
       inkscape:collect="always"
       id="linearGradient3342">
      <stop
         style="stop-color:#268bd2;stop-opacity:1;"
         offset="0"
         id="stop3344" />
      <stop
         id="stop3350"
         offset="0.13655569"
         style="stop-color:#80b3ff;stop-opacity:1" />
      <stop
         style="stop-color:#0066ff;stop-opacity:1"
         offset="0.46632633"
         id="stop3352" />
      <stop
         id="stop3354"
         offset="0.82801026"
         style="stop-color:#003380;stop-opacity:1" />
      <stop
         style="stop-color:#268bd2;stop-opacity:0;"
         offset="1"
         id="stop3346" />
    </linearGradient>
    <linearGradient
       inkscape:collect="always"
       xlink:href="#linearGradient3342"
       id="linearGradient3348"
       x1="-3.8644068"
       y1="-3.6610169"
       x2="53.898304"
       y2="53.288136"
       gradientUnits="userSpaceOnUse" />
  </defs>
  <sodipodi:namedview
     pagecolor="#ffffff"
     bordercolor="#666666"
     borderopacity="1"
     objecttolerance="10"
     gridtolerance="10"
     guidetolerance="10"
     inkscape:pageopacity="0"
     inkscape:pageshadow="2"
     inkscape:window-width="1230"
     inkscape:window-height="647"
     id="namedview10"
     showgrid="false"
     inkscape:zoom="4.9166667"
     inkscape:cx="24"
     inkscape:cy="24"
     inkscape:window-x="10"
     inkscape:window-y="34"
     inkscape:window-maximized="0"
     inkscape:current-layer="svg2" />
  <path
     style="fill:url(#linearGradient3348);fill-rule:evenodd;fill-opacity:1"
     d="M 44 24.003906 C 44 35.046875 35.042969 44 24 44 C 12.957031 44 4 35.046875 4 24.003906 C 4 12.957031 12.953125 4 24 4 C 35.046875 4 44 12.957031 44 24.003906 Z "
     id="path4" />
  <path
     style="fill:#fff"
     d="M 20.683594 27.863281 L 20.683594 26.6875 C 20.683594 25.667969 20.921875 24.785156 21.398438 24.03125 C 21.871094 23.28125 22.738281 22.480469 24 21.632812 C 25.214844 20.835938 26.011719 20.191406 26.394531 19.691406 C 26.789062 19.195312 26.984375 18.636719 26.984375 18.023438 C 26.984375 17.335938 26.707031 16.8125 26.152344 16.449219 C 25.597656 16.089844 24.820312 15.910156 23.828125 15.910156 C 22.089844 15.910156 20.113281 16.429688 17.890625 17.46875 L 16 13.988281 C 18.578125 12.664062 21.316406 12 24.207031 12 C 26.589844 12 28.484375 12.523438 29.882812 13.574219 C 31.292969 14.621094 32 16.019531 32 17.769531 C 32 18.933594 31.710938 19.941406 31.132812 20.789062 C 30.554688 21.636719 29.453125 22.589844 27.835938 23.648438 C 26.722656 24.402344 26.019531 24.976562 25.71875 25.367188 C 25.429688 25.757812 25.285156 26.273438 25.285156 26.910156 L 25.285156 27.863281 L 20.683594 27.863281 M 20.128906 33.296875 C 20.128906 32.40625 20.390625 31.734375 20.910156 31.28125 C 21.433594 30.824219 22.191406 30.597656 23.183594 30.597656 C 24.144531 30.597656 24.886719 30.828125 25.40625 31.296875 C 25.9375 31.761719 26.203125 32.429688 26.203125 33.296875 C 26.203125 34.136719 25.9375 34.796875 25.40625 35.285156 C 24.875 35.761719 24.132812 36 23.183594 36 C 22.210938 36 21.460938 35.765625 20.929688 35.300781 C 20.394531 34.824219 20.128906 34.15625 20.128906 33.296875 "
     id="path6" />
  <path
     style="fill:#268bd2;fill-opacity:.102"
     d="M 20.683594 27.863281 L 20.683594 26.6875 C 20.683594 25.667969 20.921875 24.785156 21.398438 24.03125 C 21.871094 23.28125 22.738281 22.480469 24 21.632812 C 25.214844 20.835938 26.011719 20.191406 26.394531 19.691406 C 26.789062 19.195312 26.984375 18.636719 26.984375 18.023438 C 26.984375 17.335938 26.707031 16.8125 26.152344 16.449219 C 25.597656 16.089844 24.820312 15.910156 23.828125 15.910156 C 22.089844 15.910156 20.113281 16.429688 17.890625 17.46875 L 16 13.988281 C 18.578125 12.664062 21.316406 12 24.207031 12 C 26.589844 12 28.484375 12.523438 29.882812 13.574219 C 31.292969 14.621094 32 16.019531 32 17.769531 C 32 18.933594 31.710938 19.941406 31.132812 20.789062 C 30.554688 21.636719 29.453125 22.589844 27.835938 23.648438 C 26.722656 24.402344 26.019531 24.976562 25.71875 25.367188 C 25.429688 25.757812 25.285156 26.273438 25.285156 26.910156 L 25.285156 27.863281 L 20.683594 27.863281 M 20.128906 33.296875 C 20.128906 32.40625 20.390625 31.734375 20.910156 31.28125 C 21.433594 30.824219 22.191406 30.597656 23.183594 30.597656 C 24.144531 30.597656 24.886719 30.828125 25.40625 31.296875 C 25.9375 31.761719 26.203125 32.429688 26.203125 33.296875 C 26.203125 34.136719 25.9375 34.796875 25.40625 35.285156 C 24.875 35.761719 24.132812 36 23.183594 36 C 22.210938 36 21.460938 35.765625 20.929688 35.300781 C 20.394531 34.824219 20.128906 34.15625 20.128906 33.296875 "
     id="path8" />
</svg>
