<?xml version="1.0" encoding="UTF-8" standalone="no"?>
<!-- Created with Inkscape (http://www.inkscape.org/) -->

<svg
   xmlns:dc="http://purl.org/dc/elements/1.1/"
   xmlns:cc="http://creativecommons.org/ns#"
   xmlns:rdf="http://www.w3.org/1999/02/22-rdf-syntax-ns#"
   xmlns:svg="http://www.w3.org/2000/svg"
   xmlns="http://www.w3.org/2000/svg"
   xmlns:sodipodi="http://sodipodi.sourceforge.net/DTD/sodipodi-0.dtd"
   xmlns:inkscape="http://www.inkscape.org/namespaces/inkscape"
   version="1.0"
   width="96"
   height="96"
   id="svg2408"
   inkscape:version="0.48.3.1 r9886"
   sodipodi:docname="gnome-system.svg">
  <sodipodi:namedview
     pagecolor="#ffffff"
     bordercolor="#666666"
     borderopacity="1"
     objecttolerance="10"
     gridtolerance="10"
     guidetolerance="10"
     inkscape:pageopacity="0"
     inkscape:pageshadow="2"
     inkscape:window-width="1280"
     inkscape:window-height="752"
     id="namedview128"
     showgrid="false"
     inkscape:zoom="4"
     inkscape:cx="73.308546"
     inkscape:cy="53.515406"
     inkscape:window-x="0"
     inkscape:window-y="0"
     inkscape:window-maximized="1"
     inkscape:current-layer="svg2408"
     showguides="true"
     inkscape:guide-bbox="true" />
  <defs
     id="defs2410">
    <linearGradient
       x1="45.447727"
       y1="92.539597"
       x2="45.447727"
       y2="7.0165396"
       id="ButtonShadow"
       gradientUnits="userSpaceOnUse"
       gradientTransform="scale(1.0058652,0.994169)">
      <stop
         id="stop3750"
         style="stop-color:#000000;stop-opacity:1"
         offset="0" />
      <stop
         id="stop3752"
         style="stop-color:#000000;stop-opacity:0.58823532"
         offset="1" />
    </linearGradient>
    <filter
       color-interpolation-filters="sRGB"
       id="filter3174">
      <feGaussianBlur
         id="feGaussianBlur3176"
         stdDeviation="1.71" />
    </filter>
  </defs>
  <metadata
     id="metadata2413">
    <rdf:RDF>
      <cc:Work
         rdf:about="">
        <dc:format>image/svg+xml</dc:format>
        <dc:type
           rdf:resource="http://purl.org/dc/dcmitype/StillImage" />
        <dc:title />
      </cc:Work>
    </rdf:RDF>
  </metadata>
  <g
     id="layer2"
     style="display:none">
    <path
       d="M 11,7 C 7.676,7 5,9.676 5,13 l 0,33.6875 c 2.2377507,0.124029 4.660506,0.235683 5.875,0.4375 0.66093,0.10983 -0.08406,0.240848 -1.125,0.34375 C 8.7090622,47.571654 7.3545491,47.665119 6.84375,47.75 6.2216014,47.853382 5.6264179,47.903999 5,48 l 0,1.0625 c 0.3803657,0.03607 0.7183843,0.03125 0.9375,0.03125 0.80883,10e-7 1.1599727,0.215701 1.3125,0.5625 0.1525272,0.346797 0.09375,0.839723 0.09375,1.40625 0,0.424828 -0.9420178,0.663014 -1.15625,1.375 C 6.110939,52.691968 5.5510552,52.945524 5,53.1875 l 0,2.21875 c 0.7355867,0.02497 1.4332639,0.05671 1.84375,0.3125 C 7.1254716,55.894306 6.0687957,56.124098 5,56.3125 l 0,7.5625 c 1.1379643,0.180337 3.3100715,0.925679 3.96875,1.0625 1.090152,0.226446 1.224723,0.33476 0.875,0.4375 -0.3497231,0.102744 -1.173581,0.175172 -2,0.3125 C 6.8656638,65.850029 5.90816,66.141998 5,66.34375 L 5,86 c 0,3.324 2.676,6 6,6 l 13,0 c 0.0954,-0.438237 0.150955,-0.931178 0.25,-1.4375 0.140364,-0.717512 0.25498,-1.34159 0.375,-1.59375 0.03001,-0.06304 0.05815,-0.114053 0.09375,-0.125 0.106804,-0.03285 0.238198,0.191956 0.46875,0.78125 0.304338,0.777871 0.540174,1.646782 0.6875,2.375 l 0.75,0 c 0.276152,-0.493694 0.578538,-1.138496 0.8125,-1.4375 0.09907,-0.126629 0.275237,0.131501 0.53125,0.375 0.256014,0.2435 0.588904,0.486378 0.9375,0.375 0.648614,-0.207227 1.602807,-0.726227 2.03125,-1 0.139883,-0.08938 0.300164,-0.157976 0.40625,-0.1875 0.106087,-0.02952 0.174331,-0.01774 0.25,0 0.151339,0.03548 0.232196,0.144559 0.34375,0.28125 0.223098,0.27338 0.466785,0.656251 1.0625,0.65625 0.478344,0 0.657185,-0.0325 0.78125,0.0625 0.124065,0.095 0.197087,0.314551 0.40625,0.875 l 8.875,0 c -0.04778,-0.593879 1.040547,-2.151517 1.21875,-3.0625 0.19092,-0.975995 0.214078,-1.242419 0.28125,-1.0625 0.06717,0.179919 0.192504,0.793906 0.46875,1.5 0.110448,0.282298 0.213887,0.358235 0.3125,0.28125 0.09861,-0.07699 0.168895,-0.293948 0.25,-0.5625 0.162213,-0.537107 0.285649,-1.296709 0.34375,-1.59375 0.131129,-0.670335 0.128655,-1.786501 0.125,-2.28125 -9.11e-4,-0.123687 -0.0059,-0.217815 0,-0.25 0.01779,-0.09656 0.08067,0.312079 0.28125,1.59375 0.163819,1.046767 0.54767,2.687946 0.71875,3.5625 0.169798,0.867992 0.298106,1.322124 0.40625,1.875 l 28.21875,0 c 0.03877,-0.494956 0.03519,-1.098589 0.0625,-1.5 0.02049,-0.301057 0.06649,-0.487005 0.15625,-0.46875 0.02992,0.0061 0.05077,0.03882 0.09375,0.09375 0.233449,0.298339 0.630596,1.164908 0.96875,1.875 L 85,92 c 3.324,0 6,-2.676 6,-6 l 0,-7.21875 c -0.16942,0.0045 -0.290112,-4e-6 -0.5,0 -1.330307,0 -2.638456,-4e-6 -3.96875,0 -1.226564,0 -2.05394,-9.64e-4 -2.25,-0.0625 -0.19606,-0.06154 0.232972,-0.183183 1.46875,-0.5 C 86.405034,78.050819 89.092469,77.290673 91,76.875 L 91,38.46875 C 90.34725,38.202412 89.792969,37.980093 89.25,37.5625 89.107486,37.452886 88.801155,37.170028 88.28125,37 87.761349,36.829972 87.007124,36.743855 86,36.9375 c -1.533473,0.294852 -1.685602,0.283469 -1.25,0.15625 0.4356,-0.127221 1.468635,-0.381012 2.25,-0.53125 1.152717,-0.221645 2.722214,-1.204246 4,-1.84375 l 0,-4.5625 c -0.69831,-0.257978 -1.422206,-0.558272 -1.75,-1.0625 -0.209707,-0.322576 -0.321618,-0.513018 -0.3125,-0.625 0.0091,-0.111981 0.13299,-0.149124 0.25,-0.1875 0.117011,-0.03837 0.261032,-0.05449 0.375,-0.15625 0.11397,-0.101759 0.187497,-0.291619 0.1875,-0.59375 0,-0.32292 0.08246,-0.887065 0.0625,-1.40625 -0.01,-0.259593 -0.03562,-0.49724 -0.125,-0.6875 -0.08939,-0.19026 -0.219089,-0.333004 -0.4375,-0.375 -0.574572,-0.110478 -0.848143,-0.233682 -0.90625,-0.34375 -0.05811,-0.110067 0.07208,-0.18937 0.28125,-0.28125 0.418339,-0.18376 1.132532,-0.339398 1.125,-0.34375 -0.668701,-0.385725 -5.247169,-0.921226 -5,-0.96875 0.332574,-0.06395 0.667437,-0.123553 1,-0.1875 1.047644,-0.201439 2.43278,-0.309227 3.75,-0.5625 0.573261,-0.110227 0.911769,-0.250569 1.125,-0.4375 0.213229,-0.18693 0.294201,-0.423258 0.375,-0.625 L 91,13 C 91,9.676 88.324,7 85,7 L 33.625,7 C 33.72158,8.3975706 33.82658,9.959362 33.53125,9.1875 33.320827,8.6375466 33.210422,8.0499534 33,7.5 32.946762,7.3608606 32.903941,7.1705291 32.84375,7 L 30.8125,7 C 30.571803,7.4923127 30.362863,7.9708281 30.03125,8.1875 29.524321,8.5187294 29.245447,8.6821159 29,8.59375 28.754552,8.5053839 28.523162,8.1669814 28.15625,7.6875 27.992502,7.4735174 27.721718,7.2560338 27.40625,7 l -6.8125,0 -1.3125,5.5625 L 17.53125,7 17.3125,7 15.5625,15.9375 14.15625,7 11,7 z"
       inkscape:connector-curvature="0"
       id="rect3745"
       style="opacity:0.9;fill:url(#ButtonShadow);fill-opacity:1;fill-rule:nonzero;stroke:none;filter:url(#filter3174)" />
  </g>
  <rect
     y="0"
     x="0"
     height="96"
     width="96"
     id="rect6228"
     style="fill:#b0bbbf;fill-opacity:1;stroke:none" />
  <rect
     y="0"
     x="0"
     height="2.5"
     width="96"
     id="rect3880"
     style="opacity:0.3122172;fill:#ffffff;fill-opacity:1;stroke:none" />
  <rect
     style="opacity:0.38914029;fill:#53676c;fill-opacity:1;stroke:none"
     id="rect3878"
     width="96"
     height="2.5"
     x="0"
     y="93.5" />
  <path
     sodipodi:type="arc"
     style="fill:#213c48;fill-opacity:1;stroke:none"
     id="path4833"
     sodipodi:cx="35.708893"
     sodipodi:cy="27.764196"
     sodipodi:rx="33.941124"
     sodipodi:ry="33.941124"
     d="m 69.650017,27.764196 a 33.941124,33.941124 0 1 1 -67.8822481,0 33.941124,33.941124 0 1 1 67.8822481,0 z"
     transform="matrix(1.1372843,0,0,1.1372843,7.3888368,16.424215)" />
  <path
     style="fill:#cccccc;fill-opacity:1;stroke:none"
     d="m 46.233276,13.718891 c -0.549598,0.02792 -1.12231,0.08247 -1.664797,0.135902 l -0.985289,4.280908 c -0.821695,0.120366 -1.613427,0.222665 -2.412258,0.407705 l -2.446233,-3.567423 c -0.565264,0.158254 -1.145717,0.289575 -1.698773,0.475656 l 0,4.41681 c -0.763377,0.297888 -1.510608,0.62864 -2.24238,0.985289 l -3.159718,-2.955865 c -0.496705,0.270942 -1.047455,0.521014 -1.528896,0.815411 l 0.951313,4.280908 c -0.674105,0.457551 -1.336861,0.951876 -1.970576,1.460944 l -3.805252,-2.174429 c -0.429178,0.379168 -0.84744,0.721281 -1.257092,1.12119 l 1.86865,3.975129 c -0.552772,0.592996 -1.058708,1.198681 -1.562871,1.834675 l -4.178982,-1.257092 c -0.336079,0.466782 -0.672485,0.97699 -0.985288,1.460945 l 2.718037,3.397546 c -0.405009,0.696164 -0.771607,1.444408 -1.12119,2.174429 l -4.348859,-0.271804 c -0.224293,0.531352 -0.48162,1.018259 -0.679509,1.562872 l 3.397546,2.718036 c -0.242101,0.778393 -0.432049,1.608304 -0.611559,2.412258 l -4.280908,0.645534 c -0.09903,0.564683 -0.20073,1.124938 -0.271803,1.698773 l 3.941153,1.902626 c -0.05969,0.776206 -0.135902,1.552798 -0.135902,2.344306 0,0.03161 -8.7e-5,0.07032 0,0.101927 l -4.04308,1.596847 c 0.02792,0.567527 0.08075,1.172792 0.135902,1.732748 l 4.280908,0.985288 c 0.120366,0.82168 0.222684,1.613427 0.407706,2.412258 l -3.567423,2.446233 c 0.158254,0.565263 0.289562,1.145719 0.475656,1.698773 l 4.41681,0 c 0.297875,0.763379 0.628649,1.510608 0.985288,2.242381 l -2.955865,3.159717 c 0.270945,0.496704 0.521015,1.047443 0.815411,1.528896 l 4.280908,-0.951313 c 0.457554,0.674119 0.951889,1.336862 1.460945,1.970577 l -2.174429,3.805251 c 0.379166,0.429185 0.72129,0.847451 1.12119,1.257093 l 3.975129,-1.868651 c 0.592999,0.552764 1.198676,1.058689 1.834674,1.562871 l -1.257092,4.178982 c 0.466796,0.336091 0.976982,0.672493 1.460945,0.985288 l 3.397546,-2.718036 c 0.696176,0.405005 1.444408,0.771613 2.17443,1.12119 l -0.271804,4.348859 c 0.531354,0.224284 1.018253,0.481615 1.562871,0.679509 l 2.718037,-3.363571 c 0.778402,0.242116 1.608295,0.398073 2.412258,0.577583 l 0.645533,4.280908 c 0.564678,0.09903 1.124952,0.200717 1.698773,0.271804 l 1.902626,-3.941154 c 0.776206,0.05966 1.552793,0.135902 2.344307,0.135902 0.03164,0 0.0704,9.2e-5 0.101926,0 l 1.596847,4.04308 c 0.567526,-0.02792 1.172789,-0.08075 1.732748,-0.135902 L 52.41681,77.86456 c 0.821695,-0.120366 1.613427,-0.222678 2.412258,-0.407705 l 2.446233,3.567423 c 0.565253,-0.158254 1.145696,-0.289562 1.698773,-0.475656 l 0,-4.41681 c 0.763377,-0.297875 1.510619,-0.594664 2.24238,-0.951313 l 3.159718,2.921889 c 0.496694,-0.270942 1.047455,-0.521014 1.528896,-0.815411 l -0.951313,-4.280908 c 0.674105,-0.457538 1.336861,-0.951889 1.970576,-1.460944 l 3.805252,2.174429 c 0.429167,-0.379168 0.84744,-0.721294 1.257092,-1.12119 l -1.86865,-3.975129 c 0.552772,-0.592996 1.058708,-1.19868 1.562871,-1.834675 l 4.178982,1.257092 c 0.336079,-0.466796 0.672485,-0.977003 0.985288,-1.460945 l -2.718037,-3.397546 c 0.405009,-0.696177 0.771607,-1.444407 1.12119,-2.174429 l 4.348859,0.271803 c 0.224303,-0.531352 0.481636,-1.018258 0.679509,-1.562871 L 76.879141,57.003627 C 77.121242,56.225222 77.31119,55.395324 77.4907,54.59137 l 4.280908,-0.645534 c 0.09905,-0.564683 0.200732,-1.124951 0.271803,-1.698773 l -3.941153,-1.902626 c 0.05969,-0.776207 0.135902,-1.552798 0.135902,-2.344307 0,-0.0316 1.08e-4,-0.07032 0,-0.101926 l 4.04308,-1.596847 C 82.2533,45.73383 82.20048,45.128551 82.145338,44.568609 L 77.86443,43.583321 c -0.120366,-0.821693 -0.222662,-1.613427 -0.407706,-2.412258 l 3.567423,-2.446233 c -0.158265,-0.56525 -0.289568,-1.145706 -0.475656,-1.698773 l -4.41681,0 c -0.297886,-0.763379 -0.628627,-1.510608 -0.985288,-2.242381 l 2.955865,-3.159717 c -0.270945,-0.496704 -0.521015,-1.047456 -0.815411,-1.528896 l -4.280908,0.951313 C 72.548385,30.37227 72.05405,29.709515 71.544994,29.075799 l 2.174429,-3.805251 c -0.379166,-0.429172 -0.72129,-0.847438 -1.12119,-1.257093 l -3.975129,1.868651 C 68.030105,25.329342 67.424418,24.823417 66.78843,24.319235 l 1.257092,-4.178982 C 67.578726,19.804162 67.06854,19.467761 66.584577,19.154965 l -3.397546,2.718036 c -0.696155,-0.404992 -1.444408,-0.771613 -2.17443,-1.12119 l 0.271804,-4.348859 C 60.75304,16.178666 60.266152,15.921324 59.721534,15.723443 l -2.718037,3.397546 C 56.225095,18.878874 55.395213,18.68894 54.591239,18.509431 l -0.645533,-4.280908 c -0.564689,-0.09903 -1.124942,-0.200717 -1.698773,-0.271804 l -1.902626,3.941154 C 49.568101,17.838213 48.791503,17.761971 48,17.761971 c -0.03164,0 -0.0704,-9.2e-5 -0.101926,0 l -1.596847,-4.04308 c -0.01783,8.69e-4 -0.05034,-8.96e-4 -0.06795,0 z M 48,24.625014 c 12.438628,0 22.63044,9.754439 23.341141,22.016098 l -11.483705,0 C 59.183591,40.678028 54.146514,36.074744 48,36.074744 c -1.418467,0 -2.782074,0.227926 -4.04308,0.679509 l -5.775828,-9.95481 C 41.168084,25.41237 44.492091,24.625014 48,24.625014 z m -13.556209,4.382834 5.741853,9.95481 c -2.534482,2.188087 -4.145006,5.417692 -4.145006,9.037472 0,3.854248 1.83025,7.263166 4.654638,9.445178 l -5.741853,9.920835 C 28.736632,63.164805 24.624883,56.061927 24.624883,48.00013 c 0,-7.833905 3.896208,-14.751247 9.818908,-18.992282 z M 48,42.665983 c 2.949374,0 5.334147,2.384758 5.334147,5.334147 0,2.949377 -2.384773,5.334148 -5.334147,5.334148 -2.949374,0 -5.334147,-2.384771 -5.334147,-5.334148 0,-2.949389 2.384773,-5.334147 5.334147,-5.334147 z m 11.551657,8.323988 11.619607,0 C 69.700969,62.478154 59.885475,71.375247 48,71.375247 c -3.279148,0 -6.408141,-0.681346 -9.241325,-1.902626 l 5.775828,-10.02276 c 1.093042,0.32848 2.263864,0.509632 3.465497,0.509632 5.5749,0 10.228614,-3.81374 11.551657,-8.969522 z"
     id="path3825"
     inkscape:connector-curvature="0" />
</svg>
