<?xml version="1.0" encoding="UTF-8" standalone="no"?>
<!-- Created with Inkscape (http://www.inkscape.org/) -->

<svg
   xmlns:dc="http://purl.org/dc/elements/1.1/"
   xmlns:cc="http://creativecommons.org/ns#"
   xmlns:rdf="http://www.w3.org/1999/02/22-rdf-syntax-ns#"
   xmlns:svg="http://www.w3.org/2000/svg"
   xmlns="http://www.w3.org/2000/svg"
   xmlns:sodipodi="http://sodipodi.sourceforge.net/DTD/sodipodi-0.dtd"
   xmlns:inkscape="http://www.inkscape.org/namespaces/inkscape"
   version="1.0"
   width="96"
   height="96"
   id="svg2408"
   inkscape:version="0.48.3.1 r9886"
   sodipodi:docname="gnome-stock-trash.svg">
  <sodipodi:namedview
     pagecolor="#ffffff"
     bordercolor="#666666"
     borderopacity="1"
     objecttolerance="10"
     gridtolerance="10"
     guidetolerance="10"
     inkscape:pageopacity="0"
     inkscape:pageshadow="2"
     inkscape:window-width="1280"
     inkscape:window-height="752"
     id="namedview128"
     showgrid="false"
     inkscape:zoom="1.4142136"
     inkscape:cx="16.116746"
     inkscape:cy="129.93199"
     inkscape:window-x="0"
     inkscape:window-y="0"
     inkscape:window-maximized="1"
     inkscape:current-layer="svg2408"
     showguides="true"
     inkscape:guide-bbox="true" />
  <defs
     id="defs2410">
    <linearGradient
       x1="45.447727"
       y1="92.539597"
       x2="45.447727"
       y2="7.0165396"
       id="ButtonShadow"
       gradientUnits="userSpaceOnUse"
       gradientTransform="scale(1.0058652,0.994169)">
      <stop
         id="stop3750"
         style="stop-color:#000000;stop-opacity:1"
         offset="0" />
      <stop
         id="stop3752"
         style="stop-color:#000000;stop-opacity:0.58823532"
         offset="1" />
    </linearGradient>
    <filter
       color-interpolation-filters="sRGB"
       id="filter3174">
      <feGaussianBlur
         id="feGaussianBlur3176"
         stdDeviation="1.71" />
    </filter>
  </defs>
  <metadata
     id="metadata2413">
    <rdf:RDF>
      <cc:Work
         rdf:about="">
        <dc:format>image/svg+xml</dc:format>
        <dc:type
           rdf:resource="http://purl.org/dc/dcmitype/StillImage" />
        <dc:title></dc:title>
      </cc:Work>
    </rdf:RDF>
  </metadata>
  <g
     id="layer2"
     style="display:none">
    <path
       d="M 11,7 C 7.676,7 5,9.676 5,13 l 0,33.6875 c 2.2377507,0.124029 4.660506,0.235683 5.875,0.4375 0.66093,0.10983 -0.08406,0.240848 -1.125,0.34375 C 8.7090622,47.571654 7.3545491,47.665119 6.84375,47.75 6.2216014,47.853382 5.6264179,47.903999 5,48 l 0,1.0625 c 0.3803657,0.03607 0.7183843,0.03125 0.9375,0.03125 0.80883,10e-7 1.1599727,0.215701 1.3125,0.5625 0.1525272,0.346797 0.09375,0.839723 0.09375,1.40625 0,0.424828 -0.9420178,0.663014 -1.15625,1.375 C 6.110939,52.691968 5.5510552,52.945524 5,53.1875 l 0,2.21875 c 0.7355867,0.02497 1.4332639,0.05671 1.84375,0.3125 C 7.1254716,55.894306 6.0687957,56.124098 5,56.3125 l 0,7.5625 c 1.1379643,0.180337 3.3100715,0.925679 3.96875,1.0625 1.090152,0.226446 1.224723,0.33476 0.875,0.4375 -0.3497231,0.102744 -1.173581,0.175172 -2,0.3125 C 6.8656638,65.850029 5.90816,66.141998 5,66.34375 L 5,86 c 0,3.324 2.676,6 6,6 l 13,0 c 0.0954,-0.438237 0.150955,-0.931178 0.25,-1.4375 0.140364,-0.717512 0.25498,-1.34159 0.375,-1.59375 0.03001,-0.06304 0.05815,-0.114053 0.09375,-0.125 0.106804,-0.03285 0.238198,0.191956 0.46875,0.78125 0.304338,0.777871 0.540174,1.646782 0.6875,2.375 l 0.75,0 c 0.276152,-0.493694 0.578538,-1.138496 0.8125,-1.4375 0.09907,-0.126629 0.275237,0.131501 0.53125,0.375 0.256014,0.2435 0.588904,0.486378 0.9375,0.375 0.648614,-0.207227 1.602807,-0.726227 2.03125,-1 0.139883,-0.08938 0.300164,-0.157976 0.40625,-0.1875 0.106087,-0.02952 0.174331,-0.01774 0.25,0 0.151339,0.03548 0.232196,0.144559 0.34375,0.28125 0.223098,0.27338 0.466785,0.656251 1.0625,0.65625 0.478344,0 0.657185,-0.0325 0.78125,0.0625 0.124065,0.095 0.197087,0.314551 0.40625,0.875 l 8.875,0 c -0.04778,-0.593879 1.040547,-2.151517 1.21875,-3.0625 0.19092,-0.975995 0.214078,-1.242419 0.28125,-1.0625 0.06717,0.179919 0.192504,0.793906 0.46875,1.5 0.110448,0.282298 0.213887,0.358235 0.3125,0.28125 0.09861,-0.07699 0.168895,-0.293948 0.25,-0.5625 0.162213,-0.537107 0.285649,-1.296709 0.34375,-1.59375 0.131129,-0.670335 0.128655,-1.786501 0.125,-2.28125 -9.11e-4,-0.123687 -0.0059,-0.217815 0,-0.25 0.01779,-0.09656 0.08067,0.312079 0.28125,1.59375 0.163819,1.046767 0.54767,2.687946 0.71875,3.5625 0.169798,0.867992 0.298106,1.322124 0.40625,1.875 l 28.21875,0 c 0.03877,-0.494956 0.03519,-1.098589 0.0625,-1.5 0.02049,-0.301057 0.06649,-0.487005 0.15625,-0.46875 0.02992,0.0061 0.05077,0.03882 0.09375,0.09375 0.233449,0.298339 0.630596,1.164908 0.96875,1.875 L 85,92 c 3.324,0 6,-2.676 6,-6 l 0,-7.21875 c -0.16942,0.0045 -0.290112,-4e-6 -0.5,0 -1.330307,0 -2.638456,-4e-6 -3.96875,0 -1.226564,0 -2.05394,-9.64e-4 -2.25,-0.0625 -0.19606,-0.06154 0.232972,-0.183183 1.46875,-0.5 C 86.405034,78.050819 89.092469,77.290673 91,76.875 L 91,38.46875 C 90.34725,38.202412 89.792969,37.980093 89.25,37.5625 89.107486,37.452886 88.801155,37.170028 88.28125,37 87.761349,36.829972 87.007124,36.743855 86,36.9375 c -1.533473,0.294852 -1.685602,0.283469 -1.25,0.15625 0.4356,-0.127221 1.468635,-0.381012 2.25,-0.53125 1.152717,-0.221645 2.722214,-1.204246 4,-1.84375 l 0,-4.5625 c -0.69831,-0.257978 -1.422206,-0.558272 -1.75,-1.0625 -0.209707,-0.322576 -0.321618,-0.513018 -0.3125,-0.625 0.0091,-0.111981 0.13299,-0.149124 0.25,-0.1875 0.117011,-0.03837 0.261032,-0.05449 0.375,-0.15625 0.11397,-0.101759 0.187497,-0.291619 0.1875,-0.59375 0,-0.32292 0.08246,-0.887065 0.0625,-1.40625 -0.01,-0.259593 -0.03562,-0.49724 -0.125,-0.6875 -0.08939,-0.19026 -0.219089,-0.333004 -0.4375,-0.375 -0.574572,-0.110478 -0.848143,-0.233682 -0.90625,-0.34375 -0.05811,-0.110067 0.07208,-0.18937 0.28125,-0.28125 0.418339,-0.18376 1.132532,-0.339398 1.125,-0.34375 -0.668701,-0.385725 -5.247169,-0.921226 -5,-0.96875 0.332574,-0.06395 0.667437,-0.123553 1,-0.1875 1.047644,-0.201439 2.43278,-0.309227 3.75,-0.5625 0.573261,-0.110227 0.911769,-0.250569 1.125,-0.4375 0.213229,-0.18693 0.294201,-0.423258 0.375,-0.625 L 91,13 C 91,9.676 88.324,7 85,7 L 33.625,7 C 33.72158,8.3975706 33.82658,9.959362 33.53125,9.1875 33.320827,8.6375466 33.210422,8.0499534 33,7.5 32.946762,7.3608606 32.903941,7.1705291 32.84375,7 L 30.8125,7 C 30.571803,7.4923127 30.362863,7.9708281 30.03125,8.1875 29.524321,8.5187294 29.245447,8.6821159 29,8.59375 28.754552,8.5053839 28.523162,8.1669814 28.15625,7.6875 27.992502,7.4735174 27.721718,7.2560338 27.40625,7 l -6.8125,0 -1.3125,5.5625 L 17.53125,7 17.3125,7 15.5625,15.9375 14.15625,7 11,7 z"
       inkscape:connector-curvature="0"
       id="rect3745"
       style="opacity:0.9;fill:url(#ButtonShadow);fill-opacity:1;fill-rule:nonzero;stroke:none;filter:url(#filter3174)" />
  </g>
  <rect
     y="0"
     x="0"
     height="96"
     width="96"
     id="rect6228"
     style="fill:#4fd76b;fill-opacity:1;stroke:none" />
  <rect
     style="fill:#80da67;fill-opacity:1;stroke:none"
     id="rect4912"
     width="96"
     height="44.027653"
     x="0"
     y="0" />
  <rect
     y="0"
     x="0"
     height="2.5"
     width="96"
     id="rect3880"
     style="opacity:0.51131222;fill:#ffffff;fill-opacity:1;stroke:none" />
  <rect
     style="opacity:0.38914029;fill:#164450;fill-opacity:1;stroke:none"
     id="rect3878"
     width="96"
     height="2.5"
     x="0"
     y="93.5" />
  <rect
     y="179.25"
     x="-143.1875"
     height="2.25"
     width="22.5"
     id="rect3881"
     style="fill:#000000;fill-opacity:0;stroke:none" />
  <path
     style="font-size:medium;font-style:normal;font-variant:normal;font-weight:normal;font-stretch:normal;text-indent:0;text-align:start;text-decoration:none;line-height:normal;letter-spacing:normal;word-spacing:normal;text-transform:none;direction:ltr;block-progression:tb;writing-mode:lr-tb;text-anchor:start;baseline-shift:baseline;color:#000000;fill:#d4ff2a;fill-opacity:1;fill-rule:nonzero;stroke:none;stroke-width:0.99999994;marker:none;visibility:visible;display:inline;overflow:visible;enable-background:accumulate;font-family:Sans;-inkscape-font-specification:Sans"
     d="m 48.197351,49.722852 c -3.027221,0 -4.894979,1.941849 -6.756002,3.953974 -1.08319,1.171137 -2.15276,2.548954 -3.175634,4.016242 -0.359012,-0.150694 -0.717155,-0.313305 -0.996277,-0.404737 -0.18684,-0.0612 -0.343775,-0.09783 -0.498139,-0.124534 -0.154363,-0.0267 -0.293624,-0.100197 -0.59154,0.09341 -0.232536,0.151113 -0.241663,0.283629 -0.280202,0.404738 -0.03854,0.121108 -0.07335,0.231411 -0.0934,0.373603 -0.04012,0.284387 -0.05103,0.646482 -0.06227,1.058546 -0.02251,0.824124 0.0054,1.875813 0.06227,2.926562 0.05697,1.050748 0.137669,2.109544 0.249069,2.926564 0.05571,0.408511 0.116275,0.748965 0.186802,1.027411 0.03528,0.139224 0.07327,0.257407 0.124535,0.373605 0.05127,0.116195 0.09571,0.24797 0.34247,0.373604 0.246551,0.125526 0.374062,0.08929 0.498138,0.06227 0.124077,-0.02702 0.240579,-0.07103 0.373604,-0.124535 0.266053,-0.107012 0.572075,-0.271434 0.93401,-0.467006 0.723871,-0.391139 1.641819,-0.952753 2.521826,-1.525548 0.880009,-0.572796 1.715383,-1.146506 2.366158,-1.650085 0.325387,-0.251789 0.603868,-0.485008 0.809476,-0.684939 0.1028,-0.09997 0.205253,-0.208889 0.280204,-0.311338 0.07496,-0.102446 0.170222,-0.190934 0.155668,-0.467004 -0.0162,-0.307177 -0.154104,-0.369942 -0.249071,-0.467005 -0.09497,-0.09708 -0.183865,-0.185507 -0.311335,-0.280204 -0.129297,-0.09605 -0.331821,-0.234554 -0.49814,-0.342468 1.22435,-1.895445 2.511814,-3.714971 3.798307,-5.105922 1.69901,-1.83696 3.243933,-3.10553 4.763451,-3.237901 a 0.49818832,0.49818832 0 0 0 0.280203,-0.902876 c -1.169453,-0.896234 -2.535294,-1.494421 -4.23418,-1.494419 z m 4.265311,3.175634 c -0.547445,-2e-6 -1.108479,0.263872 -1.774617,0.68494 -0.66614,0.421069 -1.401723,1.03335 -2.179357,1.805752 a 0.49818832,0.49818832 0 0 0 0.06227,0.747209 c 0.493843,0.315054 1.198654,0.859046 1.930287,1.650083 1.45354,1.571559 3.110313,3.857083 4.514382,6.288999 a 0.49818832,0.49818832 0 0 0 0.373602,0.24907 c 0.878048,0.100723 1.805074,0.06548 2.677495,-0.342472 0.872421,-0.407945 1.674006,-1.180443 2.241624,-2.428425 a 0.49818832,0.49818832 0 0 0 -0.03113,-0.467004 c -1.173543,-2.032635 -2.495748,-3.991562 -3.860574,-5.69746 0.04145,0.05179 0.02151,0.01073 -0.06227,-0.0934 a 0.49818832,0.49818832 0 0 0 -0.03113,-0.03113 C 55.563055,54.52157 54.825325,53.918414 54.17502,53.521159 53.524716,53.123905 52.991419,52.898487 52.462669,52.898487 z m 7.316412,11.550587 c -0.178283,-0.01943 -0.409185,0.06673 -0.498141,0.124535 -0.231782,0.150623 -0.241602,0.283794 -0.280201,0.404737 -0.03861,0.120944 -0.07334,0.23179 -0.09341,0.373604 -0.04014,0.283629 -0.05101,0.647902 -0.06227,1.058544 -0.02251,0.821284 0.0054,1.879668 0.06227,2.926564 0.05696,1.046895 0.137647,2.081259 0.249069,2.89543 0.05571,0.407086 0.116227,0.74974 0.186802,1.02741 0.03529,0.138835 0.07319,0.257608 0.124535,0.373604 0.05134,0.115998 0.09656,0.248406 0.342469,0.373604 0.265679,0.135267 0.398701,0.06384 0.529274,0.03113 0.13057,-0.0327 0.261308,-0.06276 0.404736,-0.124533 0.148634,-0.06402 0.35033,-0.188777 0.529273,-0.280204 1.031181,2.008924 1.960039,4.042111 2.521826,5.853127 0.740723,2.387846 1.050258,4.376751 0.404738,5.759727 a 0.49818832,0.49818832 0 0 0 0.622672,0.68494 c 1.360595,-0.564538 2.60411,-1.451323 3.455837,-2.926564 1.513791,-2.621964 0.750091,-5.226893 -0.06227,-7.845681 -0.475901,-1.534148 -1.167989,-3.125488 -1.930287,-4.732316 0.305298,-0.230834 0.622652,-0.462039 0.84061,-0.653806 0.149776,-0.131783 0.301915,-0.253008 0.404738,-0.373604 0.102822,-0.120597 0.236999,-0.198794 0.217934,-0.560406 -0.0137,-0.259792 -0.107457,-0.345654 -0.186802,-0.435872 -0.07934,-0.09022 -0.177902,-0.166938 -0.280203,-0.249069 -0.204596,-0.164263 -0.46189,-0.331321 -0.778334,-0.529271 C 65.871049,67.2288 65.011372,66.768494 64.137782,66.317088 63.264188,65.865684 62.35943,65.40772 61.58482,65.071742 60.81021,64.735766 60.251926,64.500565 59.779069,64.449069 z m -26.899482,2.085955 c -0.31179,-0.01546 -0.661152,-0.0014 -0.996278,0.03113 a 0.49818832,0.49818832 0 0 0 -0.373602,0.24907 c -1.174814,2.034838 -2.195019,4.132415 -2.988832,6.164465 -0.01889,0.02643 -0.03717,0.02864 -0.06227,0.0934 a 0.49818832,0.49818832 0 0 0 -0.03113,0.06227 c -0.263518,1.030236 -0.385772,1.973306 -0.404737,2.739764 -0.01897,0.766455 0.04572,1.345679 0.311336,1.805751 0.277007,0.479788 0.789184,0.816984 1.494416,1.183078 0.705231,0.366095 1.620309,0.709178 2.677494,0.996278 a 0.49818832,0.49818832 0 0 0 0.622674,-0.435872 c 0.02605,-0.588277 0.117946,-1.496936 0.435871,-2.521826 0.634368,-2.044994 1.802931,-4.635827 3.206767,-7.06734 a 0.49818832,0.49818832 0 0 0 0.03113,-0.435872 c -0.618525,-1.425439 -1.800335,-2.759101 -3.922848,-2.864282 z m -5.635193,11.550587 a 0.49818832,0.49818832 0 0 0 -0.311335,0.435871 c -0.190502,1.453781 -0.07463,2.943589 0.778341,4.42098 1.514527,2.623239 4.144225,3.285855 6.818271,3.891708 1.554086,0.352104 3.303608,0.567293 5.074785,0.716073 0.04774,0.377089 0.09748,0.748873 0.155669,1.027411 0.03969,0.190029 0.07053,0.352358 0.124535,0.498139 0.05401,0.14578 0.06565,0.310215 0.373603,0.467004 0.245701,0.125095 0.37416,0.08891 0.49814,0.06227 0.123977,-0.02665 0.24058,-0.07152 0.373604,-0.124536 0.266046,-0.106054 0.572059,-0.272924 0.93401,-0.467004 0.723901,-0.388158 1.641782,-0.925529 2.521825,-1.494417 0.880044,-0.568887 1.715279,-1.149421 2.366158,-1.650083 0.325441,-0.25033 0.603706,-0.485816 0.809476,-0.684939 0.10288,-0.09956 0.205071,-0.209001 0.280203,-0.311337 0.07513,-0.102332 0.170218,-0.19099 0.155667,-0.467005 -0.01452,-0.275426 -0.132864,-0.341815 -0.217935,-0.435872 -0.08507,-0.09406 -0.167735,-0.191482 -0.280203,-0.280203 -0.224938,-0.177439 -0.522554,-0.375002 -0.871741,-0.591539 -0.698378,-0.433074 -1.619897,-0.923002 -2.552961,-1.401016 -0.933064,-0.478014 -1.887064,-0.931759 -2.646362,-1.245345 -0.379649,-0.156793 -0.689738,-0.294892 -0.965142,-0.373604 -0.137703,-0.03934 -0.278527,-0.04834 -0.404739,-0.06227 -0.126211,-0.01394 -0.266269,-0.05727 -0.498138,0.0934 -0.258032,0.167682 -0.242713,0.305903 -0.280203,0.435871 -0.03749,0.129966 -0.07382,0.278485 -0.0934,0.435871 -0.02011,0.161626 -0.01974,0.391693 -0.03113,0.591539 -2.258174,-0.110414 -4.472743,-0.32865 -6.320132,-0.747207 -2.438181,-0.552415 -4.32292,-1.269202 -5.199322,-2.521828 a 0.49818832,0.49818832 0 0 0 -0.529272,-0.217935 0.49818832,0.49818832 0 0 0 -0.06227,0 z m 35.39897,1.961421 a 0.49818832,0.49818832 0 0 0 -0.124535,0.06227 c -0.516589,0.268503 -1.377654,0.602536 -2.428424,0.840609 -2.088689,0.473228 -4.882587,0.778342 -7.690013,0.778342 a 0.49818832,0.49818832 0 0 0 -0.404739,0.186801 c -0.529045,0.713829 -0.955553,1.556498 -1.027411,2.521828 -0.07185,0.965327 0.230991,2.029716 1.027411,3.1445 a 0.49818832,0.49818832 0 0 0 0.404739,0.217935 c 2.35084,0 4.693426,-0.169691 6.849403,-0.498139 -0.109147,0.0167 -0.0816,0.02719 0.09341,0 a 0.49818832,0.49818832 0 0 0 0.06227,-0.03113 c 1.022769,-0.286568 1.883782,-0.603646 2.55296,-0.965143 0.669175,-0.361498 1.167052,-0.723919 1.432148,-1.18308 0.275804,-0.477703 0.312146,-1.104134 0.280203,-1.899153 -0.03194,-0.795018 -0.186766,-1.741863 -0.467005,-2.80203 A 0.49818832,0.49818832 0 0 0 62.643373,80.04704 z"
     id="path4853"
     inkscape:connector-curvature="0" />
  <g
     id="g4890"
     transform="translate(0,-16.831999)">
    <rect
       y="58.374371"
       x="0"
       height="2.5"
       width="96"
       id="rect4878"
       style="opacity:0.51131227000000001;fill:#c1edb4;fill-opacity:1;stroke:none" />
    <rect
       style="opacity:0.38914029;fill:#164450;fill-opacity:1;stroke:none"
       id="rect4880"
       width="96"
       height="2.5"
       x="0"
       y="60.846642" />
  </g>
  <rect
     style="fill:#2b1100;fill-opacity:1;stroke:none"
     id="rect4920"
     width="83.287704"
     height="23.280909"
     x="6.3561478"
     y="9.7404737" />
  <rect
     y="-35.662613"
     x="6.3561478"
     height="2.6412313"
     width="83.287704"
     id="rect4922"
     style="opacity:0.73755654999999998;fill:#a1e48e;fill-opacity:1;stroke:none"
     transform="scale(1,-1)" />
  <rect
     transform="scale(1,-1)"
     style="opacity:0.29411765;fill:#2b1100;fill-opacity:1;stroke:none"
     id="rect4924"
     width="83.287704"
     height="2.6412313"
     x="6.3561478"
     y="-9.7404737" />
</svg>
