<?xml version="1.0" encoding="UTF-8" standalone="no"?>
<!-- Created with Inkscape (http://www.inkscape.org/) -->

<svg
   xmlns:dc="http://purl.org/dc/elements/1.1/"
   xmlns:cc="http://creativecommons.org/ns#"
   xmlns:rdf="http://www.w3.org/1999/02/22-rdf-syntax-ns#"
   xmlns:svg="http://www.w3.org/2000/svg"
   xmlns="http://www.w3.org/2000/svg"
   xmlns:xlink="http://www.w3.org/1999/xlink"
   xmlns:sodipodi="http://sodipodi.sourceforge.net/DTD/sodipodi-0.dtd"
   xmlns:inkscape="http://www.inkscape.org/namespaces/inkscape"
   version="1.0"
   width="96"
   height="96"
   id="svg2408"
   inkscape:version="0.48.3.1 r9886"
   sodipodi:docname="folder-video.svg">
  <sodipodi:namedview
     pagecolor="#ffffff"
     bordercolor="#666666"
     borderopacity="1"
     objecttolerance="10"
     gridtolerance="10"
     guidetolerance="10"
     inkscape:pageopacity="0"
     inkscape:pageshadow="2"
     inkscape:window-width="1280"
     inkscape:window-height="752"
     id="namedview128"
     showgrid="false"
     inkscape:zoom="5.6568542"
     inkscape:cx="39.657384"
     inkscape:cy="47.763868"
     inkscape:window-x="0"
     inkscape:window-y="0"
     inkscape:window-maximized="1"
     inkscape:current-layer="svg2408"
     showguides="true"
     inkscape:guide-bbox="true" />
  <defs
     id="defs2410">
    <linearGradient
       x1="45.447727"
       y1="92.539597"
       x2="45.447727"
       y2="7.0165396"
       id="ButtonShadow"
       gradientUnits="userSpaceOnUse"
       gradientTransform="scale(1.0058652,0.994169)">
      <stop
         id="stop3750"
         style="stop-color:#000000;stop-opacity:1"
         offset="0" />
      <stop
         id="stop3752"
         style="stop-color:#000000;stop-opacity:0.58823532"
         offset="1" />
    </linearGradient>
    <filter
       color-interpolation-filters="sRGB"
       id="filter3174">
      <feGaussianBlur
         id="feGaussianBlur3176"
         stdDeviation="1.71" />
    </filter>
    <linearGradient
       y2="138.66119"
       x2="48"
       y1="20.220806"
       x1="48"
       gradientUnits="userSpaceOnUse"
       id="linearGradient4587"
       xlink:href="#linearGradient3737-3"
       inkscape:collect="always" />
    <linearGradient
       x1="45.447727"
       y1="92.539597"
       x2="45.447727"
       y2="7.0165396"
       id="ButtonShadow-3"
       gradientUnits="userSpaceOnUse"
       gradientTransform="scale(1.0058652,0.994169)">
      <stop
         id="stop3750-4"
         style="stop-color:#000000;stop-opacity:1"
         offset="0" />
      <stop
         id="stop3752-7"
         style="stop-color:#000000;stop-opacity:0.58823532"
         offset="1" />
    </linearGradient>
    <linearGradient
       id="linearGradient3737-3">
      <stop
         id="stop3739-9"
         style="stop-color:#ffffff;stop-opacity:1"
         offset="0" />
      <stop
         id="stop3741-55"
         style="stop-color:#ffffff;stop-opacity:0"
         offset="1" />
    </linearGradient>
    <filter
       color-interpolation-filters="sRGB"
       id="filter3174-4">
      <feGaussianBlur
         id="feGaussianBlur3176-2"
         stdDeviation="1.71" />
    </filter>
    <filter
       x="-0.192"
       y="-0.192"
       width="1.3839999"
       height="1.3839999"
       color-interpolation-filters="sRGB"
       id="filter3794-3">
      <feGaussianBlur
         id="feGaussianBlur3796-2"
         stdDeviation="5.28" />
    </filter>
    <clipPath
       id="clipPath3613">
      <rect
         width="84"
         height="84"
         rx="6"
         ry="6"
         x="6"
         y="6"
         id="rect3615"
         style="fill:#ffffff;fill-opacity:1;fill-rule:nonzero;stroke:none" />
    </clipPath>
    <filter
       id="filter3174-7"
       color-interpolation-filters="sRGB">
      <feGaussianBlur
         stdDeviation="1.71"
         id="feGaussianBlur3176-6" />
    </filter>
    <linearGradient
       gradientTransform="scale(1.0058652,0.994169)"
       gradientUnits="userSpaceOnUse"
       id="ButtonShadow-4"
       y2="7.0165396"
       x2="45.447727"
       y1="92.539597"
       x1="45.447727">
      <stop
         offset="0"
         style="stop-color:#000000;stop-opacity:1"
         id="stop3750-7" />
      <stop
         offset="1"
         style="stop-color:#000000;stop-opacity:0.58823532"
         id="stop3752-4" />
    </linearGradient>
    <linearGradient
       inkscape:collect="always"
       xlink:href="#ButtonShadow-4"
       id="linearGradient7736"
       gradientUnits="userSpaceOnUse"
       gradientTransform="scale(1.0058652,0.994169)"
       x1="45.447727"
       y1="92.539597"
       x2="45.447727"
       y2="7.0165396" />
    <linearGradient
       inkscape:collect="always"
       xlink:href="#ButtonShadow-3"
       id="linearGradient7751"
       gradientUnits="userSpaceOnUse"
       gradientTransform="matrix(1.0058652,0,0,0.994169,206,-2.75)"
       x1="45.447727"
       y1="92.539597"
       x2="45.447727"
       y2="7.0165396" />
    <linearGradient
       x1="45.447727"
       y1="92.539597"
       x2="45.447727"
       y2="7.0165396"
       id="ButtonShadow-3-9"
       gradientUnits="userSpaceOnUse"
       gradientTransform="scale(1.0058652,0.994169)">
      <stop
         id="stop3750-4-6"
         style="stop-color:#000000;stop-opacity:1"
         offset="0" />
      <stop
         id="stop3752-7-2"
         style="stop-color:#000000;stop-opacity:0.58823532"
         offset="1" />
    </linearGradient>
    <linearGradient
       id="linearGradient3737-3-0">
      <stop
         id="stop3739-9-6"
         style="stop-color:#ffffff;stop-opacity:1"
         offset="0" />
      <stop
         id="stop3741-55-0"
         style="stop-color:#ffffff;stop-opacity:0"
         offset="1" />
    </linearGradient>
    <filter
       color-interpolation-filters="sRGB"
       id="filter3174-4-9">
      <feGaussianBlur
         id="feGaussianBlur3176-2-3"
         stdDeviation="1.71" />
    </filter>
    <filter
       x="-0.192"
       y="-0.192"
       width="1.3839999"
       height="1.3839999"
       color-interpolation-filters="sRGB"
       id="filter3794-3-1">
      <feGaussianBlur
         id="feGaussianBlur3796-2-4"
         stdDeviation="5.28" />
    </filter>
    <clipPath
       id="clipPath3613-2">
      <rect
         width="84"
         height="84"
         rx="6"
         ry="6"
         x="6"
         y="6"
         id="rect3615-9"
         style="fill:#ffffff;fill-opacity:1;fill-rule:nonzero;stroke:none" />
    </clipPath>
    <filter
       id="filter3174-8"
       color-interpolation-filters="sRGB">
      <feGaussianBlur
         stdDeviation="1.71"
         id="feGaussianBlur3176-5" />
    </filter>
    <linearGradient
       gradientTransform="scale(1.0058652,0.994169)"
       gradientUnits="userSpaceOnUse"
       id="ButtonShadow-2"
       y2="7.0165396"
       x2="45.447727"
       y1="92.539597"
       x1="45.447727">
      <stop
         offset="0"
         style="stop-color:#000000;stop-opacity:1"
         id="stop3750-45" />
      <stop
         offset="1"
         style="stop-color:#000000;stop-opacity:0.58823532"
         id="stop3752-49" />
    </linearGradient>
    <linearGradient
       inkscape:collect="always"
       xlink:href="#ButtonShadow-3-9"
       id="linearGradient6537"
       gradientUnits="userSpaceOnUse"
       gradientTransform="matrix(1.0058652,0,0,0.994169,-5.5,-0.9999959)"
       x1="45.447727"
       y1="92.539597"
       x2="45.447727"
       y2="7.0165396" />
    <linearGradient
       inkscape:collect="always"
       xlink:href="#ButtonShadow-2"
       id="linearGradient6551"
       gradientUnits="userSpaceOnUse"
       gradientTransform="matrix(1.0058652,0,0,0.994169,-103,-0.9999959)"
       x1="45.447727"
       y1="92.539597"
       x2="45.447727"
       y2="7.0165396" />
    <linearGradient
       inkscape:collect="always"
       xlink:href="#linearGradient3737-3-0"
       id="linearGradient6575"
       gradientUnits="userSpaceOnUse"
       x1="48"
       y1="20.220806"
       x2="48"
       y2="138.66119" />
  </defs>
  <metadata
     id="metadata2413">
    <rdf:RDF>
      <cc:Work
         rdf:about="">
        <dc:format>image/svg+xml</dc:format>
        <dc:type
           rdf:resource="http://purl.org/dc/dcmitype/StillImage" />
        <dc:title />
      </cc:Work>
    </rdf:RDF>
  </metadata>
  <g
     id="layer2"
     style="display:none">
    <path
       d="M 11,7 C 7.676,7 5,9.676 5,13 l 0,33.6875 c 2.2377507,0.124029 4.660506,0.235683 5.875,0.4375 0.66093,0.10983 -0.08406,0.240848 -1.125,0.34375 C 8.7090622,47.571654 7.3545491,47.665119 6.84375,47.75 6.2216014,47.853382 5.6264179,47.903999 5,48 l 0,1.0625 c 0.3803657,0.03607 0.7183843,0.03125 0.9375,0.03125 0.80883,10e-7 1.1599727,0.215701 1.3125,0.5625 0.1525272,0.346797 0.09375,0.839723 0.09375,1.40625 0,0.424828 -0.9420178,0.663014 -1.15625,1.375 C 6.110939,52.691968 5.5510552,52.945524 5,53.1875 l 0,2.21875 c 0.7355867,0.02497 1.4332639,0.05671 1.84375,0.3125 C 7.1254716,55.894306 6.0687957,56.124098 5,56.3125 l 0,7.5625 c 1.1379643,0.180337 3.3100715,0.925679 3.96875,1.0625 1.090152,0.226446 1.224723,0.33476 0.875,0.4375 -0.3497231,0.102744 -1.173581,0.175172 -2,0.3125 C 6.8656638,65.850029 5.90816,66.141998 5,66.34375 L 5,86 c 0,3.324 2.676,6 6,6 l 13,0 c 0.0954,-0.438237 0.150955,-0.931178 0.25,-1.4375 0.140364,-0.717512 0.25498,-1.34159 0.375,-1.59375 0.03001,-0.06304 0.05815,-0.114053 0.09375,-0.125 0.106804,-0.03285 0.238198,0.191956 0.46875,0.78125 0.304338,0.777871 0.540174,1.646782 0.6875,2.375 l 0.75,0 c 0.276152,-0.493694 0.578538,-1.138496 0.8125,-1.4375 0.09907,-0.126629 0.275237,0.131501 0.53125,0.375 0.256014,0.2435 0.588904,0.486378 0.9375,0.375 0.648614,-0.207227 1.602807,-0.726227 2.03125,-1 0.139883,-0.08938 0.300164,-0.157976 0.40625,-0.1875 0.106087,-0.02952 0.174331,-0.01774 0.25,0 0.151339,0.03548 0.232196,0.144559 0.34375,0.28125 0.223098,0.27338 0.466785,0.656251 1.0625,0.65625 0.478344,0 0.657185,-0.0325 0.78125,0.0625 0.124065,0.095 0.197087,0.314551 0.40625,0.875 l 8.875,0 c -0.04778,-0.593879 1.040547,-2.151517 1.21875,-3.0625 0.19092,-0.975995 0.214078,-1.242419 0.28125,-1.0625 0.06717,0.179919 0.192504,0.793906 0.46875,1.5 0.110448,0.282298 0.213887,0.358235 0.3125,0.28125 0.09861,-0.07699 0.168895,-0.293948 0.25,-0.5625 0.162213,-0.537107 0.285649,-1.296709 0.34375,-1.59375 0.131129,-0.670335 0.128655,-1.786501 0.125,-2.28125 -9.11e-4,-0.123687 -0.0059,-0.217815 0,-0.25 0.01779,-0.09656 0.08067,0.312079 0.28125,1.59375 0.163819,1.046767 0.54767,2.687946 0.71875,3.5625 0.169798,0.867992 0.298106,1.322124 0.40625,1.875 l 28.21875,0 c 0.03877,-0.494956 0.03519,-1.098589 0.0625,-1.5 0.02049,-0.301057 0.06649,-0.487005 0.15625,-0.46875 0.02992,0.0061 0.05077,0.03882 0.09375,0.09375 0.233449,0.298339 0.630596,1.164908 0.96875,1.875 L 85,92 c 3.324,0 6,-2.676 6,-6 l 0,-7.21875 c -0.16942,0.0045 -0.290112,-4e-6 -0.5,0 -1.330307,0 -2.638456,-4e-6 -3.96875,0 -1.226564,0 -2.05394,-9.64e-4 -2.25,-0.0625 -0.19606,-0.06154 0.232972,-0.183183 1.46875,-0.5 C 86.405034,78.050819 89.092469,77.290673 91,76.875 L 91,38.46875 C 90.34725,38.202412 89.792969,37.980093 89.25,37.5625 89.107486,37.452886 88.801155,37.170028 88.28125,37 87.761349,36.829972 87.007124,36.743855 86,36.9375 c -1.533473,0.294852 -1.685602,0.283469 -1.25,0.15625 0.4356,-0.127221 1.468635,-0.381012 2.25,-0.53125 1.152717,-0.221645 2.722214,-1.204246 4,-1.84375 l 0,-4.5625 c -0.69831,-0.257978 -1.422206,-0.558272 -1.75,-1.0625 -0.209707,-0.322576 -0.321618,-0.513018 -0.3125,-0.625 0.0091,-0.111981 0.13299,-0.149124 0.25,-0.1875 0.117011,-0.03837 0.261032,-0.05449 0.375,-0.15625 0.11397,-0.101759 0.187497,-0.291619 0.1875,-0.59375 0,-0.32292 0.08246,-0.887065 0.0625,-1.40625 -0.01,-0.259593 -0.03562,-0.49724 -0.125,-0.6875 -0.08939,-0.19026 -0.219089,-0.333004 -0.4375,-0.375 -0.574572,-0.110478 -0.848143,-0.233682 -0.90625,-0.34375 -0.05811,-0.110067 0.07208,-0.18937 0.28125,-0.28125 0.418339,-0.18376 1.132532,-0.339398 1.125,-0.34375 -0.668701,-0.385725 -5.247169,-0.921226 -5,-0.96875 0.332574,-0.06395 0.667437,-0.123553 1,-0.1875 1.047644,-0.201439 2.43278,-0.309227 3.75,-0.5625 0.573261,-0.110227 0.911769,-0.250569 1.125,-0.4375 0.213229,-0.18693 0.294201,-0.423258 0.375,-0.625 L 91,13 C 91,9.676 88.324,7 85,7 L 33.625,7 C 33.72158,8.3975706 33.82658,9.959362 33.53125,9.1875 33.320827,8.6375466 33.210422,8.0499534 33,7.5 32.946762,7.3608606 32.903941,7.1705291 32.84375,7 L 30.8125,7 C 30.571803,7.4923127 30.362863,7.9708281 30.03125,8.1875 29.524321,8.5187294 29.245447,8.6821159 29,8.59375 28.754552,8.5053839 28.523162,8.1669814 28.15625,7.6875 27.992502,7.4735174 27.721718,7.2560338 27.40625,7 l -6.8125,0 -1.3125,5.5625 L 17.53125,7 17.3125,7 15.5625,15.9375 14.15625,7 11,7 z"
       inkscape:connector-curvature="0"
       id="rect3745"
       style="opacity:0.9;fill:url(#ButtonShadow);fill-opacity:1;fill-rule:nonzero;stroke:none;filter:url(#filter3174)" />
  </g>
  <rect
     y="0"
     x="0"
     height="96"
     width="96"
     id="rect6228"
     style="fill:#5599ff;fill-opacity:1;stroke:none" />
  <path
     style="fill:#d5e5ff;fill-opacity:1;stroke:none"
     d="m 0,14 0,79.75 96,0 0,-63 -53.5,0 0,-16.75 z"
     id="path3876"
     inkscape:connector-curvature="0"
     sodipodi:nodetypes="ccccccc" />
  <path
     sodipodi:nodetypes="ccccccc"
     inkscape:connector-curvature="0"
     id="rect3871"
     d="M 0,16.25 0,96 l 96,0 0,-63 -53.5,0 0,-16.75 z"
     style="fill:#aaccff;fill-opacity:1;stroke:none" />
  <rect
     style="fill:#80b3ff;fill-opacity:1;stroke:none"
     id="rect3878"
     width="96"
     height="2.5"
     x="0"
     y="93.5" />
  <rect
     y="0"
     x="0"
     height="2.5"
     width="96"
     id="rect3880"
     style="fill:#80b3ff;fill-opacity:1;stroke:none" />
  <g
     transform="translate(108.5,-2.75)"
     style="display:none"
     id="layer2-0">
    <path
       style="opacity:0.9;fill:url(#linearGradient7736);fill-opacity:1;fill-rule:nonzero;stroke:none;filter:url(#filter3174-7)"
       id="rect3745-7"
       inkscape:connector-curvature="0"
       d="M 11,7 C 7.676,7 5,9.676 5,13 l 0,33.6875 c 2.2377507,0.124029 4.660506,0.235683 5.875,0.4375 0.66093,0.10983 -0.08406,0.240848 -1.125,0.34375 C 8.7090622,47.571654 7.3545491,47.665119 6.84375,47.75 6.2216014,47.853382 5.6264179,47.903999 5,48 l 0,1.0625 c 0.3803657,0.03607 0.7183843,0.03125 0.9375,0.03125 0.80883,10e-7 1.1599727,0.215701 1.3125,0.5625 0.1525272,0.346797 0.09375,0.839723 0.09375,1.40625 0,0.424828 -0.9420178,0.663014 -1.15625,1.375 C 6.110939,52.691968 5.5510552,52.945524 5,53.1875 l 0,2.21875 c 0.7355867,0.02497 1.4332639,0.05671 1.84375,0.3125 C 7.1254716,55.894306 6.0687957,56.124098 5,56.3125 l 0,7.5625 c 1.1379643,0.180337 3.3100715,0.925679 3.96875,1.0625 1.090152,0.226446 1.224723,0.33476 0.875,0.4375 -0.3497231,0.102744 -1.173581,0.175172 -2,0.3125 C 6.8656638,65.850029 5.90816,66.141998 5,66.34375 L 5,86 c 0,3.324 2.676,6 6,6 l 13,0 c 0.0954,-0.438237 0.150955,-0.931178 0.25,-1.4375 0.140364,-0.717512 0.25498,-1.34159 0.375,-1.59375 0.03001,-0.06304 0.05815,-0.114053 0.09375,-0.125 0.106804,-0.03285 0.238198,0.191956 0.46875,0.78125 0.304338,0.777871 0.540174,1.646782 0.6875,2.375 l 0.75,0 c 0.276152,-0.493694 0.578538,-1.138496 0.8125,-1.4375 0.09907,-0.126629 0.275237,0.131501 0.53125,0.375 0.256014,0.2435 0.588904,0.486378 0.9375,0.375 0.648614,-0.207227 1.602807,-0.726227 2.03125,-1 0.139883,-0.08938 0.300164,-0.157976 0.40625,-0.1875 0.106087,-0.02952 0.174331,-0.01774 0.25,0 0.151339,0.03548 0.232196,0.144559 0.34375,0.28125 0.223098,0.27338 0.466785,0.656251 1.0625,0.65625 0.478344,0 0.657185,-0.0325 0.78125,0.0625 0.124065,0.095 0.197087,0.314551 0.40625,0.875 l 8.875,0 c -0.04778,-0.593879 1.040547,-2.151517 1.21875,-3.0625 0.19092,-0.975995 0.214078,-1.242419 0.28125,-1.0625 0.06717,0.179919 0.192504,0.793906 0.46875,1.5 0.110448,0.282298 0.213887,0.358235 0.3125,0.28125 0.09861,-0.07699 0.168895,-0.293948 0.25,-0.5625 0.162213,-0.537107 0.285649,-1.296709 0.34375,-1.59375 0.131129,-0.670335 0.128655,-1.786501 0.125,-2.28125 -9.11e-4,-0.123687 -0.0059,-0.217815 0,-0.25 0.01779,-0.09656 0.08067,0.312079 0.28125,1.59375 0.163819,1.046767 0.54767,2.687946 0.71875,3.5625 0.169798,0.867992 0.298106,1.322124 0.40625,1.875 l 28.21875,0 c 0.03877,-0.494956 0.03519,-1.098589 0.0625,-1.5 0.02049,-0.301057 0.06649,-0.487005 0.15625,-0.46875 0.02992,0.0061 0.05077,0.03882 0.09375,0.09375 0.233449,0.298339 0.630596,1.164908 0.96875,1.875 L 85,92 c 3.324,0 6,-2.676 6,-6 l 0,-7.21875 c -0.16942,0.0045 -0.290112,-4e-6 -0.5,0 -1.330307,0 -2.638456,-4e-6 -3.96875,0 -1.226564,0 -2.05394,-9.64e-4 -2.25,-0.0625 -0.19606,-0.06154 0.232972,-0.183183 1.46875,-0.5 C 86.405034,78.050819 89.092469,77.290673 91,76.875 L 91,38.46875 C 90.34725,38.202412 89.792969,37.980093 89.25,37.5625 89.107486,37.452886 88.801155,37.170028 88.28125,37 87.761349,36.829972 87.007124,36.743855 86,36.9375 c -1.533473,0.294852 -1.685602,0.283469 -1.25,0.15625 0.4356,-0.127221 1.468635,-0.381012 2.25,-0.53125 1.152717,-0.221645 2.722214,-1.204246 4,-1.84375 l 0,-4.5625 c -0.69831,-0.257978 -1.422206,-0.558272 -1.75,-1.0625 -0.209707,-0.322576 -0.321618,-0.513018 -0.3125,-0.625 0.0091,-0.111981 0.13299,-0.149124 0.25,-0.1875 0.117011,-0.03837 0.261032,-0.05449 0.375,-0.15625 0.11397,-0.101759 0.187497,-0.291619 0.1875,-0.59375 0,-0.32292 0.08246,-0.887065 0.0625,-1.40625 -0.01,-0.259593 -0.03562,-0.49724 -0.125,-0.6875 -0.08939,-0.19026 -0.219089,-0.333004 -0.4375,-0.375 -0.574572,-0.110478 -0.848143,-0.233682 -0.90625,-0.34375 -0.05811,-0.110067 0.07208,-0.18937 0.28125,-0.28125 0.418339,-0.18376 1.132532,-0.339398 1.125,-0.34375 -0.668701,-0.385725 -5.247169,-0.921226 -5,-0.96875 0.332574,-0.06395 0.667437,-0.123553 1,-0.1875 1.047644,-0.201439 2.43278,-0.309227 3.75,-0.5625 0.573261,-0.110227 0.911769,-0.250569 1.125,-0.4375 0.213229,-0.18693 0.294201,-0.423258 0.375,-0.625 L 91,13 C 91,9.676 88.324,7 85,7 L 33.625,7 C 33.72158,8.3975706 33.82658,9.959362 33.53125,9.1875 33.320827,8.6375466 33.210422,8.0499534 33,7.5 32.946762,7.3608606 32.903941,7.1705291 32.84375,7 L 30.8125,7 C 30.571803,7.4923127 30.362863,7.9708281 30.03125,8.1875 29.524321,8.5187294 29.245447,8.6821159 29,8.59375 28.754552,8.5053839 28.523162,8.1669814 28.15625,7.6875 27.992502,7.4735174 27.721718,7.2560338 27.40625,7 l -6.8125,0 -1.3125,5.5625 L 17.53125,7 17.3125,7 15.5625,15.9375 14.15625,7 11,7 z" />
  </g>
  <rect
     width="86"
     height="85"
     rx="6"
     ry="6"
     x="211"
     y="4.25"
     id="rect3745-4"
     style="opacity:0.9;fill:url(#linearGradient7751);fill-opacity:1;fill-rule:nonzero;stroke:none;display:none;filter:url(#filter3174-4)" />
  <rect
     transform="translate(206,-2.75)"
     width="66"
     height="66"
     rx="12"
     ry="12"
     x="15"
     y="15"
     clip-path="url(#clipPath3613)"
     id="rect3171"
     style="opacity:0.1;fill:url(#linearGradient4587);fill-opacity:1;fill-rule:nonzero;stroke:#ffffff;stroke-width:0.5;stroke-linecap:round;stroke-linejoin:miter;stroke-miterlimit:4;stroke-opacity:1;stroke-dasharray:none;stroke-dashoffset:0;display:none;filter:url(#filter3794-3)" />
  <path
     style="opacity:0.9;fill:url(#linearGradient6551);fill-opacity:1;fill-rule:nonzero;stroke:none;display:none;filter:url(#filter3174-8)"
     id="rect3745-9"
     inkscape:connector-curvature="0"
     d="m -92,6.0000041 c -3.324,0 -6,2.676 -6,5.9999999 l 0,33.6875 c 2.237751,0.124029 4.660506,0.235683 5.875,0.4375 0.66093,0.10983 -0.08406,0.240848 -1.125,0.34375 -1.040938,0.102904 -2.395451,0.196369 -2.90625,0.28125 -0.622149,0.103382 -1.217332,0.153999 -1.84375,0.25 l 0,1.0625 c 0.380366,0.03607 0.718384,0.03125 0.9375,0.03125 0.80883,1e-6 1.159973,0.215701 1.3125,0.5625 0.152527,0.346797 0.09375,0.839723 0.09375,1.40625 0,0.424828 -0.942018,0.663014 -1.15625,1.375 -0.07656,0.254468 -0.636445,0.508024 -1.1875,0.75 l 0,2.21875 c 0.735587,0.02497 1.433264,0.05671 1.84375,0.3125 0.281722,0.175556 -0.774954,0.405348 -1.84375,0.59375 l 0,7.5625 c 1.137964,0.180337 3.310071,0.925679 3.96875,1.0625 1.090152,0.226446 1.224723,0.33476 0.875,0.4375 -0.349723,0.102744 -1.173581,0.175172 -2,0.3125 -0.978086,0.162529 -1.93559,0.454498 -2.84375,0.65625 l 0,19.65625 c 0,3.324 2.676,6 6,6 l 13,0 c 0.0954,-0.438237 0.150955,-0.931178 0.25,-1.4375 0.140364,-0.717512 0.25498,-1.34159 0.375,-1.59375 0.03001,-0.06304 0.05815,-0.114053 0.09375,-0.125 0.106804,-0.03285 0.238198,0.191956 0.46875,0.78125 0.304338,0.777871 0.540174,1.646782 0.6875,2.375 l 0.75,0 c 0.276152,-0.493694 0.578538,-1.138496 0.8125,-1.4375 0.09907,-0.126629 0.275237,0.131501 0.53125,0.375 0.256014,0.2435 0.588904,0.486378 0.9375,0.375 0.648614,-0.207227 1.602807,-0.726227 2.03125,-1 0.139883,-0.08938 0.300164,-0.157976 0.40625,-0.1875 0.106087,-0.02952 0.174331,-0.01774 0.25,0 0.151339,0.03548 0.232196,0.144559 0.34375,0.28125 0.223098,0.27338 0.466785,0.656251 1.0625,0.65625 0.478344,0 0.657185,-0.0325 0.78125,0.0625 0.124065,0.095 0.197087,0.314551 0.40625,0.875 l 8.875,0 c -0.04778,-0.593879 1.040547,-2.151517 1.21875,-3.0625 0.19092,-0.975995 0.214078,-1.242419 0.28125,-1.0625 0.06717,0.179919 0.192504,0.793906 0.46875,1.5 0.110448,0.282298 0.213887,0.358235 0.3125,0.28125 0.09861,-0.07699 0.168895,-0.293948 0.25,-0.5625 0.162213,-0.537107 0.285649,-1.296709 0.34375,-1.59375 0.131129,-0.670335 0.128655,-1.786501 0.125,-2.28125 -9.11e-4,-0.123687 -0.0059,-0.217815 0,-0.25 0.01779,-0.09656 0.08067,0.312079 0.28125,1.59375 0.163819,1.046767 0.54767,2.687946 0.71875,3.5625 0.169798,0.867992 0.298106,1.322124 0.40625,1.875 l 28.21875,0 c 0.03877,-0.494956 0.03519,-1.098589 0.0625,-1.5 0.02049,-0.301057 0.06649,-0.487005 0.15625,-0.46875 0.02992,0.0061 0.05077,0.03882 0.09375,0.09375 0.233449,0.298339 0.630596,1.164908 0.96875,1.875 l 8.03125,0 c 3.324,0 6,-2.676 6,-6 l 0,-7.21875 c -0.16942,0.0045 -0.290112,-4e-6 -0.5,0 -1.330307,0 -2.638456,-4e-6 -3.96875,0 -1.226564,0 -2.05394,-9.64e-4 -2.25,-0.0625 -0.19606,-0.06154 0.232972,-0.183183 1.46875,-0.5 0.655034,-0.167931 3.342469,-0.928077 5.25,-1.34375 l 0,-38.40625 c -0.65275,-0.266338 -1.207031,-0.488657 -1.75,-0.90625 -0.142514,-0.109614 -0.448845,-0.392472 -0.96875,-0.5625 -0.519901,-0.170028 -1.274126,-0.256145 -2.28125,-0.0625 -1.533473,0.294852 -1.685602,0.283469 -1.25,0.15625 0.4356,-0.127221 1.468635,-0.381012 2.25,-0.53125 1.152717,-0.221645 2.722214,-1.204246 4,-1.84375 l 0,-4.5625 c -0.69831,-0.257978 -1.422206,-0.558272 -1.75,-1.0625 -0.209707,-0.322576 -0.321618,-0.513018 -0.3125,-0.625 0.0091,-0.111981 0.13299,-0.149124 0.25,-0.1875 0.117011,-0.03837 0.261032,-0.05449 0.375,-0.15625 0.11397,-0.101759 0.187497,-0.291619 0.1875,-0.59375 0,-0.32292 0.08246,-0.887065 0.0625,-1.40625 -0.01,-0.259593 -0.03562,-0.49724 -0.125,-0.6875 -0.08939,-0.19026 -0.219089,-0.333004 -0.4375,-0.375 -0.574572,-0.110478 -0.848143,-0.233682 -0.90625,-0.34375 -0.05811,-0.110067 0.07208,-0.18937 0.28125,-0.28125 0.418339,-0.18376 1.132532,-0.339398 1.125,-0.34375 -0.668701,-0.385725 -5.247169,-0.921226 -5,-0.96875 0.332574,-0.06395 0.667437,-0.123553 1,-0.1875 1.047644,-0.201439 2.43278,-0.309227 3.75,-0.5625 0.573261,-0.110227 0.911769,-0.250569 1.125,-0.4375 0.213229,-0.18693 0.294201,-0.423258 0.375,-0.625 l 0,-8.3125 c 0,-3.3239999 -2.676,-5.9999999 -6,-5.9999999 l -51.375,0 c 0.09658,1.3975706 0.20158,2.959362 -0.09375,2.1875 -0.210423,-0.5499534 -0.320828,-1.1375466 -0.53125,-1.6875 -0.05324,-0.1391394 -0.09606,-0.3294709 -0.15625,-0.5 l -2.03125,0 c -0.240697,0.4923127 -0.449637,0.9708281 -0.78125,1.1875 -0.506929,0.3312294 -0.785803,0.4946159 -1.03125,0.40625 -0.245448,-0.088366 -0.476838,-0.4267686 -0.84375,-0.90625 -0.163748,-0.2139826 -0.434532,-0.4314662 -0.75,-0.6875 l -6.8125,0 -1.3125,5.5624999 -1.75,-5.5624999 -0.21875,0 -1.75,8.9374999 -1.40625,-8.9374999 -3.15625,0 z" />
  <rect
     style="opacity:0.9;fill:url(#linearGradient6537);fill-opacity:1;fill-rule:nonzero;stroke:none;display:none;filter:url(#filter3174-4-9)"
     id="rect3745-4-8"
     y="6.0000043"
     x="-0.5"
     ry="6"
     rx="6"
     height="85"
     width="86" />
  <rect
     style="opacity:0.1;fill:url(#linearGradient6575);fill-opacity:1;fill-rule:nonzero;stroke:#ffffff;stroke-width:0.5;stroke-linecap:round;stroke-linejoin:miter;stroke-miterlimit:4;stroke-opacity:1;stroke-dasharray:none;stroke-dashoffset:0;display:none;filter:url(#filter3794-3-1)"
     id="rect3171-9"
     clip-path="url(#clipPath3613-2)"
     y="15"
     x="15"
     ry="12"
     rx="12"
     height="66"
     width="66"
     transform="translate(-5.4999988,-0.9999959)" />
  <path
     inkscape:connector-curvature="0"
     style="fill:#80b3ff;fill-opacity:1;stroke:none"
     d="m 15.642903,44.048766 0.03424,36.51647 63.405814,-0.01972 -0.03423,-36.516472 -63.405821,0.01972 z"
     id="path5784" />
  <path
     inkscape:connector-curvature="0"
     style="fill:#5599ff;fill-opacity:1;stroke:none"
     d="m 69.997571,39.638267 0,45.238089 -45.238089,0 1e-6,-45.238089 45.238088,0 z"
     id="path3955" />
  <path
     id="path5084"
     d="m 65.60679,44.048723 -0.01968,36.436852 -36.436851,-0.01967 0.01967,-36.436851 36.436851,0.01967 z"
     style="fill:#80b3ff;fill-opacity:1;stroke:none"
     inkscape:connector-curvature="0" />
  <path
     id="path5696"
     d="m 79.082957,39.638268 -2e-6,4.744407 -63.408856,-3e-6 0,-4.744405 63.408858,10e-7 z"
     style="fill:#5599ff;fill-opacity:1;stroke:none"
     inkscape:connector-curvature="0" />
  <g
     id="g5722"
     transform="matrix(1.0103269,-0.27071629,0.27071629,1.0103269,-17.123653,5.9320665)"
     style="fill:#aaccff;fill-opacity:1">
    <path
       id="path5700"
       d="m 26.160063,41.24133 -0.661086,2.461891 -2.461892,-0.661086 0.661087,-2.461892 2.461891,0.661087 z"
       style="fill:#aaccff;fill-opacity:1;stroke:none"
       inkscape:connector-curvature="0" />
    <path
       inkscape:connector-curvature="0"
       style="fill:#aaccff;fill-opacity:1;stroke:none"
       d="m 31.955619,42.794244 -0.661086,2.461891 -2.461892,-0.661086 0.661087,-2.461892 2.461891,0.661087 z"
       id="path5702" />
    <path
       id="path5704"
       d="m 37.751175,44.347158 -0.661086,2.461891 -2.461892,-0.661086 0.661087,-2.461892 2.461891,0.661087 z"
       style="fill:#aaccff;fill-opacity:1;stroke:none"
       inkscape:connector-curvature="0" />
    <path
       inkscape:connector-curvature="0"
       style="fill:#aaccff;fill-opacity:1;stroke:none"
       d="m 43.546731,45.900072 -0.661086,2.461891 -2.461892,-0.661086 0.661087,-2.461892 2.461891,0.661087 z"
       id="path5706" />
    <path
       id="path5708"
       d="m 49.342287,47.452986 -0.661086,2.461891 -2.461892,-0.661086 0.661087,-2.461892 2.461891,0.661087 z"
       style="fill:#aaccff;fill-opacity:1;stroke:none"
       inkscape:connector-curvature="0" />
    <path
       inkscape:connector-curvature="0"
       style="fill:#aaccff;fill-opacity:1;stroke:none"
       d="m 55.137843,49.0059 -0.661086,2.461891 -2.461892,-0.661086 0.661087,-2.461892 2.461891,0.661087 z"
       id="path5710" />
    <path
       id="path5712"
       d="m 60.933399,50.558814 -0.661086,2.461891 -2.461892,-0.661086 0.661087,-2.461892 2.461891,0.661087 z"
       style="fill:#aaccff;fill-opacity:1;stroke:none"
       inkscape:connector-curvature="0" />
    <path
       inkscape:connector-curvature="0"
       style="fill:#aaccff;fill-opacity:1;stroke:none"
       d="m 66.728955,52.111728 -0.661086,2.461891 -2.461892,-0.661086 0.661087,-2.461892 2.461891,0.661087 z"
       id="path5714" />
    <path
       id="path5716"
       d="m 72.524511,53.664642 -0.661086,2.461891 -2.461892,-0.661086 0.661087,-2.461892 2.461891,0.661087 z"
       style="fill:#aaccff;fill-opacity:1;stroke:none"
       inkscape:connector-curvature="0" />
    <path
       inkscape:connector-curvature="0"
       style="fill:#aaccff;fill-opacity:1;stroke:none"
       d="m 78.320067,55.217556 -0.661086,2.461891 -2.461892,-0.661086 0.661087,-2.461892 2.461891,0.661087 z"
       id="path5718" />
  </g>
  <path
     inkscape:connector-curvature="0"
     style="fill:#5599ff;fill-opacity:1;stroke:none"
     d="m 79.082956,80.131951 -10e-7,4.744406 -63.408857,-2e-6 10e-7,-4.744404 63.408857,0 z"
     id="path5698" />
  <g
     transform="matrix(1.0103269,-0.27071629,0.27071629,1.0103269,-17.123652,46.586463)"
     id="g5734"
     style="fill:#aaccff;fill-opacity:1">
    <path
       inkscape:connector-curvature="0"
       style="fill:#aaccff;fill-opacity:1;stroke:none"
       d="m 26.160063,41.24133 -0.661086,2.461891 -2.461892,-0.661086 0.661087,-2.461892 2.461891,0.661087 z"
       id="path5736" />
    <path
       id="path5738"
       d="m 31.955619,42.794244 -0.661086,2.461891 -2.461892,-0.661086 0.661087,-2.461892 2.461891,0.661087 z"
       style="fill:#aaccff;fill-opacity:1;stroke:none"
       inkscape:connector-curvature="0" />
    <path
       inkscape:connector-curvature="0"
       style="fill:#aaccff;fill-opacity:1;stroke:none"
       d="m 37.751175,44.347158 -0.661086,2.461891 -2.461892,-0.661086 0.661087,-2.461892 2.461891,0.661087 z"
       id="path5740" />
    <path
       id="path5742"
       d="m 43.546731,45.900072 -0.661086,2.461891 -2.461892,-0.661086 0.661087,-2.461892 2.461891,0.661087 z"
       style="fill:#aaccff;fill-opacity:1;stroke:none"
       inkscape:connector-curvature="0" />
    <path
       inkscape:connector-curvature="0"
       style="fill:#aaccff;fill-opacity:1;stroke:none"
       d="m 49.342287,47.452986 -0.661086,2.461891 -2.461892,-0.661086 0.661087,-2.461892 2.461891,0.661087 z"
       id="path5744" />
    <path
       id="path5746"
       d="m 55.137843,49.0059 -0.661086,2.461891 -2.461892,-0.661086 0.661087,-2.461892 2.461891,0.661087 z"
       style="fill:#aaccff;fill-opacity:1;stroke:none"
       inkscape:connector-curvature="0" />
    <path
       inkscape:connector-curvature="0"
       style="fill:#aaccff;fill-opacity:1;stroke:none"
       d="m 60.933399,50.558814 -0.661086,2.461891 -2.461892,-0.661086 0.661087,-2.461892 2.461891,0.661087 z"
       id="path5748" />
    <path
       id="path5750"
       d="m 66.728955,52.111728 -0.661086,2.461891 -2.461892,-0.661086 0.661087,-2.461892 2.461891,0.661087 z"
       style="fill:#aaccff;fill-opacity:1;stroke:none"
       inkscape:connector-curvature="0" />
    <path
       inkscape:connector-curvature="0"
       style="fill:#aaccff;fill-opacity:1;stroke:none"
       d="m 72.524511,53.664642 -0.661086,2.461891 -2.461892,-0.661086 0.661087,-2.461892 2.461891,0.661087 z"
       id="path5752" />
    <path
       id="path5754"
       d="m 78.320067,55.217556 -0.661086,2.461891 -2.461892,-0.661086 0.661087,-2.461892 2.461891,0.661087 z"
       style="fill:#aaccff;fill-opacity:1;stroke:none"
       inkscape:connector-curvature="0" />
  </g>
  <path
     style="font-size:medium;font-style:normal;font-variant:normal;font-weight:normal;font-stretch:normal;text-indent:0;text-align:start;text-decoration:none;line-height:normal;letter-spacing:normal;word-spacing:normal;text-transform:none;direction:ltr;block-progression:tb;writing-mode:lr-tb;text-anchor:start;baseline-shift:baseline;color:#000000;fill:#d5e5ff;fill-opacity:1;stroke:none;stroke-width:1;marker:none;visibility:visible;display:inline;overflow:visible;enable-background:accumulate;font-family:Sans;-inkscape-font-specification:Sans"
     d="m 47.008144,48.654068 c -7.497377,0 -13.580898,6.083521 -13.580898,13.580898 0,7.497377 6.083521,13.580898 13.580898,13.580898 7.497377,0 13.580898,-6.083521 13.580898,-13.580898 0,-7.497377 -6.083521,-13.580898 -13.580898,-13.580898 z m 0,0.561484 c 7.193928,0 13.019414,5.825486 13.019414,13.019414 0,7.193928 -5.825486,13.019414 -13.019414,13.019414 -7.193928,0 -13.019414,-5.825486 -13.019414,-13.019414 0,-7.193928 5.825486,-13.019414 13.019414,-13.019414 z"
     id="path5797"
     inkscape:connector-curvature="0" />
  <g
     style="font-size:40px;font-style:normal;font-variant:normal;font-weight:normal;font-stretch:normal;line-height:125%;letter-spacing:0px;word-spacing:0px;fill:#d5e5ff;fill-opacity:1;stroke:none;font-family:Quirky Nots;-inkscape-font-specification:Quirky Nots"
     id="text5803"
     transform="matrix(0.8909522,0,0,0.8909522,49.23823,13.822736)">
    <path
       d="m -2.3382931,40.928429 c 2.17446645,2.5e-5 3.9062356,0.651066 5.1953125,1.953125 1.2890455,1.276063 1.9335761,2.753926 1.9335938,4.433593 -1.77e-5,1.184914 -0.3580903,2.252621 -1.0742188,3.203125 -0.7422034,0.976577 -1.7122545,1.666681 -2.91015623,2.070313 1.61456803,0.625013 2.83852513,1.510428 3.67187503,2.65625 0.8333151,1.132822 1.2499813,2.447925 1.25,3.945312 -1.87e-5,2.278651 -0.7617366,4.088545 -2.2851563,5.429688 -1.471369,1.354167 -3.41147125,2.04427 -5.8203125,2.070312 -2.4088623,-0.02604 -4.3489645,-0.716145 -5.8203125,-2.070312 -1.5234407,-1.341143 -2.2851589,-3.151037 -2.2851559,-5.429688 -3e-6,-1.497387 0.416664,-2.81249 1.2499997,-3.945312 0.8333288,-1.145822 2.0572859,-2.031237 3.671875,-2.65625 -1.1979228,-0.403632 -2.167974,-1.093736 -2.9101563,-2.070313 -0.7161495,-0.950504 -1.0742221,-2.018211 -1.0742187,-3.203125 -3.4e-6,-1.679667 0.6445272,-3.15753 1.9335937,-4.433593 1.2890559,-1.302059 3.020825,-1.9531 5.1953125,-1.953125 l 0.039063,0 0.039063,0 m -0.078125,12.5 c -1.05e-5,0.01303 -0.1302187,0.03256 -0.390625,0.05859 -0.2474057,0.02605 -0.5664158,0.09767 -0.9570312,0.214844 -0.377613,0.1172 -0.7877688,0.306002 -1.2304688,0.566406 -0.4427158,0.247408 -0.859382,0.59897 -1.25,1.054688 -0.3776104,0.455739 -0.6966205,1.035166 -0.9570312,1.738281 -0.2474013,0.703133 -0.3710991,1.562507 -0.3710938,2.578125 -5.3e-6,0.703131 0.071609,1.32813 0.2148438,1.875 0.1562443,0.546879 0.3515566,1.022139 0.5859375,1.425781 0.2473894,0.403649 0.5208267,0.748701 0.8203125,1.035157 0.3124927,0.273439 0.6315028,0.501303 0.9570312,0.683593 0.7551997,0.429689 1.6145738,0.683595 2.578125,0.761719 l 0.039063,0 0.039063,0 c 0.9505093,-0.07812 1.80988348,-0.33203 2.57812502,-0.761719 0.32550737,-0.18229 0.63800706,-0.410154 0.93749998,-0.683593 0.3124856,-0.286456 0.5859229,-0.631508 0.8203125,-1.035157 0.2473807,-0.403642 0.442693,-0.878902 0.5859375,-1.425781 0.1562344,-0.54687 0.2343593,-1.171869 0.234375,-1.875 C 2.8179412,58.623748 2.687733,57.764374 2.4273319,57.061241 2.179921,56.358126 1.8609109,55.778699 1.4703007,55.32296 1.0926825,54.867242 0.68252667,54.51568 0.23983192,54.268272 -0.20288911,54.007868 -0.61955536,53.819066 -1.0101681,53.701866 c -0.3776157,-0.117175 -0.6966258,-0.188789 -0.9570312,-0.214844 -0.2474065,-0.02603 -0.3711043,-0.04556 -0.3710938,-0.05859 l -0.078125,0 M -4.5062618,51.37765 c 0.5989493,0.377619 1.308584,0.638035 2.1289062,0.78125 0.8203012,-0.143215 1.52993588,-0.403631 2.12890627,-0.78125 0.27342457,-0.169256 0.54035139,-0.377589 0.80078125,-0.625 C 0.82575569,50.505267 1.0666409,50.212299 1.2749882,49.873741 1.4833071,49.535216 1.6525778,49.144591 1.7828007,48.701866 1.9129942,48.246155 1.9780983,47.731832 1.9781132,47.158897 1.9780983,46.586 1.9129942,46.078188 1.7828007,45.63546 1.6655986,45.192772 1.5028384,44.802148 1.2945194,44.463585 1.0991929,44.112044 0.87132857,43.812565 0.61092567,43.565147 0.35049575,43.317774 0.08356894,43.109441 -0.18985558,42.940147 -0.48934716,42.757879 -0.78882602,42.601629 -1.0882931,42.471397 -1.3747629,42.341213 -1.80445,42.263088 -2.3773556,42.237022 c -0.5338641,0.02607 -0.9505304,0.09768 -1.25,0.214844 -0.2864673,0.117211 -0.5794358,0.26695 -0.8789062,0.449219 -0.2734457,0.169294 -0.5468829,0.384137 -0.8203125,0.644531 -0.260424,0.247418 -0.4947988,0.546897 -0.703125,0.898438 -0.20834,0.338562 -0.3776107,0.735698 -0.5078125,1.191406 -0.1302146,0.442728 -0.1953187,0.95054 -0.1953125,1.523437 -6.2e-6,0.572935 0.065098,1.087258 0.1953125,1.542969 0.1302018,0.442725 0.2994725,0.83335 0.5078125,1.171875 0.2083262,0.338558 0.442701,0.631526 0.703125,0.878906 0.2734296,0.247411 0.5468668,0.455744 0.8203125,0.625"
       style="fill:#d5e5ff;fill-opacity:1;font-family:Saab;-inkscape-font-specification:Saab"
       id="path5808"
       inkscape:connector-curvature="0" />
  </g>
</svg>
