<?xml version="1.0" encoding="UTF-8" standalone="no"?>
<!-- Created with Inkscape (http://www.inkscape.org/) -->

<svg
   xmlns:dc="http://purl.org/dc/elements/1.1/"
   xmlns:cc="http://creativecommons.org/ns#"
   xmlns:rdf="http://www.w3.org/1999/02/22-rdf-syntax-ns#"
   xmlns:svg="http://www.w3.org/2000/svg"
   xmlns="http://www.w3.org/2000/svg"
   xmlns:xlink="http://www.w3.org/1999/xlink"
   xmlns:sodipodi="http://sodipodi.sourceforge.net/DTD/sodipodi-0.dtd"
   xmlns:inkscape="http://www.inkscape.org/namespaces/inkscape"
   version="1.0"
   width="96"
   height="96"
   id="svg2408"
   inkscape:version="0.48.3.1 r9886"
   sodipodi:docname="abiword.svg">
  <sodipodi:namedview
     pagecolor="#ffffff"
     bordercolor="#666666"
     borderopacity="1"
     objecttolerance="10"
     gridtolerance="10"
     guidetolerance="10"
     inkscape:pageopacity="0"
     inkscape:pageshadow="2"
     inkscape:window-width="1280"
     inkscape:window-height="752"
     id="namedview128"
     showgrid="false"
     inkscape:zoom="2"
     inkscape:cx="-5.4723192"
     inkscape:cy="96.121135"
     inkscape:window-x="0"
     inkscape:window-y="0"
     inkscape:window-maximized="1"
     inkscape:current-layer="svg2408"
     showguides="true"
     inkscape:guide-bbox="true" />
  <defs
     id="defs2410">
    <linearGradient
       x1="45.447727"
       y1="92.539597"
       x2="45.447727"
       y2="7.0165396"
       id="ButtonShadow"
       gradientUnits="userSpaceOnUse"
       gradientTransform="scale(1.0058652,0.994169)">
      <stop
         id="stop3750"
         style="stop-color:#000000;stop-opacity:1"
         offset="0" />
      <stop
         id="stop3752"
         style="stop-color:#000000;stop-opacity:0.58823532"
         offset="1" />
    </linearGradient>
    <filter
       color-interpolation-filters="sRGB"
       id="filter3174">
      <feGaussianBlur
         id="feGaussianBlur3176"
         stdDeviation="1.71" />
    </filter>
    <clipPath
       id="clipPath3613">
      <rect
         style="fill:#ffffff;fill-opacity:1;fill-rule:nonzero;stroke:none"
         id="rect3615"
         y="6"
         x="6"
         ry="6"
         rx="6"
         height="84"
         width="84" />
    </clipPath>
    <filter
       id="filter3794-3"
       color-interpolation-filters="sRGB"
       height="1.3839999"
       width="1.3839999"
       y="-0.192"
       x="-0.192">
      <feGaussianBlur
         stdDeviation="5.28"
         id="feGaussianBlur3796-2" />
    </filter>
    <filter
       id="filter3174-4"
       color-interpolation-filters="sRGB">
      <feGaussianBlur
         stdDeviation="1.71"
         id="feGaussianBlur3176-2" />
    </filter>
    <linearGradient
       id="linearGradient3737-3">
      <stop
         offset="0"
         style="stop-color:#ffffff;stop-opacity:1"
         id="stop3739-9" />
      <stop
         offset="1"
         style="stop-color:#ffffff;stop-opacity:0"
         id="stop3741-55" />
    </linearGradient>
    <linearGradient
       gradientTransform="scale(1.0058652,0.994169)"
       gradientUnits="userSpaceOnUse"
       id="ButtonShadow-3"
       y2="7.0165396"
       x2="45.447727"
       y1="92.539597"
       x1="45.447727">
      <stop
         offset="0"
         style="stop-color:#000000;stop-opacity:1"
         id="stop3750-4" />
      <stop
         offset="1"
         style="stop-color:#000000;stop-opacity:0.58823532"
         id="stop3752-7" />
    </linearGradient>
    <linearGradient
       inkscape:collect="always"
       xlink:href="#linearGradient3737-3"
       id="linearGradient4587"
       gradientUnits="userSpaceOnUse"
       x1="48"
       y1="20.220806"
       x2="48"
       y2="138.66119" />
    <linearGradient
       inkscape:collect="always"
       xlink:href="#ButtonShadow-3"
       id="linearGradient4594"
       gradientUnits="userSpaceOnUse"
       gradientTransform="matrix(1.0058652,0,0,0.994169,97.5,0)"
       x1="45.447727"
       y1="92.539597"
       x2="45.447727"
       y2="7.0165396" />
  </defs>
  <metadata
     id="metadata2413">
    <rdf:RDF>
      <cc:Work
         rdf:about="">
        <dc:format>image/svg+xml</dc:format>
        <dc:type
           rdf:resource="http://purl.org/dc/dcmitype/StillImage" />
        <dc:title />
      </cc:Work>
    </rdf:RDF>
  </metadata>
  <g
     id="layer2"
     style="display:none">
    <path
       d="M 11,7 C 7.676,7 5,9.676 5,13 l 0,33.6875 c 2.2377507,0.124029 4.660506,0.235683 5.875,0.4375 0.66093,0.10983 -0.08406,0.240848 -1.125,0.34375 C 8.7090622,47.571654 7.3545491,47.665119 6.84375,47.75 6.2216014,47.853382 5.6264179,47.903999 5,48 l 0,1.0625 c 0.3803657,0.03607 0.7183843,0.03125 0.9375,0.03125 0.80883,10e-7 1.1599727,0.215701 1.3125,0.5625 0.1525272,0.346797 0.09375,0.839723 0.09375,1.40625 0,0.424828 -0.9420178,0.663014 -1.15625,1.375 C 6.110939,52.691968 5.5510552,52.945524 5,53.1875 l 0,2.21875 c 0.7355867,0.02497 1.4332639,0.05671 1.84375,0.3125 C 7.1254716,55.894306 6.0687957,56.124098 5,56.3125 l 0,7.5625 c 1.1379643,0.180337 3.3100715,0.925679 3.96875,1.0625 1.090152,0.226446 1.224723,0.33476 0.875,0.4375 -0.3497231,0.102744 -1.173581,0.175172 -2,0.3125 C 6.8656638,65.850029 5.90816,66.141998 5,66.34375 L 5,86 c 0,3.324 2.676,6 6,6 l 13,0 c 0.0954,-0.438237 0.150955,-0.931178 0.25,-1.4375 0.140364,-0.717512 0.25498,-1.34159 0.375,-1.59375 0.03001,-0.06304 0.05815,-0.114053 0.09375,-0.125 0.106804,-0.03285 0.238198,0.191956 0.46875,0.78125 0.304338,0.777871 0.540174,1.646782 0.6875,2.375 l 0.75,0 c 0.276152,-0.493694 0.578538,-1.138496 0.8125,-1.4375 0.09907,-0.126629 0.275237,0.131501 0.53125,0.375 0.256014,0.2435 0.588904,0.486378 0.9375,0.375 0.648614,-0.207227 1.602807,-0.726227 2.03125,-1 0.139883,-0.08938 0.300164,-0.157976 0.40625,-0.1875 0.106087,-0.02952 0.174331,-0.01774 0.25,0 0.151339,0.03548 0.232196,0.144559 0.34375,0.28125 0.223098,0.27338 0.466785,0.656251 1.0625,0.65625 0.478344,0 0.657185,-0.0325 0.78125,0.0625 0.124065,0.095 0.197087,0.314551 0.40625,0.875 l 8.875,0 c -0.04778,-0.593879 1.040547,-2.151517 1.21875,-3.0625 0.19092,-0.975995 0.214078,-1.242419 0.28125,-1.0625 0.06717,0.179919 0.192504,0.793906 0.46875,1.5 0.110448,0.282298 0.213887,0.358235 0.3125,0.28125 0.09861,-0.07699 0.168895,-0.293948 0.25,-0.5625 0.162213,-0.537107 0.285649,-1.296709 0.34375,-1.59375 0.131129,-0.670335 0.128655,-1.786501 0.125,-2.28125 -9.11e-4,-0.123687 -0.0059,-0.217815 0,-0.25 0.01779,-0.09656 0.08067,0.312079 0.28125,1.59375 0.163819,1.046767 0.54767,2.687946 0.71875,3.5625 0.169798,0.867992 0.298106,1.322124 0.40625,1.875 l 28.21875,0 c 0.03877,-0.494956 0.03519,-1.098589 0.0625,-1.5 0.02049,-0.301057 0.06649,-0.487005 0.15625,-0.46875 0.02992,0.0061 0.05077,0.03882 0.09375,0.09375 0.233449,0.298339 0.630596,1.164908 0.96875,1.875 L 85,92 c 3.324,0 6,-2.676 6,-6 l 0,-7.21875 c -0.16942,0.0045 -0.290112,-4e-6 -0.5,0 -1.330307,0 -2.638456,-4e-6 -3.96875,0 -1.226564,0 -2.05394,-9.64e-4 -2.25,-0.0625 -0.19606,-0.06154 0.232972,-0.183183 1.46875,-0.5 C 86.405034,78.050819 89.092469,77.290673 91,76.875 L 91,38.46875 C 90.34725,38.202412 89.792969,37.980093 89.25,37.5625 89.107486,37.452886 88.801155,37.170028 88.28125,37 87.761349,36.829972 87.007124,36.743855 86,36.9375 c -1.533473,0.294852 -1.685602,0.283469 -1.25,0.15625 0.4356,-0.127221 1.468635,-0.381012 2.25,-0.53125 1.152717,-0.221645 2.722214,-1.204246 4,-1.84375 l 0,-4.5625 c -0.69831,-0.257978 -1.422206,-0.558272 -1.75,-1.0625 -0.209707,-0.322576 -0.321618,-0.513018 -0.3125,-0.625 0.0091,-0.111981 0.13299,-0.149124 0.25,-0.1875 0.117011,-0.03837 0.261032,-0.05449 0.375,-0.15625 0.11397,-0.101759 0.187497,-0.291619 0.1875,-0.59375 0,-0.32292 0.08246,-0.887065 0.0625,-1.40625 -0.01,-0.259593 -0.03562,-0.49724 -0.125,-0.6875 -0.08939,-0.19026 -0.219089,-0.333004 -0.4375,-0.375 -0.574572,-0.110478 -0.848143,-0.233682 -0.90625,-0.34375 -0.05811,-0.110067 0.07208,-0.18937 0.28125,-0.28125 0.418339,-0.18376 1.132532,-0.339398 1.125,-0.34375 -0.668701,-0.385725 -5.247169,-0.921226 -5,-0.96875 0.332574,-0.06395 0.667437,-0.123553 1,-0.1875 1.047644,-0.201439 2.43278,-0.309227 3.75,-0.5625 0.573261,-0.110227 0.911769,-0.250569 1.125,-0.4375 0.213229,-0.18693 0.294201,-0.423258 0.375,-0.625 L 91,13 C 91,9.676 88.324,7 85,7 L 33.625,7 C 33.72158,8.3975706 33.82658,9.959362 33.53125,9.1875 33.320827,8.6375466 33.210422,8.0499534 33,7.5 32.946762,7.3608606 32.903941,7.1705291 32.84375,7 L 30.8125,7 C 30.571803,7.4923127 30.362863,7.9708281 30.03125,8.1875 29.524321,8.5187294 29.245447,8.6821159 29,8.59375 28.754552,8.5053839 28.523162,8.1669814 28.15625,7.6875 27.992502,7.4735174 27.721718,7.2560338 27.40625,7 l -6.8125,0 -1.3125,5.5625 L 17.53125,7 17.3125,7 15.5625,15.9375 14.15625,7 11,7 z"
       inkscape:connector-curvature="0"
       id="rect3745"
       style="opacity:0.9;fill:url(#ButtonShadow);fill-opacity:1;fill-rule:nonzero;stroke:none;filter:url(#filter3174)" />
  </g>
  <rect
     y="0"
     x="0"
     height="96"
     width="96"
     id="rect6228"
     style="fill:#0066ff;fill-opacity:1;stroke:none" />
  <rect
     y="0"
     x="0"
     height="2.5"
     width="96"
     id="rect3880"
     style="opacity:0.3122172;fill:#ffffff;fill-opacity:1;stroke:none" />
  <rect
     style="opacity:0.38914029000000000;fill:#999999;fill-opacity:1;stroke:none"
     id="rect3878"
     width="96"
     height="2.5"
     x="0"
     y="93.5" />
  <rect
     style="opacity:0.9;fill:url(#linearGradient4594);fill-opacity:1;fill-rule:nonzero;stroke:none;display:none;filter:url(#filter3174-4)"
     id="rect3745-4"
     y="7"
     x="102.5"
     ry="6"
     rx="6"
     height="85"
     width="86" />
  <rect
     style="opacity:0.1;fill:url(#linearGradient4587);fill-opacity:1;fill-rule:nonzero;stroke:#ffffff;stroke-width:0.5;stroke-linecap:round;stroke-linejoin:miter;stroke-miterlimit:4;stroke-opacity:1;stroke-dasharray:none;stroke-dashoffset:0;display:none;filter:url(#filter3794-3)"
     id="rect3171"
     clip-path="url(#clipPath3613)"
     y="15"
     x="15"
     ry="12"
     rx="12"
     height="66"
     width="66"
     transform="translate(97.5,0)" />
  <g
     id="g6684">
    <path
       inkscape:connector-curvature="0"
       d="m 44.875708,8.7183421 c -2.220513,0.050073 -4.227262,1.1699354 -6.194254,2.7284219 -1.972056,1.562497 -3.983207,3.690865 -6.009901,6.231124 -4.054128,5.081445 -8.190415,11.872153 -12.019803,19.172692 -3.829712,7.301155 -7.32433,15.113791 -9.84444,22.232948 -2.5131124,7.09939 -4.1343068,13.423679 -4.1295024,18.214056 1.06e-5,0.0105 -2.6e-5,0.02636 0,0.03687 -5.55e-5,0.03665 -1.109e-4,0.106753 0,0.110612 a 1.0196516,1.0196516 0 0 0 0,0.03687 c 0.1751947,3.069607 2.2387851,5.111699 4.4244674,5.89929 2.086189,0.751739 4.211191,0.733094 5.678066,0.774282 a 1.0196516,1.0196516 0 0 0 0.03687,0 c 0.0052,-4.6e-5 0.142293,3.45e-4 0.147482,0 0.0052,-3.46e-4 0.105456,-0.03622 0.110612,-0.03687 0.0052,-6.45e-4 0.142367,9.42e-4 0.147482,0 0.0039,-7.2e-4 0.07505,-0.02919 0.110612,-0.03687 0.01121,-0.0024 0.02572,0.0024 0.03687,0 10.493629,-2.185854 22.311463,-7.755897 31.745553,-12.941566 4.721795,-2.595446 8.82879,-5.086881 11.835449,-7.042277 1.512243,-0.983494 2.721452,-1.85819 3.613315,-2.507198 0.42557,-0.309686 0.834032,-0.563152 1.179858,-0.848023 0.195424,-0.160979 0.455306,-0.439274 0.737411,-0.811153 6.086903,10.922377 11.245521,20.794996 11.245521,20.794996 0.0035,0.0067 0.106577,0.141093 0.110612,0.147483 0.004,0.0064 0.106046,0.178323 0.110612,0.184353 0.0046,0.006 0.105562,0.141856 0.110611,0.147482 0.0051,0.0057 0.141977,0.105432 0.147483,0.110611 0.0055,0.0052 0.141563,0.142781 0.147482,0.147483 0.0059,0.0047 0.141189,0.106423 0.147482,0.110611 0.0063,0.0042 0.17773,0.106966 0.184353,0.110612 0.0066,0.0037 0.177448,0.07066 0.184353,0.07374 0.007,0.0031 0.140344,0.07125 0.147482,0.07374 0.0072,0.0025 0.177031,0.07187 0.184353,0.07374 0.0073,0.0019 0.213769,0.03561 0.221223,0.03687 0.0074,0.0013 0.17682,-6.31e-4 0.184353,0 0.0076,6.31e-4 0.176792,2e-6 0.184353,0 0.0076,-2e-6 0.176819,6.36e-4 0.184353,0 0.0076,-6.36e-4 0.21377,0.0013 0.221223,0 0.0074,-0.0013 0.177032,-0.03498 0.184353,-0.03687 0.0073,-0.0019 0.177216,-0.07125 0.184353,-0.07374 0.0071,-0.0025 0.177449,-0.07066 0.184352,-0.07374 0.007,-0.0031 0.140862,-0.07009 0.147483,-0.07374 0.0066,-0.0037 0.178061,-0.106423 0.184352,-0.110612 0.0063,-0.0042 0.141566,-0.105904 0.147483,-0.110611 0.0059,-0.0047 0.14198,-0.142297 0.147482,-0.147483 0.0055,-0.0052 0.142435,-0.104983 0.147482,-0.110611 0.0051,-0.0057 0.106058,-0.141451 0.110612,-0.147482 0.0046,-0.006 0.106576,-0.177961 0.110611,-0.184353 0.004,-0.0064 0.10712,-0.140774 0.110612,-0.147483 0.0035,-0.0067 0.07083,-0.177376 0.07374,-0.184352 0.0029,-0.007 0.07143,-0.177157 0.07374,-0.184353 0.0024,-0.0072 0.03516,-0.176987 0.03687,-0.184353 0.0017,-0.0073 0.03578,-0.17687 0.03687,-0.184353 0.0011,-0.0074 0.03642,-0.176806 0.03687,-0.184353 4.51e-4,-0.0076 1.84e-4,-0.213665 0,-0.221223 C 81.826071,66.329653 75.834253,49.014743 68.509737,34.748958 64.847002,27.61513 60.823644,21.26594 56.895511,16.608642 52.980617,11.967041 49.140174,8.6221825 44.875708,8.7183421 z M 45.02319,27.817292 c 0.103686,0.05765 0.209698,0.1165 0.368706,0.221224 0.416281,0.274155 1.012575,0.722011 1.622305,1.36421 1.271442,1.33915 2.86024,3.440798 4.60882,5.936161 3.492203,4.983657 7.593655,11.70268 11.466744,18.43528 0.516648,0.898089 0.856862,1.576132 1.364211,2.470327 -0.04843,0.0053 -0.106553,-6.1e-4 -0.110612,0 -0.0067,0.001 -0.17768,0.03535 -0.184353,0.03687 -0.0067,0.0015 -0.140944,0.07171 -0.147482,0.07374 a 1.0196516,1.0196516 0 0 0 -0.03687,0 c 0,0 -10.208317,3.307683 -20.684384,6.120513 -5.237788,1.406348 -10.550404,2.707162 -14.563871,3.355221 -2.009213,0.324429 -3.688803,0.467492 -4.756303,0.442447 -0.172255,-0.004 -0.221176,-0.01903 -0.368705,-0.03687 0.01483,-0.301748 0.02258,-0.592985 0.110611,-0.995505 0.27549,-1.259643 0.85647,-3.021804 1.622305,-5.051267 1.528987,-4.051812 3.851872,-9.203454 6.489219,-14.158295 2.638002,-4.95607 5.60006,-9.764426 8.222135,-13.236531 1.307273,-1.731066 2.541471,-3.1107 3.539573,-3.98202 0.484606,-0.42305 0.905938,-0.721632 1.216729,-0.884894 0.211466,-0.111084 0.199648,-0.09648 0.221223,-0.110612 z"
       id="path3766"
       style="opacity:0.05;fill:#000000;fill-opacity:1;fill-rule:evenodd;stroke:none" />
    <path
       d="M 9.0007072,77.352263 C 8.9585036,60.369408 33.52941,11.300198 44.966295,11.042325 c 5.719503,-0.12897 14.28877,10.730677 21.496755,24.769505 7.207988,14.038827 13.054695,31.256843 13.329079,43.844637 0,0 -27.670707,-54.052838 -34.572554,-54.212853 -7.028487,-0.160022 -26.105528,38.082672 -23.836297,42.342619 2.216189,4.160374 43.338763,-9.251657 43.338763,-9.251657 -0.886475,1.365456 -27.734027,19.116381 -47.869692,23.298087 -3.039343,-0.08534 -7.5983629,-0.04268 -7.8516418,-4.4804 z"
       inkscape:connector-curvature="0"
       id="path3756"
       style="fill:#80b3ff;fill-opacity:1;fill-rule:evenodd;stroke:none" />
  </g>
  <g
     transform="translate(-136.92063,-226.69744)"
     id="g6604">
    <path
       inkscape:transform-center-x="-23.366649"
       inkscape:transform-center-y="-14.979213"
       inkscape:connector-curvature="0"
       id="path6575"
       d="m 230.14786,287.66745 c -0.11817,-0.1394 -0.25428,-0.28235 -0.38367,-0.41123 -0.0896,-0.0891 -0.18746,-0.1659 -0.28216,-0.24987 -0.0388,-0.034 -0.0803,-0.0676 -0.12022,-0.10049 -0.0112,-0.01 -0.0164,-0.0233 -0.0278,-0.0327 -0.0339,-0.028 -0.0702,-0.0564 -0.10639,-0.084 -0.11331,-0.0908 -0.23707,-0.17019 -0.35634,-0.25436 -0.16472,-0.11375 -0.33486,-0.20933 -0.50923,-0.31016 -0.0205,-0.0124 -0.044,-0.0229 -0.0647,-0.035 l 0.0232,-0.0141 c -0.0297,-0.0169 -0.0719,-0.0209 -0.10209,-0.0369 -1.87898,-1.05704 -4.29515,-1.42073 -6.7354,-1.01269 l -0.18583,0.11291 c -0.0327,0.007 -0.065,0.003 -0.0974,0.01 l -1.13827,0.69162 c -0.90695,0.57744 -1.94648,1.21043 -3.05246,1.87953 -0.10317,0.0624 -0.22065,0.13448 -0.32521,0.19759 -0.94404,0.56301 -1.87246,1.11816 -2.82463,1.69159 -0.12167,0.0731 -0.22588,0.13804 -0.34846,0.21171 -0.93504,0.565 -1.87405,1.1232 -2.81078,1.70793 -0.12323,0.0747 -0.24824,0.15078 -0.37168,0.22584 -3.5991,2.1885 -7.23415,4.51456 -10.07863,6.66929 -0.0716,0.0539 -0.14796,0.10377 -0.21846,0.15747 -0.67409,0.51628 -1.31853,1.02276 -1.8827,1.51573 -0.1191,0.10327 -0.22591,0.20333 -0.33946,0.30539 -0.16981,0.15379 -0.34082,0.30028 -0.49754,0.45103 -0.0595,0.0567 -0.10988,0.11977 -0.16751,0.17608 -0.0936,0.0922 -0.20479,0.18612 -0.29299,0.27716 l -0.12479,-0.14723 c -0.26612,-0.314 -0.81693,-0.34624 -1.26118,-0.0763 l -1.32409,0.80455 c -0.44426,0.26994 -0.60779,0.73622 -0.34167,1.05022 l 0.26341,0.31082 c -6.81568,0.11918 -5.57483,4.08033 -9.0277,11.97865 1.13563,-0.0437 2.18368,-0.0591 3.19082,-0.0553 6.30758,0.10948 10.36846,1.19125 12.39407,-2.40088 0.0784,-0.13109 0.13416,-0.27723 0.20532,-0.42215 0.0152,-0.0321 0.0363,-0.0729 0.0514,-0.1055 0.0948,-0.20285 0.17514,-0.42147 0.25697,-0.65183 l 0.26342,0.31082 c 0.0665,0.0785 0.16445,0.14342 0.26374,0.18672 0.10435,0.0459 0.21408,0.0621 0.33832,0.0671 0.11001,0.007 0.21556,-10e-4 0.32938,-0.0268 0.007,-0.003 0.0156,-0.0115 0.0232,-0.0141 0.12148,-0.0297 0.23282,-0.0671 0.34356,-0.13445 l 1.32409,-0.80454 c 0.44293,-0.26914 0.57069,-0.73847 0.3043,-1.05248 l -0.1525,-0.17996 c 0.0543,-0.0173 0.11207,-0.0332 0.1671,-0.0519 0.15822,-0.0521 0.3248,-0.1147 0.48746,-0.17228 0.32565,-0.1165 0.64215,-0.23764 0.98426,-0.37503 0.7353,-0.29205 1.49982,-0.64947 2.29865,-1.02495 0.0417,-0.0197 0.0865,-0.0362 0.12997,-0.0542 0.11642,-0.0551 0.23538,-0.10829 0.35293,-0.16489 0.08,-0.0388 0.16586,-0.0854 0.24615,-0.12482 3.23362,-1.57636 6.862,-3.67521 10.33574,-5.78461 0.12349,-0.075 0.24859,-0.15092 0.37166,-0.22584 2.09224,-1.27368 4.1116,-2.51561 5.95618,-3.64387 0.10766,-0.067 0.21771,-0.13071 0.32522,-0.19763 1.10254,-0.6731 2.14373,-1.30417 3.08016,-1.84684 l 1.13825,-0.69163 c 0.0173,-0.0241 0.0249,-0.0511 0.0421,-0.0749 l 0.18583,-0.11291 c 0.20113,-0.29684 0.38448,-0.59077 0.54064,-0.89851 0.0122,-0.0251 0.0296,-0.0498 0.0421,-0.0749 0.14079,-0.28379 0.25805,-0.57346 0.35965,-0.8629 0.0957,-0.27415 0.15611,-0.54843 0.21582,-0.82502 0.01,-0.0407 0.0291,-0.0811 0.0374,-0.12189 0.002,-0.0102 0.007,-0.0204 0.009,-0.0304 0.0588,-0.3077 0.0825,-0.61879 0.0955,-0.92542 0.0257,-0.59478 -0.0285,-1.17862 -0.18032,-1.74916 -0.002,-0.005 -0.0122,-0.01 -0.0139,-0.0163 -0.005,-0.0145 -4.4e-4,-0.0321 -0.005,-0.0468 -0.005,-0.0147 -4.4e-4,-0.0322 -0.005,-0.0467 -0.002,-0.005 -0.0122,-0.01 -0.0139,-0.0163 -0.0634,-0.22039 -0.14428,-0.43686 -0.23461,-0.65051 -0.0221,-0.0519 -0.0407,-0.10764 -0.0644,-0.1591 -0.012,-0.0249 -0.0201,-0.0547 -0.0323,-0.0795 -0.009,-0.0185 -0.0326,-0.0305 -0.0416,-0.0491 -0.13338,-0.26983 -0.27664,-0.53347 -0.45678,-0.78813 -0.008,-0.0114 -0.0192,-0.0213 -0.0278,-0.0327 -0.10751,-0.15688 -0.22487,-0.30677 -0.35115,-0.45578 z"
       style="fill:#000000;fill-opacity:0.17254902;stroke:none" />
    <path
       inkscape:connector-curvature="0"
       style="fill:#e7ce9b;fill-opacity:1;stroke:none"
       d="m 185.09128,315.27276 c -2.34094,-14.66871 -8.53807,-18.10199 10.76739,-20.86592 10.18577,17.96237 2.72188,15.43102 -10.76739,20.86592 z"
       id="path6015"
       sodipodi:nodetypes="ccc" />
    <path
       sodipodi:nodetypes="ccccc"
       inkscape:connector-curvature="0"
       id="path6017"
       d="m 197.29962,300.29296 -1.55574,2.44207 c -1.65333,5.91303 -5.7079,9.57126 -10.63217,12.52931 9.63108,-4.0265 17.30344,-2.70948 15.14915,-11.27149 -0.50457,-2.47717 -1.49926,-3.42948 -2.96124,-3.69989 z"
       style="fill:#c17d11;fill-opacity:1;stroke:none" />
    <path
       inkscape:connector-curvature="0"
       id="path6019"
       d="m 215.27305,262.40952 c -0.23063,-0.13315 -0.48365,-0.26399 -0.71925,-0.37923 -3.53435,-1.7278 -7.56286,-1.44016 -10.69629,0.46402 l -0.125,0.21651 c -0.0316,0.0205 -0.0696,0.0292 -0.10098,0.0499 l -0.76562,1.3261 c -0.5912,1.09039 -1.28947,2.30323 -2.03548,3.58795 -0.0696,0.11991 -0.14811,0.25759 -0.21875,0.37889 -0.6426,1.08621 -1.27348,2.15633 -1.91765,3.25906 -0.0824,0.14077 -0.15136,0.26416 -0.23437,0.40595 -0.63122,1.08529 -1.27168,2.1634 -1.89063,3.27466 -4.48221,7.74342 -8.99835,16.21294 -8.60504,20.90438 l 0.18944,0.10937 8.68732,5.01563 3.00402,1.73437 0.18944,0.10938 c 4.25956,-2.00511 9.33613,-10.15106 13.80121,-17.90438 1.4056,-2.44058 2.75322,-4.81232 3.9886,-6.97087 0.0713,-0.12745 0.14757,-0.2516 0.21875,-0.37889 0.73934,-1.28857 1.44081,-2.49956 2.08952,-3.55675 l 0.76563,-1.3261 c 0.002,-0.0376 -0.009,-0.0749 -0.007,-0.1124 l 0.125,-0.21651 c 0.0824,-3.66572 -1.70986,-7.31395 -4.97336,-9.51089 -0.0176,-0.0113 -0.0365,-0.0199 -0.0541,-0.0312 -0.23133,-0.15965 -0.46861,-0.30658 -0.71511,-0.4489 z"
       style="fill:#5c5c5c;fill-opacity:1;stroke:none" />
    <path
       inkscape:connector-curvature="0"
       id="path6021"
       d="m 215.27305,262.40952 c -0.23063,-0.13315 -0.48365,-0.26399 -0.71925,-0.37923 -3.53435,-1.7278 -7.56286,-1.44016 -10.69629,0.46402 l -0.125,0.21651 c -0.0316,0.0205 -0.0696,0.0292 -0.10098,0.0499 l -0.76562,1.3261 c -0.5912,1.09039 -1.28947,2.30323 -2.03548,3.58795 -0.0696,0.11991 -0.14811,0.25759 -0.21875,0.37889 -0.6426,1.08621 -1.27348,2.15633 -1.91765,3.25906 -0.0824,0.14077 -0.15136,0.26416 -0.23437,0.40595 -0.63122,1.08529 -1.27168,2.1634 -1.89063,3.27466 -0.083,0.14338 -0.16701,0.28915 -0.25,0.43301 l 17.26639,9.96875 c 0.0831,-0.1438 0.16732,-0.28945 0.25,-0.43301 1.4056,-2.44058 2.75322,-4.81232 3.9886,-6.97087 0.0713,-0.12745 0.14757,-0.2516 0.21875,-0.37889 0.73934,-1.28857 1.44081,-2.49956 2.08952,-3.55675 l 0.76563,-1.3261 c 0.002,-0.0376 -0.009,-0.0749 -0.007,-0.1124 l 0.125,-0.21651 c 0.0824,-3.66572 -1.70986,-7.31395 -4.97336,-9.51089 -0.0176,-0.0113 -0.0365,-0.0199 -0.0541,-0.0312 -0.23133,-0.15965 -0.46861,-0.30658 -0.71511,-0.4489 z"
       style="fill:#5c5c5c;fill-opacity:1;stroke:none" />
    <path
       inkscape:connector-curvature="0"
       id="path6023"
       d="m 215.27305,262.40952 c -0.23063,-0.13315 -0.48365,-0.26399 -0.71925,-0.37923 -0.16301,-0.0797 -0.32634,-0.14038 -0.49132,-0.2115 -0.0673,-0.0284 -0.13727,-0.0556 -0.20505,-0.0823 -0.0193,-0.008 -0.0349,-0.0236 -0.0541,-0.0312 -0.24222,-0.094 -0.50978,-0.17885 -0.75471,-0.25531 -0.26382,-0.0823 -0.52069,-0.1392 -0.78596,-0.20118 2.00972,2.15128 3.07962,4.99045 3.01561,7.83932 l -18.4375,31.93469 3.00402,1.73437 0.18944,0.10938 c 4.25956,-2.00511 9.33613,-10.15106 13.80121,-17.90438 1.4056,-2.44058 2.75322,-4.81232 3.9886,-6.97087 0.0713,-0.12745 0.14757,-0.2516 0.21875,-0.37889 0.73934,-1.28857 1.44081,-2.49956 2.08952,-3.55675 l 0.76563,-1.3261 c 0.002,-0.0376 -0.009,-0.0749 -0.007,-0.1124 l 0.125,-0.21651 c 0.0101,-0.45142 0.001,-0.91279 -0.0443,-1.36071 -0.004,-0.037 -0.003,-0.0754 -0.007,-0.1124 -0.0471,-0.41823 -0.12465,-0.83488 -0.21927,-1.24521 -0.0903,-0.38844 -0.21963,-0.76347 -0.35152,-1.14115 -0.0194,-0.0558 -0.0255,-0.11528 -0.0457,-0.17075 -0.005,-0.0133 -0.006,-0.0291 -0.0114,-0.0426 -0.15503,-0.41728 -0.35181,-0.82517 -0.55659,-1.22346 -0.21143,-0.41122 -0.44881,-0.81929 -0.71172,-1.20477 -0.22629,-0.33177 -0.47656,-0.65961 -0.73991,-0.96844 -0.0424,-0.0496 -0.0878,-0.099 -0.13113,-0.14788 -0.28455,-0.32211 -0.58604,-0.63094 -0.91065,-0.9227 -0.0311,-0.0272 -0.0614,-0.0624 -0.0927,-0.0895 -0.0231,-0.0203 -0.0579,-0.0265 -0.0811,-0.0469 -0.34084,-0.29447 -0.6882,-0.57724 -1.06997,-0.83425 -0.0176,-0.0113 -0.0365,-0.0199 -0.0541,-0.0312 -0.23133,-0.15965 -0.4686,-0.30658 -0.71511,-0.4489 z"
       style="fill:#000000;fill-opacity:1;stroke:none" />
    <path
       inkscape:connector-curvature="0"
       id="path6025"
       d="m 191.31981,284.77276 c -2.11522,4.39114 -3.58431,8.40029 -3.35587,11.12503 l 0.18944,0.10938 8.68732,5.01562 3.00402,1.73438 0.18944,0.10937 c 2.47392,-1.16454 5.2114,-4.44138 7.95663,-8.46878 l -16.67098,-9.625 z"
       style="fill:#5c5c5c;fill-opacity:1;stroke:none" />
    <path
       inkscape:connector-curvature="0"
       id="path6027"
       d="m 215.27305,262.40952 c -0.23063,-0.13315 -0.48365,-0.26399 -0.71925,-0.37923 -0.16301,-0.0797 -0.32634,-0.14038 -0.49132,-0.2115 -0.0673,-0.0284 -0.13727,-0.0556 -0.20505,-0.0823 -0.078,-0.0319 -0.1537,-0.068 -0.2321,-0.098 -0.19157,-0.0683 -0.39021,-0.13037 -0.57671,-0.18862 -0.26382,-0.0824 -0.52068,-0.13921 -0.78595,-0.20118 2.00972,2.15127 3.07961,4.99045 3.0156,7.83932 l -7.48437,12.96332 5.79154,3.34375 c 0.0831,-0.1438 0.16732,-0.28945 0.25,-0.43302 1.4056,-2.44057 2.75322,-4.81232 3.98861,-6.97086 0.0713,-0.12745 0.14757,-0.25161 0.21875,-0.37889 0.73934,-1.28858 1.44081,-2.49956 2.08952,-3.55675 l 0.76562,-1.32611 c 0.002,-0.0376 -0.009,-0.0749 -0.007,-0.11239 l 0.125,-0.21651 c 0.0103,-0.45821 0.003,-0.90585 -0.0443,-1.36072 -0.004,-0.037 -0.003,-0.0754 -0.007,-0.11239 -0.0471,-0.41823 -0.12465,-0.83488 -0.21927,-1.24521 -0.0904,-0.38845 -0.21963,-0.76348 -0.35153,-1.14115 -0.0194,-0.0558 -0.0255,-0.11528 -0.0457,-0.17075 -0.005,-0.0134 -0.006,-0.0291 -0.0114,-0.0426 -0.15502,-0.41728 -0.35181,-0.82517 -0.55659,-1.22346 -0.21142,-0.41123 -0.4488,-0.8193 -0.71172,-1.20477 -0.22629,-0.33177 -0.47656,-0.65961 -0.7399,-0.96845 -0.0424,-0.0495 -0.0878,-0.099 -0.13113,-0.14787 -0.28456,-0.32212 -0.58605,-0.63095 -0.91066,-0.9227 -0.0311,-0.0272 -0.0614,-0.0624 -0.0926,-0.0895 -0.0232,-0.0203 -0.0579,-0.0265 -0.0812,-0.0469 -0.34084,-0.29447 -0.6882,-0.57725 -1.06997,-0.83426 -0.0176,-0.0113 -0.0365,-0.0199 -0.0541,-0.0312 -0.23132,-0.15965 -0.4686,-0.30657 -0.71511,-0.44889 z"
       style="fill:#000000;fill-opacity:1;stroke:none" />
    <path
       inkscape:connector-curvature="0"
       id="path6029"
       d="m 202.49695,291.22588 -5.65625,9.79691 3.00402,1.73438 0.18944,0.10937 c 0.31286,-0.14727 0.63479,-0.31971 0.95589,-0.53064 0.22735,-0.14984 0.45744,-0.32463 0.68832,-0.50471 0.0851,-0.0659 0.17897,-0.13838 0.26451,-0.20813 0.18737,-0.15453 0.38651,-0.3249 0.57588,-0.49746 0.13386,-0.12086 0.26618,-0.25262 0.40094,-0.38195 0.13969,-0.13556 0.29158,-0.29174 0.43219,-0.43608 0.19079,-0.19446 0.37636,-0.40024 0.56863,-0.60989 0.0912,-0.1002 0.19277,-0.20149 0.28427,-0.30498 0.23493,-0.26411 0.47259,-0.56911 0.70926,-0.85346 0.26616,-0.32221 0.53509,-0.67049 0.803,-1.01585 0.0706,-0.0904 0.15527,-0.17454 0.226,-0.26644 0.0488,-0.0639 0.1032,-0.13635 0.15202,-0.20091 0.63313,-0.83686 1.25848,-1.72359 1.89564,-2.65833 l -5.49385,-3.17188 z"
       style="fill:#000000;fill-opacity:1;stroke:none" />
    <rect
       transform="matrix(0.8660254,0.5,-0.5,0.8660254,0,0)"
       ry="1.0787789"
       rx="1.0827572"
       y="159.51024"
       x="308.08759"
       height="3.9285715"
       width="19.285715"
       id="rect6054"
       style="fill:#5c5c5c;fill-opacity:1;stroke:none" />
    <path
       inkscape:connector-curvature="0"
       id="rect6564"
       d="m 197.94567,298.47501 c 0.51948,0.29993 0.71547,0.94826 0.41754,1.46429 l -0.88797,1.53802 c -0.29793,0.51603 -0.97298,0.69744 -1.49246,0.39752 l 4.87139,2.8125 c 0.51948,0.29992 1.19453,0.11851 1.49246,-0.39752 l 0.88797,-1.53802 c 0.29793,-0.51603 0.10194,-1.16436 -0.41754,-1.46429 l -4.87139,-2.8125 z"
       style="fill:#000000;fill-opacity:1;stroke:none" />
    <path
       inkscape:connector-curvature="0"
       id="path6039"
       d="m 212.1814,261.20191 c -0.70989,-0.16103 -1.43371,-0.25808 -2.14948,-0.27698 l -21.24105,36.79058 1.73205,1 21.65848,-37.5136 z"
       style="opacity:0.50632911;fill:#fff6d5;fill-opacity:1;stroke:none" />
    <path
       transform="matrix(0.8660254,0.5,-0.5,0.8660254,150.87802,-258.90322)"
       d="m 319.10713,467.00504 c 0,1.28208 -1.03933,2.32142 -2.32142,2.32142 -1.28209,0 -2.32143,-1.03934 -2.32143,-2.32142 0,-1.28209 1.03934,-2.32143 2.32143,-2.32143 1.28209,0 2.32142,1.03934 2.32142,2.32143 z"
       sodipodi:ry="2.3214285"
       sodipodi:rx="2.3214285"
       sodipodi:cy="467.00504"
       sodipodi:cx="316.78571"
       id="path6569"
       style="fill:#c17d11;fill-opacity:1;stroke:none"
       sodipodi:type="arc" />
    <rect
       transform="matrix(0.8660254,0.5,-0.5,0.8660254,0,0)"
       ry="1.6014463"
       rx="1.0827572"
       y="165.4868"
       x="317.4202"
       height="14.314813"
       width="1.0714285"
       id="rect6571"
       style="fill:#c17d11;fill-opacity:1;stroke:none" />
    <path
       sodipodi:type="arc"
       style="fill:#000000;fill-opacity:1;stroke:none"
       id="path6573"
       sodipodi:cx="316.78571"
       sodipodi:cy="467.00504"
       sodipodi:rx="2.3214285"
       sodipodi:ry="2.3214285"
       d="m 319.10713,467.00504 c 0,1.28208 -1.03933,2.32142 -2.32142,2.32142 -1.28209,0 -2.32143,-1.03934 -2.32143,-2.32142 0,-1.28209 1.03934,-2.32143 2.32143,-2.32143 1.28209,0 2.32142,1.03934 2.32142,2.32143 z"
       transform="matrix(0.63638573,0.36741747,-0.36741747,0.63638573,161.70788,-109.66009)" />
  </g>
</svg>
