<?xml version="1.0" encoding="UTF-8" standalone="no"?>
<!-- Created with Inkscape (http://www.inkscape.org/) -->

<svg
   xmlns:dc="http://purl.org/dc/elements/1.1/"
   xmlns:cc="http://creativecommons.org/ns#"
   xmlns:rdf="http://www.w3.org/1999/02/22-rdf-syntax-ns#"
   xmlns:svg="http://www.w3.org/2000/svg"
   xmlns="http://www.w3.org/2000/svg"
   xmlns:sodipodi="http://sodipodi.sourceforge.net/DTD/sodipodi-0.dtd"
   xmlns:inkscape="http://www.inkscape.org/namespaces/inkscape"
   version="1.0"
   width="96"
   height="96"
   id="svg2408"
   inkscape:version="0.48.3.1 r9886"
   sodipodi:docname="accessories-dictionary.svg">
  <sodipodi:namedview
     pagecolor="#ffffff"
     bordercolor="#666666"
     borderopacity="1"
     objecttolerance="10"
     gridtolerance="10"
     guidetolerance="10"
     inkscape:pageopacity="0"
     inkscape:pageshadow="2"
     inkscape:window-width="1280"
     inkscape:window-height="752"
     id="namedview128"
     showgrid="false"
     inkscape:zoom="2.8284271"
     inkscape:cx="71.799869"
     inkscape:cy="68.952168"
     inkscape:window-x="0"
     inkscape:window-y="0"
     inkscape:window-maximized="1"
     inkscape:current-layer="g5602"
     showguides="true"
     inkscape:guide-bbox="true" />
  <defs
     id="defs2410">
    <linearGradient
       x1="45.447727"
       y1="92.539597"
       x2="45.447727"
       y2="7.0165396"
       id="ButtonShadow"
       gradientUnits="userSpaceOnUse"
       gradientTransform="scale(1.0058652,0.994169)">
      <stop
         id="stop3750"
         style="stop-color:#000000;stop-opacity:1"
         offset="0" />
      <stop
         id="stop3752"
         style="stop-color:#000000;stop-opacity:0.58823532"
         offset="1" />
    </linearGradient>
    <filter
       color-interpolation-filters="sRGB"
       id="filter3174">
      <feGaussianBlur
         id="feGaussianBlur3176"
         stdDeviation="1.71" />
    </filter>
  </defs>
  <metadata
     id="metadata2413">
    <rdf:RDF>
      <cc:Work
         rdf:about="">
        <dc:format>image/svg+xml</dc:format>
        <dc:type
           rdf:resource="http://purl.org/dc/dcmitype/StillImage" />
        <dc:title />
      </cc:Work>
    </rdf:RDF>
  </metadata>
  <g
     id="layer2"
     style="display:none">
    <path
       d="M 11,7 C 7.676,7 5,9.676 5,13 l 0,33.6875 c 2.2377507,0.124029 4.660506,0.235683 5.875,0.4375 0.66093,0.10983 -0.08406,0.240848 -1.125,0.34375 C 8.7090622,47.571654 7.3545491,47.665119 6.84375,47.75 6.2216014,47.853382 5.6264179,47.903999 5,48 l 0,1.0625 c 0.3803657,0.03607 0.7183843,0.03125 0.9375,0.03125 0.80883,10e-7 1.1599727,0.215701 1.3125,0.5625 0.1525272,0.346797 0.09375,0.839723 0.09375,1.40625 0,0.424828 -0.9420178,0.663014 -1.15625,1.375 C 6.110939,52.691968 5.5510552,52.945524 5,53.1875 l 0,2.21875 c 0.7355867,0.02497 1.4332639,0.05671 1.84375,0.3125 C 7.1254716,55.894306 6.0687957,56.124098 5,56.3125 l 0,7.5625 c 1.1379643,0.180337 3.3100715,0.925679 3.96875,1.0625 1.090152,0.226446 1.224723,0.33476 0.875,0.4375 -0.3497231,0.102744 -1.173581,0.175172 -2,0.3125 C 6.8656638,65.850029 5.90816,66.141998 5,66.34375 L 5,86 c 0,3.324 2.676,6 6,6 l 13,0 c 0.0954,-0.438237 0.150955,-0.931178 0.25,-1.4375 0.140364,-0.717512 0.25498,-1.34159 0.375,-1.59375 0.03001,-0.06304 0.05815,-0.114053 0.09375,-0.125 0.106804,-0.03285 0.238198,0.191956 0.46875,0.78125 0.304338,0.777871 0.540174,1.646782 0.6875,2.375 l 0.75,0 c 0.276152,-0.493694 0.578538,-1.138496 0.8125,-1.4375 0.09907,-0.126629 0.275237,0.131501 0.53125,0.375 0.256014,0.2435 0.588904,0.486378 0.9375,0.375 0.648614,-0.207227 1.602807,-0.726227 2.03125,-1 0.139883,-0.08938 0.300164,-0.157976 0.40625,-0.1875 0.106087,-0.02952 0.174331,-0.01774 0.25,0 0.151339,0.03548 0.232196,0.144559 0.34375,0.28125 0.223098,0.27338 0.466785,0.656251 1.0625,0.65625 0.478344,0 0.657185,-0.0325 0.78125,0.0625 0.124065,0.095 0.197087,0.314551 0.40625,0.875 l 8.875,0 c -0.04778,-0.593879 1.040547,-2.151517 1.21875,-3.0625 0.19092,-0.975995 0.214078,-1.242419 0.28125,-1.0625 0.06717,0.179919 0.192504,0.793906 0.46875,1.5 0.110448,0.282298 0.213887,0.358235 0.3125,0.28125 0.09861,-0.07699 0.168895,-0.293948 0.25,-0.5625 0.162213,-0.537107 0.285649,-1.296709 0.34375,-1.59375 0.131129,-0.670335 0.128655,-1.786501 0.125,-2.28125 -9.11e-4,-0.123687 -0.0059,-0.217815 0,-0.25 0.01779,-0.09656 0.08067,0.312079 0.28125,1.59375 0.163819,1.046767 0.54767,2.687946 0.71875,3.5625 0.169798,0.867992 0.298106,1.322124 0.40625,1.875 l 28.21875,0 c 0.03877,-0.494956 0.03519,-1.098589 0.0625,-1.5 0.02049,-0.301057 0.06649,-0.487005 0.15625,-0.46875 0.02992,0.0061 0.05077,0.03882 0.09375,0.09375 0.233449,0.298339 0.630596,1.164908 0.96875,1.875 L 85,92 c 3.324,0 6,-2.676 6,-6 l 0,-7.21875 c -0.16942,0.0045 -0.290112,-4e-6 -0.5,0 -1.330307,0 -2.638456,-4e-6 -3.96875,0 -1.226564,0 -2.05394,-9.64e-4 -2.25,-0.0625 -0.19606,-0.06154 0.232972,-0.183183 1.46875,-0.5 C 86.405034,78.050819 89.092469,77.290673 91,76.875 L 91,38.46875 C 90.34725,38.202412 89.792969,37.980093 89.25,37.5625 89.107486,37.452886 88.801155,37.170028 88.28125,37 87.761349,36.829972 87.007124,36.743855 86,36.9375 c -1.533473,0.294852 -1.685602,0.283469 -1.25,0.15625 0.4356,-0.127221 1.468635,-0.381012 2.25,-0.53125 1.152717,-0.221645 2.722214,-1.204246 4,-1.84375 l 0,-4.5625 c -0.69831,-0.257978 -1.422206,-0.558272 -1.75,-1.0625 -0.209707,-0.322576 -0.321618,-0.513018 -0.3125,-0.625 0.0091,-0.111981 0.13299,-0.149124 0.25,-0.1875 0.117011,-0.03837 0.261032,-0.05449 0.375,-0.15625 0.11397,-0.101759 0.187497,-0.291619 0.1875,-0.59375 0,-0.32292 0.08246,-0.887065 0.0625,-1.40625 -0.01,-0.259593 -0.03562,-0.49724 -0.125,-0.6875 -0.08939,-0.19026 -0.219089,-0.333004 -0.4375,-0.375 -0.574572,-0.110478 -0.848143,-0.233682 -0.90625,-0.34375 -0.05811,-0.110067 0.07208,-0.18937 0.28125,-0.28125 0.418339,-0.18376 1.132532,-0.339398 1.125,-0.34375 -0.668701,-0.385725 -5.247169,-0.921226 -5,-0.96875 0.332574,-0.06395 0.667437,-0.123553 1,-0.1875 1.047644,-0.201439 2.43278,-0.309227 3.75,-0.5625 0.573261,-0.110227 0.911769,-0.250569 1.125,-0.4375 0.213229,-0.18693 0.294201,-0.423258 0.375,-0.625 L 91,13 C 91,9.676 88.324,7 85,7 L 33.625,7 C 33.72158,8.3975706 33.82658,9.959362 33.53125,9.1875 33.320827,8.6375466 33.210422,8.0499534 33,7.5 32.946762,7.3608606 32.903941,7.1705291 32.84375,7 L 30.8125,7 C 30.571803,7.4923127 30.362863,7.9708281 30.03125,8.1875 29.524321,8.5187294 29.245447,8.6821159 29,8.59375 28.754552,8.5053839 28.523162,8.1669814 28.15625,7.6875 27.992502,7.4735174 27.721718,7.2560338 27.40625,7 l -6.8125,0 -1.3125,5.5625 L 17.53125,7 17.3125,7 15.5625,15.9375 14.15625,7 11,7 z"
       inkscape:connector-curvature="0"
       id="rect3745"
       style="opacity:0.9;fill:url(#ButtonShadow);fill-opacity:1;fill-rule:nonzero;stroke:none;filter:url(#filter3174)" />
  </g>
  <g
     id="g5602">
    <rect
       style="fill:#550000;fill-opacity:1;stroke:none"
       id="rect6228"
       width="96"
       height="96"
       x="0"
       y="0" />
    <rect
       y="0"
       x="21.213203"
       height="96"
       width="74.786797"
       id="rect3751"
       style="fill:#deba87;fill-opacity:1;stroke:none" />
    <rect
       style="fill:#ffffff;fill-opacity:1;stroke:none;opacity:0.31221719"
       id="rect3880"
       width="96"
       height="2.5"
       x="0"
       y="0" />
    <rect
       y="93.5"
       x="0"
       height="2.5"
       width="96"
       id="rect3878"
       style="fill:#2b0000;fill-opacity:1;stroke:none;opacity:0.38914027000000001" />
    <g
       style="font-size:24.2268486px;font-style:normal;font-variant:normal;font-weight:normal;font-stretch:normal;line-height:125%;letter-spacing:0px;word-spacing:0px;opacity:0.42081448;fill:#550000;fill-opacity:1;stroke:none;font-family:Quirky Nots;-inkscape-font-specification:Quirky Nots"
       id="text3753">
      <path
         d="m 36.119401,33.152925 2.519592,-7.583003 2.495365,7.583003 -5.014957,0 m 4.336606,-12.816003 -3.658254,0 -3.415986,10.441772 -2.68918,8.212902 0,0 -1.792787,5.572175 3.53712,0 2.616499,-8.019087 7.171148,0 2.640726,8.019087 3.512893,0 -2.204643,-6.735064 -2.325777,-7.122694 -3.367532,-10.369091 -0.02423,0"
         style="fill:#550000;font-family:Thohir Ke Badreah;-inkscape-font-specification:Thohir Ke Badreah"
         id="path4544" />
      <path
         d="m 58.63485,41.172012 -6.541249,0 0,-8.019087 4.966504,0 1.574745,0 0,0 c 2.180414,0.07268 3.92475,1.817016 3.92475,3.99743 0,2.204641 -1.744336,3.99743 -3.92475,4.021657 M 57.132786,23.607547 c 1.453609,0 2.737633,1.720107 2.737633,3.101036 0,1.308249 -1.332478,3.101037 -2.737633,3.101037 l -5.039185,0 0,-6.105166 5.039185,-0.09691 m -5.136092,-3.270625 -3.343305,0 0.02423,20.83509 0.02423,0 0.02423,3.391759 9.908781,0 0,0 c 4.167014,0 7.583004,-3.41599 7.583004,-7.607231 0,-2.858765 -1.550521,-5.305681 -3.852069,-6.613929 0.678351,-1.017527 1.090208,-2.253099 1.090208,-3.585574 0,-3.512889 -2.810318,-6.371661 -6.323207,-6.420115 l 0,0 -5.039185,0 -0.09691,0"
         style="fill:#550000;font-family:Thohir Ke Badreah;-inkscape-font-specification:Thohir Ke Badreah"
         id="path4546" />
      <path
         d="m 83.923136,20.361149 -4.845369,0 0,0 c -6.686604,0 -12.040744,5.426821 -12.016517,12.113424 0.02423,6.613923 5.402594,11.992291 12.016517,12.089198 l 0,0 0.678351,0 0,0 4.239699,0 0,-3.415986 -4.675782,0 -0.169588,0 0,0 c -4.748457,-0.07268 -8.527851,-3.924754 -8.527851,-8.673212 0,-4.772684 3.779394,-8.624758 8.527851,-8.745892 l 0,0 4.84537,0 -0.07268,-3.367532"
         style="fill:#550000;font-family:Thohir Ke Badreah;-inkscape-font-specification:Thohir Ke Badreah"
         id="path4548" />
    </g>
    <rect
       style="opacity:0.38914029000000000;fill:#ffd42a;fill-opacity:1;stroke:none"
       id="rect3757"
       width="96"
       height="2.5"
       x="0"
       y="7.75" />
    <rect
       y="72.403351"
       x="0"
       height="2.5"
       width="96"
       id="rect3759"
       style="opacity:0.38914029;fill:#ffcc00;fill-opacity:1;stroke:none" />
    <rect
       style="opacity:0.38914029000000000;fill:#ffd42a;fill-opacity:1;stroke:none"
       id="rect3761"
       width="11.25"
       height="2.5"
       x="3.75"
       y="-92.25"
       transform="matrix(0,1,-1,0,0,0)" />
    <rect
       transform="matrix(0,1,-1,0,0,0)"
       y="-92.25"
       x="67.873024"
       height="2.5"
       width="11.25"
       id="rect3763"
       style="opacity:0.38914029;fill:#ffcc00;fill-opacity:1;stroke:none" />
    <rect
       y="84.145706"
       x="3.1540604"
       height="9.3794193"
       width="92.84594"
       id="rect4533"
       style="fill:#ffe6d5;fill-opacity:1;stroke:none" />
    <rect
       style="opacity:0.38914029;fill:#2b0000;fill-opacity:1;stroke:none"
       id="rect4535"
       width="92.851952"
       height="2.5"
       x="3.1480484"
       y="85.605705" />
    <rect
       y="89.543205"
       x="3.1480484"
       height="2.5"
       width="92.851952"
       id="rect4537"
       style="opacity:0.38914029;fill:#2b0000;fill-opacity:1;stroke:none" />
    <rect
       y="81.640862"
       x="3.1480484"
       height="2.5"
       width="92.851952"
       id="rect4539"
       style="opacity:0.38914029;fill:#2b0000;fill-opacity:1;stroke:none" />
    <rect
       y="79.129662"
       x="0"
       height="2.5"
       width="96"
       id="rect4541"
       style="opacity:0.3122172;fill:#ffffff;fill-opacity:1;stroke:none" />
  </g>
</svg>
