<?xml version="1.0" encoding="UTF-8" standalone="no"?>
<!-- Created with Inkscape (http://www.inkscape.org/) -->

<svg
   xmlns:dc="http://purl.org/dc/elements/1.1/"
   xmlns:cc="http://creativecommons.org/ns#"
   xmlns:rdf="http://www.w3.org/1999/02/22-rdf-syntax-ns#"
   xmlns:svg="http://www.w3.org/2000/svg"
   xmlns="http://www.w3.org/2000/svg"
   xmlns:sodipodi="http://sodipodi.sourceforge.net/DTD/sodipodi-0.dtd"
   xmlns:inkscape="http://www.inkscape.org/namespaces/inkscape"
   version="1.0"
   width="96"
   height="96"
   id="svg2408"
   inkscape:version="0.48.3.1 r9886"
   sodipodi:docname="acroread.svg">
  <sodipodi:namedview
     pagecolor="#ffffff"
     bordercolor="#666666"
     borderopacity="1"
     objecttolerance="10"
     gridtolerance="10"
     guidetolerance="10"
     inkscape:pageopacity="0"
     inkscape:pageshadow="2"
     inkscape:window-width="1280"
     inkscape:window-height="752"
     id="namedview128"
     showgrid="false"
     inkscape:zoom="5.656854"
     inkscape:cx="52.443756"
     inkscape:cy="50.772519"
     inkscape:window-x="0"
     inkscape:window-y="0"
     inkscape:window-maximized="1"
     inkscape:current-layer="svg2408"
     showguides="true"
     inkscape:guide-bbox="true" />
  <defs
     id="defs2410">
    <linearGradient
       x1="45.447727"
       y1="92.539597"
       x2="45.447727"
       y2="7.0165396"
       id="ButtonShadow"
       gradientUnits="userSpaceOnUse"
       gradientTransform="scale(1.0058652,0.994169)">
      <stop
         id="stop3750"
         style="stop-color:#000000;stop-opacity:1"
         offset="0" />
      <stop
         id="stop3752"
         style="stop-color:#000000;stop-opacity:0.58823532"
         offset="1" />
    </linearGradient>
    <filter
       color-interpolation-filters="sRGB"
       id="filter3174">
      <feGaussianBlur
         id="feGaussianBlur3176"
         stdDeviation="1.71" />
    </filter>
  </defs>
  <metadata
     id="metadata2413">
    <rdf:RDF>
      <cc:Work
         rdf:about="">
        <dc:format>image/svg+xml</dc:format>
        <dc:type
           rdf:resource="http://purl.org/dc/dcmitype/StillImage" />
        <dc:title />
      </cc:Work>
    </rdf:RDF>
  </metadata>
  <g
     id="layer2"
     style="display:none">
    <path
       d="M 11,7 C 7.676,7 5,9.676 5,13 l 0,33.6875 c 2.2377507,0.124029 4.660506,0.235683 5.875,0.4375 0.66093,0.10983 -0.08406,0.240848 -1.125,0.34375 C 8.7090622,47.571654 7.3545491,47.665119 6.84375,47.75 6.2216014,47.853382 5.6264179,47.903999 5,48 l 0,1.0625 c 0.3803657,0.03607 0.7183843,0.03125 0.9375,0.03125 0.80883,10e-7 1.1599727,0.215701 1.3125,0.5625 0.1525272,0.346797 0.09375,0.839723 0.09375,1.40625 0,0.424828 -0.9420178,0.663014 -1.15625,1.375 C 6.110939,52.691968 5.5510552,52.945524 5,53.1875 l 0,2.21875 c 0.7355867,0.02497 1.4332639,0.05671 1.84375,0.3125 C 7.1254716,55.894306 6.0687957,56.124098 5,56.3125 l 0,7.5625 c 1.1379643,0.180337 3.3100715,0.925679 3.96875,1.0625 1.090152,0.226446 1.224723,0.33476 0.875,0.4375 -0.3497231,0.102744 -1.173581,0.175172 -2,0.3125 C 6.8656638,65.850029 5.90816,66.141998 5,66.34375 L 5,86 c 0,3.324 2.676,6 6,6 l 13,0 c 0.0954,-0.438237 0.150955,-0.931178 0.25,-1.4375 0.140364,-0.717512 0.25498,-1.34159 0.375,-1.59375 0.03001,-0.06304 0.05815,-0.114053 0.09375,-0.125 0.106804,-0.03285 0.238198,0.191956 0.46875,0.78125 0.304338,0.777871 0.540174,1.646782 0.6875,2.375 l 0.75,0 c 0.276152,-0.493694 0.578538,-1.138496 0.8125,-1.4375 0.09907,-0.126629 0.275237,0.131501 0.53125,0.375 0.256014,0.2435 0.588904,0.486378 0.9375,0.375 0.648614,-0.207227 1.602807,-0.726227 2.03125,-1 0.139883,-0.08938 0.300164,-0.157976 0.40625,-0.1875 0.106087,-0.02952 0.174331,-0.01774 0.25,0 0.151339,0.03548 0.232196,0.144559 0.34375,0.28125 0.223098,0.27338 0.466785,0.656251 1.0625,0.65625 0.478344,0 0.657185,-0.0325 0.78125,0.0625 0.124065,0.095 0.197087,0.314551 0.40625,0.875 l 8.875,0 c -0.04778,-0.593879 1.040547,-2.151517 1.21875,-3.0625 0.19092,-0.975995 0.214078,-1.242419 0.28125,-1.0625 0.06717,0.179919 0.192504,0.793906 0.46875,1.5 0.110448,0.282298 0.213887,0.358235 0.3125,0.28125 0.09861,-0.07699 0.168895,-0.293948 0.25,-0.5625 0.162213,-0.537107 0.285649,-1.296709 0.34375,-1.59375 0.131129,-0.670335 0.128655,-1.786501 0.125,-2.28125 -9.11e-4,-0.123687 -0.0059,-0.217815 0,-0.25 0.01779,-0.09656 0.08067,0.312079 0.28125,1.59375 0.163819,1.046767 0.54767,2.687946 0.71875,3.5625 0.169798,0.867992 0.298106,1.322124 0.40625,1.875 l 28.21875,0 c 0.03877,-0.494956 0.03519,-1.098589 0.0625,-1.5 0.02049,-0.301057 0.06649,-0.487005 0.15625,-0.46875 0.02992,0.0061 0.05077,0.03882 0.09375,0.09375 0.233449,0.298339 0.630596,1.164908 0.96875,1.875 L 85,92 c 3.324,0 6,-2.676 6,-6 l 0,-7.21875 c -0.16942,0.0045 -0.290112,-4e-6 -0.5,0 -1.330307,0 -2.638456,-4e-6 -3.96875,0 -1.226564,0 -2.05394,-9.64e-4 -2.25,-0.0625 -0.19606,-0.06154 0.232972,-0.183183 1.46875,-0.5 C 86.405034,78.050819 89.092469,77.290673 91,76.875 L 91,38.46875 C 90.34725,38.202412 89.792969,37.980093 89.25,37.5625 89.107486,37.452886 88.801155,37.170028 88.28125,37 87.761349,36.829972 87.007124,36.743855 86,36.9375 c -1.533473,0.294852 -1.685602,0.283469 -1.25,0.15625 0.4356,-0.127221 1.468635,-0.381012 2.25,-0.53125 1.152717,-0.221645 2.722214,-1.204246 4,-1.84375 l 0,-4.5625 c -0.69831,-0.257978 -1.422206,-0.558272 -1.75,-1.0625 -0.209707,-0.322576 -0.321618,-0.513018 -0.3125,-0.625 0.0091,-0.111981 0.13299,-0.149124 0.25,-0.1875 0.117011,-0.03837 0.261032,-0.05449 0.375,-0.15625 0.11397,-0.101759 0.187497,-0.291619 0.1875,-0.59375 0,-0.32292 0.08246,-0.887065 0.0625,-1.40625 -0.01,-0.259593 -0.03562,-0.49724 -0.125,-0.6875 -0.08939,-0.19026 -0.219089,-0.333004 -0.4375,-0.375 -0.574572,-0.110478 -0.848143,-0.233682 -0.90625,-0.34375 -0.05811,-0.110067 0.07208,-0.18937 0.28125,-0.28125 0.418339,-0.18376 1.132532,-0.339398 1.125,-0.34375 -0.668701,-0.385725 -5.247169,-0.921226 -5,-0.96875 0.332574,-0.06395 0.667437,-0.123553 1,-0.1875 1.047644,-0.201439 2.43278,-0.309227 3.75,-0.5625 0.573261,-0.110227 0.911769,-0.250569 1.125,-0.4375 0.213229,-0.18693 0.294201,-0.423258 0.375,-0.625 L 91,13 C 91,9.676 88.324,7 85,7 L 33.625,7 C 33.72158,8.3975706 33.82658,9.959362 33.53125,9.1875 33.320827,8.6375466 33.210422,8.0499534 33,7.5 32.946762,7.3608606 32.903941,7.1705291 32.84375,7 L 30.8125,7 C 30.571803,7.4923127 30.362863,7.9708281 30.03125,8.1875 29.524321,8.5187294 29.245447,8.6821159 29,8.59375 28.754552,8.5053839 28.523162,8.1669814 28.15625,7.6875 27.992502,7.4735174 27.721718,7.2560338 27.40625,7 l -6.8125,0 -1.3125,5.5625 L 17.53125,7 17.3125,7 15.5625,15.9375 14.15625,7 11,7 z"
       inkscape:connector-curvature="0"
       id="rect3745"
       style="opacity:0.9;fill:url(#ButtonShadow);fill-opacity:1;fill-rule:nonzero;stroke:none;filter:url(#filter3174)" />
  </g>
  <rect
     y="0"
     x="0"
     height="96"
     width="96"
     id="rect6228"
     style="fill:#ff2a2a;fill-opacity:1;stroke:none" />
  <rect
     y="0"
     x="0"
     height="2.5"
     width="96"
     id="rect3880"
     style="opacity:0.43438918;fill:#ffffff;fill-opacity:1;stroke:none" />
  <rect
     style="opacity:1;fill:#800000;fill-opacity:1;stroke:none"
     id="rect3878"
     width="96"
     height="2.5"
     x="0"
     y="93.5" />
  <rect
     style="opacity:1;fill:#0000ff;fill-opacity:0;stroke:none"
     id="rect3878-2"
     width="96"
     height="2.5"
     x="0"
     y="93.5" />
  <path
     style="font-size:medium;font-style:normal;font-variant:normal;font-weight:normal;font-stretch:normal;text-indent:0;text-align:start;text-decoration:none;line-height:normal;letter-spacing:normal;word-spacing:normal;text-transform:none;direction:ltr;block-progression:tb;writing-mode:lr-tb;text-anchor:start;baseline-shift:baseline;color:#000000;fill:#ececec;fill-opacity:1;stroke:none;stroke-width:4.07700014;marker:none;visibility:visible;display:inline;overflow:visible;enable-background:accumulate;font-family:Sans;-inkscape-font-specification:Sans"
     d="m 31.464917,8.7630118 c -3.542289,0.9491532 -5.956061,3.8925502 -6.273588,7.1385782 -0.317525,3.246028 0.794703,6.67273 2.617517,10.376703 2.049163,4.163918 5.254972,8.664737 8.915711,13.209936 -0.632298,3.611467 -1.251306,7.256174 -2.239749,10.945095 -0.985452,3.67776 -2.271326,7.121776 -3.525023,10.556378 -5.449428,2.107421 -10.4693,4.432375 -14.329764,7.016446 -3.43059,2.296329 -6.128646,4.694681 -7.4766745,7.664586 -1.3480288,2.969905 -0.7092615,6.717573 1.8838735,9.310708 2.593137,2.593136 6.327554,3.214698 9.297459,1.866669 2.969905,-1.348029 5.40362,-4.008724 7.699949,-7.439314 2.585724,-3.862932 4.87369,-8.920809 6.982087,-14.374396 3.442386,-1.257474 6.893646,-2.539526 10.58088,-3.527517 3.674253,-0.984513 7.290962,-1.594001 10.889068,-2.225338 4.55272,3.668745 9.101095,6.894832 13.271864,8.947366 3.703973,1.822815 7.103981,2.920368 10.350007,2.602843 3.246027,-0.317524 6.169348,-2.723022 7.118502,-6.265312 0.949153,-3.542288 -0.371491,-7.107248 -3.023871,-9.005247 C 81.550784,53.663198 78.053024,52.92501 73.933881,52.651626 69.29732,52.3439 63.752521,52.850107 57.977719,53.750268 55.174684,51.402664 52.339078,49.062996 49.646771,46.370689 46.959046,43.682965 44.627122,40.837952 42.282726,38.039649 43.183952,32.261319 43.658703,26.752956 43.350809,22.113837 43.077425,17.994695 42.327292,14.47097 40.429293,11.818591 38.531294,9.1662111 35.007207,7.8138586 31.464917,8.7630118 z m 4.796762,6.0457842 c 0.924606,1.292101 1.758349,3.993114 1.998408,7.610163 0.192637,2.902523 -0.01234,6.434431 -0.411028,10.169995 -2.21676,-3.039828 -4.154928,-5.988738 -5.440957,-8.60196 -1.600627,-3.252486 -2.26709,-5.998321 -2.112409,-7.579617 0.61891,-3.14597 4.486889,-3.636035 5.965986,-1.598581 z m 4.72345,29.48413 c 1.705297,1.904345 3.192193,3.861036 5.029485,5.698328 1.832296,1.832295 3.768244,3.337588 5.6673,5.038689 -2.492189,0.523224 -4.908081,0.867106 -7.407985,1.536953 -2.506728,0.671676 -4.795791,1.587684 -7.22198,2.383134 0.794081,-2.422725 1.718015,-4.694321 2.388682,-7.197282 0.673311,-2.512837 1.019398,-4.954979 1.544498,-7.459822 z m 22.410795,13.870396 c 3.742041,-0.400093 7.28749,-0.602987 10.194353,-0.410062 3.617049,0.240061 6.327905,1.065709 7.620006,1.990315 2.413065,2.10569 0.91569,5.7012 -1.579234,5.962187 -1.581296,0.154682 -4.360066,-0.513871 -7.612553,-2.114496 -2.616659,-1.287721 -5.578426,-3.207258 -8.622572,-5.427944 z M 28.48419,67.558621 c -1.52228,3.433721 -3.107761,6.546911 -4.725577,8.96384 -2.016423,3.012427 -4.088632,4.980795 -5.535416,5.637485 -3.031307,1.074189 -5.413484,-2.054666 -4.386751,-4.363606 0.65669,-1.446784 2.629536,-3.527425 5.641962,-5.543849 2.414433,-1.616146 5.576417,-3.172984 9.005782,-4.69387 z"
     id="path3794"
     inkscape:connector-curvature="0"
     sodipodi:nodetypes="ssscscssssscscssssscscssscscscccscscsccsccsccsccsc" />
</svg>
