<?xml version="1.0" encoding="UTF-8" standalone="no"?>
<!-- Created with Inkscape (http://www.inkscape.org/) -->

<svg
   xmlns:dc="http://purl.org/dc/elements/1.1/"
   xmlns:cc="http://creativecommons.org/ns#"
   xmlns:rdf="http://www.w3.org/1999/02/22-rdf-syntax-ns#"
   xmlns:svg="http://www.w3.org/2000/svg"
   xmlns="http://www.w3.org/2000/svg"
   xmlns:sodipodi="http://sodipodi.sourceforge.net/DTD/sodipodi-0.dtd"
   xmlns:inkscape="http://www.inkscape.org/namespaces/inkscape"
   version="1.0"
   width="96"
   height="96"
   id="svg2408"
   inkscape:version="0.48.3.1 r9886"
   sodipodi:docname="audacious.svg">
  <sodipodi:namedview
     pagecolor="#ffffff"
     bordercolor="#666666"
     borderopacity="1"
     objecttolerance="10"
     gridtolerance="10"
     guidetolerance="10"
     inkscape:pageopacity="0"
     inkscape:pageshadow="2"
     inkscape:window-width="1280"
     inkscape:window-height="752"
     id="namedview128"
     showgrid="false"
     inkscape:zoom="2.8284271"
     inkscape:cx="98.531273"
     inkscape:cy="42.000417"
     inkscape:window-x="0"
     inkscape:window-y="0"
     inkscape:window-maximized="1"
     inkscape:current-layer="g5602"
     showguides="true"
     inkscape:guide-bbox="true" />
  <defs
     id="defs2410">
    <linearGradient
       x1="45.447727"
       y1="92.539597"
       x2="45.447727"
       y2="7.0165396"
       id="ButtonShadow"
       gradientUnits="userSpaceOnUse"
       gradientTransform="scale(1.0058652,0.994169)">
      <stop
         id="stop3750"
         style="stop-color:#000000;stop-opacity:1"
         offset="0" />
      <stop
         id="stop3752"
         style="stop-color:#000000;stop-opacity:0.58823532"
         offset="1" />
    </linearGradient>
    <filter
       color-interpolation-filters="sRGB"
       id="filter3174">
      <feGaussianBlur
         id="feGaussianBlur3176"
         stdDeviation="1.71" />
    </filter>
  </defs>
  <metadata
     id="metadata2413">
    <rdf:RDF>
      <cc:Work
         rdf:about="">
        <dc:format>image/svg+xml</dc:format>
        <dc:type
           rdf:resource="http://purl.org/dc/dcmitype/StillImage" />
        <dc:title />
      </cc:Work>
    </rdf:RDF>
  </metadata>
  <g
     id="layer2"
     style="display:none">
    <path
       d="M 11,7 C 7.676,7 5,9.676 5,13 l 0,33.6875 c 2.2377507,0.124029 4.660506,0.235683 5.875,0.4375 0.66093,0.10983 -0.08406,0.240848 -1.125,0.34375 C 8.7090622,47.571654 7.3545491,47.665119 6.84375,47.75 6.2216014,47.853382 5.6264179,47.903999 5,48 l 0,1.0625 c 0.3803657,0.03607 0.7183843,0.03125 0.9375,0.03125 0.80883,10e-7 1.1599727,0.215701 1.3125,0.5625 0.1525272,0.346797 0.09375,0.839723 0.09375,1.40625 0,0.424828 -0.9420178,0.663014 -1.15625,1.375 C 6.110939,52.691968 5.5510552,52.945524 5,53.1875 l 0,2.21875 c 0.7355867,0.02497 1.4332639,0.05671 1.84375,0.3125 C 7.1254716,55.894306 6.0687957,56.124098 5,56.3125 l 0,7.5625 c 1.1379643,0.180337 3.3100715,0.925679 3.96875,1.0625 1.090152,0.226446 1.224723,0.33476 0.875,0.4375 -0.3497231,0.102744 -1.173581,0.175172 -2,0.3125 C 6.8656638,65.850029 5.90816,66.141998 5,66.34375 L 5,86 c 0,3.324 2.676,6 6,6 l 13,0 c 0.0954,-0.438237 0.150955,-0.931178 0.25,-1.4375 0.140364,-0.717512 0.25498,-1.34159 0.375,-1.59375 0.03001,-0.06304 0.05815,-0.114053 0.09375,-0.125 0.106804,-0.03285 0.238198,0.191956 0.46875,0.78125 0.304338,0.777871 0.540174,1.646782 0.6875,2.375 l 0.75,0 c 0.276152,-0.493694 0.578538,-1.138496 0.8125,-1.4375 0.09907,-0.126629 0.275237,0.131501 0.53125,0.375 0.256014,0.2435 0.588904,0.486378 0.9375,0.375 0.648614,-0.207227 1.602807,-0.726227 2.03125,-1 0.139883,-0.08938 0.300164,-0.157976 0.40625,-0.1875 0.106087,-0.02952 0.174331,-0.01774 0.25,0 0.151339,0.03548 0.232196,0.144559 0.34375,0.28125 0.223098,0.27338 0.466785,0.656251 1.0625,0.65625 0.478344,0 0.657185,-0.0325 0.78125,0.0625 0.124065,0.095 0.197087,0.314551 0.40625,0.875 l 8.875,0 c -0.04778,-0.593879 1.040547,-2.151517 1.21875,-3.0625 0.19092,-0.975995 0.214078,-1.242419 0.28125,-1.0625 0.06717,0.179919 0.192504,0.793906 0.46875,1.5 0.110448,0.282298 0.213887,0.358235 0.3125,0.28125 0.09861,-0.07699 0.168895,-0.293948 0.25,-0.5625 0.162213,-0.537107 0.285649,-1.296709 0.34375,-1.59375 0.131129,-0.670335 0.128655,-1.786501 0.125,-2.28125 -9.11e-4,-0.123687 -0.0059,-0.217815 0,-0.25 0.01779,-0.09656 0.08067,0.312079 0.28125,1.59375 0.163819,1.046767 0.54767,2.687946 0.71875,3.5625 0.169798,0.867992 0.298106,1.322124 0.40625,1.875 l 28.21875,0 c 0.03877,-0.494956 0.03519,-1.098589 0.0625,-1.5 0.02049,-0.301057 0.06649,-0.487005 0.15625,-0.46875 0.02992,0.0061 0.05077,0.03882 0.09375,0.09375 0.233449,0.298339 0.630596,1.164908 0.96875,1.875 L 85,92 c 3.324,0 6,-2.676 6,-6 l 0,-7.21875 c -0.16942,0.0045 -0.290112,-4e-6 -0.5,0 -1.330307,0 -2.638456,-4e-6 -3.96875,0 -1.226564,0 -2.05394,-9.64e-4 -2.25,-0.0625 -0.19606,-0.06154 0.232972,-0.183183 1.46875,-0.5 C 86.405034,78.050819 89.092469,77.290673 91,76.875 L 91,38.46875 C 90.34725,38.202412 89.792969,37.980093 89.25,37.5625 89.107486,37.452886 88.801155,37.170028 88.28125,37 87.761349,36.829972 87.007124,36.743855 86,36.9375 c -1.533473,0.294852 -1.685602,0.283469 -1.25,0.15625 0.4356,-0.127221 1.468635,-0.381012 2.25,-0.53125 1.152717,-0.221645 2.722214,-1.204246 4,-1.84375 l 0,-4.5625 c -0.69831,-0.257978 -1.422206,-0.558272 -1.75,-1.0625 -0.209707,-0.322576 -0.321618,-0.513018 -0.3125,-0.625 0.0091,-0.111981 0.13299,-0.149124 0.25,-0.1875 0.117011,-0.03837 0.261032,-0.05449 0.375,-0.15625 0.11397,-0.101759 0.187497,-0.291619 0.1875,-0.59375 0,-0.32292 0.08246,-0.887065 0.0625,-1.40625 -0.01,-0.259593 -0.03562,-0.49724 -0.125,-0.6875 -0.08939,-0.19026 -0.219089,-0.333004 -0.4375,-0.375 -0.574572,-0.110478 -0.848143,-0.233682 -0.90625,-0.34375 -0.05811,-0.110067 0.07208,-0.18937 0.28125,-0.28125 0.418339,-0.18376 1.132532,-0.339398 1.125,-0.34375 -0.668701,-0.385725 -5.247169,-0.921226 -5,-0.96875 0.332574,-0.06395 0.667437,-0.123553 1,-0.1875 1.047644,-0.201439 2.43278,-0.309227 3.75,-0.5625 0.573261,-0.110227 0.911769,-0.250569 1.125,-0.4375 0.213229,-0.18693 0.294201,-0.423258 0.375,-0.625 L 91,13 C 91,9.676 88.324,7 85,7 L 33.625,7 C 33.72158,8.3975706 33.82658,9.959362 33.53125,9.1875 33.320827,8.6375466 33.210422,8.0499534 33,7.5 32.946762,7.3608606 32.903941,7.1705291 32.84375,7 L 30.8125,7 C 30.571803,7.4923127 30.362863,7.9708281 30.03125,8.1875 29.524321,8.5187294 29.245447,8.6821159 29,8.59375 28.754552,8.5053839 28.523162,8.1669814 28.15625,7.6875 27.992502,7.4735174 27.721718,7.2560338 27.40625,7 l -6.8125,0 -1.3125,5.5625 L 17.53125,7 17.3125,7 15.5625,15.9375 14.15625,7 11,7 z"
       inkscape:connector-curvature="0"
       id="rect3745"
       style="opacity:0.9;fill:url(#ButtonShadow);fill-opacity:1;fill-rule:nonzero;stroke:none;filter:url(#filter3174)" />
  </g>
  <g
     id="g5602">
    <rect
       style="fill:#672178;fill-opacity:1;stroke:none"
       id="rect6228"
       width="96"
       height="96"
       x="0"
       y="0" />
    <rect
       style="fill:#ffffff;fill-opacity:1;stroke:none;opacity:0.31221719"
       id="rect3880"
       width="96"
       height="2.5"
       x="0"
       y="0" />
    <rect
       y="93.5"
       x="0"
       height="2.5"
       width="96"
       id="rect3878"
       style="fill:#2d1650;fill-opacity:1;stroke:none;opacity:0.38914027000000001" />
    <g
       id="g3935"
       transform="matrix(0.86005178,0,0,0.86005178,6.7175146,6.7175146)">
      <path
         style="fill:#ffeeaa;fill-opacity:1"
         d="M 49 13.8125 A 34.211418 34.211418 0 0 0 13.78125 48 A 34.211418 34.211418 0 0 0 82.21875 48 A 34.211418 34.211418 0 0 0 49 13.8125 z M 48.90625 17.0625 A 30.961864 30.961864 0 0 1 78.96875 48 A 30.961864 30.961864 0 0 1 17.03125 48 A 30.961864 30.961864 0 0 1 48.90625 17.0625 z "
         transform="matrix(1.1627207,0,0,1.1627207,-7.8105932,-7.8105932)"
         id="bg" />
      <path
         style="fill:#ffeeaa;fill-opacity:1"
         d="M 48.625 35.0625 C 48.008117 35.062517 47.322153 35.080346 46.5625 35.125 A 1.530153 1.530153 0 0 1 46.46875 35.15625 C 45.954584 35.156269 45.570626 35.231211 45.1875 35.4375 A 1.530153 1.530153 0 0 1 44.4375 35.625 C 44.29556 35.625009 43.880166 35.642511 43.25 35.6875 A 1.530153 1.530153 0 0 1 43.125 35.6875 C 42.556956 35.687517 42.108143 35.769811 42.3125 35.71875 A 1.530153 1.530153 0 0 1 42.125 35.75 C 41.739502 35.792855 41.348673 35.855288 40.9375 35.9375 A 1.530153 1.530153 0 0 1 40.8125 35.96875 C 40.737258 35.977106 40.623875 35.993194 40.4375 36.15625 L 39.25 37.34375 C 39.187289 37.454777 39.110555 37.592782 39.03125 37.75 C 38.991834 37.883165 38.937496 38.014415 38.9375 38.125 C 38.937494 38.44611 39.033959 38.644945 39.3125 38.9375 C 39.647917 39.207806 39.871043 39.281261 40.25 39.28125 C 40.452984 39.281267 40.717155 39.28595 40.96875 39.25 C 41.241221 39.211096 41.447502 39.142506 41.59375 39.09375 A 1.530153 1.530153 0 0 1 42.09375 39.03125 L 46.90625 39.03125 C 47.627999 39.031283 48.301793 39.266801 48.875 39.625 C 49.568662 40.058603 50.156198 41.003171 50.15625 41.875 C 50.156198 42.644733 49.749193 43.542209 49.0625 44 A 1.530153 1.530153 0 0 1 49 44.03125 C 48.572165 44.287955 48.134318 44.419563 47.6875 44.53125 A 1.530153 1.530153 0 0 1 47.5 44.59375 C 47.173963 44.634517 46.790749 44.666794 46.375 44.71875 A 1.530153 1.530153 0 0 1 46.1875 44.75 C 46.058327 44.750004 45.973572 44.773947 45.9375 44.78125 C 45.742224 44.871695 45.60667 44.918576 45.34375 45.03125 A 1.530153 1.530153 0 0 1 45.21875 45.0625 C 45.008406 45.13262 44.863075 45.209092 44.84375 45.21875 A 1.530153 1.530153 0 0 1 44.6875 45.28125 C 43.890115 45.566043 43.091365 45.727256 42.28125 45.78125 A 1.530153 1.530153 0 0 1 42.15625 45.78125 C 41.733643 45.78126 41.345357 45.874088 40.90625 46.125 C 40.116838 46.602578 39.347797 47.214703 38.59375 47.96875 C 37.900131 48.662368 37.341109 49.428085 36.90625 50.21875 A 1.530153 1.530153 0 0 1 36.625 50.5625 C 36.658215 50.529285 36.582832 50.59673 36.5625 50.625 L 36.5625 53.59375 C 36.601601 53.712867 36.65076 53.827318 36.78125 54.25 C 36.78598 54.26524 36.776434 54.265649 36.78125 54.28125 C 36.782901 54.286582 36.810866 54.275832 36.8125 54.28125 C 36.99154 54.81818 37.142914 55.250273 37.25 55.625 C 37.443014 56.268409 37.779122 56.800919 38.34375 57.3125 C 38.360616 57.327783 38.357687 57.328475 38.375 57.34375 C 39.15372 57.94704 39.910134 58.498771 40.59375 58.96875 A 1.530153 1.530153 0 0 1 40.625 59.03125 A 1.530153 1.530153 0 0 1 40.65625 59.03125 A 1.530153 1.530153 0 0 1 40.71875 59.03125 C 40.887101 59.098595 41.31783 59.247236 41.9375 59.46875 C 42.508642 59.659135 42.837279 59.773617 43 59.8125 L 43.40625 59.8125 L 43.84375 59.8125 C 43.940678 59.762715 43.998404 59.733047 44.1875 59.625 A 1.530153 1.530153 0 0 1 44.25 59.59375 C 44.598917 59.419282 44.788006 59.309092 44.96875 59.21875 A 1.530153 1.530153 0 0 1 45.03125 59.1875 C 45.813917 58.865217 46.632499 58.56691 47.4375 58.28125 L 47.4375 58.25 C 47.454503 58.243378 47.482971 58.25645 47.5 58.25 C 48.511103 57.864635 49.564406 57.687502 50.59375 57.6875 L 51.0625 57.6875 C 51.392003 57.6875 51.652305 57.61773 52.21875 57.875 C 52.259409 57.893467 52.268073 57.852793 52.3125 57.875 C 52.943984 58.146807 53.577533 58.471266 54.28125 58.84375 C 54.788712 59.080576 55.267109 59.1875 55.78125 59.1875 C 56.149893 59.1875 56.43902 59.141346 56.75 59 A 1.530153 1.530153 0 0 1 56.78125 58.96875 C 57.170791 58.806432 57.532704 58.589296 57.875 58.28125 C 58.230996 57.960829 58.501159 57.654088 58.6875 57.3125 C 58.856302 57.002996 58.906231 56.696645 58.90625 56.40625 L 58.90625 56.15625 C 58.860529 55.989996 58.803438 55.800189 58.6875 55.375 C 58.541466 54.839794 58.445064 54.405361 58.40625 54.25 A 1.530153 1.530153 0 0 1 58.375 53.90625 L 58.375 53.6875 C 58.374966 53.13658 58.386336 52.593682 58.4375 52.03125 A 1.530153 1.530153 0 0 1 58.46875 51.90625 C 58.54919 51.46367 58.60435 50.99597 58.6875 50.53125 C 58.687498 50.479682 58.68748 50.450977 58.6875 50.375 C 58.687463 50.189379 58.687463 49.998142 58.6875 49.8125 A 1.530153 1.530153 0 0 1 58.71875 49.5 C 58.766311 49.262032 58.781259 49.138056 58.78125 49.1875 C 58.781214 49.00195 58.781212 48.892248 58.78125 48.84375 A 1.530153 1.530153 0 0 1 58.84375 48.40625 C 58.944888 48.052143 59.076856 47.673582 59.25 47.3125 C 59.319019 47.151429 59.343736 47.047124 59.34375 46.90625 C 59.343722 46.522677 59.300782 46.076331 59.21875 45.625 A 1.530153 1.530153 0 0 1 59.21875 45.5 C 59.175303 45.022448 59.114056 44.549349 59.03125 44.09375 A 1.530153 1.530153 0 0 1 59 44.03125 C 58.822336 42.654629 58.565165 41.486167 58.28125 40.59375 C 58.007517 39.694462 57.621604 38.947794 57.15625 38.375 C 56.700665 37.814328 56.103098 37.336776 55.28125 36.90625 A 1.530153 1.530153 0 0 1 55.1875 36.875 C 54.420741 36.414945 53.414577 35.983214 52.125 35.59375 C 50.898218 35.255365 49.7251 35.0625 48.625 35.0625 z M 46.6875 48.21875 L 49.25 48.21875 C 49.964706 48.218793 50.443091 48.646508 50.78125 49.0625 L 50.8125 49.03125 C 50.86733 49.086091 50.914257 49.193495 50.96875 49.25 C 50.984119 49.273505 51.017455 49.289511 51.03125 49.3125 C 51.21871 49.515845 51.425099 49.681828 51.5625 50.09375 A 1.530153 1.530153 0 0 1 51.625 50.59375 L 51.625 51.28125 C 51.624974 51.420076 51.624974 51.612066 51.625 51.84375 C 51.624943 52.353547 51.451331 52.854175 51.1875 53.25 A 1.530153 1.530153 0 0 1 51 53.46875 C 50.854723 53.614002 50.692384 53.780573 50.46875 53.96875 C 50.427304 54.003625 50.421219 54.023987 50.375 54.0625 C 50.216916 54.220578 50.074042 54.363441 50 54.4375 L 49.9375 54.34375 C 49.850848 54.450318 49.850212 54.615832 49.75 54.6875 C 49.367458 54.961074 48.988863 55.031267 48.6875 55.03125 L 47.9375 55.03125 C 47.060516 55.03126 46.19551 54.842343 45.46875 54.40625 A 1.530153 1.530153 0 0 1 45.40625 54.34375 C 44.484579 53.698628 44.062469 52.522511 44.0625 51.46875 C 44.062457 50.910118 44.205151 50.379361 44.4375 49.84375 C 44.441783 49.833042 44.433028 49.823216 44.4375 49.8125 C 44.781336 49.01398 45.713032 48.218779 46.6875 48.21875 z "
         transform="matrix(1.1627207,0,0,1.1627207,-7.8105932,-7.8105932)"
         id="path3927" />
    </g>
  </g>
</svg>
