<?xml version="1.0" encoding="UTF-8" standalone="no"?>
<!-- Created with Inkscape (http://www.inkscape.org/) -->

<svg
   xmlns:dc="http://purl.org/dc/elements/1.1/"
   xmlns:cc="http://creativecommons.org/ns#"
   xmlns:rdf="http://www.w3.org/1999/02/22-rdf-syntax-ns#"
   xmlns:svg="http://www.w3.org/2000/svg"
   xmlns="http://www.w3.org/2000/svg"
   xmlns:xlink="http://www.w3.org/1999/xlink"
   xmlns:sodipodi="http://sodipodi.sourceforge.net/DTD/sodipodi-0.dtd"
   xmlns:inkscape="http://www.inkscape.org/namespaces/inkscape"
   version="1.0"
   width="96"
   height="96"
   id="svg2408"
   inkscape:version="0.48.3.1 r9886"
   sodipodi:docname="beryl.svg">
  <sodipodi:namedview
     pagecolor="#ffffff"
     bordercolor="#666666"
     borderopacity="1"
     objecttolerance="10"
     gridtolerance="10"
     guidetolerance="10"
     inkscape:pageopacity="0"
     inkscape:pageshadow="2"
     inkscape:window-width="1280"
     inkscape:window-height="752"
     id="namedview128"
     showgrid="false"
     inkscape:zoom="2.8284271"
     inkscape:cx="53.179119"
     inkscape:cy="54.74312"
     inkscape:window-x="0"
     inkscape:window-y="0"
     inkscape:window-maximized="1"
     inkscape:current-layer="svg2408"
     showguides="true"
     inkscape:guide-bbox="true" />
  <defs
     id="defs2410">
    <linearGradient
       x1="45.447727"
       y1="92.539597"
       x2="45.447727"
       y2="7.0165396"
       id="ButtonShadow"
       gradientUnits="userSpaceOnUse"
       gradientTransform="scale(1.0058652,0.994169)">
      <stop
         id="stop3750"
         style="stop-color:#000000;stop-opacity:1"
         offset="0" />
      <stop
         id="stop3752"
         style="stop-color:#000000;stop-opacity:0.58823532"
         offset="1" />
    </linearGradient>
    <filter
       color-interpolation-filters="sRGB"
       id="filter3174">
      <feGaussianBlur
         id="feGaussianBlur3176"
         stdDeviation="1.71" />
    </filter>
    <clipPath
       id="clipPath3613">
      <rect
         style="fill:#ffffff;fill-opacity:1;fill-rule:nonzero;stroke:none"
         id="rect3615"
         y="6"
         x="6"
         ry="6"
         rx="6"
         height="84"
         width="84" />
    </clipPath>
    <filter
       id="filter3794-3"
       color-interpolation-filters="sRGB"
       height="1.3839999"
       width="1.3839999"
       y="-0.192"
       x="-0.192">
      <feGaussianBlur
         stdDeviation="5.28"
         id="feGaussianBlur3796-2" />
    </filter>
    <filter
       id="filter3174-4"
       color-interpolation-filters="sRGB">
      <feGaussianBlur
         stdDeviation="1.71"
         id="feGaussianBlur3176-2" />
    </filter>
    <linearGradient
       id="linearGradient3737-3">
      <stop
         offset="0"
         style="stop-color:#ffffff;stop-opacity:1"
         id="stop3739-9" />
      <stop
         offset="1"
         style="stop-color:#ffffff;stop-opacity:0"
         id="stop3741-55" />
    </linearGradient>
    <linearGradient
       gradientTransform="scale(1.0058652,0.994169)"
       gradientUnits="userSpaceOnUse"
       id="ButtonShadow-3"
       y2="7.0165396"
       x2="45.447727"
       y1="92.539597"
       x1="45.447727">
      <stop
         offset="0"
         style="stop-color:#000000;stop-opacity:1"
         id="stop3750-4" />
      <stop
         offset="1"
         style="stop-color:#000000;stop-opacity:0.58823532"
         id="stop3752-7" />
    </linearGradient>
    <linearGradient
       inkscape:collect="always"
       xlink:href="#linearGradient3737-3"
       id="linearGradient4587"
       gradientUnits="userSpaceOnUse"
       x1="48"
       y1="20.220806"
       x2="48"
       y2="138.66119" />
    <linearGradient
       inkscape:collect="always"
       xlink:href="#ButtonShadow-3"
       id="linearGradient4594"
       gradientUnits="userSpaceOnUse"
       gradientTransform="matrix(1.0058652,0,0,0.994169,97.5,0)"
       x1="45.447727"
       y1="92.539597"
       x2="45.447727"
       y2="7.0165396" />
    <linearGradient
       id="linearGradient4743">
      <stop
         id="stop4745"
         offset="0"
         style="stop-color:#4e9a06;stop-opacity:1;" />
      <stop
         style="stop-color:#73d216;stop-opacity:1;"
         offset="0.5"
         id="stop4751-8" />
      <stop
         id="stop4747"
         offset="1"
         style="stop-color:#4e9a06;stop-opacity:1;" />
    </linearGradient>
    <linearGradient
       id="linearGradient5244"
       inkscape:collect="always">
      <stop
         id="stop5246"
         offset="0"
         style="stop-color:#8ae234;stop-opacity:1;" />
      <stop
         id="stop5248"
         offset="1"
         style="stop-color:#8ae234;stop-opacity:0;" />
    </linearGradient>
    <linearGradient
       id="linearGradient5252"
       inkscape:collect="always">
      <stop
         id="stop5254"
         offset="0"
         style="stop-color:#8ae234;stop-opacity:1;" />
      <stop
         id="stop5256"
         offset="1"
         style="stop-color:#8ae234;stop-opacity:0;" />
    </linearGradient>
    <linearGradient
       id="linearGradient5268">
      <stop
         id="stop5270"
         offset="0"
         style="stop-color:#c00;stop-opacity:1;" />
      <stop
         id="stop5272"
         offset="1"
         style="stop-color:#a4003c;stop-opacity:0;" />
    </linearGradient>
    <linearGradient
       id="linearGradient5308-2"
       inkscape:collect="always">
      <stop
         id="stop5310-8"
         offset="0"
         style="stop-color:#8ae234;stop-opacity:1;" />
      <stop
         id="stop5312"
         offset="1"
         style="stop-color:#8ae234;stop-opacity:0;" />
    </linearGradient>
    <linearGradient
       inkscape:collect="always"
       xlink:href="#linearGradient5308-2"
       id="linearGradient4281"
       gradientUnits="userSpaceOnUse"
       gradientTransform="matrix(1.3364518,0.02959265,-0.02959265,1.3364518,104.23854,11.443892)"
       x1="-46.42857"
       y1="28.357143"
       x2="-42.67857"
       y2="46.392857" />
    <linearGradient
       inkscape:collect="always"
       xlink:href="#linearGradient5268"
       id="linearGradient4284"
       gradientUnits="userSpaceOnUse"
       gradientTransform="matrix(1.3364518,0.02959265,-0.02959265,1.3364518,104.24485,11.841289)"
       x1="-28.392857"
       y1="25.5"
       x2="-37.142857"
       y2="43.714287" />
    <linearGradient
       inkscape:collect="always"
       xlink:href="#linearGradient5268"
       id="linearGradient4287"
       gradientUnits="userSpaceOnUse"
       gradientTransform="matrix(1.3364518,0.02959265,-0.02959265,1.3364518,104.24485,11.841289)"
       x1="-55.892857"
       y1="25.321428"
       x2="-45.714287"
       y2="44.785713" />
    <linearGradient
       inkscape:collect="always"
       xlink:href="#linearGradient5268"
       id="linearGradient4293"
       gradientUnits="userSpaceOnUse"
       gradientTransform="matrix(1.3364518,0.02959265,-0.02959265,1.3364518,104.24485,11.841289)"
       x1="-23.214285"
       y1="13.535714"
       x2="-28.928572"
       y2="9.4285717" />
    <linearGradient
       inkscape:collect="always"
       xlink:href="#linearGradient5252"
       id="linearGradient4304"
       gradientUnits="userSpaceOnUse"
       gradientTransform="matrix(1.3364518,0.02959265,-0.02959265,1.3364518,104.23854,11.443892)"
       x1="-37.142857"
       y1="27.107143"
       x2="-36.546818"
       y2="20.142857" />
    <linearGradient
       inkscape:collect="always"
       xlink:href="#linearGradient5244"
       id="linearGradient4307"
       gradientUnits="userSpaceOnUse"
       gradientTransform="matrix(1.3364518,0.02959265,-0.02959265,1.3364518,104.13821,11.338937)"
       x1="-47.013756"
       y1="28.04245"
       x2="-47.013756"
       y2="20.321428" />
    <linearGradient
       inkscape:collect="always"
       xlink:href="#linearGradient4743"
       id="linearGradient4313"
       gradientUnits="userSpaceOnUse"
       gradientTransform="matrix(1.6261877,0.03600794,-0.03600794,1.6261877,9.9471798,14.203343)"
       x1="12.184965"
       y1="8.4777822"
       x2="23.65625"
       y2="8.2883787" />
  </defs>
  <metadata
     id="metadata2413">
    <rdf:RDF>
      <cc:Work
         rdf:about="">
        <dc:format>image/svg+xml</dc:format>
        <dc:type
           rdf:resource="http://purl.org/dc/dcmitype/StillImage" />
        <dc:title />
      </cc:Work>
    </rdf:RDF>
  </metadata>
  <g
     id="layer2"
     style="display:none">
    <path
       d="M 11,7 C 7.676,7 5,9.676 5,13 l 0,33.6875 c 2.2377507,0.124029 4.660506,0.235683 5.875,0.4375 0.66093,0.10983 -0.08406,0.240848 -1.125,0.34375 C 8.7090622,47.571654 7.3545491,47.665119 6.84375,47.75 6.2216014,47.853382 5.6264179,47.903999 5,48 l 0,1.0625 c 0.3803657,0.03607 0.7183843,0.03125 0.9375,0.03125 0.80883,10e-7 1.1599727,0.215701 1.3125,0.5625 0.1525272,0.346797 0.09375,0.839723 0.09375,1.40625 0,0.424828 -0.9420178,0.663014 -1.15625,1.375 C 6.110939,52.691968 5.5510552,52.945524 5,53.1875 l 0,2.21875 c 0.7355867,0.02497 1.4332639,0.05671 1.84375,0.3125 C 7.1254716,55.894306 6.0687957,56.124098 5,56.3125 l 0,7.5625 c 1.1379643,0.180337 3.3100715,0.925679 3.96875,1.0625 1.090152,0.226446 1.224723,0.33476 0.875,0.4375 -0.3497231,0.102744 -1.173581,0.175172 -2,0.3125 C 6.8656638,65.850029 5.90816,66.141998 5,66.34375 L 5,86 c 0,3.324 2.676,6 6,6 l 13,0 c 0.0954,-0.438237 0.150955,-0.931178 0.25,-1.4375 0.140364,-0.717512 0.25498,-1.34159 0.375,-1.59375 0.03001,-0.06304 0.05815,-0.114053 0.09375,-0.125 0.106804,-0.03285 0.238198,0.191956 0.46875,0.78125 0.304338,0.777871 0.540174,1.646782 0.6875,2.375 l 0.75,0 c 0.276152,-0.493694 0.578538,-1.138496 0.8125,-1.4375 0.09907,-0.126629 0.275237,0.131501 0.53125,0.375 0.256014,0.2435 0.588904,0.486378 0.9375,0.375 0.648614,-0.207227 1.602807,-0.726227 2.03125,-1 0.139883,-0.08938 0.300164,-0.157976 0.40625,-0.1875 0.106087,-0.02952 0.174331,-0.01774 0.25,0 0.151339,0.03548 0.232196,0.144559 0.34375,0.28125 0.223098,0.27338 0.466785,0.656251 1.0625,0.65625 0.478344,0 0.657185,-0.0325 0.78125,0.0625 0.124065,0.095 0.197087,0.314551 0.40625,0.875 l 8.875,0 c -0.04778,-0.593879 1.040547,-2.151517 1.21875,-3.0625 0.19092,-0.975995 0.214078,-1.242419 0.28125,-1.0625 0.06717,0.179919 0.192504,0.793906 0.46875,1.5 0.110448,0.282298 0.213887,0.358235 0.3125,0.28125 0.09861,-0.07699 0.168895,-0.293948 0.25,-0.5625 0.162213,-0.537107 0.285649,-1.296709 0.34375,-1.59375 0.131129,-0.670335 0.128655,-1.786501 0.125,-2.28125 -9.11e-4,-0.123687 -0.0059,-0.217815 0,-0.25 0.01779,-0.09656 0.08067,0.312079 0.28125,1.59375 0.163819,1.046767 0.54767,2.687946 0.71875,3.5625 0.169798,0.867992 0.298106,1.322124 0.40625,1.875 l 28.21875,0 c 0.03877,-0.494956 0.03519,-1.098589 0.0625,-1.5 0.02049,-0.301057 0.06649,-0.487005 0.15625,-0.46875 0.02992,0.0061 0.05077,0.03882 0.09375,0.09375 0.233449,0.298339 0.630596,1.164908 0.96875,1.875 L 85,92 c 3.324,0 6,-2.676 6,-6 l 0,-7.21875 c -0.16942,0.0045 -0.290112,-4e-6 -0.5,0 -1.330307,0 -2.638456,-4e-6 -3.96875,0 -1.226564,0 -2.05394,-9.64e-4 -2.25,-0.0625 -0.19606,-0.06154 0.232972,-0.183183 1.46875,-0.5 C 86.405034,78.050819 89.092469,77.290673 91,76.875 L 91,38.46875 C 90.34725,38.202412 89.792969,37.980093 89.25,37.5625 89.107486,37.452886 88.801155,37.170028 88.28125,37 87.761349,36.829972 87.007124,36.743855 86,36.9375 c -1.533473,0.294852 -1.685602,0.283469 -1.25,0.15625 0.4356,-0.127221 1.468635,-0.381012 2.25,-0.53125 1.152717,-0.221645 2.722214,-1.204246 4,-1.84375 l 0,-4.5625 c -0.69831,-0.257978 -1.422206,-0.558272 -1.75,-1.0625 -0.209707,-0.322576 -0.321618,-0.513018 -0.3125,-0.625 0.0091,-0.111981 0.13299,-0.149124 0.25,-0.1875 0.117011,-0.03837 0.261032,-0.05449 0.375,-0.15625 0.11397,-0.101759 0.187497,-0.291619 0.1875,-0.59375 0,-0.32292 0.08246,-0.887065 0.0625,-1.40625 -0.01,-0.259593 -0.03562,-0.49724 -0.125,-0.6875 -0.08939,-0.19026 -0.219089,-0.333004 -0.4375,-0.375 -0.574572,-0.110478 -0.848143,-0.233682 -0.90625,-0.34375 -0.05811,-0.110067 0.07208,-0.18937 0.28125,-0.28125 0.418339,-0.18376 1.132532,-0.339398 1.125,-0.34375 -0.668701,-0.385725 -5.247169,-0.921226 -5,-0.96875 0.332574,-0.06395 0.667437,-0.123553 1,-0.1875 1.047644,-0.201439 2.43278,-0.309227 3.75,-0.5625 0.573261,-0.110227 0.911769,-0.250569 1.125,-0.4375 0.213229,-0.18693 0.294201,-0.423258 0.375,-0.625 L 91,13 C 91,9.676 88.324,7 85,7 L 33.625,7 C 33.72158,8.3975706 33.82658,9.959362 33.53125,9.1875 33.320827,8.6375466 33.210422,8.0499534 33,7.5 32.946762,7.3608606 32.903941,7.1705291 32.84375,7 L 30.8125,7 C 30.571803,7.4923127 30.362863,7.9708281 30.03125,8.1875 29.524321,8.5187294 29.245447,8.6821159 29,8.59375 28.754552,8.5053839 28.523162,8.1669814 28.15625,7.6875 27.992502,7.4735174 27.721718,7.2560338 27.40625,7 l -6.8125,0 -1.3125,5.5625 L 17.53125,7 17.3125,7 15.5625,15.9375 14.15625,7 11,7 z"
       inkscape:connector-curvature="0"
       id="rect3745"
       style="opacity:0.9;fill:url(#ButtonShadow);fill-opacity:1;fill-rule:nonzero;stroke:none;filter:url(#filter3174)" />
  </g>
  <rect
     y="0"
     x="0"
     height="96"
     width="96"
     id="rect6228"
     style="fill:#ececec;fill-opacity:1;stroke:none" />
  <rect
     y="0"
     x="0"
     height="2.5"
     width="96"
     id="rect3880"
     style="opacity:0.3122172;fill:#ffffff;fill-opacity:1;stroke:none" />
  <rect
     style="opacity:0.38914029000000000;fill:#000000;fill-opacity:1;stroke:none"
     id="rect3878"
     width="96"
     height="2.5"
     x="0"
     y="93.5" />
  <rect
     style="opacity:0.9;fill:url(#linearGradient4594);fill-opacity:1;fill-rule:nonzero;stroke:none;display:none;filter:url(#filter3174-4)"
     id="rect3745-4"
     y="7"
     x="102.5"
     ry="6"
     rx="6"
     height="85"
     width="86" />
  <rect
     style="opacity:0.1;fill:url(#linearGradient4587);fill-opacity:1;fill-rule:nonzero;stroke:#ffffff;stroke-width:0.5;stroke-linecap:round;stroke-linejoin:miter;stroke-miterlimit:4;stroke-opacity:1;stroke-dasharray:none;stroke-dashoffset:0;display:none;filter:url(#filter3794-3)"
     id="rect3171"
     clip-path="url(#clipPath3613)"
     y="15"
     x="15"
     ry="12"
     rx="12"
     height="66"
     width="66"
     transform="translate(97.5,0)" />
  <path
     inkscape:connector-curvature="0"
     style="fill:#a40000;fill-opacity:1;stroke:none"
     d="m 37.883641,15.710108 -16.542396,7.972721 -3.043913,10.590483 -0.136665,0.130758 27.583585,45.204422 0.0852,0.18026 0.04457,9.83e-4 0.04261,0.09013 0.180255,-0.0852 0.211999,0.495223 1.030081,-0.200162 0.532895,0.100991 0.235683,-0.574494 29.7318,-43.756942 L 75.092841,24.962212 58.967088,16.132355 37.883641,15.710108 z"
     id="path3816"
     sodipodi:nodetypes="ccccccccccccccccc" />
  <path
     inkscape:connector-curvature="0"
     style="fill:#e70e19;fill-opacity:1;stroke:#ffffff;stroke-width:1.36633289000000002;stroke-linecap:round;stroke-miterlimit:4;stroke-opacity:0;stroke-dasharray:none"
     d="m 39.140559,29.946098 -5.15051,16.76593 14.029252,0.158109 -0.0034,0.152459 13.819221,0.458521 -4.200069,-16.972974 -8.797205,0.05942 0.0034,-0.152454 -9.700689,-0.469014 z"
     id="path3818" />
  <path
     inkscape:connector-curvature="0"
     style="fill:#cc0000;fill-opacity:1;stroke:url(#linearGradient4313);stroke-width:1.33677948;stroke-linecap:round;stroke-miterlimit:4;stroke-opacity:0"
     d="m 57.948177,18.57103 -19.210478,-0.374525 -6.228733,5.759903 6.165326,6.288554 19.002694,0.5733 6.085285,-6.169827 -5.814094,-6.077405 z m -0.271191,12.247232 -0.103878,0.09938 4.04987,16.867958 10.936475,-9.418061 -10.889035,9.571648 -10.757046,21.98033 10.559401,-22.238928 -13.418304,-0.195423 0.0045,-0.203278 -13.514311,-0.451767 12.704711,30.12633 -0.01575,0.711458 0.16033,-0.352357 0.04857,0.10277 0.0045,-0.203277 0.213397,-0.45286 26.557859,-39.832363 0.72496,-0.594071 -10.934741,-11.325961 -6.3315,5.808471 z M 38.176447,18.285764 23.578616,25.436496 21.3274,32.9623 38.176447,18.285764 z M 58.501551,18.8375 74.734144,34.297391 72.768559,26.627373 58.501551,18.8375 z M 32.402827,24.157431 20.97748,34.988284 21.624612,35.612733 33.776746,47.067338 38.621219,30.345475 32.402827,24.157431 z M 21.624612,35.612733 46.58197,77.246741 33.568967,47.266109 21.624612,35.612733 z"
     id="path3820" />
  <path
     inkscape:connector-curvature="0"
     style="fill:#f04951;fill-opacity:1;stroke:#ffffff;stroke-width:1.33677947999999991;stroke-linecap:round;stroke-miterlimit:4;stroke-opacity:0.86440675000000000;stroke-dasharray:none"
     d="M 32.318073,24.170427 38.50135,30.339954 33.678968,47.038298 20.875374,34.976841 32.318073,24.170427 z"
     id="path3822"
     sodipodi:nodetypes="ccccc" />
  <path
     inkscape:connector-curvature="0"
     style="fill:url(#linearGradient4307);fill-opacity:1;stroke:#ffffff;stroke-width:1.33677948;stroke-linecap:round;stroke-miterlimit:4;stroke-opacity:0.86440675;stroke-dasharray:none"
     d="m 38.50643,29.834963 9.274626,0.452978 -8.833472,-0.354868 -5.37759,16.670516 4.936436,-16.768626 z"
     id="path3824"
     sodipodi:nodetypes="ccccc" />
  <path
     inkscape:connector-curvature="0"
     style="fill:url(#linearGradient4304);fill-opacity:1;stroke:#ffffff;stroke-width:1.33677948;stroke-linecap:round;stroke-miterlimit:4;stroke-opacity:0.86440675;stroke-dasharray:none"
     d="m 57.309179,30.507407 -9.461836,-0.115972 9.427456,0.203549 4.223748,16.883124 -4.189368,-16.9707 z"
     id="path3826"
     sodipodi:nodetypes="ccccc" />
  <path
     inkscape:connector-curvature="0"
     style="fill:#d4060a;fill-opacity:1;stroke:#ffffff;stroke-width:1.33677947999999991;stroke-linecap:round;stroke-miterlimit:4;stroke-opacity:0.86440675000000000;stroke-dasharray:none"
     d="M 63.898806,25.01334 57.448514,30.903127 61.527044,47.79856 74.851968,36.315657 63.898806,25.01334 z"
     id="path3828"
     sodipodi:nodetypes="ccccc" />
  <path
     inkscape:connector-curvature="0"
     style="fill:#d35f5f;fill-opacity:1;stroke:#ffffff;stroke-width:1.33677947999999991;stroke-linecap:round;stroke-miterlimit:4;stroke-opacity:0.86440675000000000;stroke-dasharray:none"
     d="M 23.457141,25.410565 38.668844,18.175718 21.205732,32.98913 23.457141,25.410565 z"
     id="path3830"
     sodipodi:nodetypes="cccc" />
  <path
     inkscape:connector-curvature="0"
     style="fill:url(#linearGradient4293);fill-opacity:1;stroke:#ffffff;stroke-width:1.33677948;stroke-linecap:round;stroke-miterlimit:4;stroke-opacity:0.86440675;stroke-dasharray:none"
     d="M 72.661052,26.607788 57.789059,18.501378 74.691503,34.400551 72.661052,26.607788 z"
     id="path3832"
     sodipodi:nodetypes="cccc" />
  <path
     inkscape:connector-curvature="0"
     style="fill:#f39093;fill-opacity:1;stroke:#ffffff;stroke-width:1.33677947999999991;stroke-linecap:round;stroke-miterlimit:4;stroke-opacity:0.86440675000000000;stroke-dasharray:none"
     d="m 38.637405,18.169529 19.186841,0.385191 5.821794,6.107276 -6.100277,6.130566 -19.000742,-0.558872 -6.124639,-6.276439 6.217023,-5.787722 z"
     id="path3834"
     sodipodi:nodetypes="ccccccc" />
  <path
     inkscape:connector-curvature="0"
     style="fill:url(#linearGradient4287);fill-opacity:1;stroke:#ffffff;stroke-width:1.33677948;stroke-linecap:round;stroke-miterlimit:4;stroke-opacity:0.86440675;stroke-dasharray:none"
     d="M 33.442973,47.260089 46.472827,77.231961 21.428303,35.529955 33.442973,47.260089 z"
     id="path3836"
     sodipodi:nodetypes="cccc" />
  <path
     inkscape:connector-curvature="0"
     style="fill:url(#linearGradient4284);fill-opacity:1;stroke:#ffffff;stroke-width:1.33677948;stroke-linecap:round;stroke-miterlimit:4;stroke-opacity:0.86440675;stroke-dasharray:none"
     d="M 61.540012,47.918136 47.196293,77.28389 74.180129,36.793614 61.540012,47.918136 z"
     id="path3838"
     sodipodi:nodetypes="cccc" />
  <path
     inkscape:connector-curvature="0"
     style="fill:url(#linearGradient4281);fill-opacity:1;stroke:#ffffff;stroke-width:1.33677948;stroke-linecap:round;stroke-miterlimit:4;stroke-opacity:0.86440675;stroke-dasharray:none"
     d="m 34.000339,46.984523 12.886595,30.326155 -12.889583,-30.589462 0.0029,0.263307 z"
     id="path3840"
     sodipodi:nodetypes="cccc" />
  <path
     inkscape:connector-curvature="0"
     style="fill:#b60606;fill-opacity:1;stroke:#ffffff;stroke-width:1.33677947999999991;stroke-linecap:round;stroke-miterlimit:4;stroke-opacity:0.86440675000000000;stroke-dasharray:none"
     d="M 33.936768,46.830218 47.107469,78.051884 61.347505,47.652267 33.936768,46.830218 z"
     id="path3842"
     sodipodi:nodetypes="cccc" />
</svg>
