<?xml version="1.0" encoding="UTF-8" standalone="no"?>
<!-- Created with Inkscape (http://www.inkscape.org/) -->

<svg
   xmlns:dc="http://purl.org/dc/elements/1.1/"
   xmlns:cc="http://creativecommons.org/ns#"
   xmlns:rdf="http://www.w3.org/1999/02/22-rdf-syntax-ns#"
   xmlns:svg="http://www.w3.org/2000/svg"
   xmlns="http://www.w3.org/2000/svg"
   xmlns:xlink="http://www.w3.org/1999/xlink"
   xmlns:sodipodi="http://sodipodi.sourceforge.net/DTD/sodipodi-0.dtd"
   xmlns:inkscape="http://www.inkscape.org/namespaces/inkscape"
   version="1.0"
   width="96"
   height="96"
   id="svg2408"
   inkscape:version="0.48.3.1 r9886"
   sodipodi:docname="abrt.svg">
  <sodipodi:namedview
     pagecolor="#ffffff"
     bordercolor="#666666"
     borderopacity="1"
     objecttolerance="10"
     gridtolerance="10"
     guidetolerance="10"
     inkscape:pageopacity="0"
     inkscape:pageshadow="2"
     inkscape:window-width="1280"
     inkscape:window-height="752"
     id="namedview128"
     showgrid="false"
     inkscape:zoom="4"
     inkscape:cx="58.977548"
     inkscape:cy="46.332798"
     inkscape:window-x="0"
     inkscape:window-y="0"
     inkscape:window-maximized="1"
     inkscape:current-layer="svg2408"
     showguides="true"
     inkscape:guide-bbox="true" />
  <defs
     id="defs2410">
    <linearGradient
       x1="45.447727"
       y1="92.539597"
       x2="45.447727"
       y2="7.0165396"
       id="ButtonShadow"
       gradientUnits="userSpaceOnUse"
       gradientTransform="scale(1.0058652,0.994169)">
      <stop
         id="stop3750"
         style="stop-color:#000000;stop-opacity:1"
         offset="0" />
      <stop
         id="stop3752"
         style="stop-color:#000000;stop-opacity:0.58823532"
         offset="1" />
    </linearGradient>
    <filter
       color-interpolation-filters="sRGB"
       id="filter3174">
      <feGaussianBlur
         id="feGaussianBlur3176"
         stdDeviation="1.71" />
    </filter>
    <clipPath
       id="clipPath3613">
      <rect
         style="fill:#ffffff;fill-opacity:1;fill-rule:nonzero;stroke:none"
         id="rect3615"
         y="6"
         x="6"
         ry="6"
         rx="6"
         height="84"
         width="84" />
    </clipPath>
    <filter
       id="filter3794-3"
       color-interpolation-filters="sRGB"
       height="1.3839999"
       width="1.3839999"
       y="-0.192"
       x="-0.192">
      <feGaussianBlur
         stdDeviation="5.28"
         id="feGaussianBlur3796-2" />
    </filter>
    <filter
       id="filter3174-4"
       color-interpolation-filters="sRGB">
      <feGaussianBlur
         stdDeviation="1.71"
         id="feGaussianBlur3176-2" />
    </filter>
    <linearGradient
       id="linearGradient3737-3">
      <stop
         offset="0"
         style="stop-color:#ffffff;stop-opacity:1"
         id="stop3739-9" />
      <stop
         offset="1"
         style="stop-color:#ffffff;stop-opacity:0"
         id="stop3741-55" />
    </linearGradient>
    <linearGradient
       gradientTransform="scale(1.0058652,0.994169)"
       gradientUnits="userSpaceOnUse"
       id="ButtonShadow-3"
       y2="7.0165396"
       x2="45.447727"
       y1="92.539597"
       x1="45.447727">
      <stop
         offset="0"
         style="stop-color:#000000;stop-opacity:1"
         id="stop3750-4" />
      <stop
         offset="1"
         style="stop-color:#000000;stop-opacity:0.58823532"
         id="stop3752-7" />
    </linearGradient>
    <linearGradient
       inkscape:collect="always"
       xlink:href="#linearGradient3737-3"
       id="linearGradient4587"
       gradientUnits="userSpaceOnUse"
       x1="48"
       y1="20.220806"
       x2="48"
       y2="138.66119" />
    <linearGradient
       inkscape:collect="always"
       xlink:href="#ButtonShadow-3"
       id="linearGradient4594"
       gradientUnits="userSpaceOnUse"
       gradientTransform="matrix(1.0058652,0,0,0.994169,97.5,0)"
       x1="45.447727"
       y1="92.539597"
       x2="45.447727"
       y2="7.0165396" />
  </defs>
  <metadata
     id="metadata2413">
    <rdf:RDF>
      <cc:Work
         rdf:about="">
        <dc:format>image/svg+xml</dc:format>
        <dc:type
           rdf:resource="http://purl.org/dc/dcmitype/StillImage" />
        <dc:title />
      </cc:Work>
    </rdf:RDF>
  </metadata>
  <g
     id="layer2"
     style="display:none">
    <path
       d="M 11,7 C 7.676,7 5,9.676 5,13 l 0,33.6875 c 2.2377507,0.124029 4.660506,0.235683 5.875,0.4375 0.66093,0.10983 -0.08406,0.240848 -1.125,0.34375 C 8.7090622,47.571654 7.3545491,47.665119 6.84375,47.75 6.2216014,47.853382 5.6264179,47.903999 5,48 l 0,1.0625 c 0.3803657,0.03607 0.7183843,0.03125 0.9375,0.03125 0.80883,10e-7 1.1599727,0.215701 1.3125,0.5625 0.1525272,0.346797 0.09375,0.839723 0.09375,1.40625 0,0.424828 -0.9420178,0.663014 -1.15625,1.375 C 6.110939,52.691968 5.5510552,52.945524 5,53.1875 l 0,2.21875 c 0.7355867,0.02497 1.4332639,0.05671 1.84375,0.3125 C 7.1254716,55.894306 6.0687957,56.124098 5,56.3125 l 0,7.5625 c 1.1379643,0.180337 3.3100715,0.925679 3.96875,1.0625 1.090152,0.226446 1.224723,0.33476 0.875,0.4375 -0.3497231,0.102744 -1.173581,0.175172 -2,0.3125 C 6.8656638,65.850029 5.90816,66.141998 5,66.34375 L 5,86 c 0,3.324 2.676,6 6,6 l 13,0 c 0.0954,-0.438237 0.150955,-0.931178 0.25,-1.4375 0.140364,-0.717512 0.25498,-1.34159 0.375,-1.59375 0.03001,-0.06304 0.05815,-0.114053 0.09375,-0.125 0.106804,-0.03285 0.238198,0.191956 0.46875,0.78125 0.304338,0.777871 0.540174,1.646782 0.6875,2.375 l 0.75,0 c 0.276152,-0.493694 0.578538,-1.138496 0.8125,-1.4375 0.09907,-0.126629 0.275237,0.131501 0.53125,0.375 0.256014,0.2435 0.588904,0.486378 0.9375,0.375 0.648614,-0.207227 1.602807,-0.726227 2.03125,-1 0.139883,-0.08938 0.300164,-0.157976 0.40625,-0.1875 0.106087,-0.02952 0.174331,-0.01774 0.25,0 0.151339,0.03548 0.232196,0.144559 0.34375,0.28125 0.223098,0.27338 0.466785,0.656251 1.0625,0.65625 0.478344,0 0.657185,-0.0325 0.78125,0.0625 0.124065,0.095 0.197087,0.314551 0.40625,0.875 l 8.875,0 c -0.04778,-0.593879 1.040547,-2.151517 1.21875,-3.0625 0.19092,-0.975995 0.214078,-1.242419 0.28125,-1.0625 0.06717,0.179919 0.192504,0.793906 0.46875,1.5 0.110448,0.282298 0.213887,0.358235 0.3125,0.28125 0.09861,-0.07699 0.168895,-0.293948 0.25,-0.5625 0.162213,-0.537107 0.285649,-1.296709 0.34375,-1.59375 0.131129,-0.670335 0.128655,-1.786501 0.125,-2.28125 -9.11e-4,-0.123687 -0.0059,-0.217815 0,-0.25 0.01779,-0.09656 0.08067,0.312079 0.28125,1.59375 0.163819,1.046767 0.54767,2.687946 0.71875,3.5625 0.169798,0.867992 0.298106,1.322124 0.40625,1.875 l 28.21875,0 c 0.03877,-0.494956 0.03519,-1.098589 0.0625,-1.5 0.02049,-0.301057 0.06649,-0.487005 0.15625,-0.46875 0.02992,0.0061 0.05077,0.03882 0.09375,0.09375 0.233449,0.298339 0.630596,1.164908 0.96875,1.875 L 85,92 c 3.324,0 6,-2.676 6,-6 l 0,-7.21875 c -0.16942,0.0045 -0.290112,-4e-6 -0.5,0 -1.330307,0 -2.638456,-4e-6 -3.96875,0 -1.226564,0 -2.05394,-9.64e-4 -2.25,-0.0625 -0.19606,-0.06154 0.232972,-0.183183 1.46875,-0.5 C 86.405034,78.050819 89.092469,77.290673 91,76.875 L 91,38.46875 C 90.34725,38.202412 89.792969,37.980093 89.25,37.5625 89.107486,37.452886 88.801155,37.170028 88.28125,37 87.761349,36.829972 87.007124,36.743855 86,36.9375 c -1.533473,0.294852 -1.685602,0.283469 -1.25,0.15625 0.4356,-0.127221 1.468635,-0.381012 2.25,-0.53125 1.152717,-0.221645 2.722214,-1.204246 4,-1.84375 l 0,-4.5625 c -0.69831,-0.257978 -1.422206,-0.558272 -1.75,-1.0625 -0.209707,-0.322576 -0.321618,-0.513018 -0.3125,-0.625 0.0091,-0.111981 0.13299,-0.149124 0.25,-0.1875 0.117011,-0.03837 0.261032,-0.05449 0.375,-0.15625 0.11397,-0.101759 0.187497,-0.291619 0.1875,-0.59375 0,-0.32292 0.08246,-0.887065 0.0625,-1.40625 -0.01,-0.259593 -0.03562,-0.49724 -0.125,-0.6875 -0.08939,-0.19026 -0.219089,-0.333004 -0.4375,-0.375 -0.574572,-0.110478 -0.848143,-0.233682 -0.90625,-0.34375 -0.05811,-0.110067 0.07208,-0.18937 0.28125,-0.28125 0.418339,-0.18376 1.132532,-0.339398 1.125,-0.34375 -0.668701,-0.385725 -5.247169,-0.921226 -5,-0.96875 0.332574,-0.06395 0.667437,-0.123553 1,-0.1875 1.047644,-0.201439 2.43278,-0.309227 3.75,-0.5625 0.573261,-0.110227 0.911769,-0.250569 1.125,-0.4375 0.213229,-0.18693 0.294201,-0.423258 0.375,-0.625 L 91,13 C 91,9.676 88.324,7 85,7 L 33.625,7 C 33.72158,8.3975706 33.82658,9.959362 33.53125,9.1875 33.320827,8.6375466 33.210422,8.0499534 33,7.5 32.946762,7.3608606 32.903941,7.1705291 32.84375,7 L 30.8125,7 C 30.571803,7.4923127 30.362863,7.9708281 30.03125,8.1875 29.524321,8.5187294 29.245447,8.6821159 29,8.59375 28.754552,8.5053839 28.523162,8.1669814 28.15625,7.6875 27.992502,7.4735174 27.721718,7.2560338 27.40625,7 l -6.8125,0 -1.3125,5.5625 L 17.53125,7 17.3125,7 15.5625,15.9375 14.15625,7 11,7 z"
       inkscape:connector-curvature="0"
       id="rect3745"
       style="opacity:0.9;fill:url(#ButtonShadow);fill-opacity:1;fill-rule:nonzero;stroke:none;filter:url(#filter3174)" />
  </g>
  <rect
     y="0"
     x="0"
     height="96"
     width="96"
     id="rect6228"
     style="fill:#e6e6e6;fill-opacity:1;stroke:none" />
  <g
     id="g5098"
     style="fill:#000000;opacity:0.12669683" />
  <g
     id="g5047"
     transform="translate(0.081375,0)"
     style="fill:#1a1a1a">
    <path
       style="font-size:medium;font-style:normal;font-variant:normal;font-weight:normal;font-stretch:normal;text-indent:0;text-align:start;text-decoration:none;line-height:normal;letter-spacing:normal;word-spacing:normal;text-transform:none;direction:ltr;block-progression:tb;writing-mode:lr-tb;text-anchor:start;baseline-shift:baseline;color:#000000;fill:#1a1a1a;fill-opacity:1;stroke:none;stroke-width:1;marker:none;visibility:visible;display:inline;overflow:visible;enable-background:accumulate;font-family:Sans;-inkscape-font-specification:Sans"
       d="m 61.810401,5.6441936 c 0.310679,0.1206686 0.40653,0.5921737 0.167624,0.8245665 -4.967569,3.9660469 -7.198011,6.1831729 -8.352418,7.1518009 -0.574803,0.482299 -1.377671,1.002169 -1.844964,2.110107 -0.467293,1.107939 -1.127303,2.878013 -2.001848,5.766063 -1.755217,5.796328 -2.289186,8.29812 -3.002859,9.522559 -0.356836,0.61222 -0.609056,0.915279 -0.925278,1.070427 -0.158111,0.07757 -0.360057,0.113016 -0.519892,0.06424 -0.159836,-0.04878 -0.310234,-0.215252 -0.310234,-0.215252 -0.242676,-0.303445 0.04619,-0.843785 0.433318,-0.810532 0.008,-0.01188 0.139633,-0.100274 0.424911,-0.589722 0.625399,-1.072989 1.749417,-3.669268 3.494785,-9.433067 0.875746,-2.892014 1.412028,-4.620569 1.915205,-5.813589 0.503178,-1.193019 1.224112,-1.505462 1.900862,-2.068175 1.353499,-1.125428 3.108238,-2.29533 8.089709,-7.4536959 0.132723,-0.1393319 0.349974,-0.1907635 0.531079,-0.1257265 z"
       id="path5039"
       inkscape:connector-curvature="0"
       sodipodi:nodetypes="ccssssssccsssscc" />
    <path
       style="font-size:medium;font-style:normal;font-variant:normal;font-weight:normal;font-stretch:normal;text-indent:0;text-align:start;text-decoration:none;line-height:normal;letter-spacing:normal;word-spacing:normal;text-transform:none;direction:ltr;block-progression:tb;writing-mode:lr-tb;text-anchor:start;baseline-shift:baseline;color:#000000;fill:#1a1a1a;fill-opacity:1;stroke:none;stroke-width:1.79999994999999990;marker:none;visibility:visible;display:inline;overflow:visible;enable-background:accumulate;font-family:Sans;-inkscape-font-specification:Sans"
       d="m 80.64975,27.96875 c 0.589068,0.113606 0.316968,0.51148 -0.03125,1 -2.069404,3.104106 -3.395168,4.995845 -5.21875,5.53125 -1.823582,0.535405 -3.42899,0.05789 -4.59375,-0.34375 -0.58238,-0.200821 -1.059931,-0.370823 -1.40625,-0.4375 -0.346319,-0.06668 -0.472654,-0.04472 -0.59375,0.03125 -0.121096,0.07597 -0.364287,0.316681 -0.59375,0.96875 -0.229463,0.652069 -0.426165,1.662436 -0.59375,3.125 -0.04909,0.474511 -0.525489,0.861587 -1,0.8125 -0.474511,-0.04909 -0.861587,-0.525489 -0.8125,-1 0.176165,-1.537436 0.414522,-2.666718 0.71875,-3.53125 0.304228,-0.864532 0.705081,-1.525188 1.3125,-1.90625 0.607419,-0.381062 1.293097,-0.393284 1.875,-0.28125 0.581903,0.112034 1.137068,0.341446 1.6875,0.53125 1.100865,0.379609 2.929051,1.003657 4.21875,0.625 1.289699,-0.378657 2.413154,-1.229106 4.34375,-4.125 0.191868,-0.307171 0.332169,-1.070052 0.6875,-1 z"
       id="path5041"
       inkscape:connector-curvature="0"
       sodipodi:nodetypes="ccssssscscssssscc" />
    <path
       style="font-size:medium;font-style:normal;font-variant:normal;font-weight:normal;font-stretch:normal;text-indent:0;text-align:start;text-decoration:none;line-height:normal;letter-spacing:normal;word-spacing:normal;text-transform:none;direction:ltr;block-progression:tb;writing-mode:lr-tb;text-anchor:start;baseline-shift:baseline;color:#000000;fill:#1a1a1a;fill-opacity:1;stroke:none;stroke-width:1.89999998000000003;marker:none;visibility:visible;display:inline;overflow:visible;enable-background:accumulate;font-family:Sans;-inkscape-font-specification:Sans"
       d="m 68.64975,46.4375 c 5.04644,0.855149 7.209023,4.932344 9.28125,8.09375 2.072227,3.161406 4.098666,6.030764 7.6875,6.6875 0.54841,0.01262 0.981427,-0.07153 0.880887,0.467729 -0.100541,0.539263 -0.521023,0.593119 -1.037137,0.407271 C 81.03659,61.283879 78.728527,58.123723 76.681,55 74.633473,51.876277 72.663547,49.045617 68.33725,48.3125 67.846337,48.230731 67.47409,47.709639 67.555908,47.218735 67.637725,46.72783 68.158853,46.355634 68.64975,46.4375 z"
       id="path5043"
       inkscape:connector-curvature="0"
       sodipodi:nodetypes="cscscscsc" />
    <path
       style="font-size:medium;font-style:normal;font-variant:normal;font-weight:normal;font-stretch:normal;text-indent:0;text-align:start;text-decoration:none;line-height:normal;letter-spacing:normal;word-spacing:normal;text-transform:none;direction:ltr;block-progression:tb;writing-mode:lr-tb;text-anchor:start;baseline-shift:baseline;color:#000000;fill:#1a1a1a;fill-opacity:1;stroke:none;stroke-width:1.89999998000000003;marker:none;visibility:visible;display:inline;overflow:visible;enable-background:accumulate;font-family:Sans;-inkscape-font-specification:Sans"
       d="m 65.8685,60.9375 c 0.172374,0.02798 0.336583,0.104611 0.46875,0.21875 2.881616,2.375035 4.317884,4.690412 4.78125,6.90625 0.463366,2.215838 -0.0315,4.243109 -0.6875,6.0625 -0.655996,1.819391 -1.832845,4.307925 -2.15625,5.78125 -0.323405,1.473325 -0.43733,2.375683 0.625,3.78125 0.35202,0.387084 0.82278,0.541036 0.40839,0.860462 -0.41439,0.319426 -1.154918,0.140998 -1.43964,-0.297962 -1.393994,-1.844393 -1.270838,-2.790446 -0.875,-4.59375 0.395838,-1.803304 1.642261,-4.939449 2.25,-6.625 0.607739,-1.685551 0.359482,-2.874689 0,-4.59375 -0.359482,-1.719061 -1.434859,-3.621035 -4.09375,-5.8125 -0.650166,-0.511915 -0.100857,-1.801599 0.71875,-1.6875 z"
       id="path5045"
       inkscape:connector-curvature="0"
       sodipodi:nodetypes="ccssscscssscc" />
    <g
       id="g5031"
       style="fill:#1a1a1a"
       transform="translate(-0.25,1.5)">
      <path
         style="font-size:medium;font-style:normal;font-variant:normal;font-weight:normal;font-stretch:normal;text-indent:0;text-align:start;text-decoration:none;line-height:normal;letter-spacing:normal;word-spacing:normal;text-transform:none;direction:ltr;block-progression:tb;writing-mode:lr-tb;text-anchor:start;baseline-shift:baseline;color:#000000;fill:#1a1a1a;fill-opacity:1;stroke:none;stroke-width:1;marker:none;visibility:visible;display:inline;overflow:visible;enable-background:accumulate;font-family:Sans;-inkscape-font-specification:Sans"
         d="m 37.03125,2.875 c -0.32726,0.063114 -0.505954,0.5098498 -0.3125,0.78125 4.410012,5.387022 6.038783,7.272723 6.9375,8.53125 0.436052,0.61063 1.301054,1.076315 1.5625,2.25 0.261446,1.173685 -0.06226,3.002057 0.28125,6 0.689434,6.016883 1.298254,8.761348 1.78125,10.09375 0.241498,0.666201 0.435403,1.009509 0.71875,1.21875 0.141673,0.10462 0.334015,0.175635 0.5,0.15625 C 48.665985,31.886865 48.84375,31.75 48.84375,31.75 49.136819,31.49489 48.949324,30.911573 48.5625,30.875 48.556821,30.861885 48.443069,30.751354 48.25,30.21875 47.826746,29.051152 47.185566,26.295617 46.5,20.3125 46.156014,17.310443 45.937773,15.513815 45.65625,14.25 45.374727,12.986185 44.815106,12.612253 44.25,11.9375 43.119788,10.587993 41.509026,9.060415 37.53125,3.09375 37.425608,2.9329129 37.221071,2.8434278 37.03125,2.875 z"
         id="path5007"
         inkscape:connector-curvature="0"
         sodipodi:nodetypes="ccssssssccsssscc" />
      <path
         style="font-size:medium;font-style:normal;font-variant:normal;font-weight:normal;font-stretch:normal;text-indent:0;text-align:start;text-decoration:none;line-height:normal;letter-spacing:normal;word-spacing:normal;text-transform:none;direction:ltr;block-progression:tb;writing-mode:lr-tb;text-anchor:start;baseline-shift:baseline;color:#000000;fill:#1a1a1a;fill-opacity:1;stroke:none;stroke-width:1.79999994999999990;marker:none;visibility:visible;display:inline;overflow:visible;enable-background:accumulate;font-family:Sans;-inkscape-font-specification:Sans"
         d="m 15.1875,27.96875 c -0.589068,0.113606 -0.160718,0.91773 0.1875,1.40625 2.069404,3.104106 2.613918,4.152095 4.4375,4.6875 1.823582,0.535405 4.05399,0.49539 5.21875,0.09375 0.58238,-0.200821 1.059931,-0.370823 1.40625,-0.4375 0.346319,-0.06668 0.472654,-0.04472 0.59375,0.03125 0.121096,0.07597 0.364287,0.316681 0.59375,0.96875 0.229463,0.652069 0.426165,1.662436 0.59375,3.125 0.04909,0.474511 0.525489,0.861587 1,0.8125 0.474511,-0.04909 0.861587,-0.525489 0.8125,-1 C 29.855085,36.118814 29.616728,34.989532 29.3125,34.125 29.008272,33.260468 28.607419,32.599812 28,32.21875 27.392581,31.837688 26.706903,31.825466 26.125,31.9375 c -0.581903,0.112034 -1.137068,0.341446 -1.6875,0.53125 -1.100865,0.379609 -3.054051,1.066157 -4.34375,0.6875 C 18.804051,32.777593 17.930596,32.083394 16,29.1875 15.808132,28.880329 15.542831,27.898698 15.1875,27.96875 z"
         id="path5009"
         inkscape:connector-curvature="0"
         sodipodi:nodetypes="ccssssscscssssscc" />
      <path
         style="font-size:medium;font-style:normal;font-variant:normal;font-weight:normal;font-stretch:normal;text-indent:0;text-align:start;text-decoration:none;line-height:normal;letter-spacing:normal;word-spacing:normal;text-transform:none;direction:ltr;block-progression:tb;writing-mode:lr-tb;text-anchor:start;baseline-shift:baseline;color:#000000;fill:#1a1a1a;fill-opacity:1;stroke:none;stroke-width:1.89999998000000003;marker:none;visibility:visible;display:inline;overflow:visible;enable-background:accumulate;font-family:Sans;-inkscape-font-specification:Sans"
         d="m 27.1875,46.4375 c -5.04644,0.855149 -7.552773,4.369844 -9.625,7.53125 -2.072227,3.161406 -2.723666,6.437014 -6.3125,7.09375 -0.54841,0.01262 -2.0126774,0.08472 -1.9121368,0.623979 0.1005406,0.539263 0.7397728,0.905619 1.2558868,0.719771 4.42566,-0.809871 6.139973,-5.157527 8.1875,-8.28125 2.047527,-3.123723 4.392453,-5.079383 8.71875,-5.8125 0.490913,-0.08177 0.86316,-0.602861 0.781342,-1.093765 C 28.199525,46.72783 27.678397,46.355634 27.1875,46.4375 z"
         id="path5011"
         inkscape:connector-curvature="0"
         sodipodi:nodetypes="cscscscsc" />
      <path
         style="font-size:medium;font-style:normal;font-variant:normal;font-weight:normal;font-stretch:normal;text-indent:0;text-align:start;text-decoration:none;line-height:normal;letter-spacing:normal;word-spacing:normal;text-transform:none;direction:ltr;block-progression:tb;writing-mode:lr-tb;text-anchor:start;baseline-shift:baseline;color:#000000;fill:#1a1a1a;fill-opacity:1;stroke:none;stroke-width:1.89999998000000003;marker:none;visibility:visible;display:inline;overflow:visible;enable-background:accumulate;font-family:Sans;-inkscape-font-specification:Sans"
         d="m 31.303713,59.77085 c -0.15919,0.07179 -0.297858,0.188448 -0.395841,0.332999 -2.165796,3.042011 -2.95135,5.650985 -2.82325,7.911125 0.1281,2.260141 1.132561,4.089288 2.238629,5.675835 1.106064,1.586549 3.229177,2.783439 3.924176,4.12219 0.694999,1.338751 0.04813,2.706064 -0.612644,4.339325 -0.239393,0.465235 -0.003,1.111206 0.480138,1.312031 0.483137,0.200825 1.107781,-0.08724 1.268711,-0.585091 0.867068,-2.143174 0.498016,-4.123851 -0.352641,-5.76244 -0.850657,-1.63859 -2.702178,-2.640701 -3.726877,-4.110538 -1.024699,-1.469837 -1.634546,-3.24914 -1.733927,-5.002572 -0.09938,-1.753431 0.867534,-3.98309 2.865931,-6.789979 0.494881,-0.663224 -0.370567,-1.765959 -1.132405,-1.442885 z"
         id="path5013"
         inkscape:connector-curvature="0"
         sodipodi:nodetypes="ccssscscssscc" />
    </g>
  </g>
  <rect
     y="0"
     x="0"
     height="2.5"
     width="96"
     id="rect3880"
     style="opacity:0.3122172;fill:#ffffff;fill-opacity:1;stroke:none" />
  <rect
     style="opacity:0.38914029000000000;fill:#2d5016;fill-opacity:1;stroke:none"
     id="rect3878"
     width="96"
     height="2.5"
     x="0"
     y="93.5" />
  <rect
     style="opacity:0.9;fill:url(#linearGradient4594);fill-opacity:1;fill-rule:nonzero;stroke:none;display:none;filter:url(#filter3174-4)"
     id="rect3745-4"
     y="7"
     x="102.5"
     ry="6"
     rx="6"
     height="85"
     width="86" />
  <rect
     style="opacity:0.1;fill:url(#linearGradient4587);fill-opacity:1;fill-rule:nonzero;stroke:#ffffff;stroke-width:0.5;stroke-linecap:round;stroke-linejoin:miter;stroke-miterlimit:4;stroke-opacity:1;stroke-dasharray:none;stroke-dashoffset:0;display:none;filter:url(#filter3794-3)"
     id="rect3171"
     clip-path="url(#clipPath3613)"
     y="15"
     x="15"
     ry="12"
     rx="12"
     height="66"
     width="66"
     transform="translate(97.5,0)" />
  <path
     sodipodi:type="arc"
     style="fill:#ff2a2a;fill-opacity:1;stroke:none"
     id="path4947"
     sodipodi:cx="42.375"
     sodipodi:cy="53"
     sodipodi:rx="22.625"
     sodipodi:ry="27"
     d="M 65,53 A 22.625,27 0 1 1 19.75,53 22.625,27 0 1 1 65,53 z"
     transform="translate(5.625,-5)" />
  <path
     transform="matrix(0.0553437,-0.37935847,0.42894364,0.03358219,22.920798,52.476763)"
     d="M 65,53 A 22.625,27 0 1 1 19.75,53 22.625,27 0 1 1 65,53 z"
     sodipodi:ry="27"
     sodipodi:rx="22.625"
     sodipodi:cy="53"
     sodipodi:cx="42.375"
     id="path5059"
     style="fill:#ffdd55;fill-opacity:1;stroke:none"
     sodipodi:type="arc" />
  <rect
     style="fill:#2b0000;fill-opacity:1;stroke:none"
     id="rect4951"
     width="2.25"
     height="53.926125"
     x="46.875"
     y="-74.863625"
     transform="scale(1,-1)"
     rx="1.0827572"
     ry="1.0787789" />
  <path
     style="fill:#000000;fill-opacity:1;stroke:none;opacity:0.78280543000000002"
     d="M 62.1875 54.875 C 56.981705 54.875 52.75 59.911797 52.75 66.125 C 52.75 69.004237 53.66562 71.635183 55.15625 73.625 C 61.406343 71.138627 66.449519 65.47392 68.9375 58.25 C 67.225701 56.156337 64.832126 54.875 62.1875 54.875 z "
     id="path4949" />
  <path
     style="fill:#000000;fill-opacity:1;stroke:none;opacity:0.78280543000000002"
     d="M 69.125 38.3125 C 67.870137 38.962111 66.744178 40.009043 65.9375 41.40625 C 63.98443 44.789066 64.696923 48.863601 67.53125 50.5 C 68.43542 51.022023 69.448124 51.251458 70.46875 51.1875 C 70.572069 50.14065 70.625 49.07999 70.625 48 C 70.625 44.583933 70.094872 41.320833 69.125 38.3125 z "
     id="path4955" />
  <path
     style="fill:#000000;fill-opacity:1;stroke:none;opacity:0.78280543000000002"
     d="M 32.90625 54.875 C 30.591482 54.875 28.484399 55.87893 26.84375 57.53125 C 29.153975 64.828678 34.020458 70.637726 40.15625 73.34375 C 41.524106 71.391113 42.34375 68.869261 42.34375 66.125 C 42.34375 59.911797 38.112045 54.875 32.90625 54.875 z "
     id="path4964" />
  <g
     id="g5061"
     transform="translate(0.4516,0)"
     style="opacity:0.78280543000000002;fill:#000000">
    <path
       transform="matrix(0.15816582,-0.0423804,0.0423856,0.15818524,44.391365,33.287052)"
       d="M 65,53 C 65,67.911688 54.870442,80 42.375,80 29.879558,80 19.75,67.911688 19.75,53 19.75,38.088312 29.879558,26 42.375,26 54.870442,26 65,38.088312 65,53 z"
       sodipodi:ry="27"
       sodipodi:rx="22.625"
       sodipodi:cy="53"
       sodipodi:cx="42.375"
       id="path4953"
       style="fill:#000000;fill-opacity:1;stroke:none"
       sodipodi:type="arc" />
    <path
       sodipodi:type="arc"
       style="fill:#000000;fill-opacity:1;stroke:none"
       id="path4966"
       sodipodi:cx="42.375"
       sodipodi:cy="53"
       sodipodi:rx="22.625"
       sodipodi:ry="27"
       d="M 65,53 C 65,67.911688 54.870442,80 42.375,80 29.879558,80 19.75,67.911688 19.75,53 19.75,38.088312 29.879558,26 42.375,26 54.870442,26 65,38.088312 65,53 z"
       transform="matrix(-0.15816582,-0.0423804,-0.0423856,0.15818524,50.705435,33.287052)" />
  </g>
  <path
     style="fill:#000000;fill-opacity:1;stroke:none;opacity:0.78280543000000002"
     d="M 26.75 38.75 C 25.867456 41.636668 25.375 44.748899 25.375 48 C 25.375 49.069486 25.429902 50.119229 25.53125 51.15625 C 26.237132 51.08362 26.928128 50.866255 27.5625 50.5 C 30.396827 48.863601 31.10932 44.789066 29.15625 41.40625 C 28.517113 40.299233 27.697811 39.397681 26.75 38.75 z "
     id="path4968" />
  <path
     style="fill:#000000;fill-opacity:1;stroke:none"
     d="M 48 21 C 41.528466 21 35.686286 24.239637 31.5625 29.4375 C 33.463055 32.802427 40.144917 35.3125 48.125 35.3125 C 55.951944 35.3125 62.518826 32.891702 64.5625 29.625 C 60.431419 24.324034 54.544551 21 48 21 z "
     id="path4973" />
  <path
     style="fill:#ffdd55;fill-opacity:1;stroke:none"
     d="m 43.875,21.28125 c -4.484987,0.986144 -8.517807,3.545993 -11.65625,7.1875 1.212547,1.990731 3.0973,3.28125 5.21875,3.28125 3.658886,0 6.625,-3.811972 6.625,-8.5 0,-0.676538 -0.07079,-1.337525 -0.1875,-1.96875 z m 8.25,0 c -0.116712,0.631225 -0.1875,1.292212 -0.1875,1.96875 0,4.688028 2.966114,8.5 6.625,8.5 2.12145,0 4.006203,-1.290519 5.21875,-3.28125 -3.137568,-3.644575 -7.173314,-6.197987 -11.65625,-7.1875 z"
     id="path4975"
     inkscape:connector-curvature="0" />
</svg>
