<?xml version="1.0" encoding="UTF-8" standalone="no"?>
<!-- Created with Inkscape (http://www.inkscape.org/) -->

<svg
   xmlns:dc="http://purl.org/dc/elements/1.1/"
   xmlns:cc="http://creativecommons.org/ns#"
   xmlns:rdf="http://www.w3.org/1999/02/22-rdf-syntax-ns#"
   xmlns:svg="http://www.w3.org/2000/svg"
   xmlns="http://www.w3.org/2000/svg"
   xmlns:xlink="http://www.w3.org/1999/xlink"
   xmlns:sodipodi="http://sodipodi.sourceforge.net/DTD/sodipodi-0.dtd"
   xmlns:inkscape="http://www.inkscape.org/namespaces/inkscape"
   version="1.0"
   width="96"
   height="96"
   id="svg2408"
   inkscape:version="0.48.3.1 r9886"
   sodipodi:docname="gthumb.svg">
  <sodipodi:namedview
     pagecolor="#ffffff"
     bordercolor="#666666"
     borderopacity="1"
     objecttolerance="10"
     gridtolerance="10"
     guidetolerance="10"
     inkscape:pageopacity="0"
     inkscape:pageshadow="2"
     inkscape:window-width="1280"
     inkscape:window-height="752"
     id="namedview128"
     showgrid="false"
     inkscape:zoom="4"
     inkscape:cx="22.993178"
     inkscape:cy="48.519558"
     inkscape:window-x="0"
     inkscape:window-y="0"
     inkscape:window-maximized="1"
     inkscape:current-layer="svg2408"
     showguides="true"
     inkscape:guide-bbox="true" />
  <defs
     id="defs2410">
    <linearGradient
       x1="45.447727"
       y1="92.539597"
       x2="45.447727"
       y2="7.0165396"
       id="ButtonShadow"
       gradientUnits="userSpaceOnUse"
       gradientTransform="scale(1.0058652,0.994169)">
      <stop
         id="stop3750"
         style="stop-color:#000000;stop-opacity:1"
         offset="0" />
      <stop
         id="stop3752"
         style="stop-color:#000000;stop-opacity:0.58823532"
         offset="1" />
    </linearGradient>
    <filter
       color-interpolation-filters="sRGB"
       id="filter3174">
      <feGaussianBlur
         id="feGaussianBlur3176"
         stdDeviation="1.71" />
    </filter>
    <clipPath
       id="clipPath3613">
      <rect
         style="fill:#ffffff;fill-opacity:1;fill-rule:nonzero;stroke:none"
         id="rect3615"
         y="6"
         x="6"
         ry="6"
         rx="6"
         height="84"
         width="84" />
    </clipPath>
    <filter
       id="filter3794-3"
       color-interpolation-filters="sRGB"
       height="1.3839999"
       width="1.3839999"
       y="-0.192"
       x="-0.192">
      <feGaussianBlur
         stdDeviation="5.28"
         id="feGaussianBlur3796-2" />
    </filter>
    <filter
       id="filter3174-4"
       color-interpolation-filters="sRGB">
      <feGaussianBlur
         stdDeviation="1.71"
         id="feGaussianBlur3176-2" />
    </filter>
    <linearGradient
       id="linearGradient3737-3">
      <stop
         offset="0"
         style="stop-color:#ffffff;stop-opacity:1"
         id="stop3739-9" />
      <stop
         offset="1"
         style="stop-color:#ffffff;stop-opacity:0"
         id="stop3741-55" />
    </linearGradient>
    <linearGradient
       gradientTransform="scale(1.0058652,0.994169)"
       gradientUnits="userSpaceOnUse"
       id="ButtonShadow-3"
       y2="7.0165396"
       x2="45.447727"
       y1="92.539597"
       x1="45.447727">
      <stop
         offset="0"
         style="stop-color:#000000;stop-opacity:1"
         id="stop3750-4" />
      <stop
         offset="1"
         style="stop-color:#000000;stop-opacity:0.58823532"
         id="stop3752-7" />
    </linearGradient>
    <linearGradient
       inkscape:collect="always"
       xlink:href="#linearGradient3737-3"
       id="linearGradient4587"
       gradientUnits="userSpaceOnUse"
       x1="48"
       y1="20.220806"
       x2="48"
       y2="138.66119" />
    <linearGradient
       inkscape:collect="always"
       xlink:href="#ButtonShadow-3"
       id="linearGradient4594"
       gradientUnits="userSpaceOnUse"
       gradientTransform="matrix(1.0058652,0,0,0.994169,97.5,0)"
       x1="45.447727"
       y1="92.539597"
       x2="45.447727"
       y2="7.0165396" />
    <clipPath
       clipPathUnits="userSpaceOnUse"
       id="clipPath5127">
      <path
         id="path5129"
         d="M 0,0 0,96 96,96 96,0 0,0 z"
         style="fill:#eef4d7;fill-opacity:1;stroke:none"
         inkscape:connector-curvature="0" />
    </clipPath>
  </defs>
  <metadata
     id="metadata2413">
    <rdf:RDF>
      <cc:Work
         rdf:about="">
        <dc:format>image/svg+xml</dc:format>
        <dc:type
           rdf:resource="http://purl.org/dc/dcmitype/StillImage" />
        <dc:title />
      </cc:Work>
    </rdf:RDF>
  </metadata>
  <path
     style="fill:#eef4d7;fill-opacity:1;stroke:none"
     d="M 0 0 L 0 96 L 96 96 L 96 0 L 0 0 z "
     id="path3955" />
  <g
     id="layer2"
     style="display:none">
    <path
       d="M 11,7 C 7.676,7 5,9.676 5,13 l 0,33.6875 c 2.2377507,0.124029 4.660506,0.235683 5.875,0.4375 0.66093,0.10983 -0.08406,0.240848 -1.125,0.34375 C 8.7090622,47.571654 7.3545491,47.665119 6.84375,47.75 6.2216014,47.853382 5.6264179,47.903999 5,48 l 0,1.0625 c 0.3803657,0.03607 0.7183843,0.03125 0.9375,0.03125 0.80883,10e-7 1.1599727,0.215701 1.3125,0.5625 0.1525272,0.346797 0.09375,0.839723 0.09375,1.40625 0,0.424828 -0.9420178,0.663014 -1.15625,1.375 C 6.110939,52.691968 5.5510552,52.945524 5,53.1875 l 0,2.21875 c 0.7355867,0.02497 1.4332639,0.05671 1.84375,0.3125 C 7.1254716,55.894306 6.0687957,56.124098 5,56.3125 l 0,7.5625 c 1.1379643,0.180337 3.3100715,0.925679 3.96875,1.0625 1.090152,0.226446 1.224723,0.33476 0.875,0.4375 -0.3497231,0.102744 -1.173581,0.175172 -2,0.3125 C 6.8656638,65.850029 5.90816,66.141998 5,66.34375 L 5,86 c 0,3.324 2.676,6 6,6 l 13,0 c 0.0954,-0.438237 0.150955,-0.931178 0.25,-1.4375 0.140364,-0.717512 0.25498,-1.34159 0.375,-1.59375 0.03001,-0.06304 0.05815,-0.114053 0.09375,-0.125 0.106804,-0.03285 0.238198,0.191956 0.46875,0.78125 0.304338,0.777871 0.540174,1.646782 0.6875,2.375 l 0.75,0 c 0.276152,-0.493694 0.578538,-1.138496 0.8125,-1.4375 0.09907,-0.126629 0.275237,0.131501 0.53125,0.375 0.256014,0.2435 0.588904,0.486378 0.9375,0.375 0.648614,-0.207227 1.602807,-0.726227 2.03125,-1 0.139883,-0.08938 0.300164,-0.157976 0.40625,-0.1875 0.106087,-0.02952 0.174331,-0.01774 0.25,0 0.151339,0.03548 0.232196,0.144559 0.34375,0.28125 0.223098,0.27338 0.466785,0.656251 1.0625,0.65625 0.478344,0 0.657185,-0.0325 0.78125,0.0625 0.124065,0.095 0.197087,0.314551 0.40625,0.875 l 8.875,0 c -0.04778,-0.593879 1.040547,-2.151517 1.21875,-3.0625 0.19092,-0.975995 0.214078,-1.242419 0.28125,-1.0625 0.06717,0.179919 0.192504,0.793906 0.46875,1.5 0.110448,0.282298 0.213887,0.358235 0.3125,0.28125 0.09861,-0.07699 0.168895,-0.293948 0.25,-0.5625 0.162213,-0.537107 0.285649,-1.296709 0.34375,-1.59375 0.131129,-0.670335 0.128655,-1.786501 0.125,-2.28125 -9.11e-4,-0.123687 -0.0059,-0.217815 0,-0.25 0.01779,-0.09656 0.08067,0.312079 0.28125,1.59375 0.163819,1.046767 0.54767,2.687946 0.71875,3.5625 0.169798,0.867992 0.298106,1.322124 0.40625,1.875 l 28.21875,0 c 0.03877,-0.494956 0.03519,-1.098589 0.0625,-1.5 0.02049,-0.301057 0.06649,-0.487005 0.15625,-0.46875 0.02992,0.0061 0.05077,0.03882 0.09375,0.09375 0.233449,0.298339 0.630596,1.164908 0.96875,1.875 L 85,92 c 3.324,0 6,-2.676 6,-6 l 0,-7.21875 c -0.16942,0.0045 -0.290112,-4e-6 -0.5,0 -1.330307,0 -2.638456,-4e-6 -3.96875,0 -1.226564,0 -2.05394,-9.64e-4 -2.25,-0.0625 -0.19606,-0.06154 0.232972,-0.183183 1.46875,-0.5 C 86.405034,78.050819 89.092469,77.290673 91,76.875 L 91,38.46875 C 90.34725,38.202412 89.792969,37.980093 89.25,37.5625 89.107486,37.452886 88.801155,37.170028 88.28125,37 87.761349,36.829972 87.007124,36.743855 86,36.9375 c -1.533473,0.294852 -1.685602,0.283469 -1.25,0.15625 0.4356,-0.127221 1.468635,-0.381012 2.25,-0.53125 1.152717,-0.221645 2.722214,-1.204246 4,-1.84375 l 0,-4.5625 c -0.69831,-0.257978 -1.422206,-0.558272 -1.75,-1.0625 -0.209707,-0.322576 -0.321618,-0.513018 -0.3125,-0.625 0.0091,-0.111981 0.13299,-0.149124 0.25,-0.1875 0.117011,-0.03837 0.261032,-0.05449 0.375,-0.15625 0.11397,-0.101759 0.187497,-0.291619 0.1875,-0.59375 0,-0.32292 0.08246,-0.887065 0.0625,-1.40625 -0.01,-0.259593 -0.03562,-0.49724 -0.125,-0.6875 -0.08939,-0.19026 -0.219089,-0.333004 -0.4375,-0.375 -0.574572,-0.110478 -0.848143,-0.233682 -0.90625,-0.34375 -0.05811,-0.110067 0.07208,-0.18937 0.28125,-0.28125 0.418339,-0.18376 1.132532,-0.339398 1.125,-0.34375 -0.668701,-0.385725 -5.247169,-0.921226 -5,-0.96875 0.332574,-0.06395 0.667437,-0.123553 1,-0.1875 1.047644,-0.201439 2.43278,-0.309227 3.75,-0.5625 0.573261,-0.110227 0.911769,-0.250569 1.125,-0.4375 0.213229,-0.18693 0.294201,-0.423258 0.375,-0.625 L 91,13 C 91,9.676 88.324,7 85,7 L 33.625,7 C 33.72158,8.3975706 33.82658,9.959362 33.53125,9.1875 33.320827,8.6375466 33.210422,8.0499534 33,7.5 32.946762,7.3608606 32.903941,7.1705291 32.84375,7 L 30.8125,7 C 30.571803,7.4923127 30.362863,7.9708281 30.03125,8.1875 29.524321,8.5187294 29.245447,8.6821159 29,8.59375 28.754552,8.5053839 28.523162,8.1669814 28.15625,7.6875 27.992502,7.4735174 27.721718,7.2560338 27.40625,7 l -6.8125,0 -1.3125,5.5625 L 17.53125,7 17.3125,7 15.5625,15.9375 14.15625,7 11,7 z"
       inkscape:connector-curvature="0"
       id="rect3745"
       style="opacity:0.9;fill:url(#ButtonShadow);fill-opacity:1;fill-rule:nonzero;stroke:none;filter:url(#filter3174)" />
  </g>
  <g
     id="g5115"
     clip-path="url(#clipPath5127)">
    <path
       inkscape:connector-curvature="0"
       style="fill:#87cdde;fill-opacity:1;stroke:none"
       d="M -1.6277532,8.9385827 8.9385827,97.627753 97.627753,87.061417 87.061417,-1.6277532 -1.6277532,8.9385827 z"
       id="path5084" />
    <path
       inkscape:connector-curvature="0"
       id="path5106"
       d="m 33.685111,4.731445 c -6.194706,7.209711 -9.465428,16.904237 -8.252268,27.086966 2.296881,19.279006 19.807187,33.061161 39.086193,30.76428 12.602014,-1.50139 22.834856,-9.512239 27.779368,-20.253487 L 87.957339,5.8922194 C 85.918303,3.3109335 83.554342,1.0181619 80.89814,-0.89346676 L 33.685111,4.731445 z"
       style="fill:#afdde9;fill-opacity:1;stroke:none" />
    <path
       sodipodi:nodetypes="sscccscsssss"
       inkscape:connector-curvature="0"
       id="path5088"
       d="m 18.213158,66.912486 c -2.08896,0.16523 -4.835427,-0.96806 -6.887348,-0.723597 -1.010401,0.120384 -4.6562245,-2.993658 -6.483529,-2.943694 L 8.9385827,97.627753 26.149244,95.577292 C 36.593027,93.017461 46.090858,88.72065 50.12376,84.30454 c 2.243303,-2.456461 15.510032,-5.989384 16.242329,-8.858305 -8.489413,0.631707 -15.946198,-0.280894 -21.207393,-1.138603 -3.803776,-0.620113 -4.5186,0.384302 -7.896071,-0.281014 -0.424032,-0.08353 -3.189864,-1.290659 -3.650321,-1.601343 -4.733631,-3.193909 -4.350349,-1.809396 -11.312466,-3.878589 -1.009283,-0.299968 -3.390359,-1.689275 -4.08668,-1.6342 z"
       style="fill:#164450;stroke:none" />
    <path
       sodipodi:type="arc"
       style="fill:#ffe680;fill-opacity:1;stroke:none"
       id="path5104"
       sodipodi:cx="41.75"
       sodipodi:cy="25"
       sodipodi:rx="14"
       sodipodi:ry="14"
       d="m 55.75,25 a 14,14 0 1 1 -28,0 14,14 0 1 1 28,0 z"
       transform="matrix(1.7729335,-0.21122546,0.21122546,1.7729335,-18.942531,-7.8472199)" />
    <path
       transform="matrix(1.240408,-0.14778093,0.14778093,1.240408,4.8765235,2.8171088)"
       d="m 55.75,25 a 14,14 0 1 1 -28,0 14,14 0 1 1 28,0 z"
       sodipodi:ry="14"
       sodipodi:rx="14"
       sodipodi:cy="25"
       sodipodi:cx="41.75"
       id="path5090"
       style="fill:#ffcc00;fill-opacity:1;stroke:none"
       sodipodi:type="arc" />
    <path
       style="opacity:0.61990955;fill:#0b2228;stroke:none"
       d="m 18.201186,71.634914 c -1.995028,0.167375 -4.59975,-0.749942 -6.560513,-0.516339 -0.965512,0.115025 -4.4014276,-2.458266 -6.1452869,-2.3915 L 8.9385827,97.627753 25.384649,95.668386 c 9.997588,-2.296921 19.116237,-6.043896 23.023148,-9.817507 2.173222,-2.099071 14.876946,-5.253642 15.614293,-7.67966 -8.107137,0.646703 -15.208318,-0.02112 -20.215724,-0.672373 -3.62029,-0.470849 -4.315776,0.384698 -7.528777,-0.12998 -0.403384,-0.06462 -3.025579,-1.04386 -3.460642,-1.299289 -4.472566,-2.625865 -4.125635,-1.465046 -10.739292,-3.1136 -0.958767,-0.238987 -3.211461,-1.376854 -3.876469,-1.321063 z"
       id="path5113"
       inkscape:connector-curvature="0"
       sodipodi:nodetypes="sscccscsssss" />
    <path
       sodipodi:nodetypes="ssssssscccsssss"
       inkscape:connector-curvature="0"
       id="path5086"
       d="m 69.37222,36.33313 c -4.249266,0.547669 -3.965347,4.718228 -6.12967,4.976082 -4.741821,0.564936 -9.368756,8.511168 -11.823563,11.630015 -2.178325,2.767574 -8.492947,15.122507 -10.903866,16.709752 -3.45293,2.27326 -10.474177,7.237805 -11.008026,7.916061 -3.424978,4.351455 -2.187282,4.921201 -5.241464,8.801556 -1.455854,1.849673 -4.740511,4.416162 -5.287942,5.111676 -1.175037,1.492892 -7.01284,3.817059 -8.449833,5.960136 L 97.627753,87.061417 93.896284,55.741116 c -1.488237,-1.171374 -3.930792,-1.407744 -5.678131,-2.783054 -2.19637,-1.728736 -1.566197,-4.918794 -3.057399,-7.183831 -2.823103,-4.288102 -9.882481,-4.687132 -11.046161,-5.603051 -1.019665,-0.802567 -1.146921,-3.15091 -2.030797,-3.8466 -0.265793,-0.209202 -1.295153,-0.174007 -2.711576,0.0085 z"
       style="fill:#216778;stroke:none" />
    <path
       style="fill:#164450;stroke:none"
       d="m 69.517732,44.766249 c -3.946261,0.503403 -3.7448,3.854139 -5.754478,4.093571 -4.403012,0.524569 -8.808696,6.985213 -11.129896,9.53042 -2.059766,2.258541 -5.421496,14.196037 -7.679374,15.508523 -3.233745,1.879747 -9.814356,5.97722 -10.319149,6.530728 -3.23857,3.551105 -2.099913,3.991127 -4.987868,7.157781 -1.376618,1.509467 -4.458745,3.622609 -4.976381,4.1902 -1.111085,1.21831 -12.476281,3.879627 -13.839758,5.624841 L 97.627753,87.061417 94.632605,61.921457 c -1.361959,-0.920287 -8.075788,-2.989981 -7.894537,-4.060207 0.405072,-2.391797 -5.166644,-4.927931 -6.51518,-6.727955 -2.553007,-3.407754 -3.787857,-3.922428 -4.852797,-4.642017 -0.933143,-0.630535 -2.530303,-1.225436 -3.339179,-1.772004 -0.24324,-0.164358 -1.197759,-0.12082 -2.51318,0.04697 z"
       id="path5111"
       inkscape:connector-curvature="0"
       sodipodi:nodetypes="ssssssscccsssss" />
  </g>
  <rect
     y="0"
     x="0"
     height="2.5"
     width="96"
     id="rect3880"
     style="opacity:0.55656109;fill:#ffffff;fill-opacity:1;stroke:none" />
  <rect
     style="opacity:0.38914029000000000;fill:#000000;fill-opacity:1;stroke:none"
     id="rect3878"
     width="96"
     height="2.5"
     x="0"
     y="93.5" />
  <rect
     style="opacity:0.9;fill:url(#linearGradient4594);fill-opacity:1;fill-rule:nonzero;stroke:none;display:none;filter:url(#filter3174-4)"
     id="rect3745-4"
     y="7"
     x="102.5"
     ry="6"
     rx="6"
     height="85"
     width="86" />
  <rect
     style="opacity:0.1;fill:url(#linearGradient4587);fill-opacity:1;fill-rule:nonzero;stroke:#ffffff;stroke-width:0.5;stroke-linecap:round;stroke-linejoin:miter;stroke-miterlimit:4;stroke-opacity:1;stroke-dasharray:none;stroke-dashoffset:0;display:none;filter:url(#filter3794-3)"
     id="rect3171"
     clip-path="url(#clipPath3613)"
     y="15"
     x="15"
     ry="12"
     rx="12"
     height="66"
     width="66"
     transform="translate(97.5,0)" />
</svg>
