<?xml version="1.0" encoding="UTF-8" standalone="no"?>
<!-- Created with Inkscape (http://www.inkscape.org/) -->

<svg
   xmlns:dc="http://purl.org/dc/elements/1.1/"
   xmlns:cc="http://creativecommons.org/ns#"
   xmlns:rdf="http://www.w3.org/1999/02/22-rdf-syntax-ns#"
   xmlns:svg="http://www.w3.org/2000/svg"
   xmlns="http://www.w3.org/2000/svg"
   xmlns:sodipodi="http://sodipodi.sourceforge.net/DTD/sodipodi-0.dtd"
   xmlns:inkscape="http://www.inkscape.org/namespaces/inkscape"
   version="1.0"
   width="96"
   height="96"
   id="svg2408"
   inkscape:version="0.48.3.1 r9886"
   sodipodi:docname="firefox.svg">
  <sodipodi:namedview
     pagecolor="#ffffff"
     bordercolor="#666666"
     borderopacity="1"
     objecttolerance="10"
     gridtolerance="10"
     guidetolerance="10"
     inkscape:pageopacity="0"
     inkscape:pageshadow="2"
     inkscape:window-width="1280"
     inkscape:window-height="752"
     id="namedview128"
     showgrid="false"
     inkscape:zoom="2.8284271"
     inkscape:cx="13.954262"
     inkscape:cy="70.060284"
     inkscape:window-x="0"
     inkscape:window-y="0"
     inkscape:window-maximized="1"
     inkscape:current-layer="svg2408"
     showguides="true"
     inkscape:guide-bbox="true" />
  <defs
     id="defs2410">
    <linearGradient
       x1="45.447727"
       y1="92.539597"
       x2="45.447727"
       y2="7.0165396"
       id="ButtonShadow"
       gradientUnits="userSpaceOnUse"
       gradientTransform="scale(1.0058652,0.994169)">
      <stop
         id="stop3750"
         style="stop-color:#000000;stop-opacity:1"
         offset="0" />
      <stop
         id="stop3752"
         style="stop-color:#000000;stop-opacity:0.58823532"
         offset="1" />
    </linearGradient>
    <filter
       color-interpolation-filters="sRGB"
       id="filter3174">
      <feGaussianBlur
         id="feGaussianBlur3176"
         stdDeviation="1.71" />
    </filter>
  </defs>
  <metadata
     id="metadata2413">
    <rdf:RDF>
      <cc:Work
         rdf:about="">
        <dc:format>image/svg+xml</dc:format>
        <dc:type
           rdf:resource="http://purl.org/dc/dcmitype/StillImage" />
        <dc:title />
      </cc:Work>
    </rdf:RDF>
  </metadata>
  <g
     id="layer2"
     style="display:none">
    <path
       d="M 11,7 C 7.676,7 5,9.676 5,13 l 0,33.6875 c 2.2377507,0.124029 4.660506,0.235683 5.875,0.4375 0.66093,0.10983 -0.08406,0.240848 -1.125,0.34375 C 8.7090622,47.571654 7.3545491,47.665119 6.84375,47.75 6.2216014,47.853382 5.6264179,47.903999 5,48 l 0,1.0625 c 0.3803657,0.03607 0.7183843,0.03125 0.9375,0.03125 0.80883,10e-7 1.1599727,0.215701 1.3125,0.5625 0.1525272,0.346797 0.09375,0.839723 0.09375,1.40625 0,0.424828 -0.9420178,0.663014 -1.15625,1.375 C 6.110939,52.691968 5.5510552,52.945524 5,53.1875 l 0,2.21875 c 0.7355867,0.02497 1.4332639,0.05671 1.84375,0.3125 C 7.1254716,55.894306 6.0687957,56.124098 5,56.3125 l 0,7.5625 c 1.1379643,0.180337 3.3100715,0.925679 3.96875,1.0625 1.090152,0.226446 1.224723,0.33476 0.875,0.4375 -0.3497231,0.102744 -1.173581,0.175172 -2,0.3125 C 6.8656638,65.850029 5.90816,66.141998 5,66.34375 L 5,86 c 0,3.324 2.676,6 6,6 l 13,0 c 0.0954,-0.438237 0.150955,-0.931178 0.25,-1.4375 0.140364,-0.717512 0.25498,-1.34159 0.375,-1.59375 0.03001,-0.06304 0.05815,-0.114053 0.09375,-0.125 0.106804,-0.03285 0.238198,0.191956 0.46875,0.78125 0.304338,0.777871 0.540174,1.646782 0.6875,2.375 l 0.75,0 c 0.276152,-0.493694 0.578538,-1.138496 0.8125,-1.4375 0.09907,-0.126629 0.275237,0.131501 0.53125,0.375 0.256014,0.2435 0.588904,0.486378 0.9375,0.375 0.648614,-0.207227 1.602807,-0.726227 2.03125,-1 0.139883,-0.08938 0.300164,-0.157976 0.40625,-0.1875 0.106087,-0.02952 0.174331,-0.01774 0.25,0 0.151339,0.03548 0.232196,0.144559 0.34375,0.28125 0.223098,0.27338 0.466785,0.656251 1.0625,0.65625 0.478344,0 0.657185,-0.0325 0.78125,0.0625 0.124065,0.095 0.197087,0.314551 0.40625,0.875 l 8.875,0 c -0.04778,-0.593879 1.040547,-2.151517 1.21875,-3.0625 0.19092,-0.975995 0.214078,-1.242419 0.28125,-1.0625 0.06717,0.179919 0.192504,0.793906 0.46875,1.5 0.110448,0.282298 0.213887,0.358235 0.3125,0.28125 0.09861,-0.07699 0.168895,-0.293948 0.25,-0.5625 0.162213,-0.537107 0.285649,-1.296709 0.34375,-1.59375 0.131129,-0.670335 0.128655,-1.786501 0.125,-2.28125 -9.11e-4,-0.123687 -0.0059,-0.217815 0,-0.25 0.01779,-0.09656 0.08067,0.312079 0.28125,1.59375 0.163819,1.046767 0.54767,2.687946 0.71875,3.5625 0.169798,0.867992 0.298106,1.322124 0.40625,1.875 l 28.21875,0 c 0.03877,-0.494956 0.03519,-1.098589 0.0625,-1.5 0.02049,-0.301057 0.06649,-0.487005 0.15625,-0.46875 0.02992,0.0061 0.05077,0.03882 0.09375,0.09375 0.233449,0.298339 0.630596,1.164908 0.96875,1.875 L 85,92 c 3.324,0 6,-2.676 6,-6 l 0,-7.21875 c -0.16942,0.0045 -0.290112,-4e-6 -0.5,0 -1.330307,0 -2.638456,-4e-6 -3.96875,0 -1.226564,0 -2.05394,-9.64e-4 -2.25,-0.0625 -0.19606,-0.06154 0.232972,-0.183183 1.46875,-0.5 C 86.405034,78.050819 89.092469,77.290673 91,76.875 L 91,38.46875 C 90.34725,38.202412 89.792969,37.980093 89.25,37.5625 89.107486,37.452886 88.801155,37.170028 88.28125,37 87.761349,36.829972 87.007124,36.743855 86,36.9375 c -1.533473,0.294852 -1.685602,0.283469 -1.25,0.15625 0.4356,-0.127221 1.468635,-0.381012 2.25,-0.53125 1.152717,-0.221645 2.722214,-1.204246 4,-1.84375 l 0,-4.5625 c -0.69831,-0.257978 -1.422206,-0.558272 -1.75,-1.0625 -0.209707,-0.322576 -0.321618,-0.513018 -0.3125,-0.625 0.0091,-0.111981 0.13299,-0.149124 0.25,-0.1875 0.117011,-0.03837 0.261032,-0.05449 0.375,-0.15625 0.11397,-0.101759 0.187497,-0.291619 0.1875,-0.59375 0,-0.32292 0.08246,-0.887065 0.0625,-1.40625 -0.01,-0.259593 -0.03562,-0.49724 -0.125,-0.6875 -0.08939,-0.19026 -0.219089,-0.333004 -0.4375,-0.375 -0.574572,-0.110478 -0.848143,-0.233682 -0.90625,-0.34375 -0.05811,-0.110067 0.07208,-0.18937 0.28125,-0.28125 0.418339,-0.18376 1.132532,-0.339398 1.125,-0.34375 -0.668701,-0.385725 -5.247169,-0.921226 -5,-0.96875 0.332574,-0.06395 0.667437,-0.123553 1,-0.1875 1.047644,-0.201439 2.43278,-0.309227 3.75,-0.5625 0.573261,-0.110227 0.911769,-0.250569 1.125,-0.4375 0.213229,-0.18693 0.294201,-0.423258 0.375,-0.625 L 91,13 C 91,9.676 88.324,7 85,7 L 33.625,7 C 33.72158,8.3975706 33.82658,9.959362 33.53125,9.1875 33.320827,8.6375466 33.210422,8.0499534 33,7.5 32.946762,7.3608606 32.903941,7.1705291 32.84375,7 L 30.8125,7 C 30.571803,7.4923127 30.362863,7.9708281 30.03125,8.1875 29.524321,8.5187294 29.245447,8.6821159 29,8.59375 28.754552,8.5053839 28.523162,8.1669814 28.15625,7.6875 27.992502,7.4735174 27.721718,7.2560338 27.40625,7 l -6.8125,0 -1.3125,5.5625 L 17.53125,7 17.3125,7 15.5625,15.9375 14.15625,7 11,7 z"
       inkscape:connector-curvature="0"
       id="rect3745"
       style="opacity:0.9;fill:url(#ButtonShadow);fill-opacity:1;fill-rule:nonzero;stroke:none;filter:url(#filter3174)" />
  </g>
  <rect
     y="0"
     x="0"
     height="96"
     width="96"
     id="rect6228"
     style="fill:#5599ff;fill-opacity:1;stroke:none" />
  <rect
     style="opacity:0.17194573;fill:#000000;fill-opacity:1;stroke:none"
     id="rect3878"
     width="96"
     height="2.5"
     x="0"
     y="93.5" />
  <rect
     y="0"
     x="0"
     height="2.5"
     width="96"
     id="rect3880"
     style="fill:#80b3ff;fill-opacity:1;stroke:none" />
  <path
     style="font-size:medium;font-style:normal;font-variant:normal;font-weight:normal;font-stretch:normal;text-indent:0;text-align:start;text-decoration:none;line-height:normal;letter-spacing:normal;word-spacing:normal;text-transform:none;direction:ltr;block-progression:tb;writing-mode:lr-tb;text-anchor:start;baseline-shift:baseline;opacity:0.22624434;color:#000000;fill:#073e6c;fill-opacity:1;fill-rule:nonzero;stroke:none;stroke-width:0;marker:none;visibility:visible;display:inline;overflow:visible;enable-background:accumulate;font-family:Sans;-inkscape-font-specification:Sans"
     d="m 48.311392,9.3964925 c -0.758213,0 -1.509507,0.025403 -2.246398,0.06912 -0.167806,0.010396 -0.310188,0.026078 -0.414719,0.03456 -0.0086,7.023e-4 -0.02627,-6.126e-4 -0.03456,0 -0.387412,0.028256 -0.790749,0.068169 -1.140479,0.1036799 -0.07822,0.00807 -0.260542,-0.00431 -0.587519,0.03456 a 1.2166323,1.2166323 0 0 0 -0.13824,0.03456 1.2166323,1.2166323 0 0 0 -0.10368,0.03456 c -0.31203,0.032293 -0.627646,0.046449 -1.002239,0.1036799 -1.238239,0.189199 -2.47437,0.454407 -3.663355,0.760319 -0.483719,0.124539 -0.920738,0.25257 -1.347839,0.38016 -0.02068,0.0062 -0.156504,0.02337 -0.414719,0.10368 -0.305692,0.09533 -0.594639,0.219745 -0.863999,0.311039 -0.689756,0.233413 -1.348275,0.460224 -2.004478,0.725759 -0.152585,0.06174 -0.348821,0.155578 -0.552959,0.24192 -0.482555,0.203919 -0.954383,0.403406 -1.416959,0.622079 0.0096,-0.0045 -0.07114,0.02139 -0.24192,0.10368 -0.549309,0.264703 -1.08523,0.536032 -1.624318,0.829439 -0.627723,0.340999 -1.247254,0.686928 -1.866238,1.071359 -0.611922,0.380045 -1.175507,0.787463 -1.727998,1.175039 -0.435304,0.305368 -0.818639,0.62707 -1.175038,0.898559 -0.0886,0.06745 -0.283469,0.160568 -0.5184,0.345599 -0.250824,0.197693 -0.435567,0.399037 -0.622079,0.55296 -0.420121,0.346462 -0.863652,0.697122 -1.278718,1.071358 0.04145,-0.03741 -0.07073,0.02024 -0.31104,0.24192 -0.408754,0.376616 -0.749441,0.749778 -1.071359,1.071359 -0.405055,0.405055 -0.82678,0.819501 -1.244158,1.278718 0.01746,-0.01922 -0.05598,0.07263 -0.20736,0.24192 -0.345612,0.386444 -0.665384,0.774182 -0.967679,1.140479 -0.140242,0.169955 -0.196916,0.263576 -0.20736,0.27648 -0.409746,0.506158 -0.815713,1.012218 -1.209598,1.555198 -0.07997,0.110182 -0.133511,0.145079 -0.10368,0.10368 -0.119756,0.166305 -0.227087,0.350064 -0.3456,0.518399 -1.028522,-1.006851 -1.91688,-2.050038 -2.419197,-3.836156 a 1.2166323,1.2166323 0 0 0 -1.175039,-0.863999 c -0.811866,0 -1.23136,0.498218 -1.520638,0.898559 -0.07399,0.10107 -0.172899,0.235157 -0.27648,0.41472 a 1.2166323,1.2166323 0 0 0 -0.03456,0.03456 c -0.02207,0.03863 -0.05698,0.114879 -0.13824,0.27648 -0.01062,0.02116 -0.0539,0.03812 -0.06912,0.06912 a 1.2166323,1.2166323 0 0 0 0,0.03456 c -0.340689,0.696208 -0.605349,1.498994 -0.863999,2.419198 -0.405388,1.439321 -0.729993,3.116546 -0.863999,4.803834 -0.02409,0.304047 -0.02519,0.60091 -0.03456,0.829439 -0.0081,0.19662 -0.03487,0.436886 -0.03456,0.760319 0.0017,1.044898 0.111811,2.024287 0.345599,2.903037 -0.04323,-0.165138 -0.0647,-0.08948 0.03456,0.24192 0.09428,0.310808 0.193681,0.484339 0.20736,0.518399 0.07112,0.178416 0.216082,0.366226 0.31104,0.552959 -1.4542935,3.427721 -3.8219837,9.912841 -3.7324761,15.240943 0.0031,0.173547 0.039857,0.4071 0.2073597,0.656639 0.1674992,0.24954 0.4678855,0.451629 0.6911992,0.5184 0.4466275,0.13354 0.627109,0.0069 0.7603192,-0.03456 0.2273757,-0.07075 0.313717,-0.109464 0.4147195,-0.1728 0.3199754,4.426263 1.0945525,8.695192 2.7302365,11.681266 8.688387,15.861366 22.691784,23.306085 36.011479,23.224294 11.644912,-0.07151 20.898678,-4.921317 27.613408,-10.955508 6.714731,-6.034191 10.930614,-13.223999 12.683506,-18.316779 0.06155,-0.178827 0.16815,-0.459969 0.03456,-0.863999 -0.133591,-0.404029 -0.581401,-0.708053 -0.863999,-0.794879 -0.521721,-0.160293 -0.660006,-0.05666 -0.829439,0 0.04125,-0.214677 0.107528,-0.487812 0.138239,-0.691199 1.360019,-9.007381 1.548879,-21.794702 -1.382398,-28.961247 -0.08973,-0.219394 -0.342713,-0.641179 -0.863999,-0.794879 -0.521286,-0.153699 -0.949648,0.06945 -1.140479,0.20736 -0.381661,0.275807 -0.43956,0.434591 -0.552959,0.622079 -0.0943,0.155905 -0.15668,0.349898 -0.24192,0.5184 -0.52433,-1.215199 -1.033431,-2.369636 -1.658878,-3.732476 -0.971495,-2.116874 -1.995221,-4.146002 -3.386876,-5.495034 -0.193363,-0.187442 -0.619556,-0.423802 -1.036799,-0.380159 -0.417243,0.04364 -0.692341,0.274555 -0.829439,0.414719 -0.274195,0.280329 -0.313744,0.427554 -0.380159,0.58752 -0.06415,0.154519 -0.09247,0.302051 -0.13824,0.449279 -2.603911,-1.984063 -5.517746,-3.464315 -8.77823,-4.250875 0.0034,0.0022 -0.0868,-0.02247 -0.10368,-0.03456 l 0,-0.03456 c -0.01073,-0.0025 -0.02378,0.0025 -0.03456,0 2.75e-4,1.54e-4 -0.05021,-0.01117 -0.10368,-0.03456 -0.02206,-0.01229 -0.04702,-0.02228 -0.06912,-0.03456 -0.583808,-0.32422 -1.169665,-0.66534 -1.797118,-0.967679 -0.313991,-0.151297 -0.351399,-0.153012 -0.10368,-0.03456 -0.800926,-0.382988 -1.622183,-0.744919 -2.453757,-1.071358 -0.828687,-0.325305 -1.697528,-0.6311 -2.557437,-0.898559 -0.02395,-0.0074 -0.01221,0.006 -0.03456,0 -0.550692,-0.170985 -1.09928,-0.330379 -1.693438,-0.48384 -0.100915,-0.02597 -0.189256,-0.04741 -0.27648,-0.06912 -0.394642,-0.09857 -0.82938,-0.187613 -1.244158,-0.276479 -0.07751,-0.01661 -0.175397,-0.04131 -0.31104,-0.06912 C 55.18122,10.02796 54.561947,9.9049275 53.944665,9.811212 53.282453,9.7100868 52.613318,9.6349518 51.940188,9.5692923 c -0.249,-0.024076 -0.486691,-0.048439 -0.760319,-0.06912 -0.27066,-0.020592 -0.393026,-0.00564 -0.31104,0 -0.829017,-0.056346 -1.676263,-0.1036798 -2.557437,-0.1036798 z m 0,2.4191975 c 0.788047,0 1.607285,0.04851 2.419197,0.10368 0.264436,0.0181 0.330509,0.0067 0.24192,0 0.233415,0.01764 0.505254,0.04446 0.760319,0.06912 0.629418,0.06139 1.247314,0.147406 1.866238,0.24192 0.600284,0.09114 1.160898,0.160435 1.727998,0.27648 0.07062,0.01448 0.182936,0.04167 0.311039,0.06912 0.372758,0.07986 0.722816,0.180789 1.105919,0.276479 0.09478,0.02359 0.195951,0.04841 0.27648,0.06912 0.523647,0.135249 1.078905,0.314494 1.624318,0.48384 0.02394,0.0074 0.01222,-0.0059 0.03456,0 0.799767,0.248754 1.572851,0.524335 2.350077,0.829439 0.77557,0.304454 1.567945,0.644764 2.315518,1.002239 0.312116,0.149246 0.353379,0.154878 0.103679,0.03456 0.613866,0.295791 1.212644,0.622235 1.831678,0.967679 8.3e-5,4.6e-5 0.02625,-0.0037 0.03456,0 a 1.2166323,1.2166323 0 0 0 0.10368,0.03456 c 0.03445,0.01506 0.06891,0.03449 0.06912,0.03456 a 1.2166323,1.2166323 0 0 0 0.03456,0.03456 c 0.01337,0.0037 0.0452,-0.0061 0.06912,0 0.01197,0.0031 0.02204,-0.0031 0.03456,0 0.04177,0.01349 0.01664,0.02278 0.06912,0.03456 3.538612,0.794042 6.708543,2.465687 9.400309,4.803835 0.211629,0.183826 0.643123,0.336669 1.036799,0.27648 0.393676,-0.06019 0.62859,-0.243862 0.760319,-0.38016 0.122733,-0.126989 0.120962,-0.185864 0.1728,-0.27648 0.625005,0.95088 1.269241,1.774988 1.866238,3.075837 0.931389,2.029485 1.766742,4.174064 2.557437,5.806073 0.110885,0.228869 0.42985,0.620759 0.933119,0.725759 0.503268,0.104996 0.854891,-0.108855 1.036798,-0.241919 0.342488,-0.250528 0.413453,-0.409709 0.5184,-0.58752 1.722212,6.67925 1.744987,17.390083 0.587519,25.055971 -0.101943,0.675163 -0.285695,1.469676 -0.552959,2.419198 -0.05825,0.206956 -0.120732,0.592151 0.10368,1.002239 0.224412,0.410087 0.65293,0.612594 0.898559,0.656639 0.164317,0.02946 0.175878,-0.03004 0.276479,-0.03456 -1.951874,4.476558 -5.60063,10.235434 -11.093747,15.171822 -6.371767,5.725989 -15.007857,10.265995 -25.98909,10.333428 -12.406352,0.07619 -25.553154,-6.79931 -33.868761,-21.980134 -1.542513,-2.815983 -2.495481,-7.660366 -2.661117,-12.579826 -0.0059,-0.175669 -0.03709,-0.446796 -0.20736,-0.691199 -0.170269,-0.244402 -0.471737,-0.419487 -0.691199,-0.483839 -0.438924,-0.128705 -0.627069,-0.0065 -0.760319,0.03456 0.486305,-4.50339 2.373424,-9.967522 3.525116,-12.614386 a 1.2166323,1.2166323 0 0 0 -0.13824,-1.244159 c -0.06838,-0.08564 -0.199988,-0.308951 -0.31104,-0.587519 -0.09379,-0.233541 -0.143958,-0.329894 -0.13824,-0.31104 0.05897,0.196892 0.04511,0.131567 -0.03456,-0.172799 -0.168827,-0.634576 -0.275145,-1.417798 -0.27648,-2.280958 -1.48e-4,-0.154389 0.02244,-0.397674 0.03456,-0.691199 0.01106,-0.269187 0.01861,-0.489846 0.03456,-0.691199 0.118742,-1.495091 0.429273,-3.02192 0.794879,-4.319995 0.143493,-0.510507 0.304072,-0.85073 0.449279,-1.244159 0.912546,1.624527 1.984052,2.923843 3.041277,3.905276 a 1.2166323,1.2166323 0 0 0 1.624318,0.03456 c -8.42e-4,6.87e-4 0.0317,-0.03293 0.03456,-0.03456 a 1.2166323,1.2166323 0 0 0 0.20736,-0.24192 c 0.01662,-0.02316 0.01685,-0.0069 0.03456,-0.03456 0.04658,-0.07298 0.08695,-0.179603 0.172799,-0.31104 0.28581,-0.437773 0.615972,-0.838291 0.933119,-1.278718 0.07792,-0.108137 0.06621,-0.147289 0.03456,-0.10368 0.357532,-0.492864 0.746114,-0.99892 1.140479,-1.486078 0.133721,-0.16522 0.201777,-0.269714 0.20736,-0.27648 0.309402,-0.37491 0.603886,-0.741872 0.898559,-1.071359 -0.02169,0.02425 0.05906,-0.0096 0.207359,-0.172799 0.359185,-0.395192 0.763853,-0.798413 1.175039,-1.209599 0.370045,-0.369658 0.691547,-0.715974 1.002239,-1.002239 -0.04749,0.04381 0.07485,-0.02872 0.31104,-0.24192 0.378056,-0.340866 0.736183,-0.668828 1.140478,-1.002238 0.232454,-0.191839 0.446081,-0.345123 0.62208,-0.48384 0.077,-0.06065 0.221818,-0.172426 0.449279,-0.3456 0.396747,-0.302224 0.765248,-0.590456 1.105919,-0.829439 0.550309,-0.386045 1.123923,-0.773676 1.658878,-1.105918 0.566161,-0.351625 1.126094,-0.675265 1.727998,-1.002239 0.500617,-0.27247 0.965648,-0.509533 1.486078,-0.760319 -0.01521,0.0073 0.07609,-0.02525 0.24192,-0.10368 0.440617,-0.208293 0.907181,-0.435866 1.347838,-0.622079 0.139798,-0.05913 0.28979,-0.09428 0.48384,-0.1728 0.628761,-0.25443 1.235505,-0.512319 1.866238,-0.725759 0.283963,-0.09625 0.541342,-0.162858 0.794879,-0.24192 0.01084,-0.0034 0.164993,-0.02923 0.414719,-0.10368 0.447203,-0.133595 0.874642,-0.276125 1.278719,-0.38016 1.116919,-0.28737 2.23607,-0.515359 3.386876,-0.691199 0.338503,-0.05172 0.73229,-0.08588 1.175039,-0.13824 a 1.2166323,1.2166323 0 0 0 0.138239,-0.03456 1.2166323,1.2166323 0 0 0 0.03456,0 c 0.09739,-0.0024 0.191369,-0.01139 0.41472,-0.03456 0.372117,-0.03779 0.698213,-0.0797 1.036799,-0.103679 a 1.2166323,1.2166323 0 0 0 0.03456,0 c 0.17244,-0.01273 0.280038,-0.02833 0.380159,-0.03456 0.699101,-0.04147 1.408988,-0.06912 2.108158,-0.06912 z"
     id="path4603"
     inkscape:connector-curvature="0" />
  <path
     transform="matrix(0.57661672,0,0,0.57661672,120.27399,44.955228)"
     d="m -62.225388,3.0154574 a 62.578949,62.578949 0 1 1 -125.157902,0 62.578949,62.578949 0 1 1 125.157902,0 z"
     sodipodi:ry="62.578949"
     sodipodi:rx="62.578949"
     sodipodi:cy="3.0154574"
     sodipodi:cx="-124.80434"
     id="path4578"
     style="fill:#296abd;fill-opacity:1;stroke:none"
     sodipodi:type="arc" />
  <path
     inkscape:connector-curvature="0"
     id="path4580"
     d="m 48.310669,10.601422 c -1.45685,0 -2.887468,0.09431 -4.299152,0.262144 -0.111627,0.946909 -0.345934,2.380357 0.157287,2.883576 1.000454,1.000454 2.589008,1.051101 3.495245,1.957338 0.796436,0.796437 -1.273926,0.543603 -0.978668,0.838859 0.157412,0.157413 1.900831,1.454604 1.817526,1.537908 -0.416832,0.416833 -2.094549,0.142407 -1.677717,0.559239 1.052414,1.052415 3.582684,1.17085 2.236957,2.516576 -0.329535,0.329535 1.168394,0.788944 0.838859,1.118479 -0.548823,0.548823 -1.946669,0.26895 -2.376767,0.699049 -1.801296,1.801297 2.722852,2.693059 3.355436,2.376767 0.864491,-0.432246 0.03114,-2.12829 0.279619,-2.376767 1.131846,-1.131846 1.827281,1.031775 2.376766,1.398099 0.04474,0.02983 0.344652,0.204312 0.629145,0.367 -0.299835,-1.025736 -0.139789,-3.547663 0.629144,-3.163197 1.205736,0.602868 -0.01243,1.38567 0.41943,1.817528 0.65699,0.65699 1.682693,0.144784 2.376766,0.838859 0.582828,0.582828 -1.888951,1.350481 -0.559238,2.236957 4.211178,2.807452 2.924348,-1.403927 4.613723,-0.55924 1.222372,0.611186 -0.900409,1.274998 -0.55924,1.957338 0.109497,0.218996 1.309049,0.64829 1.398099,0.559239 0.302922,-0.302921 -0.163111,-1.374796 0.13981,-1.677718 0.174176,-0.174175 3.635055,1.89924 3.635055,0.83886 0,-0.464791 1.296183,-0.798367 1.642765,-0.716526 0.01286,-0.818266 0.606655,-4.443974 0.454382,-4.596248 -1.518558,-1.518558 -0.568414,-3.482914 0.03495,-5.55744 -5.742342,-3.855845 -12.643573,-6.116679 -20.080179,-6.116679 z m 19.59085,16.270367 c -0.002,0.126486 0.0039,0.1883 0.03495,0.157286 0.08818,-0.08817 0.05804,-0.135329 -0.03495,-0.157286 z m -13.736314,-2.1321 c 0.106832,0.365484 0.272733,0.54865 0.489334,0.332049 0.03616,-0.03616 -0.220449,-0.178286 -0.489334,-0.332049 z M 42.823134,11.020852 c -11.175955,1.70765 -20.678683,8.549289 -26.004626,18.035465 0.534985,1.474279 1.248966,2.67794 1.90491,3.005911 1.75737,0.878687 11.134609,-1.325374 12.582882,-1.118478 -2.345544,-9.536353 6.657056,-3.721052 8.248779,-5.312773 0.423149,-0.423148 -0.348462,-1.888497 0.13981,-2.376767 0.299468,-0.299466 1.445718,0.791239 1.537909,0.699049 0.07514,-0.07514 -0.924211,-1.343639 -0.97867,-1.398098 -0.292783,-0.292782 3.07329,-0.282146 1.817528,-1.537908 -4.527903,-4.527908 -3.25329,-6.009438 0.751478,-9.996401 z"
     style="fill:#073e6c;fill-opacity:1;stroke:none" />
  <path
     sodipodi:nodetypes="cssssssssssssssssssssssssssssssssssssssssc"
     inkscape:connector-curvature="0"
     id="path4582"
     d="m 71.711337,39.611957 c -0.90261,-0.348342 -2.671981,0.970873 -3.215626,0.69905 -0.444357,-0.222178 -1.284844,-2.210402 -1.398099,-2.097148 -0.746384,0.746386 -2.714955,1.8402 -3.495245,0.279621 -0.574796,-1.149592 2.708735,-1.013784 2.236957,-1.957338 -1.165305,-2.33061 -2.118402,1.237033 -3.075816,0.279619 -0.886839,-0.886838 0.940558,-1.652238 0.55924,-2.796196 -0.501232,-1.503698 -1.869478,-0.33157 -2.516577,-0.978668 -0.795439,-0.795438 -0.194945,-1.705286 -1.537908,-2.376767 -3.534865,-1.767433 -0.405457,3.900702 -0.55924,4.054484 -0.590229,0.59023 -2.553332,-0.540861 -3.075816,-0.279619 -0.629584,0.314792 2.315392,1.356056 1.083236,1.972134 -3.422734,1.711367 -2.86309,-1.515032 -4.159051,-2.810994 -0.484071,-0.484069 -0.677323,1.419824 -0.41943,1.677719 0.279344,0.279344 2.741757,2.151587 2.236958,2.656386 -0.648254,0.648254 -4.522905,0.880688 -4.194295,1.537908 0.747576,1.495152 3.145821,0.908863 4.054484,1.817528 0.594078,0.594077 -1.992175,1.503069 -1.398098,2.097147 0.529346,0.529346 3.123776,0.83479 2.796196,1.817527 -0.20357,0.610714 -1.869227,1.294698 -1.537908,1.957337 0.378839,0.757677 2.673766,1.083721 2.097147,2.236959 -0.287472,0.574946 -3.774864,1.156338 -3.774864,1.537907 0,0.359142 1.387961,1.248151 1.677717,1.537908 0.751366,0.751365 -2.42714,2.046774 -1.677717,2.796196 2.505667,2.505667 -0.61269,1.484457 0.13981,2.236957 0.929499,0.9295 2.174548,0.853852 2.796196,2.097147 0.554215,1.10843 -3.296381,0.161511 -3.355436,0.27962 -0.07152,0.143047 1.202567,2.600665 2.376768,3.774865 1.418859,1.418861 2.246235,-4.464635 4.194294,-2.516576 2.789488,2.789488 -3.066944,0.148681 -0.55924,2.656387 1.181348,1.181346 3.077131,-1.258143 4.334104,-1.118479 1.127923,0.125324 4.350491,1.118479 3.215626,1.118479 -0.410413,0 3.832806,-2.265928 4.334105,-2.516577 0.210648,-0.105328 -2.495857,-1.796808 -2.796197,-2.097148 -0.634291,-0.634291 1.993722,-3.847631 2.236958,-4.334104 1.566771,-3.133543 -2.26409,-4.027352 -0.13981,-6.151631 1.726398,-1.726399 -1.209717,-1.629147 -1.817527,-2.236959 -0.566954,-0.566952 1.598763,-0.680952 1.957337,-1.398098 1.192278,-2.384556 -3.254254,0.776306 -1.957337,-1.817527 0.659934,-1.319867 1.755491,0.481466 2.376766,-0.13981 0.678251,-0.678251 0.166993,-2.12433 0.41943,-2.376767 0.790936,-0.790937 1.537908,0.743246 1.537908,-1.118479 z"
     style="fill:#073e6c;fill-opacity:1;stroke:none" />
  <path
     sodipodi:nodetypes="ccsccccsssssssssssccssssscsscssssccc"
     inkscape:connector-curvature="0"
     id="path4584"
     d="m 45.096749,31.617769 c 0,0 -8.057127,2.27379 -10.874648,-1.631198 -0.642594,-3.707267 3.410683,-8.254849 4.053276,-8.403139 0.642594,-0.148291 -8.353708,1.186325 -9.638896,5.684477 -3.06467,-0.939175 -9.688322,1.136896 -9.688322,1.136896 -1.791786,-1.883163 -3.953414,-3.132304 -4.893595,-6.475361 -1.435087,0 -4.038843,10.429779 -1.631195,13.445023 -1.38311,3.178719 -3.8931722,10.183416 -3.8068254,15.323384 0.00509,0.289479 1.8410774,-1.323985 1.8508244,-1.0346 0.169679,5.039543 1.081172,10.013866 2.796314,13.144997 8.501996,15.521094 22.084151,22.668605 34.947175,22.589618 22.626145,-0.138943 35.822628,-18.728332 39.163363,-28.434368 0.207873,-0.603948 -2.33055,0.99301 -2.176736,0.446547 0.276516,-0.982394 0.467628,-1.86295 0.580349,-2.609496 1.335018,-8.841805 1.391453,-21.68315 -1.329194,-28.334736 -0.269483,-0.658845 -1.545116,3.343895 -1.849227,2.716205 -1.505977,-3.108365 -3.430848,-8.740435 -5.718117,-10.957651 -0.32245,-0.312575 -0.652102,2.301143 -0.988798,2.008679 -5.669437,-4.924638 -13.336107,-6.956368 -22.24432,-4.680103 2.573687,0.726147 7.159488,0.907004 9.230843,1.888629 1.491866,0.707 -8.765494,2.250073 -7.303838,2.388236 7.150739,0.675923 16.97538,7.9516 19.71965,12.512011 0.375427,0.623882 -4.571707,-2.53795 -4.261223,-1.877597 2.047226,4.35413 2.728602,9.406319 2.648759,13.906813 -0.01129,0.636315 -2.772842,-2.478839 -2.620583,-1.88605 1.074786,4.184477 0.963812,11.256122 0.381279,13.007588 -0.400409,0.771962 -1.083767,2.689085 -1.732551,3.458011 -0.472317,0.559782 -1.028744,-5.797917 -1.240626,-5.042529 -3.401696,12.127494 -18.518114,16.296671 -27.129833,8.900193 4.82982,1.206868 11.77778,-5.659594 14.240703,-7.083075 1.094069,-0.63233 2.77947,-0.249928 2.268991,-2.30867 -0.441961,-1.78242 -3.627768,-4.67577 -9.984904,-0.790884 -7.92673,4.844072 -13.990427,-1.530497 -13.791037,-2.1255 0.198671,-0.592847 -0.4943,-5.981058 5.486753,-4.152139 0.840319,-1.92778 -0.69202,-5.091315 -0.69202,-5.091315 0,0 8.304279,-6.574221 6.228209,-9.638896 z"
     style="fill:#df731b;fill-opacity:1;stroke:none" />
  <path
     sodipodi:nodetypes="cccccc"
     inkscape:connector-curvature="0"
     id="path4586"
     d="m 34.189878,29.615557 c -0.05611,0.08721 -0.09275,0.18668 -0.157286,0.279619 -1.412902,4.987447 3.080491,7.95835 4.753534,11.481882 0.485122,-0.38851 8.32011,-6.782832 6.308917,-9.751735 0,0 -8.052693,2.262223 -10.870212,-1.642766 -0.02108,-0.121587 -0.02371,-0.24379 -0.03495,-0.367 z"
     style="fill:#ca4308;fill-opacity:1;stroke:none" />
  <path
     sodipodi:nodetypes="ccccccc"
     inkscape:connector-curvature="0"
     id="path4588"
     d="m 14.057265,21.926016 c -1.39306,0 -3.892368,9.82596 -1.835004,13.159599 0.989361,-2.623556 2.254433,-3.879722 2.254433,-3.879722 0,0 -0.382481,-0.450004 -1.278421,-0.230893 0.649841,-0.777751 2.055652,-1.085329 4.196951,-1.901206 0.544845,-0.28006 1.555384,-0.664097 1.555384,-0.664097 -1.791786,-1.883162 -3.953161,-3.140623 -4.893343,-6.483681 z"
     style="fill:#ca4308;fill-opacity:1;stroke:none" />
  <path
     sodipodi:nodetypes="sccccccss"
     inkscape:connector-curvature="0"
     id="path4590"
     d="m 35.063689,45.798543 c -3.534347,0.117365 -7.628096,2.927499 -7.479825,2.970958 -8.823146,9.557974 10.827051,18.666888 17.948085,16.567463 -1.502011,-0.599815 -2.91855,-1.438335 -4.194295,-2.534053 0.06373,0.01593 0.127787,0.02181 0.192239,0.03495 -5.290655,-3.454367 -7.122197,-8.130716 -7.462348,-12.338216 0.158129,-0.471875 -0.23944,-3.965918 2.603957,-4.456438 -0.05542,-0.0573 -0.107318,-0.114783 -0.13981,-0.122333 -0.468212,-0.108789 -0.963094,-0.139101 -1.468003,-0.122334 z"
     style="fill:#ca4308;fill-opacity:1;stroke:none" />
  <path
     inkscape:connector-curvature="0"
     id="path4629"
     d="m 45.235558,33.795824 c -5.411483,3.544018 -6.684035,1.780705 -9.987829,2.384638 1.155865,1.806598 2.688595,3.422229 3.525116,5.183994 0.385974,-0.309106 5.432203,-4.405943 6.462713,-7.568632 z"
     style="fill:#ffffcc;fill-opacity:1;stroke:none" />
  <path
     inkscape:connector-curvature="0"
     id="path4634"
     d="m 45.097318,31.618547 c 0,0 -0.665328,0.177059 -1.624318,0.3456 0.716162,0.646402 1.419068,1.499348 1.520638,2.453757 0.485191,-1.048814 0.617686,-2.040585 0.10368,-2.799357 z"
     style="fill:#000000;fill-opacity:1;stroke:none" />
  <path
     style="fill:#f4960b;fill-opacity:1;stroke:none"
     d="m 60.096338,14.615046 c -2.060052,0.05268 -4.23566,0.364053 -6.462712,0.933119 2.573686,0.726148 7.190714,0.919173 9.262069,1.900798 1.491866,0.707 -8.788368,2.246474 -7.326712,2.384637 7.150739,0.675924 16.989468,7.950295 19.733738,12.510706 0.375426,0.623882 -4.59592,-2.526591 -4.285435,-1.866238 2.047226,4.354131 2.74096,9.39261 2.661117,13.893104 -0.01129,0.636315 -2.778816,-2.493587 -2.626557,-1.900798 1.074786,4.184477 0.962692,11.27764 0.380159,13.029105 -0.400409,0.771963 -1.079214,2.68707 -1.727998,3.455996 -0.472317,0.559782 -1.032276,-5.801142 -1.244158,-5.045754 -2.416512,8.615183 -10.74646,13.220993 -18.455019,12.510706 -0.01126,-0.001 -0.02331,0.0011 -0.03456,0 -1.231472,0.436205 -2.469822,0.890713 -2.073598,1.105919 5.604798,3.04415 12.403193,5.462217 19.215338,5.736953 1.033138,0.04167 -6.179208,4.245567 -5.149434,4.181755 4.069151,-0.252184 10.500828,-2.601646 16.415981,-6.047993 4.609797,-5.058097 7.623534,-10.4888 8.98559,-14.446063 0.207873,-0.603948 -2.331092,0.995742 -2.177278,0.449279 0.276517,-0.982394 0.474799,-1.845451 0.58752,-2.591997 C 87.109407,45.966476 87.181758,33.120699 84.46111,26.469113 84.191628,25.810268 82.898983,29.79248 82.594872,29.16479 81.088895,26.056425 79.179748,20.426498 76.892479,18.209282 76.57003,17.896708 76.226936,20.540784 75.89024,20.24832 71.638162,16.554841 66.276496,14.457014 60.096338,14.615046 z"
     id="path4660"
     inkscape:connector-curvature="0"
     sodipodi:nodetypes="scsssssscssccssscssssssss" />
  <path
     style="fill:#f7bf09;fill-opacity:1;stroke:none"
     d="m 60.096338,14.615046 c -2.060052,0.05268 -4.23566,0.364053 -6.462712,0.933119 2.573686,0.726148 7.190714,0.919173 9.262069,1.900798 1.491866,0.707 -8.788368,2.246474 -7.326712,2.384637 7.150739,0.675924 16.989468,7.950295 19.733738,12.510706 0.375426,0.623882 -4.59592,-2.526591 -4.285435,-1.866238 2.047226,4.354131 2.74096,9.39261 2.661117,13.893104 -0.01129,0.636315 -2.778816,-2.493587 -2.626557,-1.900798 1.074786,4.184477 0.962692,11.27764 0.380159,13.029105 -0.400409,0.771963 -1.079214,2.68707 -1.727998,3.455996 -0.472317,0.559782 -1.032276,-5.801142 -1.244158,-5.045754 -0.758617,2.70457 -2.079814,5.004473 -3.801596,6.877432 -1.251672,2.465616 -2.704225,5.360019 -2.004478,5.183994 1.69481,-0.426331 4.59669,-2.427867 5.944313,-3.110396 2.597913,-1.879133 9.920564,-11.740347 12.648946,-18.731498 0.386512,-0.990395 1.101254,6.208126 1.762558,5.322233 1.269335,-1.700449 2.512105,-3.520104 3.663356,-5.425913 C 86.80129,37.418785 86.188789,30.693033 84.46111,26.469113 84.191628,25.810268 82.898983,29.79248 82.594872,29.16479 81.088895,26.056425 79.179748,20.426498 76.892479,18.209282 76.57003,17.896708 76.226936,20.540784 75.89024,20.24832 71.638162,16.554841 66.276496,14.457014 60.096338,14.615046 z"
     id="path4653"
     inkscape:connector-curvature="0"
     sodipodi:nodetypes="scsssssscsscscsscsssss" />
  <path
     style="fill:#ffe51f;fill-opacity:1;stroke:none"
     d="m 60.096338,14.615046 c -2.060052,0.05268 -4.23566,0.364053 -6.462712,0.933119 2.573686,0.726148 7.190714,0.919173 9.262069,1.900798 1.491866,0.707 -8.788368,2.246474 -7.326712,2.384637 7.150739,0.675924 16.989468,7.950295 19.733738,12.510706 1.443828,0.791647 2.787517,1.74292 4.043515,2.833917 0.336696,0.292463 0.67979,-2.351612 1.002239,-2.039038 2.287269,2.217216 4.196416,7.847143 5.702393,10.955508 0.109287,0.225576 0.353636,-0.186567 0.62208,-0.72576 C 86.749356,36.977035 86.131421,30.552781 84.46111,26.469113 84.191628,25.810268 82.898983,29.79248 82.594872,29.16479 81.088895,26.056425 79.179748,20.426498 76.892479,18.209282 76.57003,17.896708 76.226936,20.540784 75.89024,20.24832 71.638162,16.554841 66.276496,14.457014 60.096338,14.615046 z"
     id="path4650"
     inkscape:connector-curvature="0"
     sodipodi:nodetypes="scsscssscsssss" />
</svg>
