<?xml version="1.0" encoding="UTF-8" standalone="no"?>
<!-- Created with Inkscape (http://www.inkscape.org/) -->

<svg
   xmlns:dc="http://purl.org/dc/elements/1.1/"
   xmlns:cc="http://creativecommons.org/ns#"
   xmlns:rdf="http://www.w3.org/1999/02/22-rdf-syntax-ns#"
   xmlns:svg="http://www.w3.org/2000/svg"
   xmlns="http://www.w3.org/2000/svg"
   xmlns:sodipodi="http://sodipodi.sourceforge.net/DTD/sodipodi-0.dtd"
   xmlns:inkscape="http://www.inkscape.org/namespaces/inkscape"
   version="1.0"
   width="96"
   height="96"
   id="svg2408"
   inkscape:version="0.48.3.1 r9886"
   sodipodi:docname="stock-keyring.svg">
  <sodipodi:namedview
     pagecolor="#ffffff"
     bordercolor="#666666"
     borderopacity="1"
     objecttolerance="10"
     gridtolerance="10"
     guidetolerance="10"
     inkscape:pageopacity="0"
     inkscape:pageshadow="2"
     inkscape:window-width="1280"
     inkscape:window-height="752"
     id="namedview128"
     showgrid="false"
     inkscape:zoom="4"
     inkscape:cx="50.265625"
     inkscape:cy="49.43"
     inkscape:window-x="0"
     inkscape:window-y="0"
     inkscape:window-maximized="1"
     inkscape:current-layer="svg2408"
     showguides="true"
     inkscape:guide-bbox="true" />
  <defs
     id="defs2410">
    <linearGradient
       x1="45.447727"
       y1="92.539597"
       x2="45.447727"
       y2="7.0165396"
       id="ButtonShadow"
       gradientUnits="userSpaceOnUse"
       gradientTransform="scale(1.0058652,0.994169)">
      <stop
         id="stop3750"
         style="stop-color:#000000;stop-opacity:1"
         offset="0" />
      <stop
         id="stop3752"
         style="stop-color:#000000;stop-opacity:0.58823532"
         offset="1" />
    </linearGradient>
    <filter
       color-interpolation-filters="sRGB"
       id="filter3174">
      <feGaussianBlur
         id="feGaussianBlur3176"
         stdDeviation="1.71" />
    </filter>
  </defs>
  <metadata
     id="metadata2413">
    <rdf:RDF>
      <cc:Work
         rdf:about="">
        <dc:format>image/svg+xml</dc:format>
        <dc:type
           rdf:resource="http://purl.org/dc/dcmitype/StillImage" />
        <dc:title />
      </cc:Work>
    </rdf:RDF>
  </metadata>
  <g
     id="layer2"
     style="display:none">
    <path
       d="M 11,7 C 7.676,7 5,9.676 5,13 l 0,33.6875 c 2.2377507,0.124029 4.660506,0.235683 5.875,0.4375 0.66093,0.10983 -0.08406,0.240848 -1.125,0.34375 C 8.7090622,47.571654 7.3545491,47.665119 6.84375,47.75 6.2216014,47.853382 5.6264179,47.903999 5,48 l 0,1.0625 c 0.3803657,0.03607 0.7183843,0.03125 0.9375,0.03125 0.80883,10e-7 1.1599727,0.215701 1.3125,0.5625 0.1525272,0.346797 0.09375,0.839723 0.09375,1.40625 0,0.424828 -0.9420178,0.663014 -1.15625,1.375 C 6.110939,52.691968 5.5510552,52.945524 5,53.1875 l 0,2.21875 c 0.7355867,0.02497 1.4332639,0.05671 1.84375,0.3125 C 7.1254716,55.894306 6.0687957,56.124098 5,56.3125 l 0,7.5625 c 1.1379643,0.180337 3.3100715,0.925679 3.96875,1.0625 1.090152,0.226446 1.224723,0.33476 0.875,0.4375 -0.3497231,0.102744 -1.173581,0.175172 -2,0.3125 C 6.8656638,65.850029 5.90816,66.141998 5,66.34375 L 5,86 c 0,3.324 2.676,6 6,6 l 13,0 c 0.0954,-0.438237 0.150955,-0.931178 0.25,-1.4375 0.140364,-0.717512 0.25498,-1.34159 0.375,-1.59375 0.03001,-0.06304 0.05815,-0.114053 0.09375,-0.125 0.106804,-0.03285 0.238198,0.191956 0.46875,0.78125 0.304338,0.777871 0.540174,1.646782 0.6875,2.375 l 0.75,0 c 0.276152,-0.493694 0.578538,-1.138496 0.8125,-1.4375 0.09907,-0.126629 0.275237,0.131501 0.53125,0.375 0.256014,0.2435 0.588904,0.486378 0.9375,0.375 0.648614,-0.207227 1.602807,-0.726227 2.03125,-1 0.139883,-0.08938 0.300164,-0.157976 0.40625,-0.1875 0.106087,-0.02952 0.174331,-0.01774 0.25,0 0.151339,0.03548 0.232196,0.144559 0.34375,0.28125 0.223098,0.27338 0.466785,0.656251 1.0625,0.65625 0.478344,0 0.657185,-0.0325 0.78125,0.0625 0.124065,0.095 0.197087,0.314551 0.40625,0.875 l 8.875,0 c -0.04778,-0.593879 1.040547,-2.151517 1.21875,-3.0625 0.19092,-0.975995 0.214078,-1.242419 0.28125,-1.0625 0.06717,0.179919 0.192504,0.793906 0.46875,1.5 0.110448,0.282298 0.213887,0.358235 0.3125,0.28125 0.09861,-0.07699 0.168895,-0.293948 0.25,-0.5625 0.162213,-0.537107 0.285649,-1.296709 0.34375,-1.59375 0.131129,-0.670335 0.128655,-1.786501 0.125,-2.28125 -9.11e-4,-0.123687 -0.0059,-0.217815 0,-0.25 0.01779,-0.09656 0.08067,0.312079 0.28125,1.59375 0.163819,1.046767 0.54767,2.687946 0.71875,3.5625 0.169798,0.867992 0.298106,1.322124 0.40625,1.875 l 28.21875,0 c 0.03877,-0.494956 0.03519,-1.098589 0.0625,-1.5 0.02049,-0.301057 0.06649,-0.487005 0.15625,-0.46875 0.02992,0.0061 0.05077,0.03882 0.09375,0.09375 0.233449,0.298339 0.630596,1.164908 0.96875,1.875 L 85,92 c 3.324,0 6,-2.676 6,-6 l 0,-7.21875 c -0.16942,0.0045 -0.290112,-4e-6 -0.5,0 -1.330307,0 -2.638456,-4e-6 -3.96875,0 -1.226564,0 -2.05394,-9.64e-4 -2.25,-0.0625 -0.19606,-0.06154 0.232972,-0.183183 1.46875,-0.5 C 86.405034,78.050819 89.092469,77.290673 91,76.875 L 91,38.46875 C 90.34725,38.202412 89.792969,37.980093 89.25,37.5625 89.107486,37.452886 88.801155,37.170028 88.28125,37 87.761349,36.829972 87.007124,36.743855 86,36.9375 c -1.533473,0.294852 -1.685602,0.283469 -1.25,0.15625 0.4356,-0.127221 1.468635,-0.381012 2.25,-0.53125 1.152717,-0.221645 2.722214,-1.204246 4,-1.84375 l 0,-4.5625 c -0.69831,-0.257978 -1.422206,-0.558272 -1.75,-1.0625 -0.209707,-0.322576 -0.321618,-0.513018 -0.3125,-0.625 0.0091,-0.111981 0.13299,-0.149124 0.25,-0.1875 0.117011,-0.03837 0.261032,-0.05449 0.375,-0.15625 0.11397,-0.101759 0.187497,-0.291619 0.1875,-0.59375 0,-0.32292 0.08246,-0.887065 0.0625,-1.40625 -0.01,-0.259593 -0.03562,-0.49724 -0.125,-0.6875 -0.08939,-0.19026 -0.219089,-0.333004 -0.4375,-0.375 -0.574572,-0.110478 -0.848143,-0.233682 -0.90625,-0.34375 -0.05811,-0.110067 0.07208,-0.18937 0.28125,-0.28125 0.418339,-0.18376 1.132532,-0.339398 1.125,-0.34375 -0.668701,-0.385725 -5.247169,-0.921226 -5,-0.96875 0.332574,-0.06395 0.667437,-0.123553 1,-0.1875 1.047644,-0.201439 2.43278,-0.309227 3.75,-0.5625 0.573261,-0.110227 0.911769,-0.250569 1.125,-0.4375 0.213229,-0.18693 0.294201,-0.423258 0.375,-0.625 L 91,13 C 91,9.676 88.324,7 85,7 L 33.625,7 C 33.72158,8.3975706 33.82658,9.959362 33.53125,9.1875 33.320827,8.6375466 33.210422,8.0499534 33,7.5 32.946762,7.3608606 32.903941,7.1705291 32.84375,7 L 30.8125,7 C 30.571803,7.4923127 30.362863,7.9708281 30.03125,8.1875 29.524321,8.5187294 29.245447,8.6821159 29,8.59375 28.754552,8.5053839 28.523162,8.1669814 28.15625,7.6875 27.992502,7.4735174 27.721718,7.2560338 27.40625,7 l -6.8125,0 -1.3125,5.5625 L 17.53125,7 17.3125,7 15.5625,15.9375 14.15625,7 11,7 z"
       inkscape:connector-curvature="0"
       id="rect3745"
       style="opacity:0.9;fill:url(#ButtonShadow);fill-opacity:1;fill-rule:nonzero;stroke:none;filter:url(#filter3174)" />
  </g>
  <rect
     y="0"
     x="0"
     height="96"
     width="96"
     id="rect6228"
     style="fill:#214478;fill-opacity:1;stroke:none" />
  <rect
     y="0"
     x="0"
     height="2.5"
     width="96"
     id="rect3880"
     style="opacity:0.3122172;fill:#ffffff;fill-opacity:1;stroke:none" />
  <rect
     style="opacity:0.38914029;fill:#2b0000;fill-opacity:1;stroke:none"
     id="rect3878"
     width="96"
     height="2.5"
     x="0"
     y="93.5" />
  <rect
     style="fill:#afc6e9;fill-opacity:1;stroke:none"
     id="rect4533"
     width="77.316742"
     height="25.370516"
     x="9.341629"
     y="15.578441" />
  <text
     sodipodi:linespacing="125%"
     id="text3759"
     y="32.996315"
     x="15.372695"
     style="font-size:9.1985693px;font-style:normal;font-variant:normal;font-weight:normal;font-stretch:normal;line-height:125%;letter-spacing:0px;word-spacing:0px;fill:#225500;fill-opacity:1;stroke:none;font-family:Quirky Nots;-inkscape-font-specification:Quirky Nots"
     xml:space="preserve"><tspan
       style="font-style:normal;font-variant:normal;font-weight:normal;font-stretch:normal;fill:#225500;font-family:Thohir Ke Badreah;-inkscape-font-specification:Thohir Ke Badreah"
       y="32.996315"
       x="15.372695"
       id="tspan3761"
       sodipodi:role="line" /></text>
  <rect
     y="50.078442"
     x="9.341629"
     height="25.370516"
     width="77.316742"
     id="rect3833"
     style="fill:#afc6e9;fill-opacity:1;stroke:none" />
  <g
     style="font-size:23.13936424px;font-style:normal;font-variant:normal;font-weight:normal;font-stretch:normal;line-height:125%;letter-spacing:0px;word-spacing:0px;fill:#0b1728;fill-opacity:1;stroke:none;font-family:Quirky Nots;-inkscape-font-specification:Quirky Nots"
     id="text3835">
    <path
       d="m 29.363095,59.919359 -3.72851,1.954643 3.72851,1.965942 -0.858687,1.593091 -3.762406,-2.078927 0,3.88669 -1.920748,0 0,-3.88669 -3.773705,2.078927 -0.858688,-1.593091 3.773705,-1.965942 -3.773705,-1.954643 0.858688,-1.593091 3.773705,2.05633 0,-3.88669 1.920748,0 0,3.88669 3.762406,-2.05633 0.858687,1.593091"
       style="font-weight:bold;fill:#0b1728;font-family:Thohir Ke Badreah;-inkscape-font-specification:Thohir Ke Badreah Bold"
       id="path3848" />
    <path
       d="m 41.475106,59.919359 -3.72851,1.954643 3.72851,1.965942 -0.858687,1.593091 -3.762406,-2.078927 0,3.88669 -1.920748,0 0,-3.88669 -3.773705,2.078927 -0.858688,-1.593091 3.773705,-1.965942 -3.773705,-1.954643 0.858688,-1.593091 3.773705,2.05633 0,-3.88669 1.920748,0 0,3.88669 3.762406,-2.05633 0.858687,1.593091"
       style="font-weight:bold;fill:#0b1728;font-family:Thohir Ke Badreah;-inkscape-font-specification:Thohir Ke Badreah Bold"
       id="path3850" />
    <path
       d="m 53.587117,59.919359 -3.728511,1.954643 3.728511,1.965942 -0.858687,1.593091 -3.762406,-2.078927 0,3.88669 -1.920748,0 0,-3.88669 -3.773705,2.078927 -0.858688,-1.593091 3.773705,-1.965942 -3.773705,-1.954643 0.858688,-1.593091 3.773705,2.05633 0,-3.88669 1.920748,0 0,3.88669 3.762406,-2.05633 0.858687,1.593091"
       style="font-weight:bold;fill:#0b1728;font-family:Thohir Ke Badreah;-inkscape-font-specification:Thohir Ke Badreah Bold"
       id="path3852" />
    <path
       d="m 65.699128,59.919359 -3.728511,1.954643 3.728511,1.965942 -0.858687,1.593091 -3.762406,-2.078927 0,3.88669 -1.920748,0 0,-3.88669 -3.773705,2.078927 -0.858688,-1.593091 3.773705,-1.965942 -3.773705,-1.954643 0.858688,-1.593091 3.773705,2.05633 0,-3.88669 1.920748,0 0,3.88669 3.762406,-2.05633 0.858687,1.593091"
       style="font-weight:bold;fill:#0b1728;font-family:Thohir Ke Badreah;-inkscape-font-specification:Thohir Ke Badreah Bold"
       id="path3854" />
    <path
       d="m 77.811139,59.919359 -3.728511,1.954643 3.728511,1.965942 -0.858687,1.593091 -3.762407,-2.078927 0,3.88669 -1.920748,0 0,-3.88669 -3.773704,2.078927 -0.858688,-1.593091 3.773705,-1.965942 -3.773705,-1.954643 0.858688,-1.593091 3.773704,2.05633 0,-3.88669 1.920748,0 0,3.88669 3.762407,-2.05633 0.858687,1.593091"
       style="font-weight:bold;fill:#0b1728;font-family:Thohir Ke Badreah;-inkscape-font-specification:Thohir Ke Badreah Bold"
       id="path3856" />
  </g>
  <g
     style="font-size:16.33195305px;font-style:normal;font-variant:normal;font-weight:normal;font-stretch:normal;line-height:125%;letter-spacing:0px;word-spacing:0px;fill:#0b1728;fill-opacity:1;stroke:none;font-family:Quirky Nots;-inkscape-font-specification:Quirky Nots"
     id="text3839">
    <path
       d="m 30.409211,22.475208 c 1.110572,0 2.041494,0.930922 2.041494,2.057826 0,1.143235 -0.930922,2.057826 -2.041494,2.074158 l 0,0 -3.250059,0 0,-4.131984 3.250059,0 m -5.618192,14.061811 2.270142,0 0,-7.676018 3.315386,0 0,0 c 2.351799,-0.03266 4.246308,-1.959836 4.246308,-4.327967 0,-2.368131 -1.910841,-4.295304 -4.26264,-4.327968 l 0,0 -5.552864,0 0.01633,0 0.01633,2.270142 0.01633,4.131984 0.01633,2.253809 0.01633,7.676018 -0.09799,0"
       style="fill:#0b1728;font-family:Thohir Ke Badreah;-inkscape-font-specification:Thohir Ke Badreah"
       id="path3859" />
    <path
       d="m 40.090997,28.844669 1.698523,-5.111901 1.682191,5.111901 -3.380714,0 m 2.923419,-8.639603 -2.466125,0 -2.302805,7.039072 -1.812847,5.536532 0,0 -1.208564,3.756349 2.384465,0 1.763851,-5.405876 4.834258,0 1.780183,5.405876 2.368133,0 -1.486208,-4.540283 -1.567867,-4.801594 -2.270142,-6.990076 -0.01633,0"
       style="fill:#0b1728;font-family:Thohir Ke Badreah;-inkscape-font-specification:Thohir Ke Badreah"
       id="path3861" />
    <path
       d="m 53.489067,20.23773 0,0 c -2.580446,0.03266 -4.638275,2.123156 -4.638275,4.687271 0,1.731185 0.930923,3.233727 2.319137,4.050324 1.224896,0.734937 2.613114,0.506291 4.033993,0.58795 1.061576,0.179652 1.878174,1.094242 1.878174,2.221146 0,1.224895 -0.963586,2.237477 -2.188481,2.237477 l 0,0 -0.734938,0 0,0 c -1.763849,-0.01633 -3.184731,-1.486209 -3.184731,-3.250058 l -2.384465,0 c 0.01633,3.1194 2.515124,5.667187 5.634524,5.699851 l 0,0 0.767601,0 0,0 c 2.547783,-0.03266 4.621943,-2.106824 4.621943,-4.68727 0,-1.829177 -1.028914,-3.397047 -2.531453,-4.18098 -1.208563,-0.620614 -2.482458,-0.424631 -3.821677,-0.457295 -1.061576,-0.179651 -1.878174,-1.094242 -1.878174,-2.221145 0,-1.224896 0.99625,-2.221146 2.204813,-2.221146 l 0,0 0.702274,0 0,-0.01633 c 1.339219,0.03266 2.466126,0.849263 2.92342,2.00883 l 2.417129,-0.571618 C 58.878612,21.88726 56.771787,20.270394 54.289332,20.23773 l 0,0 -0.800265,0"
       style="fill:#0b1728;font-family:Thohir Ke Badreah;-inkscape-font-specification:Thohir Ke Badreah"
       id="path3863" />
    <path
       d="m 65.068168,20.23773 0,0 c -2.580446,0.03266 -4.638274,2.123156 -4.638274,4.687271 0,1.731185 0.930922,3.233727 2.319137,4.050324 1.224895,0.734937 2.613114,0.506291 4.033992,0.58795 1.061576,0.179652 1.878175,1.094242 1.878175,2.221146 0,1.224895 -0.963587,2.237477 -2.188482,2.237477 l 0,0 -0.734938,0 0,0 c -1.763849,-0.01633 -3.18473,-1.486209 -3.18473,-3.250058 l -2.384466,0 c 0.01633,3.1194 2.515124,5.667187 5.634524,5.699851 l 0,0 0.767602,0 0,0 c 2.547782,-0.03266 4.621943,-2.106824 4.621943,-4.68727 0,-1.829177 -1.028915,-3.397047 -2.531453,-4.18098 -1.208563,-0.620614 -2.482458,-0.424631 -3.821677,-0.457295 -1.061576,-0.179651 -1.878175,-1.094242 -1.878175,-2.221145 0,-1.224896 0.996251,-2.221146 2.204814,-2.221146 l 0,0 0.702274,0 0,-0.01633 c 1.339219,0.03266 2.466125,0.849263 2.92342,2.00883 l 2.417129,-0.571618 C 70.457714,21.88726 68.350888,20.270394 65.868434,20.23773 l 0,0 -0.800266,0"
       style="fill:#0b1728;font-family:Thohir Ke Badreah;-inkscape-font-specification:Thohir Ke Badreah"
       id="path3865" />
  </g>
</svg>
