<?xml version="1.0" encoding="UTF-8" standalone="no"?>
<!-- Created with Inkscape (http://www.inkscape.org/) -->

<svg
   xmlns:dc="http://purl.org/dc/elements/1.1/"
   xmlns:cc="http://creativecommons.org/ns#"
   xmlns:rdf="http://www.w3.org/1999/02/22-rdf-syntax-ns#"
   xmlns:svg="http://www.w3.org/2000/svg"
   xmlns="http://www.w3.org/2000/svg"
   xmlns:xlink="http://www.w3.org/1999/xlink"
   xmlns:sodipodi="http://sodipodi.sourceforge.net/DTD/sodipodi-0.dtd"
   xmlns:inkscape="http://www.inkscape.org/namespaces/inkscape"
   version="1.0"
   width="96"
   height="96"
   id="svg2408"
   inkscape:version="0.48.3.1 r9886"
   sodipodi:docname="geany.svg">
  <sodipodi:namedview
     pagecolor="#ffffff"
     bordercolor="#666666"
     borderopacity="1"
     objecttolerance="10"
     gridtolerance="10"
     guidetolerance="10"
     inkscape:pageopacity="0"
     inkscape:pageshadow="2"
     inkscape:window-width="1280"
     inkscape:window-height="752"
     id="namedview128"
     showgrid="false"
     inkscape:zoom="2.8284271"
     inkscape:cx="23.648093"
     inkscape:cy="35.024872"
     inkscape:window-x="0"
     inkscape:window-y="0"
     inkscape:window-maximized="1"
     inkscape:current-layer="svg2408"
     showguides="true"
     inkscape:guide-bbox="true" />
  <defs
     id="defs2410">
    <linearGradient
       x1="45.447727"
       y1="92.539597"
       x2="45.447727"
       y2="7.0165396"
       id="ButtonShadow"
       gradientUnits="userSpaceOnUse"
       gradientTransform="scale(1.0058652,0.994169)">
      <stop
         id="stop3750"
         style="stop-color:#000000;stop-opacity:1"
         offset="0" />
      <stop
         id="stop3752"
         style="stop-color:#000000;stop-opacity:0.58823532"
         offset="1" />
    </linearGradient>
    <filter
       color-interpolation-filters="sRGB"
       id="filter3174">
      <feGaussianBlur
         id="feGaussianBlur3176"
         stdDeviation="1.71" />
    </filter>
    <linearGradient
       id="linearGradient5539-3">
      <stop
         offset="0"
         style="stop-color:#000000;stop-opacity:1"
         id="stop5541" />
      <stop
         offset="1"
         style="stop-color:#000000;stop-opacity:0"
         id="stop5543-4" />
    </linearGradient>
    <linearGradient
       id="linearGradient12294">
      <stop
         offset="0"
         style="stop-color:#fef8c4;stop-opacity:1"
         id="stop12296" />
      <stop
         offset="1"
         style="stop-color:#edd400;stop-opacity:1"
         id="stop12298" />
    </linearGradient>
    <linearGradient
       id="linearGradient14664">
      <stop
         offset="0"
         style="stop-color:#ffffff;stop-opacity:1"
         id="stop14666" />
      <stop
         offset="1"
         style="stop-color:#eeeeec;stop-opacity:1"
         id="stop14668" />
    </linearGradient>
    <radialGradient
       inkscape:collect="always"
       xlink:href="#linearGradient5539-3"
       id="radialGradient5200"
       gradientUnits="userSpaceOnUse"
       gradientTransform="matrix(1.0206673,0,0,0.35086078,24.070142,70.499258)"
       cx="23.5"
       cy="19.5"
       fx="23.5"
       fy="19.5"
       r="14.5" />
    <linearGradient
       inkscape:collect="always"
       xlink:href="#linearGradient12294"
       id="linearGradient5202"
       gradientUnits="userSpaceOnUse"
       gradientTransform="matrix(4.1624092,0,0,1.8498332,-53.691958,5.4623075)"
       x1="21"
       y1="37.6782"
       x2="42.230766"
       y2="54.179626" />
    <radialGradient
       inkscape:collect="always"
       xlink:href="#linearGradient14664"
       id="radialGradient5204"
       gradientUnits="userSpaceOnUse"
       gradientTransform="matrix(1.761757,3.5235135,-4.3703815,2.1851905,80.34699,-40.364448)"
       cx="3.5"
       cy="16.969122"
       fx="3.5"
       fy="16.969122"
       r="3.0477226" />
    <radialGradient
       inkscape:collect="always"
       xlink:href="#linearGradient14664"
       id="radialGradient5206"
       gradientUnits="userSpaceOnUse"
       gradientTransform="matrix(0.97875392,1.9575076,-2.4279897,1.2139948,49.756826,-0.2734843)"
       cx="3.5"
       cy="16.969122"
       fx="3.5"
       fy="16.969122"
       r="3.0477226" />
    <radialGradient
       inkscape:collect="always"
       xlink:href="#linearGradient14664"
       id="radialGradient5208"
       gradientUnits="userSpaceOnUse"
       gradientTransform="matrix(1.3702554,2.7405103,-3.3991856,1.6995925,62.276968,-19.39398)"
       cx="3.5"
       cy="16.969122"
       fx="3.5"
       fy="16.969122"
       r="3.0477226" />
    <radialGradient
       inkscape:collect="always"
       xlink:href="#linearGradient14664"
       id="radialGradient5210"
       gradientUnits="userSpaceOnUse"
       gradientTransform="matrix(0.78300311,1.566006,-1.9423918,0.97119581,39.796835,12.061708)"
       cx="3.5"
       cy="16.969122"
       fx="3.5"
       fy="16.969122"
       r="3.0477226" />
  </defs>
  <metadata
     id="metadata2413">
    <rdf:RDF>
      <cc:Work
         rdf:about="">
        <dc:format>image/svg+xml</dc:format>
        <dc:type
           rdf:resource="http://purl.org/dc/dcmitype/StillImage" />
        <dc:title />
      </cc:Work>
    </rdf:RDF>
  </metadata>
  <g
     id="layer2"
     style="display:none">
    <path
       d="M 11,7 C 7.676,7 5,9.676 5,13 l 0,33.6875 c 2.2377507,0.124029 4.660506,0.235683 5.875,0.4375 0.66093,0.10983 -0.08406,0.240848 -1.125,0.34375 C 8.7090622,47.571654 7.3545491,47.665119 6.84375,47.75 6.2216014,47.853382 5.6264179,47.903999 5,48 l 0,1.0625 c 0.3803657,0.03607 0.7183843,0.03125 0.9375,0.03125 0.80883,10e-7 1.1599727,0.215701 1.3125,0.5625 0.1525272,0.346797 0.09375,0.839723 0.09375,1.40625 0,0.424828 -0.9420178,0.663014 -1.15625,1.375 C 6.110939,52.691968 5.5510552,52.945524 5,53.1875 l 0,2.21875 c 0.7355867,0.02497 1.4332639,0.05671 1.84375,0.3125 C 7.1254716,55.894306 6.0687957,56.124098 5,56.3125 l 0,7.5625 c 1.1379643,0.180337 3.3100715,0.925679 3.96875,1.0625 1.090152,0.226446 1.224723,0.33476 0.875,0.4375 -0.3497231,0.102744 -1.173581,0.175172 -2,0.3125 C 6.8656638,65.850029 5.90816,66.141998 5,66.34375 L 5,86 c 0,3.324 2.676,6 6,6 l 13,0 c 0.0954,-0.438237 0.150955,-0.931178 0.25,-1.4375 0.140364,-0.717512 0.25498,-1.34159 0.375,-1.59375 0.03001,-0.06304 0.05815,-0.114053 0.09375,-0.125 0.106804,-0.03285 0.238198,0.191956 0.46875,0.78125 0.304338,0.777871 0.540174,1.646782 0.6875,2.375 l 0.75,0 c 0.276152,-0.493694 0.578538,-1.138496 0.8125,-1.4375 0.09907,-0.126629 0.275237,0.131501 0.53125,0.375 0.256014,0.2435 0.588904,0.486378 0.9375,0.375 0.648614,-0.207227 1.602807,-0.726227 2.03125,-1 0.139883,-0.08938 0.300164,-0.157976 0.40625,-0.1875 0.106087,-0.02952 0.174331,-0.01774 0.25,0 0.151339,0.03548 0.232196,0.144559 0.34375,0.28125 0.223098,0.27338 0.466785,0.656251 1.0625,0.65625 0.478344,0 0.657185,-0.0325 0.78125,0.0625 0.124065,0.095 0.197087,0.314551 0.40625,0.875 l 8.875,0 c -0.04778,-0.593879 1.040547,-2.151517 1.21875,-3.0625 0.19092,-0.975995 0.214078,-1.242419 0.28125,-1.0625 0.06717,0.179919 0.192504,0.793906 0.46875,1.5 0.110448,0.282298 0.213887,0.358235 0.3125,0.28125 0.09861,-0.07699 0.168895,-0.293948 0.25,-0.5625 0.162213,-0.537107 0.285649,-1.296709 0.34375,-1.59375 0.131129,-0.670335 0.128655,-1.786501 0.125,-2.28125 -9.11e-4,-0.123687 -0.0059,-0.217815 0,-0.25 0.01779,-0.09656 0.08067,0.312079 0.28125,1.59375 0.163819,1.046767 0.54767,2.687946 0.71875,3.5625 0.169798,0.867992 0.298106,1.322124 0.40625,1.875 l 28.21875,0 c 0.03877,-0.494956 0.03519,-1.098589 0.0625,-1.5 0.02049,-0.301057 0.06649,-0.487005 0.15625,-0.46875 0.02992,0.0061 0.05077,0.03882 0.09375,0.09375 0.233449,0.298339 0.630596,1.164908 0.96875,1.875 L 85,92 c 3.324,0 6,-2.676 6,-6 l 0,-7.21875 c -0.16942,0.0045 -0.290112,-4e-6 -0.5,0 -1.330307,0 -2.638456,-4e-6 -3.96875,0 -1.226564,0 -2.05394,-9.64e-4 -2.25,-0.0625 -0.19606,-0.06154 0.232972,-0.183183 1.46875,-0.5 C 86.405034,78.050819 89.092469,77.290673 91,76.875 L 91,38.46875 C 90.34725,38.202412 89.792969,37.980093 89.25,37.5625 89.107486,37.452886 88.801155,37.170028 88.28125,37 87.761349,36.829972 87.007124,36.743855 86,36.9375 c -1.533473,0.294852 -1.685602,0.283469 -1.25,0.15625 0.4356,-0.127221 1.468635,-0.381012 2.25,-0.53125 1.152717,-0.221645 2.722214,-1.204246 4,-1.84375 l 0,-4.5625 c -0.69831,-0.257978 -1.422206,-0.558272 -1.75,-1.0625 -0.209707,-0.322576 -0.321618,-0.513018 -0.3125,-0.625 0.0091,-0.111981 0.13299,-0.149124 0.25,-0.1875 0.117011,-0.03837 0.261032,-0.05449 0.375,-0.15625 0.11397,-0.101759 0.187497,-0.291619 0.1875,-0.59375 0,-0.32292 0.08246,-0.887065 0.0625,-1.40625 -0.01,-0.259593 -0.03562,-0.49724 -0.125,-0.6875 -0.08939,-0.19026 -0.219089,-0.333004 -0.4375,-0.375 -0.574572,-0.110478 -0.848143,-0.233682 -0.90625,-0.34375 -0.05811,-0.110067 0.07208,-0.18937 0.28125,-0.28125 0.418339,-0.18376 1.132532,-0.339398 1.125,-0.34375 -0.668701,-0.385725 -5.247169,-0.921226 -5,-0.96875 0.332574,-0.06395 0.667437,-0.123553 1,-0.1875 1.047644,-0.201439 2.43278,-0.309227 3.75,-0.5625 0.573261,-0.110227 0.911769,-0.250569 1.125,-0.4375 0.213229,-0.18693 0.294201,-0.423258 0.375,-0.625 L 91,13 C 91,9.676 88.324,7 85,7 L 33.625,7 C 33.72158,8.3975706 33.82658,9.959362 33.53125,9.1875 33.320827,8.6375466 33.210422,8.0499534 33,7.5 32.946762,7.3608606 32.903941,7.1705291 32.84375,7 L 30.8125,7 C 30.571803,7.4923127 30.362863,7.9708281 30.03125,8.1875 29.524321,8.5187294 29.245447,8.6821159 29,8.59375 28.754552,8.5053839 28.523162,8.1669814 28.15625,7.6875 27.992502,7.4735174 27.721718,7.2560338 27.40625,7 l -6.8125,0 -1.3125,5.5625 L 17.53125,7 17.3125,7 15.5625,15.9375 14.15625,7 11,7 z"
       inkscape:connector-curvature="0"
       id="rect3745"
       style="opacity:0.9;fill:url(#ButtonShadow);fill-opacity:1;fill-rule:nonzero;stroke:none;filter:url(#filter3174)" />
  </g>
  <rect
     y="0"
     x="0"
     height="96"
     width="96"
     id="rect6228"
     style="fill:#2c89a0;fill-opacity:1;stroke:none" />
  <rect
     y="0"
     x="0"
     height="2.5"
     width="96"
     id="rect3880"
     style="opacity:0.3122172;fill:#ffffff;fill-opacity:1;stroke:none" />
  <rect
     style="opacity:0.38914029;fill:#164450;fill-opacity:1;stroke:none"
     id="rect3878"
     width="96"
     height="2.5"
     x="0"
     y="93.5" />
  <g
     id="g5157"
     transform="translate(0.71800881,3.0083821)">
    <path
       style="font-size:medium;font-style:normal;font-variant:normal;font-weight:normal;font-stretch:normal;text-indent:0;text-align:start;text-decoration:none;line-height:normal;letter-spacing:normal;word-spacing:normal;text-transform:none;direction:ltr;block-progression:tb;writing-mode:lr-tb;text-anchor:start;baseline-shift:baseline;opacity:0.28506787;color:#000000;fill:#1e5d6d;fill-opacity:1;stroke:none;stroke-width:2.33999991;marker:none;visibility:visible;display:inline;overflow:visible;enable-background:accumulate;font-family:Sans;-inkscape-font-specification:Sans"
       d="m 77.71875,21.1875 c -2.26528,0.0056 -4.34493,0.583905 -6.09375,1.59375 -0.538741,0.311032 -0.984771,0.662684 -1.40625,1 -2.193127,1.762782 -3.692598,4.286474 -4.34375,7.1875 -3.243044,-2.017682 -7.49573,-3.459886 -12.34375,-4.25 -0.116958,-0.353768 -0.186013,-0.717069 -0.375,-1.03125 -0.09615,-0.162457 -0.193546,-0.310236 -0.3125,-0.46875 a 1.170117,1.170117 0 0 0 0,-0.03125 c -0.265568,-0.349047 -0.561885,-0.635281 -0.875,-0.90625 -0.801779,-0.694043 -1.80045,-1.2286 -2.90625,-1.5625 -0.87225,-0.263667 -1.827254,-0.40625 -2.84375,-0.40625 -1.016498,0 -1.994407,0.140061 -2.875,0.40625 -1.320499,0.398729 -2.474554,1.049518 -3.34375,1.96875 -2.1e-5,2.1e-5 0.0019,0.02851 0,0.03125 -0.0095,0.01398 -0.05722,0.04006 -0.09375,0.09375 -0.08199,0.08309 -0.181699,0.171692 -0.3125,0.34375 -0.184586,0.237814 -0.210957,0.308545 -0.125,0.1875 a 1.170117,1.170117 0 0 0 0,0.03125 c 0.02109,-0.03028 -0.06367,0.05047 -0.21875,0.3125 -0.155998,0.25934 -0.207723,0.561937 -0.3125,0.84375 -5.316415,0.717251 -10.048717,2.187496 -13.5625,4.34375 -0.0075,0.0046 -0.02374,-0.0046 -0.03125,0 l 0,0.03125 c -0.01193,0.0081 -0.02043,-0.0078 -0.03125,0 -0.212195,0.131185 -0.372398,0.259798 -0.5,0.34375 -0.792173,0.519056 -1.521598,1.057564 -2.1875,1.65625 -0.707447,0.639464 -1.341746,1.322927 -1.875,2.0625 0.213945,-0.292391 0.201457,-0.291564 -0.03125,0.03125 -0.469781,0.657358 -0.871085,1.354789 -1.15625,2.0625 -0.0092,0.02296 0.0078,0.0098 0,0.03125 -0.01306,0.03276 -0.03005,0.100665 -0.0625,0.1875 -0.229044,0.607225 -0.419459,1.260812 -0.5,1.96875 -0.02985,0.272874 -0.02229,0.286967 0,0.0625 -0.02692,0.251783 -0.02179,0.255415 0,0.03125 -0.02389,0.250754 -0.03125,0.52713 -0.03125,0.78125 0,0.229893 -0.02021,0.800234 -0.03125,1.21875 -5.86e-4,0.0036 0.0043,0.02202 0,0.125 a 1.170117,1.170117 0 0 0 0,0.03125 1.170117,1.170117 0 0 0 0,0.09375 c 0.0015,0.02452 -0.0039,0.03285 0,0.0625 0.0013,0.01231 -0.0018,0.01796 0,0.03125 a 1.170117,1.170117 0 0 0 0,0.03125 c -3.83e-4,0.281647 0.0045,0.51936 0,0.84375 -0.03963,1.580117 0.058,3.85911 0.1875,6.125 -0.04424,-0.03486 -0.07905,-0.05599 -0.125,-0.09375 0.156719,0.129225 0.143628,0.114998 -0.03125,-0.03125 -0.15351,-0.12793 -0.306437,-0.266979 -0.4375,-0.40625 -0.108436,-0.115782 -0.139838,-0.145928 -0.09375,-0.09375 0.04766,0.05376 0.02246,-0.01898 -0.15625,-0.25 -0.105052,-0.134951 -0.143482,-0.184757 -0.125,-0.15625 -0.106244,-0.1499 -0.20765,-0.308219 -0.28125,-0.4375 a 1.170117,1.170117 0 0 0 -0.03125,0 C 17.73984,47.037679 17.741122,47.026753 17.8125,47.15625 17.75901,47.05853 17.677855,46.90784 17.59375,46.71875 17.409676,46.306226 17.377689,46.267011 17.53125,46.625 17.153125,45.740154 16.962725,44.699928 16.8125,43.4375 a 1.170117,1.170117 0 0 0 0,-0.03125 c -0.0011,-0.0097 0.0011,-0.02152 0,-0.03125 -0.06924,-0.589457 -0.130229,-1.240234 -0.1875,-1.875 0.453277,-0.432712 0.807127,-0.967557 0.8125,-1.65625 0,-1.194428 -0.868652,-1.903076 -1.75,-2.34375 -0.881348,-0.440674 -1.946852,-0.6875 -3.09375,-0.6875 -1.146898,0 -2.243652,0.246826 -3.125,0.6875 -0.8813478,0.440674 -1.75,1.149322 -1.75,2.34375 0.011334,0.925611 0.6059256,1.53593 1.3125,2 0.051835,0.477585 0.1000431,0.967208 0.15625,1.40625 -0.03484,-0.271391 -0.042876,-0.23936 0,0.09375 0.3350437,2.570898 0.869661,5.003445 1.625,7.3125 0.0057,0.01945 -0.0069,0.01055 0,0.03125 2.296534,7.001742 6.436352,12.735799 11.625,17 0.855165,0.703047 1.753213,1.394031 2.6875,2.03125 0.724513,0.493981 1.525234,0.8695 2.28125,1.3125 -2.131423,0.555723 -4.070434,1.1817 -5.53125,1.9375 -1.048369,0.542407 -1.91052,1.13588 -2.5625,1.84375 -0.65198,0.70787 -1.09375,1.572727 -1.09375,2.53125 0,1.588016 1.102142,2.840703 2.625,3.8125 1.522858,0.971797 3.591447,1.762493 6.09375,2.4375 5.004606,1.350014 11.792423,2.15625 19.28125,2.15625 7.488828,0 14.252905,-0.806092 19.25,-2.15625 2.498547,-0.675079 4.573703,-1.465402 6.09375,-2.4375 1.520047,-0.972098 2.625,-2.226003 2.625,-3.8125 0,-1.030265 -0.4836,-1.973833 -1.21875,-2.71875 C 72.2336,73.880083 71.250236,73.256388 70.0625,72.6875 68.232024,71.810759 65.748347,71.123698 63,70.53125 c 0.217977,-0.192037 0.442223,-0.357767 0.65625,-0.5625 0.319907,-0.07922 0.650134,-0.139532 1,-0.21875 0.649944,-0.14721 1.368203,-0.295929 2.09375,-0.4375 0.324194,-0.0633 0.351679,-0.08155 0.09375,-0.03125 0.838571,-0.163155 1.782744,-0.333018 2.6875,-0.5 C 70.023866,68.690717 70.524755,68.58915 71,68.5 c 0.386191,-0.07305 0.732978,-0.154289 1.0625,-0.21875 0.581741,-0.112858 1.200379,-0.207407 1.84375,-0.34375 0.332786,-0.07103 0.661546,-0.141933 1,-0.21875 0.240358,-0.05427 0.419099,-0.137372 0.5,-0.15625 0.431082,-0.100695 0.85295,-0.193934 1.3125,-0.3125 a 1.170117,1.170117 0 0 0 0.09375,0 c 0.09682,-0.0324 0.05672,-0.05544 0.125,-0.09375 0.930329,-0.244141 1.878414,-0.508629 2.78125,-0.8125 1.402607,-0.47461 2.786631,-1.002108 4.0625,-1.6875 0.615781,-0.330289 1.217273,-0.677164 1.8125,-1.09375 0.580202,-0.406518 1.149478,-0.86573 1.65625,-1.34375 2.040584,-1.923422 3.396274,-4.525705 3.65625,-7.8125 a 1.170117,1.170117 0 0 0 0,-0.09375 l 0,-17.25 0,-2.84375 c 0,-4.508493 -2.27281,-8.474663 -5.78125,-10.8125 -2.106868,-1.402143 -4.672791,-2.21875 -7.40625,-2.21875 z m 0,2.3125 c 2.262819,0 4.361216,0.690731 6.09375,1.84375 2.886746,1.923573 4.78125,5.156735 4.78125,8.875 l 0,2.84375 0,17.15625 c -0.218026,2.756439 -1.29878,4.738412 -2.96875,6.3125 -0.421248,0.397348 -0.851788,0.749058 -1.34375,1.09375 -0.476499,0.33349 -1.048145,0.659341 -1.625,0.96875 -1.110357,0.59648 -2.359249,1.11305 -3.6875,1.5625 -0.895606,0.301438 -1.827739,0.565761 -2.78125,0.8125 A 1.170117,1.170117 0 0 0 76.0625,65 l 0,0.03125 c -0.0093,0.0024 -0.02194,-0.0023 -0.03125,0 -0.01863,0.0047 -0.04379,-0.0047 -0.0625,0 A 1.170117,1.170117 0 0 0 75.9375,65.0625 c -0.346176,0.08558 -0.72248,0.163276 -1.09375,0.25 -0.234511,0.05472 -0.361802,0.07666 -0.4375,0.09375 -0.32208,0.0731 -0.670946,0.148518 -1,0.21875 -0.572449,0.121313 -1.153695,0.222004 -1.78125,0.34375 -0.384048,0.07513 -0.741005,0.157939 -1.0625,0.21875 -0.498223,0.09346 -1.005546,0.196123 -1.46875,0.28125 -0.897322,0.16561 -1.824859,0.332161 -2.6875,0.5 C 66.082581,67.03187 66.053866,67.0505 66.3125,67 c -0.729123,0.142269 -1.461144,0.28006 -2.15625,0.4375 -0.450504,0.102004 -0.899515,0.227644 -1.34375,0.34375 a 1.170117,1.170117 0 0 0 -0.53125,0.28125 c -0.665118,0.656948 -1.350817,1.251836 -2.0625,1.78125 -0.290413,0.216916 -0.299107,0.231143 -0.03125,0.03125 -0.114222,0.08459 -0.274585,0.177371 -0.46875,0.3125 a 1.170117,1.170117 0 0 0 0.46875,2.125 c 3.722464,0.630102 6.787908,1.515316 8.84375,2.5 1.027921,0.492342 1.797611,1.010351 2.25,1.46875 0.452389,0.458399 0.59375,0.792332 0.59375,1.0625 0,0.419424 -0.400059,1.080363 -1.59375,1.84375 -1.193691,0.763387 -3.052557,1.520309 -5.40625,2.15625 -4.707386,1.271882 -11.338001,2.09375 -18.65625,2.09375 -7.318248,0 -13.94075,-0.821724 -18.65625,-2.09375 -2.35775,-0.636013 -4.240761,-1.392562 -5.4375,-2.15625 -1.196739,-0.763688 -1.59375,-1.425845 -1.59375,-1.84375 0,-0.24949 0.118985,-0.555073 0.5,-0.96875 0.381015,-0.413677 1.018848,-0.884625 1.90625,-1.34375 1.774803,-0.918251 4.469183,-1.759169 7.75,-2.40625 a 1.170117,1.170117 0 0 0 0.28125,-2.21875 c -1.573127,-0.764555 -3.082989,-1.63756 -4.53125,-2.625 -0.853365,-0.582027 -1.677765,-1.230277 -2.5,-1.90625 -4.864426,-3.997745 -8.719248,-9.36498 -10.875,-15.9375 -0.0056,-0.01934 0.0068,-0.01067 0,-0.03125 -0.709451,-2.168775 -1.245578,-4.443154 -1.5625,-6.875 0.03508,0.27251 0.04264,0.238401 0,-0.09375 -0.07968,-0.622362 -0.170121,-1.227023 -0.21875,-1.8125 a 1.170117,1.170117 0 0 0 -0.6875,-0.96875 c -0.541515,-0.239234 -0.564621,-0.485748 -0.5625,-0.3125 0,0.224952 0.01452,-0.0073 0.5,-0.25 0.485477,-0.242738 1.239196,-0.4375 2.03125,-0.4375 0.792054,0 1.577023,0.194762 2.0625,0.4375 0.485477,0.242738 0.5,0.474952 0.5,0.25 0.0011,-0.135064 0.02729,-0.01335 -0.3125,0.1875 A 1.170117,1.170117 0 0 0 14.25,41.125 c 0.06975,0.870213 0.155855,1.732525 0.25,2.53125 a 1.170117,1.170117 0 0 0 0,0.03125 c 0.0012,0.01026 -0.0012,0.021 0,0.03125 0.159242,1.330116 0.387062,2.628803 0.90625,3.84375 0.182361,0.425129 0.216874,0.439714 0.0625,0.09375 0.07339,0.164994 0.150283,0.385757 0.28125,0.625 0.107338,0.194737 0.1606,0.241491 0.09375,0.125 l -0.03125,0 c 0.131038,0.230175 0.27263,0.436474 0.40625,0.625 a 1.170117,1.170117 0 0 0 0.03125,0 c 0.130101,0.18158 0.175155,0.243035 0.15625,0.21875 -0.01814,-0.02345 0.05741,0.122497 0.28125,0.375 0.121608,0.137678 0.186166,0.188192 0.15625,0.15625 0.195277,0.207507 0.397696,0.404324 0.625,0.59375 -0.152278,-0.127348 -0.148269,-0.116775 0.03125,0.03125 0.138729,0.114006 0.318172,0.248232 0.5,0.375 0.343535,0.238525 0.67131,0.396417 1,0.5625 0.137933,0.06989 0.365941,0.222246 0.65625,0.34375 0.142174,0.0595 0.235049,0.07595 0.28125,0.09375 A 1.170117,1.170117 0 0 0 21.5,50.5625 c -0.338054,-3.238897 -0.302928,-5.82691 -0.25,-7.9375 0.0056,-0.410066 -0.0017,-0.655436 0,-0.9375 -3.51e-4,0.0022 -0.004,-0.02738 0,-0.125 a 1.170117,1.170117 0 0 0 0,-0.03125 c 6.09e-4,-0.02739 0.0026,-0.05621 0,-0.09375 a 1.170117,1.170117 0 0 0 0,-0.0625 c -0.0011,-0.0077 0.0021,-0.02153 0,-0.03125 -0.001,-0.0077 0.002,-0.02148 0,-0.03125 0.01091,-0.393177 0.03125,-0.884016 0.03125,-1.1875 0,-0.172414 0.01498,-0.360544 0.03125,-0.53125 0.02379,-0.244745 0.02472,-0.262453 0,-0.03125 0.02629,-0.264747 0.02545,-0.295154 0,-0.0625 0.05023,-0.441488 0.187532,-0.909247 0.375,-1.40625 0.006,-0.01598 0.03476,-0.05538 0.0625,-0.125 0.0092,-0.02304 -0.0078,-0.0097 0,-0.03125 0.214193,-0.531575 0.479017,-1.052134 0.84375,-1.5625 -0.216127,0.299814 -0.199495,0.284101 0.03125,-0.03125 0.407988,-0.565839 0.945565,-1.12985 1.5625,-1.6875 0.552266,-0.49652 1.221057,-0.999314 1.9375,-1.46875 0.188652,-0.12412 0.321381,-0.209463 0.4375,-0.28125 0.02692,-0.01657 0.0087,-0.01579 0.03125,-0.03125 3.291858,-2.025448 7.935374,-3.547831 13.3125,-4.1875 a 1.170117,1.170117 0 0 0 1.03125,-0.96875 c 0.05077,-0.296155 0.146103,-0.567122 0.3125,-0.84375 -0.04237,0.07159 0.03696,-0.03303 0.125,-0.15625 l 0.03125,0 c 0.01199,-0.01699 -0.01365,-0.01165 0,-0.03125 0.08093,-0.11774 0.148857,-0.205009 0.0625,-0.09375 0.02118,-0.02786 0.07838,-0.100025 0.21875,-0.25 1.9e-5,-2.1e-5 -0.0017,-0.02868 0,-0.03125 -3.5e-5,3.6e-5 0.02621,-0.02382 0.03125,-0.03125 0.525617,-0.544389 1.327004,-1.014926 2.3125,-1.3125 0.668517,-0.202081 1.416936,-0.34375 2.1875,-0.34375 0.770562,0 1.47939,0.139147 2.15625,0.34375 0.829036,0.25033 1.515179,0.615773 2.03125,1.0625 0.20888,0.180764 0.429077,0.390196 0.5625,0.5625 0.0052,0.0069 -0.005,0.02446 0,0.03125 0.06017,0.08153 0.133674,0.159052 0.1875,0.25 0.192025,0.319232 0.30437,0.649499 0.34375,0.96875 a 1.170117,1.170117 0 0 0 1,1 c 5.660426,0.826394 10.451252,2.653751 13.53125,4.96875 A 1.170117,1.170117 0 0 0 67.875,32.96875 c 0.02202,-0.239165 0.01959,-0.23313 0,-0.03125 a 1.170117,1.170117 0 0 0 0,-0.03125 c 0.308084,-3.042208 1.685103,-5.627668 3.78125,-7.3125 0.388453,-0.310886 0.787831,-0.5998 1.15625,-0.8125 1.395216,-0.805659 3.033044,-1.276633 4.90625,-1.28125 z m -1.8125,3.1875 c -0.64164,0 -1.239944,0.07702 -1.84375,0.1875 -0.0049,-4.94e-4 -0.112704,-0.01304 -0.34375,0.03125 -0.02085,0.004 -0.0082,-0.0053 -0.03125,0 a 1.170117,1.170117 0 0 0 -0.03125,0 C 72.287021,27.230276 71.141814,27.889224 70.25,28.75 c -0.18253,0.178181 -0.402944,0.40966 -0.625,0.6875 -0.40473,0.504868 -0.733191,1.047195 -1,1.59375 -0.129997,0.266772 -0.254562,0.555994 -0.375,0.875 -0.312001,0.825505 -0.538927,1.703355 -0.6875,2.625 A 1.170117,1.170117 0 0 0 67.84375,35.5 c 0.249557,0.273431 0.454042,0.48477 0.5625,0.625 0.03806,0.04953 0.09206,0.08091 0.125,0.125 0.03294,0.06036 0.06235,0.124799 0.0625,0.125 0.384805,0.536567 0.670023,1.053797 0.875,1.5625 0.232549,0.569967 0.389086,1.152429 0.4375,1.75 0.01438,0.186975 0.03125,0.347574 0.03125,0.4375 0,0.331883 0.02191,0.88075 0.03125,1.21875 0.05771,2.083138 0.170675,5.170497 -0.21875,9.03125 -0.02229,0.222149 -0.02332,0.365603 -0.03125,0.4375 -0.08469,0.7653 -0.206386,1.533418 -0.34375,2.34375 -0.01925,0.114457 -0.07542,0.292996 -0.125,0.5625 -0.07726,0.417561 -0.143441,0.810676 -0.21875,1.15625 -0.06225,0.28691 -0.128275,0.602746 -0.21875,0.96875 -0.07359,0.296816 -0.129603,0.537805 -0.1875,0.75 -0.0509,0.187378 -0.105562,0.387851 -0.15625,0.5625 -0.124718,0.428144 -0.218002,0.812524 -0.34375,1.1875 -0.140835,0.420229 -0.344365,0.864471 -0.53125,1.34375 -0.06064,0.155535 -0.114062,0.302539 -0.15625,0.40625 -0.116872,0.287434 -0.23671,0.597455 -0.375,0.90625 -0.388689,0.866739 -0.784614,1.703189 -1.25,2.5 -0.317703,0.543955 -0.662907,1.074828 -1,1.5625 A 1.170117,1.170117 0 0 0 66,66.875 c 0.07879,-0.01477 0.138373,-0.02791 0.15625,-0.03125 3.409446,-0.634578 8.32431,-1.386872 12.59375,-3.125 2.13472,-0.869064 4.116781,-1.995303 5.65625,-3.53125 1.539469,-1.535947 2.61729,-3.535504 2.8125,-5.9375 a 1.170117,1.170117 0 0 0 0,-0.09375 l 0,-16.5625 c 0,-0.008 5e-5,-0.01577 0,-0.03125 0,-0.399644 -0.02944,-0.768196 -0.0625,-1.09375 0.02499,0.235367 0.02725,0.225137 0,-0.03125 C 87.116239,36.055946 87.06729,35.698043 87,35.375 c 0.101073,0.477451 0.10574,0.467239 0,-0.03125 -0.07851,-0.370848 -0.182341,-0.689812 -0.28125,-1 a 1.170117,1.170117 0 0 0 0,-0.03125 c -0.0032,-0.0098 0.0032,-0.02149 0,-0.03125 -0.115874,-0.354175 -0.277327,-0.675205 -0.40625,-0.96875 -0.117027,-0.266566 -0.227675,-0.59704 -0.4375,-0.96875 -0.357468,-0.632631 -0.799145,-1.195261 -1.25,-1.71875 -0.237405,-0.276236 -0.468848,-0.541532 -0.71875,-0.78125 -0.763459,-0.730403 -1.651633,-1.371468 -2.625,-1.875 -0.648568,-0.336917 -1.321358,-0.60823 -2,-0.8125 -1.061055,-0.313315 -2.203634,-0.46875 -3.375,-0.46875 z m 0,2.3125 c 0.942444,0 1.835803,0.154755 2.6875,0.40625 0.56955,0.171434 1.143184,0.374707 1.625,0.625 0.755275,0.390712 1.448591,0.912671 2.0625,1.5 0.209872,0.201318 0.417099,0.388206 0.59375,0.59375 0.375977,0.436547 0.670992,0.872095 0.9375,1.34375 0.102721,0.181972 0.235273,0.462978 0.375,0.78125 0.12379,0.281858 0.202197,0.504792 0.28125,0.75 a 1.170117,1.170117 0 0 0 0,0.03125 c 0.0032,0.01016 -0.0032,0.02114 0,0.03125 0.0862,0.271776 0.168515,0.543964 0.21875,0.78125 -0.10154,-0.478689 -0.105273,-0.466041 0,0.03125 0.06133,0.294429 0.129359,0.556056 0.15625,0.8125 -0.02505,-0.235687 -0.02719,-0.224837 0,0.03125 0.03182,0.313262 0.0625,0.586986 0.0625,0.84375 1.8e-5,0.0056 0,0.01819 0,0.03125 l 0,16.46875 c -0.149257,1.836563 -0.90138,3.247929 -2.125,4.46875 -1.22362,1.220821 -2.955785,2.205948 -4.90625,3 -3.106439,1.26466 -6.632521,1.95469 -9.75,2.53125 0.380718,-0.710013 0.753186,-1.43526 1.0625,-2.125 0.139558,-0.311625 0.300792,-0.63253 0.4375,-0.96875 0.06737,-0.165623 0.111706,-0.291997 0.15625,-0.40625 0.177835,-0.456069 0.357781,-0.951145 0.53125,-1.46875 0.153458,-0.457606 0.28875,-0.909132 0.40625,-1.3125 0.05821,-0.200575 0.105415,-0.375354 0.15625,-0.5625 0.08568,-0.314029 0.131111,-0.58505 0.1875,-0.8125 0.07697,-0.31135 0.197585,-0.64563 0.28125,-1.03125 0.09709,-0.445528 0.151303,-0.854225 0.21875,-1.21875 0.02368,-0.128736 0.07775,-0.344115 0.125,-0.625 0.142722,-0.841938 0.252897,-1.647726 0.34375,-2.46875 0.02535,-0.229683 0.02358,-0.361007 0.03125,-0.4375 0.406773,-4.032747 0.275745,-7.28633 0.21875,-9.34375 C 72.271189,40.917126 72.25,40.332147 72.25,40.125 c 0,-0.25433 -0.01941,-0.470993 -0.03125,-0.625 -0.06735,-0.831245 -0.240287,-1.647769 -0.5625,-2.4375 -0.252595,-0.626879 -0.625686,-1.198049 -1,-1.75 C 70.64329,35.2934 70.63805,35.26903 70.625,35.25 70.56986,35.16962 70.52553,35.079179 70.46875,35 c -0.0021,-0.0038 2.8e-5,-0.03121 0,-0.03125 C 70.39613,34.868025 70.347558,34.773809 70.28125,34.6875 70.173406,34.548065 70.099857,34.483114 70,34.375 c 0.119157,-0.577256 0.249997,-1.160148 0.4375,-1.65625 0.08195,-0.217056 0.199165,-0.454922 0.3125,-0.6875 0.218925,-0.448465 0.430346,-0.835472 0.6875,-1.15625 0.09966,-0.124702 0.253924,-0.258299 0.4375,-0.4375 0.601719,-0.580778 1.372436,-1.053288 2.3125,-1.28125 0.0097,-0.0024 0.02146,0.0023 0.03125,0 C 74.684946,29.047984 75.258184,29 75.90625,29 z m 1.5,37.8125 c 0.0216,-0.02967 -0.01099,0.08857 -0.34375,0.28125 l 0,-0.03125 c 0.121255,-0.103565 0.331304,-0.2329 0.34375,-0.25 z"
       id="path5010"
       inkscape:connector-curvature="0" />
    <path
       style="opacity:0.64253396;color:#000000;fill:#164450;fill-opacity:1;fill-rule:evenodd;stroke:none;stroke-width:1.62666225px;marker:none;visibility:visible;display:inline;overflow:visible;enable-background:accumulate"
       id="path4978"
       d="m 74.6063,79.779823 c 0,4.415805 -12.723395,7.999648 -28.400437,7.999648 -15.67704,0 -28.400437,-3.583843 -28.400437,-7.999648 0,-4.415806 12.723397,-7.999649 28.400437,-7.999649 15.677042,0 28.400437,3.583843 28.400437,7.999649 z"
       inkscape:connector-curvature="0" />
    <path
       inkscape:connector-curvature="0"
       d="m 73.030277,77.341044 c 0,4.011842 -12.017337,7.26783 -26.824414,7.26783 -14.807075,0 -26.824413,-3.255988 -26.824413,-7.26783 0,-4.011842 12.017338,-7.267831 26.824413,-7.267831 14.807077,0 26.824414,3.255989 26.824414,7.267831 z"
       id="path3580"
       style="opacity:0.92760183;color:#000000;fill:#f3dd21;fill-opacity:1;fill-rule:evenodd;stroke:#c4a000;stroke-width:1.63982832px;stroke-linecap:butt;stroke-linejoin:miter;stroke-miterlimit:4;stroke-opacity:1;stroke-dashoffset:0;marker:none;visibility:visible;display:inline;overflow:visible;enable-background:accumulate" />
    <path
       inkscape:connector-curvature="0"
       d="m 62.8555,77.341044 c 0,2.808289 -6.630257,5.087481 -14.799678,5.087481 -8.169422,0 -14.799675,-2.279192 -14.799675,-5.087481 0,-2.80829 6.630253,-5.087482 14.799675,-5.087482 8.169421,0 14.799678,2.279192 14.799678,5.087482 z"
       id="path7114"
       style="opacity:0.2;color:#000000;fill:url(#radialGradient5200);fill-opacity:1;fill-rule:evenodd;stroke:none;stroke-width:1px;marker:none;visibility:visible;display:inline;overflow:visible;enable-background:accumulate" />
    <path
       inkscape:connector-curvature="0"
       d="m 71.180321,76.680891 c 0,3.573879 -11.188555,6.474415 -24.974451,6.474415 -13.785903,0 -24.974461,-2.900536 -24.974461,-6.474415 0,-3.573879 11.188558,-6.474418 24.974461,-6.474418 13.785896,0 24.974451,2.900539 24.974451,6.474418 z"
       id="path4362"
       style="color:#000000;fill:#f3dd21;fill-opacity:1;stroke:url(#linearGradient5202);stroke-width:1.63982856px;stroke-linecap:butt;stroke-linejoin:miter;stroke-miterlimit:4;stroke-opacity:1;stroke-dashoffset:0;marker:none;visibility:visible;display:inline;overflow:visible;enable-background:accumulate" />
    <path
       inkscape:connector-curvature="0"
       d="m 59.155583,75.272391 c 0,2.407107 -5.801472,4.3607 -12.949716,4.3607 -7.148245,0 -12.94972,-1.953593 -12.94972,-4.3607 0,-2.407104 5.801475,-4.360697 12.94972,-4.360697 7.148244,0 12.949716,1.953593 12.949716,4.360697 z"
       id="path3578"
       style="color:#000000;fill:#c4a000;fill-opacity:1;fill-rule:evenodd;stroke:none;stroke-width:1.38169873px;marker:none;visibility:visible;display:inline;overflow:visible;enable-background:accumulate" />
    <path
       inkscape:connector-curvature="0"
       d="m 45.607041,27.178222 c -14.061723,0 -25.472154,5.789739 -25.472155,12.938558 0,1.880006 -0.282576,5.87629 0.206253,10.559722 -4.603335,-1.773843 -4.598267,-5.761359 -5.001618,-10.501701 l -5.156306,0 c -0.01443,0.322984 -0.05156,0.659564 -0.05156,0.986348 1.697671,20.805226 17.991498,33.32932 35.475389,34.116022 7.030857,0 15.766398,-1.907776 21.192418,-11.197946 5.426026,-9.290166 4.279734,-20.388039 4.279737,-23.962445 0,-7.148816 -11.410437,-12.938558 -25.472155,-12.938558 z"
       id="path2196"
       style="color:#000000;fill:#f3dd21;fill-opacity:1;fill-rule:evenodd;stroke:none;stroke-width:1.62666225px;marker:none;visibility:visible;display:inline;overflow:visible;enable-background:accumulate" />
    <path
       style="opacity:0.27149323;color:#000000;fill:#ffffff;fill-opacity:1;fill-rule:evenodd;stroke:none;stroke-width:0.91345936px;marker:none;visibility:visible;display:inline;overflow:visible;enable-background:accumulate"
       d="m 46.125,28.09375 c -12.764721,0 -22.314997,4.208769 -23.125,9.25 -0.756404,4.707646 -1.12806,9.982185 -0.84375,14.8125 0.131358,2.072327 -7.577267,-4.226849 -7.5,-9.25 0.05742,-3.732819 -2.531915,-0.962327 -2.46875,0.875 0.512455,14.906047 18.335615,25.163039 20.875,26.71875 2.539387,1.555709 5.209667,2 7.59375,2 0.762941,-8.677714 -8.585285,-14.827637 2.40625,-26.0625 9.440223,-0.344444 -5.25,-4.213719 -5.25,-9.09375 0,-5.10589 21.077221,-9.25 8.3125,-9.25 z"
       id="path3187"
       inkscape:connector-curvature="0"
       sodipodi:nodetypes="sscsssccss" />
    <g
       id="g4965"
       transform="matrix(1.137273,0,0,1.137273,-6.5332798,-7.986308)">
      <path
         inkscape:connector-curvature="0"
         d="m 31.733371,50.125832 -2.439992,4.87999 2.439992,4.879988 2.439996,-4.879988 -2.439996,-4.87999 z"
         id="path4959"
         style="fill:#e7cd18;fill-opacity:1;stroke:none" />
      <path
         inkscape:connector-curvature="0"
         d="m 61.013304,50.125832 -2.439994,4.87999 2.439994,4.879988 2.439994,-4.879988 -2.439994,-4.87999 z"
         id="path4961"
         style="fill:#e7cd18;fill-opacity:1;stroke:none" />
      <path
         inkscape:connector-curvature="0"
         d="m 46.373336,53.379161 -4.066653,6.506649 4.066653,6.506651 4.066659,-6.506651 -4.066659,-6.506649 z"
         id="path4963"
         style="fill:#e7cd18;fill-opacity:1;stroke:none" />
    </g>
    <g
       id="g4993">
      <path
         style="fill:#f3dd21;fill-opacity:1;stroke:none"
         id="rect19335"
         d="m 77.737373,22.339139 c -6.661707,0 -11.099758,5.298386 -11.099758,11.879792 l 1.849959,3.655319 c -4e-6,-5.419978 1.763012,-10.052131 7.399837,-10.052131 5.636824,0 10.17478,4.346579 10.17478,9.76656 l 0,16.56317 c -0.69961,8.608468 -13.662705,10.308054 -20.465178,11.594219 -0.828122,1.197291 -1.715104,2.245349 -2.659318,3.198405 9.015351,-2.413349 25.868412,-2.534811 26.824414,-14.621281 l 0,-20.104261 c 0,-6.581406 -5.363033,-11.879792 -12.024736,-11.879792 z"
         inkscape:connector-curvature="0" />
      <path
         inkscape:connector-curvature="0"
         id="path4988"
         d="m 77.732233,22.34375 c -6.661707,0 -11.09375,5.293594 -11.09375,11.875 l 0.1875,0.40625 c 0.950539,-5.40813 5.088007,-9.46875 10.90625,-9.46875 6.661703,0 12.03125,5.324844 12.03125,11.90625 l 0,-2.84375 c 0,-6.581406 -5.369547,-11.875 -12.03125,-11.875 z m 8.34375,31.8125 c -0.69961,8.608468 -13.666277,10.307585 -20.46875,11.59375 -0.828122,1.197291 -1.712036,2.234444 -2.65625,3.1875 3.723072,-0.996641 8.775207,-1.593486 13.5,-2.8125 0.02192,-0.0073 0.0406,-0.02394 0.0625,-0.03125 4.874922,-1.626289 9.168969,-4.282737 9.5625,-9.125 l 0,-2.8125 z"
         style="opacity:0.39366533;fill:#ffffff;fill-opacity:1;stroke:none" />
      <path
         inkscape:connector-curvature="0"
         id="path4949"
         d="m 75.892695,26.274041 c -5.636825,0 -7.392278,4.60224 -7.392275,10.022219 l -1.776989,-3.518439 c -0.04761,0.470887 -0.07108,0.970599 -0.07108,1.457131 l 1.848068,3.625058 c -3e-6,-5.419978 1.75545,-10.022218 7.392275,-10.022218 5.636824,0 10.164377,4.317918 10.164377,9.7379 l 0,-1.563751 c 0,-5.419981 -4.527553,-9.7379 -10.164377,-9.7379 z M 89.75321,52.751178 C 88.855829,64.09653 73.943151,64.91524 64.662124,66.967091 c -0.555805,0.700124 -1.138553,1.381685 -1.741449,1.990227 9.015351,-2.413349 25.876533,-2.555919 26.832535,-14.642389 l 0,-1.563751 z"
         style="fill:#dabc0f;fill-opacity:1;stroke:none" />
    </g>
    <g
       id="g4970"
       transform="matrix(1.137273,0,0,1.137273,-6.5332798,-10.829491)"
       style="opacity:0.2126697;fill:#ffffff">
      <path
         style="fill:#ffffff;fill-opacity:1;stroke:none"
         id="path4972"
         d="m 31.733371,50.125832 -2.439992,4.87999 2.439992,4.879988 2.439996,-4.879988 -2.439996,-4.87999 z"
         inkscape:connector-curvature="0" />
      <path
         style="fill:#ffffff;fill-opacity:1;stroke:none"
         id="path4974"
         d="m 61.013304,50.125832 -2.439994,4.87999 2.439994,4.879988 2.439994,-4.879988 -2.439994,-4.87999 z"
         inkscape:connector-curvature="0" />
      <path
         style="fill:#ffffff;fill-opacity:1;stroke:none"
         id="path4976"
         d="m 46.373336,53.379161 -4.066653,6.506649 4.066653,6.506651 4.066659,-6.506651 -4.066659,-6.506649 z"
         inkscape:connector-curvature="0" />
    </g>
    <path
       inkscape:connector-curvature="0"
       d="m 29.556226,47.527777 -2.774937,5.54988 2.774937,5.549879 2.774942,-5.549879 -2.774942,-5.54988 z"
       id="path11861"
       style="fill:#ff2a2a;fill-opacity:1;stroke:none" />
    <path
       inkscape:connector-curvature="0"
       d="m 29.556228,48.851796 -1.849959,4.147055 1.849959,4.147053 0,-8.294108 z"
       id="path11863"
       style="fill:#ffaaaa;fill-opacity:1;stroke:none" />
    <path
       inkscape:connector-curvature="0"
       d="m 62.855503,47.527777 -2.774939,5.54988 2.774939,5.549879 2.77494,-5.549879 -2.77494,-5.54988 z"
       id="path14255"
       style="fill:#ff2a2a;fill-opacity:1;stroke:none" />
    <path
       inkscape:connector-curvature="0"
       d="m 62.855503,48.93279 -1.849962,4.147056 1.849962,4.147052 0,-8.294108 z"
       id="path14257"
       style="fill:#ffaaaa;fill-opacity:1;stroke:none" />
    <path
       inkscape:connector-curvature="0"
       d="m 46.205863,51.2277 -4.624895,7.399836 4.624895,7.399839 4.624902,-7.399839 -4.624902,-7.399836 z"
       id="path17168"
       style="fill:#ff2a2a;fill-opacity:1;stroke:none" />
    <path
       inkscape:connector-curvature="0"
       d="m 45.992628,52.650572 -3.509741,6.027685 3.509741,6.027681 0,-12.055366 z"
       id="path17170"
       style="fill:#ffaaaa;fill-opacity:1;stroke:none" />
    <path
       inkscape:connector-curvature="0"
       d="m 15.681531,3.1287446 c -5.105888,0 -9.2497986,4.143911 -9.2497986,9.2497994 0,1.304763 0.3212524,2.516079 0.8093574,3.642108 -1.6079766,1.357747 -2.6593169,3.339973 -2.6593169,5.607692 0,2.780593 1.5460927,5.152688 3.8155415,6.417048 -0.059684,0.325913 -0.115622,0.639717 -0.115622,0.982789 0,0.875452 0.2165868,1.691443 0.5781122,2.428072 -1.4416584,0.78348 -2.4280722,2.291635 -2.4280722,4.046788 0,2.552944 2.0719545,4.624898 4.6248996,4.624898 2.552944,0 4.624899,-2.071954 4.624899,-4.624898 0,-0.423726 -0.06655,-0.824084 -0.173434,-1.214036 2.231865,-0.719007 3.873353,-2.790847 3.873353,-5.260824 0,-1.281727 -0.425603,-2.471018 -1.156225,-3.410862 0.729523,-1.146431 1.156225,-2.530384 1.156225,-3.988975 0,-0.256412 -0.09013,-0.501831 -0.115622,-0.751548 3.319521,-1.404813 5.665501,-4.668835 5.665501,-8.498252 0,-5.1058884 -4.14391,-9.2497994 -9.249798,-9.2497994 z"
       id="path18113"
       style="opacity:0.19004529;color:#000000;fill:none;stroke:#babdb6;stroke-width:1.84995961px;stroke-linecap:butt;stroke-linejoin:miter;stroke-miterlimit:4;stroke-opacity:1;stroke-dasharray:none;stroke-dashoffset:0;marker:none;visibility:visible;display:inline;overflow:visible;enable-background:accumulate" />
    <path
       style="opacity:0.49321271;color:#000000;fill:#dabc0f;fill-opacity:1;fill-rule:evenodd;stroke:none;stroke-width:1.62666225px;marker:none;visibility:visible;display:inline;overflow:visible;enable-background:accumulate"
       d="m 10.170417,40.170096 c -0.01443,0.322984 -0.03554,0.66833 -0.03554,0.995114 1.697671,20.805225 17.98481,33.331488 35.468701,34.11819 7.030857,0 15.755689,-1.904861 21.18171,-11.195032 4.025477,-6.892216 4.428894,-14.759246 4.371393,-19.831197 -0.14074,4.940506 -0.952496,11.465979 -4.335852,17.272333 C 61.407464,70.819675 52.689116,72.724535 45.674659,72.724535 28.675825,71.957871 12.819753,60.03213 10.454736,40.170096 z"
       id="path4939"
       inkscape:connector-curvature="0"
       sodipodi:nodetypes="cccscsccc" />
    <path
       style="opacity:0.56108602;color:#000000;fill:#b89b08;fill-opacity:1;fill-rule:evenodd;stroke:none;stroke-width:1.63982832px;marker:none;visibility:visible;display:inline;overflow:visible;enable-background:accumulate"
       d="m 70.96875,39.09375 c -2.323899,4.567266 -12.789782,8.03125 -25.375,8.03125 -12.526517,0 -22.983616,-3.433034 -25.375,-7.96875 -0.04486,0.31387 -0.09375,0.649048 -0.09375,0.96875 0,0.306407 -0.0208,0.96235 -0.03125,1.375 2.161992,4.641445 12.768223,8.15625 25.5,8.15625 12.892829,0 23.564335,-3.615118 25.53125,-8.34375 -0.0097,-0.351062 -0.03125,-0.917985 -0.03125,-1.1875 0,-0.341058 -0.07401,-0.69686 -0.125,-1.03125 z"
       id="path4998"
       inkscape:connector-curvature="0" />
    <path
       style="opacity:0.42986426;color:#000000;fill:#ffffff;fill-opacity:1;fill-rule:evenodd;stroke:none;stroke-width:1.62666225px;marker:none;visibility:visible;display:inline;overflow:visible;enable-background:accumulate"
       d="m 45.59375,27.1875 c -14.061723,0 -25.468749,5.788681 -25.46875,12.9375 0,1.217078 -0.08036,3.365553 -0.03125,5.96875 0.02406,-1.123124 0.03125,-2.307308 0.03125,-2.96875 1e-6,-7.148819 11.407027,-12.9375 25.46875,-12.9375 14.061718,0 25.5,5.788684 25.5,12.9375 -10e-7,0.673703 0.03274,1.822989 0.0625,2.96875 0.04099,-2.61267 -0.0625,-4.74511 -0.0625,-5.96875 0,-7.148816 -11.438282,-12.9375 -25.5,-12.9375 z m -35.40625,13 c -0.01443,0.322984 -0.0625,0.641966 -0.0625,0.96875 0.05565,0.681956 0.132211,1.36721 0.21875,2.03125 l 5,0 c 0.403351,4.740342 0.396665,8.726157 5,10.5 -0.111864,-1.071763 -0.206299,-2.111083 -0.25,-3.09375 -4.351205,-1.821165 -4.35415,-5.754067 -4.75,-10.40625 l -5.15625,0 z"
       id="path4981"
       inkscape:connector-curvature="0" />
    <path
       inkscape:connector-curvature="0"
       d="m 16.285707,39.843621 a 3.6999194,1.8499603 0 0 1 -7.3998384,0 3.6999194,1.8499603 0 1 1 7.3998384,0 z"
       id="path17203"
       style="color:#000000;fill:#f3dd21;fill-opacity:1;fill-rule:evenodd;stroke:none;stroke-width:1.62666285px;marker:none;visibility:visible;display:inline;overflow:visible;enable-background:accumulate" />
    <path
       inkscape:connector-curvature="0"
       d="m 50.830763,35.503039 a 4.6248989,2.7749399 0 0 1 -9.249797,0 4.6248989,2.7749399 0 1 1 9.249797,0 z"
       id="path3628"
       style="color:#000000;fill:#c4a000;fill-opacity:1;fill-rule:evenodd;stroke:#edd400;stroke-width:1.84995961px;stroke-linecap:butt;stroke-linejoin:miter;stroke-miterlimit:4;stroke-opacity:1;stroke-dasharray:none;stroke-dashoffset:0;marker:none;visibility:visible;display:inline;overflow:visible;enable-background:accumulate" />
    <path
       inkscape:connector-curvature="0"
       d="m 52.680727,28.103207 c 0,-2.552948 -2.900742,-4.624901 -6.47486,-4.624901 -3.574123,0 -6.474857,2.071953 -6.474857,4.624901 0,2.55294 2.900734,8.324818 6.474857,8.324818 3.574118,0 6.47486,-5.771878 6.47486,-8.324818 z"
       id="path2201"
       style="color:#000000;fill:#f3dd21;fill-opacity:1;fill-rule:evenodd;stroke:none;stroke-width:1.62666285px;marker:none;visibility:visible;display:inline;overflow:visible;enable-background:accumulate" />
    <path
       style="opacity:0.67873308;color:#000000;fill:#c4a000;fill-opacity:1;fill-rule:evenodd;stroke:none;stroke-width:1.62666285px;marker:none;visibility:visible;display:inline;overflow:visible;enable-background:accumulate"
       d="m 39.917214,26.984837 c -0.124431,0.35784 -0.177699,0.716525 -0.177699,1.101733 0,2.55294 2.894118,8.351849 6.468241,8.351849 3.574118,0 6.46824,-5.798909 6.46824,-8.351849 0,-0.386931 -0.08773,-0.742439 -0.213239,-1.101733 -0.68328,2.819237 -3.203176,7.036877 -6.255001,7.036877 -3.052318,0 -5.607756,-4.217633 -6.290542,-7.036877 z"
       id="path4944"
       inkscape:connector-curvature="0" />
    <path
       style="opacity:0.38914029;color:#000000;fill:#ffffff;fill-opacity:1;fill-rule:evenodd;stroke:none;stroke-width:1.62666285px;marker:none;visibility:visible;display:inline;overflow:visible;enable-background:accumulate"
       d="m 46.207756,23.466398 c -3.574123,0 -6.468241,2.067224 -6.468241,4.620172 0,0.33781 0.04574,0.743112 0.14216,1.172813 0.62831,-2.084242 3.221193,-3.660598 6.326081,-3.660598 3.110599,0 5.703879,1.570602 6.326081,3.660598 0.09518,-0.426392 0.142159,-0.837237 0.142159,-1.172813 0,-2.552948 -2.894122,-4.620172 -6.46824,-4.620172 z"
       id="path4954"
       inkscape:connector-curvature="0" />
    <path
       style="color:#000000;fill:#b99e0b;fill-opacity:1;fill-rule:evenodd;stroke:none;stroke-width:1.62666285px;marker:none;visibility:visible;display:inline;overflow:visible;enable-background:accumulate"
       id="path4986"
       d="m 14.941957,39.843194 a 2.3561694,0.82453171 0 0 1 -4.712338,0 2.3561694,0.82453171 0 1 1 4.712338,0 z"
       inkscape:connector-curvature="0" />
    <path
       inkscape:connector-curvature="0"
       d="m 24.006349,12.378545 a 8.3248185,8.3248186 0 0 1 -16.649636,0 8.3248185,8.3248186 0 1 1 16.649636,0 z"
       id="path18109"
       style="opacity:0.82352941;color:#000000;fill:url(#radialGradient5204);fill-opacity:1;fill-rule:evenodd;stroke:none;stroke-width:0.54772246px;marker:none;visibility:visible;display:inline;overflow:visible;enable-background:accumulate" />
    <path
       inkscape:connector-curvature="0"
       d="m 18.456471,29.02818 a 4.6248992,4.6248994 0 0 1 -9.2497981,0 4.6248992,4.6248994 0 1 1 9.2497981,0 z"
       id="path18101"
       style="opacity:0.82352941;color:#000000;fill:url(#radialGradient5206);fill-opacity:1;fill-rule:evenodd;stroke:none;stroke-width:0.91287076px;marker:none;visibility:visible;display:inline;overflow:visible;enable-background:accumulate" />
    <path
       inkscape:connector-curvature="0"
       d="m 18.45647,21.628345 a 6.4748589,6.4748583 0 0 1 -12.9497169,0 6.4748589,6.4748583 0 1 1 12.9497169,0 z"
       id="path18105"
       style="opacity:0.82352941;color:#000000;fill:url(#radialGradient5208);fill-opacity:1;fill-rule:evenodd;stroke:none;stroke-width:0.6846531px;marker:none;visibility:visible;display:inline;overflow:visible;enable-background:accumulate" />
    <path
       inkscape:connector-curvature="0"
       d="m 14.75655,35.503038 a 3.6999193,3.6999195 0 0 1 -7.3998382,0 3.6999193,3.6999195 0 1 1 7.3998382,0 z"
       id="path17708"
       style="opacity:0.82352941;color:#000000;fill:url(#radialGradient5210);fill-opacity:1;fill-rule:evenodd;stroke:none;stroke-width:1.09544492px;marker:none;visibility:visible;display:inline;overflow:visible;enable-background:accumulate" />
    <path
       inkscape:connector-curvature="0"
       d="m 15.681531,4.8630823 c -4.13577,0 -7.5154606,3.3796922 -7.5154606,7.5154617 0,1.550914 0.5215397,2.966563 1.3296575,4.162409 -1.8836062,0.920923 -3.1796174,2.850695 -3.1796174,5.087391 0,2.625675 1.7953651,4.792674 4.2202195,5.434254 -0.345525,0.577624 -0.5781119,1.244012 -0.5781119,1.965583 0,2.127456 1.7458999,3.873354 3.8733529,3.873354 2.127454,0 3.873354,-1.745898 3.873353,-3.873354 0,-1.405881 -0.782354,-2.622033 -1.907771,-3.295241 1.114403,-1.034834 1.84996,-2.465034 1.84996,-4.104596 0,-0.690628 -0.1203,-1.353414 -0.346867,-1.965584 3.349362,-0.747361 5.896745,-3.710652 5.896745,-7.284216 0,-4.1357695 -3.379691,-7.5154617 -7.51546,-7.5154617 z M 11.056632,32.554668 c -1.6338852,0 -2.9483738,1.314485 -2.9483738,2.948373 0,1.633884 1.3144886,2.948374 2.9483738,2.948374 1.633885,0 2.948373,-1.314494 2.948373,-2.948374 0,-1.633885 -1.314488,-2.948373 -2.948373,-2.948373 z"
       id="path18130"
       style="opacity:0.82352941;color:#000000;fill:none;stroke:#ffffff;stroke-width:1.54163277px;stroke-linecap:butt;stroke-linejoin:miter;stroke-miterlimit:4;stroke-opacity:1;stroke-dasharray:none;stroke-dashoffset:0;marker:none;visibility:visible;display:inline;overflow:visible;enable-background:accumulate" />
  </g>
</svg>
