<?xml version="1.0" encoding="UTF-8" standalone="no"?>
<!-- Created with Inkscape (http://www.inkscape.org/) -->

<svg
   xmlns:dc="http://purl.org/dc/elements/1.1/"
   xmlns:cc="http://creativecommons.org/ns#"
   xmlns:rdf="http://www.w3.org/1999/02/22-rdf-syntax-ns#"
   xmlns:svg="http://www.w3.org/2000/svg"
   xmlns="http://www.w3.org/2000/svg"
   xmlns:xlink="http://www.w3.org/1999/xlink"
   xmlns:sodipodi="http://sodipodi.sourceforge.net/DTD/sodipodi-0.dtd"
   xmlns:inkscape="http://www.inkscape.org/namespaces/inkscape"
   version="1.0"
   width="96"
   height="96"
   id="svg2408"
   inkscape:version="0.48.3.1 r9886"
   sodipodi:docname="icedove.svg">
  <sodipodi:namedview
     pagecolor="#ffffff"
     bordercolor="#666666"
     borderopacity="1"
     objecttolerance="10"
     gridtolerance="10"
     guidetolerance="10"
     inkscape:pageopacity="0"
     inkscape:pageshadow="2"
     inkscape:window-width="1280"
     inkscape:window-height="752"
     id="namedview128"
     showgrid="false"
     inkscape:zoom="7.9999999"
     inkscape:cx="48.090377"
     inkscape:cy="29.2881"
     inkscape:window-x="0"
     inkscape:window-y="0"
     inkscape:window-maximized="1"
     inkscape:current-layer="g15322"
     showguides="true"
     inkscape:guide-bbox="true" />
  <defs
     id="defs2410">
    <linearGradient
       x1="45.447727"
       y1="92.539597"
       x2="45.447727"
       y2="7.0165396"
       id="ButtonShadow"
       gradientUnits="userSpaceOnUse"
       gradientTransform="scale(1.0058652,0.994169)">
      <stop
         id="stop3750"
         style="stop-color:#000000;stop-opacity:1"
         offset="0" />
      <stop
         id="stop3752"
         style="stop-color:#000000;stop-opacity:0.58823532"
         offset="1" />
    </linearGradient>
    <filter
       color-interpolation-filters="sRGB"
       id="filter3174">
      <feGaussianBlur
         id="feGaussianBlur3176"
         stdDeviation="1.71" />
    </filter>
    <filter
       id="filter3174-4"
       color-interpolation-filters="sRGB">
      <feGaussianBlur
         stdDeviation="1.71"
         id="feGaussianBlur3176-9" />
    </filter>
    <linearGradient
       gradientTransform="scale(1.0058652,0.994169)"
       gradientUnits="userSpaceOnUse"
       id="ButtonShadow-0"
       y2="7.0165396"
       x2="45.447727"
       y1="92.539597"
       x1="45.447727">
      <stop
         offset="0"
         style="stop-color:#000000;stop-opacity:1"
         id="stop3750-6" />
      <stop
         offset="1"
         style="stop-color:#000000;stop-opacity:0.58823532"
         id="stop3752-49" />
    </linearGradient>
    <linearGradient
       inkscape:collect="always"
       xlink:href="#ButtonShadow-0"
       id="linearGradient14325"
       gradientUnits="userSpaceOnUse"
       gradientTransform="scale(1.0058652,0.994169)"
       x1="45.447727"
       y1="92.539597"
       x2="45.447727"
       y2="7.0165396" />
    <linearGradient
       id="linearGradient6109-0"
       inkscape:collect="always">
      <stop
         id="stop6111-7"
         offset="0"
         style="stop-color:#5f8dd3;stop-opacity:1;" />
      <stop
         id="stop6113-6"
         offset="1"
         style="stop-color:#5f8dd3;stop-opacity:0;" />
    </linearGradient>
    <linearGradient
       id="linearGradient8807-8"
       inkscape:collect="always">
      <stop
         id="stop8809-2"
         offset="0"
         style="stop-color:#ffffff;stop-opacity:1;" />
      <stop
         id="stop8811-1"
         offset="1"
         style="stop-color:#ffffff;stop-opacity:0;" />
    </linearGradient>
    <linearGradient
       id="linearGradient4789-2-4"
       inkscape:collect="always">
      <stop
         id="stop4791-1-7"
         offset="0"
         style="stop-color:#002255;stop-opacity:1;" />
      <stop
         id="stop4793-2-0"
         offset="1"
         style="stop-color:#002255;stop-opacity:0;" />
    </linearGradient>
    <linearGradient
       id="linearGradient7905-2"
       inkscape:collect="always">
      <stop
         id="stop7907-5"
         offset="0"
         style="stop-color:#decd87;stop-opacity:1;" />
      <stop
         id="stop7909-3"
         offset="1"
         style="stop-color:#decd87;stop-opacity:0;" />
    </linearGradient>
    <filter
       id="filter3174-3"
       color-interpolation-filters="sRGB">
      <feGaussianBlur
         stdDeviation="1.71"
         id="feGaussianBlur3176-7" />
    </filter>
    <linearGradient
       gradientTransform="scale(1.0058652,0.994169)"
       gradientUnits="userSpaceOnUse"
       id="ButtonShadow-6"
       y2="7.0165396"
       x2="45.447727"
       y1="92.539597"
       x1="45.447727">
      <stop
         offset="0"
         style="stop-color:#000000;stop-opacity:1"
         id="stop3750-0" />
      <stop
         offset="1"
         style="stop-color:#000000;stop-opacity:0.58823532"
         id="stop3752-7" />
    </linearGradient>
    <linearGradient
       inkscape:collect="always"
       xlink:href="#ButtonShadow-6"
       id="linearGradient13980"
       gradientUnits="userSpaceOnUse"
       gradientTransform="matrix(1.0058652,0,0,0.994169,102.5,8.9999977)"
       x1="45.447727"
       y1="92.539597"
       x2="45.447727"
       y2="7.0165396" />
    <radialGradient
       inkscape:collect="always"
       xlink:href="#linearGradient7905-2"
       id="radialGradient15419"
       gradientUnits="userSpaceOnUse"
       gradientTransform="matrix(0.76029721,-0.43452697,0.29978228,0.52453273,-2.1181822,54.553365)"
       cx="45.420174"
       cy="66.109962"
       fx="45.420174"
       fy="66.109962"
       r="28.481649" />
    <linearGradient
       inkscape:collect="always"
       xlink:href="#linearGradient4789-2-4"
       id="linearGradient15421"
       gradientUnits="userSpaceOnUse"
       gradientTransform="matrix(0.83667015,1.0625852,-0.92025967,0.96678973,157.52734,33.212053)"
       x1="-61.640392"
       y1="49.27462"
       x2="-19.384882"
       y2="49.27462" />
    <linearGradient
       inkscape:collect="always"
       xlink:href="#linearGradient4789-2-4"
       id="linearGradient15423"
       gradientUnits="userSpaceOnUse"
       gradientTransform="matrix(0.83667015,1.0625852,-0.92025967,0.96678973,157.52734,33.212053)"
       x1="-61.640392"
       y1="49.27462"
       x2="-19.384882"
       y2="49.27462" />
    <linearGradient
       inkscape:collect="always"
       xlink:href="#linearGradient4789-2-4"
       id="linearGradient15425"
       gradientUnits="userSpaceOnUse"
       gradientTransform="matrix(0.76961379,1.2342002,-0.97976834,0.9737605,158.24874,44.613444)"
       x1="-61.640392"
       y1="49.27462"
       x2="-19.384882"
       y2="49.27462" />
    <linearGradient
       inkscape:collect="always"
       xlink:href="#linearGradient4789-2-4"
       id="linearGradient15427"
       gradientUnits="userSpaceOnUse"
       gradientTransform="matrix(0.76961379,1.2342002,-0.97976834,0.9737605,158.24874,44.613444)"
       x1="-61.640392"
       y1="49.27462"
       x2="-19.384882"
       y2="49.27462" />
    <linearGradient
       inkscape:collect="always"
       xlink:href="#linearGradient8807-8"
       id="linearGradient15429"
       gradientUnits="userSpaceOnUse"
       gradientTransform="matrix(1.1755959,0.00151085,-0.0017451,1.3578709,-225.03919,-9.7147364)"
       x1="240.87971"
       y1="35.553898"
       x2="267.0593"
       y2="35.553898" />
    <linearGradient
       inkscape:collect="always"
       xlink:href="#linearGradient8807-8"
       id="linearGradient15431"
       gradientUnits="userSpaceOnUse"
       gradientTransform="matrix(1.1755959,0.00151085,-0.0017451,1.3578709,-225.03919,-9.7147364)"
       x1="240.87971"
       y1="35.553898"
       x2="267.0593"
       y2="35.553898" />
    <linearGradient
       inkscape:collect="always"
       xlink:href="#linearGradient6109-0"
       id="linearGradient15433"
       gradientUnits="userSpaceOnUse"
       gradientTransform="matrix(1.0777093,-0.11076146,0.11076146,1.0777093,-207.54454,21.987253)"
       x1="242.94823"
       y1="35.644112"
       x2="261.60269"
       y2="39.230553" />
    <linearGradient
       inkscape:collect="always"
       xlink:href="#linearGradient6109-0"
       id="linearGradient15435"
       gradientUnits="userSpaceOnUse"
       gradientTransform="matrix(1.0777093,-0.11076146,0.11076146,1.0777093,-207.54454,21.987253)"
       x1="242.94823"
       y1="35.644112"
       x2="261.60269"
       y2="39.230553" />
  </defs>
  <metadata
     id="metadata2413">
    <rdf:RDF>
      <cc:Work
         rdf:about="">
        <dc:format>image/svg+xml</dc:format>
        <dc:type
           rdf:resource="http://purl.org/dc/dcmitype/StillImage" />
        <dc:title />
      </cc:Work>
    </rdf:RDF>
  </metadata>
  <g
     id="layer2"
     style="display:none">
    <path
       d="M 11,7 C 7.676,7 5,9.676 5,13 l 0,33.6875 c 2.2377507,0.124029 4.660506,0.235683 5.875,0.4375 0.66093,0.10983 -0.08406,0.240848 -1.125,0.34375 C 8.7090622,47.571654 7.3545491,47.665119 6.84375,47.75 6.2216014,47.853382 5.6264179,47.903999 5,48 l 0,1.0625 c 0.3803657,0.03607 0.7183843,0.03125 0.9375,0.03125 0.80883,10e-7 1.1599727,0.215701 1.3125,0.5625 0.1525272,0.346797 0.09375,0.839723 0.09375,1.40625 0,0.424828 -0.9420178,0.663014 -1.15625,1.375 C 6.110939,52.691968 5.5510552,52.945524 5,53.1875 l 0,2.21875 c 0.7355867,0.02497 1.4332639,0.05671 1.84375,0.3125 C 7.1254716,55.894306 6.0687957,56.124098 5,56.3125 l 0,7.5625 c 1.1379643,0.180337 3.3100715,0.925679 3.96875,1.0625 1.090152,0.226446 1.224723,0.33476 0.875,0.4375 -0.3497231,0.102744 -1.173581,0.175172 -2,0.3125 C 6.8656638,65.850029 5.90816,66.141998 5,66.34375 L 5,86 c 0,3.324 2.676,6 6,6 l 13,0 c 0.0954,-0.438237 0.150955,-0.931178 0.25,-1.4375 0.140364,-0.717512 0.25498,-1.34159 0.375,-1.59375 0.03001,-0.06304 0.05815,-0.114053 0.09375,-0.125 0.106804,-0.03285 0.238198,0.191956 0.46875,0.78125 0.304338,0.777871 0.540174,1.646782 0.6875,2.375 l 0.75,0 c 0.276152,-0.493694 0.578538,-1.138496 0.8125,-1.4375 0.09907,-0.126629 0.275237,0.131501 0.53125,0.375 0.256014,0.2435 0.588904,0.486378 0.9375,0.375 0.648614,-0.207227 1.602807,-0.726227 2.03125,-1 0.139883,-0.08938 0.300164,-0.157976 0.40625,-0.1875 0.106087,-0.02952 0.174331,-0.01774 0.25,0 0.151339,0.03548 0.232196,0.144559 0.34375,0.28125 0.223098,0.27338 0.466785,0.656251 1.0625,0.65625 0.478344,0 0.657185,-0.0325 0.78125,0.0625 0.124065,0.095 0.197087,0.314551 0.40625,0.875 l 8.875,0 c -0.04778,-0.593879 1.040547,-2.151517 1.21875,-3.0625 0.19092,-0.975995 0.214078,-1.242419 0.28125,-1.0625 0.06717,0.179919 0.192504,0.793906 0.46875,1.5 0.110448,0.282298 0.213887,0.358235 0.3125,0.28125 0.09861,-0.07699 0.168895,-0.293948 0.25,-0.5625 0.162213,-0.537107 0.285649,-1.296709 0.34375,-1.59375 0.131129,-0.670335 0.128655,-1.786501 0.125,-2.28125 -9.11e-4,-0.123687 -0.0059,-0.217815 0,-0.25 0.01779,-0.09656 0.08067,0.312079 0.28125,1.59375 0.163819,1.046767 0.54767,2.687946 0.71875,3.5625 0.169798,0.867992 0.298106,1.322124 0.40625,1.875 l 28.21875,0 c 0.03877,-0.494956 0.03519,-1.098589 0.0625,-1.5 0.02049,-0.301057 0.06649,-0.487005 0.15625,-0.46875 0.02992,0.0061 0.05077,0.03882 0.09375,0.09375 0.233449,0.298339 0.630596,1.164908 0.96875,1.875 L 85,92 c 3.324,0 6,-2.676 6,-6 l 0,-7.21875 c -0.16942,0.0045 -0.290112,-4e-6 -0.5,0 -1.330307,0 -2.638456,-4e-6 -3.96875,0 -1.226564,0 -2.05394,-9.64e-4 -2.25,-0.0625 -0.19606,-0.06154 0.232972,-0.183183 1.46875,-0.5 C 86.405034,78.050819 89.092469,77.290673 91,76.875 L 91,38.46875 C 90.34725,38.202412 89.792969,37.980093 89.25,37.5625 89.107486,37.452886 88.801155,37.170028 88.28125,37 87.761349,36.829972 87.007124,36.743855 86,36.9375 c -1.533473,0.294852 -1.685602,0.283469 -1.25,0.15625 0.4356,-0.127221 1.468635,-0.381012 2.25,-0.53125 1.152717,-0.221645 2.722214,-1.204246 4,-1.84375 l 0,-4.5625 c -0.69831,-0.257978 -1.422206,-0.558272 -1.75,-1.0625 -0.209707,-0.322576 -0.321618,-0.513018 -0.3125,-0.625 0.0091,-0.111981 0.13299,-0.149124 0.25,-0.1875 0.117011,-0.03837 0.261032,-0.05449 0.375,-0.15625 0.11397,-0.101759 0.187497,-0.291619 0.1875,-0.59375 0,-0.32292 0.08246,-0.887065 0.0625,-1.40625 -0.01,-0.259593 -0.03562,-0.49724 -0.125,-0.6875 -0.08939,-0.19026 -0.219089,-0.333004 -0.4375,-0.375 -0.574572,-0.110478 -0.848143,-0.233682 -0.90625,-0.34375 -0.05811,-0.110067 0.07208,-0.18937 0.28125,-0.28125 0.418339,-0.18376 1.132532,-0.339398 1.125,-0.34375 -0.668701,-0.385725 -5.247169,-0.921226 -5,-0.96875 0.332574,-0.06395 0.667437,-0.123553 1,-0.1875 1.047644,-0.201439 2.43278,-0.309227 3.75,-0.5625 0.573261,-0.110227 0.911769,-0.250569 1.125,-0.4375 0.213229,-0.18693 0.294201,-0.423258 0.375,-0.625 L 91,13 C 91,9.676 88.324,7 85,7 L 33.625,7 C 33.72158,8.3975706 33.82658,9.959362 33.53125,9.1875 33.320827,8.6375466 33.210422,8.0499534 33,7.5 32.946762,7.3608606 32.903941,7.1705291 32.84375,7 L 30.8125,7 C 30.571803,7.4923127 30.362863,7.9708281 30.03125,8.1875 29.524321,8.5187294 29.245447,8.6821159 29,8.59375 28.754552,8.5053839 28.523162,8.1669814 28.15625,7.6875 27.992502,7.4735174 27.721718,7.2560338 27.40625,7 l -6.8125,0 -1.3125,5.5625 L 17.53125,7 17.3125,7 15.5625,15.9375 14.15625,7 11,7 z"
       inkscape:connector-curvature="0"
       id="rect3745"
       style="opacity:0.9;fill:url(#ButtonShadow);fill-opacity:1;fill-rule:nonzero;stroke:none;filter:url(#filter3174)" />
  </g>
  <rect
     y="0"
     x="0"
     height="96"
     width="96"
     id="rect6228"
     style="fill:#073e6c;fill-opacity:1;stroke:none" />
  <rect
     style="opacity:0.17194573;fill:#000000;fill-opacity:1;stroke:none"
     id="rect3878"
     width="96"
     height="2.5"
     x="0"
     y="93.5" />
  <rect
     y="0"
     x="0"
     height="2.5"
     width="96"
     id="rect3880"
     style="fill:#ffffff;fill-opacity:1;stroke:none;opacity:0.25339367" />
  <g
     id="layer2-6"
     style="display:none"
     transform="translate(2.9116859,150.53048)">
    <path
       d="M 11,7 C 7.676,7 5,9.676 5,13 l 0,33.6875 c 2.2377507,0.124029 4.660506,0.235683 5.875,0.4375 0.66093,0.10983 -0.08406,0.240848 -1.125,0.34375 C 8.7090622,47.571654 7.3545491,47.665119 6.84375,47.75 6.2216014,47.853382 5.6264179,47.903999 5,48 l 0,1.0625 c 0.3803657,0.03607 0.7183843,0.03125 0.9375,0.03125 0.80883,10e-7 1.1599727,0.215701 1.3125,0.5625 0.1525272,0.346797 0.09375,0.839723 0.09375,1.40625 0,0.424828 -0.9420178,0.663014 -1.15625,1.375 C 6.110939,52.691968 5.5510552,52.945524 5,53.1875 l 0,2.21875 c 0.7355867,0.02497 1.4332639,0.05671 1.84375,0.3125 C 7.1254716,55.894306 6.0687957,56.124098 5,56.3125 l 0,7.5625 c 1.1379643,0.180337 3.3100715,0.925679 3.96875,1.0625 1.090152,0.226446 1.224723,0.33476 0.875,0.4375 -0.3497231,0.102744 -1.173581,0.175172 -2,0.3125 C 6.8656638,65.850029 5.90816,66.141998 5,66.34375 L 5,86 c 0,3.324 2.676,6 6,6 l 13,0 c 0.0954,-0.438237 0.150955,-0.931178 0.25,-1.4375 0.140364,-0.717512 0.25498,-1.34159 0.375,-1.59375 0.03001,-0.06304 0.05815,-0.114053 0.09375,-0.125 0.106804,-0.03285 0.238198,0.191956 0.46875,0.78125 0.304338,0.777871 0.540174,1.646782 0.6875,2.375 l 0.75,0 c 0.276152,-0.493694 0.578538,-1.138496 0.8125,-1.4375 0.09907,-0.126629 0.275237,0.131501 0.53125,0.375 0.256014,0.2435 0.588904,0.486378 0.9375,0.375 0.648614,-0.207227 1.602807,-0.726227 2.03125,-1 0.139883,-0.08938 0.300164,-0.157976 0.40625,-0.1875 0.106087,-0.02952 0.174331,-0.01774 0.25,0 0.151339,0.03548 0.232196,0.144559 0.34375,0.28125 0.223098,0.27338 0.466785,0.656251 1.0625,0.65625 0.478344,0 0.657185,-0.0325 0.78125,0.0625 0.124065,0.095 0.197087,0.314551 0.40625,0.875 l 8.875,0 c -0.04778,-0.593879 1.040547,-2.151517 1.21875,-3.0625 0.19092,-0.975995 0.214078,-1.242419 0.28125,-1.0625 0.06717,0.179919 0.192504,0.793906 0.46875,1.5 0.110448,0.282298 0.213887,0.358235 0.3125,0.28125 0.09861,-0.07699 0.168895,-0.293948 0.25,-0.5625 0.162213,-0.537107 0.285649,-1.296709 0.34375,-1.59375 0.131129,-0.670335 0.128655,-1.786501 0.125,-2.28125 -9.11e-4,-0.123687 -0.0059,-0.217815 0,-0.25 0.01779,-0.09656 0.08067,0.312079 0.28125,1.59375 0.163819,1.046767 0.54767,2.687946 0.71875,3.5625 0.169798,0.867992 0.298106,1.322124 0.40625,1.875 l 28.21875,0 c 0.03877,-0.494956 0.03519,-1.098589 0.0625,-1.5 0.02049,-0.301057 0.06649,-0.487005 0.15625,-0.46875 0.02992,0.0061 0.05077,0.03882 0.09375,0.09375 0.233449,0.298339 0.630596,1.164908 0.96875,1.875 L 85,92 c 3.324,0 6,-2.676 6,-6 l 0,-7.21875 c -0.16942,0.0045 -0.290112,-4e-6 -0.5,0 -1.330307,0 -2.638456,-4e-6 -3.96875,0 -1.226564,0 -2.05394,-9.64e-4 -2.25,-0.0625 -0.19606,-0.06154 0.232972,-0.183183 1.46875,-0.5 C 86.405034,78.050819 89.092469,77.290673 91,76.875 L 91,38.46875 C 90.34725,38.202412 89.792969,37.980093 89.25,37.5625 89.107486,37.452886 88.801155,37.170028 88.28125,37 87.761349,36.829972 87.007124,36.743855 86,36.9375 c -1.533473,0.294852 -1.685602,0.283469 -1.25,0.15625 0.4356,-0.127221 1.468635,-0.381012 2.25,-0.53125 1.152717,-0.221645 2.722214,-1.204246 4,-1.84375 l 0,-4.5625 c -0.69831,-0.257978 -1.422206,-0.558272 -1.75,-1.0625 -0.209707,-0.322576 -0.321618,-0.513018 -0.3125,-0.625 0.0091,-0.111981 0.13299,-0.149124 0.25,-0.1875 0.117011,-0.03837 0.261032,-0.05449 0.375,-0.15625 0.11397,-0.101759 0.187497,-0.291619 0.1875,-0.59375 0,-0.32292 0.08246,-0.887065 0.0625,-1.40625 -0.01,-0.259593 -0.03562,-0.49724 -0.125,-0.6875 -0.08939,-0.19026 -0.219089,-0.333004 -0.4375,-0.375 -0.574572,-0.110478 -0.848143,-0.233682 -0.90625,-0.34375 -0.05811,-0.110067 0.07208,-0.18937 0.28125,-0.28125 0.418339,-0.18376 1.132532,-0.339398 1.125,-0.34375 -0.668701,-0.385725 -5.247169,-0.921226 -5,-0.96875 0.332574,-0.06395 0.667437,-0.123553 1,-0.1875 1.047644,-0.201439 2.43278,-0.309227 3.75,-0.5625 0.573261,-0.110227 0.911769,-0.250569 1.125,-0.4375 0.213229,-0.18693 0.294201,-0.423258 0.375,-0.625 L 91,13 C 91,9.676 88.324,7 85,7 L 33.625,7 C 33.72158,8.3975706 33.82658,9.959362 33.53125,9.1875 33.320827,8.6375466 33.210422,8.0499534 33,7.5 32.946762,7.3608606 32.903941,7.1705291 32.84375,7 L 30.8125,7 C 30.571803,7.4923127 30.362863,7.9708281 30.03125,8.1875 29.524321,8.5187294 29.245447,8.6821159 29,8.59375 28.754552,8.5053839 28.523162,8.1669814 28.15625,7.6875 27.992502,7.4735174 27.721718,7.2560338 27.40625,7 l -6.8125,0 -1.3125,5.5625 L 17.53125,7 17.3125,7 15.5625,15.9375 14.15625,7 11,7 z"
       inkscape:connector-curvature="0"
       id="rect3745-8"
       style="opacity:0.9;fill:url(#linearGradient14325);fill-opacity:1;fill-rule:nonzero;stroke:none;filter:url(#filter3174-4)" />
  </g>
  <path
     style="opacity:0.9;fill:url(#linearGradient13980);fill-opacity:1;fill-rule:nonzero;stroke:none;display:none;filter:url(#filter3174-3)"
     id="rect3745-7"
     inkscape:connector-curvature="0"
     d="m 113.5,15.999998 c -3.324,0 -6,2.676 -6,6 l 0,33.6875 c 2.23775,0.124029 4.66051,0.235683 5.875,0.4375 0.66093,0.10983 -0.0841,0.240848 -1.125,0.34375 -1.04094,0.102904 -2.39545,0.196369 -2.90625,0.28125 -0.62215,0.103382 -1.21733,0.153999 -1.84375,0.25 l 0,1.0625 c 0.38037,0.03607 0.71838,0.03125 0.9375,0.03125 0.80883,1e-6 1.15997,0.215701 1.3125,0.5625 0.15253,0.346797 0.0937,0.839723 0.0937,1.40625 0,0.424828 -0.94202,0.663014 -1.15625,1.375 -0.0766,0.254468 -0.63644,0.508024 -1.1875,0.75 l 0,2.21875 c 0.73559,0.02497 1.43326,0.05671 1.84375,0.3125 0.28172,0.175556 -0.77495,0.405348 -1.84375,0.59375 l 0,7.5625 c 1.13796,0.180337 3.31007,0.925679 3.96875,1.0625 1.09015,0.226446 1.22472,0.33476 0.875,0.4375 -0.34972,0.102744 -1.17358,0.175172 -2,0.3125 -0.97809,0.162529 -1.93559,0.454498 -2.84375,0.65625 l 0,19.65625 c 0,3.324 2.676,6.000002 6,6.000002 l 13,0 c 0.0954,-0.43824 0.15095,-0.93118 0.25,-1.437502 0.14036,-0.717512 0.25498,-1.34159 0.375,-1.59375 0.03,-0.06304 0.0581,-0.114053 0.0937,-0.125 0.1068,-0.03285 0.2382,0.191956 0.46875,0.78125 0.30434,0.777871 0.54017,1.646782 0.6875,2.375002 l 0.75,0 c 0.27615,-0.4937 0.57854,-1.138498 0.8125,-1.437502 0.0991,-0.126629 0.27524,0.131501 0.53125,0.375 0.25601,0.243502 0.5889,0.486382 0.9375,0.375002 0.64861,-0.20723 1.60281,-0.726229 2.03125,-1.000002 0.13988,-0.08938 0.30016,-0.157976 0.40625,-0.1875 0.10609,-0.02952 0.17433,-0.01774 0.25,0 0.15134,0.03548 0.2322,0.144559 0.34375,0.28125 0.2231,0.27338 0.46679,0.656252 1.0625,0.656252 0.47834,0 0.65718,-0.0325 0.78125,0.0625 0.12406,0.095 0.19709,0.31455 0.40625,0.875 l 8.875,0 c -0.0478,-0.59388 1.04055,-2.151519 1.21875,-3.062502 0.19092,-0.975995 0.21408,-1.242419 0.28125,-1.0625 0.0672,0.179919 0.1925,0.793906 0.46875,1.5 0.11045,0.282298 0.21389,0.358235 0.3125,0.28125 0.0986,-0.07699 0.16889,-0.293948 0.25,-0.5625 0.16221,-0.537107 0.28565,-1.296709 0.34375,-1.59375 0.13113,-0.670335 0.12865,-1.786501 0.125,-2.28125 -9.1e-4,-0.123687 -0.006,-0.217815 0,-0.25 0.0178,-0.09656 0.0807,0.312079 0.28125,1.59375 0.16382,1.046767 0.54767,2.687946 0.71875,3.5625 0.1698,0.867992 0.29811,1.322122 0.40625,1.875002 l 28.21875,0 c 0.0388,-0.49496 0.0352,-1.098591 0.0625,-1.500002 0.0205,-0.301057 0.0665,-0.487005 0.15625,-0.46875 0.0299,0.0061 0.0508,0.03882 0.0937,0.09375 0.23345,0.298339 0.6306,1.164912 0.96875,1.875002 l 8.03125,0 c 3.324,0 6,-2.676002 6,-6.000002 l 0,-7.21875 c -0.16942,0.0045 -0.29011,-4e-6 -0.5,0 -1.33031,0 -2.63846,-4e-6 -3.96875,0 -1.22656,0 -2.05394,-9.64e-4 -2.25,-0.0625 -0.19606,-0.06154 0.23297,-0.183183 1.46875,-0.5 0.65503,-0.167931 3.34247,-0.928077 5.25,-1.34375 l 0,-38.40625 c -0.65275,-0.266338 -1.20703,-0.488657 -1.75,-0.90625 -0.14251,-0.109614 -0.44885,-0.392472 -0.96875,-0.5625 -0.5199,-0.170028 -1.27413,-0.256145 -2.28125,-0.0625 -1.53347,0.294852 -1.6856,0.283469 -1.25,0.15625 0.4356,-0.127221 1.46863,-0.381012 2.25,-0.53125 1.15272,-0.221645 2.72221,-1.204246 4,-1.84375 l 0,-4.5625 c -0.69831,-0.257978 -1.42221,-0.558272 -1.75,-1.0625 -0.20971,-0.322576 -0.32162,-0.513018 -0.3125,-0.625 0.009,-0.111981 0.13299,-0.149124 0.25,-0.1875 0.11701,-0.03837 0.26103,-0.05449 0.375,-0.15625 0.11397,-0.101759 0.1875,-0.291619 0.1875,-0.59375 0,-0.32292 0.0825,-0.887065 0.0625,-1.40625 -0.01,-0.259593 -0.0356,-0.49724 -0.125,-0.6875 -0.0894,-0.19026 -0.21909,-0.333004 -0.4375,-0.375 -0.57457,-0.110478 -0.84814,-0.233682 -0.90625,-0.34375 -0.0581,-0.110067 0.0721,-0.18937 0.28125,-0.28125 0.41834,-0.18376 1.13253,-0.339398 1.125,-0.34375 -0.6687,-0.385725 -5.24717,-0.921226 -5,-0.96875 0.33257,-0.06395 0.66744,-0.123553 1,-0.1875 1.04764,-0.201439 2.43278,-0.309227 3.75,-0.5625 0.57326,-0.110227 0.91177,-0.250569 1.125,-0.4375 0.21323,-0.18693 0.2942,-0.423258 0.375,-0.625 l 0,-8.3125 c 0,-3.324 -2.676,-6 -6,-6 l -51.375,0 c 0.0966,1.39757 0.20158,2.959362 -0.0937,2.1875 -0.21042,-0.549954 -0.32083,-1.137547 -0.53125,-1.6875 -0.0532,-0.13914 -0.0961,-0.329471 -0.15625,-0.5 l -2.03125,0 c -0.2407,0.492312 -0.44964,0.970828 -0.78125,1.1875 -0.50693,0.331229 -0.7858,0.494616 -1.03125,0.40625 -0.24545,-0.08837 -0.47684,-0.426769 -0.84375,-0.90625 -0.16375,-0.213983 -0.43453,-0.431467 -0.75,-0.6875 l -6.8125,0 -1.3125,5.5625 -1.75,-5.5625 -0.21875,0 -1.75,8.9375 -1.40625,-8.9375 -3.15625,0 z" />
  <g
     id="g15322"
     transform="translate(-0.26552725,-2.898595)">
    <path
       inkscape:connector-curvature="0"
       id="path15119"
       d="m 51.78125,11.5625 c -7.015723,0.05652 -13.858607,0.835015 -19.84375,2.25 -0.03018,0.0071 -0.06361,0.02408 -0.09375,0.03125 -1.92553,-0.08936 -3.966205,-0.02438 -6.15625,0.3125 a 1.150115,1.150115 0 0 0 -0.21875,0.0625 C 18.255382,16.910369 12.216882,22.814161 8.96875,31.875 8.26762,33.852112 7.748501,35.944809 7.3125,38.09375 7.29913,38.15963 7.26314,38.215254 7.25,38.28125 6.2649607,40.908035 5.8639614,44.0042 6.4375,47.4375 l -0.03125,0 c 3e-7,0.0685 0.031048,0.119213 0.03125,0.1875 0.010347,3.503819 0.288619,6.728031 0.78125,9.6875 -0.002,0.01254 6e-6,0.06256 0,0.0625 a 1.150115,1.150115 0 0 0 0.03125,0.15625 1.150115,1.150115 0 0 0 0.03125,0.125 1.150115,1.150115 0 0 0 0.03125,0.0625 1.150115,1.150115 0 0 0 0.03125,0.09375 c 0.01418,0.04679 0.01151,0.09148 0.03125,0.15625 0.06392,0.209739 0.162659,0.510187 0.28125,0.875 0.237182,0.729625 0.58087,1.710526 1.03125,2.84375 0.874665,2.200792 2.162956,4.898574 3.875,7.125 0.03601,0.07501 0.08861,0.143841 0.125,0.21875 4.999382,10.29027 13.555291,19.634361 26.90625,21.0625 a 1.150115,1.150115 0 0 0 0.6875,-0.15625 c 0.22957,0.05682 0.648393,0.220517 0.84375,0.25 0.381826,0.05763 0.693428,0.0802 1.09375,-0.03125 0.291143,-0.08106 0.533831,-0.431998 0.75,-0.75 0.593399,0.147285 1.35124,0.426556 1.78125,0.46875 0.434481,0.04263 0.781139,0.04186 1.03125,0.03125 0.250111,-0.01061 0.501273,-0.07325 0.4375,-0.0625 a 1.150115,1.150115 0 0 0 0.96875,-1.0625 C 47.796428,88.73937 48.353964,88.77048 49,88.6875 a 1.150115,1.150115 0 0 0 0.25,-2.21875 c -1.427065,-0.535026 -3.318833,-1.675742 -5.3125,-3.09375 0.195325,-0.02226 0.476949,-0.0053 0.65625,-0.03125 0.546423,-0.07915 0.99537,-0.176188 1.375,-0.28125 0.189815,-0.05253 0.358208,-0.111523 0.53125,-0.1875 0.173042,-0.07598 0.368483,-0.03791 0.6875,-0.5625 a 1.150115,1.150115 0 0 0 0.03125,-0.03125 c 0.207991,-0.358722 0.152264,-0.646016 0.125,-0.8125 C 47.316486,81.302266 47.286523,81.209378 47.25,81.125 47.176955,80.956244 47.113269,80.84362 47.03125,80.71875 46.867213,80.469009 46.666054,80.195176 46.40625,79.875 46.162619,79.574755 45.760768,79.121462 45.4375,78.75 l 1.3125,-0.53125 0.03125,0 8.125,-3.1875 0.96875,-0.375 0.8125,-0.3125 3.78125,-1.4375 A 1.150115,1.150115 0 0 0 60.5,72.875 1.150115,1.150115 0 0 0 60.6875,72.8125 1.150115,1.150115 0 0 0 60.78125,72.75 L 61,72.65625 a 1.150115,1.150115 0 0 0 0.09375,0 1.150115,1.150115 0 0 0 0.1875,-0.0625 l 3.6875,-1.4375 L 65,71.125 65.8125,70.84375 a 1.150115,1.150115 0 0 0 0.03125,-0.03125 l 1.46875,-0.59375 c -0.01265,0.06141 -0.05113,0.160459 -0.0625,0.21875 -0.06181,0.316952 -0.1063,0.587589 -0.125,0.84375 -0.0093,0.12808 -0.02419,0.25206 0,0.4375 0.02419,0.18544 -0.0018,0.62565 0.65625,0.96875 a 1.150115,1.150115 0 0 0 0.03125,0 c 0.385695,0.191493 0.515523,0.129283 0.65625,0.125 0.140727,-0.0043 0.252553,-0.01035 0.375,-0.03125 0.244895,-0.04181 0.506451,-0.09802 0.8125,-0.1875 0.336707,-0.09845 0.804735,-0.31332 1.21875,-0.46875 -0.153936,0.122133 -0.315934,0.32748 -0.46875,0.4375 A 1.150115,1.150115 0 0 0 71.25,74.625 c -0.248906,0.480782 -0.493661,0.870691 -0.75,1.46875 a 1.150115,1.150115 0 0 0 0.34375,1.34375 c -0.131118,0.184388 -0.238203,0.381149 -0.375,0.5625 a 1.150115,1.150115 0 0 0 1.65625,1.5625 c 1.668024,-1.412581 3.132977,-2.760627 4.53125,-4.09375 0.01011,-0.0096 0.02115,-0.02162 0.03125,-0.03125 -0.006,0.0093 -0.02541,0.04094 0.09375,-0.0625 a 1.150115,1.150115 0 0 0 0.03125,-0.03125 c 0.141562,-0.135507 0.345215,-0.319162 0.53125,-0.5 0.162178,-0.158121 0.379075,-0.369541 0.59375,-0.59375 0.01175,-0.01164 0.01952,-0.01961 0.03125,-0.03125 C 88.923915,63.349057 91.604193,54.472786 89.875,46.9375 c 0.0012,-0.01004 -0.0012,-0.02119 0,-0.03125 0.06061,-0.516351 0.108442,-1.053882 0.125,-1.59375 0.139765,-4.557047 -1.441501,-8.770166 -3.96875,-12.53125 -0.753597,-2.661671 -2.282766,-5.065027 -4.375,-7.15625 -0.04613,-0.04668 -0.085,-0.08516 -0.125,-0.125 -0.362652,-0.356996 -0.743297,-0.691687 -1.09375,-1 -0.221126,-0.196044 -0.414542,-0.355913 -0.625,-0.53125 a 1.150115,1.150115 0 0 0 -0.03125,0 C 79.66468,23.872132 79.560738,23.755279 79.4375,23.65625 78.994414,23.29882 78.56196,22.963233 78.09375,22.625 78.048383,22.592216 77.941769,22.529192 77.8125,22.4375 77.576548,22.270359 77.465895,22.226358 77.5,22.25 77.147835,22.005466 76.784271,21.732656 76.375,21.46875 75.988886,21.220507 75.589442,20.946144 75.15625,20.6875 75.11369,20.66196 75.034534,20.60714 74.90625,20.53125 74.464097,20.271159 74.026668,20.049852 73.59375,19.8125 73.55327,19.79014 73.483872,19.74698 73.375,19.6875 72.940884,19.452237 72.477214,19.179603 72,18.9375 71.793011,18.831609 71.718232,18.81183 71.78125,18.84375 71.71558,18.81076 71.630415,18.78401 71.5625,18.75 71.54256,18.74 71.5201,18.72878 71.5,18.71875 c -0.01194,-0.006 -0.01926,-0.02528 -0.03125,-0.03125 -0.0219,-0.02072 -0.04066,-0.04193 -0.0625,-0.0625 -0.312045,-0.293825 -0.613248,-0.565385 -0.9375,-0.84375 -0.352177,-0.301615 -0.69632,-0.591982 -1.0625,-0.875 -0.716856,-0.555492 -1.47547,-1.067323 -2.21875,-1.53125 -0.74676,-0.464822 -1.505685,-0.884772 -2.25,-1.25 -1.498059,-0.736982 -2.992551,-1.310311 -4.5,-1.71875 -0.396597,-0.10732 -0.777747,-0.172427 -1.125,-0.25 -0.363219,-0.08101 -0.738961,-0.15018 -1.125,-0.21875 A 1.150115,1.150115 0 0 0 58.125,11.90625 c -0.107891,-0.01051 -0.025,-2.71e-4 -0.03125,0 0.0023,2.29e-4 -0.03138,3.48e-4 -0.03125,0 1.29e-4,-3.48e-4 -0.02902,8.27e-4 -0.03125,0 -0.06874,-0.01681 -0.148911,-0.01583 -0.21875,-0.03125 -0.589488,-0.130191 -1.210531,-0.231037 -1.84375,-0.28125 -0.399828,-0.03165 -0.780915,-0.03179 -1.125,-0.03125 -0.365736,5.91e-4 -0.668021,0.03474 -0.96875,0.0625 -0.0495,-0.003 -0.106316,0.0029 -0.15625,0 C 53.568449,11.6162 53.415285,11.60009 53.25,11.59375 52.785567,11.57592 52.305562,11.55828 51.78125,11.5625 z m 0,2.3125 c 0.457644,-0.0037 0.945533,0.01357 1.40625,0.03125 0.188707,0.0072 0.362935,0.01933 0.5625,0.03125 a 1.150115,1.150115 0 0 0 0.15625,0 c 0.330984,-0.03147 0.638075,-0.06202 0.9375,-0.0625 0.322359,-5.06e-4 0.639956,0.0077 0.9375,0.03125 0.618391,0.04904 1.20679,0.132454 1.6875,0.25 a 1.150115,1.150115 0 0 0 0.21875,0.03125 c -0.0499,-0.003 -0.04295,0.01163 0.15625,0.03125 a 1.150115,1.150115 0 0 0 0.03125,0 c 0.308033,0.05625 0.605623,0.113477 0.9375,0.1875 0.364021,0.08132 0.683569,0.164374 1,0.25 1.372715,0.371933 2.765159,0.862266 4.125,1.53125 0.688037,0.337612 1.395788,0.710004 2.0625,1.125 0.666564,0.416045 1.303896,0.891054 1.96875,1.40625 0.326376,0.252254 0.668489,0.528585 1,0.8125 0.323829,0.278002 0.6426,0.56569 0.96875,0.875 2.8e-5,2.6e-5 0.028,-0.0022 0.03125,0 0.0054,0.0037 0.01888,0.02276 0.03125,0.03125 0.01667,0.01743 0.0062,0.03961 0.0625,0.09375 a 1.150115,1.150115 0 0 0 0.3125,0.1875 c 0.119326,0.05892 0.218483,0.124575 0.34375,0.1875 0.20463,0.10365 0.284537,0.127405 0.21875,0.09375 0.424754,0.215489 0.863908,0.444391 1.3125,0.6875 0.03748,0.02048 0.113476,0.06684 0.21875,0.125 0.43427,0.238094 0.848821,0.482761 1.25,0.71875 0.03873,0.02291 0.12657,0.08218 0.25,0.15625 0.378162,0.225788 0.758202,0.462833 1.15625,0.71875 0.344701,0.22227 0.688769,0.459242 1.0625,0.71875 0.230777,0.159978 0.354048,0.216931 0.3125,0.1875 0.04061,0.02881 0.09598,0.09878 0.21875,0.1875 0.439458,0.317463 0.873016,0.639434 1.28125,0.96875 0.103409,0.0831 0.207426,0.162995 0.3125,0.25 0.0066,0.0055 0.02458,-0.0055 0.03125,0 0.204757,0.170594 0.414675,0.372487 0.59375,0.53125 0.357979,0.314933 0.674714,0.58555 0.96875,0.875 0.04213,0.04197 0.0899,0.08948 0.125,0.125 1.972453,1.9715 3.32351,4.140627 3.90625,6.46875 a 1.150115,1.150115 0 0 0 0.15625,0.375 c 2.335591,3.475856 3.715895,7.173727 3.59375,11.15625 -0.01372,0.447176 -0.06722,0.949069 -0.125,1.4375 a 1.150115,1.150115 0 0 0 0.03125,0.40625 C 89.288866,53.839567 87.178875,61.85652 76.3125,72.625 a 1.150115,1.150115 0 0 0 -0.03125,0.03125 c -0.182004,0.191584 -0.388563,0.392914 -0.5625,0.5625 -0.124251,0.12078 -0.266723,0.244189 -0.4375,0.40625 -0.01263,0.01199 -0.01851,0.01906 -0.03125,0.03125 0.01314,-0.01457 0.02117,-0.034 -0.09375,0.0625 A 1.150115,1.150115 0 0 0 75.125,73.75 c -0.232564,0.221851 -0.512836,0.46447 -0.75,0.6875 a 1.150115,1.150115 0 0 0 -0.15625,-0.125 c 0.216774,-0.294644 0.495377,-0.957816 0.6875,-1.15625 a 1.150115,1.150115 0 0 0 0,-1.625 C 75.020593,71.407204 75.136618,71.313808 75.25,71.1875 a 1.150115,1.150115 0 0 0 0.125,-0.15625 c 0.583396,-0.906487 1.121445,-1.847764 1.59375,-2.8125 a 1.150115,1.150115 0 0 0 -1.875,-1.28125 c -0.953604,1.053907 -2.673714,2.066762 -4.15625,2.71875 -0.485749,0.213622 -0.849292,0.329951 -1.25,0.46875 0.105693,-0.460122 0.213464,-0.864488 0.375,-1.46875 A 1.150115,1.150115 0 0 0 68.5,67.28125 l -3.5,1.375 0,0.03125 -0.03125,0 -0.8125,0.28125 A 1.150115,1.150115 0 0 0 64.125,69 l -3.4375,1.375 -0.09375,0 a 1.150115,1.150115 0 0 0 -0.1875,0.0625 L 59.625,70.75 a 1.150115,1.150115 0 0 0 -0.1875,0.09375 1.150115,1.150115 0 0 0 -0.09375,0.0625 l -3.46875,1.3125 -0.8125,0.3125 -0.96875,0.375 -8.15625,3.1875 a 1.150115,1.150115 0 0 0 -0.03125,0 L 44.3125,76.75 l -0.03125,0 -1.21875,0.46875 A 1.150115,1.150115 0 0 0 42.625,79.0625 c 0.71085,0.783762 1.290777,1.417127 1.75,1.96875 -0.05095,0.008 -0.07189,0.02356 -0.125,0.03125 -0.946146,0.137047 -2.221172,0.224717 -3.53125,0.15625 A 1.150115,1.150115 0 0 0 39.90625,83.25 c 1.610582,1.399501 3.183025,2.508664 4.65625,3.40625 a 1.150115,1.150115 0 0 0 -0.75,0.59375 c -0.553117,-0.11978 -0.997578,-0.14429 -1.78125,-0.46875 a 1.150115,1.150115 0 0 0 -0.625,-0.0625 c -2.3e-5,4e-6 -0.284335,0.547719 -0.53125,1.03125 -0.489383,-0.118518 -1.030057,-0.263573 -2.15625,-0.71875 a 1.150115,1.150115 0 0 0 -1.3125,0.3125 C 26.334341,85.189746 19.075021,77.080705 14.625,67.8125 A 1.150115,1.150115 0 0 0 14.5,67.59375 c -1.551914,-1.960946 -2.83266,-4.599092 -3.6875,-6.75 C 10.38508,59.768296 10.069557,58.819632 9.84375,58.125 9.730847,57.777684 9.655369,57.483434 9.59375,57.28125 9.57941,57.23419 9.54291,57.22597 9.53125,57.1875 9.531211,57.187049 9.49578,57.007576 9.46875,56.90625 9.45895,56.8796 9.468203,56.91555 9.4375,56.84375 8.966848,53.983714 8.718765,50.86618 8.71875,47.4375 A 1.150115,1.150115 0 0 0 8.6875,47.25 C 8.124637,44.081548 8.527106,41.254305 9.4375,38.90625 A 1.150115,1.150115 0 0 0 9.5,38.71875 c 0.423932,-2.128541 0.977632,-4.180121 1.65625,-6.09375 3.03209,-8.458179 8.476186,-13.741707 15,-16.21875 2.115481,-0.31836 4.073779,-0.38632 5.90625,-0.28125 a 1.150115,1.150115 0 0 0 0.34375,-0.03125 c 5.810176,-1.381706 12.485381,-2.163245 19.375,-2.21875 z"
       style="font-size:medium;font-style:normal;font-variant:normal;font-weight:normal;font-stretch:normal;text-indent:0;text-align:start;text-decoration:none;line-height:normal;letter-spacing:normal;word-spacing:normal;text-transform:none;direction:ltr;block-progression:tb;writing-mode:lr-tb;text-anchor:start;baseline-shift:baseline;opacity:0.16289595;color:#000000;fill:#000000;fill-opacity:1;stroke:none;stroke-width:2.29999995;marker:none;visibility:visible;display:inline;overflow:visible;enable-background:accumulate;font-family:Sans;-inkscape-font-specification:Sans" />
    <path
       style="fill:url(#radialGradient15419);fill-opacity:1;stroke:none"
       id="path7903"
       inkscape:connector-curvature="0"
       d="M 24.088111,45.641693 60.72685,57.016327 75.659608,29.844379 83.391597,38.624311 79.933081,64.064982 34.922568,81.624491 23.062838,63.946577 24.088111,45.641693 z" />
    <path
       sodipodi:nodetypes="ccccccccccc"
       d="m 71.136247,60.883557 12.297828,-5.441887 -0.6145,-8.116351 2.848649,-2.061598 c 0,0 0.01168,11.454378 -3.225241,21.696499 -9.308027,12.185424 -7.682024,7.180475 -7.692782,7.18392 -1.741655,1.940355 -3.175213,2.399227 -3.185962,2.402671 4.02207,-9.383802 6.719746,-1.955055 5.507617,-10.950889 -0.573145,3.739434 -8.274822,6.305124 -8.75867,6.0649 -0.313017,-0.163215 1.138751,-5.259656 2.368937,-9.275254 -9.019814,-4.032911 -8.415198,-5.173439 0.454124,-1.502011 z"
       inkscape:connector-curvature="0"
       id="path185"
       style="fill:#000000;stroke:none" />
    <path
       id="path4046"
       d="m 69.925089,22.904095 -3.5325,0.152927 C 78.908067,40.787953 83.137297,63.080749 71.367578,78.68384 105.53547,49.748446 82.510194,36.500108 69.925089,22.904107 z"
       style="fill:#ffffff;fill-opacity:1;fill-rule:nonzero;stroke:none"
       sodipodi:nodetypes="ccccc"
       inkscape:connector-curvature="0" />
    <path
       d="m 71.087369,73.503786 c 0,0 7.988044,-1.017065 14.016426,-14.953723 3.206106,-14.237844 -4.844836,8.367213 -14.027682,14.954386 l 0.01105,-6.49e-4 z"
       inkscape:connector-curvature="0"
       id="path187"
       style="fill:#000000;fill-opacity:1;stroke:none" />
    <path
       id="path7917"
       d="m 69.925089,22.904095 -3.5325,0.152927 c 12.515478,17.730931 16.978063,36.467537 6.32434,49.717066 28.021371,-23.005564 9.793265,-36.27398 -2.79184,-49.869981 z"
       style="fill:#000000;fill-opacity:1;fill-rule:nonzero;stroke:none"
       sodipodi:nodetypes="ccccc"
       inkscape:connector-curvature="0" />
    <path
       style="fill:#000000;stroke:none"
       id="path7802"
       inkscape:connector-curvature="0"
       d="m 37.184613,71.624353 -14.840956,0.734332 -4.21743,-9.076414 -3.911302,-0.693161 c 0,0 6.760603,12.350212 15.875079,21.650871 16.001686,8.137208 11.505964,3.616054 11.518165,3.613993 2.79331,1.1565 4.419563,0.881782 4.431764,0.879726 -9.349177,-7.954379 -7.507235,1.498832 -11.679735,-8.846043 2.752418,3.722301 11.548771,2.354636 11.864087,1.836128 0.19937,-0.343852 -4.185753,-5.057092 -7.722469,-8.724447 6.141253,-9.186018 4.895514,-10.090696 -1.317203,-1.374985 z"
       sodipodi:nodetypes="ccccccccccc" />
    <path
       d="M 24.088111,45.641693 60.72685,57.016327 75.659608,29.844379 83.391597,38.624311 79.933081,64.064982 34.922568,81.624491 23.062838,63.946577 24.088111,45.641693 z"
       inkscape:connector-curvature="0"
       id="path167"
       style="fill:#f6ffd5;fill-opacity:1;stroke:none" />
    <path
       sodipodi:nodetypes="cccccccccc"
       d="m 64.274707,60.843532 c 9.883106,-14.213444 14.136294,-20.458538 12.655017,-22.947736 8.024453,6.129129 -2.70051,16.87991 -1.512891,18.034963 3.062066,1.290821 3.737307,-1.83394 2.555463,4.859487 -1.382907,2.120661 0.657247,2.046918 5.614517,-0.528767 L 84.018985,35.699268 76.3032,28.675617 10.498474,41.537144 l 20.179569,9.81439 c 7.686489,2.071786 14.417599,0.140497 33.596664,9.491998 z"
       inkscape:connector-curvature="0"
       id="path169"
       style="fill:#f6ffd5;fill-opacity:1;stroke:none" />
    <path
       style="opacity:0.40723985;fill:#deaa87;fill-opacity:1;stroke:none"
       id="path7913"
       inkscape:connector-curvature="0"
       d="m 64.274707,60.843532 c 9.883106,-14.213444 14.136294,-20.458538 12.655017,-22.947736 8.024453,6.129129 -2.70051,16.87991 -1.512891,18.034963 3.062066,1.290821 3.737307,-1.83394 2.555463,4.859487 -1.382907,2.120661 0.657247,2.046918 5.614517,-0.528767 L 84.018985,35.699268 76.3032,28.675617 10.498474,41.537144 l 20.179569,9.81439 c 7.686489,2.071786 14.417599,0.140497 33.596664,9.491998 z"
       sodipodi:nodetypes="cccccccccc" />
    <path
       inkscape:connector-curvature="0"
       style="opacity:0.88481679;fill:#161650;stroke:none"
       d="m 80.355111,60.857577 -0.756794,0.273637 -0.548109,3.280331 0.885449,-0.353473 0.419454,-3.200495 z"
       id="path8241" />
    <path
       inkscape:connector-curvature="0"
       style="opacity:0.88481679;fill:#800000;stroke:none"
       d="m 78.807807,61.407952 -3.719642,1.328263 -0.600017,3.455103 3.774661,-1.469321 0.544998,-3.314045 z"
       id="path8239" />
    <path
       inkscape:connector-curvature="0"
       style="opacity:0.88481679;fill:#161650;stroke:none"
       d="m 74.267049,63.049769 -3.719634,1.328263 -0.621327,3.593057 3.77466,-1.46932 0.566301,-3.452 z"
       id="path8237" />
    <path
       inkscape:connector-curvature="0"
       style="opacity:0.88481679;fill:#161650;stroke:none"
       d="m 65.213045,66.262874 -3.719642,1.328263 -0.657719,3.936395 3.740944,-1.466218 0.636417,-3.79844 z"
       id="path8233" />
    <path
       inkscape:connector-curvature="0"
       style="opacity:0.88481679;fill:#800000;stroke:none"
       d="m 60.702902,67.867875 -3.716541,1.361975 -0.715839,4.043742 3.777754,-1.435607 0.654626,-3.97011 z"
       id="path8231" />
    <path
       inkscape:connector-curvature="0"
       style="opacity:0.88481679;fill:#161650;stroke:none"
       d="m 56.19586,69.506589 -3.753359,1.331364 -0.700331,4.212309 3.740944,-1.466218 0.712746,-4.077455 z"
       id="path8229" />
    <path
       inkscape:connector-curvature="0"
       style="opacity:0.88481679;fill:#800000;stroke:none"
       d="m 51.651999,71.114691 -3.719642,1.328263 -0.752247,4.387081 3.77466,-1.469321 0.697229,-4.246023 z"
       id="path8227" />
    <path
       inkscape:connector-curvature="0"
       style="opacity:0.88481679;fill:#161650;stroke:none"
       d="m 47.111241,72.756508 -3.689027,1.291447 -0.804164,4.561853 3.740943,-1.466219 0.752248,-4.387081 z"
       id="path8225" />
    <path
       inkscape:connector-curvature="0"
       style="opacity:0.88481679;fill:#800000;stroke:none"
       d="m 42.601097,74.361509 -3.719642,1.328263 -0.791749,4.696706 3.740944,-1.466219 0.770447,-4.55875 z"
       id="path8223" />
    <path
       inkscape:connector-curvature="0"
       style="opacity:0.88481679;fill:#161650;stroke:none"
       d="m 38.090945,75.96651 -4.476435,1.6019 1.291863,4.062978 2.362217,-0.931356 0.822355,-4.733522 z"
       id="path8197" />
    <path
       inkscape:connector-curvature="0"
       style="opacity:0.88481679;fill:#800000;stroke:none"
       d="m 69.756905,64.65477 -3.719642,1.328263 -0.639519,3.764726 3.740944,-1.466218 0.618217,-3.626771 z"
       id="path8235" />
    <path
       d="m 28.048086,44.607001 0.347126,-6.202455 50.452899,-10.469182 0.290601,0.325904 0.480871,0.548419 L 64.686825,55.981635 28.048086,44.607001 z"
       inkscape:connector-curvature="0"
       id="path173"
       style="fill:#f6ffd5;fill-opacity:1;stroke:none" />
    <path
       inkscape:connector-curvature="0"
       sodipodi:nodetypes="ccccc"
       style="fill:#ecdcb5;fill-opacity:1;fill-rule:nonzero;stroke:none"
       d="m 69.742065,21.916194 -5.994647,6.70623 C 72.858856,43.362109 80.65696,45.72606 81.408138,64.82147 95.431303,27.60604 76.277389,36.475139 69.74203,21.916207 z"
       id="path4044" />
    <path
       sodipodi:nodetypes="ccccccccc"
       style="opacity:0.40723985;fill:#deaa87;fill-opacity:1;stroke:none"
       d="m 39.488754,35.237608 -7.507654,-3.195592 -4.919783,4.097121 -6.667928,1.37625 -0.731632,-0.329967 -0.524187,8.950384 c 0.753415,7.479595 7.97135,19.651999 15.697269,21.268129 C 31.730018,61.287676 25.024666,55.517942 28.648567,46.389569 39.98623,54.370231 28.074138,38.277468 39.488754,35.237608 z"
       id="path177"
       inkscape:connector-curvature="0" />
    <path
       sodipodi:nodetypes="cccccc"
       d="m 53.163197,33.792388 c 2.704334,-0.373425 15.357924,-0.577531 16.467191,0.07314 -6.254169,4.120731 -4.405578,6.667407 -6.139622,13.251461 -0.586238,2.370016 -0.705919,8.072637 -2.820352,9.55218 -0.972847,-2.594195 -5.413881,-7.19441 -6.154177,-7.738434 C 42.042712,41.714882 31.420941,36.670676 53.163197,33.792389 z"
       inkscape:connector-curvature="0"
       id="path183"
       style="opacity:0.40723985;fill:#deaa87;fill-opacity:1;stroke:none" />
    <path
       sodipodi:nodetypes="cscscccc"
       id="path7808"
       d="m 16.492452,21.832037 c 6.444984,-5.498083 20.460153,-8.995201 35.292856,-9.114696 15.711289,-0.126572 16.664779,11.218419 16.664779,11.218419 -5.35086,2.392482 -10.472714,9.770309 -16.977163,10.984548 -6.395803,1.193971 -8.375527,2.676574 -9.0369,2.967949 -3.27969,4.046288 -14.323712,-0.529682 -10.690399,-6.266368 -7.795849,1.594046 -10.94354,-3.355257 -8.183199,-7.364336 -3.854866,3.510856 -11.325087,1.913985 -7.069974,-2.425516 z"
       style="fill:#ffffff;fill-opacity:1;stroke:none"
       inkscape:connector-curvature="0" />
    <path
       inkscape:connector-curvature="0"
       id="path7820"
       d="m 54.850164,12.704378 c 0.333222,-5.23e-4 0.662576,0.02908 1.011262,0.05668 0.663315,0.0526 1.312255,0.138984 1.877111,0.277106 0.08405,0.005 0.145056,0.01627 0.234077,0.02504 5.728422,1.017508 11.685698,4.096925 16.658281,10.997686 2.876163,3.991424 2.342519,7.810938 1.27566,10.46934 0.01319,0.0091 0.02816,0.02352 0.041,0.03642 0.306796,0.307903 0.178791,0.542571 -0.03405,0.738567 1.344324,2.701336 0.348232,7.228815 0.348232,7.228815 0,0 -0.677104,-0.726195 -1.490886,-1.617913 l -3.420324,-2.783565 -0.03868,0.0023 c -1.967131,-0.232355 -4.922975,-1.069947 -8.251756,-3.855827 -1.735247,-0.322838 -3.864768,-0.189437 -6.081217,0.08681 -0.706337,0.131417 -1.306364,0.189707 -1.808902,0.22278 -0.547984,0.164664 -1.179401,0.263457 -1.842985,0.30238 -2.181617,0.127961 -3.924876,-0.553303 -3.929279,-1.551828 -0.0045,-0.998534 1.729213,-1.924416 3.91083,-2.052365 0.241206,-0.01414 0.468295,-0.0078 0.697666,-0.0022 0.495425,0.01201 0.954968,0.09788 1.368067,0.190789 0.126936,-0.08216 0.237517,-0.172716 0.37267,-0.254548 -0.565783,0.0616 -1.133536,0.09939 -1.740737,0.0637 -3.554435,-0.208471 -6.272477,-2.090612 -6.063365,-4.217318 0.165011,-1.678302 2.089833,-3.032706 4.644744,-3.413651 -2.229229,-0.692051 -3.702931,-2.09505 -3.547652,-3.628927 0.181161,-1.789535 2.525062,-3.16531 5.462857,-3.345536 -2.431308,-0.330681 -4.182554,-1.314435 -4.013416,-2.322202 0.161963,-0.964906 2.028255,-1.64867 4.360818,-1.652438 z"
       style="fill:#ffffff;fill-opacity:1;fill-rule:nonzero;stroke:none" />
    <path
       style="fill:#ffffff;fill-opacity:1;stroke:none"
       d="m 57.984824,13.052639 c 5.728432,1.017506 11.65667,4.098147 16.629253,10.998911 5.267141,7.309518 -0.863078,14.091325 -0.863078,14.091325 0,0 -4.82833,1.031747 -10.689,-3.873095 -1.735247,-0.322835 -3.853076,-0.18538 -6.069533,0.09086 -5.650631,1.051386 -4.504813,-1.272545 -0.965539,-3.321762 -3.732913,-0.06366 -4.379366,-6.898604 0.577611,-7.284233 -3.616637,-3.069978 -1.412979,-6.343873 2.124183,-6.509806 -3.571931,-0.527709 -4.990756,-4.605887 -0.743897,-4.192203 z"
       id="path7824"
       sodipodi:nodetypes="csccccccc"
       inkscape:connector-curvature="0" />
    <path
       style="fill:#ffffff;fill-opacity:1;stroke:none"
       d="m 57.620862,13.234865 c 5.72844,1.017503 11.656669,4.098145 16.629261,10.998909 C 79.517256,31.543293 73.387054,38.3251 73.387054,38.3251 76.445002,33.725768 77.698656,24.192042 58.364776,17.427068 54.792828,16.899359 53.374011,12.82118 57.620862,13.234865 z"
       id="path7826"
       sodipodi:nodetypes="csccc"
       inkscape:connector-curvature="0" />
    <path
       sodipodi:nodetypes="ccscc"
       id="path7828"
       d="m 73.829235,36.440846 c 0,0 -0.776776,-1.510447 1.216363,-1.366209 0.405478,-0.425721 0.678904,-0.737086 0.890288,-0.524946 0.721873,0.724478 -0.790973,1.177971 -0.790973,1.177971 l -1.315687,0.713171 z"
       style="fill:#ffffff;fill-opacity:1;stroke:none"
       inkscape:connector-curvature="0" />
    <path
       inkscape:connector-curvature="0"
       sodipodi:nodetypes="cccc"
       id="path7832"
       d="m 72.522889,36.124912 -3.4461,-4.668678 c 0,0 -5.823201,-8.744226 -10.019918,-10.800145 16.746001,5.888416 14.809085,10.56004 13.466018,15.468823 z"
       style="fill:#ffffff;fill-opacity:1;stroke:none" />
    <g
       transform="matrix(0.99653728,0.08314715,-0.08314715,0.99653728,-3.786186,-39.400542)"
       id="g15106">
      <path
         inkscape:connector-curvature="0"
         style="opacity:0.88481679;fill:#161650;stroke:none"
         d="m 77.767049,63.049769 -3.719634,1.328263 -0.621327,3.593057 3.77466,-1.46932 0.566301,-3.452 z"
         id="path15088" />
      <path
         inkscape:connector-curvature="0"
         style="opacity:0.88481679;fill:#161650;stroke:none"
         d="m 68.713045,66.262874 -3.719642,1.328263 -0.657719,3.936395 3.740944,-1.466218 0.636417,-3.79844 z"
         id="path15090" />
      <path
         inkscape:connector-curvature="0"
         style="opacity:0.88481679;fill:#800000;stroke:none"
         d="m 64.202902,67.867875 -3.716541,1.361975 -0.715839,4.043742 3.777754,-1.435607 0.654626,-3.97011 z"
         id="path15092" />
      <path
         inkscape:connector-curvature="0"
         style="opacity:0.88481679;fill:#161650;stroke:none"
         d="m 59.69586,69.506589 -3.753359,1.331364 -0.700331,4.212309 3.740944,-1.466218 0.712746,-4.077455 z"
         id="path15094" />
      <path
         inkscape:connector-curvature="0"
         style="opacity:0.88481679;fill:#800000;stroke:none"
         d="m 55.151999,71.114691 -3.719642,1.328263 -0.752247,4.387081 3.77466,-1.469321 0.697229,-4.246023 z"
         id="path15096" />
      <path
         inkscape:connector-curvature="0"
         style="opacity:0.88481679;fill:#161650;stroke:none"
         d="m 50.611241,72.756508 -3.689027,1.291447 -0.804164,4.561853 3.740943,-1.466219 0.752248,-4.387081 z"
         id="path15098" />
      <path
         inkscape:connector-curvature="0"
         style="opacity:0.88481679;fill:#800000;stroke:none"
         d="m 46.101097,74.361509 -3.719642,1.328263 -0.791749,4.696706 3.740944,-1.466219 0.770447,-4.55875 z"
         id="path15100" />
      <path
         inkscape:connector-curvature="0"
         style="opacity:0.88481679;fill:#800000;stroke:none"
         d="m 73.256905,64.65477 -3.719642,1.328263 -0.639519,3.764726 3.740944,-1.466218 0.618217,-3.626771 z"
         id="path15104" />
    </g>
    <path
       inkscape:connector-curvature="0"
       style="fill:#ffffff;fill-opacity:1;stroke:none"
       d="m 72.522889,36.124912 -3.4461,-4.668678 c 0,0 -5.823201,-8.744226 -10.019918,-10.800145 8.910758,9.177929 6.02496,15.789542 13.466018,15.468823 z"
       id="path7834"
       sodipodi:nodetypes="cccc" />
    <path
       sodipodi:nodetypes="ccscc"
       id="path7836"
       d="m 70.26865,33.599928 c 0.153978,0.345938 0.576452,0.341188 0.519803,-0.0215 -0.07416,-0.312136 0.640588,-1.080935 0.208318,-1.984443 -0.34267,-0.716238 -0.874103,-1.087362 -2.493912,-0.987347 -0.721489,0.866914 -0.731561,3.402847 1.765791,2.99327 z"
       style="fill:#ffffff;fill-opacity:1;stroke:none"
       inkscape:connector-curvature="0" />
    <path
       id="path7838"
       d="m 69.061958,30.590342 c -0.170216,-0.0019 -0.355112,0.0052 -0.557593,0.01757 -0.008,0.01012 -0.01604,0.02061 -0.02415,0.03118 0.610739,0.594111 1.157467,1.696859 1.788706,2.96018 0.01078,0.02321 0.0221,0.04568 0.03467,0.06578 0.174121,0.278704 0.537664,0.25145 0.484811,-0.08686 -0.07398,-0.312142 0.638993,-1.081104 0.206723,-1.984609 -0.299853,-0.626705 -0.741543,-0.989485 -1.933093,-1.003311 z"
       style="fill:#ffffff;fill-opacity:1;stroke:none"
       inkscape:connector-curvature="0" />
    <path
       transform="matrix(0.09616274,-0.00396421,0.00396421,0.09616274,16.65249,1.3051428)"
       d="m 550.35713,343.07648 c 0,7.49529 -6.07613,13.57143 -13.57142,13.57143 -7.4953,0 -13.57143,-6.07614 -13.57143,-13.57143 0,-7.4953 6.07613,-13.57143 13.57143,-13.57143 7.49529,0 13.57142,6.07613 13.57142,13.57143 z"
       sodipodi:ry="13.571428"
       sodipodi:rx="13.571428"
       sodipodi:cy="343.07648"
       sodipodi:cx="536.78571"
       id="path7840"
       style="fill:#ffffff;fill-opacity:1;fill-rule:nonzero;stroke:none"
       sodipodi:type="arc" />
    <path
       id="path7842"
       d="m 71.454353,36.402565 c 0,0 -1.266452,0.277759 -0.07861,0.989571 1.187825,0.711806 0.236991,-0.910496 0.07861,-0.989571 z"
       style="fill:#ffffff;fill-opacity:1;stroke:none"
       inkscape:connector-curvature="0" />
    <path
       style="fill:#ffffff;fill-opacity:1;stroke:none"
       d="m 73.829235,36.440846 c 0,0 -0.776776,-1.510447 1.216363,-1.366209 0.405478,-0.425721 0.678904,-0.737086 0.890288,-0.524946 0.721873,0.724478 -0.790973,1.177971 -0.790973,1.177971 l -1.315687,0.713171 z"
       id="path7848"
       sodipodi:nodetypes="ccscc"
       inkscape:connector-curvature="0" />
    <path
       id="path7850"
       d="m 75.728343,35.01489 c 0,0 -1.621867,1.742454 -3.957488,1.110434 -2.335639,-0.632019 4.476159,6.40968 4.476159,6.40968 0,0 1.066022,-4.869052 -0.518671,-7.520114 z"
       style="fill:#ffffff;fill-opacity:1;stroke:none"
       inkscape:connector-curvature="0" />
    <path
       style="fill:#ffffff;fill-opacity:1;stroke:none"
       d="m 75.728343,35.01489 c 0,0 -1.621867,1.742454 -3.957488,1.110434 -2.335639,-0.632019 4.476159,6.40968 4.476159,6.40968 0,0 1.066022,-4.869052 -0.518671,-7.520114 z"
       id="path7852"
       inkscape:connector-curvature="0" />
    <path
       id="path7854"
       d="m 74.700602,37.509058 c 0,0 0.435273,-0.198145 0.593867,0.276744 0.158594,0.474887 -0.07995,-1.464457 -0.593867,-0.276744 z"
       style="fill:#ffffff;fill-opacity:1;stroke:none"
       inkscape:connector-curvature="0" />
    <path
       sodipodi:type="arc"
       style="fill:#ffffff;fill-opacity:1;fill-rule:nonzero;stroke:none"
       id="path7856"
       sodipodi:cx="536.78571"
       sodipodi:cy="343.07648"
       sodipodi:rx="13.571428"
       sodipodi:ry="13.571428"
       d="m 550.35713,343.07648 c 0,7.49529 -6.07613,13.57143 -13.57142,13.57143 -7.4953,0 -13.57143,-6.07614 -13.57143,-13.57143 0,-7.4953 6.07613,-13.57143 13.57143,-13.57143 7.49529,0 13.57142,6.07613 13.57142,13.57143 z"
       transform="matrix(0.09616274,-0.00396421,0.00396421,0.09616274,16.65249,1.3051428)" />
    <path
       id="path7858"
       d="m 69.577063,30.864762 c -0.225235,0.0094 -0.435666,0.07333 -0.616443,0.181389 0.501361,0.329361 1.145524,0.918771 1.675094,1.955258 0.199112,-0.239938 0.313561,-0.549801 0.299701,-0.885861 -0.02959,-0.720773 -0.637584,-1.280503 -1.358352,-1.250792 z"
       style="fill:#ffffff;fill-opacity:1;fill-rule:nonzero;stroke:none"
       inkscape:connector-curvature="0" />
    <path
       transform="matrix(0.0962444,-5.2650359e-5,5.2650359e-5,0.0962444,18.276194,-0.70397883)"
       d="m 544.64283,343.07648 c 0,5.12836 -4.15735,9.28571 -9.28571,9.28571 -5.12836,0 -9.28572,-4.15735 -9.28572,-9.28571 0,-5.12836 4.15736,-9.28572 9.28572,-9.28572 5.12836,0 9.28571,4.15736 9.28571,9.28572 z"
       sodipodi:ry="9.2857141"
       sodipodi:rx="9.2857141"
       sodipodi:cy="343.07648"
       sodipodi:cx="535.35712"
       id="path7860"
       style="fill:#ffffff;fill-opacity:1;fill-rule:nonzero;stroke:none"
       sodipodi:type="arc" />
    <path
       sodipodi:type="arc"
       style="fill:#ffffff;fill-opacity:1;fill-rule:nonzero;stroke:none"
       id="path7862"
       sodipodi:cx="535.35712"
       sodipodi:cy="343.07648"
       sodipodi:rx="9.2857141"
       sodipodi:ry="9.2857141"
       d="m 544.64283,343.07648 c 0,5.12836 -4.15735,9.28571 -9.28571,9.28571 -5.12836,0 -9.28572,-4.15735 -9.28572,-9.28571 0,-5.12836 4.15736,-9.28572 9.28572,-9.28572 5.12836,0 9.28571,4.15736 9.28571,9.28572 z"
       transform="matrix(-0.02899177,0.0290235,-0.0290235,-0.02899177,95.911176,26.220558)" />
    <path
       inkscape:connector-curvature="0"
       sodipodi:nodetypes="cccc"
       style="fill:url(#linearGradient15421);fill-opacity:1;fill-rule:nonzero;stroke:none"
       d="m 61.423616,15.046755 -3.318487,1.190724 C 75.286688,27.81635 88.378913,44.009884 79.355578,62.838486 102.77116,40.595992 77.443974,23.03125 61.423616,15.046755 z"
       id="path4032" />
    <path
       id="path4034"
       d="m 61.423616,15.046755 -3.318487,1.190724 C 75.286688,27.81635 85.931713,45.822133 79.355578,62.838486 102.77116,40.595992 77.443974,23.03125 61.423616,15.046755 z"
       style="fill:url(#linearGradient15423);fill-opacity:1;fill-rule:nonzero;stroke:none"
       sodipodi:nodetypes="cccc"
       inkscape:connector-curvature="0" />
    <path
       id="path4038"
       d="m 63.364463,16.257479 -3.389834,1.005462 C 76.418282,31.427312 88.488272,50.266517 78.298041,70.020351 103.08071,47.81652 78.872247,26.395017 63.364463,16.257479 z"
       style="fill:url(#linearGradient15425);fill-opacity:1;fill-rule:nonzero;stroke:none"
       sodipodi:nodetypes="cccc"
       inkscape:connector-curvature="0" />
    <path
       inkscape:connector-curvature="0"
       sodipodi:nodetypes="cccc"
       style="fill:url(#linearGradient15427);fill-opacity:1;fill-rule:nonzero;stroke:none"
       d="m 63.364463,16.257479 -3.389834,1.005462 C 76.418282,31.427312 85.930171,52.027767 78.298041,70.020351 103.08071,47.81652 78.872247,26.395017 63.364463,16.257479 z"
       id="path4040" />
    <path
       inkscape:connector-curvature="0"
       sodipodi:nodetypes="cccc"
       style="fill:#dce2ed;fill-opacity:1;fill-rule:nonzero;stroke:none"
       d="m 63.364463,16.257479 -3.389834,1.005462 C 76.418282,31.427312 88.488272,50.266517 78.298041,70.020351 103.08071,47.81652 78.872247,26.395017 63.364463,16.257479 z"
       id="path4054" />
    <path
       id="path4056"
       d="m 63.364463,16.257479 -3.389834,1.005462 C 76.418282,31.427312 85.930171,52.027767 78.298041,70.020351 103.08071,47.81652 78.872247,26.395017 63.364463,16.257479 z"
       style="fill:#c6e2f8;fill-opacity:1;fill-rule:nonzero;stroke:none"
       sodipodi:nodetypes="cccc"
       inkscape:connector-curvature="0" />
    <path
       inkscape:connector-curvature="0"
       sodipodi:nodetypes="cccc"
       style="opacity:0.4375;fill:url(#linearGradient15429);fill-opacity:1;fill-rule:nonzero;stroke:none"
       d="m 61.423616,15.046755 -3.318487,1.190724 C 75.286688,27.81635 88.378913,44.009884 79.355578,62.838486 102.77116,40.595992 77.443974,23.03125 61.423616,15.046755 z"
       id="path4064" />
    <path
       id="path4066"
       d="m 61.423616,15.046755 -3.318487,1.190724 C 75.286688,27.81635 85.931713,45.822133 79.355578,62.838486 102.77116,40.595992 77.443974,23.03125 61.423616,15.046755 z"
       style="opacity:0.4375;fill:url(#linearGradient15431);fill-opacity:1;fill-rule:nonzero;stroke:none"
       sodipodi:nodetypes="cccc"
       inkscape:connector-curvature="0" />
    <path
       d="m 73.753351,29.115046 5.09476,-1.179682 0.293845,0.380914 0.486317,0.640912 -4.951736,10.584337 -0.0303,-0.0021 c -0.345887,-1.712574 -0.899594,-3.0497 -0.910869,-3.049036 -0.01105,6.5e-4 -0.02148,0.08442 -0.08111,0.223588 l -0.04055,-1.905612 c -0.06087,-1.545566 0.176215,-3.664464 0.128389,-5.692172 l 0.01105,-6.49e-4 z"
       inkscape:connector-curvature="0"
       id="path181"
       style="fill:#7f5a1b;fill-opacity:1;stroke:none" />
    <path
       id="path7713"
       d="M 63.734183,18.337211 59.97462,17.262942 c 16.443653,14.16437 24.745052,34.361429 18.323412,52.75741 9.72568,-20.702433 -2.300683,-41.291816 -14.563849,-51.683141 z"
       style="fill:#0b1728;fill-opacity:1;fill-rule:nonzero;stroke:none"
       sodipodi:nodetypes="cccc"
       inkscape:connector-curvature="0" />
    <path
       inkscape:connector-curvature="0"
       sodipodi:nodetypes="cccc"
       style="fill:#0b1728;fill-opacity:1;fill-rule:nonzero;stroke:none"
       d="M 57.084295,14.354918 54.141,15.615864 c 16.70724,7.55213 27.954705,20.82688 23.334908,34.956557 C 96.58283,36.8888 72.427041,19.197313 57.084295,14.354918 z"
       id="path7800" />
    <path
       id="path7798"
       d="M 57.084295,14.354918 54.141,15.615864 C 70.84824,23.167994 84.188916,34.771562 77.475908,50.572421 97.09878,30.69178 72.429706,19.165308 57.084295,14.354918 z"
       style="fill:#0b1728;fill-opacity:1;fill-rule:nonzero;stroke:none"
       sodipodi:nodetypes="cccc"
       inkscape:connector-curvature="0" />
    <path
       id="path6097"
       d="M 57.084295,14.354918 54.141,15.615864 C 70.84824,23.167994 84.188916,34.771562 77.475908,50.572421 97.09878,30.69178 72.429706,19.165308 57.084295,14.354918 z"
       style="fill:url(#linearGradient15433);fill-opacity:1;fill-rule:nonzero;stroke:none"
       sodipodi:nodetypes="cccc"
       inkscape:connector-curvature="0" />
    <path
       inkscape:connector-curvature="0"
       sodipodi:nodetypes="cccc"
       style="fill:url(#linearGradient15435);fill-opacity:1;fill-rule:nonzero;stroke:none"
       d="M 57.084295,14.354918 54.141,15.615864 c 16.70724,7.55213 27.954705,20.82688 23.334908,34.956557 C 97.09878,30.69178 72.429706,19.165308 57.084295,14.354918 z"
       id="path6099" />
    <path
       id="path36791"
       d="M 57.084295,14.354918 54.141,15.615864 c 16.70724,7.55213 27.954705,20.82688 23.334908,34.956557 C 98.26197,29.722451 72.429706,19.165308 57.084295,14.354918 z"
       style="fill:#ffffff;fill-opacity:1;fill-rule:nonzero;stroke:none"
       sodipodi:nodetypes="cccc"
       inkscape:connector-curvature="0" />
    <path
       inkscape:connector-curvature="0"
       sodipodi:nodetypes="cccc"
       style="fill:#ffffff;fill-opacity:1;fill-rule:nonzero;stroke:none"
       d="M 57.084295,14.354918 54.141,15.615864 C 70.84824,23.167994 84.188916,34.771562 77.475908,50.572421 97.09878,30.69178 72.429706,19.165308 57.084295,14.354918 z"
       id="path7792" />
    <path
       id="path7794"
       d="M 57.084295,14.354918 54.141,15.615864 c 16.70724,7.55213 27.954705,20.82688 23.334908,34.956557 C 97.09878,30.69178 72.429706,19.165308 57.084295,14.354918 z"
       style="fill:#ffffff;fill-opacity:1;fill-rule:nonzero;stroke:none"
       sodipodi:nodetypes="cccc"
       inkscape:connector-curvature="0" />
    <path
       id="path4098"
       d="m 61.423616,15.046755 -3.318487,1.190724 C 75.286688,27.81635 88.378913,44.009884 79.355578,62.838486 102.77116,40.595992 77.443974,23.03125 61.423616,15.046755 z"
       style="fill:#87cdde;fill-opacity:1;fill-rule:nonzero;stroke:none"
       sodipodi:nodetypes="cccc"
       inkscape:connector-curvature="0" />
    <path
       id="path4104"
       d="M 57.084295,14.354918 54.141,15.615864 C 70.569227,23.391204 81.500922,36.921957 77.475908,50.572421 98.56642,30.447174 72.828315,19.098873 57.084295,14.354918 z"
       style="fill:#5599ff;fill-opacity:1;fill-rule:nonzero;stroke:none"
       sodipodi:nodetypes="cccc"
       inkscape:connector-curvature="0" />
    <path
       id="path8345"
       d="m 68.836358,29.367521 -0.780297,0.196841 -0.872338,3.209364 0.916261,-0.263456 0.736374,-3.142749 z"
       style="opacity:0.88481679;fill:#161650;stroke:none"
       inkscape:connector-curvature="0" />
    <path
       id="path8347"
       d="m 67.241906,29.76093 -3.833512,0.950898 -0.941413,3.378091 3.902319,-1.08577 0.872606,-3.243219 z"
       style="opacity:0.88481679;fill:#800000;stroke:none"
       inkscape:connector-curvature="0" />
    <path
       inkscape:connector-curvature="0"
       style="fill:#c7dff2;fill-opacity:1;stroke:none"
       d="m 16.492452,21.832037 c 6.444984,-5.498083 20.460153,-8.995201 35.292856,-9.114696 15.711289,-0.126572 16.664779,11.218419 16.664779,11.218419 -5.35086,2.392482 -10.472714,9.770309 -16.977163,10.984548 -6.395803,1.193971 -8.375527,2.676574 -9.0369,2.967949 -3.27969,4.046288 -14.323712,-0.529682 -10.690399,-6.266368 -7.795849,1.594046 -10.94354,-3.355257 -8.183199,-7.364336 -3.854866,3.510856 -11.325087,1.913985 -7.069974,-2.425516 z"
       id="path5202"
       sodipodi:nodetypes="cscscccc" />
    <path
       inkscape:connector-curvature="0"
       sodipodi:nodetypes="csccccccc"
       id="path4116"
       d="m 57.984824,13.052639 c 5.728432,1.017506 11.65667,4.098147 16.629253,10.998911 5.267141,7.309518 -0.863078,14.091325 -0.863078,14.091325 0,0 -4.82833,1.031747 -10.689,-3.873095 -1.735247,-0.322835 -3.853076,-0.18538 -6.069533,0.09086 -5.650631,1.051386 -4.504813,-1.272545 -0.965539,-3.321762 -3.732913,-0.06366 -4.379366,-6.898604 0.577611,-7.284233 -3.616637,-3.069978 -1.412979,-6.343873 2.124183,-6.509806 -3.571931,-0.527709 -4.990756,-4.605887 -0.743897,-4.192203 z"
       style="fill:#f1f9fb;fill-opacity:1;stroke:none" />
    <path
       inkscape:connector-curvature="0"
       style="fill:#b30000;fill-opacity:1;stroke:none"
       d="m 73.829235,36.440846 c 0,0 -0.776776,-1.510447 1.216363,-1.366209 0.405478,-0.425721 0.678904,-0.737086 0.890288,-0.524946 0.721873,0.724478 -0.790973,1.177971 -0.790973,1.177971 l -1.315687,0.713171 z"
       id="path4120"
       sodipodi:nodetypes="ccscc" />
    <path
       style="fill:#89c0f2;fill-opacity:1;stroke:none"
       d="m 72.522889,36.124912 -3.4461,-4.668678 c 0,0 -5.823201,-8.744226 -10.019918,-10.800145 16.746001,5.888416 14.809085,10.56004 13.466018,15.468823 z"
       id="path4124"
       sodipodi:nodetypes="cccc"
       inkscape:connector-curvature="0" />
    <path
       sodipodi:nodetypes="cccc"
       id="path4126"
       d="m 72.522889,36.124912 -3.4461,-4.668678 c 0,0 -5.823201,-8.744226 -10.019918,-10.800145 8.910758,9.177929 6.02496,15.789542 13.466018,15.468823 z"
       style="fill:#c7dff2;fill-opacity:1;stroke:none"
       inkscape:connector-curvature="0" />
    <path
       inkscape:connector-curvature="0"
       style="fill:#65a5fb;fill-opacity:1;stroke:none"
       d="m 70.26865,33.599928 c 0.153978,0.345938 0.576452,0.341188 0.519803,-0.0215 -0.07416,-0.312136 0.640588,-1.080935 0.208318,-1.984443 -0.34267,-0.716238 -0.874103,-1.087362 -2.493912,-0.987347 -0.721489,0.866914 -0.731561,3.402847 1.765791,2.99327 z"
       id="path4128"
       sodipodi:nodetypes="ccscc" />
    <path
       inkscape:connector-curvature="0"
       style="fill:#28224d;fill-opacity:1;stroke:none"
       d="m 69.061958,30.590342 c -0.170216,-0.0019 -0.355112,0.0052 -0.557593,0.01757 -0.008,0.01012 -0.01604,0.02061 -0.02415,0.03118 0.610739,0.594111 1.157467,1.696859 1.788706,2.96018 0.01078,0.02321 0.0221,0.04568 0.03467,0.06578 0.174121,0.278704 0.537664,0.25145 0.484811,-0.08686 -0.07398,-0.312142 0.638993,-1.081104 0.206723,-1.984609 -0.299853,-0.626705 -0.741543,-0.989485 -1.933093,-1.003311 z"
       id="path4130" />
    <path
       sodipodi:type="arc"
       style="fill:#b30000;fill-opacity:1;fill-rule:nonzero;stroke:none"
       id="path4132"
       sodipodi:cx="536.78571"
       sodipodi:cy="343.07648"
       sodipodi:rx="13.571428"
       sodipodi:ry="13.571428"
       d="m 550.35713,343.07648 c 0,7.49529 -6.07613,13.57143 -13.57142,13.57143 -7.4953,0 -13.57143,-6.07614 -13.57143,-13.57143 0,-7.4953 6.07613,-13.57143 13.57143,-13.57143 7.49529,0 13.57142,6.07613 13.57142,13.57143 z"
       transform="matrix(0.09616274,-0.00396421,0.00396421,0.09616274,16.65249,1.3051428)" />
    <path
       inkscape:connector-curvature="0"
       style="fill:#fdfefe;fill-opacity:1;stroke:none"
       d="m 71.454353,36.402565 c 0,0 -1.266452,0.277759 -0.07861,0.989571 1.187825,0.711806 0.236991,-0.910496 0.07861,-0.989571 z"
       id="path4134" />
    <path
       id="path7844"
       d="m 75.692398,41.664526 -4.435026,-3.559868 c 0,0 -0.158853,-1.068606 0.434623,-1.425157 0.593511,-0.356567 3.960822,4.985047 4.000403,4.985025 z"
       style="fill:#ff7f2a;fill-opacity:1;stroke:none"
       inkscape:connector-curvature="0" />
    <path
       inkscape:connector-curvature="0"
       style="fill:#ff7f2a;fill-opacity:1;stroke:none"
       d="m 75.775218,35.155515 c 0,0 -1.621867,1.742454 -3.957488,1.110434 -2.335639,-0.632019 4.476159,6.40968 4.476159,6.40968 0,0 1.066022,-4.869052 -0.518671,-7.520114 z"
       id="path4142" />
    <path
       inkscape:connector-curvature="0"
       style="fill:#2b1100;fill-opacity:1;stroke:none"
       d="m 74.700602,37.509058 c 0,0 0.435273,-0.198145 0.593867,0.276744 0.158594,0.474887 -0.07995,-1.464457 -0.593867,-0.276744 z"
       id="path4146" />
    <path
       sodipodi:type="arc"
       style="fill:#000000;fill-opacity:1;fill-rule:nonzero;stroke:none"
       id="path4150"
       sodipodi:cx="535.35712"
       sodipodi:cy="343.07648"
       sodipodi:rx="9.2857141"
       sodipodi:ry="9.2857141"
       d="m 544.64283,343.07648 c 0,5.12836 -4.15735,9.28571 -9.28571,9.28571 -5.12836,0 -9.28572,-4.15735 -9.28572,-9.28571 0,-5.12836 4.15736,-9.28572 9.28572,-9.28572 5.12836,0 9.28571,4.15736 9.28571,9.28572 z"
       transform="matrix(0.0962444,-5.2650359e-5,5.2650359e-5,0.0962444,18.276194,-0.70397883)" />
    <path
       sodipodi:nodetypes="scccccccccs"
       inkscape:connector-curvature="0"
       id="path5867"
       d="m 32.87532,34.741565 c -0.552049,0.13988 -3.224849,8.178128 -3.224849,8.178128 0,0 6.96327,-1.656895 11.34449,-3.908334 6.750843,-2.978867 13.41148,-5.181401 22.119062,-4.490743 3.069535,3.142587 7.969915,3.643375 8.1872,3.689269 0.544089,0.406204 0.747568,0.600344 0.747568,0.600344 C 71.677814,38.362258 71.230108,37.857477 71.271365,37.702931 68.26364,37.460857 63.582416,35.44383 63.507611,33.717405 56.697248,34.547844 55.219714,32.676317 43.689803,37.171476 39.762742,39.05427 35.23382,37.981225 33.603289,35.312321 33.26135,34.759666 33.059333,34.694939 32.87532,34.741565 z"
       style="fill:#0b1728;fill-opacity:1;stroke:none" />
    <path
       sodipodi:nodetypes="ccccccscccc"
       d="m 7.776716,42.167848 16.001498,-7.810532 2.343464,15.788217 c -0.119868,1.03614 -0.174833,2.151382 -0.184691,3.328051 0.0071,-0.19644 0.0071,-0.384928 0,-0.576731 2.648433,21.733639 16.247536,32.14324 22.912219,34.641919 -8.129686,1.044259 -13.311862,-1.50028 -13.323127,-1.499617 -0.01105,6.5e-4 1.171897,1.272917 4.188294,2.885789 C 14.545393,86.232643 7.038889,54.679344 7.765512,42.168507 l 0.01105,-6.49e-4 z"
       inkscape:connector-curvature="0"
       id="path207"
       style="fill:#ffffff;fill-opacity:1;stroke:none" />
    <path
       sodipodi:nodetypes="cccccc"
       d="M 34.132343,32.616619 C 37.956888,26.254573 44.289294,23.944072 50.303442,23.589849 39.664559,24.588921 24.29602,41.54886 34.34223,58.708211 28.598228,51.873115 29.717673,39.967108 34.121077,32.617282 l 0.01105,-6.5e-4 z"
       inkscape:connector-curvature="0"
       id="path213"
       style="fill:#0b1728;fill-opacity:1;stroke:none" />
    <path
       d="m 25.861095,52.185114 c 3.289609,6.123969 8.478523,6.534071 8.481135,6.523097 0.02736,-0.114585 -3.531199,0.780426 -7.983419,-3.773767 -0.398196,-0.491949 -0.745081,-1.125173 -0.509,-2.748665 l 0.01105,-6.49e-4 z"
       inkscape:connector-curvature="0"
       id="path215"
       style="fill:#000000;fill-opacity:1;stroke:none"
       sodipodi:nodetypes="cscccc" />
    <path
       d="m 7.776716,42.167848 16.001498,-7.810532 2.343464,15.788217 c -0.92241,5.524784 -1.327532,11.873644 2.609662,18.856178 -1.9705,-0.08346 -6.714015,-4.765215 -7.377572,-7.455267 -0.06275,2.774299 4.494608,10.034143 5.937757,12.712204 -5.751622,-2.611277 -10.57177,-10.007194 -11.208116,-12.401789 -0.07184,3.261094 0.490114,7.007757 2.104067,9.770002 -6.267494,-1.323366 -9.726125,-14.123453 -9.826688,-14.358773 0.0071,-0.0048 0.0071,-0.0048 -0.0036,-0.0074 C 7.615965,52.867618 7.309561,47.857118 7.7661,42.168408 l 0.01105,-6.49e-4 z"
       inkscape:connector-curvature="0"
       id="path217"
       style="fill:#c6e2f8;fill-opacity:1;stroke:none"
       sodipodi:nodetypes="ccccccccccccc" />
    <path
       d="m 20.551466,48.871555 c -0.851152,6.081375 4.379839,14.631655 4.366684,14.63243 -0.01283,7.58e-4 -7.107783,-0.76876 -10.970903,-13.421691 0,0 1.186773,8.87518 2.682141,10.894264 0.0089,-5.22e-4 -6.944312,-2.323891 -9.03444,-13.320885 -2.090118,-10.996984 6.846103,-18.308457 9.881645,-17.167913 2.023691,0.76036 3.048634,6.888295 3.074873,18.383795 z"
       inkscape:connector-curvature="0"
       id="path223"
       style="fill:#87cdde;fill-opacity:1;stroke:none"
       mask="none" />
    <path
       sodipodi:nodetypes="ccccc"
       d="M 25.795805,52.659793 C 28.45472,74.542048 42.146546,85.022618 48.856657,87.538333 34.160997,82.503639 25.611632,65.126568 25.784453,52.660462 l 0.01113,-6.55e-4 z"
       inkscape:connector-curvature="0"
       id="path209"
       style="fill:#000000;fill-opacity:1;stroke:none" />
    <path
       d="m 7.638273,43.465186 c -1.87e-4,-0.0032 -1.87e-4,-0.0032 -0.0115,-0.007 0.376904,-3.968891 1.212334,-7.768767 2.434259,-11.214464 3.150177,-8.787589 8.912468,-14.377928 15.809891,-16.951654 15.884099,-2.443358 24.43273,8.297633 24.421456,8.298297 -6.017901,0.354445 -12.350307,2.664946 -16.186109,9.027654 -4.407165,7.350047 -5.526602,19.256065 0.217391,26.09115 0.0071,-4.45e-4 -11.162651,-0.850348 -11.1311,-19.322872 0.0071,-4.46e-4 -3.48324,7.932679 2.201787,18.24675 0.0071,-4.46e-4 -10.918495,0.427549 -8.898325,-19.481435 0.0071,-4.46e-4 -1.534567,2.284917 -0.180555,12.66559 0.0071,-4.46e-4 -4.52312,-0.684005 -5.06385,-9.67263 0.0071,-4.45e-4 -2.213551,7.651068 1.040986,13.490625 0.0071,-4.47e-4 -0.05116,-0.162848 -0.282428,-0.315087 C 11.05972,53.607153 7.327324,50.781215 7.62773,43.46572 l 0.01105,-6.5e-4 z"
       inkscape:connector-curvature="0"
       id="path225"
       style="fill:#5599ff;fill-opacity:1;stroke:none"
       sodipodi:nodetypes="ccccscccccccccccc" />
  </g>
</svg>
