<?xml version="1.0" encoding="UTF-8" standalone="no"?>
<!-- Created with Inkscape (http://www.inkscape.org/) -->

<svg
   xmlns:dc="http://purl.org/dc/elements/1.1/"
   xmlns:cc="http://creativecommons.org/ns#"
   xmlns:rdf="http://www.w3.org/1999/02/22-rdf-syntax-ns#"
   xmlns:svg="http://www.w3.org/2000/svg"
   xmlns="http://www.w3.org/2000/svg"
   xmlns:xlink="http://www.w3.org/1999/xlink"
   xmlns:sodipodi="http://sodipodi.sourceforge.net/DTD/sodipodi-0.dtd"
   xmlns:inkscape="http://www.inkscape.org/namespaces/inkscape"
   version="1.0"
   width="96"
   height="96"
   id="svg2408"
   inkscape:version="0.48.3.1 r9886"
   sodipodi:docname="iceweasel.svg">
  <sodipodi:namedview
     pagecolor="#ffffff"
     bordercolor="#666666"
     borderopacity="1"
     objecttolerance="10"
     gridtolerance="10"
     guidetolerance="10"
     inkscape:pageopacity="0"
     inkscape:pageshadow="2"
     inkscape:window-width="1280"
     inkscape:window-height="752"
     id="namedview128"
     showgrid="false"
     inkscape:zoom="5.6568544"
     inkscape:cx="45.458696"
     inkscape:cy="52.414847"
     inkscape:window-x="0"
     inkscape:window-y="0"
     inkscape:window-maximized="1"
     inkscape:current-layer="svg2408"
     showguides="true"
     inkscape:guide-bbox="true" />
  <defs
     id="defs2410">
    <linearGradient
       x1="45.447727"
       y1="92.539597"
       x2="45.447727"
       y2="7.0165396"
       id="ButtonShadow"
       gradientUnits="userSpaceOnUse"
       gradientTransform="scale(1.0058652,0.994169)">
      <stop
         id="stop3750"
         style="stop-color:#000000;stop-opacity:1"
         offset="0" />
      <stop
         id="stop3752"
         style="stop-color:#000000;stop-opacity:0.58823532"
         offset="1" />
    </linearGradient>
    <filter
       color-interpolation-filters="sRGB"
       id="filter3174">
      <feGaussianBlur
         id="feGaussianBlur3176"
         stdDeviation="1.71" />
    </filter>
    <filter
       id="filter3174-4"
       color-interpolation-filters="sRGB">
      <feGaussianBlur
         stdDeviation="1.71"
         id="feGaussianBlur3176-9" />
    </filter>
    <linearGradient
       gradientTransform="scale(1.0058652,0.994169)"
       gradientUnits="userSpaceOnUse"
       id="ButtonShadow-0"
       y2="7.0165396"
       x2="45.447727"
       y1="92.539597"
       x1="45.447727">
      <stop
         offset="0"
         style="stop-color:#000000;stop-opacity:1"
         id="stop3750-6" />
      <stop
         offset="1"
         style="stop-color:#000000;stop-opacity:0.58823532"
         id="stop3752-49" />
    </linearGradient>
    <linearGradient
       inkscape:collect="always"
       xlink:href="#ButtonShadow-0"
       id="linearGradient14325"
       gradientUnits="userSpaceOnUse"
       gradientTransform="scale(1.0058652,0.994169)"
       x1="45.447727"
       y1="92.539597"
       x2="45.447727"
       y2="7.0165396" />
  </defs>
  <metadata
     id="metadata2413">
    <rdf:RDF>
      <cc:Work
         rdf:about="">
        <dc:format>image/svg+xml</dc:format>
        <dc:type
           rdf:resource="http://purl.org/dc/dcmitype/StillImage" />
        <dc:title />
      </cc:Work>
    </rdf:RDF>
  </metadata>
  <g
     id="layer2"
     style="display:none">
    <path
       d="M 11,7 C 7.676,7 5,9.676 5,13 l 0,33.6875 c 2.2377507,0.124029 4.660506,0.235683 5.875,0.4375 0.66093,0.10983 -0.08406,0.240848 -1.125,0.34375 C 8.7090622,47.571654 7.3545491,47.665119 6.84375,47.75 6.2216014,47.853382 5.6264179,47.903999 5,48 l 0,1.0625 c 0.3803657,0.03607 0.7183843,0.03125 0.9375,0.03125 0.80883,10e-7 1.1599727,0.215701 1.3125,0.5625 0.1525272,0.346797 0.09375,0.839723 0.09375,1.40625 0,0.424828 -0.9420178,0.663014 -1.15625,1.375 C 6.110939,52.691968 5.5510552,52.945524 5,53.1875 l 0,2.21875 c 0.7355867,0.02497 1.4332639,0.05671 1.84375,0.3125 C 7.1254716,55.894306 6.0687957,56.124098 5,56.3125 l 0,7.5625 c 1.1379643,0.180337 3.3100715,0.925679 3.96875,1.0625 1.090152,0.226446 1.224723,0.33476 0.875,0.4375 -0.3497231,0.102744 -1.173581,0.175172 -2,0.3125 C 6.8656638,65.850029 5.90816,66.141998 5,66.34375 L 5,86 c 0,3.324 2.676,6 6,6 l 13,0 c 0.0954,-0.438237 0.150955,-0.931178 0.25,-1.4375 0.140364,-0.717512 0.25498,-1.34159 0.375,-1.59375 0.03001,-0.06304 0.05815,-0.114053 0.09375,-0.125 0.106804,-0.03285 0.238198,0.191956 0.46875,0.78125 0.304338,0.777871 0.540174,1.646782 0.6875,2.375 l 0.75,0 c 0.276152,-0.493694 0.578538,-1.138496 0.8125,-1.4375 0.09907,-0.126629 0.275237,0.131501 0.53125,0.375 0.256014,0.2435 0.588904,0.486378 0.9375,0.375 0.648614,-0.207227 1.602807,-0.726227 2.03125,-1 0.139883,-0.08938 0.300164,-0.157976 0.40625,-0.1875 0.106087,-0.02952 0.174331,-0.01774 0.25,0 0.151339,0.03548 0.232196,0.144559 0.34375,0.28125 0.223098,0.27338 0.466785,0.656251 1.0625,0.65625 0.478344,0 0.657185,-0.0325 0.78125,0.0625 0.124065,0.095 0.197087,0.314551 0.40625,0.875 l 8.875,0 c -0.04778,-0.593879 1.040547,-2.151517 1.21875,-3.0625 0.19092,-0.975995 0.214078,-1.242419 0.28125,-1.0625 0.06717,0.179919 0.192504,0.793906 0.46875,1.5 0.110448,0.282298 0.213887,0.358235 0.3125,0.28125 0.09861,-0.07699 0.168895,-0.293948 0.25,-0.5625 0.162213,-0.537107 0.285649,-1.296709 0.34375,-1.59375 0.131129,-0.670335 0.128655,-1.786501 0.125,-2.28125 -9.11e-4,-0.123687 -0.0059,-0.217815 0,-0.25 0.01779,-0.09656 0.08067,0.312079 0.28125,1.59375 0.163819,1.046767 0.54767,2.687946 0.71875,3.5625 0.169798,0.867992 0.298106,1.322124 0.40625,1.875 l 28.21875,0 c 0.03877,-0.494956 0.03519,-1.098589 0.0625,-1.5 0.02049,-0.301057 0.06649,-0.487005 0.15625,-0.46875 0.02992,0.0061 0.05077,0.03882 0.09375,0.09375 0.233449,0.298339 0.630596,1.164908 0.96875,1.875 L 85,92 c 3.324,0 6,-2.676 6,-6 l 0,-7.21875 c -0.16942,0.0045 -0.290112,-4e-6 -0.5,0 -1.330307,0 -2.638456,-4e-6 -3.96875,0 -1.226564,0 -2.05394,-9.64e-4 -2.25,-0.0625 -0.19606,-0.06154 0.232972,-0.183183 1.46875,-0.5 C 86.405034,78.050819 89.092469,77.290673 91,76.875 L 91,38.46875 C 90.34725,38.202412 89.792969,37.980093 89.25,37.5625 89.107486,37.452886 88.801155,37.170028 88.28125,37 87.761349,36.829972 87.007124,36.743855 86,36.9375 c -1.533473,0.294852 -1.685602,0.283469 -1.25,0.15625 0.4356,-0.127221 1.468635,-0.381012 2.25,-0.53125 1.152717,-0.221645 2.722214,-1.204246 4,-1.84375 l 0,-4.5625 c -0.69831,-0.257978 -1.422206,-0.558272 -1.75,-1.0625 -0.209707,-0.322576 -0.321618,-0.513018 -0.3125,-0.625 0.0091,-0.111981 0.13299,-0.149124 0.25,-0.1875 0.117011,-0.03837 0.261032,-0.05449 0.375,-0.15625 0.11397,-0.101759 0.187497,-0.291619 0.1875,-0.59375 0,-0.32292 0.08246,-0.887065 0.0625,-1.40625 -0.01,-0.259593 -0.03562,-0.49724 -0.125,-0.6875 -0.08939,-0.19026 -0.219089,-0.333004 -0.4375,-0.375 -0.574572,-0.110478 -0.848143,-0.233682 -0.90625,-0.34375 -0.05811,-0.110067 0.07208,-0.18937 0.28125,-0.28125 0.418339,-0.18376 1.132532,-0.339398 1.125,-0.34375 -0.668701,-0.385725 -5.247169,-0.921226 -5,-0.96875 0.332574,-0.06395 0.667437,-0.123553 1,-0.1875 1.047644,-0.201439 2.43278,-0.309227 3.75,-0.5625 0.573261,-0.110227 0.911769,-0.250569 1.125,-0.4375 0.213229,-0.18693 0.294201,-0.423258 0.375,-0.625 L 91,13 C 91,9.676 88.324,7 85,7 L 33.625,7 C 33.72158,8.3975706 33.82658,9.959362 33.53125,9.1875 33.320827,8.6375466 33.210422,8.0499534 33,7.5 32.946762,7.3608606 32.903941,7.1705291 32.84375,7 L 30.8125,7 C 30.571803,7.4923127 30.362863,7.9708281 30.03125,8.1875 29.524321,8.5187294 29.245447,8.6821159 29,8.59375 28.754552,8.5053839 28.523162,8.1669814 28.15625,7.6875 27.992502,7.4735174 27.721718,7.2560338 27.40625,7 l -6.8125,0 -1.3125,5.5625 L 17.53125,7 17.3125,7 15.5625,15.9375 14.15625,7 11,7 z"
       inkscape:connector-curvature="0"
       id="rect3745"
       style="opacity:0.9;fill:url(#ButtonShadow);fill-opacity:1;fill-rule:nonzero;stroke:none;filter:url(#filter3174)" />
  </g>
  <rect
     y="0"
     x="0"
     height="96"
     width="96"
     id="rect6228"
     style="fill:#073e6c;fill-opacity:1;stroke:none" />
  <rect
     style="opacity:0.17194573;fill:#000000;fill-opacity:1;stroke:none"
     id="rect3878"
     width="96"
     height="2.5"
     x="0"
     y="93.5" />
  <rect
     y="0"
     x="0"
     height="2.5"
     width="96"
     id="rect3880"
     style="fill:#ffffff;fill-opacity:1;stroke:none;opacity:0.25339367" />
  <g
     id="layer2-6"
     style="display:none"
     transform="translate(2.9116859,150.53048)">
    <path
       d="M 11,7 C 7.676,7 5,9.676 5,13 l 0,33.6875 c 2.2377507,0.124029 4.660506,0.235683 5.875,0.4375 0.66093,0.10983 -0.08406,0.240848 -1.125,0.34375 C 8.7090622,47.571654 7.3545491,47.665119 6.84375,47.75 6.2216014,47.853382 5.6264179,47.903999 5,48 l 0,1.0625 c 0.3803657,0.03607 0.7183843,0.03125 0.9375,0.03125 0.80883,10e-7 1.1599727,0.215701 1.3125,0.5625 0.1525272,0.346797 0.09375,0.839723 0.09375,1.40625 0,0.424828 -0.9420178,0.663014 -1.15625,1.375 C 6.110939,52.691968 5.5510552,52.945524 5,53.1875 l 0,2.21875 c 0.7355867,0.02497 1.4332639,0.05671 1.84375,0.3125 C 7.1254716,55.894306 6.0687957,56.124098 5,56.3125 l 0,7.5625 c 1.1379643,0.180337 3.3100715,0.925679 3.96875,1.0625 1.090152,0.226446 1.224723,0.33476 0.875,0.4375 -0.3497231,0.102744 -1.173581,0.175172 -2,0.3125 C 6.8656638,65.850029 5.90816,66.141998 5,66.34375 L 5,86 c 0,3.324 2.676,6 6,6 l 13,0 c 0.0954,-0.438237 0.150955,-0.931178 0.25,-1.4375 0.140364,-0.717512 0.25498,-1.34159 0.375,-1.59375 0.03001,-0.06304 0.05815,-0.114053 0.09375,-0.125 0.106804,-0.03285 0.238198,0.191956 0.46875,0.78125 0.304338,0.777871 0.540174,1.646782 0.6875,2.375 l 0.75,0 c 0.276152,-0.493694 0.578538,-1.138496 0.8125,-1.4375 0.09907,-0.126629 0.275237,0.131501 0.53125,0.375 0.256014,0.2435 0.588904,0.486378 0.9375,0.375 0.648614,-0.207227 1.602807,-0.726227 2.03125,-1 0.139883,-0.08938 0.300164,-0.157976 0.40625,-0.1875 0.106087,-0.02952 0.174331,-0.01774 0.25,0 0.151339,0.03548 0.232196,0.144559 0.34375,0.28125 0.223098,0.27338 0.466785,0.656251 1.0625,0.65625 0.478344,0 0.657185,-0.0325 0.78125,0.0625 0.124065,0.095 0.197087,0.314551 0.40625,0.875 l 8.875,0 c -0.04778,-0.593879 1.040547,-2.151517 1.21875,-3.0625 0.19092,-0.975995 0.214078,-1.242419 0.28125,-1.0625 0.06717,0.179919 0.192504,0.793906 0.46875,1.5 0.110448,0.282298 0.213887,0.358235 0.3125,0.28125 0.09861,-0.07699 0.168895,-0.293948 0.25,-0.5625 0.162213,-0.537107 0.285649,-1.296709 0.34375,-1.59375 0.131129,-0.670335 0.128655,-1.786501 0.125,-2.28125 -9.11e-4,-0.123687 -0.0059,-0.217815 0,-0.25 0.01779,-0.09656 0.08067,0.312079 0.28125,1.59375 0.163819,1.046767 0.54767,2.687946 0.71875,3.5625 0.169798,0.867992 0.298106,1.322124 0.40625,1.875 l 28.21875,0 c 0.03877,-0.494956 0.03519,-1.098589 0.0625,-1.5 0.02049,-0.301057 0.06649,-0.487005 0.15625,-0.46875 0.02992,0.0061 0.05077,0.03882 0.09375,0.09375 0.233449,0.298339 0.630596,1.164908 0.96875,1.875 L 85,92 c 3.324,0 6,-2.676 6,-6 l 0,-7.21875 c -0.16942,0.0045 -0.290112,-4e-6 -0.5,0 -1.330307,0 -2.638456,-4e-6 -3.96875,0 -1.226564,0 -2.05394,-9.64e-4 -2.25,-0.0625 -0.19606,-0.06154 0.232972,-0.183183 1.46875,-0.5 C 86.405034,78.050819 89.092469,77.290673 91,76.875 L 91,38.46875 C 90.34725,38.202412 89.792969,37.980093 89.25,37.5625 89.107486,37.452886 88.801155,37.170028 88.28125,37 87.761349,36.829972 87.007124,36.743855 86,36.9375 c -1.533473,0.294852 -1.685602,0.283469 -1.25,0.15625 0.4356,-0.127221 1.468635,-0.381012 2.25,-0.53125 1.152717,-0.221645 2.722214,-1.204246 4,-1.84375 l 0,-4.5625 c -0.69831,-0.257978 -1.422206,-0.558272 -1.75,-1.0625 -0.209707,-0.322576 -0.321618,-0.513018 -0.3125,-0.625 0.0091,-0.111981 0.13299,-0.149124 0.25,-0.1875 0.117011,-0.03837 0.261032,-0.05449 0.375,-0.15625 0.11397,-0.101759 0.187497,-0.291619 0.1875,-0.59375 0,-0.32292 0.08246,-0.887065 0.0625,-1.40625 -0.01,-0.259593 -0.03562,-0.49724 -0.125,-0.6875 -0.08939,-0.19026 -0.219089,-0.333004 -0.4375,-0.375 -0.574572,-0.110478 -0.848143,-0.233682 -0.90625,-0.34375 -0.05811,-0.110067 0.07208,-0.18937 0.28125,-0.28125 0.418339,-0.18376 1.132532,-0.339398 1.125,-0.34375 -0.668701,-0.385725 -5.247169,-0.921226 -5,-0.96875 0.332574,-0.06395 0.667437,-0.123553 1,-0.1875 1.047644,-0.201439 2.43278,-0.309227 3.75,-0.5625 0.573261,-0.110227 0.911769,-0.250569 1.125,-0.4375 0.213229,-0.18693 0.294201,-0.423258 0.375,-0.625 L 91,13 C 91,9.676 88.324,7 85,7 L 33.625,7 C 33.72158,8.3975706 33.82658,9.959362 33.53125,9.1875 33.320827,8.6375466 33.210422,8.0499534 33,7.5 32.946762,7.3608606 32.903941,7.1705291 32.84375,7 L 30.8125,7 C 30.571803,7.4923127 30.362863,7.9708281 30.03125,8.1875 29.524321,8.5187294 29.245447,8.6821159 29,8.59375 28.754552,8.5053839 28.523162,8.1669814 28.15625,7.6875 27.992502,7.4735174 27.721718,7.2560338 27.40625,7 l -6.8125,0 -1.3125,5.5625 L 17.53125,7 17.3125,7 15.5625,15.9375 14.15625,7 11,7 z"
       inkscape:connector-curvature="0"
       id="rect3745-8"
       style="opacity:0.9;fill:url(#linearGradient14325);fill-opacity:1;fill-rule:nonzero;stroke:none;filter:url(#filter3174-4)" />
  </g>
  <g
     id="g7634"
     transform="matrix(0.98790718,0,0,0.98790718,-287.50125,-0.19271056)">
    <path
       inkscape:connector-curvature="0"
       id="path6815"
       d="m 341.25,7.4375 c -0.96854,-0.00765 -1.93412,0.00989 -2.90625,0.0625 -1.00204,0.054231 -1.98303,0.1375094 -2.96875,0.25 -0.70013,0.079493 -1.34719,0.1814335 -2,0.28125 -6.19191,0.9472543 -12.07165,2.938864 -16.84375,5.375 a 1.10011,1.10011 0 0 0 0,1.9375 c -5.45569,3.103108 -9.93028,7.428611 -13.875,12.1875 a 1.10011,1.10011 0 0 0 1.40625,1.625 c 0.0331,-0.01947 0.0606,-0.04311 0.0937,-0.0625 -2.78213,4.020012 -4.79019,8.90025 -6.6875,15.1875 a 1.10011,1.10011 0 0 0 1.9375,0.96875 c 0.25381,-0.331329 0.5239,-0.613272 0.78125,-0.9375 -0.008,0.06249 -0.0231,0.125225 -0.0312,0.1875 -0.0565,0.431138 -0.086,0.835244 -0.125,1.21875 -0.0374,0.365591 -0.0663,0.731951 -0.0937,1.09375 -0.0112,0.14796 -0.0213,0.315306 -0.0312,0.46875 -0.0429,0.652952 -0.081,1.291148 -0.0937,1.96875 -0.009,0.472454 -0.006,0.918308 0,1.375 0.007,0.553906 0.0358,1.10692 0.0625,1.625 0.0192,0.378667 0.0285,0.788225 0.0625,1.21875 0.0193,0.240927 0.0402,0.457602 0.0625,0.6875 0.0436,0.455293 0.11109,0.85722 0.15625,1.21875 0.0393,0.312614 0.0762,0.641008 0.125,0.96875 -0.002,-0.01217 -0.007,0.09803 0.0312,0.34375 0.1024,0.651887 0.24571,1.304635 0.375,1.9375 0.008,0.04093 0.0169,0.161224 0.0625,0.375 0.0971,0.453884 0.19683,0.940159 0.3125,1.40625 0.002,0.0097 -0.002,0.02159 0,0.03125 0.33899,1.359559 0.74996,2.718692 1.21875,4.03125 0.0713,0.199551 0.1111,0.266499 0.0937,0.21875 0.24266,0.667029 0.50719,1.319515 0.78125,1.96875 -10e-4,-0.0035 0.02,0.07821 0.0937,0.25 0.27604,0.642236 0.56155,1.234679 0.84375,1.8125 0.21143,0.432899 0.44234,0.916242 0.6875,1.375 0.24717,0.462128 0.51384,0.918354 0.78125,1.375 0.12932,0.220999 0.22956,0.351727 0.28125,0.4375 0.17445,0.289155 0.34154,0.624427 0.5625,0.96875 0.23217,0.361927 0.47964,0.714688 0.71875,1.0625 0.16283,0.236886 0.31736,0.496739 0.5,0.75 0.32619,0.452148 0.65896,0.879532 1,1.3125 0.0852,0.108153 0.13757,0.164075 0.15625,0.1875 0.0204,0.02551 0.10342,0.107941 0.21875,0.25 0.39045,0.481399 0.79161,0.931194 1.1875,1.375 0.4765,0.534077 0.95334,1.078163 1.46875,1.59375 0.0302,0.0302 0.0602,0.06037 0.0937,0.09375 0.39799,0.395258 0.79925,0.775229 1.21875,1.15625 0.69107,1.01313 1.41674,2.15799 2.125,3.375 0.77141,1.325517 1.51196,2.771372 2.21875,4.3125 0.12045,0.263764 0.2366,0.45173 0.3125,0.625 a 1.10011,1.10011 0 0 0 2.09375,-0.53125 c -0.0144,-0.201969 -0.0337,-0.254225 -0.0312,-0.21875 -0.0692,-0.986353 -0.24626,-1.979904 -0.375,-2.96875 0.10362,0.0592 0.20852,0.128892 0.3125,0.1875 0.63976,0.360591 1.30444,0.726287 2,1.0625 0.29344,0.142132 0.58629,0.276004 0.875,0.40625 0.009,0.0038 0.0227,-0.0038 0.0312,0 0.0254,0.013 0.002,0.01823 0.0312,0.03125 0.6513,0.292619 1.30985,0.56225 1.96875,0.8125 0.11184,0.04234 0.14257,0.0496 0.0937,0.03125 0.50591,0.190495 0.99924,0.358328 1.53125,0.53125 0.20232,0.06568 0.41687,0.155276 0.625,0.21875 0.17011,0.05196 0.27865,0.07458 0.34375,0.09375 -0.045,-0.01325 -0.0164,-8.81e-4 0.0937,0.03125 0.50113,0.146014 1.038,0.27801 1.5625,0.40625 0.19528,0.04755 0.33303,0.0697 0.4375,0.09375 0.66268,0.153284 1.33152,0.316753 2.03125,0.4375 0.39568,0.06856 0.41534,0.06083 0.0625,0 0.77155,0.131787 1.55843,0.22833 2.34375,0.3125 0.63821,0.0684 1.2782,0.119099 1.9375,0.15625 0.20567,0.01156 0.28961,0.0049 0.21875,0 -0.017,-0.0012 0.0578,0.02164 0.28125,0.03125 0.20295,0.0088 0.34473,-0.001 0.375,0 0.69499,0.02405 1.41461,0.04524 2.15625,0.03125 a 1.10011,1.10011 0 0 0 0.0312,0 c 0.50879,-0.0273 0.96699,-0.06095 1.4375,-0.09375 0.13997,-0.0098 0.34262,-0.01269 0.5625,-0.03125 0.18879,-0.01657 0.25573,-0.03463 0.21875,-0.03125 0.25077,-0.02205 0.39707,-0.05563 0.46875,-0.0625 a 1.10011,1.10011 0 0 0 0.0312,0 c 0.39491,-0.03948 0.77984,-0.07514 1.1875,-0.125 1.26468,-0.147082 2.43492,-0.321049 3.5625,-0.53125 0.68697,-0.128064 1.36861,-0.293525 2,-0.4375 0.61948,-0.141259 1.22902,-0.268291 1.84375,-0.4375 1.18634,-0.326549 2.27908,-0.700642 3.28125,-1.09375 0.009,-0.0027 0.0221,0.0027 0.0312,0 0.20781,-0.08136 0.22535,-0.09577 0.0625,-0.03125 3.26409,-0.968397 7.0373,-1.795243 11.125,-2.09375 A 1.10011,1.10011 0 0 0 364.6875,83 c -1.10216,-0.309909 -2.22814,-0.534419 -3.34375,-0.78125 0.099,-0.08658 0.21501,-0.162789 0.3125,-0.25 0.0215,-0.01921 0.0411,-0.04327 0.0625,-0.0625 0.0771,-0.03742 0.15096,-0.04048 0.25,-0.09375 0.47187,-0.253813 0.94774,-0.52012 1.4375,-0.8125 0.47474,-0.283414 0.88498,-0.584241 1.28125,-0.84375 0.1206,-0.07897 0.29233,-0.162031 0.46875,-0.28125 0.33066,-0.223447 0.67796,-0.462116 1.03125,-0.71875 0.49459,-0.35917 0.95115,-0.728326 1.40625,-1.09375 0.63357,-0.508723 1.28915,-1.026535 1.90625,-1.59375 0.0777,-0.07137 0.0863,-0.08191 0.0312,-0.03125 0.4383,-0.404421 0.84327,-0.805935 1.25,-1.21875 0.19621,-0.198965 0.37944,-0.402219 0.53125,-0.5625 0.48434,-0.511369 0.94784,-1.019751 1.40625,-1.5625 0.0405,-0.04792 0.12483,-0.161132 0.25,-0.3125 0.11206,-0.135683 0.17557,-0.227911 0.21875,-0.28125 0.55116,-0.680012 1.09314,-1.37928 1.59375,-2.09375 -0.22609,0.334332 -0.20676,0.308278 0.0312,-0.03125 0.33007,-0.472278 0.65856,-0.946956 0.96875,-1.4375 l -0.0312,0 c 0.18835,-0.289058 0.38637,-0.587862 0.5625,-0.875 0.12713,-0.213576 0.15359,-0.298881 0.125,-0.25 1.06515,-1.766643 2.04094,-3.630287 2.8125,-5.59375 0.008,-0.0211 -0.007,-0.01136 0,-0.03125 0.29824,-0.760745 0.6138,-1.54601 0.875,-2.375 0.007,-0.02067 -0.005,-0.0119 0,-0.03125 0.25368,-0.80743 0.45739,-1.639854 0.65625,-2.46875 0.005,-0.02175 -0.004,-0.0114 0,-0.03125 0.005,-0.02278 -0.004,-0.01073 0,-0.03125 0.19753,-0.829353 0.38998,-1.647974 0.53125,-2.5 0.28731,-1.727267 0.42798,-3.490113 0.46875,-5.28125 0.0148,-0.64907 0.0156,-1.321582 0,-1.96875 10e-4,0.05095 0.002,0.04132 0,-0.03125 -0.0163,-0.65138 -0.0404,-1.283312 -0.0937,-1.9375 a 1.10011,1.10011 0 0 0 -0.3125,-0.6875 C 381.07685,42.049007 380.44768,39.257557 379.5,36.5 l 0.0312,0 c -0.0284,-0.258048 -0.0592,-0.487205 -0.0937,-0.71875 9.8e-4,0.0065 0.002,-0.110823 -0.0312,-0.3125 -0.34258,-2.07228 -1.08793,-4.1973 -2.15625,-6.34375 0.12271,-0.270682 0.26688,-0.509584 0.375,-0.84375 0.19655,-0.607479 0.38514,-1.317176 0.53125,-2.0625 0.29222,-1.490648 0.50223,-3.002603 0.1875,-4.28125 -0.10233,-0.415756 -0.37471,-0.838392 -0.71875,-1.0625 -0.34404,-0.224108 -0.72784,-0.28957 -1.0625,-0.3125 -0.91408,-0.06263 -1.78432,0.20671 -2.6875,0.53125 -0.63016,0.226436 -1.16113,0.494367 -1.71875,0.75 -0.0385,-0.04169 -0.0872,-0.08372 -0.125,-0.125 0.004,0.0048 -0.002,-0.0334 0,-0.03125 0.0175,0.01649 -0.012,-0.03058 -0.125,-0.15625 a 1.10011,1.10011 0 0 0 -0.0312,0 c -0.0145,-0.01615 -0.0167,-0.04631 -0.0312,-0.0625 a 1.10011,1.10011 0 0 0 -0.0937,-0.0625 c -0.45707,-0.508497 -0.93093,-1.016832 -1.4375,-1.53125 -0.3594,-0.376846 -0.72179,-0.733411 -1.09375,-1.09375 0.0267,0.02551 0.0168,0.01457 -0.0312,-0.03125 -0.39649,-0.383216 -0.80647,-0.756898 -1.21875,-1.125 -0.43397,-0.387456 -0.87018,-0.762629 -1.3125,-1.125 -0.11037,-0.09023 -0.15429,-0.117565 -0.125,-0.09375 -0.39966,-0.324812 -0.80979,-0.670257 -1.25,-1 -0.10812,-0.08101 -0.17743,-0.12574 -0.21875,-0.15625 -0.37319,-0.275589 -0.74972,-0.565461 -1.15625,-0.84375 -0.16608,-0.113635 -0.28001,-0.176105 -0.34375,-0.21875 -0.36094,-0.241552 -0.72384,-0.488349 -1.09375,-0.71875 -0.1139,-0.07098 -0.27637,-0.164949 -0.46875,-0.28125 -0.33324,-0.201394 -0.67467,-0.409708 -1,-0.59375 -0.24194,-0.13681 -0.43262,-0.225056 -0.59375,-0.3125 -0.45691,-0.247951 -0.95146,-0.527701 -1.46875,-0.78125 -0.1951,-0.09555 -0.2479,-0.106925 -0.15625,-0.0625 -0.2782,-0.135001 -0.5144,-0.235626 -0.75,-0.34375 -0.28541,-0.130845 -0.58622,-0.250833 -0.875,-0.375 -0.20857,-0.08971 -0.44527,-0.213584 -0.6875,-0.3125 -0.34068,-0.139136 -0.67664,-0.253018 -1,-0.375 -0.36226,-0.1366537 -0.75124,-0.2887202 -1.1875,-0.4375 -0.16136,-0.055029 -0.30905,-0.104055 -0.46875,-0.15625 -0.2144,-0.070034 -0.35415,-0.1301155 -0.4375,-0.15625 -0.53277,-0.1670715 -1.07694,-0.2985724 -1.59375,-0.4375 -0.26513,-0.071275 -0.47724,-0.1114267 -0.65625,-0.15625 -0.20435,-0.051147 -0.46109,-0.1210186 -0.75,-0.1875 -0.58371,-0.1344307 -1.17585,-0.269366 -1.75,-0.375 -0.54481,-0.1002363 -1.1063,-0.1997717 -1.6875,-0.28125 -0.30983,-0.043198 -0.32411,-0.041228 -0.0312,0 -0.18491,-0.025595 -0.37591,-0.043023 -0.53125,-0.0625 -0.38272,-0.048248 -0.78829,-0.1128655 -1.25,-0.15625 -0.3208,-0.030095 -0.53903,-0.019947 -0.6875,-0.03125 -0.2022,-0.015437 -0.46072,-0.045738 -0.75,-0.0625 -0.23983,-0.015261 -0.34102,-0.00168 -0.3125,0 -0.6799,-0.040079 -1.38779,-0.087928 -2.125,-0.09375 z m 0,2.1875 c 0.64751,0.00511 1.30416,0.052731 2,0.09375 0.2366,0.01394 0.34363,0.00198 0.3125,0 0.1888,0.01094 0.4121,0.041473 0.6875,0.0625 0.30839,0.023479 0.552,0.018539 0.6875,0.03125 0.36125,0.033945 0.74958,0.1010421 1.1875,0.15625 0.17566,0.022025 0.3231,0.042339 0.46875,0.0625 0.31346,0.04413 0.32028,0.0403 0.0312,0 0.51584,0.07231 1.07879,0.180756 1.625,0.28125 0.55615,0.102324 1.08655,0.188493 1.625,0.3125 0.19119,0.044 0.41347,0.118913 0.6875,0.1875 0.25357,0.06349 0.4903,0.111637 0.65625,0.15625 0.50875,0.136762 0.98544,0.285941 1.46875,0.4375 0.20693,0.06489 0.36248,0.06924 0.4375,0.09375 0.15296,0.04999 0.31847,0.104999 0.46875,0.15625 0.34308,0.117 0.71474,0.282738 1.125,0.4375 0.3251,0.122636 0.63494,0.251432 0.9375,0.375 0.19711,0.08049 0.39679,0.151847 0.625,0.25 0.2713,0.116649 0.54229,0.251127 0.8125,0.375 0.26634,0.12223 0.53008,0.237029 0.75,0.34375 0.19295,0.09352 0.25015,0.108487 0.15625,0.0625 0.43703,0.214207 0.86154,0.457067 1.34375,0.71875 0.23279,0.12633 0.44459,0.228158 0.59375,0.3125 0.31877,0.180326 0.63464,0.348222 0.9375,0.53125 0.10614,0.06416 0.22347,0.167346 0.40625,0.28125 0.34647,0.215797 0.68691,0.425802 1.03125,0.65625 0.1607,0.107507 0.28657,0.179625 0.34375,0.21875 0.35887,0.245661 0.71576,0.502117 1.09375,0.78125 0.10466,0.07727 0.18147,0.128318 0.21875,0.15625 0.38529,0.288607 0.78016,0.606446 1.1875,0.9375 0.10909,0.0887 0.15557,0.118745 0.125,0.09375 0.42168,0.345469 0.84267,0.698822 1.25,1.0625 0.404,0.360706 0.79416,0.712528 1.15625,1.0625 -0.027,-0.02578 -0.0165,-0.01432 0.0312,0.03125 0.36344,0.352089 0.70303,0.687102 1.03125,1.03125 a 1.10011,1.10011 0 0 0 0,0.03125 c 0.50223,0.508982 0.99603,1.065072 1.5,1.625 a 1.10011,1.10011 0 0 0 0.0312,0 1.10011,1.10011 0 0 0 0.0312,0.0625 c 0.012,0.01818 0.0154,-0.02528 0.0937,0.0625 a 1.10011,1.10011 0 0 0 0,0.03125 c 0.22982,0.251263 0.45827,0.462356 0.65625,0.6875 a 1.10011,1.10011 0 0 0 1.28125,0.28125 c 0.65542,-0.317747 1.49824,-0.718642 2.28125,-1 0.67441,-0.242336 1.23852,-0.319233 1.5625,-0.34375 0.0713,0.633372 0.0449,1.814625 -0.1875,3 -0.13073,0.666873 -0.3064,1.310715 -0.46875,1.8125 -0.16235,0.501785 -0.36862,0.907382 -0.34375,0.875 a 1.10011,1.10011 0 0 0 -0.0937,1.15625 c 1.10953,2.124211 1.79975,4.220057 2.125,6.1875 -0.003,-0.01647 0.002,0.05902 0.0312,0.25 0.0347,0.232501 0.0716,0.45498 0.0937,0.65625 a 1.10011,1.10011 0 0 0 0.0312,0.09375 1.10011,1.10011 0 0 0 0.0312,0.15625 c 0.0116,0.0623 -0.0272,0.04657 0,0.125 0.9989,2.877987 1.6278,5.740928 1.875,8.625 a 1.10011,1.10011 0 0 0 0.25,0.59375 c 0.0226,0.391496 0.0523,0.777887 0.0625,1.1875 -10e-4,-0.05166 -0.002,-0.04062 0,0.03125 0.0147,0.60904 0.014,1.226932 0,1.84375 -0.0386,1.696889 -0.20012,3.353819 -0.46875,4.96875 -0.13432,0.81006 -0.27959,1.614837 -0.46875,2.40625 -0.005,0.02172 0.004,0.01143 0,0.03125 -0.18748,0.781466 -0.41797,1.522818 -0.65625,2.28125 -0.006,0.02066 0.005,0.01192 0,0.03125 -0.23214,0.73677 -0.51584,1.493301 -0.8125,2.25 -0.008,0.02109 0.007,0.01137 0,0.03125 -0.71756,1.826053 -1.61199,3.601101 -2.625,5.28125 -0.12267,0.209733 -0.15681,0.303434 -0.125,0.25 -0.16997,0.277098 -0.32739,0.54759 -0.5,0.8125 a 1.10011,1.10011 0 0 0 -0.0312,0 c -0.28933,0.45757 -0.59306,0.926888 -0.90625,1.375 0.22141,-0.315848 0.21084,-0.326742 -0.0312,0.03125 -0.47169,0.673198 -0.95045,1.329272 -1.46875,1.96875 -0.10618,0.131165 -0.17959,0.233831 -0.21875,0.28125 -0.0351,0.04241 -0.12814,0.105726 -0.25,0.25 -0.42623,0.504649 -0.88243,1.012929 -1.34375,1.5 -0.18175,0.191889 -0.32394,0.353149 -0.46875,0.5 -0.39315,0.399033 -0.7853,0.785143 -1.1875,1.15625 -0.077,0.07093 -0.0869,0.08238 -0.0312,0.03125 -0.55784,0.512751 -1.163,1.034825 -1.78125,1.53125 -0.44668,0.358662 -0.89768,0.70731 -1.34375,1.03125 -0.30143,0.218958 -0.62609,0.424687 -0.96875,0.65625 -0.1103,0.07453 -0.23681,0.170287 -0.40625,0.28125 -0.43499,0.284867 -0.83533,0.552356 -1.21875,0.78125 -0.42864,0.25589 -0.89829,0.493579 -1.375,0.75 -0.0941,0.05063 -0.221,0.12232 -0.40625,0.21875 A 1.10011,1.10011 0 0 0 360.25,80.25 c -0.0972,0.08762 -0.10764,0.09991 -0.0312,0.03125 -0.44292,0.397983 -0.88402,0.765588 -1.34375,1.125 a 1.10011,1.10011 0 0 0 -0.0625,0.0625 c -0.17063,0.15468 -0.35074,0.32659 -0.5625,0.5 a 1.10011,1.10011 0 0 0 0.15625,1.8125 c -2.05238,0.392517 -4.00267,0.844385 -5.78125,1.375 a 1.10011,1.10011 0 0 0 -0.0937,0.03125 c -0.20505,0.08124 -0.22791,0.09601 -0.0625,0.03125 -0.94349,0.370986 -1.94546,0.723779 -3.0625,1.03125 -0.54205,0.149201 -1.15497,0.294691 -1.78125,0.4375 -0.61437,0.140093 -1.22803,0.254392 -1.875,0.375 -1.0842,0.202113 -2.22702,0.39047 -3.4375,0.53125 -0.35618,0.04356 -0.76383,0.08587 -1.15625,0.125 -0.0105,0.001 -0.0208,-0.0011 -0.0312,0 -0.21636,0.02281 -0.37277,0.05681 -0.4375,0.0625 -0.18652,0.01704 -0.25714,0.03462 -0.21875,0.03125 -0.12798,0.0108 -0.29063,0.01666 -0.5,0.03125 -0.46486,0.0324 -0.93535,0.06812 -1.40625,0.09375 -0.0103,1.95e-4 -0.0209,-1.8e-4 -0.0312,0 -0.66134,0.0115 -1.32281,-0.0078 -2,-0.03125 -0.19631,-0.0068 -0.28969,9.9e-4 -0.3125,0 0.0337,0.0015 -0.0769,-0.01707 -0.28125,-0.03125 -0.21564,-0.015 -0.27864,-0.0034 -0.21875,0 -0.61608,-0.03472 -1.20269,-0.09089 -1.8125,-0.15625 -0.74652,-0.08001 -1.50082,-0.189871 -2.21875,-0.3125 -0.39344,-0.06783 -0.41778,-0.06156 -0.0625,0 -0.64071,-0.110563 -1.26387,-0.226412 -1.90625,-0.375 -0.18725,-0.04311 -0.34284,-0.0707 -0.4375,-0.09375 -0.48046,-0.11747 -0.95551,-0.265814 -1.4375,-0.40625 0.0471,0.01375 0.0145,5.99e-4 -0.0937,-0.03125 -0.1637,-0.04819 -0.28628,-0.07619 -0.34375,-0.09375 -0.19189,-0.05852 -0.36854,-0.09329 -0.5625,-0.15625 -0.48721,-0.158362 -0.98052,-0.347413 -1.46875,-0.53125 -0.11042,-0.04152 -0.14399,-0.05027 -0.0937,-0.03125 -0.62395,-0.236975 -1.22342,-0.486162 -1.8125,-0.75 -0.0156,-0.0076 -0.0143,0.0076 -0.0312,0 -0.0255,-0.01299 -0.002,-0.01824 -0.0312,-0.03125 -0.28849,-0.130018 -0.57028,-0.273793 -0.84375,-0.40625 -0.62444,-0.301837 -1.2472,-0.646151 -1.875,-1 -0.74782,-0.421494 -1.43696,-0.82281 -2.125,-1.28125 a 1.10011,1.10011 0 0 0 -1.65625,0.5625 c -0.72757,-1.244287 -1.46529,-2.415599 -2.1875,-3.46875 A 1.10011,1.10011 0 0 0 314.5625,79.125 c 0.0713,0.06482 0.0652,0.05537 -0.0312,-0.03125 -0.41295,-0.372994 -0.81961,-0.759843 -1.21875,-1.15625 -0.0284,-0.02827 -0.0621,-0.06207 -0.0937,-0.09375 -0.47679,-0.476959 -0.94845,-0.955627 -1.40625,-1.46875 -0.38933,-0.436446 -0.77193,-0.877181 -1.125,-1.3125 -0.0169,-0.02085 -0.0456,-0.111489 -0.15625,-0.25 -0.0831,-0.104137 -0.14043,-0.167413 -0.15625,-0.1875 -0.32586,-0.413698 -0.63245,-0.827148 -0.9375,-1.25 -0.15828,-0.219491 -0.33243,-0.443704 -0.5,-0.6875 -0.23019,-0.33484 -0.44062,-0.663843 -0.65625,-1 -0.17106,-0.266553 -0.36157,-0.573195 -0.5625,-0.90625 -0.12725,-0.211127 -0.23537,-0.359097 -0.28125,-0.4375 -0.24999,-0.426898 -0.48214,-0.870112 -0.71875,-1.3125 -0.21388,-0.40024 -0.40819,-0.806093 -0.625,-1.25 -0.29018,-0.594141 -0.60335,-1.190706 -0.84375,-1.75 0.003,0.0078 -0.0229,-0.08194 -0.0937,-0.25 -0.2612,-0.618765 -0.48941,-1.213359 -0.71875,-1.84375 -0.0709,-0.195237 -0.11222,-0.270461 -0.0937,-0.21875 -0.44699,-1.251519 -0.83299,-2.512235 -1.15625,-3.8125 a 1.10011,1.10011 0 0 0 0,-0.03125 c -0.10843,-0.434716 -0.21482,-0.855718 -0.3125,-1.3125 -0.007,-0.03369 -0.0204,-0.16782 -0.0625,-0.375 -0.12495,-0.611649 -0.2171,-1.205183 -0.3125,-1.8125 0.003,0.01744 0.004,-0.102858 -0.0312,-0.34375 -0.0438,-0.294544 -0.0857,-0.593514 -0.125,-0.90625 -0.054,-0.43222 -0.12343,-0.813349 -0.15625,-1.15625 -0.0221,-0.228092 -0.045,-0.469119 -0.0625,-0.6875 -0.0281,-0.355975 -0.0417,-0.744965 -0.0625,-1.15625 -0.0269,-0.523812 -0.0559,-1.007082 -0.0625,-1.5 -0.006,-0.447568 -0.009,-0.877834 0,-1.3125 0.0116,-0.61698 0.0513,-1.260718 0.0937,-1.90625 0.009,-0.140138 0.0202,-0.260502 0.0312,-0.40625 0.0263,-0.346391 0.0587,-0.688161 0.0937,-1.03125 0.0418,-0.410538 0.0775,-0.793228 0.125,-1.15625 0.0895,-0.68118 0.19235,-1.374704 0.3125,-2.03125 0.0861,-0.472886 0.19123,-0.9544 0.3125,-1.5 0.0711,-0.318268 0.0715,-0.476002 0.0625,-0.4375 -0.006,0.02659 0.0217,-0.04787 0.0625,-0.21875 a 1.10011,1.10011 0 0 0 -1.6875,-1.15625 c 2.08498,-5.630548 4.45651,-9.778515 7.9375,-13.15625 a 1.10011,1.10011 0 0 0 -0.9375,-1.875 c 3.61647,-3.687082 7.63001,-6.843245 12.4375,-8.90625 0.0619,-0.01451 0.1567,-0.06266 0.15625,-0.0625 0.0217,-0.0092 0.0408,-0.02211 0.0625,-0.03125 0.0365,-0.01798 0.0572,-0.01329 0.0937,-0.03125 a 1.10011,1.10011 0 0 0 0.0625,-0.03125 1.10011,1.10011 0 0 0 0.0312,0 c 0.24016,-0.148583 0.45817,-0.302378 0.6875,-0.4375 a 1.10011,1.10011 0 0 0 0.375,-1.53125 c 3.54033,-1.371114 7.30707,-2.565178 11.375,-3.1875 0.66663,-0.101929 1.30597,-0.209547 1.9375,-0.28125 0.95142,-0.1085766 1.89347,-0.1985703 2.84375,-0.25 0.92187,-0.049893 1.85327,-0.06983 2.78125,-0.0625 z"
       style="font-size:medium;font-style:normal;font-variant:normal;font-weight:normal;font-stretch:normal;text-indent:0;text-align:start;text-decoration:none;line-height:normal;letter-spacing:normal;word-spacing:normal;text-transform:none;direction:ltr;block-progression:tb;writing-mode:lr-tb;text-anchor:start;baseline-shift:baseline;opacity:0.20253164;color:#000000;fill:#000000;fill-opacity:1;stroke:none;stroke-width:2.20000005;marker:none;visibility:visible;display:inline;overflow:visible;enable-background:accumulate;font-family:Sans;-inkscape-font-specification:Sans" />
    <path
       transform="matrix(-0.06070935,-0.1710976,0.17005644,-0.06033993,285.15274,116.49142)"
       d="m 445,433.79074 c 0,111.24593 -90.18264,201.42857 -201.42857,201.42857 -111.24593,0 -201.428577,-90.18264 -201.428577,-201.42857 0,-111.24593 90.182647,-201.42857 201.428577,-201.42857 C 354.81736,232.36217 445,322.54481 445,433.79074 z"
       sodipodi:ry="201.42857"
       sodipodi:rx="201.42857"
       sodipodi:cy="433.79074"
       sodipodi:cx="243.57143"
       id="path6771"
       style="fill:#e18034;fill-opacity:1;fill-rule:nonzero;stroke:none"
       sodipodi:type="arc" />
    <g
       id="g6773"
       transform="matrix(0.97169953,-0.10536963,0.10536963,0.97169953,293.8534,6.7296065)">
      <path
         id="path6775"
         d="m 28.96875,17.8125 c -0.170046,0.01269 -0.27746,0.243575 -0.28125,0.59375 -0.0067,0.622534 -1.413563,0.918558 -1.78125,0.375 -0.367685,-0.543579 -0.60949,-0.3368 -1.03125,0.28125 -0.421759,0.61805 0.745292,1.495498 0.125,1.28125 -0.620292,-0.214247 -0.775097,-0.357759 -1.15625,0.34375 -0.381155,0.701487 -0.766308,0.807049 -1.34375,0.46875 -0.218609,-0.128076 -0.439479,-0.285242 -0.65625,-0.375 -4.195531,3.516011 -7.564814,7.918222 -9.875,12.875 0.678138,-0.174049 1.399629,-0.380137 1.84375,0.1875 0.818825,1.046545 0.525225,1.28111 -0.1875,1.9375 -0.712727,0.656411 0.997599,1.369804 1.65625,1.875 0.658651,0.505217 1.31176,2.052067 1.59375,2.84375 0.281984,0.791705 1.338522,1.310839 1.625,1.6875 0.286476,0.37666 2.392105,0.47268 3.96875,0.53125 1.576645,0.05857 1.089247,0.723469 0.875,1.34375 -0.214246,0.620302 1.184157,0.350149 1.71875,0.8125 0.534592,0.462373 0.836496,0.219125 1.75,0.1875 0.913508,-0.03162 0.592653,-0.07611 1.125,0.59375 0.532349,0.669884 0.48636,0.153285 0.9375,0.65625 0.451138,0.502966 0.409293,0.228489 1.40625,0.15625 0.996959,-0.07224 0.630067,0.195203 1,0.53125 0.205002,0.186238 0.07312,0.786212 0.1875,1.25 -0.122056,-0.07023 -0.208212,-0.232444 -0.3125,-0.4375 C 31.84702,47.652493 31.59375,47.5 31.59375,47.5 L 31.375,47.0625 c -0.51078,0.114166 1.016918,1.411774 0.21875,1.875 -0.838036,0.486365 -0.954437,-0.814592 -1.03125,0.0625 -0.07681,0.877111 1,1.28125 1,1.28125 0,0 -0.927911,0.607104 -0.4375,1.0625 0.490407,0.455396 -0.855507,1.247091 -1.28125,1.0625 -0.425746,-0.18459 -1.148158,0.359737 -1.15625,1.125 -0.0081,0.765263 1.166795,0.492282 0.96875,0.0625 -0.198046,-0.429785 1.408142,-0.05969 1.46875,0.59375 0.06062,0.653437 0.90625,0.625 0.90625,0.625 0,0 -0.924223,0.421416 -1.28125,0.125 -0.357032,-0.296395 -0.655783,3.261941 -0.28125,4.03125 0.374534,0.769331 1.543752,1.657865 2.21875,1.6875 0.675002,0.02966 1.238035,1.204321 1.75,1.75 0.511972,0.545679 3.746344,0.513077 3.3125,1.09375 -0.433845,0.580694 1,0.90625 1,0.90625 0,0 0.149187,1.029279 0.4375,1.4375 0.288315,0.408242 1.585403,0.668388 0.4375,0.65625 -1.147906,-0.01203 -0.71875,1.40625 -0.71875,1.40625 0,0 0.213282,0.14176 0.53125,-0.125 0.31797,-0.266759 0.792085,-0.304903 0.625,0.59375 -0.167081,0.898654 -0.505959,1.081019 0.875,2.46875 1.38096,1.387753 1.333202,1.601465 1.53125,2.03125 0.198043,0.429785 0.0068,0.834223 0.65625,1.15625 0.649395,0.322028 1.983448,-2.025211 1.3125,-2.4375 -0.670947,-0.412288 -0.04801,-0.942959 0.21875,-0.625 0.266759,0.317959 2.266474,-1.35358 1.96875,-3 -0.266289,-1.47259 0.226353,-2.260822 1.125,-2.09375 0.898652,0.167094 3.129722,-2.765443 2.5625,-2.34375 -0.567224,0.421715 -2.103015,-3.100188 -0.46875,-2.25 1.634266,0.850188 3.439512,-1.210934 1.75,-1.09375 -1.689525,0.117185 1.193815,-1.434191 0.65625,-1.6875 -0.537578,-0.253286 -4.038082,-1.967618 -2.59375,-2.3125 1.444311,-0.344882 0.286828,-5.620375 -0.5,-5.71875 -0.786827,-0.09838 -1.651172,-1.709705 -1.53125,-2.40625 0.0071,-0.04138 1.8e-4,-0.08113 0,-0.125 -0.337497,-0.445182 -0.782051,-0.6307 -1.03125,-0.3125 -0.396559,0.506377 -1.911927,0.224928 -2.34375,-0.0625 -0.431815,-0.287449 -0.453124,-0.800037 -0.8125,-0.59375 -0.359389,0.206264 -0.420714,0.757252 -0.625,0.25 -0.0731,-0.181463 -0.205419,-0.457783 -0.34375,-0.75 -4.80185,-2.027156 -3.247809,1.250309 -5.21875,-0.15625 -0.06586,0.03329 -0.212888,-0.01173 -0.375,-0.09375 -0.305677,0.174726 -0.596651,0.327222 -0.6875,0.0625 -0.03782,-0.110207 -0.05481,-0.177739 -0.09375,-0.25 -0.197643,-0.02351 -0.364906,-0.09719 -0.5,-0.1875 -0.0583,0.007 -0.114171,0.0161 -0.1875,0.03125 -0.05796,0.01203 -0.114018,0.03626 -0.15625,0.0625 0.0753,0.471253 0.111067,1.02996 -0.15625,1.21875 -0.199014,0.140542 -0.509485,0.04944 -0.875,0.0625 -0.175451,0.152244 -0.191552,0.390602 -0.25,0.5 -0.08067,0.151218 -0.406824,0.198229 -0.625,0.34375 -0.0085,-0.443698 0.0625,-0.875 0.0625,-0.875 l -1.125,-1.40625 -0.75,-0.28125 c -0.162901,-0.05625 -0.294986,-0.10809 -0.40625,-0.15625 -0.0136,0.01072 -0.01865,0.02233 -0.03125,0.03125 -0.04944,0.03502 -0.110909,0.07265 -0.15625,0.09375 -0.363324,0.168559 -1.135346,-0.145712 -1.71875,-0.125 -0.583396,0.02056 0.06632,0.07277 -0.5625,-0.96875 C 28.027422,43.333507 27.25,42.34375 27.25,42.34375 L 27.34375,41.75 C 27.200763,41.594979 27.060834,41.326193 27.25,40.90625 c 0.297698,-0.660895 -0.841852,-1.269137 -0.375,-2.21875 0.466854,-0.949613 -0.116525,-0.885649 1,-0.5 1.116525,0.38565 1.971006,-1.047187 2.1875,-1.875 0.190023,-0.726596 0.377453,-0.328261 1.0625,-0.1875 -0.01553,-0.0884 -0.02665,-0.208585 -0.03125,-0.375 -0.02622,-0.946092 0.414431,-1.027713 0.78125,-0.78125 0.04012,0.02697 0.09521,0.03367 0.15625,0.0625 0.0013,-0.341164 0.0023,-0.685938 0.125,-0.96875 0.248646,-0.573106 1.327443,-0.443364 2.3125,-0.21875 -0.2832,-0.407215 -0.552924,-1.240916 -0.03125,-1.3125 0.122239,-0.01684 0.238634,-0.02917 0.34375,-0.03125 -0.287242,-0.2366 0.299115,-0.740901 0.96875,-0.5625 0.04517,-0.349694 0.0927,-0.774982 0.28125,-1.09375 0.155169,-0.262341 0.398308,-0.410923 0.6875,-0.46875 -0.05037,-0.313301 -0.124339,-0.464113 -0.1875,-0.28125 -0.214246,0.620302 -0.874277,-0.712392 -1.375,-0.46875 -0.500723,0.24362 -0.483174,-1.653641 -0.8125,-1.90625 -0.329325,-0.252609 0.963538,-1.997586 1.46875,-2.65625 0.505213,-0.658642 -0.213162,-0.307639 -0.75,-0.5625 -0.536837,-0.25484 0.07542,-0.659664 0.125,-1.40625 0.04958,-0.746607 -0.327143,-0.448166 -1.28125,-0.5 -0.954108,-0.05181 -0.662547,-1.757145 0.59375,-2.78125 1.256298,-1.024083 -0.785221,-0.15032 -1.6875,-1.15625 -0.90228,-1.005931 -1.334191,-0.87609 -0.96875,-0.125 0.365441,0.751091 -1.022475,0.692005 -1.4375,0.6875 C 29.991224,19.21435 29.802943,19.001091 29.4375,18.25 29.277619,17.921412 29.101008,17.802658 28.96875,17.8125 z"
         style="fill:#b30000;fill-opacity:1;stroke:none"
         inkscape:connector-curvature="0" />
      <path
         id="path6777"
         d="m 76.875,48.28125 c -0.16022,-0.0082 -0.377941,0.101799 -0.65625,0.40625 -0.556625,0.608929 -1.861985,2.004419 -2.3125,2.375 -2.549656,-0.475285 -2.439968,-0.439599 -3.53125,-0.59375 l -0.34375,0.25 c 0,0 -0.572991,-0.05303 -0.84375,0.78125 0.110389,-0.04952 0.445823,0.72893 0.5,0.78125 0.06008,0.05835 -0.90885,1.337255 -1,1.53125 0.564245,1.199572 2.018301,0.581441 2.90625,1.6875 0.301055,0.902831 1.990431,0.03805 2.375,1 0.384543,0.96197 0.114162,1.070444 -0.5625,1.40625 0.16134,1.390481 0.530937,3.188648 0,4.53125 -0.312989,0.62664 -0.819468,2.955533 -0.65625,3.4375 0.155122,0.33095 0.332755,0.669591 0.625,0.65625 0.662098,-0.03027 -0.24083,2.006184 0,2.4375 0.103804,0.185881 -0.267332,0.528518 -0.78125,0.90625 0.05197,0.229491 0.09375,0.40625 0.09375,0.40625 l 1.125,1.3125 c -0.01287,0.02255 -0.0564,0.03934 -0.0625,0.0625 -0.0081,0.03012 -0.0284,0.05563 -0.03125,0.09375 -0.0028,0.03808 0.0017,0.08104 0,0.125 -0.01093,0.263653 -0.04808,0.619708 -0.5625,0.8125 -0.685872,0.25707 0.0415,1.520804 -0.6875,1.84375 -4.529915,-3.367787 -3.811808,-0.262215 -6.53125,-0.71875 -0.178795,-0.284803 -0.179689,-0.170773 -0.21875,0.03125 L 64.875,73.625 c 0,0 -0.403084,0.0948 -0.75,0.25 -0.346916,0.155195 -0.242673,0.08024 -0.25,0.25 -0.0072,0.169805 -0.13885,0.358936 -0.09375,0.46875 0.04505,0.109835 0.280746,0.267637 0.09375,0.5625 -0.186931,0.294864 0.465665,0.573965 0.28125,0.90625 -0.08048,0.145485 -0.150819,0.224454 -0.21875,0.25 -0.253375,-0.101022 -0.776984,-0.299691 -1.375,-0.4375 -0.776986,-0.179035 -0.49173,-0.149983 -0.71875,0.125 -0.226998,0.274983 -0.686531,0.477929 -0.75,0.71875 -0.0081,0.03012 -0.0284,0.05565 -0.03125,0.09375 -0.0028,0.03816 0.0017,0.08104 0,0.125 -0.0077,0.185854 -0.03056,0.410038 -0.21875,0.59375 0.05693,0.226174 0.09904,0.468738 0.125,0.71875 0.124528,1.199069 -0.956138,3.609344 -3.75,5.78125 6.73144,-2.005695 12.486012,-5.794496 16.90625,-10.71875 0.10369,-0.115513 0.210286,-0.226987 0.3125,-0.34375 0.0097,-0.01112 0.02153,-0.02012 0.03125,-0.03125 0.385249,-0.441141 0.761111,-0.88538 1.125,-1.34375 4.217663,-5.157209 7.100281,-11.484227 8.03125,-18.5625 0.171701,-1.305496 0.27857,-2.618273 0.3125,-3.90625 -0.243515,0.0947 -0.480357,0.0021 -0.71875,-0.25 -0.235204,-0.248847 -0.448292,-0.49789 -0.71875,-0.59375 -0.655729,-0.120673 -1.190102,0.413677 -1.65625,0.78125 -0.213989,0.03657 -0.363715,-0.298033 -0.78125,-0.59375 -0.97554,1.173947 -2.075346,1.798571 -2.90625,0.125 -0.03047,-0.178303 -0.12103,-0.304325 -0.28125,-0.3125 z"
         style="fill:#b30000;fill-opacity:1;stroke:none"
         inkscape:connector-curvature="0" />
    </g>
    <path
       inkscape:connector-curvature="0"
       id="path6779"
       d="m 323.89228,20.985288 c -0.1639,0.03025 -0.24882,0.279946 -0.2156,0.620611 0.0591,0.605616 -1.28819,1.019839 -1.70274,0.530408 -0.41456,-0.489453 -0.61916,-0.257583 -0.96386,0.387417 -0.3447,0.645 0.88435,1.372064 0.25903,1.229239 -0.62531,-0.142824 -0.78493,-0.258789 -1.08138,0.463029 -0.29645,0.721797 -0.65757,0.875394 -1.25432,0.607514 -0.22592,-0.101417 -0.47276,-0.23769 -0.69285,-0.302066 -3.70632,3.858588 -6.51977,8.501437 -8.24229,13.561359 0.64061,-0.240579 1.32742,-0.544836 1.81879,-0.04006 0.90592,0.930648 0.64249,1.20244 0.0191,1.915354 -0.6234,0.712933 1.12105,1.236322 1.81429,1.657819 0.69325,0.421517 1.4958,1.857028 1.85323,2.596593 0.35743,0.739586 1.41052,1.111266 1.72858,1.447082 0.31806,0.335814 2.40256,0.216252 3.94076,0.107034 1.5382,-0.109214 1.12315,0.588587 0.98033,1.213889 -0.14282,0.625323 1.1937,0.201837 1.76189,0.594773 0.56818,0.392958 0.81356,0.13147 1.69788,0.0045 0.88432,-0.126976 0.59458,-0.125803 1.18245,0.469008 0.58787,0.594832 0.47698,0.08246 0.96835,0.523657 0.49136,0.441196 0.4227,0.182349 1.38383,0.0071 0.96113,-0.175248 0.6255,0.136159 1.02037,0.423716 0.21883,0.159366 0.15778,0.752824 0.3178,1.191433 -0.126,-0.05538 -0.2349,-0.212996 -0.35784,-0.40126 -0.31734,-0.122895 -0.56185,-0.253407 -0.56185,-0.253407 l -0.26127,-0.380299 c -0.48429,0.164755 1.13964,1.244134 0.41288,1.778353 -0.76308,0.560905 -1.03629,-0.687052 -1.01851,0.173312 0.0178,0.860381 1.12893,1.134908 1.12893,1.134908 0,0 -0.84492,0.71264 -0.3204,1.103473 0.52451,0.390834 -0.6984,1.294504 -1.13154,1.159998 -0.43315,-0.134506 -1.0733,0.464199 -1.00053,1.208658 0.0728,0.744457 1.1765,0.357818 0.93877,-0.03893 -0.23772,-0.396754 1.36539,-0.193244 1.49313,0.435318 0.12776,0.628557 0.93392,0.495959 0.93392,0.495959 0,0 -0.85109,0.509437 -1.22924,0.259029 -0.37816,-0.250386 -0.30012,3.2368 0.14487,3.944873 0.445,0.708094 1.69429,1.453098 2.35331,1.41077 0.65902,-0.0423 1.33905,1.047151 1.89402,1.523441 0.55498,0.476289 3.67492,0.09935 3.31454,0.709305 -0.36038,0.609975 1.0885,0.762094 1.0885,0.762094 0,0 0.23232,0.987969 0.55549,1.354258 0.32317,0.366309 1.62239,0.496101 0.5057,0.60526 -1.11669,0.109263 -0.56633,1.444473 -0.56633,1.444473 0,0 0.23382,0.111171 0.51468,-0.181544 0.28086,-0.292714 0.74966,-0.398984 0.682,0.491843 -0.0677,0.890827 -0.3865,1.129385 1.10161,2.332332 1.4881,1.202968 1.46577,1.398813 1.7035,1.795566 0.23772,0.396754 0.0776,0.806586 0.74264,1.051064 0.66495,0.244489 1.71314,-2.169361 1.01774,-2.499285 -0.6954,-0.329923 -0.13925,-0.894725 0.15347,-0.613872 0.29271,0.280852 2.0723,-1.560801 1.60952,-3.129255 -0.41392,-1.402856 -0.0258,-2.236046 0.86503,-2.168393 0.89082,0.06767 2.74623,-3.006998 2.23949,-2.537471 -0.50673,0.469549 -2.37944,-2.778142 -0.70184,-2.124217 1.6776,0.653925 3.22017,-1.564559 1.59082,-1.272668 -1.62937,0.291893 1.02628,-1.49678 0.47724,-1.686277 -0.54906,-0.189474 -4.12955,-1.50776 -2.76243,-1.99507 1.36709,-0.487308 -0.32521,-5.494563 -1.10013,-5.507246 -0.77493,-0.01269 -1.78707,-1.478912 -1.74393,-2.168381 0.002,-0.04095 -0.009,-0.08166 -0.0135,-0.124271 -0.37485,-0.397021 -0.81924,-0.538325 -1.02786,-0.202872 -0.33198,0.533831 -1.8248,0.41759 -2.27469,0.183797 -0.44988,-0.233813 -0.54094,-0.709945 -0.86841,-0.471628 -0.32748,0.238295 -0.31138,0.783924 -0.56334,0.312553 -0.0901,-0.168625 -0.25739,-0.439199 -0.4226,-0.708571 -4.87955,-1.463817 -3.01753,1.552876 -5.08091,0.3938 -0.0605,0.03929 -0.21675,0.0098 -0.38292,-0.05278 -0.27861,0.20199 -0.56058,0.38391 -0.67675,0.136253 -0.0484,-0.103103 -0.0713,-0.141255 -0.11679,-0.207369 -0.19452,-0.002 -0.34544,-0.06235 -0.48623,-0.135872 -0.0559,0.0129 -0.11338,0.02883 -0.18304,0.05128 -0.0551,0.0178 -0.11033,0.04903 -0.1486,0.07898 0.12283,0.449982 0.21254,0.985809 -0.0273,1.197424 -0.17857,0.157534 -0.4783,0.101887 -0.83209,0.153097 -0.15445,0.166423 -0.15275,0.380509 -0.19801,0.49297 -0.0625,0.155439 -0.38763,0.244733 -0.5843,0.409125 -0.055,-0.430246 -0.0288,-0.84557 -0.0288,-0.84557 l -1.23561,-1.249073 -0.74488,-0.202125 c -0.16422,-0.03749 -0.30754,-0.07647 -0.42073,-0.111543 -0.0121,0.01185 -0.0164,0.02444 -0.0277,0.03444 -0.0444,0.03924 -0.1034,0.08477 -0.14524,0.110048 -0.33528,0.202072 -1.12643,-0.02395 -1.69114,0.05765 -0.56472,0.08145 0.0915,0.07102 -0.62922,-0.874764 -0.72077,-0.945759 -1.5826,-1.84011 -1.5826,-1.84011 l 0.0326,-0.569328 c -0.15527,-0.135568 -0.32373,-0.400735 -0.18416,-0.828726 0.21963,-0.67356 -0.95885,-1.131325 -0.60527,-2.103256 0.35358,-0.971931 -0.21637,-0.858611 0.9092,-0.601523 1.12556,0.257088 1.82514,-1.207197 1.94828,-2.034395 0.10808,-0.726055 0.32453,-0.362176 1.00503,-0.297582 -0.0244,-0.08426 -0.0495,-0.208226 -0.0715,-0.369446 -0.12517,-0.916554 0.28237,-1.02732 0.66477,-0.826484 0.0418,0.02198 0.0997,0.02371 0.16208,0.04529 -0.0346,-0.331649 -0.0696,-0.688846 0.0198,-0.97658 0.18122,-0.583086 1.26352,-0.577871 2.24437,-0.463408 -0.3181,-0.36585 -0.66856,-1.145887 -0.1692,-1.270414 0.11701,-0.02924 0.20539,-0.05166 0.30731,-0.06476 -0.30404,-0.199637 0.23635,-0.735384 0.90583,-0.632591 0.007,-0.344557 -0.0156,-0.753644 0.134,-1.083259 0.12314,-0.271267 0.35805,-0.453473 0.63296,-0.540135 -0.082,-0.299127 -0.17462,-0.443741 -0.21673,-0.259397 -0.14282,0.625322 -0.92557,-0.610662 -1.38645,-0.321154 -0.46088,0.289487 -0.62884,-1.538021 -0.97546,-1.74878 -0.34663,-0.210759 0.72798,-2.040348 1.1495,-2.733605 0.42151,-0.693237 -0.25777,-0.287285 -0.80627,-0.478367 -0.5485,-0.191062 0.007,-0.649781 -0.024,-1.380463 -0.0305,-0.730702 -0.36068,-0.381427 -1.29325,-0.331259 -0.93256,0.05019 -0.81564,-1.639418 0.29719,-2.766916 1.11284,-1.127477 -0.78851,-0.08857 -1.77124,-0.970956 -0.98274,-0.88239 -1.37976,-0.71453 -0.94552,-0.0232 0.43425,0.691328 -0.92018,0.795742 -1.32393,0.835096 -0.40375,0.03946 -0.62993,-0.136271 -1.06418,-0.827599 -0.18998,-0.302442 -0.35463,-0.411284 -0.48211,-0.387785 z m 54.96632,23.963939 c -0.52965,0.08345 -0.92032,0.569429 -1.28276,0.924931 -0.20408,0.05808 -0.3694,-0.235014 -0.80627,-0.478367 -0.82424,1.243516 -1.82997,1.969502 -2.81371,0.430847 -0.0484,-0.170047 -0.15675,-0.289297 -0.3133,-0.280359 -0.15654,0.0089 -0.37027,0.149471 -0.60862,0.474631 -0.47671,0.650347 -1.58887,2.134023 -1.98759,2.541587 -2.52758,-0.193178 -2.40483,-0.184904 -3.48148,-0.219705 l -0.31479,0.285602 c 0,0 -0.57942,0.02846 -0.75461,0.867658 0.10205,-0.05975 0.51979,0.646596 0.57794,0.691726 0.0645,0.05037 -0.73326,1.397586 -0.80139,1.595695 0.67467,1.10617 2.02636,0.358828 3.00573,1.340023 0.38766,0.845558 1.92841,-0.180407 2.40346,0.713801 0.47502,0.894228 0.21114,1.030026 -0.41099,1.427628 0.30329,1.334129 0.85283,3.051087 0.47839,4.411638 -0.2381,0.641885 -0.47026,2.940512 -0.26088,3.391641 0.18561,0.305239 0.37847,0.632172 0.66104,0.588416 0.64017,-0.09918 -0.0234,1.967425 0.25604,2.361158 0.12045,0.169682 -0.19173,0.529562 -0.6513,0.950755 0.0747,0.217521 0.137,0.393776 0.137,0.393776 l 1.22551,1.155869 c -0.0101,0.02327 -0.0519,0.04572 -0.0554,0.06887 -0.005,0.03012 -0.0222,0.05923 -0.021,0.09657 10e-4,0.0373 0.0105,0.08137 0.0135,0.124272 0.0172,0.257342 0.0356,0.592429 -0.44393,0.833969 -0.63937,0.322065 0.18625,1.485433 -0.48809,1.876053 -4.75658,-2.795161 -3.72475,0.129774 -6.41533,-0.02729 -0.20375,-0.257903 -0.19744,-0.145771 -0.21411,0.05465 l -0.82798,-0.09881 c 0,0 -0.4013,0.11097 -0.72204,0.29833 -0.32075,0.187357 -0.23236,0.10977 -0.2216,0.275495 0.0109,0.165754 -0.0981,0.37417 -0.0427,0.476124 0.0554,0.10198 0.30111,0.211825 0.15048,0.518047 -0.15057,0.306217 0.52149,0.528335 0.37731,0.870648 -0.0629,0.149848 -0.12721,0.240145 -0.19052,0.272126 -0.25685,-0.07147 -0.78747,-0.219189 -1.38309,-0.290085 -0.77386,-0.0921 -0.47839,-0.09273 -0.67001,0.198388 -0.1916,0.291119 -0.63522,0.523655 -0.67152,0.764348 -0.005,0.03012 -0.0222,0.05925 -0.021,0.09657 0.001,0.03737 0.0105,0.08137 0.0135,0.124271 0.0121,0.181403 0.0411,0.412165 -0.1224,0.610504 0.0792,0.213775 0.11576,0.433184 0.16732,0.673386 0.24735,1.152013 -0.53922,3.612624 -3.02516,6.017452 6.3296,-2.658222 11.53003,-6.939259 15.30631,-12.189913 0.0886,-0.12317 0.1866,-0.251207 0.27362,-0.375436 0.008,-0.01183 0.0194,-0.0226 0.0277,-0.03444 0.32786,-0.46925 0.64058,-0.939023 0.94588,-1.422764 3.55488,-5.455672 5.68188,-11.919991 5.84067,-18.896042 0.0293,-1.286641 0.002,-2.568868 -0.10033,-3.82397 -0.22665,0.11768 -0.48331,0.04879 -0.74152,-0.171057 -0.25476,-0.217021 -0.47123,-0.420456 -0.74413,-0.485104 -0.0812,-0.006 -0.17625,-0.01604 -0.25191,-0.0041 z"
       style="fill:#9f1103;fill-opacity:1;stroke:none" />
    <path
       style="fill:#3aa3d7;fill-opacity:1;stroke:none"
       d="m 376.5,21.65625 c -1.15329,-0.07902 -3.27303,0.844571 -4.625,1.5 -0.25968,-0.295315 -0.50522,-0.5806 -0.78125,-0.875 -9.35601,-0.845663 -16.78125,4.84375 -16.78125,4.84375 -2.12282,-0.130036 -6.51684,-0.974584 -7.78125,-0.53125 -1.62567,0.570002 -1.50346,2.504269 2.96875,8.09375 -0.0179,0.02593 -0.045,0.03658 -0.0625,0.0625 -1.84075,-1.418761 -3.64817,-3.063656 -5.1875,-4.875 0.63333,2.063727 1.74927,4.289266 3.21875,6.375 -0.92539,-0.817516 -1.85187,-1.735453 -2.6875,-2.71875 0.78846,3.771288 3.23938,7.371257 6.4375,9.71875 4.47935,4.515011 12.70835,7.727304 12.125,8.15625 -1.42324,1.046519 0.46201,3.313658 2.4375,3.0625 5.81033,-1.055349 10.33879,-0.824151 8.5625,-5.71875 4.63494,-4.453031 5.77538,-11.839602 1.71875,-19.59375 0.66076,-0.860446 1.65676,-5.18927 1.21875,-6.96875 -0.083,-0.337219 -0.37212,-0.503218 -0.78125,-0.53125 z"
       id="path6781"
       inkscape:connector-curvature="0" />
    <path
       style="fill:#ffffff;fill-opacity:1;stroke:none"
       d="m 341.25,8.53125 c -0.94826,-0.00749 -1.89675,0.011247 -2.84375,0.0625 -0.10842,0.01356 -0.20545,0.016864 -0.3125,0.03125 -1.40486,0.1888015 -2.70013,0.4580699 -3.8125,0.75 -0.61779,0.162139 2.13373,1.387278 1.59375,1.5625 -0.97074,0.314993 -1.81636,0.617083 -2.5,0.9375 -8.09683,3.794889 -18.81928,10.889829 -22.84375,16.84375 -0.39862,0.589739 3.63475,-0.570014 3.28125,0.03125 -1.75053,2.9775 -5.36185,7.710655 -5.9375,10.84375 -0.0812,0.441691 2.30651,-0.75489 2.25,-0.3125 -0.65315,5.112446 0.32038,10.259184 3.21875,14.96875 0.008,-0.707019 0.0443,-1.397356 0.0937,-2.0625 0.0302,-0.406974 0.0481,-0.827813 0.0937,-1.21875 1.32395,-11.337176 8.98348,-15.999978 14,-18.75 3.49927,-1.918279 10.98582,-3.116683 17.375,-0.5625 0.6414,1.531338 1.5041,3.09149 2.5625,4.59375 -0.92539,-0.817516 -1.85187,-1.735453 -2.6875,-2.71875 0.78846,3.771288 3.23938,7.371257 6.4375,9.71875 4.47935,4.515011 12.70835,7.727304 12.125,8.15625 -1.42324,1.046519 0.46201,3.313658 2.4375,3.0625 5.81033,-1.055349 10.33879,-0.824151 8.5625,-5.71875 4.81272,-4.623834 5.87942,-12.42188 1.25,-20.5 -0.0393,-0.06385 -0.0853,-0.123822 -0.125,-0.1875 -0.0245,-0.03922 -0.0379,-0.08584 -0.0625,-0.125 -1.08773,-1.84017 -2.48584,-3.665397 -4.1875,-5.5 -0.0441,-0.04942 -0.0807,-0.106985 -0.125,-0.15625 -0.0104,-9.41e-4 -0.0208,9.25e-4 -0.0312,0 -0.50108,-0.55672 -1.00235,-1.12024 -1.53125,-1.65625 -0.34381,-0.360497 -0.6948,-0.706286 -1.0625,-1.0625 -0.0105,-0.01003 -0.0207,-0.02123 -0.0312,-0.03125 -0.37929,-0.366594 -0.77936,-0.729346 -1.1875,-1.09375 -0.42065,-0.375567 -0.84925,-0.73983 -1.28125,-1.09375 -0.0399,-0.03262 -0.0851,-0.06131 -0.125,-0.09375 -0.4035,-0.327933 -0.806,-0.659575 -1.21875,-0.96875 -0.0727,-0.05447 -0.14576,-0.102359 -0.21875,-0.15625 -0.37559,-0.277361 -0.7423,-0.550525 -1.125,-0.8125 -0.11163,-0.07638 -0.23153,-0.143674 -0.34375,-0.21875 -0.35264,-0.236 -0.70431,-0.464401 -1.0625,-0.6875 -0.14834,-0.09244 -0.28824,-0.191018 -0.4375,-0.28125 -0.31805,-0.192211 -0.6467,-0.380316 -0.96875,-0.5625 -0.19555,-0.110576 -0.39679,-0.205613 -0.59375,-0.3125 -0.46956,-0.254817 -0.92909,-0.516122 -1.40625,-0.75 -0.0506,-0.02478 -0.1056,-0.03795 -0.15625,-0.0625 -0.24906,-0.120861 -0.49903,-0.228573 -0.75,-0.34375 -0.27781,-0.127359 -0.56371,-0.254592 -0.84375,-0.375 -0.21839,-0.09393 -0.43658,-0.191546 -0.65625,-0.28125 -0.32162,-0.131352 -0.64452,-0.252691 -0.96875,-0.375 -0.38626,-0.145708 -0.76658,-0.30461 -1.15625,-0.4375 -0.15582,-0.05314 -0.31242,-0.105158 -0.46875,-0.15625 -0.14471,-0.04727 -0.29236,-0.07949 -0.4375,-0.125 C 352.52321,10.184435 352.01278,10.044095 351.5,9.90625 351.28446,9.848306 351.06004,9.8041578 350.84375,9.75 350.60456,9.690133 350.36505,9.6177381 350.125,9.5625 349.56392,9.4332812 349.00265,9.322729 348.4375,9.21875 347.89199,9.1183846 347.32977,9.0143963 346.78125,8.9375 c -0.0104,-0.00145 -0.0209,0.00145 -0.0312,0 -0.16528,-0.022878 -0.3345,-0.041749 -0.5,-0.0625 -0.41032,-0.051728 -0.80727,-0.1175852 -1.21875,-0.15625 -0.22815,-0.021403 -0.45907,-0.013859 -0.6875,-0.03125 -0.2388,-0.018232 -0.47971,-0.048649 -0.71875,-0.0625 -0.10435,-0.00664 -0.20846,0.00613 -0.3125,0 -0.68787,-0.040549 -1.37014,-0.088282 -2.0625,-0.09375 z"
       id="path6783"
       inkscape:connector-curvature="0" />
    <path
       style="fill:#8dcfe1;fill-opacity:1;stroke:none"
       d="M 337.96875,8.625 C 337.14847,8.677011 336.31458,8.751262 335.5,8.84375 336.32295,8.749835 337.13998,8.6775262 337.96875,8.625 z"
       id="path6785"
       inkscape:connector-curvature="0" />
    <path
       style="fill:#8dcfe1;fill-opacity:1;stroke:none"
       d="M 335.5,8.84375 C 334.83417,8.919348 334.19097,9.0241274 333.53125,9.125 334.18172,9.025489 334.84359,8.9186592 335.5,8.84375 z"
       id="path6787"
       inkscape:connector-curvature="0" />
    <path
       style="fill:#8dcfe1;fill-opacity:1;stroke:none"
       d="m 346.875,32.5625 c 0.69028,0.381586 1.3592,0.821825 2,1.3125 0.21039,0.272712 0.39113,0.520207 0.625,0.8125 -0.0179,0.02593 -0.045,0.03658 -0.0625,0.0625 -0.87992,-0.678201 -1.72468,-1.411214 -2.5625,-2.1875 z"
       id="path6789"
       inkscape:connector-curvature="0" />
    <path
       style="fill:#87cdde;fill-opacity:1;stroke:none"
       d="m 365.4375,68.09375 c -0.90816,1.127388 -1.83934,2.155326 -2.78125,3.125 0.14376,-0.793397 0.26464,-1.608081 0.40625,-2.5 -0.61126,1.113404 -1.25676,2.129974 -1.90625,3.09375 0.18111,-0.457288 0.32756,-0.923469 0.5,-1.40625 -4.6784,5.846952 -10.44503,8.209508 -14.15625,9.15625 -0.01,0.0022 -0.0213,-0.0022 -0.0312,0 -0.0221,0.0078 -0.0412,0.02591 -0.0625,0.03125 -0.29175,0.06421 -0.57616,0.133309 -0.875,0.1875 -0.0102,0.0021 -0.0211,-0.0021 -0.0312,0 -0.27198,0.03918 -0.54231,0.06097 -0.8125,0.09375 -0.83129,0.09874 -1.65457,0.184864 -2.46875,0.21875 1.19898,-0.741813 2.32358,-1.598836 3.40625,-2.53125 -3.8038,1.449027 -7.49084,1.915565 -10.125,2.0625 -0.47333,-0.08433 -0.94261,-0.17571 -1.40625,-0.28125 -0.36123,-0.08237 -0.70742,-0.186381 -1.0625,-0.28125 -0.40461,-0.107844 -0.82245,-0.220184 -1.21875,-0.34375 -0.3963,-0.123566 -0.76862,-0.236224 -1.15625,-0.375 -0.38763,-0.138776 -0.77764,-0.284027 -1.15625,-0.4375 -1.8074,-0.732641 -3.51501,-1.622406 -5.09375,-2.65625 -0.0754,-0.04941 -0.14394,-0.106221 -0.21875,-0.15625 -0.32916,-0.219879 -0.65078,-0.455935 -0.96875,-0.6875 -0.31899,-0.232641 -0.63013,-0.474867 -0.9375,-0.71875 -0.5879,-0.465493 -1.14397,-0.933677 -1.6875,-1.4375 -0.0488,-0.04521 -0.10784,-0.07949 -0.15625,-0.125 -0.53034,-0.498935 -1.04639,-1.030351 -1.53125,-1.5625 -0.0996,-0.109366 -0.18363,-0.233069 -0.28125,-0.34375 -0.0738,-0.08362 -0.14706,-0.16554 -0.21875,-0.25 0.0228,3.984543 0.34053,8.227722 1.09375,11.5 0.23849,1.036051 -4.42135,-4.510735 -4.46875,-3.40625 -0.0751,1.750023 -0.066,3.578324 0,5.40625 0.90225,1.550349 1.78784,3.222907 2.59375,5.0625 -0.12046,-1.825053 -0.31959,-3.638895 -0.6875,-5.40625 0.72119,0.480527 1.45871,0.915369 2.21875,1.34375 0.63378,0.35722 1.2775,0.712225 1.9375,1.03125 0.28779,0.139395 0.58232,0.274343 0.875,0.40625 0.0123,0.0055 0.0189,0.02573 0.0312,0.03125 0.62427,0.280477 1.26022,0.535889 1.90625,0.78125 0.0308,0.01166 0.0629,0.01967 0.0937,0.03125 0.49707,0.187166 0.99039,0.365608 1.5,0.53125 0.19814,0.06432 0.39374,0.126503 0.59375,0.1875 0.11379,0.03476 0.22935,0.06007 0.34375,0.09375 0.0316,0.0093 0.0622,0.02206 0.0937,0.03125 0.49156,0.143225 0.99752,0.283395 1.5,0.40625 0.14497,0.0353 0.29164,0.06017 0.4375,0.09375 0.65253,0.150936 1.29853,0.290595 1.96875,0.40625 0.0202,0.0035 0.0422,-0.0035 0.0625,0 0.74474,0.127208 1.51533,0.230409 2.28125,0.3125 0.62401,0.06688 1.23731,0.120317 1.875,0.15625 0.16725,0.0094 0.33183,0.02402 0.5,0.03125 0.11288,0.0049 0.23046,-0.0039 0.34375,0 0.69138,0.02392 1.38716,0.04458 2.09375,0.03125 0.67851,-0.0364 1.324,-0.07059 1.96875,-0.125 0.0752,-0.0066 0.14398,-0.02442 0.21875,-0.03125 0.16002,-0.01407 0.3108,-0.04736 0.46875,-0.0625 0.39915,-0.0399 0.80082,-0.07771 1.1875,-0.125 1.23758,-0.143931 2.39411,-0.325093 3.5,-0.53125 2.6679,-0.497343 4.98466,-1.138378 6.9375,-1.90625 0.0212,-0.0083 0.0414,-0.02289 0.0625,-0.03125 3.34349,-0.997486 7.21466,-1.847874 11.4375,-2.15625 -1.80884,-0.508614 -3.60478,-0.949069 -5.4375,-1.25 0.21537,-0.176365 0.42929,-0.353831 0.625,-0.53125 3.32961,-2.603019 5.92892,-5.946827 8.21875,-9.53125 -1.07735,0.828076 -2.15822,1.605424 -3.25,2.3125 1.06223,-1.764304 1.97256,-3.622787 2.8125,-5.53125 -1.29246,1.355484 -2.62589,2.585346 -3.96875,3.71875 0.75483,-1.639301 1.4389,-3.356179 2.0625,-5.15625 z"
       id="path6791"
       inkscape:connector-curvature="0" />
    <path
       inkscape:connector-curvature="0"
       style="opacity:0.96902657000000003;fill:#c6e2f8;fill-opacity:1;fill-rule:nonzero;stroke:none"
       d="m 331.75461,32.651296 c -3.80084,4.478541 2.93669,8.417739 1.2267,14.986549 -0.18966,0.72865 1.01295,1.609576 1.82247,1.248067 6.83897,-4.712157 2.06006,-7.910443 5.96243,-13.790114 1.6327,-1.923816 3.80591,-3.120357 6.10515,-3.560737 -0.0436,-0.03696 -0.0828,-0.07767 -0.12654,-0.114806 -4.47854,-3.800832 -11.18939,-3.247482 -14.99023,1.231065 l 0,0 z"
       id="path6793"
       sodipodi:nodetypes="cscccscc" />
    <path
       style="fill:#3aa3d7;fill-opacity:1;fill-rule:nonzero;stroke:none"
       d="m 347.9375,23.28125 c -1.82,-0.02238 -3.736,0.20236 -5.65625,0.625 -6.67007,1.468051 -13.22721,5.191078 -14.9375,8.4375 0.0625,-0.03442 0.12579,-0.09117 0.1875,-0.125 3.05327,-1.67378 9.16053,-2.802629 14.90625,-1.375 -1.45879,0.920544 -2.69751,2.229792 -3.59375,3.84375 -1.89741,4.627258 0.19719,7.06083 -0.46875,10.21875 1.16792,-2.917967 -0.3489,-5.708438 2.375,-9.8125 1.19907,-1.412864 2.7248,-2.384216 4.34375,-3 -0.32986,-0.741271 -0.62382,-1.502097 -0.84375,-2.21875 0.78886,0.928257 1.66574,1.822102 2.5625,2.65625 0.006,0.0053 0.0255,-0.0053 0.0312,0 0.71058,0.388415 1.3735,0.84021 2.03125,1.34375 -3.81285,-4.942326 -3.88441,-6.741055 -2.34375,-7.28125 1.26441,-0.443334 5.65843,0.401214 7.78125,0.53125 0,0 0.58911,-0.424651 1.59375,-1.03125 -1.91739,-1.956821 -4.78375,-2.773337 -7.96875,-2.8125 z"
       id="path6795"
       inkscape:connector-curvature="0" />
    <path
       style="fill:#ff5555;fill-opacity:1;stroke:none"
       d="m 372.05002,53.346101 c 0.43729,-1.616717 -0.85032,-1.405003 -2.49863,-1.851914 -1.10132,0.826683 -2.52663,1.9407 -1.69849,2.686529 1.29729,0.544872 3.05711,0.27383 4.19712,-0.834619 z"
       id="path6797"
       inkscape:connector-curvature="0"
       sodipodi:nodetypes="cccc" />
    <path
       style="fill:#c6e2f8;fill-opacity:1;stroke:none"
       d="m 345.75039,27.170971 c -0.57841,1.001515 0.24551,3.151108 3.73942,7.51789 -0.0179,0.02593 -0.0272,0.05035 -0.0447,0.07627 -1.84075,-1.418761 -3.64302,-3.06893 -5.18235,-4.880274 0.63333,2.063727 1.74249,4.277974 3.21197,6.363708 -0.92539,-0.817516 -1.84567,-1.740136 -2.6813,-2.723433 0.78846,3.771288 3.21722,7.37847 6.41534,9.725963 4.47935,4.515011 12.72779,7.73646 12.14444,8.165406 0.46826,-0.578039 0.73669,-0.520405 0.96083,-0.896848 3.45679,-7.802142 -8.12272,-14.568879 -13.33781,-17.930703 -3.66343,-2.361576 -4.16223,-4.167272 -5.22586,-5.417975 z"
       id="path6799"
       inkscape:connector-curvature="0"
       sodipodi:nodetypes="cccccccccscc" />
    <path
       style="fill:#00112b;fill-opacity:1;stroke:none"
       d="m 363.89491,47.435078 c -0.27324,0.102281 -4.53076,1.003871 -3.32841,-1.53513 1.17801,-2.487567 3.4915,0.809894 3.32841,1.53513 z"
       id="path6801"
       inkscape:connector-curvature="0"
       sodipodi:nodetypes="csc" />
    <path
       style="fill:#ffffff;fill-opacity:1;stroke:none"
       d="m 346.875,32.5625 c 0.69028,0.381586 1.3592,0.821825 2,1.3125 0.21039,0.272712 0.39113,0.520207 0.625,0.8125 -0.0179,0.02593 -0.045,0.03658 -0.0625,0.0625 -0.87992,-0.678201 -1.72468,-1.411214 -2.5625,-2.1875 z"
       id="path6803"
       inkscape:connector-curvature="0" />
    <path
       style="fill:#c6e2f8;fill-opacity:1;stroke:none"
       d="m 365.4375,68.09375 c -0.90816,1.127388 -1.83934,2.155326 -2.78125,3.125 0.14376,-0.793397 0.26464,-1.608081 0.40625,-2.5 -0.61126,1.113404 -1.25676,2.129974 -1.90625,3.09375 0.18111,-0.457288 0.32756,-0.923469 0.5,-1.40625 -4.6784,5.846952 -10.44503,8.209508 -14.15625,9.15625 -0.01,0.0022 -0.0213,-0.0022 -0.0312,0 -0.0221,0.0078 -0.0412,0.02591 -0.0625,0.03125 -0.29175,0.06421 -0.57616,0.133309 -0.875,0.1875 -0.0102,0.0021 -0.0211,-0.0021 -0.0312,0 -0.27198,0.03918 -0.54231,0.06097 -0.8125,0.09375 -0.83129,0.09874 -1.65457,0.184864 -2.46875,0.21875 1.19898,-0.741813 2.32358,-1.598836 3.40625,-2.53125 -3.8038,1.449027 -7.49084,1.915565 -10.125,2.0625 -0.47333,-0.08433 -0.94261,-0.17571 -1.40625,-0.28125 -0.36123,-0.08237 -0.70742,-0.186381 -1.0625,-0.28125 -0.40461,-0.107844 -0.82245,-0.220184 -1.21875,-0.34375 -0.3963,-0.123566 -0.76862,-0.236224 -1.15625,-0.375 -0.38763,-0.138776 -0.77764,-0.284027 -1.15625,-0.4375 -0.63793,-0.25859 -1.26321,-0.546586 -1.875,-0.84375 -1.01634,-0.156803 -2.23269,-0.36958 -2.03125,-0.0625 2.46899,3.763625 5.88715,7.555415 10.03125,10 0.62849,0.370752 -5.25536,0.570958 -4.59375,0.875 1.00027,0.459656 2.3291,0.803449 3.84375,1.09375 0.0937,0.0065 0.18637,0.02717 0.28125,0.03125 0.11288,0.0049 0.23046,-0.0039 0.34375,0 0.69138,0.02392 1.38716,0.04458 2.09375,0.03125 0.67851,-0.0364 1.324,-0.07059 1.96875,-0.125 0.0752,-0.0066 0.14398,-0.02442 0.21875,-0.03125 0.16002,-0.01407 0.3108,-0.04736 0.46875,-0.0625 0.39915,-0.0399 0.80082,-0.07771 1.1875,-0.125 1.23758,-0.143931 2.39411,-0.325093 3.5,-0.53125 2.6679,-0.497343 4.98466,-1.138378 6.9375,-1.90625 0.0212,-0.0083 0.0414,-0.02289 0.0625,-0.03125 3.34349,-0.997486 7.21466,-1.847874 11.4375,-2.15625 -1.80884,-0.508614 -3.60478,-0.949069 -5.4375,-1.25 0.21537,-0.176365 0.42929,-0.353831 0.625,-0.53125 3.32961,-2.603019 5.92892,-5.946827 8.21875,-9.53125 -1.07735,0.828076 -2.15822,1.605424 -3.25,2.3125 1.06223,-1.764304 1.97256,-3.622787 2.8125,-5.53125 -1.29246,1.355484 -2.62589,2.585346 -3.96875,3.71875 0.75483,-1.639301 1.4389,-3.356179 2.0625,-5.15625 z"
       id="path6805"
       inkscape:connector-curvature="0" />
    <path
       style="fill:#ffffff;fill-opacity:1;stroke:none"
       d="m 365.4375,68.09375 c -0.90816,1.127388 -1.83934,2.155326 -2.78125,3.125 0.14376,-0.793397 0.26464,-1.608081 0.40625,-2.5 -0.61126,1.113404 -1.25676,2.129974 -1.90625,3.09375 0.18111,-0.457288 0.32756,-0.923469 0.5,-1.40625 -2.25016,2.812194 -4.75238,4.78849 -7.15625,6.21875 -0.20756,0.343585 -0.39776,0.697866 -0.625,1.03125 -0.22777,0.334168 2.18489,0.36403 1.9375,0.6875 -1.75489,2.294508 -6.60988,4.596107 -9.25,6.28125 -0.53314,0.340288 3.18985,1.093854 2.625,1.40625 -2.29918,1.271584 -5.55886,2.218351 -9.15625,2.90625 0.17467,-0.01217 0.35732,-0.01657 0.53125,-0.03125 0.0752,-0.0066 0.14398,-0.02442 0.21875,-0.03125 0.16002,-0.01407 0.3108,-0.04736 0.46875,-0.0625 0.39915,-0.0399 0.80082,-0.07771 1.1875,-0.125 1.23758,-0.143931 2.39411,-0.325093 3.5,-0.53125 2.6679,-0.497343 4.98466,-1.138378 6.9375,-1.90625 0.0212,-0.0083 0.0414,-0.02289 0.0625,-0.03125 3.34349,-0.997486 7.21466,-1.847874 11.4375,-2.15625 -1.80884,-0.508614 -3.60478,-0.949069 -5.4375,-1.25 0.21537,-0.176365 0.42929,-0.353831 0.625,-0.53125 3.32961,-2.603019 5.92892,-5.946827 8.21875,-9.53125 -1.07735,0.828076 -2.15822,1.605424 -3.25,2.3125 1.06223,-1.764304 1.97256,-3.622787 2.8125,-5.53125 -1.29246,1.355484 -2.62589,2.585346 -3.96875,3.71875 0.75483,-1.639301 1.4389,-3.356179 2.0625,-5.15625 z"
       id="path6807"
       inkscape:connector-curvature="0" />
    <path
       style="fill:#80b3ff;fill-opacity:1;stroke:none"
       d="m 338.40625,8.59375 c -7.80925,0.4226412 -15.47776,2.770733 -21.375,5.78125 1.4679,-0.184462 2.91573,-0.288884 4.34375,-0.375 -0.24273,0.143015 -0.47855,0.288892 -0.71875,0.4375 -0.008,0.0047 -0.0238,-0.0047 -0.0312,0 -7.00624,2.94425 -12.3726,8.047982 -17.125,13.78125 1.68965,-0.993789 3.37494,-1.877749 5.0625,-2.6875 -4.70602,4.566431 -7.41598,10.396091 -10.03125,19.0625 1.13342,-1.479596 2.3046,-2.893994 3.5,-4.21875 -0.0177,0.07406 -0.0452,0.144659 -0.0625,0.21875 -0.0335,0.143102 -0.0305,0.294281 -0.0625,0.4375 -0.11619,0.522726 -0.24838,1.038578 -0.34375,1.5625 -0.12564,0.686544 -0.22214,1.375092 -0.3125,2.0625 -0.052,0.39708 -0.0846,0.790478 -0.125,1.1875 -0.0362,0.35434 -0.0668,0.708405 -0.0937,1.0625 -0.0111,0.146854 -0.0217,0.290709 -0.0312,0.4375 -0.0427,0.649242 -0.0815,1.290209 -0.0937,1.9375 -0.009,0.45356 -0.006,0.89162 0,1.34375 0.007,0.523412 0.0357,1.041554 0.0625,1.5625 0.02,0.394976 0.0314,0.79425 0.0625,1.1875 0.0184,0.229654 0.0403,0.458505 0.0625,0.6875 0.0382,0.399097 0.10668,0.790625 0.15625,1.1875 0.0393,0.312675 0.0787,0.626357 0.125,0.9375 0.0169,0.114359 0.0135,0.229611 0.0312,0.34375 0.0989,0.629602 0.21663,1.252743 0.34375,1.875 0.0252,0.124054 0.0361,0.251265 0.0625,0.375 0.0984,0.460144 0.1989,0.919559 0.3125,1.375 0.33186,1.334876 0.72794,2.650797 1.1875,3.9375 0.0264,0.07392 0.0669,0.145006 0.0937,0.21875 0.236,0.64871 0.48237,1.27225 0.75,1.90625 0.0347,0.08227 0.0585,0.167986 0.0937,0.25 0.25822,0.600765 0.55756,1.195269 0.84375,1.78125 0.21412,0.438403 0.42673,0.883001 0.65625,1.3125 0.24189,0.452258 0.4913,0.901978 0.75,1.34375 0.0876,0.149701 0.19178,0.28905 0.28125,0.4375 0.18769,0.311105 0.36649,0.632062 0.5625,0.9375 0.2239,0.349042 0.45285,0.689924 0.6875,1.03125 0.1652,0.240341 0.32954,0.482374 0.5,0.71875 0.31562,0.4375 0.6353,0.857917 0.96875,1.28125 0.0505,0.06412 0.10538,0.123719 0.15625,0.1875 0.0655,0.08201 0.12137,0.168546 0.1875,0.25 0.37176,0.458359 0.76364,0.903624 1.15625,1.34375 0.46715,0.5236 0.9414,1.034977 1.4375,1.53125 0.0309,0.03094 0.0627,0.06292 0.0937,0.09375 0.40903,0.406227 0.82187,0.800798 1.25,1.1875 0.0108,0.0097 0.0205,0.02152 0.0312,0.03125 0.72787,1.061403 1.47889,2.25994 2.21875,3.53125 -0.066,-1.827926 -0.0751,-3.656227 0,-5.40625 0.0474,-1.104485 4.70724,4.442301 4.46875,3.40625 -0.75322,-3.272278 -1.07099,-7.515457 -1.09375,-11.5 -0.19174,-0.225904 -0.37654,-0.456792 -0.5625,-0.6875 -0.17609,-0.218324 -0.36273,-0.433576 -0.53125,-0.65625 -0.41141,-0.54399 -0.79147,-1.088546 -1.15625,-1.65625 -0.4023,-0.624837 -0.78197,-1.256454 -1.125,-1.90625 -0.0175,-0.03323 -0.0451,-0.06046 -0.0625,-0.09375 -0.25206,-0.483826 -0.46957,-1.004561 -0.6875,-1.5 -0.13492,-0.306722 -0.25352,-0.595599 -0.375,-0.90625 -0.0642,-0.164148 -0.12712,-0.33484 -0.1875,-0.5 -0.10482,-0.286247 -0.2193,-0.554683 -0.3125,-0.84375 -0.0172,-0.05318 -0.0457,-0.102983 -0.0625,-0.15625 -0.0603,-0.191997 -0.10111,-0.40065 -0.15625,-0.59375 -0.0444,-0.155113 -0.084,-0.312982 -0.125,-0.46875 -0.006,-0.02228 -0.0256,-0.04021 -0.0312,-0.0625 -0.0599,-0.230579 -0.10385,-0.455628 -0.15625,-0.6875 -0.0331,-0.146396 -0.0637,-0.290633 -0.0937,-0.4375 -0.0613,-0.299884 -0.10772,-0.604662 -0.15625,-0.90625 -0.0301,-0.187107 -0.0686,-0.374828 -0.0937,-0.5625 -0.01,-0.07309 -0.0223,-0.145588 -0.0312,-0.21875 -0.0448,-0.363522 -0.068,-0.728647 -0.0937,-1.09375 -0.0309,-0.438868 -0.0597,-0.872286 -0.0625,-1.3125 -0.001,-0.160958 -0.002,-0.310577 0,-0.46875 -2.89837,-4.709566 -3.8719,-9.856304 -3.21875,-14.96875 0.0565,-0.44239 -2.3312,0.754191 -2.25,0.3125 0.57565,-3.133095 4.18697,-7.86625 5.9375,-10.84375 0.3535,-0.601264 -3.67987,0.558489 -3.28125,-0.03125 4.02447,-5.953921 14.74692,-13.048861 22.84375,-16.84375 0.68364,-0.320417 1.52926,-0.622507 2.5,-0.9375 0.53998,-0.175222 -2.21154,-1.400361 -1.59375,-1.5625 1.19713,-0.3141745 2.59368,-0.5897361 4.125,-0.78125 z"
       id="path6809"
       inkscape:connector-curvature="0" />
    <path
       style="fill:#d40000;fill-opacity:1;stroke:none"
       d="m 346.875,32.5625 c 0.69028,0.381586 1.3592,0.821825 2,1.3125 0.21039,0.272712 0.39113,0.520207 0.625,0.8125 -0.0179,0.02593 -0.045,0.03658 -0.0625,0.0625 -0.87992,-0.678201 -1.72468,-1.411214 -2.5625,-2.1875 z"
       id="path6811"
       inkscape:connector-curvature="0" />
    <path
       style="fill:#d40000;fill-opacity:1;stroke:none"
       d="m 318.3125,87.875 c 0.10107,0.221331 0.21371,0.430738 0.3125,0.65625 -0.006,-0.08416 -0.0254,-0.165888 -0.0312,-0.25 -0.0968,-0.132016 -0.18494,-0.273194 -0.28125,-0.40625 z"
       id="path6813"
       inkscape:connector-curvature="0" />
  </g>
</svg>
