<?xml version="1.0" encoding="UTF-8" standalone="no"?>
<!-- Created with Inkscape (http://www.inkscape.org/) -->

<svg
   xmlns:dc="http://purl.org/dc/elements/1.1/"
   xmlns:cc="http://creativecommons.org/ns#"
   xmlns:rdf="http://www.w3.org/1999/02/22-rdf-syntax-ns#"
   xmlns:svg="http://www.w3.org/2000/svg"
   xmlns="http://www.w3.org/2000/svg"
   xmlns:sodipodi="http://sodipodi.sourceforge.net/DTD/sodipodi-0.dtd"
   xmlns:inkscape="http://www.inkscape.org/namespaces/inkscape"
   version="1.0"
   width="96"
   height="96"
   id="svg2408"
   inkscape:version="0.48.3.1 r9886"
   sodipodi:docname="grisbi.svg">
  <sodipodi:namedview
     pagecolor="#ffffff"
     bordercolor="#666666"
     borderopacity="1"
     objecttolerance="10"
     gridtolerance="10"
     guidetolerance="10"
     inkscape:pageopacity="0"
     inkscape:pageshadow="2"
     inkscape:window-width="1280"
     inkscape:window-height="752"
     id="namedview128"
     showgrid="false"
     inkscape:zoom="2.8284271"
     inkscape:cx="10.416044"
     inkscape:cy="42.691741"
     inkscape:window-x="0"
     inkscape:window-y="0"
     inkscape:window-maximized="1"
     inkscape:current-layer="svg2408"
     showguides="true"
     inkscape:guide-bbox="true" />
  <defs
     id="defs2410">
    <linearGradient
       x1="45.447727"
       y1="92.539597"
       x2="45.447727"
       y2="7.0165396"
       id="ButtonShadow"
       gradientUnits="userSpaceOnUse"
       gradientTransform="scale(1.0058652,0.994169)">
      <stop
         id="stop3750"
         style="stop-color:#000000;stop-opacity:1"
         offset="0" />
      <stop
         id="stop3752"
         style="stop-color:#000000;stop-opacity:0.58823532"
         offset="1" />
    </linearGradient>
    <filter
       color-interpolation-filters="sRGB"
       id="filter3174">
      <feGaussianBlur
         id="feGaussianBlur3176"
         stdDeviation="1.71" />
    </filter>
  </defs>
  <metadata
     id="metadata2413">
    <rdf:RDF>
      <cc:Work
         rdf:about="">
        <dc:format>image/svg+xml</dc:format>
        <dc:type
           rdf:resource="http://purl.org/dc/dcmitype/StillImage" />
        <dc:title />
      </cc:Work>
    </rdf:RDF>
  </metadata>
  <rect
     style="fill:#ffcc00;fill-opacity:1;stroke:none"
     id="rect4564"
     width="96"
     height="96"
     x="0"
     y="0" />
  <g
     id="layer2"
     style="display:none">
    <path
       d="M 11,7 C 7.676,7 5,9.676 5,13 l 0,33.6875 c 2.2377507,0.124029 4.660506,0.235683 5.875,0.4375 0.66093,0.10983 -0.08406,0.240848 -1.125,0.34375 C 8.7090622,47.571654 7.3545491,47.665119 6.84375,47.75 6.2216014,47.853382 5.6264179,47.903999 5,48 l 0,1.0625 c 0.3803657,0.03607 0.7183843,0.03125 0.9375,0.03125 0.80883,10e-7 1.1599727,0.215701 1.3125,0.5625 0.1525272,0.346797 0.09375,0.839723 0.09375,1.40625 0,0.424828 -0.9420178,0.663014 -1.15625,1.375 C 6.110939,52.691968 5.5510552,52.945524 5,53.1875 l 0,2.21875 c 0.7355867,0.02497 1.4332639,0.05671 1.84375,0.3125 C 7.1254716,55.894306 6.0687957,56.124098 5,56.3125 l 0,7.5625 c 1.1379643,0.180337 3.3100715,0.925679 3.96875,1.0625 1.090152,0.226446 1.224723,0.33476 0.875,0.4375 -0.3497231,0.102744 -1.173581,0.175172 -2,0.3125 C 6.8656638,65.850029 5.90816,66.141998 5,66.34375 L 5,86 c 0,3.324 2.676,6 6,6 l 13,0 c 0.0954,-0.438237 0.150955,-0.931178 0.25,-1.4375 0.140364,-0.717512 0.25498,-1.34159 0.375,-1.59375 0.03001,-0.06304 0.05815,-0.114053 0.09375,-0.125 0.106804,-0.03285 0.238198,0.191956 0.46875,0.78125 0.304338,0.777871 0.540174,1.646782 0.6875,2.375 l 0.75,0 c 0.276152,-0.493694 0.578538,-1.138496 0.8125,-1.4375 0.09907,-0.126629 0.275237,0.131501 0.53125,0.375 0.256014,0.2435 0.588904,0.486378 0.9375,0.375 0.648614,-0.207227 1.602807,-0.726227 2.03125,-1 0.139883,-0.08938 0.300164,-0.157976 0.40625,-0.1875 0.106087,-0.02952 0.174331,-0.01774 0.25,0 0.151339,0.03548 0.232196,0.144559 0.34375,0.28125 0.223098,0.27338 0.466785,0.656251 1.0625,0.65625 0.478344,0 0.657185,-0.0325 0.78125,0.0625 0.124065,0.095 0.197087,0.314551 0.40625,0.875 l 8.875,0 c -0.04778,-0.593879 1.040547,-2.151517 1.21875,-3.0625 0.19092,-0.975995 0.214078,-1.242419 0.28125,-1.0625 0.06717,0.179919 0.192504,0.793906 0.46875,1.5 0.110448,0.282298 0.213887,0.358235 0.3125,0.28125 0.09861,-0.07699 0.168895,-0.293948 0.25,-0.5625 0.162213,-0.537107 0.285649,-1.296709 0.34375,-1.59375 0.131129,-0.670335 0.128655,-1.786501 0.125,-2.28125 -9.11e-4,-0.123687 -0.0059,-0.217815 0,-0.25 0.01779,-0.09656 0.08067,0.312079 0.28125,1.59375 0.163819,1.046767 0.54767,2.687946 0.71875,3.5625 0.169798,0.867992 0.298106,1.322124 0.40625,1.875 l 28.21875,0 c 0.03877,-0.494956 0.03519,-1.098589 0.0625,-1.5 0.02049,-0.301057 0.06649,-0.487005 0.15625,-0.46875 0.02992,0.0061 0.05077,0.03882 0.09375,0.09375 0.233449,0.298339 0.630596,1.164908 0.96875,1.875 L 85,92 c 3.324,0 6,-2.676 6,-6 l 0,-7.21875 c -0.16942,0.0045 -0.290112,-4e-6 -0.5,0 -1.330307,0 -2.638456,-4e-6 -3.96875,0 -1.226564,0 -2.05394,-9.64e-4 -2.25,-0.0625 -0.19606,-0.06154 0.232972,-0.183183 1.46875,-0.5 C 86.405034,78.050819 89.092469,77.290673 91,76.875 L 91,38.46875 C 90.34725,38.202412 89.792969,37.980093 89.25,37.5625 89.107486,37.452886 88.801155,37.170028 88.28125,37 87.761349,36.829972 87.007124,36.743855 86,36.9375 c -1.533473,0.294852 -1.685602,0.283469 -1.25,0.15625 0.4356,-0.127221 1.468635,-0.381012 2.25,-0.53125 1.152717,-0.221645 2.722214,-1.204246 4,-1.84375 l 0,-4.5625 c -0.69831,-0.257978 -1.422206,-0.558272 -1.75,-1.0625 -0.209707,-0.322576 -0.321618,-0.513018 -0.3125,-0.625 0.0091,-0.111981 0.13299,-0.149124 0.25,-0.1875 0.117011,-0.03837 0.261032,-0.05449 0.375,-0.15625 0.11397,-0.101759 0.187497,-0.291619 0.1875,-0.59375 0,-0.32292 0.08246,-0.887065 0.0625,-1.40625 -0.01,-0.259593 -0.03562,-0.49724 -0.125,-0.6875 -0.08939,-0.19026 -0.219089,-0.333004 -0.4375,-0.375 -0.574572,-0.110478 -0.848143,-0.233682 -0.90625,-0.34375 -0.05811,-0.110067 0.07208,-0.18937 0.28125,-0.28125 0.418339,-0.18376 1.132532,-0.339398 1.125,-0.34375 -0.668701,-0.385725 -5.247169,-0.921226 -5,-0.96875 0.332574,-0.06395 0.667437,-0.123553 1,-0.1875 1.047644,-0.201439 2.43278,-0.309227 3.75,-0.5625 0.573261,-0.110227 0.911769,-0.250569 1.125,-0.4375 0.213229,-0.18693 0.294201,-0.423258 0.375,-0.625 L 91,13 C 91,9.676 88.324,7 85,7 L 33.625,7 C 33.72158,8.3975706 33.82658,9.959362 33.53125,9.1875 33.320827,8.6375466 33.210422,8.0499534 33,7.5 32.946762,7.3608606 32.903941,7.1705291 32.84375,7 L 30.8125,7 C 30.571803,7.4923127 30.362863,7.9708281 30.03125,8.1875 29.524321,8.5187294 29.245447,8.6821159 29,8.59375 28.754552,8.5053839 28.523162,8.1669814 28.15625,7.6875 27.992502,7.4735174 27.721718,7.2560338 27.40625,7 l -6.8125,0 -1.3125,5.5625 L 17.53125,7 17.3125,7 15.5625,15.9375 14.15625,7 11,7 z"
       inkscape:connector-curvature="0"
       id="rect3745"
       style="opacity:0.9;fill:url(#ButtonShadow);fill-opacity:1;fill-rule:nonzero;stroke:none;filter:url(#filter3174)" />
  </g>
  <rect
     y="0"
     x="0"
     height="2.5"
     width="96"
     id="rect3880"
     style="opacity:0.3122172;fill:#ffffff;fill-opacity:1;stroke:none" />
  <rect
     y="52.25"
     x="0"
     height="43.75"
     width="96"
     id="rect4942"
     style="fill:#ffcc00;fill-opacity:1;stroke:none" />
  <g
     id="g5082"
     transform="matrix(0.88871329,0,0,0.88871329,5.5293051,6.4838453)">
    <rect
       y="43.86422"
       x="4.4938469"
       height="8.6723127"
       width="87.012306"
       id="rect4533"
       style="fill:#554400;fill-opacity:1;stroke:none" />
    <rect
       y="41.359375"
       x="4.4908409"
       height="2.5"
       width="87.018318"
       id="rect4539"
       style="opacity:0.38914029;fill:#554400;fill-opacity:1;stroke:none" />
    <g
       transform="matrix(1.1020868,0,0,1.1020868,-11.091982,-5.0467707)"
       id="g5065">
      <g
         id="g5049"
         transform="matrix(0.84015781,0,0,0.84015781,13.756419,8.3517547)">
        <path
           id="rect4922"
           d="m 44.46875,8.84375 -2.0625,43.40625 41.6875,0 1.96875,-41.46875 -41.59375,-1.9375 z"
           style="fill:#447821;fill-opacity:1;stroke:none"
           inkscape:connector-curvature="0" />
        <path
           id="rect4924"
           d="M 53.96875,15.84375 C 51.831881,15.743145 50.006855,17.363131 49.90625,19.5 l -1.53125,32.75 29.09375,0 1.46875,-31.375 C 79.038105,18.738131 77.386869,16.944355 75.25,16.84375 l -21.28125,-1 z"
           style="fill:#f6ffd5;fill-opacity:1;stroke:none"
           inkscape:connector-curvature="0" />
        <path
           id="path4926"
           d="M 80.90625,10.59375 78.9375,52.25 l 0.59375,0 1.96875,-41.65625 -0.59375,0 z"
           style="font-size:medium;font-style:normal;font-variant:normal;font-weight:normal;font-stretch:normal;text-indent:0;text-align:start;text-decoration:none;line-height:normal;letter-spacing:normal;word-spacing:normal;text-transform:none;direction:ltr;block-progression:tb;writing-mode:lr-tb;text-anchor:start;baseline-shift:baseline;opacity:0.33031676;color:#000000;fill:#ffd42a;fill-opacity:1;stroke:none;stroke-width:1px;marker:none;visibility:visible;display:inline;overflow:visible;enable-background:accumulate;font-family:Sans;-inkscape-font-specification:Sans"
           inkscape:connector-curvature="0" />
        <rect
           transform="matrix(-0.04702838,0.99889355,-0.99889355,-0.04702838,0,0)"
           y="-83.747894"
           x="10.350006"
           height="36.470989"
           width="0.76626766"
           id="rect4930"
           style="opacity:0.33031676;fill:#ffd42a;fill-opacity:1;stroke:#d45500;stroke-width:0;stroke-linecap:round;stroke-linejoin:round;stroke-miterlimit:4;stroke-opacity:1;stroke-dasharray:none;stroke-dashoffset:0" />
        <path
           id="path4934"
           d="M 48.75,9.0625 46.71875,52.25 47.3125,52.25 49.34375,9.09375 48.75,9.0625 z"
           style="font-size:medium;font-style:normal;font-variant:normal;font-weight:normal;font-stretch:normal;text-indent:0;text-align:start;text-decoration:none;line-height:normal;letter-spacing:normal;word-spacing:normal;text-transform:none;direction:ltr;block-progression:tb;writing-mode:lr-tb;text-anchor:start;baseline-shift:baseline;opacity:0.33031676;color:#000000;fill:#ffd42a;fill-opacity:1;stroke:none;stroke-width:1px;marker:none;visibility:visible;display:inline;overflow:visible;enable-background:accumulate;font-family:Sans;-inkscape-font-specification:Sans"
           inkscape:connector-curvature="0" />
        <path
           inkscape:connector-curvature="0"
           id="rect4936"
           d="m 62.4375,31.875 c -8.689901,0.374643 -15.687751,6.571494 -16.0625,14.53125 -0.09671,2.054202 0.272241,4.018464 1,5.84375 l 32.34375,0 c 0.497248,-1.331919 0.8053,-2.738311 0.875,-4.21875 0.399732,-8.490406 -6.891343,-15.709755 -16.375,-16.15625 -0.592729,-0.02791 -1.201923,-0.02498 -1.78125,0 z"
           style="fill:#bcd35f;fill-opacity:1;stroke:#d45500;stroke-width:0;stroke-linecap:round;stroke-linejoin:round;stroke-miterlimit:4;stroke-opacity:1;stroke-dasharray:none;stroke-dashoffset:0" />
        <path
           inkscape:connector-curvature="0"
           id="path4940"
           d="M 58.0625,40.78125 C 55.053314,40.932792 52.535793,43.248348 52.21875,46.25 L 51,46.21875 l -0.125,2.3125 1.21875,0.0625 c 0.01526,1.369513 0.516571,2.634113 1.3125,3.65625 l 3.96875,0 c -1.640198,-0.396696 -2.853468,-1.832543 -2.9375,-3.53125 l 7.6875,0.34375 c -0.25474,1.583823 -1.47164,2.844035 -3,3.1875 l 4.125,0 c 0.507004,-0.659694 0.869881,-1.392123 1.03125,-2.25 l 0.03125,-0.09375 c 0,0 0.0093,-0.252659 0.0625,-0.71875 l 7.65625,0.34375 c -0.480061,1.570621 -1.937386,2.704485 -3.625,2.71875 l 4.71875,0 c 0.604151,-0.749262 1.082796,-1.613209 1.28125,-2.59375 l 1.125,0.03125 0.125,-2.3125 L 74.5,47.3125 c -0.329611,-2.952046 -2.789113,-5.354715 -5.875,-5.5 -2.24428,-0.105662 -4.349294,1.025039 -5.53125,2.90625 -0.200232,0.27173 -0.472946,0.791766 -0.6875,2.03125 L 54.5625,46.375 c 0.27801,-1.92377 2.005084,-3.343922 4,-3.25 l 0.03125,0 0.9375,0.03125 0.125,-2.28125 L 58.75,40.78125 c -0.03117,-0.0015 -0.06258,0.0015 -0.09375,0 -0.204557,-0.0096 -0.393138,-0.0101 -0.59375,0 z m 10.46875,3.375 c 1.807893,0.08512 3.235141,1.358665 3.59375,3.03125 l -7.4375,-0.34375 c 0.482997,-1.632962 2.067027,-2.771148 3.84375,-2.6875 z"
           style="font-size:40px;font-style:normal;font-variant:normal;font-weight:bold;font-stretch:normal;line-height:125%;letter-spacing:0px;word-spacing:0px;fill:#447821;fill-opacity:1;stroke:none;font-family:Neou;-inkscape-font-specification:Neou Bold" />
        <path
           id="rect5931"
           d="M 38.5,6.90625 0,22.75 l 12.125,29.5 45.03125,0 L 38.5,6.90625 z"
           style="fill:#447821;fill-opacity:1;stroke:none"
           inkscape:connector-curvature="0" />
        <path
           id="rect4856"
           d="m 32.8125,16.6875 c -0.501666,-0.0043 -1.036671,0.07775 -1.53125,0.28125 l -19.71875,8.125 C 9.5841849,25.907753 8.6547469,28.146685 9.46875,30.125 L 18.5625,52.25 50,52.25 36.34375,19.0625 c -0.610502,-1.483736 -2.026251,-2.362049 -3.53125,-2.375 z"
           style="fill:#f6ffd5;fill-opacity:1;stroke:none"
           inkscape:connector-curvature="0" />
        <path
           id="path4839"
           d="M 34.3125,8.6875 33.75,8.90625 51.5625,52.25 l 0.65625,0 L 34.3125,8.6875 z"
           style="font-size:medium;font-style:normal;font-variant:normal;font-weight:normal;font-stretch:normal;text-indent:0;text-align:start;text-decoration:none;line-height:normal;letter-spacing:normal;word-spacing:normal;text-transform:none;direction:ltr;block-progression:tb;writing-mode:lr-tb;text-anchor:start;baseline-shift:baseline;opacity:0.33031676;color:#000000;fill:#ffd42a;fill-opacity:1;stroke:none;stroke-width:1px;marker:none;visibility:visible;display:inline;overflow:visible;enable-background:accumulate;font-family:Sans;-inkscape-font-specification:Sans"
           inkscape:connector-curvature="0" />
        <rect
           transform="matrix(0.3805111,0.92477635,-0.92477635,0.3805111,0,0)"
           style="opacity:0.33031676;fill:#ffd42a;fill-opacity:1;stroke:#d45500;stroke-width:0;stroke-linecap:round;stroke-linejoin:round;stroke-miterlimit:4;stroke-opacity:1;stroke-dasharray:none;stroke-dashoffset:0"
           id="rect4833"
           width="0.76626766"
           height="36.470989"
           x="24.664774"
           y="-30.255959" />
        <path
           id="path4906"
           d="M 4.53125,20.9375 4,21.15625 16.78125,52.25 17.4375,52.25 4.53125,20.9375 z"
           style="font-size:medium;font-style:normal;font-variant:normal;font-weight:normal;font-stretch:normal;text-indent:0;text-align:start;text-decoration:none;line-height:normal;letter-spacing:normal;word-spacing:normal;text-transform:none;direction:ltr;block-progression:tb;writing-mode:lr-tb;text-anchor:start;baseline-shift:baseline;opacity:0.33031676;color:#000000;fill:#ffd42a;fill-opacity:1;stroke:none;stroke-width:1px;marker:none;visibility:visible;display:inline;overflow:visible;enable-background:accumulate;font-family:Sans;-inkscape-font-specification:Sans"
           inkscape:connector-curvature="0" />
        <path
           id="rect4817"
           d="m 34.28125,33.84375 c -2.191981,0.06461 -4.430006,0.534342 -6.625,1.4375 C 20.242628,38.33168 15.910677,45.394344 16.6875,52.25 l 33.125,0 c 0.849825,-3.040287 0.779066,-6.279867 -0.46875,-9.3125 -2.425704,-5.895318 -8.486557,-9.287582 -15.0625,-9.09375 z"
           style="fill:#bcd35f;fill-opacity:1;stroke:#d45500;stroke-width:0;stroke-linecap:round;stroke-linejoin:round;stroke-miterlimit:4;stroke-opacity:1;stroke-dasharray:none;stroke-dashoffset:0"
           inkscape:connector-curvature="0" />
        <path
           id="path4854"
           d="m 37.71875,41.25 c -0.729063,0.01949 -1.442021,0.174872 -2.15625,0.46875 -2.077757,0.85492 -3.53866,2.763985 -3.8125,4.96875 -0.06628,0.330964 -0.08067,0.911321 0.25,2.125 l -7.28125,3 c -0.563034,-1.860423 0.403106,-3.865071 2.25,-4.625 L 27,47.15625 27.875,46.78125 27,44.65625 26.15625,44.96875 26.0625,45 c -2.881715,1.185719 -4.416314,4.328006 -3.65625,7.25 l 7.40625,0 2.90625,-1.1875 c 0.113222,0.396846 0.13733,0.789976 0.125,1.1875 l 2.375,0 C 35.21545,51.824251 35.1724,51.396556 35.0625,50.96875 l 0,-0.09375 c 0,0 -0.100748,-0.24276 -0.25,-0.6875 L 41.875,47.28125 C 42.105418,48.907355 41.272697,50.522237 39.75,51.25 L 39,51.65625 39.25,52.25 l 3.09375,0 c 1.552681,-1.497344 2.26978,-3.729632 1.75,-5.875 l 1.0625,-0.4375 -0.90625,-2.15625 -1.0625,0.4375 C 42.025742,42.317861 39.90594,41.19153 37.71875,41.25 z m 0,2.34375 C 38.993122,43.523349 40.225007,44.102581 41,45.125 l -6.90625,2.8125 c -0.254165,-1.68382 0.698859,-3.385688 2.34375,-4.0625 0.418437,-0.172171 0.856459,-0.257783 1.28125,-0.28125 z"
           style="font-size:40px;font-style:normal;font-variant:normal;font-weight:bold;font-stretch:normal;line-height:125%;letter-spacing:0px;word-spacing:0px;fill:#447821;fill-opacity:1;stroke:none;font-family:Neou;-inkscape-font-specification:Neou Bold"
           inkscape:connector-curvature="0" />
      </g>
    </g>
    <rect
       style="opacity:0.38914029;fill:#fff6d5;fill-opacity:1;stroke:none"
       id="rect4592"
       width="87.018318"
       height="2.5"
       x="4.4908409"
       y="52.529705" />
  </g>
  <rect
     style="opacity:0.38914029;fill:#2b0000;fill-opacity:1;stroke:none"
     id="rect3878"
     width="96"
     height="2.5"
     x="0"
     y="93.5" />
</svg>
