<?xml version="1.0" encoding="UTF-8" standalone="no"?>
<!-- Created with Inkscape (http://www.inkscape.org/) -->

<svg
   xmlns:dc="http://purl.org/dc/elements/1.1/"
   xmlns:cc="http://creativecommons.org/ns#"
   xmlns:rdf="http://www.w3.org/1999/02/22-rdf-syntax-ns#"
   xmlns:svg="http://www.w3.org/2000/svg"
   xmlns="http://www.w3.org/2000/svg"
   xmlns:sodipodi="http://sodipodi.sourceforge.net/DTD/sodipodi-0.dtd"
   xmlns:inkscape="http://www.inkscape.org/namespaces/inkscape"
   version="1.0"
   width="96"
   height="96"
   id="svg2408"
   inkscape:version="0.48.3.1 r9886"
   sodipodi:docname="time-admin.svg">
  <sodipodi:namedview
     pagecolor="#ffffff"
     bordercolor="#666666"
     borderopacity="1"
     objecttolerance="10"
     gridtolerance="10"
     guidetolerance="10"
     inkscape:pageopacity="0"
     inkscape:pageshadow="2"
     inkscape:window-width="1280"
     inkscape:window-height="752"
     id="namedview128"
     showgrid="false"
     inkscape:zoom="4"
     inkscape:cx="34.649773"
     inkscape:cy="54.591831"
     inkscape:window-x="0"
     inkscape:window-y="0"
     inkscape:window-maximized="1"
     inkscape:current-layer="svg2408"
     showguides="true"
     inkscape:guide-bbox="true" />
  <defs
     id="defs2410">
    <linearGradient
       x1="45.447727"
       y1="92.539597"
       x2="45.447727"
       y2="7.0165396"
       id="ButtonShadow"
       gradientUnits="userSpaceOnUse"
       gradientTransform="scale(1.0058652,0.994169)">
      <stop
         id="stop3750"
         style="stop-color:#000000;stop-opacity:1"
         offset="0" />
      <stop
         id="stop3752"
         style="stop-color:#000000;stop-opacity:0.58823532"
         offset="1" />
    </linearGradient>
    <filter
       color-interpolation-filters="sRGB"
       id="filter3174">
      <feGaussianBlur
         id="feGaussianBlur3176"
         stdDeviation="1.71" />
    </filter>
  </defs>
  <metadata
     id="metadata2413">
    <rdf:RDF>
      <cc:Work
         rdf:about="">
        <dc:format>image/svg+xml</dc:format>
        <dc:type
           rdf:resource="http://purl.org/dc/dcmitype/StillImage" />
        <dc:title />
      </cc:Work>
    </rdf:RDF>
  </metadata>
  <g
     id="layer2"
     style="display:none">
    <path
       d="M 11,7 C 7.676,7 5,9.676 5,13 l 0,33.6875 c 2.2377507,0.124029 4.660506,0.235683 5.875,0.4375 0.66093,0.10983 -0.08406,0.240848 -1.125,0.34375 C 8.7090622,47.571654 7.3545491,47.665119 6.84375,47.75 6.2216014,47.853382 5.6264179,47.903999 5,48 l 0,1.0625 c 0.3803657,0.03607 0.7183843,0.03125 0.9375,0.03125 0.80883,10e-7 1.1599727,0.215701 1.3125,0.5625 0.1525272,0.346797 0.09375,0.839723 0.09375,1.40625 0,0.424828 -0.9420178,0.663014 -1.15625,1.375 C 6.110939,52.691968 5.5510552,52.945524 5,53.1875 l 0,2.21875 c 0.7355867,0.02497 1.4332639,0.05671 1.84375,0.3125 C 7.1254716,55.894306 6.0687957,56.124098 5,56.3125 l 0,7.5625 c 1.1379643,0.180337 3.3100715,0.925679 3.96875,1.0625 1.090152,0.226446 1.224723,0.33476 0.875,0.4375 -0.3497231,0.102744 -1.173581,0.175172 -2,0.3125 C 6.8656638,65.850029 5.90816,66.141998 5,66.34375 L 5,86 c 0,3.324 2.676,6 6,6 l 13,0 c 0.0954,-0.438237 0.150955,-0.931178 0.25,-1.4375 0.140364,-0.717512 0.25498,-1.34159 0.375,-1.59375 0.03001,-0.06304 0.05815,-0.114053 0.09375,-0.125 0.106804,-0.03285 0.238198,0.191956 0.46875,0.78125 0.304338,0.777871 0.540174,1.646782 0.6875,2.375 l 0.75,0 c 0.276152,-0.493694 0.578538,-1.138496 0.8125,-1.4375 0.09907,-0.126629 0.275237,0.131501 0.53125,0.375 0.256014,0.2435 0.588904,0.486378 0.9375,0.375 0.648614,-0.207227 1.602807,-0.726227 2.03125,-1 0.139883,-0.08938 0.300164,-0.157976 0.40625,-0.1875 0.106087,-0.02952 0.174331,-0.01774 0.25,0 0.151339,0.03548 0.232196,0.144559 0.34375,0.28125 0.223098,0.27338 0.466785,0.656251 1.0625,0.65625 0.478344,0 0.657185,-0.0325 0.78125,0.0625 0.124065,0.095 0.197087,0.314551 0.40625,0.875 l 8.875,0 c -0.04778,-0.593879 1.040547,-2.151517 1.21875,-3.0625 0.19092,-0.975995 0.214078,-1.242419 0.28125,-1.0625 0.06717,0.179919 0.192504,0.793906 0.46875,1.5 0.110448,0.282298 0.213887,0.358235 0.3125,0.28125 0.09861,-0.07699 0.168895,-0.293948 0.25,-0.5625 0.162213,-0.537107 0.285649,-1.296709 0.34375,-1.59375 0.131129,-0.670335 0.128655,-1.786501 0.125,-2.28125 -9.11e-4,-0.123687 -0.0059,-0.217815 0,-0.25 0.01779,-0.09656 0.08067,0.312079 0.28125,1.59375 0.163819,1.046767 0.54767,2.687946 0.71875,3.5625 0.169798,0.867992 0.298106,1.322124 0.40625,1.875 l 28.21875,0 c 0.03877,-0.494956 0.03519,-1.098589 0.0625,-1.5 0.02049,-0.301057 0.06649,-0.487005 0.15625,-0.46875 0.02992,0.0061 0.05077,0.03882 0.09375,0.09375 0.233449,0.298339 0.630596,1.164908 0.96875,1.875 L 85,92 c 3.324,0 6,-2.676 6,-6 l 0,-7.21875 c -0.16942,0.0045 -0.290112,-4e-6 -0.5,0 -1.330307,0 -2.638456,-4e-6 -3.96875,0 -1.226564,0 -2.05394,-9.64e-4 -2.25,-0.0625 -0.19606,-0.06154 0.232972,-0.183183 1.46875,-0.5 C 86.405034,78.050819 89.092469,77.290673 91,76.875 L 91,38.46875 C 90.34725,38.202412 89.792969,37.980093 89.25,37.5625 89.107486,37.452886 88.801155,37.170028 88.28125,37 87.761349,36.829972 87.007124,36.743855 86,36.9375 c -1.533473,0.294852 -1.685602,0.283469 -1.25,0.15625 0.4356,-0.127221 1.468635,-0.381012 2.25,-0.53125 1.152717,-0.221645 2.722214,-1.204246 4,-1.84375 l 0,-4.5625 c -0.69831,-0.257978 -1.422206,-0.558272 -1.75,-1.0625 -0.209707,-0.322576 -0.321618,-0.513018 -0.3125,-0.625 0.0091,-0.111981 0.13299,-0.149124 0.25,-0.1875 0.117011,-0.03837 0.261032,-0.05449 0.375,-0.15625 0.11397,-0.101759 0.187497,-0.291619 0.1875,-0.59375 0,-0.32292 0.08246,-0.887065 0.0625,-1.40625 -0.01,-0.259593 -0.03562,-0.49724 -0.125,-0.6875 -0.08939,-0.19026 -0.219089,-0.333004 -0.4375,-0.375 -0.574572,-0.110478 -0.848143,-0.233682 -0.90625,-0.34375 -0.05811,-0.110067 0.07208,-0.18937 0.28125,-0.28125 0.418339,-0.18376 1.132532,-0.339398 1.125,-0.34375 -0.668701,-0.385725 -5.247169,-0.921226 -5,-0.96875 0.332574,-0.06395 0.667437,-0.123553 1,-0.1875 1.047644,-0.201439 2.43278,-0.309227 3.75,-0.5625 0.573261,-0.110227 0.911769,-0.250569 1.125,-0.4375 0.213229,-0.18693 0.294201,-0.423258 0.375,-0.625 L 91,13 C 91,9.676 88.324,7 85,7 L 33.625,7 C 33.72158,8.3975706 33.82658,9.959362 33.53125,9.1875 33.320827,8.6375466 33.210422,8.0499534 33,7.5 32.946762,7.3608606 32.903941,7.1705291 32.84375,7 L 30.8125,7 C 30.571803,7.4923127 30.362863,7.9708281 30.03125,8.1875 29.524321,8.5187294 29.245447,8.6821159 29,8.59375 28.754552,8.5053839 28.523162,8.1669814 28.15625,7.6875 27.992502,7.4735174 27.721718,7.2560338 27.40625,7 l -6.8125,0 -1.3125,5.5625 L 17.53125,7 17.3125,7 15.5625,15.9375 14.15625,7 11,7 z"
       inkscape:connector-curvature="0"
       id="rect3745"
       style="opacity:0.9;fill:url(#ButtonShadow);fill-opacity:1;fill-rule:nonzero;stroke:none;filter:url(#filter3174)" />
  </g>
  <rect
     y="0"
     x="0"
     height="96"
     width="96"
     id="rect6228"
     style="fill:#1a1a1a;fill-opacity:1;stroke:none" />
  <rect
     y="0"
     x="0"
     height="2.5"
     width="96"
     id="rect3880"
     style="opacity:0.3122172;fill:#ffffff;fill-opacity:1;stroke:none" />
  <rect
     style="opacity:0.38914029000000000;fill:#000000;fill-opacity:1;stroke:none"
     id="rect3878"
     width="96"
     height="2.5"
     x="0"
     y="93.5" />
  <path
     transform="matrix(1.169411,0,0,1.169411,6.2416275,15.532244)"
     d="m 69.650017,27.764196 a 33.941124,33.941124 0 1 1 -67.8822481,0 33.941124,33.941124 0 1 1 67.8822481,0 z"
     sodipodi:ry="33.941124"
     sodipodi:rx="33.941124"
     sodipodi:cy="27.764196"
     sodipodi:cx="35.708893"
     id="path4807"
     style="fill:#f4eed7;fill-opacity:1;stroke:none"
     sodipodi:type="arc" />
  <path
     sodipodi:type="arc"
     style="fill:#000000;fill-opacity:1;stroke:none"
     id="path4809"
     sodipodi:cx="35.708893"
     sodipodi:cy="27.764196"
     sodipodi:rx="33.941124"
     sodipodi:ry="33.941124"
     d="m 69.650017,27.764196 a 33.941124,33.941124 0 1 1 -67.8822481,0 33.941124,33.941124 0 1 1 67.8822481,0 z"
     transform="matrix(0.25580861,0,0,0.25580861,38.865358,40.897679)" />
  <path
     transform="matrix(0.19490179,0,0,0.19490179,41.040273,42.588708)"
     d="m 69.650017,27.764196 a 33.941124,33.941124 0 1 1 -67.8822481,0 33.941124,33.941124 0 1 1 67.8822481,0 z"
     sodipodi:ry="33.941124"
     sodipodi:rx="33.941124"
     sodipodi:cy="27.764196"
     sodipodi:cx="35.708893"
     id="path4835"
     style="fill:#ff0000;fill-opacity:1;stroke:none"
     sodipodi:type="arc" />
  <rect
     transform="matrix(0.72043199,-0.69352559,0.69352559,0.72043199,0,0)"
     inkscape:transform-center-y="12.821163"
     inkscape:transform-center-x="12.642682"
     y="66.98288"
     x="-34.548561"
     height="0.9375"
     width="36"
     id="rect4849"
     style="fill:#ff0000;fill-opacity:1;stroke:none" />
  <rect
     y="12.956264"
     x="73.322701"
     height="5.375"
     width="21"
     id="rect3725"
     style="fill:#000000;fill-opacity:1;stroke:none"
     transform="matrix(0.85221247,0.52319585,-0.52319585,0.85221247,0,0)" />
  <rect
     transform="matrix(0.4806732,-0.87689981,0.87689981,0.4806732,0,0)"
     style="fill:#000000;fill-opacity:1;stroke:none"
     id="rect4495"
     width="28"
     height="5.375"
     x="-11.535218"
     y="62.531178" />
  <g
     id="g4517"
     transform="translate(98.25,-13)">
    <path
       inkscape:connector-curvature="0"
       id="path4483"
       style="font-size:14px;font-style:normal;font-variant:normal;font-weight:bold;font-stretch:normal;line-height:125%;letter-spacing:0px;word-spacing:0px;fill:#000000;fill-opacity:1;stroke:none;font-family:Neou;-inkscape-font-specification:Neou Bold"
       d="m -53.59,22.74 -2.66,2.688 0.742,0.728 1.708,-1.708 0,8.288 1.036,0 0,-9.996 -0.826,0" />
    <path
       inkscape:connector-curvature="0"
       id="path4485"
       style="font-size:14px;font-style:normal;font-variant:normal;font-weight:bold;font-stretch:normal;line-height:125%;letter-spacing:0px;word-spacing:0px;fill:#000000;fill-opacity:1;stroke:none;font-family:Neou;-inkscape-font-specification:Neou Bold"
       d="m -46.119469,28.144 c 0.588,-0.601999 0.91,-1.386001 0.91,-2.24 0,-1.749998 -1.372001,-3.164 -3.066,-3.164 -1.693998,0 -3.08,1.414002 -3.08,3.164 l 0,0.392 1.036,0 0,-0.392 c 0,-1.175999 0.910001,-2.128 2.044,-2.128 1.119999,0 2.044,0.952001 2.044,2.128 0,0.49 -0.168,0.966 -0.462,1.344 l -4.522,4.69 0,0.798 6.104,0 0,-1.05 -4.438,0 3.43,-3.542" />
  </g>
  <path
     d="m 83.900625,47.57 c 0.573999,-0.517999 0.924,-1.260001 0.924,-2.058 0,-1.525998 -1.232002,-2.758 -2.758,-2.758 l -0.28,0 -0.028,0 c -1.441999,0.042 -2.576,1.302001 -2.576,2.758 l 0,0.392 1.036,0 0,-0.406 c 0,-0.895999 0.700001,-1.694 1.582,-1.694 l 0.266,0 c 0.951999,0 1.708,0.756001 1.708,1.708 0,0.937999 -0.756001,1.708 -1.708,1.708 l -0.938,0 0,1.05 1.442,0 c 0.937999,0 1.708,0.770001 1.708,1.708 0,0.951999 -0.770001,1.722 -1.708,1.722 l -0.658,0 c -0.867999,0 -1.596,-0.658001 -1.694,-1.526 l -0.042,-0.364 -1.036,0 0.042,0.434 c 0.07,0.685999 0.378001,1.316 0.882,1.778 0.503999,0.462 1.162001,0.714 1.848,0.714 l 0.658,0 c 1.511998,0 2.744,-1.232002 2.744,-2.758 0,-1.021999 -0.560001,-1.932 -1.414,-2.408"
     style="font-size:14px;font-style:normal;font-variant:normal;font-weight:bold;font-stretch:normal;line-height:125%;letter-spacing:0px;word-spacing:0px;fill:#000000;fill-opacity:1;stroke:none;font-family:Neou;-inkscape-font-specification:Neou Bold"
     id="path4487"
     inkscape:connector-curvature="0" />
  <path
     d="m 47.982688,75.99 c -1.749999,0 -3.178,1.428002 -3.178,3.178 l 0,3.766 0.042,0.392 c 0.153999,1.539998 1.554001,2.674 3.136,2.674 1.749998,0 3.164,-1.428002 3.164,-3.178 0,-1.749998 -1.414002,-3.178 -3.164,-3.178 -0.812,0 -1.568001,0.308001 -2.142,0.84 l 0,-1.316 c 0,-1.175999 0.966001,-2.142 2.142,-2.142 1.175998,0 2.128,0.966001 2.128,2.142 l 0,0.392 1.036,0 0,-0.392 c 0,-1.749998 -1.414002,-3.178 -3.164,-3.178 m 0,4.704 c 1.175998,0 2.128,0.952001 2.128,2.128 0,1.175999 -0.952002,2.128 -2.128,2.128 -1.175999,0 -2.142,-0.952001 -2.142,-2.128 0,-1.175999 0.966001,-2.128 2.142,-2.128"
     style="font-size:14px;font-style:normal;font-variant:normal;font-weight:bold;font-stretch:normal;line-height:125%;letter-spacing:0px;word-spacing:0px;fill:#000000;fill-opacity:1;stroke:none;font-family:Neou;-inkscape-font-specification:Neou Bold"
     id="path4489"
     inkscape:connector-curvature="0" />
  <path
     d="m 16.932812,44.9 c -0.153999,-1.525998 -1.540001,-2.66 -3.121999,-2.66 -1.749999,0 -3.178001,1.428002 -3.178001,3.178 0,1.749998 1.428002,3.164 3.178001,3.164 0.797999,0 1.554,-0.308001 2.127999,-0.826 l 0,1.316 c 0,1.175999 -0.952001,2.128 -2.127999,2.128 -1.175999,0 -2.142001,-0.952001 -2.142001,-2.128 l 0,-0.392 -1.036,0 0,0.392 c 0,1.749998 1.428002,3.178 3.178001,3.178 1.749998,0 3.163999,-1.428002 3.163999,-3.178 l 0,-3.766 -0.042,-0.406 m -3.121999,2.646 c -1.175999,0 -2.142001,-0.952001 -2.142001,-2.128 0,-1.175999 0.966002,-2.142 2.142001,-2.142 1.175998,0 2.127999,0.966001 2.127999,2.142 0,1.175999 -0.952001,2.128 -2.127999,2.128"
     style="font-size:14px;font-style:normal;font-variant:normal;font-weight:bold;font-stretch:normal;line-height:125%;letter-spacing:0px;word-spacing:0px;fill:#000000;fill-opacity:1;stroke:none;font-family:Neou;-inkscape-font-specification:Neou Bold"
     id="path4491"
     inkscape:connector-curvature="0" />
  <path
     transform="matrix(0.09490085,0,0,0.09490085,21.986195,66.490154)"
     d="m 69.650017,27.764196 a 33.941124,33.941124 0 1 1 -67.8822481,0 33.941124,33.941124 0 1 1 67.8822481,0 z"
     sodipodi:ry="33.941124"
     sodipodi:rx="33.941124"
     sodipodi:cy="27.764196"
     sodipodi:cx="35.708893"
     id="path4521"
     style="fill:#ff0000;fill-opacity:1;stroke:none"
     sodipodi:type="arc" />
</svg>
