<?xml version="1.0" encoding="UTF-8" standalone="no"?>
<!-- Created with Inkscape (http://www.inkscape.org/) -->

<svg
   xmlns:dc="http://purl.org/dc/elements/1.1/"
   xmlns:cc="http://creativecommons.org/ns#"
   xmlns:rdf="http://www.w3.org/1999/02/22-rdf-syntax-ns#"
   xmlns:svg="http://www.w3.org/2000/svg"
   xmlns="http://www.w3.org/2000/svg"
   xmlns:xlink="http://www.w3.org/1999/xlink"
   xmlns:sodipodi="http://sodipodi.sourceforge.net/DTD/sodipodi-0.dtd"
   xmlns:inkscape="http://www.inkscape.org/namespaces/inkscape"
   version="1.0"
   width="96"
   height="96"
   id="svg2408"
   inkscape:version="0.48.3.1 r9886"
   sodipodi:docname="application-default-icon.svg">
  <sodipodi:namedview
     pagecolor="#ffffff"
     bordercolor="#666666"
     borderopacity="1"
     objecttolerance="10"
     gridtolerance="10"
     guidetolerance="10"
     inkscape:pageopacity="0"
     inkscape:pageshadow="2"
     inkscape:window-width="1280"
     inkscape:window-height="752"
     id="namedview128"
     showgrid="false"
     inkscape:zoom="2"
     inkscape:cx="76.524059"
     inkscape:cy="84.490951"
     inkscape:window-x="0"
     inkscape:window-y="0"
     inkscape:window-maximized="1"
     inkscape:current-layer="svg2408"
     showguides="true"
     inkscape:guide-bbox="true" />
  <defs
     id="defs2410">
    <linearGradient
       x1="45.447727"
       y1="92.539597"
       x2="45.447727"
       y2="7.0165396"
       id="ButtonShadow"
       gradientUnits="userSpaceOnUse"
       gradientTransform="scale(1.0058652,0.994169)">
      <stop
         id="stop3750"
         style="stop-color:#000000;stop-opacity:1"
         offset="0" />
      <stop
         id="stop3752"
         style="stop-color:#000000;stop-opacity:0.58823532"
         offset="1" />
    </linearGradient>
    <filter
       color-interpolation-filters="sRGB"
       id="filter3174">
      <feGaussianBlur
         id="feGaussianBlur3176"
         stdDeviation="1.71" />
    </filter>
    <clipPath
       id="clipPath3613">
      <rect
         style="fill:#ffffff;fill-opacity:1;fill-rule:nonzero;stroke:none"
         id="rect3615"
         y="6"
         x="6"
         ry="6"
         rx="6"
         height="84"
         width="84" />
    </clipPath>
    <filter
       id="filter3794-3"
       color-interpolation-filters="sRGB"
       height="1.3839999"
       width="1.3839999"
       y="-0.192"
       x="-0.192">
      <feGaussianBlur
         stdDeviation="5.28"
         id="feGaussianBlur3796-2" />
    </filter>
    <filter
       id="filter3174-4"
       color-interpolation-filters="sRGB">
      <feGaussianBlur
         stdDeviation="1.71"
         id="feGaussianBlur3176-2" />
    </filter>
    <linearGradient
       id="linearGradient3737-3">
      <stop
         offset="0"
         style="stop-color:#ffffff;stop-opacity:1"
         id="stop3739-9" />
      <stop
         offset="1"
         style="stop-color:#ffffff;stop-opacity:0"
         id="stop3741-55" />
    </linearGradient>
    <linearGradient
       gradientTransform="scale(1.0058652,0.994169)"
       gradientUnits="userSpaceOnUse"
       id="ButtonShadow-3"
       y2="7.0165396"
       x2="45.447727"
       y1="92.539597"
       x1="45.447727">
      <stop
         offset="0"
         style="stop-color:#000000;stop-opacity:1"
         id="stop3750-4" />
      <stop
         offset="1"
         style="stop-color:#000000;stop-opacity:0.58823532"
         id="stop3752-7" />
    </linearGradient>
    <linearGradient
       inkscape:collect="always"
       xlink:href="#linearGradient3737-3"
       id="linearGradient4587"
       gradientUnits="userSpaceOnUse"
       x1="48"
       y1="20.220806"
       x2="48"
       y2="138.66119" />
    <linearGradient
       inkscape:collect="always"
       xlink:href="#ButtonShadow-3"
       id="linearGradient4594"
       gradientUnits="userSpaceOnUse"
       gradientTransform="matrix(1.0058652,0,0,0.994169,97.5,0)"
       x1="45.447727"
       y1="92.539597"
       x2="45.447727"
       y2="7.0165396" />
  </defs>
  <metadata
     id="metadata2413">
    <rdf:RDF>
      <cc:Work
         rdf:about="">
        <dc:format>image/svg+xml</dc:format>
        <dc:type
           rdf:resource="http://purl.org/dc/dcmitype/StillImage" />
        <dc:title />
      </cc:Work>
    </rdf:RDF>
  </metadata>
  <g
     id="layer2"
     style="display:none">
    <path
       d="M 11,7 C 7.676,7 5,9.676 5,13 l 0,33.6875 c 2.2377507,0.124029 4.660506,0.235683 5.875,0.4375 0.66093,0.10983 -0.08406,0.240848 -1.125,0.34375 C 8.7090622,47.571654 7.3545491,47.665119 6.84375,47.75 6.2216014,47.853382 5.6264179,47.903999 5,48 l 0,1.0625 c 0.3803657,0.03607 0.7183843,0.03125 0.9375,0.03125 0.80883,10e-7 1.1599727,0.215701 1.3125,0.5625 0.1525272,0.346797 0.09375,0.839723 0.09375,1.40625 0,0.424828 -0.9420178,0.663014 -1.15625,1.375 C 6.110939,52.691968 5.5510552,52.945524 5,53.1875 l 0,2.21875 c 0.7355867,0.02497 1.4332639,0.05671 1.84375,0.3125 C 7.1254716,55.894306 6.0687957,56.124098 5,56.3125 l 0,7.5625 c 1.1379643,0.180337 3.3100715,0.925679 3.96875,1.0625 1.090152,0.226446 1.224723,0.33476 0.875,0.4375 -0.3497231,0.102744 -1.173581,0.175172 -2,0.3125 C 6.8656638,65.850029 5.90816,66.141998 5,66.34375 L 5,86 c 0,3.324 2.676,6 6,6 l 13,0 c 0.0954,-0.438237 0.150955,-0.931178 0.25,-1.4375 0.140364,-0.717512 0.25498,-1.34159 0.375,-1.59375 0.03001,-0.06304 0.05815,-0.114053 0.09375,-0.125 0.106804,-0.03285 0.238198,0.191956 0.46875,0.78125 0.304338,0.777871 0.540174,1.646782 0.6875,2.375 l 0.75,0 c 0.276152,-0.493694 0.578538,-1.138496 0.8125,-1.4375 0.09907,-0.126629 0.275237,0.131501 0.53125,0.375 0.256014,0.2435 0.588904,0.486378 0.9375,0.375 0.648614,-0.207227 1.602807,-0.726227 2.03125,-1 0.139883,-0.08938 0.300164,-0.157976 0.40625,-0.1875 0.106087,-0.02952 0.174331,-0.01774 0.25,0 0.151339,0.03548 0.232196,0.144559 0.34375,0.28125 0.223098,0.27338 0.466785,0.656251 1.0625,0.65625 0.478344,0 0.657185,-0.0325 0.78125,0.0625 0.124065,0.095 0.197087,0.314551 0.40625,0.875 l 8.875,0 c -0.04778,-0.593879 1.040547,-2.151517 1.21875,-3.0625 0.19092,-0.975995 0.214078,-1.242419 0.28125,-1.0625 0.06717,0.179919 0.192504,0.793906 0.46875,1.5 0.110448,0.282298 0.213887,0.358235 0.3125,0.28125 0.09861,-0.07699 0.168895,-0.293948 0.25,-0.5625 0.162213,-0.537107 0.285649,-1.296709 0.34375,-1.59375 0.131129,-0.670335 0.128655,-1.786501 0.125,-2.28125 -9.11e-4,-0.123687 -0.0059,-0.217815 0,-0.25 0.01779,-0.09656 0.08067,0.312079 0.28125,1.59375 0.163819,1.046767 0.54767,2.687946 0.71875,3.5625 0.169798,0.867992 0.298106,1.322124 0.40625,1.875 l 28.21875,0 c 0.03877,-0.494956 0.03519,-1.098589 0.0625,-1.5 0.02049,-0.301057 0.06649,-0.487005 0.15625,-0.46875 0.02992,0.0061 0.05077,0.03882 0.09375,0.09375 0.233449,0.298339 0.630596,1.164908 0.96875,1.875 L 85,92 c 3.324,0 6,-2.676 6,-6 l 0,-7.21875 c -0.16942,0.0045 -0.290112,-4e-6 -0.5,0 -1.330307,0 -2.638456,-4e-6 -3.96875,0 -1.226564,0 -2.05394,-9.64e-4 -2.25,-0.0625 -0.19606,-0.06154 0.232972,-0.183183 1.46875,-0.5 C 86.405034,78.050819 89.092469,77.290673 91,76.875 L 91,38.46875 C 90.34725,38.202412 89.792969,37.980093 89.25,37.5625 89.107486,37.452886 88.801155,37.170028 88.28125,37 87.761349,36.829972 87.007124,36.743855 86,36.9375 c -1.533473,0.294852 -1.685602,0.283469 -1.25,0.15625 0.4356,-0.127221 1.468635,-0.381012 2.25,-0.53125 1.152717,-0.221645 2.722214,-1.204246 4,-1.84375 l 0,-4.5625 c -0.69831,-0.257978 -1.422206,-0.558272 -1.75,-1.0625 -0.209707,-0.322576 -0.321618,-0.513018 -0.3125,-0.625 0.0091,-0.111981 0.13299,-0.149124 0.25,-0.1875 0.117011,-0.03837 0.261032,-0.05449 0.375,-0.15625 0.11397,-0.101759 0.187497,-0.291619 0.1875,-0.59375 0,-0.32292 0.08246,-0.887065 0.0625,-1.40625 -0.01,-0.259593 -0.03562,-0.49724 -0.125,-0.6875 -0.08939,-0.19026 -0.219089,-0.333004 -0.4375,-0.375 -0.574572,-0.110478 -0.848143,-0.233682 -0.90625,-0.34375 -0.05811,-0.110067 0.07208,-0.18937 0.28125,-0.28125 0.418339,-0.18376 1.132532,-0.339398 1.125,-0.34375 -0.668701,-0.385725 -5.247169,-0.921226 -5,-0.96875 0.332574,-0.06395 0.667437,-0.123553 1,-0.1875 1.047644,-0.201439 2.43278,-0.309227 3.75,-0.5625 0.573261,-0.110227 0.911769,-0.250569 1.125,-0.4375 0.213229,-0.18693 0.294201,-0.423258 0.375,-0.625 L 91,13 C 91,9.676 88.324,7 85,7 L 33.625,7 C 33.72158,8.3975706 33.82658,9.959362 33.53125,9.1875 33.320827,8.6375466 33.210422,8.0499534 33,7.5 32.946762,7.3608606 32.903941,7.1705291 32.84375,7 L 30.8125,7 C 30.571803,7.4923127 30.362863,7.9708281 30.03125,8.1875 29.524321,8.5187294 29.245447,8.6821159 29,8.59375 28.754552,8.5053839 28.523162,8.1669814 28.15625,7.6875 27.992502,7.4735174 27.721718,7.2560338 27.40625,7 l -6.8125,0 -1.3125,5.5625 L 17.53125,7 17.3125,7 15.5625,15.9375 14.15625,7 11,7 z"
       inkscape:connector-curvature="0"
       id="rect3745"
       style="opacity:0.9;fill:url(#ButtonShadow);fill-opacity:1;fill-rule:nonzero;stroke:none;filter:url(#filter3174)" />
  </g>
  <rect
     y="0"
     x="0"
     height="96"
     width="96"
     id="rect6228"
     style="fill:#ececec;fill-opacity:1;stroke:none" />
  <rect
     style="opacity:0.38914029000000000;fill:#999999;fill-opacity:1;stroke:none"
     id="rect3878"
     width="96"
     height="2.5"
     x="0"
     y="93.5" />
  <rect
     style="opacity:0.9;fill:url(#linearGradient4594);fill-opacity:1;fill-rule:nonzero;stroke:none;display:none;filter:url(#filter3174-4)"
     id="rect3745-4"
     y="7"
     x="102.5"
     ry="6"
     rx="6"
     height="85"
     width="86" />
  <rect
     style="opacity:0.1;fill:url(#linearGradient4587);fill-opacity:1;fill-rule:nonzero;stroke:#ffffff;stroke-width:0.5;stroke-linecap:round;stroke-linejoin:miter;stroke-miterlimit:4;stroke-opacity:1;stroke-dasharray:none;stroke-dashoffset:0;display:none;filter:url(#filter3794-3)"
     id="rect3171"
     clip-path="url(#clipPath3613)"
     y="15"
     x="15"
     ry="12"
     rx="12"
     height="66"
     width="66"
     transform="translate(97.5,0)" />
  <g
     transform="matrix(1.6909726,0,0,1.6909726,83.51042,-31.26436)"
     id="g4904"
     style="fill:#37abc8">
    <path
       inkscape:connector-curvature="0"
       id="path4906"
       d="m -22.211869,23.53035 c -0.374261,0.01901 -0.746809,0.05928 -1.116218,0.09567 l -0.669721,2.902156 c -0.559544,0.08197 -1.114397,0.161016 -1.658373,0.287022 l -1.658373,-2.423771 c -0.384924,0.107766 -0.771496,0.192197 -1.148106,0.318912 l 0,2.997825 c -0.519835,0.20285 -1.032495,0.426865 -1.530807,0.66973 l -2.168638,-2.009183 c -0.338237,0.184503 -0.692688,0.37358 -1.020532,0.574054 l 0.637833,2.902148 c -0.459042,0.311576 -0.907915,0.641993 -1.339452,0.988651 l -2.583237,-1.46703 c -0.292259,0.2582 -0.582115,0.493084 -0.861075,0.765408 l 1.275673,2.710802 c -0.376422,0.40381 -0.740997,0.810686 -1.084319,1.243775 l -2.838371,-0.861075 c -0.22886,0.317862 -0.456726,0.659085 -0.669727,0.988642 l 1.849725,2.328103 c -0.275794,0.474063 -0.527349,0.969899 -0.765407,1.467018 l -2.965931,-0.191354 c -0.152733,0.361832 -0.311732,0.713458 -0.446485,1.08432 l 2.296205,1.849726 c -0.164865,0.530058 -0.292357,1.079011 -0.414592,1.626475 l -2.90215,0.446487 c -0.06745,0.384528 -0.142949,0.757345 -0.19135,1.148107 l 2.678907,1.307562 c -0.04066,0.528569 -0.09567,1.055596 -0.09567,1.594585 0,0.02152 -6.7e-5,0.04224 0,0.06376 l -2.742691,1.084319 c 0.01899,0.386466 0.05812,0.798687 0.09567,1.179997 l 2.90215,0.66973 c 0.08196,0.559535 0.161021,1.114397 0.287025,1.658373 l -2.423774,1.658363 c 0.107768,0.384924 0.192197,0.771497 0.318917,1.148107 l 2.997828,0 c 0.202843,0.519835 0.426853,1.032495 0.669727,1.530807 l -2.009183,2.168638 c 0.184503,0.338237 0.373578,0.692688 0.574052,1.02054 l 2.90215,-0.637841 c 0.311576,0.459051 0.641993,0.907915 0.988642,1.339452 l -1.467019,2.583236 c 0.2582,0.29226 0.493084,0.582125 0.765399,0.861076 l 2.710803,-1.275664 c 0.403809,0.376413 0.810685,0.740988 1.243784,1.084319 l -0.861085,2.838356 c 0.317871,0.228867 0.659095,0.456728 0.988651,0.669731 l 2.328094,-1.849727 c 0.474072,0.275795 0.969909,0.527358 1.467028,0.765408 l -0.191354,2.965935 c 0.361831,0.15273 0.713457,0.311728 1.084319,0.446487 l 1.849718,-2.296214 c 0.530066,0.164872 1.079019,0.292358 1.626483,0.414598 l 0.446487,2.902147 c 0.384529,0.06744 0.757345,0.142947 1.148098,0.191355 l 1.307563,-2.678914 c 0.528569,0.04062 1.055595,0.09568 1.594593,0.09568 0.02152,0 0.04224,6.2e-5 0.06376,0 l 1.084319,2.742682 c 0.386466,-0.01901 0.798687,-0.05811 1.179997,-0.09567 l 0.669721,-2.902147 c 0.559544,-0.08197 1.114397,-0.161025 1.658373,-0.287023 l 1.658373,2.423772 c 0.384914,-0.107766 0.771487,-0.192197 1.148107,-0.318921 l 0,-2.997825 c 0.519834,-0.202841 1.032494,-0.426856 1.530797,-0.669721 l 2.168647,2.009173 c 0.338229,-0.184502 0.692688,-0.373579 1.020532,-0.574053 L -9.45519,63.905293 c 0.459042,-0.311567 0.907915,-0.641993 1.339453,-0.988642 l 2.583236,1.467015 c 0.292251,-0.2582 0.582116,-0.49308 0.861076,-0.765395 l -1.275674,-2.710803 c 0.376422,-0.403809 0.740997,-0.810686 1.08432,-1.243775 l 2.838368,0.861076 c 0.228857,-0.317871 0.456728,-0.659095 0.669732,-0.988642 l -1.849728,-2.328103 c 0.275795,-0.474072 0.52735,-0.9699 0.765407,-1.467019 l 2.965926,0.191345 c 0.15274,-0.361831 0.311739,-0.713457 0.446489,-1.084319 L -1.32279,52.998313 c 0.164863,-0.530066 0.292358,-1.079019 0.414598,-1.626483 L 1.993954,50.925343 C 2.061394,50.540814 2.1369,50.167997 2.185299,49.777245 l -2.678904,-1.307563 c 0.04062,-0.528569 0.09567,-1.055595 0.09567,-1.594585 0,-0.02152 7.1e-5,-0.04224 0,-0.06376 L 2.344757,45.727009 C 2.325747,45.340544 2.286647,44.928322 2.249087,44.547022 L -0.65306,43.87729 C -0.73503,43.317747 -0.814086,42.762893 -0.940092,42.218918 L 1.483689,40.560545 C 1.375914,40.175631 1.291491,39.789057 1.164769,39.412438 l -2.997826,0 c -0.20285,-0.519834 -0.426856,-1.032485 -0.669729,-1.530797 l 2.009182,-2.168638 c -0.184503,-0.338238 -0.373579,-0.692697 -0.574053,-1.020541 l -2.902148,0.637832 C -4.281381,34.871252 -4.611798,34.42238 -4.958447,33.990842 l 1.467018,-2.583236 C -3.749628,31.115356 -3.984521,30.8255 -4.256836,30.546539 l -2.710803,1.275665 c -0.403809,-0.376413 -0.810685,-0.740989 -1.243775,-1.084319 l 0.861076,-2.83836 C -7.66821,27.670658 -8.009424,27.442796 -8.33898,27.229794 l -2.328103,1.849718 c -0.474063,-0.275786 -0.9699,-0.527349 -1.467019,-0.765399 l 0.191354,-2.965935 c -0.36184,-0.15273 -0.713457,-0.311728 -1.08432,-0.446478 l -1.849727,2.296205 c -0.530065,-0.164873 -1.07901,-0.292358 -1.626483,-0.414598 l -0.446477,-2.902148 c -0.384539,-0.06744 -0.757346,-0.142946 -1.148107,-0.191354 l -1.307563,2.678913 c -0.528569,-0.04062 -1.055595,-0.09568 -1.594585,-0.09568 -0.02152,0 -0.04224,-6.2e-5 -0.06376,0 l -1.08432,-2.742688 c -0.01211,5.91e-4 -0.05174,-6.1e-4 -0.06376,0 z m 1.211885,7.430778 c 8.783674,0 15.913988,7.130323 15.913988,15.913996 0,8.783674 -7.130314,15.913987 -15.913988,15.913987 -8.783673,0 -15.913996,-7.130313 -15.913996,-15.913987 0,-8.783673 7.130323,-15.913996 15.913996,-15.913996 z m 0,7.781598 c -4.499324,0 -8.132398,3.633074 -8.132398,8.132398 0,4.499324 3.633074,8.132399 8.132398,8.132399 4.499325,0 8.132399,-3.633075 8.132399,-8.132399 0,-4.499324 -3.633074,-8.132398 -8.132399,-8.132398 z m 0,4.496732 c 2.008421,0 3.635657,1.627237 3.635657,3.635666 0,2.008421 -1.627236,3.635657 -3.635657,3.635657 -2.00842,0 -3.635665,-1.627236 -3.635665,-3.635657 0,-2.008429 1.627245,-3.635666 3.635665,-3.635666 z"
       style="fill:#37abc8;fill-opacity:1;stroke:none" />
  </g>
  <rect
     y="0"
     x="0"
     height="2.5"
     width="96"
     id="rect3880"
     style="opacity:0.3122172;fill:#ffffff;fill-opacity:1;stroke:none" />
</svg>
